<?xml version="1.0" standalone="no"?>
<!DOCTYPE svg PUBLIC "-//W3C//DTD SVG 1.1//EN" "http://www.w3.org/Graphics/SVG/1.1/DTD/svg11.dtd" >
<svg xmlns="http://www.w3.org/2000/svg">
<metadata></metadata>
<defs>
<font id="acherus_grotesquebold" horiz-adv-x="1304" >
<font-face units-per-em="2048" ascent="1638" descent="-410" />
<missing-glyph horiz-adv-x="518" />
<glyph unicode="&#xfb01;" horiz-adv-x="1400" d="M958 854h-509v-811q0 -25 -10 -34t-36 -9h-143q-26 0 -35.5 9t-9.5 34v811h-125q-26 0 -35.5 8.5t-9.5 34.5v102q0 25 9.5 34t35.5 9h125v60q0 220 99 338.5t298 118.5q109 0 189 -48q19 -10 23 -21t-1 -34l-18 -102q-6 -31 -16 -35t-39 10q-51 21 -113 21 q-96 0 -142 -61t-46 -197v-50h700q26 0 34.5 -9t8.5 -34v-956q0 -25 -8.5 -34t-34.5 -9h-145q-26 0 -36 9t-10 34v811zM932 1368q0 60 40.5 102.5t100.5 42.5t103 -42.5t43 -102.5t-43 -100.5t-103 -40.5t-100.5 40.5t-40.5 100.5z" />
<glyph unicode="&#xfb03;" horiz-adv-x="2086" d="M1647 854h-512v-811q0 -25 -9 -34t-34 -9h-146q-26 0 -34.5 9t-8.5 34v811h-454v-811q0 -25 -10 -34t-36 -9h-143q-26 0 -35.5 9t-9.5 34v811h-125q-26 0 -35.5 8.5t-9.5 34.5v102q0 25 9.5 34t35.5 9h125v60q0 220 99 338.5t298 118.5q109 0 189 -48q19 -10 23 -21 t-1 -34l-18 -102q-6 -31 -16 -35t-39 10q-51 21 -113 21q-96 0 -142 -61t-46 -197v-50h454v60q0 220 98 338.5t297 118.5q111 0 191 -48q18 -10 21.5 -21t-1.5 -34l-18 -102q-6 -31 -16 -35t-39 10q-49 21 -113 21q-96 0 -142 -61t-46 -197v-50h700q26 0 35.5 -9t9.5 -34 v-956q0 -25 -9.5 -34t-35.5 -9h-145q-26 0 -34.5 9t-8.5 34v811zM1618 1368q0 60 40.5 102.5t100.5 42.5t103 -42.5t43 -102.5t-43 -100.5t-103 -40.5t-100.5 40.5t-40.5 100.5z" />
<glyph horiz-adv-x="0" />
<glyph horiz-adv-x="682" />
<glyph horiz-adv-x="0" />
<glyph horiz-adv-x="0" />
<glyph unicode="&#xd;" horiz-adv-x="518" />
<glyph unicode=" "  horiz-adv-x="518" />
<glyph unicode="&#x09;" horiz-adv-x="518" />
<glyph unicode="&#xa0;" horiz-adv-x="518" />
<glyph unicode="!" horiz-adv-x="696" d="M238 541l-33 850q0 25 9 34t34 9h201q26 0 34.5 -9t8.5 -34l-31 -850q0 -25 -9.5 -34t-35.5 -9h-135q-26 0 -34.5 9t-8.5 34zM193 131q0 66 44.5 112t108.5 46q66 0 112 -46t46 -112q0 -64 -46 -109t-112 -45q-64 0 -108.5 44.5t-44.5 109.5z" />
<glyph unicode="&#x22;" horiz-adv-x="798" d="M117 950v441q0 25 9 34t34 9h133q30 0 38.5 -13.5t2.5 -40.5l-78 -444q-4 -17 -12.5 -23t-26.5 -6h-57q-25 0 -34 8.5t-9 34.5zM483 950v441q0 25 9 34t34 9h133q54 0 41 -54l-77 -444q-4 -17 -12.5 -23t-26.5 -6h-58q-25 0 -34 8.5t-9 34.5z" />
<glyph unicode="#" horiz-adv-x="1722" d="M248 1075h346l82 322q6 20 18 28.5t37 8.5h80q30 0 40 -10t1 -33l-80 -316h365l84 322q6 20 18 28.5t37 8.5h80q56 0 39 -43l-80 -316h301q26 0 35.5 -9t9.5 -34v-86q0 -25 -9.5 -34t-35.5 -9h-344l-94 -368h313q26 0 34.5 -9t8.5 -34v-86q0 -27 -8.5 -36.5t-34.5 -9.5 h-358l-84 -323q-7 -24 -18.5 -30.5t-37.5 -6.5h-84q-26 0 -34 10t-1 33l80 317h-366l-82 -323q-9 -24 -19 -30.5t-36 -6.5h-84q-28 0 -36.5 10t-0.5 33l82 317h-289q-25 0 -34 10t-9 36v86q0 25 9 34t34 9h332l94 368h-301q-25 0 -34 9t-9 34v86q0 25 9 34t34 9zM729 903 l-96 -368h366l95 368h-365z" />
<glyph unicode="$" horiz-adv-x="1259" d="M549 -145v127q-252 18 -453 151q-20 11 -21 26t11 36l61 102q13 23 25.5 27.5t34.5 -9.5q159 -105 342 -118v421q-465 62 -465 390q0 57 16.5 115t53.5 114.5t90 101.5t132 76t173 39v115q0 26 9.5 35.5t35.5 9.5h47q25 0 34 -9.5t9 -35.5v-115q117 -8 218 -46.5 t214 -107.5q20 -11 21 -25.5t-11 -35.5l-61 -100q-11 -24 -23 -29t-36 8q-168 111 -322 119v-416q54 -7 100 -16t97 -24.5t91 -36.5t78 -52.5t63.5 -70.5t40.5 -93t15 -118q0 -82 -31 -156t-90 -133.5t-153 -97t-211 -43.5v-125q0 -26 -9 -35.5t-34 -9.5h-47 q-26 0 -35.5 9.5t-9.5 35.5zM928 399q0 86 -60 130t-184 69v-401q50 4 92 16.5t77 35.5t55 61.5t20 88.5zM326 1016q0 -135 223 -176v393q-121 -14 -172 -76.5t-51 -140.5z" />
<glyph unicode="%" horiz-adv-x="1767" d="M420 727q-158 0 -253 95.5t-95 271.5t95 271t253 95q157 0 252.5 -95.5t95.5 -270.5t-95.5 -271t-252.5 -96zM420 866q83 0 130.5 62t47.5 166q0 103 -47.5 164t-130.5 61t-130.5 -61t-47.5 -164q0 -104 47.5 -166t130.5 -62zM1460 1391l-958 -1358q-12 -19 -24 -26 t-34 -7h-108q-31 0 -38.5 10t9.5 33l959 1358q14 20 24.5 26.5t32.5 6.5h111q60 0 26 -43zM1348 -4q-158 0 -253.5 95t-95.5 271t95.5 271.5t253.5 95.5q157 0 252.5 -96t95.5 -271t-95.5 -270.5t-252.5 -95.5zM1348 135q83 0 130.5 61.5t47.5 165.5q0 103 -47.5 164.5 t-130.5 61.5q-84 0 -131.5 -61t-47.5 -165t47.5 -165.5t131.5 -61.5z" />
<glyph unicode="&#x26;" horiz-adv-x="1574" d="M866 377l-248 250q-280 -92 -280 -234q0 -101 62.5 -156t181.5 -55q37 0 73.5 13.5t64 31.5t57.5 47.5t48 51t41 51.5zM651 860l13 -10q81 31 147 97t66 140q0 77 -55.5 126t-141.5 49q-84 0 -131 -48t-47 -127q0 -94 149 -227zM1464 618q-19 -13 -73.5 -50t-82 -57 t-71.5 -57t-80 -75l346 -334q20 -20 15.5 -32.5t-31.5 -12.5h-221q-17 0 -31 7t-21.5 13.5t-25.5 24.5l-187 186q-55 -61 -97 -100.5t-98 -79t-119 -59t-134 -19.5q-222 0 -347.5 116.5t-125.5 299.5q0 66 23 122t58.5 94.5t89 72t102 54t110.5 40.5v2q-90 83 -145 168 t-56 182q0 47 14.5 93t47.5 90t80.5 78t118.5 54.5t157 20.5q106 0 192 -31t137 -81t78 -108t27 -116q0 -65 -22 -124.5t-54 -101t-76.5 -79.5t-79.5 -59.5t-73 -40.5l205 -197q40 44 104 97t100 79t113 80q18 14 31.5 13t28.5 -19l82 -96q32 -35 -9 -58z" />
<glyph unicode="'" horiz-adv-x="421" d="M100 950v441q0 25 9 34t34 9h131q57 0 41 -54l-75 -444q-4 -17 -13 -23t-28 -6h-56q-25 0 -34 8.5t-9 34.5z" />
<glyph unicode="(" horiz-adv-x="821" d="M70 590q0 292 141 510.5t387 349.5q42 23 66 -18l63 -113q27 -50 -31 -76q-185 -89 -288 -259t-103 -394t103.5 -395t287.5 -258q58 -26 31 -76l-63 -113q-24 -41 -66 -18q-246 130 -387 349t-141 511z" />
<glyph unicode=")" horiz-adv-x="821" d="M776 590q0 -292 -141 -511t-387 -349q-42 -23 -66 18l-63 113q-27 50 31 76q183 87 286 258t103 395t-103 394t-286 259q-58 26 -31 76l63 113q24 41 66 18q246 -131 387 -349.5t141 -510.5z" />
<glyph unicode="*" horiz-adv-x="894" d="M102 961l203 88l-201 88q-24 10 -27.5 23t9.5 36l35 66q19 40 57 18l207 -125l-16 240q-1 24 8.5 33.5t34.5 9.5h73q26 0 36 -9.5t7 -33.5l-16 -238l205 125q20 13 32.5 9t24.5 -27l35 -66q13 -23 9.5 -35.5t-27.5 -21.5l-199 -90l203 -86q40 -15 18 -60l-35 -65 q-21 -43 -57 -21l-209 125l16 -244q3 -24 -7 -33.5t-36 -9.5h-71q-27 0 -36.5 9.5t-8.5 33.5l16 244l-209 -127q-37 -25 -57 19l-35 63q-7 17 -8.5 27.5t5 19t21.5 15.5z" />
<glyph unicode="+" horiz-adv-x="1032" d="M610 995v-272h275q26 0 35.5 -9.5t9.5 -35.5v-103q0 -26 -9 -34.5t-36 -8.5h-275v-276q0 -26 -9 -34.5t-34 -8.5h-102q-27 0 -36 8.5t-9 34.5v276h-275q-25 0 -34 8.5t-9 34.5v103q0 26 9 35.5t34 9.5h275v272q0 25 9.5 34t35.5 9h102q25 0 34 -9t9 -34z" />
<glyph unicode="," horiz-adv-x="577" d="M291 -16h-10q-64 0 -109 45t-45 110t45.5 111.5t110.5 46.5q75 0 121.5 -56t46.5 -153q0 -143 -79.5 -256t-201.5 -172q-17 -10 -29 4l-41 66q-10 15 9 26q152 97 182 228z" />
<glyph unicode="-" horiz-adv-x="878" d="M723 489h-565q-26 0 -35.5 9t-9.5 34v97q0 26 9 34.5t36 8.5h565q25 0 34 -8.5t9 -34.5v-97q0 -25 -9 -34t-34 -9z" />
<glyph unicode="." horiz-adv-x="569" d="M127 133q0 66 45 112t111 46t112.5 -46t46.5 -112t-46.5 -111t-112.5 -45t-111 45t-45 111z" />
<glyph unicode="/" horiz-adv-x="856" d="M778 1391l-467 -1354q-7 -24 -18 -30.5t-37 -6.5h-133q-26 0 -34 10t-1 33l467 1354q6 20 18 28.5t37 8.5h127q30 0 40 -10t1 -33z" />
<glyph unicode="0" horiz-adv-x="1351" d="M346 717q0 -83 9.5 -156t33.5 -142.5t61 -119t94.5 -79.5t131.5 -30t131.5 30t94.5 79.5t61 119t33.5 142.5t9.5 156q0 82 -9.5 155t-33.5 142t-60.5 119t-94.5 80t-132 30t-132 -30t-94.5 -80t-60.5 -119t-33.5 -142t-9.5 -155zM96 717q0 124 22 234t68.5 203.5 t113.5 161.5t163.5 106t212.5 38t212 -38t163.5 -106t113.5 -161.5t68 -203.5t22 -234q0 -156 -35.5 -289t-104.5 -235.5t-181.5 -161t-257.5 -58.5t-257.5 58.5t-182 161t-105 235.5t-35.5 289z" />
<glyph unicode="1" horiz-adv-x="778" d="M90 1235l262 158q2 1 16.5 10t20 12t17.5 8.5t21 8t17 2.5h101q25 0 34 -9t9 -34v-1348q0 -25 -9 -34t-34 -9h-162q-25 0 -34 9t-9 34v1081l-229 -55q-25 -1 -34 7.5t-9 33.5v78q0 32 22 47z" />
<glyph unicode="2" horiz-adv-x="1144" d="M948 805l-477 -594h553q25 0 34 -8.5t9 -34.5v-125q0 -25 -9 -34t-34 -9h-936q-10 0 -14 4t-4 14v25q0 14 18 37l662 821q47 58 56.5 120t-15.5 110.5t-82.5 80t-135.5 31.5q-197 0 -342 -151q-21 -19 -32 -17.5t-29 21.5l-88 94q-17 21 -18.5 30.5t14.5 30.5 q212 209 495 209q105 0 193 -29t147 -78t95 -115t41.5 -138t-19.5 -149t-82 -146z" />
<glyph unicode="3" horiz-adv-x="1198" d="M600 627h-207q-26 0 -34.5 8.5t-8.5 34.5v112q0 27 8.5 36t34.5 9h195q66 0 115.5 17.5t76 46t39 59t12.5 62.5q0 110 -70 170.5t-198 60.5q-99 0 -165.5 -37t-135.5 -112q-18 -18 -30.5 -16t-30.5 20l-82 92q-19 20 -20 30.5t16 30.5q107 105 208 157t240 52 q72 0 143 -15t138.5 -48.5t119 -82t82.5 -121t31 -159.5q0 -106 -58.5 -186.5t-139.5 -120.5v-2q235 -94 235 -319q0 -109 -42 -193t-117.5 -136t-174 -78t-217.5 -26q-263 0 -475 209q-17 21 -16 31t18 31l84 90q18 18 31 19.5t31 -15.5q71 -71 148 -109.5t179 -38.5 q162 0 234.5 60t72.5 178q0 85 -72.5 142t-197.5 57z" />
<glyph unicode="4" horiz-adv-x="1325" d="M786 1434h193q26 0 34.5 -9t8.5 -34v-873h186q26 0 34.5 -9t8.5 -36v-104q0 -25 -8.5 -34t-34.5 -9h-186v-283q0 -25 -8.5 -34t-34.5 -9h-145q-26 0 -36 9t-10 34v283h-659q-26 0 -34.5 9t-8.5 34v112q0 25 4.5 38t20.5 36l643 862q13 17 32 17zM788 1126l-454 -608h454 v608z" />
<glyph unicode="5" horiz-adv-x="1185" d="M266 1434h699q25 0 34 -9t9 -34v-125q0 -26 -9 -35.5t-34 -9.5h-549l-45 -332h209q90 0 164 -12t142.5 -43t115 -79.5t74.5 -126.5t28 -179q0 -97 -27.5 -176t-77 -134.5t-118.5 -93t-150.5 -55t-175.5 -17.5q-142 0 -257 54t-220 157q-16 19 -14.5 29t18.5 31l84 90 q31 36 59 4q75 -72 149.5 -110t180.5 -38q156 0 230.5 60.5t74.5 189.5q0 232 -299 232h-385q-26 0 -36 9.5t-7 33.5l88 676q5 27 12.5 35t32.5 8z" />
<glyph unicode="6" horiz-adv-x="1265" d="M725 936q93 0 174 -29t143.5 -83.5t99 -141.5t36.5 -195q0 -105 -36.5 -199t-101.5 -163.5t-162 -110.5t-212 -41q-135 0 -236.5 38t-163 100.5t-100 154.5t-52.5 187t-14 211q0 132 17.5 244.5t60 216.5t108 176.5t167.5 115.5t233 43q135 0 242.5 -44t208.5 -138 q17 -20 16 -31t-20 -33l-89 -94q-18 -19 -30 -20.5t-33 16.5q-72 70 -142.5 98.5t-172.5 28.5q-156 0 -239 -137t-83 -363q104 193 381 193zM653 182q129 0 204 82.5t75 206.5q0 118 -81 193t-198 75q-121 0 -207 -81.5t-86 -194.5q0 -47 15.5 -93t47.5 -90t91.5 -71 t138.5 -27z" />
<glyph unicode="7" horiz-adv-x="1159" d="M1141 1401v-8q0 -20 -19 -54l-735 -1298q-23 -41 -70 -41h-170q-58 0 -41 43l662 1163h-662q-26 2 -34.5 10t-8.5 33v142q0 25 8.5 34t34.5 9h1000q20 0 27.5 -7.5t7.5 -25.5z" />
<glyph unicode="8" horiz-adv-x="1232" d="M616 -27q-256 0 -393 116.5t-137 297.5q0 60 20.5 115t50 92.5t65.5 68t64.5 46t49.5 22.5v8q-24 11 -54 32t-69.5 59t-65.5 97t-26 126q0 87 30.5 160.5t90 129t156 86.5t220.5 31q242 0 369 -113t127 -294q0 -67 -26 -126t-65.5 -97t-69.5 -59t-54 -32v-8 q21 -7 49.5 -22.5t64.5 -46t65.5 -68t50 -92.5t20.5 -115q0 -87 -33.5 -161.5t-97.5 -131t-167.5 -89t-234.5 -32.5zM616 641q-128 -20 -209 -81t-81 -159q0 -96 75 -157.5t215 -61.5q141 0 216 61.5t75 157.5q0 98 -81 159t-210 81zM616 1251q-118 0 -187 -59.5t-69 -153.5 q0 -86 69.5 -141t186.5 -70q118 15 187 70t69 141q0 94 -68.5 153.5t-187.5 59.5z" />
<glyph unicode="9" horiz-adv-x="1261" d="M545 498q-125 0 -226 49t-164 152.5t-63 246.5q0 105 36 198.5t101 163.5t161.5 111t211.5 41q135 0 236.5 -38t163.5 -100.5t100.5 -154t52.5 -186.5t14 -211q0 -132 -17.5 -245t-59.5 -216.5t-107.5 -176.5t-167.5 -116t-233 -43q-258 0 -459 189q-17 19 -16 29t20 32 l88 94q19 20 30.5 22t33.5 -17q74 -69 148 -100.5t173 -31.5q156 0 239 137t83 363q-100 -192 -379 -192zM616 1251q-130 0 -204 -82t-74 -206q0 -118 81 -193.5t197 -75.5q120 0 205.5 82t85.5 195q0 46 -15.5 92t-47.5 89.5t-91 71t-137 27.5z" />
<glyph unicode=":" horiz-adv-x="569" d="M127 133q0 65 45.5 111.5t110.5 46.5q66 0 112.5 -46.5t46.5 -111.5q0 -66 -46.5 -111t-112.5 -45t-111 45t-45 111zM127 831q0 66 45 112t111 46t112.5 -46t46.5 -112t-46.5 -110.5t-112.5 -44.5t-111 44.5t-45 110.5z" />
<glyph unicode=";" horiz-adv-x="577" d="M127 831q0 66 45 112t111 46t112.5 -46t46.5 -112t-46.5 -110.5t-112.5 -44.5t-111 44.5t-45 110.5zM291 -23h-10q-65 2 -109.5 47t-44.5 109q0 65 45.5 111.5t110.5 46.5q75 0 121.5 -55.5t46.5 -151.5q0 -143 -79.5 -256t-201.5 -174q-20 -8 -29 4l-41 66q-10 15 9 28 q152 94 182 225z" />
<glyph unicode="&#x3c;" horiz-adv-x="1144" d="M27 719v4q2 19 11 30.5t30 20.5l931 500q25 11 34 7t9 -26v-135q0 -41 -43 -59l-643 -342l643 -340q43 -21 43 -60v-137q0 -20 -9 -24t-34 6l-931 502q-38 18 -41 53z" />
<glyph unicode="=" horiz-adv-x="980" d="M823 731h-665q-26 0 -35.5 9.5t-9.5 35.5v94q0 26 9.5 35.5t35.5 9.5h665q26 0 35.5 -9.5t9.5 -35.5v-96q0 -25 -9.5 -34t-35.5 -9zM823 330h-665q-27 0 -36 8.5t-9 34.5v96q0 25 9.5 34t35.5 9h665q26 0 35.5 -9t9.5 -34v-96q0 -26 -9 -34.5t-36 -8.5z" />
<glyph unicode="&#x3e;" horiz-adv-x="1144" d="M1118 723v-4q-3 -35 -41 -53l-932 -502q-25 -10 -34 -6t-9 24v137q0 39 43 60l643 340l-643 342q-43 18 -43 59v135q0 22 9 26t34 -7l932 -500q21 -9 30 -20.5t11 -30.5z" />
<glyph unicode="?" horiz-adv-x="1081" d="M414 756q204 36 304.5 94t100.5 160q0 101 -83 165t-230 64q-86 0 -170 -30.5t-182 -98.5q-22 -14 -34.5 -9.5t-25.5 27.5l-61 103q-12 21 -11 35.5t23 25.5q125 80 231.5 122t243.5 42q113 0 206 -26.5t154 -69.5t103 -100.5t60 -117t18 -120.5q0 -75 -23.5 -134.5 t-62 -100t-99.5 -73t-124.5 -52.5t-149.5 -39v-111q0 -26 -9 -34.5t-34 -8.5h-129q-27 0 -36 8.5t-9 34.5v213q0 28 29 31zM334 131q0 66 44.5 113t110.5 47t113 -47t47 -113q0 -64 -47 -110t-113 -46t-110.5 45.5t-44.5 110.5z" />
<glyph unicode="@" horiz-adv-x="2215" d="M1915 539q0 152 -42 277t-115.5 212.5t-176.5 147.5t-223.5 88.5t-257.5 29.5q-178 0 -328.5 -58t-254 -160t-161 -245t-57.5 -311q0 -223 97.5 -399t272 -274.5t394.5 -98.5q56 0 123.5 13.5t111.5 33.5q22 9 32.5 11t17.5 -3.5t10 -21.5l24 -100q8 -25 3.5 -39.5 t-29.5 -28.5q-129 -57 -293 -57q-211 0 -392.5 75.5t-307.5 205t-197.5 306.5t-71.5 377q0 133 32.5 258t92.5 231.5t149.5 195t199.5 151t246 97t286 34.5q171 0 324.5 -39t281 -117.5t220.5 -190.5t144.5 -265.5t51.5 -335.5q0 -100 -10.5 -189.5t-37 -177t-67.5 -149.5 t-107 -100.5t-151 -37.5q-104 0 -184 54.5t-123 166.5l-29 70q-32 -39 -63 -68t-78.5 -62t-109 -51t-132.5 -18q-102 0 -190 44t-147.5 118.5t-93.5 173t-34 207.5q0 149 57.5 273t164.5 198t243 74q56 0 109 -16t90 -37.5t70 -51t50 -50t31 -40.5l31 138q17 34 43 34h105 q25 0 34 -9t9 -34v-723q0 -206 133 -206q53 0 89.5 34.5t56 101.5t27 146.5t7.5 186.5zM1083 182q125 0 208 100t83 238t-83 237t-208 99q-127 0 -209.5 -98t-82.5 -238q0 -146 82 -242t210 -96z" />
<glyph unicode="A" horiz-adv-x="1499" d="M754 1044h-4l-238 -509h479zM791 1423l692 -1380q8 -16 -0.5 -29.5t-28.5 -13.5h-188q-23 0 -34.5 9t-23.5 34l-135 281h-645l-133 -281q-14 -26 -24.5 -34.5t-32.5 -8.5h-191q-18 0 -26.5 14t-0.5 29l693 1380q2 3 4 7.5t3.5 6.5t3.5 5.5t3.5 5.5t3 4.5t3 4t3.5 3 t3.5 2.5t3.5 1.5t4 0.5h6q5 0 8.5 -1.5t7 -6t6 -8t7.5 -12t8 -13.5z" />
<glyph unicode="B" horiz-adv-x="1372" d="M778 0h-559q-26 0 -35.5 8.5t-9.5 34.5v1348q0 25 9.5 34t35.5 9h508q74 0 143 -12t137.5 -41.5t119 -74t81.5 -114t31 -156.5q0 -193 -203 -297v-2q33 -14 62.5 -30.5t66 -46.5t63 -65t44.5 -87t18 -111q0 -86 -27.5 -154.5t-74.5 -113t-113.5 -74.5t-139.5 -42.5 t-157 -12.5zM422 207h344q143 0 209.5 53.5t66.5 159.5q0 89 -74 149t-194 60h-352v-422zM422 827h317q116 0 184 53t68 132q0 215 -274 215h-295v-400z" />
<glyph unicode="C" horiz-adv-x="1458" d="M829 190q225 0 379 164q20 18 32 16t30 -20l94 -102q18 -21 19 -32.5t-17 -31.5q-98 -97 -243 -154t-294 -57q-148 0 -284 59.5t-235 159t-157.5 237.5t-58.5 288t58.5 287.5t157.5 237.5t235 159t284 59q149 0 294 -57t243 -154q17 -18 15.5 -29.5t-19.5 -31.5l-94 -103 q-18 -19 -30.5 -20.5t-31.5 16.5q-152 162 -377 162q-104 0 -196 -44.5t-154.5 -118t-98.5 -168.5t-36 -195q0 -99 36 -194.5t98.5 -169t154.5 -118.5t196 -45z" />
<glyph unicode="D" horiz-adv-x="1552" d="M221 1434h514q199 0 365 -93.5t262 -258.5t96 -365t-96 -365t-262 -258.5t-365 -93.5h-514q-25 0 -34 9t-9 34v1348q0 25 9 34t34 9zM733 1227h-307v-1020h307q108 0 199 42t150.5 113t92.5 163t33 192q0 101 -33 193t-92.5 162.5t-150.5 112.5t-199 42z" />
<glyph unicode="E" d="M1139 0h-920q-26 0 -35.5 9t-9.5 34v1348q0 24 10 33.5t35 9.5h920q25 0 35 -9.5t10 -33.5v-125q0 -25 -10 -35t-35 -10h-717v-394h686q26 0 34.5 -8.5t8.5 -34.5v-125q0 -25 -8.5 -34t-34.5 -9h-686v-405h717q27 0 36 -8.5t9 -34.5v-125q0 -25 -9.5 -34t-35.5 -9z" />
<glyph unicode="F" horiz-adv-x="1275" d="M426 616v-573q0 -25 -9 -34t-34 -9h-162q-25 0 -34 9t-9 34v1348q0 25 9 34t34 9h920q26 0 35.5 -9t9.5 -34v-125q0 -25 -9.5 -35t-35.5 -10h-715v-394h696q26 0 34.5 -9t8.5 -34v-125q0 -25 -9 -34t-34 -9h-696z" />
<glyph unicode="G" horiz-adv-x="1533" d="M827 1243q-104 0 -196 -44.5t-154 -118t-97.5 -168.5t-35.5 -195t35.5 -195t97.5 -168.5t154 -118.5t196 -45q96 0 184 30.5t152 82.5v256h-295q-25 0 -34 8.5t-9 34.5v125q0 25 9 34t34 9h500q26 0 34.5 -9t8.5 -34v-465q0 -41 -33 -74q-101 -99 -250 -157t-301 -58 q-148 0 -284 59.5t-234 159t-156.5 237.5t-58.5 288t58.5 287.5t156.5 237.5t234 159t284 59t291.5 -56.5t245.5 -152.5q17 -20 16 -30.5t-20 -32.5l-94 -103q-18 -18 -31 -20t-33 16q-71 74 -169.5 118t-205.5 44z" />
<glyph unicode="H" horiz-adv-x="1552" d="M1122 821v570q0 25 9 34t34 9h162q25 0 34 -9t9 -34v-1348q0 -25 -9 -34t-34 -9h-162q-25 0 -34 9t-9 34v563h-692v-563q0 -25 -9 -34t-34 -9h-162q-25 0 -34 9t-9 34v1348q0 25 9 34t34 9h162q25 0 34 -9t9 -34v-570h692z" />
<glyph unicode="I" horiz-adv-x="612" d="M182 43v1348q0 25 9 34t34 9h162q26 0 34.5 -9t8.5 -34v-1348q0 -25 -9 -34t-34 -9h-162q-25 0 -34 9t-9 34z" />
<glyph unicode="J" horiz-adv-x="944" d="M557 1243h-283q-25 0 -34 9t-9 34v105q0 25 9 34t34 9h488q26 0 35.5 -9t9.5 -34v-834q0 -159 -45 -272.5t-133.5 -181t-207.5 -98.5t-278 -32q-32 0 -41 8t-12 35l-16 131q-1 24 10.5 33.5t40.5 9.5q238 0 335 84.5t97 282.5v686z" />
<glyph unicode="K" horiz-adv-x="1368" d="M657 750l660 -707q38 -43 -19 -43h-206q-21 0 -32.5 8t-33.5 35l-596 641v-641q0 -26 -9 -34.5t-34 -8.5h-162q-25 0 -34 9t-9 34v1348q0 25 9 34t34 9h162q25 0 34 -9t9 -34v-586l567 586q26 28 37 35.5t33 7.5h205q53 0 18 -43z" />
<glyph unicode="L" horiz-adv-x="1169" d="M426 211h635q25 0 34 -8.5t9 -34.5v-125q0 -25 -9 -34t-34 -9h-840q-25 0 -34 9t-9 34v1348q0 25 9 34t34 9h162q25 0 34 -9t9 -34v-1180z" />
<glyph unicode="M" horiz-adv-x="2013" d="M1561 879l-496 -863q-29 -43 -47 -43h-23q-20 0 -45 43l-489 856l-99 -829q-3 -27 -11 -35t-32 -8h-161q-49 0 -43 43l174 1399q2 11 5 14.5t13 3.5h15q14 0 24 -18l662 -1106l661 1106q10 18 25 18h14q10 0 13 -3.5t5 -14.5l172 -1399q2 -23 -8 -33t-35 -10h-161 q-25 0 -33.5 8.5t-9.5 34.5z" />
<glyph unicode="N" horiz-adv-x="1589" d="M428 961v-918q0 -25 -9 -34t-34 -9h-160q-25 0 -35 9.5t-10 33.5v1399q0 18 19 18h16q17 0 33 -16l911 -963v910q0 25 9 34t34 9h162q25 0 34 -9t9 -34v-1399q0 -19 -18 -19h-15q-15 0 -35 17z" />
<glyph unicode="O" horiz-adv-x="1658" d="M94 717q0 150 58.5 287.5t157.5 237.5t235 159t284 59t284.5 -59t235 -159t157.5 -237.5t59 -287.5t-59 -288t-157.5 -237.5t-235 -159t-284.5 -59.5t-284 59.5t-235 159t-157.5 237.5t-58.5 288zM344 717q0 -99 36 -194.5t98.5 -169t154.5 -118.5t196 -45 q106 0 198.5 45t154.5 119t97.5 168.5t35.5 194.5t-35.5 195t-97.5 168.5t-154 118t-199 44.5q-104 0 -196 -44.5t-154.5 -118t-98.5 -168.5t-36 -195z" />
<glyph unicode="P" horiz-adv-x="1271" d="M426 774h283q282 0 282 230q0 223 -282 223h-283v-453zM719 567h-293v-524q0 -25 -9 -34t-34 -9h-162q-26 0 -34.5 9t-8.5 34v1348q0 26 9 34.5t34 8.5h498q76 0 145.5 -12.5t138 -43.5t118 -78.5t80 -123.5t30.5 -172t-30.5 -172.5t-80.5 -125t-117.5 -81t-137.5 -45.5 t-146 -13z" />
<glyph unicode="Q" horiz-adv-x="1658" d="M94 717q0 150 58.5 287.5t157.5 237.5t235 159t284 59t284.5 -59t235 -159t157.5 -237.5t59 -287.5q0 -183 -79.5 -332.5t-215.5 -257.5l176 -236q15 -22 12.5 -34.5t-22.5 -26.5l-129 -92q-20 -14 -32.5 -11t-27.5 25l-180 266q-123 -45 -238 -45q-148 0 -284 59.5 t-235 159t-157.5 237.5t-58.5 288zM344 717q0 -99 36 -194.5t98.5 -169t154.5 -118.5t196 -45q106 0 198.5 45t154.5 119t97.5 168.5t35.5 194.5t-35.5 195t-97.5 168.5t-154 118t-199 44.5q-104 1 -196 -43.5t-154.5 -118t-98.5 -169t-36 -195.5z" />
<glyph unicode="R" horiz-adv-x="1357" d="M1231 1004q0 -168 -84 -269.5t-227 -142.5l366 -537q14 -29 3 -42t-40 -13h-151q-46 0 -76 43l-356 524h-240v-524q0 -26 -9 -34.5t-34 -8.5h-162q-25 0 -34 8.5t-9 34.5v1348q0 25 9 34t34 9h500q74 0 143 -12.5t137 -43.5t118 -78.5t81 -123.5t31 -172zM426 774h285 q280 0 280 230q0 223 -280 223h-285v-453z" />
<glyph unicode="S" horiz-adv-x="1310" d="M674 1239q-74 0 -130.5 -14t-89.5 -35.5t-53.5 -52t-28 -59.5t-7.5 -62q0 -40 18 -70.5t45.5 -49.5t76.5 -34t95.5 -23.5t118.5 -17.5q83 -10 147.5 -25t131.5 -45.5t110.5 -73.5t71.5 -111t28 -156q0 -86 -34 -163t-98.5 -137.5t-167 -96.5t-230.5 -36q-327 0 -555 156 q-22 13 -23 27t11 35l63 102q13 23 24 27.5t35 -9.5q187 -120 424 -120q312 0 312 204q0 43 -17 76t-45.5 55t-77.5 38.5t-100.5 27t-126.5 20.5t-136 24.5t-127 44t-111 70.5t-74 106t-29 147q0 56 16 114.5t56 119t98 107.5t151 77t207 30q148 0 260 -38t244 -118 q20 -11 21 -25.5t-11 -35.5l-61 -100q-13 -24 -24.5 -29t-34.5 8q-97 65 -184.5 93t-188.5 28z" />
<glyph unicode="T" horiz-adv-x="1269" d="M63 1434h1143q26 0 34.5 -9t8.5 -34v-136q0 -26 -9 -34.5t-34 -8.5h-446v-1169q0 -25 -9.5 -34t-35.5 -9h-160q-26 0 -34.5 9t-8.5 34v1169h-449q-26 0 -34.5 9t-8.5 34v136q0 25 9 34t34 9z" />
<glyph unicode="U" horiz-adv-x="1476" d="M739 -27q-127 0 -235.5 39.5t-190.5 115t-129 194.5t-47 268v801q0 24 10 33.5t35 9.5h160q26 0 34.5 -9t8.5 -34v-791q0 -207 92 -308.5t262 -101.5t261.5 101.5t91.5 308.5v791q0 25 8.5 34t34.5 9h159q26 0 35.5 -9t9.5 -34v-801q0 -149 -46.5 -268t-128.5 -194.5 t-190 -115t-235 -39.5z" />
<glyph unicode="V" horiz-adv-x="1499" d="M713 10l-693 1381q-8 15 0.5 29t26.5 14h191q21 0 32 -8.5t25 -34.5l457 -949v-2l456 951q12 25 24 34t34 9h188q21 0 29 -15.5t0 -27.5l-692 -1381q-2 -4 -6 -10.5t-5.5 -9.5t-4.5 -7.5t-5 -6t-4.5 -4t-5.5 -3t-6 -0.5h-6q-3 0 -5.5 0.5t-5 3t-4 4.5l-4.5 6t-4.5 7 t-5 9.5t-6.5 10.5z" />
<glyph unicode="W" horiz-adv-x="1970" d="M299 1391l317 -902l322 928q10 24 17 33.5t18 9.5h28q11 0 18 -9.5t17 -33.5l322 -928l317 902q7 24 20 33.5t38 9.5h196q23 0 28 -9t-5 -34l-539 -1381q-18 -41 -33 -41h-18q-13 0 -31 41l-344 977l-344 -977q-18 -41 -31 -41h-20q-11 0 -31 41l-538 1381q-11 25 -6 34 t28 9h197q25 0 37.5 -9t19.5 -34z" />
<glyph unicode="X" horiz-adv-x="1376" d="M692 514l-360 -471q-20 -26 -32 -34.5t-34 -8.5h-190q-51 0 -21 43l504 666l-510 682q-30 43 21 43h192q21 0 33.5 -8.5t30.5 -34.5l366 -486l365 486q20 26 31.5 34.5t31.5 8.5h193q53 0 20 -43l-510 -682l506 -666q30 -43 -20 -43h-191q-21 0 -32 8t-33 35z" />
<glyph unicode="Y" horiz-adv-x="1327" d="M545 541l-525 850q-13 25 -8 34t29 9h186q21 0 32.5 -9t25.5 -34l381 -633l383 633q16 26 26 34.5t31 8.5h182q24 0 29 -9t-8 -34l-525 -850v-498q0 -25 -8.5 -34t-34.5 -9h-153q-25 0 -34 9t-9 34v498z" />
<glyph unicode="Z" horiz-adv-x="1257" d="M1145 0h-1086q-18 0 -18 18v21q0 5 1 9t3 6.5t5.5 8.5t6.5 11l785 1147h-699q-26 0 -34.5 9t-8.5 36v125q0 25 8.5 34t34.5 9h1057q19 0 19 -19v-20q0 -5 -1.5 -9t-2.5 -6.5t-5.5 -9t-7.5 -10.5l-782 -1149h725q27 0 36 -8.5t9 -34.5v-125q0 -25 -9.5 -34t-35.5 -9z" />
<glyph unicode="[" horiz-adv-x="788" d="M664 -225v-111q0 -25 -9 -34t-34 -9h-402q-25 0 -34 9t-9 34v1751q0 25 9 34t34 9h402q25 0 34 -9t9 -34v-110q0 -26 -9 -35.5t-34 -9.5h-228v-1442h228q25 0 34 -8.5t9 -34.5z" />
<glyph unicode="\" horiz-adv-x="884" d="M567 37l-469 1354q-7 23 3 33t38 10h129q24 0 36 -8.5t18 -28.5l466 -1354q8 -23 0 -33t-36 -10h-131q-26 0 -36.5 7t-17.5 30z" />
<glyph unicode="]" horiz-adv-x="784" d="M123 -336v111q0 26 9 34.5t34 8.5h227v1442h-227q-25 0 -34 9.5t-9 35.5v110q0 25 9 34t34 9h401q25 0 34 -9t9 -34v-1751q0 -25 -9 -34t-34 -9h-401q-25 0 -34 9t-9 34z" />
<glyph unicode="^" horiz-adv-x="768" d="M338 1542h96q30 -2 60 -43l196 -282q27 -43 -18 -43h-92q-41 0 -68 43l-127 200l-127 -200q-24 -43 -68 -43h-92q-42 0 -18 43l196 282q30 41 62 43z" />
<glyph unicode="_" horiz-adv-x="1091" d="M954 -217h-815q-25 0 -34 8.5t-9 34.5v104q0 26 9 35.5t34 9.5h815q26 0 35.5 -9t9.5 -34v-106q0 -26 -9 -34.5t-36 -8.5z" />
<glyph unicode="`" horiz-adv-x="530" d="M250 1204l-160 135q-19 17 -21 29.5t9 30.5l57 92q31 51 60 12l256 -274q45 -51 -5 -51h-127q-40 0 -69 26z" />
<glyph unicode="a" horiz-adv-x="1175" d="M270 834q-24 -3 -33.5 5.5t-15.5 34.5l-24 99q-7 25 -2 36t28 17q39 9 150 24t209 15q97 0 170 -13.5t123.5 -43.5t83 -69t51 -98t25.5 -122.5t7 -149.5v-526q0 -25 -8.5 -34t-34.5 -9h-86q-19 0 -28.5 9t-18.5 34l-14 96q-147 -162 -383 -162q-95 0 -174.5 36.5 t-131.5 116t-52 189.5q0 160 111 245t286 85q67 0 151 -14.5t150 -38.5q0 149 -50 208.5t-188 59.5t-301 -30zM563 483q-112 0 -166.5 -44.5t-54.5 -119.5q0 -67 51 -115t150 -48q74 0 145.5 41.5t120.5 103.5v129q-79 28 -132 40.5t-114 12.5z" />
<glyph unicode="b" d="M401 1468v-594q13 25 38.5 53t67.5 61.5t104 55t132 21.5q136 0 245.5 -74t169 -198t59.5 -273q0 -146 -59.5 -270t-169 -198.5t-245.5 -74.5q-71 0 -132 18t-108.5 50.5t-78.5 62t-64 68.5l-28 -133q-11 -24 -21 -33.5t-28 -9.5h-72q-25 0 -34 9t-9 34v1425q0 25 9 34 t34 9h147q25 0 34 -9t9 -34zM692 182q126 0 208.5 97t82.5 241q0 140 -82.5 238t-208.5 98t-209.5 -99t-83.5 -237t83.5 -238t209.5 -100z" />
<glyph unicode="c" horiz-adv-x="1091" d="M629 186q143 0 235 88q20 16 32 14t30 -22l75 -82q16 -20 17.5 -29t-10.5 -24q-157 -154 -379 -154q-147 0 -271.5 73t-197 198t-72.5 272t72.5 272.5t197 199t271.5 73.5q222 0 379 -154q12 -15 10.5 -24t-17.5 -29l-75 -82q-18 -20 -30 -22t-32 14q-92 88 -235 88 q-128 0 -219 -97t-91 -239q0 -141 90.5 -237.5t219.5 -96.5z" />
<glyph unicode="d" d="M903 874v594q0 25 8.5 34t34.5 9h148q25 0 34 -9t9 -34v-1425q0 -25 -9 -34t-34 -9h-72q-19 0 -28.5 9t-22.5 34l-29 133q-26 -31 -48.5 -54.5t-59 -52.5t-74 -47.5t-90 -31.5t-109.5 -13q-137 0 -246 74.5t-168 198.5t-59 270q0 149 59 273t168 198t246 74 q70 0 132 -21.5t104 -55t67.5 -61.5t38.5 -53zM612 182q125 0 208 100t83 238t-83 237t-208 99q-126 0 -209.5 -98t-83.5 -238q0 -144 83 -241t210 -97z" />
<glyph unicode="e" horiz-adv-x="1212" d="M987 252l60 -74q16 -20 17.5 -30.5t-11.5 -26.5q-69 -67 -183.5 -105.5t-230.5 -38.5q-152 0 -279 73t-199.5 198t-72.5 272t72.5 272.5t197 199t271.5 73.5q122 0 220 -46.5t160 -126.5t95 -183t33 -220q0 -26 -8 -35.5t-33 -9.5h-766q17 -112 107 -189t208 -77 q145 0 281 78q3 1 10.5 4.5t9.5 4.5t7.5 3t7.5 1.5t6 -1t6.5 -2.5t6 -5.5t7.5 -8.5zM334 598h565q-12 111 -84 192.5t-192 81.5q-83 0 -148 -41.5t-99.5 -102.5t-41.5 -130z" />
<glyph unicode="f" horiz-adv-x="854" d="M215 1038v64q0 220 99 338.5t298 118.5q109 0 189 -48q19 -10 23 -21t-1 -34l-18 -102q-6 -31 -16 -35t-39 10q-51 21 -113 21q-96 0 -142 -61t-46 -197v-54h313q26 0 35.5 -9t9.5 -34v-100q0 -25 -9.5 -34t-35.5 -9h-313v-809q0 -25 -10 -34t-36 -9h-143q-26 0 -35.5 9 t-9.5 34v809h-125q-25 0 -35 9.5t-10 33.5v100q0 25 9.5 34t35.5 9h125z" />
<glyph unicode="g" d="M903 57v111q-13 -25 -39 -54t-67.5 -61.5t-103.5 -54t-132 -21.5q-137 0 -246 74t-168 198t-59 273q0 108 35 207.5t96 173.5t150 118t192 44q57 0 109.5 -13t90 -31.5t74 -47.5t59 -52.5t48.5 -54.5l29 133q13 25 22.5 34t28.5 9h72q25 0 34 -9t9 -34v-913 q0 -592 -500 -592q-205 0 -414 76q-22 9 -26 17.5t2 33.5l30 123q6 26 14 31t31 -4q176 -72 326 -72q303 0 303 358zM612 860q-127 0 -210 -97t-83 -241q0 -140 83.5 -238t209.5 -98q125 0 208 99t83 237t-83 238t-208 100z" />
<glyph unicode="h" horiz-adv-x="1228" d="M408 1468v-561q24 30 46.5 52.5t59 49t83 41.5t99.5 15q88 0 158 -25t125 -79t85 -147.5t30 -221.5v-549q0 -25 -8.5 -34t-34.5 -9h-148q-24 0 -33.5 9.5t-9.5 33.5v498q0 315 -223 315q-112 0 -170.5 -85.5t-58.5 -235.5v-492q0 -25 -8.5 -34t-34.5 -9h-148 q-24 0 -33.5 9.5t-9.5 33.5v487v938q0 24 9.5 33.5t33.5 9.5h148q25 0 34 -9t9 -34z" />
<glyph unicode="i" horiz-adv-x="651" d="M211 43v956q0 25 9 34t34 9h147q25 0 34 -9t9 -34v-956q0 -25 -9 -34t-34 -9h-147q-25 0 -34 9t-9 34zM182 1368q0 60 42 102.5t102 42.5q59 0 101 -42.5t42 -102.5q0 -59 -42 -100t-101 -41q-60 0 -102 40.5t-42 100.5z" />
<glyph unicode="j" horiz-adv-x="780" d="M319 1368q0 60 41 102.5t101 42.5t102.5 -42.5t42.5 -102.5t-42.5 -100.5t-102.5 -40.5t-101 40.5t-41 100.5zM74 897v102q0 24 10 33.5t33 9.5h420q26 0 35.5 -9t9.5 -34v-1026q0 -219 -99.5 -337.5t-298.5 -118.5q-118 0 -202 53q-18 12 -22 22t1 33l19 105q6 30 15 34 t38 -10q52 -28 127 -28q96 0 142 61t46 197v843v27h-231q-43 0 -43 43z" />
<glyph unicode="k" horiz-adv-x="1165" d="M639 553l459 -510q36 -43 -19 -43h-202q-21 0 -32.5 8t-33.5 35l-408 453v-453q0 -25 -8.5 -34t-34.5 -9h-145q-26 0 -35.5 9t-9.5 34v1425q0 25 9.5 34t35.5 9h145q26 0 34.5 -9t8.5 -34v-874l381 405q22 27 33.5 35t32.5 8h205q21 0 26 -14t-10 -29z" />
<glyph unicode="l" horiz-adv-x="598" d="M182 43v1425q0 25 9 34t34 9h148q26 0 34.5 -9t8.5 -34v-1425q0 -25 -9 -34t-34 -9h-148q-25 0 -34 9t-9 34z" />
<glyph unicode="m" horiz-adv-x="1871" d="M1018 862q124 203 325 203q88 0 157 -25t123.5 -78.5t84 -146.5t29.5 -221v-551q0 -25 -9 -34t-34 -9h-148q-25 0 -34 9t-9 34v498q0 159 -55.5 237t-159.5 78q-103 0 -160 -79.5t-57 -225.5v-508q0 -25 -9 -34t-34 -9h-147q-25 0 -34 9t-9 34v498q0 153 -54 234t-161 81 q-109 0 -164.5 -83.5t-55.5 -237.5v-492q0 -25 -8.5 -34t-34.5 -9h-147q-24 0 -33.5 9.5t-9.5 33.5v956q0 24 9.5 33.5t33.5 9.5h76q18 0 28 -9.5t21 -33.5l29 -133q29 43 51 69.5t61 60.5t89 51.5t110 17.5q124 0 208.5 -57.5t131.5 -145.5z" />
<glyph unicode="n" horiz-adv-x="1232" d="M346 999l29 -129q24 32 41 52.5t49 50.5t63.5 48t76.5 31t95 13q88 0 158 -25t125 -79t85 -147.5t30 -221.5v-549q0 -25 -9 -34t-34 -9h-148q-25 0 -34 9t-9 34v498q0 315 -223 315q-112 0 -170.5 -85.5t-58.5 -235.5v-492q0 -25 -9 -34t-34 -9h-148q-25 0 -34 9t-9 34 v487v469q0 25 9 34t34 9h74q19 0 28.5 -9t22.5 -34z" />
<glyph unicode="o" horiz-adv-x="1259" d="M88 520q0 147 73 272.5t198 199t272 73.5t271.5 -73.5t196.5 -199t72 -272.5t-72 -272t-196.5 -198t-271.5 -73t-272 73t-198 198t-73 272zM631 182q128 0 218.5 98t90.5 240t-90.5 239t-218.5 97q-130 0 -221 -97t-91 -239t91 -240t221 -98z" />
<glyph unicode="p" d="M401 168v-543q0 -25 -9 -34t-34 -9h-147q-25 0 -34 9t-9 34v1374q0 25 9 34t34 9h72q18 0 28 -9.5t21 -33.5l28 -133q33 39 64 68.5t78.5 62t108.5 50.5t132 18q136 0 245.5 -75t169 -199t59.5 -269q0 -149 -59.5 -273t-169 -198t-245.5 -74q-70 0 -132 21.5t-103.5 54 t-67.5 61.5t-39 54zM692 860q-126 0 -209.5 -100t-83.5 -238t83.5 -237t209.5 -99t208.5 98t82.5 238q0 144 -82.5 241t-208.5 97z" />
<glyph unicode="q" d="M903 -375v543q-13 -25 -39 -54t-67.5 -61.5t-103.5 -54t-132 -21.5q-137 0 -246 74t-168 198t-59 273q0 108 35 207.5t96 173.5t150 118t192 44q57 0 109.5 -13t90 -31.5t74 -47.5t59 -52.5t48.5 -54.5l29 133q13 25 22.5 34t28.5 9h72q25 0 34 -9t9 -34v-1374 q0 -25 -9 -34t-34 -9h-148q-26 0 -34.5 9t-8.5 34zM612 860q-127 0 -210 -97t-83 -241q0 -140 83.5 -238t209.5 -98q125 0 208 99t83 237t-83 238t-208 100z" />
<glyph unicode="r" horiz-adv-x="858" d="M752 834q-85 0 -152 -26.5t-107 -71.5t-60.5 -101.5t-20.5 -120.5v-471q0 -25 -9 -34t-34 -9h-148q-25 0 -34 9t-9 34v956q0 25 9 34t34 9h74q19 0 28.5 -9t22.5 -34l43 -159q21 37 39 63t51.5 59.5t72 53.5t98 34.5t132.5 14.5q29 0 36.5 -9t4.5 -32l-22 -150 q-4 -24 -14 -32t-35 -8z" />
<glyph unicode="s" horiz-adv-x="1046" d="M518 160q111 0 168 38t57 101q0 49 -61 77t-184 44q-70 9 -124 22.5t-108 37.5t-89 56.5t-57 82.5t-22 114q0 150 114 241t300 91q199 0 395 -115q22 -14 23 -28.5t-10 -34.5l-46 -76q-11 -24 -22 -28.5t-35 8.5q-75 47 -139.5 69.5t-151.5 22.5q-207 0 -207 -138 q0 -20 6.5 -35t22.5 -27t34 -20.5t49.5 -15.5t60 -12t73.5 -12q87 -11 153.5 -30.5t125 -54t90 -92t31.5 -135.5q0 -150 -118 -242t-315 -92q-94 0 -206.5 31.5t-216.5 100.5q-20 14 -21.5 27t10.5 34l45 78q12 25 22 29.5t36 -11.5q152 -106 317 -106z" />
<glyph unicode="t" horiz-adv-x="905" d="M801 29q-84 -52 -199 -52q-198 0 -296.5 118t-98.5 335v426h-76q-25 0 -34 9t-9 34v100q0 25 9 34t34 9h76v201q0 25 8.5 34t34.5 9h145q25 0 34 -9t9 -34v-201h316q25 0 34 -9.5t9 -35.5v-98q0 -25 -9 -34t-34 -9h-316v-412q0 -136 46.5 -197t142.5 -61q69 0 123 25 q29 15 39 11t16 -36l18 -102q5 -23 1 -34t-23 -21z" />
<glyph unicode="u" horiz-adv-x="1232" d="M887 43l-29 129q-29 -40 -54 -67.5t-65 -60t-92.5 -50t-114.5 -17.5q-88 0 -157.5 25t-124.5 79t-85 148t-30 222v548q0 25 9 34t34 9h148q25 0 34 -9t9 -34v-499q0 -314 223 -314q112 0 170.5 86t58.5 236v491q0 25 9 34t34 9h148q25 0 34 -9t9 -34v-487v-469 q0 -25 -9 -34t-34 -9h-74q-19 0 -28.5 9t-22.5 34z" />
<glyph unicode="v" horiz-adv-x="1085" d="M504 10l-494 989q-6 16 1.5 29.5t25.5 13.5h164q21 0 32 -8.5t23 -34.5l287 -583h2l282 583q14 25 25.5 34t32.5 9h162q22 0 28.5 -15.5t-2.5 -27.5l-491 -989q-3 -4 -6.5 -10.5t-5 -9.5t-4.5 -7l-4.5 -6t-4 -4.5t-5 -3t-5.5 -0.5h-6q-3 0 -6 0.5t-5.5 3t-4.5 4t-5 6 t-4.5 7.5t-5.5 9.5t-6 10.5z" />
<glyph unicode="w" horiz-adv-x="1519" d="M276 1006l170 -553l265 575q18 35 30 41q5 2 11 2h14q4 0 7.5 -1t7 -3.5t5.5 -4.5t5.5 -7t5 -7.5t5 -9.5t5.5 -10l264 -575l168 546q7 25 19.5 34t37.5 9h177q23 0 27 -9t-7 -34l-322 -976q-15 -46 -34 -46h-15q-20 0 -41 46l-321 698l-322 -698q-24 -46 -41 -46h-14 q-20 0 -35 46l-323 976q-11 25 -7 34t27 9h178q23 0 34.5 -7.5t18.5 -28.5z" />
<glyph unicode="x" horiz-adv-x="1028" d="M516 373l-219 -330q-15 -26 -28 -34.5t-36 -8.5h-184q-24 0 -29 9t9 34l333 477l-333 479q-14 25 -9 34t29 9h184q23 0 36 -8.5t28 -34.5l219 -335l215 335q17 27 29.5 35t34.5 8h182q26 0 31 -9t-11 -34l-327 -479l327 -477q16 -25 11 -34t-31 -9h-182q-22 0 -34.5 8.5 t-29.5 34.5z" />
<glyph unicode="y" horiz-adv-x="1093" d="M549 356l282 643q14 25 25.5 34t32.5 9h168q23 0 28 -9t-6 -34l-620 -1374q-12 -26 -23.5 -34.5t-32.5 -8.5h-167q-24 0 -29 9t6 34l211 469l-410 905q-10 25 -5 34t28 9h168q21 0 32 -8.5t25 -34.5l285 -645z" />
<glyph unicode="z" horiz-adv-x="1005" d="M899 0h-827q-19 0 -19 18v17q0 15 15 39l526 764h-451q-25 0 -34 9t-9 34v118q0 25 9 34t34 9h789q16 0 16 -18v-18q0 -12 -14 -37l-518 -764h483q25 0 34 -9t9 -34v-119q0 -25 -9 -34t-34 -9z" />
<glyph unicode="{" horiz-adv-x="919" d="M70 446v127q0 39 39 50q66 19 118 60t52 101v162q0 95 19 172.5t49.5 130t74.5 92t88.5 62t98 36t96 17.5t88.5 4q25 0 34 -9t9 -34v-129q0 -27 -8.5 -36t-34.5 -9q-51 0 -96 -13.5t-86.5 -45t-66 -92.5t-24.5 -146v-162q0 -105 -54.5 -176t-125.5 -92v-12 q71 -21 125.5 -92t54.5 -176v-162q0 -85 24.5 -146t66 -92.5t86.5 -45t96 -13.5q26 0 34.5 -9t8.5 -36v-129q0 -26 -9 -34.5t-34 -8.5q-46 0 -88.5 4t-96 17.5t-98 36t-88.5 62t-74.5 92t-49.5 130t-19 172.5v162q0 60 -52 101t-118 60q-21 6 -30 17t-9 32z" />
<glyph unicode="|" horiz-adv-x="546" d="M174 -160v1753q0 25 9.5 34t35.5 9h109q26 0 34.5 -9t8.5 -34v-1753q0 -25 -9 -34t-34 -9h-109q-26 0 -35.5 9t-9.5 34z" />
<glyph unicode="}" horiz-adv-x="919" d="M850 573v-127q0 -21 -9 -32t-30 -17q-66 -19 -118 -60t-52 -101v-162q0 -95 -19 -172.5t-49.5 -130t-74.5 -92t-88.5 -62t-98 -36t-96 -17.5t-88.5 -4q-25 0 -34 8.5t-9 34.5v129q0 27 8.5 36t34.5 9q51 0 96 13.5t87 45t66.5 92.5t24.5 146v162q0 105 54.5 176t124.5 92 v12q-70 21 -124.5 92t-54.5 176v162q0 85 -24.5 146t-66.5 92.5t-87 45t-96 13.5q-26 0 -34.5 9t-8.5 36v129q0 25 9 34t34 9q46 0 88.5 -4t96 -17.5t98 -36t88.5 -62t74.5 -92t49.5 -130t19 -172.5v-162q0 -60 52 -101t118 -60q39 -11 39 -50z" />
<glyph unicode="~" horiz-adv-x="1175" d="M565 739q-36 29 -54 41.5t-44.5 23.5t-52.5 11q-66 0 -158 -123q-19 -18 -30.5 -18t-32.5 18l-62 66q-18 19 -17.5 32t19.5 31q35 39 59.5 63.5t60 51t74.5 39t83 12.5q94 0 202 -92q39 -30 55 -41t42.5 -22t52.5 -11q69 0 158 123q19 19 31 19t32 -19l61 -65 q18 -19 17.5 -32.5t-19.5 -31.5q-47 -54 -79.5 -85t-85.5 -57t-111 -26q-93 0 -201 92z" />
<glyph unicode="&#xa1;" horiz-adv-x="696" d="M205 -623l33 850q0 25 8.5 34t34.5 9h135q26 0 35.5 -9t9.5 -34l31 -850q0 -25 -8.5 -34t-34.5 -9h-201q-25 0 -34 9t-9 34zM193 637q0 65 44.5 109.5t108.5 44.5q66 0 112 -45t46 -109q0 -66 -46 -113t-112 -47q-64 0 -108.5 47t-44.5 113z" />
<glyph unicode="&#xa2;" horiz-adv-x="1077" d="M471 -270l35 260q-184 43 -301 191.5t-117 338.5q0 147 73.5 273t198.5 199.5t269 72.5h20l29 190q1 26 11.5 34t37.5 5l35 -4q25 -3 33.5 -13t5.5 -36l-29 -197q136 -36 236 -133q12 -15 10.5 -24t-17.5 -29l-75 -82q-18 -20 -30 -22t-32 14q-46 46 -119 70l-88 -650 q120 3 207 86q20 16 32 14t30 -22l75 -82q16 -20 17.5 -29t-10.5 -24q-157 -154 -379 -154l-33 -264q-4 -26 -14 -33t-37 -4l-35 5q-26 3 -34 13t-5 36zM319 520q0 -116 63.5 -202.5t152.5 -112.5l88 649q-129 -3 -216.5 -100t-87.5 -234z" />
<glyph unicode="&#xa3;" horiz-adv-x="1107" d="M139 735h111q-7 12 -31.5 51.5t-35.5 61t-27.5 60t-23.5 79t-7 86.5q0 55 15.5 109t49 104.5t82 89t119.5 61.5t156 23q190 0 430 -151q20 -11 21 -25t-11 -35l-63 -102q-11 -23 -23 -28.5t-35 7.5q-69 52 -155.5 84.5t-149.5 32.5q-54 0 -94.5 -19t-62.5 -50t-33 -65.5 t-11 -70.5q0 -33 15 -75.5t31.5 -73.5t46 -81.5t41.5 -72.5h360q25 0 34 -8.5t9 -34.5v-24q0 -25 -9 -34t-34 -9h-332q8 -65 -5 -151.5t-27.5 -135t-40.5 -127.5h514q25 0 34 -8.5t9 -34.5v-123q0 -26 -9 -35.5t-34 -9.5h-768q-26 0 -35.5 9t-9.5 34q0 24 28 92.5t59 141.5 t50 171t4 177h-152q-25 0 -34 9t-9 34v24q0 26 9 34.5t34 8.5z" />
<glyph unicode="&#xa4;" horiz-adv-x="1093" d="M195 700q0 107 51 187l-140 141q-18 19 -18 31.5t18 30.5l50 53q19 17 31.5 17t29.5 -19l141 -142q86 56 189 56t186 -56l144 142q17 19 29.5 19t31.5 -19l49 -51q18 -18 18 -30.5t-18 -31.5l-141 -141q55 -82 55 -187q0 -104 -55 -186l141 -141q17 -19 17 -32t-17 -30 l-51 -53q-19 -17 -32 -17t-30 17l-141 141q-82 -51 -186 -51q-106 0 -187 53l-141 -141q-17 -19 -29.5 -19t-31.5 19l-52 51q-17 17 -17 31t17 31l142 141q-53 81 -53 186zM360 700q0 -80 53 -137t134 -57t133.5 57t52.5 137q0 79 -52.5 137t-133.5 58t-134 -58t-53 -137z " />
<glyph unicode="&#xa5;" horiz-adv-x="1355" d="M676 758l383 633q16 26 26 34.5t31 8.5h182q30 0 33.5 -5.5t-12.5 -37.5l-375 -609h217q25 0 34 -8.5t9 -34.5v-65q0 -26 -9 -34.5t-34 -8.5h-289l-41 -29l-36 -82v-82h366q25 0 34 -8.5t9 -34.5v-65q0 -26 -9 -34.5t-34 -8.5h-366v-244q0 -25 -8.5 -34t-34.5 -9h-154 q-25 0 -34 9t-9 34v244h-360q-26 0 -34.5 8.5t-8.5 34.5v65q0 26 8.5 34.5t34.5 8.5h360v103l-55 90h-305q-26 0 -34.5 8.5t-8.5 34.5v65q0 26 8.5 34.5t34.5 8.5h213l-377 609q-13 25 -8.5 34t28.5 9h187q21 0 32 -8.5t25 -34.5z" />
<glyph unicode="&#xa6;" horiz-adv-x="526" d="M180 -121v725q0 25 9.5 34t35.5 9h76q26 0 34.5 -9t8.5 -34v-725q0 -25 -9 -34t-34 -9h-76q-26 0 -35.5 9t-9.5 34zM180 895v643q0 25 9.5 34t35.5 9h76q26 0 34.5 -9t8.5 -34v-643q0 -26 -9 -34.5t-34 -8.5h-76q-27 0 -36 8.5t-9 34.5z" />
<glyph unicode="&#xa7;" horiz-adv-x="1294" d="M1194 410q0 -74 -29.5 -149t-81.5 -128q111 -100 111 -272q0 -183 -140 -307.5t-392 -124.5q-302 0 -539 153q-22 13 -23 28t11 36l61 102q15 23 25.5 27.5t33.5 -8.5q189 -121 410 -121q311 0 311 204q0 54 -23.5 91.5t-74 62t-111.5 38.5t-155 26q-76 10 -138 24.5 t-128 44t-110.5 70t-73.5 105.5t-29 147q0 75 31 150.5t85 135.5q-116 92 -116 263q0 56 16 114.5t56 119t98 107.5t151 77t207 30q149 0 261.5 -37t240.5 -116q22 -13 23 -28t-11 -36l-59 -100q-13 -24 -25.5 -29t-36.5 8q-97 65 -184 93t-189 28q-90 0 -154 -21 t-95.5 -56.5t-44.5 -71t-13 -74.5q0 -40 18 -70.5t45.5 -49.5t77 -34t96 -23.5t118.5 -17.5q83 -10 147 -25t131 -45.5t111 -73.5t72 -111t28 -156zM588 616q-31 2 -142 29q-46 -27 -71 -76t-25 -102q0 -40 18 -70.5t45.5 -49.5t77 -34t96 -23.5t118.5 -17.5q69 -10 153 -32 q41 18 67.5 60t26.5 99q0 43 -16.5 76t-44.5 55t-76.5 38.5t-100 27t-126.5 20.5z" />
<glyph unicode="&#xa8;" horiz-adv-x="872" d="M109 1370q0 51 33.5 86t84.5 35q50 0 84.5 -35t34.5 -86t-34.5 -85t-84.5 -34q-51 0 -84.5 34t-33.5 85zM524 1370q0 51 34 86t85 35q50 0 85.5 -35t35.5 -86q0 -50 -35.5 -84.5t-85.5 -34.5q-51 0 -85 34t-34 85z" />
<glyph unicode="&#xa9;" horiz-adv-x="1662" d="M88 717q0 151 58.5 288.5t158 237t237 158.5t289.5 59q174 0 315.5 -64t228.5 -168.5t134 -238t47 -273t-47 -273t-134 -238t-228.5 -168.5t-315.5 -64q-152 0 -289.5 59t-237 158.5t-158 237t-58.5 289.5zM166 717q0 -137 52.5 -260.5t141.5 -212t212 -141t259 -52.5 q126 0 233 37.5t182 101t128.5 149t79 181t25.5 197t-25.5 197t-79 181t-128.5 149t-182 101t-233 37.5q-136 0 -259 -52.5t-212 -142t-141.5 -212.5t-52.5 -258zM829 459q-104 0 -170.5 76.5t-66.5 181.5t66.5 181.5t170.5 76.5q114 0 185 -80q11 -7 16.5 -6.5t16.5 8.5 l49 55q9 9 10 15.5t-8 17.5q-50 50 -122.5 78.5t-146.5 28.5q-153 0 -261.5 -110.5t-108.5 -264.5t108.5 -264.5t261.5 -110.5q74 0 146.5 28.5t122.5 78.5q9 10 8 14.5t-10 17.5l-49 54q-11 9 -16.5 10t-16.5 -6q-71 -80 -185 -80z" />
<glyph unicode="&#xaa;" horiz-adv-x="811" d="M201 1311q-17 -3 -22.5 2.5t-8.5 23.5l-16 68q-11 25 14 33q2 0 19.5 3t39 6t49 6t57.5 5t56 2q73 0 124.5 -13t83.5 -36.5t50 -63.5t24.5 -85.5t6.5 -110.5v-324q0 -17 -6 -22.5t-21 -5.5h-59q-11 0 -17 5.5t-12 22.5l-8 58q-91 -101 -233 -101q-93 0 -158.5 55.5 t-65.5 155.5q0 101 68.5 154t177.5 53q92 0 186 -33q0 90 -30.5 126t-114.5 36q-67 0 -184 -20zM379 1094q-66 0 -98.5 -27.5t-32.5 -71.5q0 -39 30 -67.5t89 -28.5q84 0 163 94v70q-98 31 -151 31z" />
<glyph unicode="&#xab;" horiz-adv-x="1167" d="M106 606l334 377q19 18 30 20t32 -10l90 -53q21 -12 22.5 -25.5t-12.5 -33.5l-291 -361l291 -360q14 -20 12 -33.5t-22 -26.5l-90 -53q-20 -12 -31.5 -10.5t-30.5 20.5l-334 377q-36 38 -36 80v12q0 42 36 80zM575 606l336 377q19 18 30 20t32 -10l90 -53 q21 -12 22.5 -25.5t-14.5 -33.5l-289 -361l289 -360q15 -20 13.5 -33.5t-21.5 -26.5l-90 -53q-20 -12 -31.5 -10.5t-30.5 20.5l-336 377q-34 39 -34 80v12q0 44 34 80z" />
<glyph unicode="&#xac;" horiz-adv-x="1077" d="M784 168v348h-639q-25 0 -34 9.5t-9 35.5v94q0 26 9 35.5t34 9.5h779q26 0 35.5 -9t9.5 -34v-487q0 -26 -9.5 -35.5t-35.5 -9.5h-97q-25 0 -34 9t-9 34z" />
<glyph unicode="&#xad;" horiz-adv-x="858" d="M711 489h-566q-25 0 -34 8.5t-9 34.5v97q0 25 9 34t34 9h566q26 0 35.5 -9t9.5 -34v-97q0 -26 -9 -34.5t-36 -8.5z" />
<glyph unicode="&#xae;" horiz-adv-x="1662" d="M1112 866q0 -87 -46 -140.5t-118 -74.5l193 -280q6 -17 0.5 -23t-23.5 -6h-84q-24 0 -41 20l-186 277h-109v-277q0 -12 -5 -16t-19 -4h-88q-15 0 -21 4t-6 16v709q0 21 27 21h260q51 0 95 -11t84 -35.5t63.5 -70.5t23.5 -109zM698 754h146q135 0 135 112q0 59 -34 85 t-103 26h-144v-223zM88 717q0 151 58.5 288.5t158 237t237 158.5t289.5 59q202 0 373 -99.5t271 -270.5t100 -373q0 -203 -100 -374t-271 -270.5t-373 -99.5q-152 0 -289.5 59t-237 158.5t-158 237t-58.5 289.5zM164 717q0 -137 52.5 -260.5t141.5 -213t212.5 -142 t260.5 -52.5q181 0 334 89t242.5 243t89.5 336q0 180 -89.5 333.5t-242.5 242.5t-334 89q-137 0 -260.5 -52.5t-212.5 -142t-141.5 -212.5t-52.5 -258z" />
<glyph unicode="&#xaf;" horiz-adv-x="788" d="M643 1292h-498q-25 0 -34 9t-9 34v80q0 26 9 35.5t34 9.5h498q25 0 34 -9t9 -34v-82q0 -25 -9 -34t-34 -9z" />
<glyph unicode="&#xb0;" horiz-adv-x="800" d="M88 1147q0 131 90 221t221 90q130 0 222 -90.5t92 -220.5q0 -131 -92 -222t-222 -91q-131 0 -221 90.5t-90 222.5zM246 1147q0 -64 44 -109t107 -45t107.5 45t44.5 109q0 60 -44.5 104.5t-107.5 44.5t-107 -44t-44 -105z" />
<glyph unicode="&#xb1;" horiz-adv-x="1177" d="M686 1331v-272h275q25 0 34 -9.5t9 -35.5v-103q0 -26 -9 -34.5t-34 -8.5h-275v-245q0 -26 -9 -34.5t-36 -8.5h-102q-26 0 -34.5 8.5t-8.5 34.5v245h-275q-27 0 -36 8.5t-9 34.5v103q0 26 9.5 35.5t35.5 9.5h275v272q0 25 8.5 34t34.5 9h104q25 0 34 -9t9 -34zM985 150 h-792q-25 0 -34 8.5t-9 34.5v104q0 26 9 35.5t34 9.5h792q26 0 34.5 -9t8.5 -34v-106q0 -26 -8.5 -34.5t-34.5 -8.5z" />
<glyph unicode="&#xb2;" horiz-adv-x="630" d="M473 1319l-154 -219h195q13 0 18 -4.5t5 -16.5v-92q0 -20 -23 -20h-418q-8 0 -8 8v8q0 8 8 21l250 325q50 71 37 121.5t-72 50.5q-77 0 -131 -57q-17 -14 -33 2l-55 59q-16 19 -2 31q95 92 221 92q70 0 120 -29t70 -74t13.5 -100t-41.5 -106z" />
<glyph unicode="&#xb3;" horiz-adv-x="616" d="M299 948q-129 0 -221 92q-13 11 0 31l53 55q16 16 33 2q32 -32 62 -48.5t73 -16.5q62 0 89.5 28t27.5 68q0 35 -31.5 56.5t-85.5 21.5h-59q-23 0 -23 23v55q0 24 23 24h59q54 0 85.5 21.5t31.5 56.5q0 39 -27.5 66.5t-89.5 27.5q-43 0 -73 -16.5t-62 -48.5q-18 -16 -33 2 l-53 57q-14 17 0 29q94 94 221 94q43 0 84 -11.5t77.5 -34t58.5 -61.5t22 -89t-27.5 -87.5t-67.5 -56.5v-2q40 -20 67.5 -57t27.5 -88q0 -65 -39 -110.5t-91.5 -64t-111.5 -18.5z" />
<glyph unicode="&#xb4;" horiz-adv-x="559" d="M463 1339l-160 -135q-29 -26 -67 -26h-130q-47 0 -2 51l254 274q16 19 32 15t30 -27l57 -92q10 -18 7.5 -31t-21.5 -29z" />
<glyph unicode="&#xb5;" horiz-adv-x="1265" d="M920 43l-29 133q-70 -85 -99 -112q-95 -87 -223 -87q-106 0 -157 66v-418q0 -25 -9 -34t-34 -9h-148q-25 0 -34 9t-9 34v1374q0 25 9 34t34 9h148q25 0 34 -9t9 -34v-497q0 -152 48 -234t165 -82q110 0 169.5 90.5t59.5 245.5v477q0 25 8.5 34t34.5 9h147q24 0 33.5 -9.5 t9.5 -33.5v-956q0 -24 -9.5 -33.5t-33.5 -9.5h-75q-18 0 -28 9.5t-21 33.5z" />
<glyph unicode="&#xb6;" horiz-adv-x="1638" d="M610 -442v882q-229 0 -384.5 146t-155.5 368q0 145 71 256t186 167.5t251 56.5h925q26 0 34.5 -9t8.5 -34v-131q0 -25 -8.5 -34t-34.5 -9h-203v-1661q0 -25 -9 -34t-34 -9h-116q-26 0 -34.5 9t-8.5 34v1661h-285v-1659q0 -25 -9 -34t-34 -9h-117q-25 0 -34 9t-9 34z" />
<glyph unicode="&#xb7;" horiz-adv-x="552" d="M104 700q0 72 50 122t122 50q71 0 122 -50t51 -122q0 -70 -51 -120t-122 -50q-72 0 -122 49.5t-50 120.5z" />
<glyph unicode="&#xb8;" horiz-adv-x="624" d="M207 -18l104 -9l-10 -86q110 0 168.5 -51t58.5 -145q0 -93 -58.5 -147t-166.5 -54q-89 0 -190 82q-30 20 -7 45l27 35q11 13 19.5 13.5t25.5 -9.5q72 -41 141 -41q80 0 80 76q0 82 -102 82h-96q-33 0 -33 39z" />
<glyph unicode="&#xb9;" horiz-adv-x="499" d="M80 1511l133 70q37 21 49 21h68q13 0 17.5 -5t4.5 -18v-590q0 -12 -4.5 -17t-17.5 -5h-94q-23 0 -23 22v438l-125 -26q-20 -3 -20 18v68q0 14 12 24z" />
<glyph unicode="&#xba;" horiz-adv-x="681" d="M70 1116q0 150 69.5 247t202.5 97q90 0 151.5 -47.5t89 -123.5t27.5 -173t-27.5 -173t-89 -123.5t-151.5 -47.5q-133 0 -202.5 97t-69.5 247zM223 1116q0 -95 29.5 -149t89.5 -54q58 0 87.5 54t29.5 149t-29.5 149t-87.5 54q-60 0 -89.5 -54t-29.5 -149z" />
<glyph unicode="&#xbb;" horiz-adv-x="1167" d="M727 983l336 -377q35 -37 35 -80v-12q0 -40 -35 -80l-336 -377q-19 -19 -30 -20.5t-31 10.5l-91 53q-20 13 -21.5 26.5t13.5 33.5l289 360l-289 361q-16 20 -14.5 33.5t22.5 25.5l91 53q21 12 31.5 10t29.5 -20zM256 983l336 -377q35 -37 35 -80v-12q0 -40 -35 -80 l-336 -377q-19 -19 -30 -20.5t-31 10.5l-91 53q-20 13 -21.5 26.5t13.5 33.5l289 360l-289 361q-16 20 -14.5 33.5t22.5 25.5l91 53q21 12 31.5 10t29.5 -20z" />
<glyph unicode="&#xbc;" horiz-adv-x="1372" d="M1083 1391l-698 -1354q-10 -20 -21 -28.5t-34 -8.5h-76q-58 0 -37 43l696 1354q10 20 21.5 28.5t34.5 8.5h75q60 0 39 -43zM117 1343l133 70q37 21 49 21h68q13 0 17.5 -5t4.5 -18v-590q0 -12 -4.5 -17t-17.5 -5h-101q-12 0 -16 5t-4 17v430l-121 -26q-21 0 -21 20v74 q0 14 13 24zM1036 635h105q20 0 20 -23v-348h86q21 0 21 -20v-68q0 -20 -21 -20h-86v-133q0 -23 -20 -23h-82q-12 0 -16.5 5t-4.5 18v133h-268q-12 0 -17 4t-5 16v47q0 14 14 39l254 363q7 10 20 10zM1038 469l-147 -205h147v205z" />
<glyph unicode="&#xbd;" horiz-adv-x="1441" d="M1124 1391l-696 -1354q-10 -20 -21 -28.5t-34 -8.5h-76q-61 0 -37 43l696 1354q10 20 21.5 28.5t34.5 8.5h75q58 0 37 -43zM117 1343l133 70q37 21 49 21h68q13 0 17.5 -5t4.5 -18v-590q0 -12 -4.5 -17t-17.5 -5h-101q-12 0 -16 5t-4 17v430l-121 -26q-21 0 -21 20v74 q0 14 13 24zM1120 133l154 219q35 51 41 106.5t-14 100t-69.5 74t-119.5 29.5q-125 0 -221 -93q-13 -11 0 -30l55 -60q18 -15 35 -2q55 58 131 58q58 0 71 -51.5t-38 -121.5l-248 -325q-8 -13 -8 -21v-8q0 -8 8 -8h418q22 0 22 20v93q0 12 -4.5 16t-17.5 4h-195z" />
<glyph unicode="&#xbe;" horiz-adv-x="1472" d="M1171 1391l-696 -1354q-10 -20 -21 -28.5t-34 -8.5h-76q-58 0 -37 43l697 1354q10 20 21 28.5t34 8.5h76q60 0 36 -43zM336 782q-131 0 -223 92q-15 14 2 31l51 56q9 9 15.5 10t17.5 -8q64 -64 137 -64q61 0 89 27.5t28 66.5q0 35 -31.5 56.5t-87.5 21.5h-60 q-20 0 -20 23v55q0 14 4 19.5t16 5.5h60q56 0 87.5 21t31.5 56q0 39 -28 68t-89 29q-71 0 -137 -66q-15 -16 -33 2l-51 55q-17 17 -2 31q92 92 223 92q43 0 84 -11t77.5 -33.5t58.5 -61t22 -88.5t-28 -87t-69 -59v-2q40 -17 68.5 -54.5t28.5 -88.5q0 -50 -22 -89t-58.5 -61 t-77.5 -33.5t-84 -11.5zM1122 635h105q20 0 20 -23v-348h86q21 0 21 -20v-68q0 -20 -21 -20h-86v-133q0 -23 -20 -23h-82q-12 0 -16.5 5t-4.5 18v133h-268q-12 0 -17 4t-5 16v47q0 14 14 39l254 363q7 10 20 10zM1124 469l-147 -205h147v205z" />
<glyph unicode="&#xbf;" horiz-adv-x="1081" d="M668 12q28 3 28 31v213q0 26 -9 34.5t-36 8.5h-129q-25 0 -34 -8.5t-9 -34.5v-111q-86 -19 -149.5 -39t-124.5 -52.5t-99.5 -73t-62 -100t-23.5 -134.5q0 -61 18 -120.5t60 -117t103 -100.5t154 -69.5t206 -26.5q137 0 243.5 42t231.5 122q22 11 23.5 25.5t-10.5 35.5 l-62 103q-13 23 -25 27.5t-34 -9.5q-188 -129 -353 -129q-147 0 -230 64t-83 165q0 102 100.5 160t305.5 94zM748 637q0 -66 -45 -113t-111 -47t-113 47t-47 113q0 64 47 110t113 46t111 -45.5t45 -110.5z" />
<glyph unicode="&#xc0;" horiz-adv-x="1499" d="M754 1044h-4l-238 -509h479zM791 1423l692 -1380q8 -16 -0.5 -29.5t-28.5 -13.5h-188q-23 0 -34.5 9t-23.5 34l-135 281h-645l-133 -281q-14 -26 -24.5 -34.5t-32.5 -8.5h-191q-18 0 -26.5 14t-0.5 29l693 1380q2 3 4 7.5t3.5 6.5t3.5 5.5t3.5 5.5t3 4.5t3 4t3.5 3 t3.5 2.5t3.5 1.5t4 0.5h6q5 0 8.5 -1.5t7 -6t6 -8t7.5 -12t8 -13.5zM647 1595l-160 136q-19 16 -21.5 28.5t7.5 30.5l57 92q14 23 30 27t32 -15l254 -274q45 -51 -2 -51h-129q-39 0 -68 26z" />
<glyph unicode="&#xc1;" horiz-adv-x="1499" d="M754 1044h-4l-238 -509h479zM791 1423l692 -1380q8 -16 -0.5 -29.5t-28.5 -13.5h-188q-23 0 -34.5 9t-23.5 34l-135 281h-645l-133 -281q-14 -26 -24.5 -34.5t-32.5 -8.5h-191q-18 0 -26.5 14t-0.5 29l693 1380q2 3 4 7.5t3.5 6.5t3.5 5.5t3.5 5.5t3 4.5t3 4t3.5 3 t3.5 2.5t3.5 1.5t4 0.5h6q5 0 8.5 -1.5t7 -6t6 -8t7.5 -12t8 -13.5zM1018 1731l-160 -136q-29 -26 -67 -26h-129q-48 0 -3 51l254 274q16 19 32 15t30 -27l57 -92q10 -18 7.5 -30.5t-21.5 -28.5z" />
<glyph unicode="&#xc2;" horiz-adv-x="1499" d="M754 1044h-4l-238 -509h479zM791 1423l692 -1380q8 -16 -0.5 -29.5t-28.5 -13.5h-188q-23 0 -34.5 9t-23.5 34l-135 281h-645l-133 -281q-14 -26 -24.5 -34.5t-32.5 -8.5h-191q-18 0 -26.5 14t-0.5 29l693 1380q2 3 4 7.5t3.5 6.5t3.5 5.5t3.5 5.5t3 4.5t3 4t3.5 3 t3.5 2.5t3.5 1.5t4 0.5h6q5 0 8.5 -1.5t7 -6t6 -8t7.5 -12t8 -13.5zM705 1933h96q32 -3 59 -43l197 -282q27 -43 -19 -43h-92q-41 0 -65 43l-129 200l-127 -200q-24 -43 -66 -43h-94q-43 0 -16 43l194 282q30 41 62 43z" />
<glyph unicode="&#xc3;" horiz-adv-x="1499" d="M754 1044h-4l-238 -509h479zM791 1423l692 -1380q8 -16 -0.5 -29.5t-28.5 -13.5h-188q-23 0 -34.5 9t-23.5 34l-135 281h-645l-133 -281q-14 -26 -24.5 -34.5t-32.5 -8.5h-191q-18 0 -26.5 14t-0.5 29l693 1380q2 3 4 7.5t3.5 6.5t3.5 5.5t3.5 5.5t3 4.5t3 4t3.5 3 t3.5 2.5t3.5 1.5t4 0.5h6q5 0 8.5 -1.5t7 -6t6 -8t7.5 -12t8 -13.5zM897 1800q66 0 98 82q9 24 20.5 29t37.5 -4l57 -27q26 -9 31 -21.5t-6 -37.5q-71 -179 -226 -179q-55 0 -90.5 13t-83.5 47q-7 4 -23.5 15t-21.5 14t-17.5 10t-17.5 9t-14.5 5.5t-17.5 4.5t-17 1 q-67 0 -98 -80q-11 -23 -21.5 -28t-35.5 2l-60 26q-24 10 -29 22.5t5 37.5q74 180 225 180q55 0 92.5 -14t83.5 -47q7 -5 21.5 -14t19.5 -12.5t15.5 -10t15.5 -9t13.5 -6t14.5 -5t13.5 -2.5t15.5 -1z" />
<glyph unicode="&#xc4;" horiz-adv-x="1499" d="M754 1044h-4l-238 -509h479zM791 1423l692 -1380q8 -16 -0.5 -29.5t-28.5 -13.5h-188q-23 0 -34.5 9t-23.5 34l-135 281h-645l-133 -281q-14 -26 -24.5 -34.5t-32.5 -8.5h-191q-18 0 -26.5 14t-0.5 29l693 1380q2 3 4 7.5t3.5 6.5t3.5 5.5t3.5 5.5t3 4.5t3 4t3.5 3 t3.5 2.5t3.5 1.5t4 0.5h6q5 0 8.5 -1.5t7 -6t6 -8t7.5 -12t8 -13.5zM426 1761q0 51 34 86t85 35q50 0 84.5 -35t34.5 -86t-34.5 -85t-84.5 -34q-51 0 -85 34t-34 85zM842 1761q0 51 34 86t85 35q50 0 85 -35t35 -86t-35 -85t-85 -34q-51 0 -85 34t-34 85z" />
<glyph unicode="&#xc5;" horiz-adv-x="1499" d="M754 1044h-4l-238 -509h479zM791 1423l692 -1380q8 -16 -0.5 -29.5t-28.5 -13.5h-188q-23 0 -34.5 9t-23.5 34l-135 281h-645l-133 -281q-14 -26 -24.5 -34.5t-32.5 -8.5h-191q-18 0 -26.5 14t-0.5 29l693 1380q2 3 4 7.5t3.5 6.5t3.5 5.5t3.5 5.5t3 4.5t3 4t3.5 3 t3.5 2.5t3.5 1.5t4 0.5h6q5 0 8.5 -1.5t7 -6t6 -8t7.5 -12t8 -13.5zM750 1571q-96 0 -161 66t-65 163t65 163.5t161 66.5q95 0 161 -66.5t66 -163.5t-66 -163t-161 -66zM750 1686q48 0 76 34.5t28 79.5t-28 80t-76 35q-47 0 -76 -35.5t-29 -79.5t29 -79t76 -35z" />
<glyph unicode="&#xc6;" horiz-adv-x="2019" d="M911 0q-25 0 -34 9t-9 34v281h-415l-158 -281q-12 -26 -23 -34.5t-34 -8.5h-191q-18 0 -26.5 14t-0.5 29l771 1335q15 30 25.5 43t23.5 13h1013q26 0 35.5 -9t9.5 -34v-125q0 -25 -9.5 -35t-35.5 -10h-714v-394h665q26 0 34.5 -8.5t8.5 -34.5v-125q0 -25 -8.5 -34 t-34.5 -9h-665v-405h714q27 0 36 -8.5t9 -34.5v-125q0 -25 -9.5 -34t-35.5 -9h-942zM868 1079l-303 -544h303v544z" />
<glyph unicode="&#xc7;" horiz-adv-x="1458" d="M684 -188l37 170q-173 27 -316.5 132t-227 264.5t-83.5 338.5q0 150 58.5 287.5t157.5 237.5t235 159t284 59q149 0 294 -57t243 -154q17 -18 15.5 -29.5t-19.5 -31.5l-94 -103q-18 -19 -30.5 -20.5t-31.5 16.5q-152 162 -377 162q-104 0 -196 -44.5t-154.5 -118 t-98.5 -168.5t-36 -195q0 -99 36 -194.5t98.5 -169t154.5 -118.5t196 -45q222 0 379 164q20 18 32 16t30 -20l94 -102q18 -21 19 -32.5t-17 -31.5q-97 -97 -241.5 -153.5t-299.5 -57.5l-10 -86q110 0 169.5 -51t59.5 -145q0 -92 -59 -146.5t-166 -54.5q-91 0 -192 82 q-27 18 -6 45l28 35q10 13 19 13.5t24 -9.5q72 -41 142 -41q81 0 81 76q0 82 -104 82h-94q-33 0 -33 39z" />
<glyph unicode="&#xc8;" d="M1133 0h-920q-26 0 -35.5 9t-9.5 34v1348q0 24 10 33.5t35 9.5h920q25 0 35 -9.5t10 -33.5v-125q0 -25 -10 -35t-35 -10h-717v-394h686q26 0 34.5 -8.5t8.5 -34.5v-125q0 -25 -8.5 -34t-34.5 -9h-686v-405h717q27 0 36 -8.5t9 -34.5v-125q0 -25 -9.5 -34t-35.5 -9z M616 1595l-159 136q-20 17 -22 29t9 30l58 92q31 50 59 12l256 -274q45 -51 -4 -51h-127q-41 0 -70 26z" />
<glyph unicode="&#xc9;" d="M1133 0h-920q-26 0 -35.5 9t-9.5 34v1348q0 24 10 33.5t35 9.5h920q25 0 35 -9.5t10 -33.5v-125q0 -25 -10 -35t-35 -10h-717v-394h686q26 0 34.5 -8.5t8.5 -34.5v-125q0 -25 -8.5 -34t-34.5 -9h-686v-405h717q27 0 36 -8.5t9 -34.5v-125q0 -25 -9.5 -34t-35.5 -9z M881 1731l-160 -136q-29 -26 -68 -26h-129q-47 0 -2 51l254 274q16 19 32 15t30 -27l57 -92q10 -18 7.5 -30.5t-21.5 -28.5z" />
<glyph unicode="&#xca;" horiz-adv-x="1265" d="M618 1933h97q32 -3 59 -43l197 -282q27 -43 -19 -43h-92q-41 0 -65 43l-129 200l-127 -200q-24 -43 -66 -43h-94q-44 0 -17 43l195 282q30 41 61 43zM1124 0h-919q-26 0 -35.5 9t-9.5 34v1348q0 24 10 33.5t35 9.5h919q25 0 35 -9.5t10 -33.5v-125q0 -25 -10 -35t-35 -10 h-716v-394h686q26 0 34.5 -8.5t8.5 -34.5v-125q0 -25 -8.5 -34t-34.5 -9h-686v-405h716q27 0 36 -8.5t9 -34.5v-125q0 -25 -9.5 -34t-35.5 -9z" />
<glyph unicode="&#xcb;" d="M1133 0h-920q-26 0 -35.5 9t-9.5 34v1348q0 24 10 33.5t35 9.5h920q25 0 35 -9.5t10 -33.5v-125q0 -25 -10 -35t-35 -10h-717v-394h686q26 0 34.5 -8.5t8.5 -34.5v-125q0 -25 -8.5 -34t-34.5 -9h-686v-405h717q27 0 36 -8.5t9 -34.5v-125q0 -25 -9.5 -34t-35.5 -9z M350 1761q0 51 34 86t85 35q50 0 84.5 -35t34.5 -86t-34.5 -85t-84.5 -34q-51 0 -85 34t-34 85zM766 1761q0 51 34 86t85 35q50 0 85.5 -35t35.5 -86q0 -50 -35.5 -84.5t-85.5 -34.5q-51 0 -85 34t-34 85z" />
<glyph unicode="&#xcc;" horiz-adv-x="632" d="M188 43v1348q0 25 9 34t34 9h162q26 0 34.5 -9t8.5 -34v-1348q0 -25 -9 -34t-34 -9h-162q-25 0 -34 9t-9 34zM225 1595l-159 136q-20 17 -22 29t9 30l58 92q31 50 59 12l256 -274q45 -51 -4 -51h-127q-41 0 -70 26z" />
<glyph unicode="&#xcd;" horiz-adv-x="612" d="M182 43v1348q0 25 9 34t34 9h162q26 0 34.5 -9t8.5 -34v-1348q0 -25 -9 -34t-34 -9h-162q-25 0 -34 9t-9 34zM547 1731l-160 -136q-29 -26 -68 -26h-129q-47 0 -2 51l254 274q16 19 32 15t30 -27l57 -92q10 -18 7.5 -30.5t-21.5 -28.5z" />
<glyph unicode="&#xce;" horiz-adv-x="612" d="M182 43v1348q0 25 9 34t34 9h162q26 0 34.5 -9t8.5 -34v-1348q0 -25 -9 -34t-34 -9h-162q-25 0 -34 9t-9 34zM260 1933h96q33 -3 60 -43l196 -282q27 -43 -18 -43h-92q-42 0 -66 43l-129 200l-127 -200q-24 -43 -65 -43h-95q-43 0 -16 43l195 282q30 41 61 43z" />
<glyph unicode="&#xcf;" horiz-adv-x="612" d="M182 43v1348q0 25 9 34t34 9h162q26 0 34.5 -9t8.5 -34v-1348q0 -25 -9 -34t-34 -9h-162q-25 0 -34 9t-9 34zM-29 1761q0 51 34 86t85 35q50 0 84.5 -35t34.5 -86t-34.5 -85t-84.5 -34q-51 0 -85 34t-34 85zM387 1761q0 51 34 86t85 35q50 0 85.5 -35t35.5 -86 q0 -50 -35.5 -84.5t-85.5 -34.5q-51 0 -85 34t-34 85z" />
<glyph unicode="&#xd0;" horiz-adv-x="1648" d="M80 825h192v566q0 24 10 33.5t35 9.5h514q199 0 365 -93.5t262 -258.5t96 -365t-96 -365t-262 -258.5t-365 -93.5h-514q-25 0 -35 9.5t-10 33.5v582h-192q-24 0 -33.5 10t-9.5 35v112q0 25 9 34t34 9zM829 1227h-309v-402h285q25 0 34 -9t9 -34v-112q0 -25 -9.5 -35 t-33.5 -10h-285v-418h309q143 0 253.5 72.5t166.5 187.5t56 250q0 136 -56 251t-166.5 187t-253.5 72z" />
<glyph unicode="&#xd1;" horiz-adv-x="1589" d="M428 958v-915q0 -25 -9 -34t-34 -9h-160q-25 0 -35 9.5t-10 33.5v1399q0 18 19 18h16q17 0 33 -16l911 -963v910q0 25 9 34t34 9h162q25 0 34 -9t9 -34v-1399q0 -19 -18 -19h-15q-15 0 -35 17zM922 1800q66 0 98 82q9 24 20 29t37 -4l58 -27q26 -9 30.5 -21.5t-6.5 -37.5 q-71 -179 -225 -179q-55 0 -90.5 13t-83.5 47q-7 4 -23.5 15t-21.5 14t-17.5 10t-17.5 9t-14.5 5.5t-17.5 4.5t-17 1q-68 0 -99 -80q-11 -23 -21.5 -28t-35.5 2l-59 26q-24 10 -29 22.5t4 37.5q74 180 225 180q55 0 93 -14t84 -47q7 -5 21.5 -14t19.5 -12.5t15.5 -10 t15.5 -9t13.5 -6t14.5 -5t13.5 -2.5t15.5 -1z" />
<glyph unicode="&#xd2;" horiz-adv-x="1658" d="M94 717q0 150 58.5 287.5t157.5 237.5t235 159t284 59t284.5 -59t235 -159t157.5 -237.5t59 -287.5t-59 -288t-157.5 -237.5t-235 -159t-284.5 -59.5t-284 59.5t-235 159t-157.5 237.5t-58.5 288zM344 717q0 -99 36 -194.5t98.5 -169t154.5 -118.5t196 -45 q106 0 198.5 45t154.5 119t97.5 168.5t35.5 194.5t-35.5 195t-97.5 168.5t-154 118t-199 44.5q-104 0 -196 -44.5t-154.5 -118t-98.5 -168.5t-36 -195zM752 1595l-160 136q-19 17 -21 29t9 30l57 92q31 50 59 12l256 -274q45 -51 -4 -51h-127q-40 0 -69 26z" />
<glyph unicode="&#xd3;" horiz-adv-x="1658" d="M94 717q0 150 58.5 287.5t157.5 237.5t235 159t284 59t284.5 -59t235 -159t157.5 -237.5t59 -287.5t-59 -288t-157.5 -237.5t-235 -159t-284.5 -59.5t-284 59.5t-235 159t-157.5 237.5t-58.5 288zM344 717q0 -99 36 -194.5t98.5 -169t154.5 -118.5t196 -45 q106 0 198.5 45t154.5 119t97.5 168.5t35.5 194.5t-35.5 195t-97.5 168.5t-154 118t-199 44.5q-104 0 -196 -44.5t-154.5 -118t-98.5 -168.5t-36 -195zM1075 1731l-160 -136q-29 -26 -67 -26h-129q-47 0 -2 51l254 274q29 39 61 -12l58 -92q10 -18 7.5 -30t-22.5 -29z" />
<glyph unicode="&#xd4;" horiz-adv-x="1658" d="M94 717q0 150 58.5 287.5t157.5 237.5t235 159t284 59t284.5 -59t235 -159t157.5 -237.5t59 -287.5t-59 -288t-157.5 -237.5t-235 -159t-284.5 -59.5t-284 59.5t-235 159t-157.5 237.5t-58.5 288zM344 717q0 -99 36 -194.5t98.5 -169t154.5 -118.5t196 -45 q106 0 198.5 45t154.5 119t97.5 168.5t35.5 194.5t-35.5 195t-97.5 168.5t-154 118t-199 44.5q-104 0 -196 -44.5t-154.5 -118t-98.5 -168.5t-36 -195zM782 1933h97q32 -3 59 -43l197 -282q27 -43 -19 -43h-92q-42 0 -66 43l-129 200l-127 -200q-24 -43 -65 -43h-94 q-44 0 -17 43l195 282q30 41 61 43z" />
<glyph unicode="&#xd5;" horiz-adv-x="1658" d="M94 717q0 150 58.5 287.5t157.5 237.5t235 159t284 59t284.5 -59t235 -159t157.5 -237.5t59 -287.5t-59 -288t-157.5 -237.5t-235 -159t-284.5 -59.5t-284 59.5t-235 159t-157.5 237.5t-58.5 288zM344 717q0 -99 36 -194.5t98.5 -169t154.5 -118.5t196 -45 q106 0 198.5 45t154.5 119t97.5 168.5t35.5 194.5t-35.5 195t-97.5 168.5t-154 118t-199 44.5q-104 0 -196 -44.5t-154.5 -118t-98.5 -168.5t-36 -195zM965 1800q66 0 98 82q9 24 20 29t37 -4l58 -27q26 -9 30.5 -21.5t-6.5 -37.5q-71 -179 -225 -179q-55 0 -90.5 13 t-83.5 47q-7 4 -23.5 15t-21.5 14t-17.5 10t-17.5 9t-14.5 5.5t-17.5 4.5t-17 1q-68 0 -99 -80q-11 -23 -21.5 -28t-35.5 2l-59 26q-24 10 -29 22.5t4 37.5q74 180 225 180q55 0 93 -14t84 -47q7 -5 21.5 -14t19.5 -12.5t15.5 -10t15.5 -9t13.5 -6t14.5 -5t13.5 -2.5 t15.5 -1z" />
<glyph unicode="&#xd6;" horiz-adv-x="1658" d="M94 717q0 150 58.5 287.5t157.5 237.5t235 159t284 59t284.5 -59t235 -159t157.5 -237.5t59 -287.5t-59 -288t-157.5 -237.5t-235 -159t-284.5 -59.5t-284 59.5t-235 159t-157.5 237.5t-58.5 288zM344 717q0 -99 36 -194.5t98.5 -169t154.5 -118.5t196 -45 q106 0 198.5 45t154.5 119t97.5 168.5t35.5 194.5t-35.5 195t-97.5 168.5t-154 118t-199 44.5q-104 0 -196 -44.5t-154.5 -118t-98.5 -168.5t-36 -195zM498 1761q0 51 33.5 86t84.5 35q50 0 84.5 -35t34.5 -86t-34.5 -85t-84.5 -34q-51 0 -84.5 34t-33.5 85zM913 1761 q0 51 34 86t85 35q50 0 85.5 -35t35.5 -86q0 -50 -35.5 -84.5t-85.5 -34.5q-51 0 -85 34t-34 85z" />
<glyph unicode="&#xd7;" horiz-adv-x="901" d="M647 291l-194 194l-197 -194q-17 -19 -29.5 -19t-31.5 19l-74 74q-17 17 -17 29.5t17 31.5l196 195l-196 194q-17 19 -17 32t17 30l74 73q19 19 31.5 19t29.5 -19l195 -194l196 194q17 19 31 19t31 -19l73 -73q17 -17 17 -30t-17 -32l-196 -194l196 -195q17 -19 17 -31.5 t-17 -29.5l-73 -74q-17 -19 -31 -19t-31 19z" />
<glyph unicode="&#xd8;" horiz-adv-x="1658" d="M94 717q0 150 58.5 287.5t157.5 237.5t235 159t284 59q130 0 265 -49l39 76q10 19 21 27t34 8h78q59 0 37 -45l-74 -140q66 -45 122.5 -104t106 -136t78.5 -175t29 -205q0 -150 -59 -288t-157.5 -237.5t-235 -159t-284.5 -59.5q-145 0 -278 58l-45 -84q-8 -19 -19 -27 t-34 -8h-78q-61 0 -39 45l78 147q-146 102 -233 263.5t-87 349.5zM1315 717q0 232 -193 416l-469 -906q80 -37 176 -37q106 0 198.5 45t154.5 119t97.5 168.5t35.5 194.5zM344 717q1 -88 32 -171.5t67 -135.5t81 -97l467 899q-96 31 -162 31q-104 0 -196 -44.5t-154.5 -118 t-98.5 -168.5t-36 -195z" />
<glyph unicode="&#xd9;" horiz-adv-x="1476" d="M739 -27q-127 0 -235.5 39.5t-190.5 115t-129 194.5t-47 268v801q0 24 10 33.5t35 9.5h160q26 0 34.5 -9t8.5 -34v-791q0 -207 92 -308.5t262 -101.5t261.5 101.5t91.5 308.5v791q0 25 8.5 34t34.5 9h159q26 0 35.5 -9t9.5 -34v-801q0 -149 -46.5 -268t-128.5 -194.5 t-190 -115t-235 -39.5zM655 1595l-159 136q-20 17 -22 29t9 30l58 92q31 50 59 12l256 -274q45 -51 -4 -51h-127q-41 0 -70 26z" />
<glyph unicode="&#xda;" horiz-adv-x="1476" d="M739 -27q-127 0 -235.5 39.5t-190.5 115t-129 194.5t-47 268v801q0 24 10 33.5t35 9.5h160q26 0 34.5 -9t8.5 -34v-791q0 -207 92 -308.5t262 -101.5t261.5 101.5t91.5 308.5v791q0 25 8.5 34t34.5 9h159q26 0 35.5 -9t9.5 -34v-801q0 -149 -46.5 -268t-128.5 -194.5 t-190 -115t-235 -39.5zM930 1731l-160 -136q-29 -26 -68 -26h-129q-47 0 -2 51l254 274q16 19 32 15t30 -27l57 -92q10 -18 7.5 -30.5t-21.5 -28.5z" />
<glyph unicode="&#xdb;" horiz-adv-x="1476" d="M739 -27q-127 0 -235.5 39.5t-190.5 115t-129 194.5t-47 268v801q0 24 10 33.5t35 9.5h160q26 0 34.5 -9t8.5 -34v-791q0 -207 92 -308.5t262 -101.5t261.5 101.5t91.5 308.5v791q0 25 8.5 34t34.5 9h159q26 0 35.5 -9t9.5 -34v-801q0 -149 -46.5 -268t-128.5 -194.5 t-190 -115t-235 -39.5zM690 1933h96q33 -3 60 -43l196 -282q27 -43 -18 -43h-92q-42 0 -66 43l-129 200l-127 -200q-24 -43 -65 -43h-94q-44 0 -17 43l195 282q30 41 61 43z" />
<glyph unicode="&#xdc;" horiz-adv-x="1476" d="M739 -27q-127 0 -235.5 39.5t-190.5 115t-129 194.5t-47 268v801q0 24 10 33.5t35 9.5h160q26 0 34.5 -9t8.5 -34v-791q0 -207 92 -308.5t262 -101.5t261.5 101.5t91.5 308.5v791q0 25 8.5 34t34.5 9h159q26 0 35.5 -9t9.5 -34v-801q0 -149 -46.5 -268t-128.5 -194.5 t-190 -115t-235 -39.5zM416 1761q0 51 34 86t85 35q50 0 84 -35t34 -86t-34 -85t-84 -34q-51 0 -85 34t-34 85zM831 1761q0 51 34 86t85 35q50 0 85.5 -35t35.5 -86q0 -50 -35.5 -84.5t-85.5 -34.5q-51 0 -85 34t-34 85z" />
<glyph unicode="&#xdd;" horiz-adv-x="1333" d="M551 541l-524 850q-13 25 -8.5 34t28.5 9h186q21 0 32.5 -9t25.5 -34l381 -633l383 633q16 26 26 34.5t31 8.5h182q24 0 29 -9t-8 -34l-524 -850v-498q0 -25 -8.5 -34t-34.5 -9h-154q-25 0 -34 9t-9 34v498zM872 1731l-159 -136q-29 -26 -68 -26h-129q-47 0 -2 51 l254 274q29 39 61 -12l58 -92q10 -18 7.5 -30t-22.5 -29z" />
<glyph unicode="&#xde;" horiz-adv-x="1296" d="M739 0h-352v-375q0 -25 -9 -34t-34 -9h-147q-25 0 -34 9t-9 34v1792q0 25 9 34t34 9h147q26 0 34.5 -9t8.5 -34v-375h352q203 0 340.5 -150.5t137.5 -369.5q0 -224 -137 -373t-341 -149zM387 209h299q125 0 212 85t87 228t-87 229.5t-212 86.5h-299v-629z" />
<glyph unicode="&#xdf;" horiz-adv-x="1329" d="M666 827h45q115 0 182.5 53t67.5 132q0 215 -279 215q-134 0 -204 -50.5t-70 -162.5v-424v-547q0 -25 -10 -34t-36 -9h-157q-25 0 -34 9t-9 34v993q0 87 30.5 156.5t80 114t117 74t136 41.5t142.5 12h20q76 0 147 -12t140 -41.5t120 -74t82 -114t31 -156.5 q0 -194 -202 -297v-2q33 -14 62.5 -30.5t66 -46.5t63 -65t44.5 -87t18 -111q0 -87 -30 -156.5t-79.5 -113.5t-117 -73.5t-138 -41.5t-147.5 -12h-146q-25 0 -34 9t-9 34v121q0 26 9 34.5t34 8.5h133q144 0 210.5 53.5t66.5 159.5q0 87 -74.5 148t-194.5 61h-77 q-25 0 -34 8.5t-9 34.5v112q0 26 9 34.5t34 8.5z" />
<glyph unicode="&#xe0;" horiz-adv-x="1155" d="M248 834q-24 -3 -33.5 5.5t-15.5 34.5l-25 99q-6 25 -1 36t28 17q39 9 150 24t208 15q116 0 198 -21.5t133 -59t80 -101.5t39.5 -137t10.5 -177v-526q0 -25 -8.5 -34t-34.5 -9h-86q-19 0 -28.5 9t-18.5 34l-15 96q-147 -162 -383 -162q-95 0 -174.5 36.5t-131.5 116 t-52 189.5q0 160 111 245t286 85q67 0 151 -14.5t150 -38.5q0 149 -49.5 208.5t-187.5 59.5t-301 -30zM541 483q-112 0 -167 -44.5t-55 -119.5q0 -67 51 -115t150 -48q74 0 145.5 41.5t120.5 103.5v129q-79 28 -131.5 40.5t-113.5 12.5zM547 1204l-160 135q-19 17 -21 29.5 t9 30.5l57 92q31 51 60 12l256 -274q45 -51 -5 -51h-127q-40 0 -69 26z" />
<glyph unicode="&#xe1;" horiz-adv-x="1155" d="M248 834q-24 -3 -33.5 5.5t-15.5 34.5l-25 99q-6 25 -1 36t28 17q39 9 150 24t208 15q116 0 198 -21.5t133 -59t80 -101.5t39.5 -137t10.5 -177v-526q0 -25 -8.5 -34t-34.5 -9h-86q-19 0 -28.5 9t-18.5 34l-15 96q-147 -162 -383 -162q-95 0 -174.5 36.5t-131.5 116 t-52 189.5q0 160 111 245t286 85q67 0 151 -14.5t150 -38.5q0 149 -49.5 208.5t-187.5 59.5t-301 -30zM541 483q-112 0 -167 -44.5t-55 -119.5q0 -67 51 -115t150 -48q74 0 145.5 41.5t120.5 103.5v129q-79 28 -131.5 40.5t-113.5 12.5zM799 1339l-160 -135q-29 -26 -68 -26 h-129q-47 0 -2 51l254 274q16 19 32 15t30 -27l57 -92q10 -18 7.5 -31t-21.5 -29z" />
<glyph unicode="&#xe2;" horiz-adv-x="1155" d="M248 834q-24 -3 -33.5 5.5t-15.5 34.5l-25 99q-6 25 -1 36t28 17q39 9 150 24t208 15q116 0 198 -21.5t133 -59t80 -101.5t39.5 -137t10.5 -177v-526q0 -25 -8.5 -34t-34.5 -9h-86q-19 0 -28.5 9t-18.5 34l-15 96q-147 -162 -383 -162q-95 0 -174.5 36.5t-131.5 116 t-52 189.5q0 160 111 245t286 85q67 0 151 -14.5t150 -38.5q0 149 -49.5 208.5t-187.5 59.5t-301 -30zM541 483q-112 0 -167 -44.5t-55 -119.5q0 -67 51 -115t150 -48q74 0 145.5 41.5t120.5 103.5v129q-79 28 -131.5 40.5t-113.5 12.5zM524 1542h97q32 -3 59 -43l197 -282 q27 -43 -19 -43h-92q-42 0 -66 43l-129 200l-127 -200q-24 -43 -65 -43h-94q-44 0 -17 43l195 282q30 41 61 43z" />
<glyph unicode="&#xe3;" horiz-adv-x="1155" d="M248 834q-24 -3 -33.5 5.5t-15.5 34.5l-25 99q-6 25 -1 36t28 17q39 9 150 24t208 15q116 0 198 -21.5t133 -59t80 -101.5t39.5 -137t10.5 -177v-526q0 -25 -8.5 -34t-34.5 -9h-86q-19 0 -28.5 9t-18.5 34l-15 96q-147 -162 -383 -162q-95 0 -174.5 36.5t-131.5 116 t-52 189.5q0 160 111 245t286 85q67 0 151 -14.5t150 -38.5q0 149 -49.5 208.5t-187.5 59.5t-301 -30zM541 483q-112 0 -167 -44.5t-55 -119.5q0 -67 51 -115t150 -48q74 0 145.5 41.5t120.5 103.5v129q-79 28 -131.5 40.5t-113.5 12.5zM719 1409q66 0 98 82q9 24 20 29 t37 -4l58 -27q26 -9 30.5 -21.5t-6.5 -37.5q-71 -179 -225 -179q-55 0 -90.5 13t-83.5 47q-7 4 -23.5 15t-21.5 14t-17.5 10t-17.5 9t-14.5 5.5t-17.5 4.5t-17 1q-67 0 -98 -80q-11 -23 -22 -28t-36 2l-59 26q-24 10 -29 22.5t4 37.5q74 180 226 180q55 0 92 -14t84 -48 q5 -4 19 -13t18 -11.5t14.5 -9t14.5 -8t12 -6t12.5 -5.5t11.5 -3t13.5 -2.5t13.5 -0.5z" />
<glyph unicode="&#xe4;" horiz-adv-x="1155" d="M248 834q-24 -3 -33.5 5.5t-15.5 34.5l-25 99q-6 25 -1 36t28 17q39 9 150 24t208 15q116 0 198 -21.5t133 -59t80 -101.5t39.5 -137t10.5 -177v-526q0 -25 -8.5 -34t-34.5 -9h-86q-19 0 -28.5 9t-18.5 34l-15 96q-147 -162 -383 -162q-95 0 -174.5 36.5t-131.5 116 t-52 189.5q0 160 111 245t286 85q67 0 151 -14.5t150 -38.5q0 149 -49.5 208.5t-187.5 59.5t-301 -30zM541 483q-112 0 -167 -44.5t-55 -119.5q0 -67 51 -115t150 -48q74 0 145.5 41.5t120.5 103.5v129q-79 28 -131.5 40.5t-113.5 12.5zM240 1370q0 51 33.5 86t84.5 35 q50 0 84.5 -35t34.5 -86t-34.5 -85t-84.5 -34q-51 0 -84.5 34t-33.5 85zM655 1370q0 51 34 86t85 35q50 0 85.5 -35t35.5 -86q0 -50 -35.5 -84.5t-85.5 -34.5q-51 0 -85 34t-34 85z" />
<glyph unicode="&#xe5;" horiz-adv-x="1155" d="M248 834q-24 -3 -33.5 5.5t-15.5 34.5l-25 99q-6 25 -1 36t28 17q39 9 150 24t208 15q116 0 198 -21.5t133 -59t80 -101.5t39.5 -137t10.5 -177v-526q0 -25 -8.5 -34t-34.5 -9h-86q-19 0 -28.5 9t-18.5 34l-15 96q-147 -162 -383 -162q-95 0 -174.5 36.5t-131.5 116 t-52 189.5q0 160 111 245t286 85q67 0 151 -14.5t150 -38.5q0 149 -49.5 208.5t-187.5 59.5t-301 -30zM541 483q-112 0 -167 -44.5t-55 -119.5q0 -67 51 -115t150 -48q74 0 145.5 41.5t120.5 103.5v129q-79 28 -131.5 40.5t-113.5 12.5zM578 1180q-96 0 -161 66t-65 163 t65 163t161 66q95 0 161 -66t66 -163t-66 -163t-161 -66zM578 1294q48 0 76 35t28 80t-28 80t-76 35q-47 0 -76 -35.5t-29 -79.5t29 -79.5t76 -35.5z" />
<glyph unicode="&#xe6;" horiz-adv-x="1892" d="M805 596v84q-12 101 -69 142.5t-181 41.5q-140 0 -299 -30q-20 -3 -33 8t-16 30l-27 101q-6 25 0 36t29 17q37 9 153 24t211 15q124 0 205 -32.5t144 -117.5q91 81 182 115.5t207 34.5q101 0 186.5 -34t143.5 -90.5t98.5 -131t59 -154t18.5 -161.5v-9q0 -23 -8 -32 t-33 -9h-734v-67q32 -85 109.5 -142t171.5 -57q151 0 281 78q24 11 37.5 10.5t25.5 -14.5l59 -74q16 -20 18 -30t-11 -25q-69 -69 -184.5 -107.5t-237.5 -38.5q-131 0 -233 64t-156 152q-32 -34 -77.5 -69t-106 -69.5t-136.5 -56t-151 -21.5q-71 0 -135 21t-115.5 61 t-82 105.5t-30.5 148.5q0 164 106 250t281 86q68 0 166.5 -15t163.5 -38zM805 301v129q-154 53 -275 53q-113 0 -171 -45.5t-58 -122.5q0 -65 48.5 -112t146.5 -47q77 0 169.5 43.5t139.5 101.5zM1049 686v-88h528q-6 53 -23.5 99.5t-48.5 87t-82.5 64t-117.5 23.5 q-175 0 -256 -186z" />
<glyph unicode="&#xe7;" horiz-adv-x="1091" d="M500 -184l37 168q-194 36 -321.5 184t-127.5 352q0 147 72.5 272.5t197 199t271.5 73.5q222 0 379 -154q12 -15 10.5 -24t-17.5 -29l-75 -82q-18 -20 -30 -22t-32 14q-92 88 -235 88q-128 0 -219 -97t-91 -239q0 -141 90.5 -237.5t219.5 -96.5q143 0 235 88q20 16 32 14 t30 -22l75 -82q16 -20 17.5 -29t-10.5 -24q-151 -148 -367 -154l-10 -86q109 0 169 -51t60 -145q0 -92 -59 -146.5t-166 -54.5q-87 0 -193 82q-27 18 -6 45l27 35q11 13 19.5 13.5t25.5 -9.5q72 -41 141 -41q82 0 82 76q0 82 -104 82h-95q-32 0 -32 39z" />
<glyph unicode="&#xe8;" horiz-adv-x="1212" d="M1047 178l-60 74q-4 5 -7.5 8.5t-6 5.5t-6.5 2.5t-6 1t-7.5 -1.5t-7.5 -3t-9.5 -4.5t-10.5 -4.5q-136 -78 -281 -78q-118 0 -208 77t-107 189h766q25 0 33 9.5t8 35.5q0 117 -33 220t-95 183t-160 126.5t-220 46.5q-147 0 -271.5 -73.5t-197 -199t-72.5 -272.5t72.5 -272 t199.5 -198t279 -73q116 0 230.5 38.5t183.5 105.5q13 16 11.5 26.5t-17.5 30.5zM899 598h-565q7 69 41.5 130t99.5 102.5t148 41.5q120 0 192 -81.5t84 -192.5zM551 1204l-160 135q-19 17 -21 29.5t9 30.5l57 92q31 51 60 12l256 -274q45 -51 -4 -51h-127q-41 0 -70 26z " />
<glyph unicode="&#xe9;" horiz-adv-x="1212" d="M987 252l60 -74q16 -20 17.5 -30.5t-11.5 -26.5q-69 -67 -183.5 -105.5t-230.5 -38.5q-152 0 -279 73t-199.5 198t-72.5 272t72.5 272.5t197 199t271.5 73.5q122 0 220 -46.5t160 -126.5t95 -183t33 -220q0 -26 -8 -35.5t-33 -9.5h-766q17 -112 107 -189t208 -77 q145 0 281 78q3 1 10.5 4.5t9.5 4.5t7.5 3t7.5 1.5t6 -1t6.5 -2.5t6 -5.5t7.5 -8.5zM334 598h565q-12 111 -84 192.5t-192 81.5q-83 0 -148 -41.5t-99.5 -102.5t-41.5 -130zM862 1339l-160 -135q-29 -26 -67 -26h-129q-47 0 -2 51l254 274q29 39 61 -12l58 -92 q10 -18 7 -30.5t-22 -29.5z" />
<glyph unicode="&#xea;" horiz-adv-x="1212" d="M1047 178l-60 74q-4 5 -7.5 8.5t-6 5.5t-6.5 2.5t-6 1t-7.5 -1.5t-7.5 -3t-9.5 -4.5t-10.5 -4.5q-136 -78 -281 -78q-118 0 -208 77t-107 189h766q25 0 33 9.5t8 35.5q0 117 -33 220t-95 183t-160 126.5t-220 46.5q-147 0 -271.5 -73.5t-197 -199t-72.5 -272.5t72.5 -272 t199.5 -198t279 -73q116 0 230.5 38.5t183.5 105.5q13 16 11.5 26.5t-17.5 30.5zM899 598h-565q7 69 41.5 130t99.5 102.5t148 41.5q120 0 192 -81.5t84 -192.5zM588 1542h96q32 -3 59 -43l197 -282q27 -43 -18 -43h-93q-41 0 -65 43l-129 200l-127 -200q-24 -43 -66 -43 h-94q-43 0 -16 43l194 282q30 41 62 43z" />
<glyph unicode="&#xeb;" horiz-adv-x="1212" d="M1047 178l-60 74q-4 5 -7.5 8.5t-6 5.5t-6.5 2.5t-6 1t-7.5 -1.5t-7.5 -3t-9.5 -4.5t-10.5 -4.5q-136 -78 -281 -78q-118 0 -208 77t-107 189h766q25 0 33 9.5t8 35.5q0 117 -33 220t-95 183t-160 126.5t-220 46.5q-147 0 -271.5 -73.5t-197 -199t-72.5 -272.5t72.5 -272 t199.5 -198t279 -73q116 0 230.5 38.5t183.5 105.5q13 16 11.5 26.5t-17.5 30.5zM899 598h-565q7 69 41.5 130t99.5 102.5t148 41.5q120 0 192 -81.5t84 -192.5zM301 1370q0 51 34 86t85 35q50 0 84.5 -35t34.5 -86t-34.5 -85t-84.5 -34q-51 0 -85 34t-34 85zM717 1370 q0 51 34 86t85 35q50 0 85 -35t35 -86t-35 -85t-85 -34q-51 0 -85 34t-34 85z" />
<glyph unicode="&#xec;" horiz-adv-x="604" d="M188 43v956q0 25 9.5 34t35.5 9h146q26 0 34.5 -9t8.5 -34v-956q0 -25 -8.5 -34t-34.5 -9h-146q-26 0 -35.5 9t-9.5 34zM201 1204l-160 135q-19 17 -21 29.5t9 30.5l57 92q31 50 59 12l256 -274q45 -51 -4 -51h-127q-40 0 -69 26z" />
<glyph unicode="&#xed;" horiz-adv-x="604" d="M180 43v956q0 25 9.5 34t35.5 9h146q26 0 34.5 -9t8.5 -34v-956q0 -25 -8.5 -34t-34.5 -9h-146q-26 0 -35.5 9t-9.5 34zM563 1339l-160 -135q-29 -26 -67 -26h-129q-47 0 -2 51l254 274q29 39 61 -12l58 -92q10 -18 7 -30.5t-22 -29.5z" />
<glyph unicode="&#xee;" horiz-adv-x="598" d="M182 43v956q0 25 9.5 34t35.5 9h146q26 0 34.5 -9t8.5 -34v-956q0 -25 -8.5 -34t-34.5 -9h-146q-26 0 -35.5 9t-9.5 34zM252 1542h96q33 -3 60 -43l196 -282q27 -43 -18 -43h-92q-42 0 -66 43l-129 200l-127 -200q-24 -43 -66 -43h-94q-43 0 -16 43l194 282q30 41 62 43z " />
<glyph unicode="&#xef;" horiz-adv-x="598" d="M182 43v956q0 25 9.5 34t35.5 9h146q26 0 34.5 -9t8.5 -34v-956q0 -25 -8.5 -34t-34.5 -9h-146q-26 0 -35.5 9t-9.5 34zM-25 1370q0 51 34 86t85 35q50 0 84.5 -35t34.5 -86t-34.5 -85t-84.5 -34q-51 0 -85 34t-34 85zM391 1370q0 51 34 86t85 35q50 0 85.5 -35t35.5 -86 q0 -50 -35.5 -84.5t-85.5 -34.5q-51 0 -85 34t-34 85z" />
<glyph unicode="&#xf0;" horiz-adv-x="1247" d="M903 1483l-53 -90q301 -169 301 -729q0 -126 -16 -226.5t-56 -189.5t-103.5 -148t-162.5 -93t-229 -34q-115 0 -211.5 41t-161.5 111t-101 163.5t-36 198.5q0 108 36 195t98 141.5t142.5 83.5t173.5 29q79 0 144 -16t110 -44t76 -61t51 -72q0 341 -170 455l-94 -158 q-12 -22 -24 -25.5t-35 9.5l-19 10q-22 12 -25 26t11 34l82 141q-71 9 -148 0q-24 -4 -33.5 7t-9.5 38v125q0 27 9.5 38.5t33.5 12.5q23 2 72 2q102 0 193 -24l61 104q12 23 24 26t33 -10l21 -12q22 -12 25 -24t-9 -35zM598 182q78 0 137 26t91 68.5t47.5 89.5t15.5 97 q0 113 -85.5 194.5t-205.5 81.5q-118 0 -199.5 -74.5t-81.5 -193.5q0 -125 75 -207t206 -82z" />
<glyph unicode="&#xf1;" horiz-adv-x="1232" d="M375 870l-29 129q-13 25 -22.5 34t-28.5 9h-74q-25 0 -34 -9t-9 -34v-469v-487q0 -25 9 -34t34 -9h148q25 0 34 9t9 34v492q0 150 58.5 235.5t170.5 85.5q223 0 223 -315v-498q0 -25 9 -34t34 -9h148q25 0 34 9t9 34v549q0 128 -30 221.5t-85 147.5t-125 79t-158 25 q-50 0 -95 -13t-76.5 -31t-63.5 -48t-49 -50.5t-41 -52.5zM778 1409q32 0 58 21.5t41 60.5q9 24 20 29t37 -4l57 -27q26 -9 31 -21.5t-6 -37.5q-71 -179 -225 -179q-55 0 -91 13.5t-84 46.5q-7 4 -23.5 15t-21.5 14t-17.5 10t-17.5 9t-14.5 5.5t-17.5 4.5t-17 1 q-67 0 -98 -80q-11 -23 -21.5 -28t-35.5 2l-60 26q-24 10 -29 22.5t5 37.5q74 180 225 180q55 0 92 -14t84 -48q5 -4 19 -13t18 -11.5t14.5 -9t14.5 -8t12 -6t12.5 -5.5t11.5 -3t13.5 -2.5t13.5 -0.5z" />
<glyph unicode="&#xf2;" horiz-adv-x="1259" d="M88 520q0 147 73 272.5t198 199t272 73.5t271.5 -73.5t196.5 -199t72 -272.5t-72 -272t-196.5 -198t-271.5 -73t-272 73t-198 198t-73 272zM631 182q128 0 218.5 98t90.5 240t-90.5 239t-218.5 97q-130 0 -221 -97t-91 -239t91 -240t221 -98zM561 1204l-160 135 q-19 17 -21 29.5t9 30.5l57 92q31 51 60 12l256 -274q45 -51 -4 -51h-127q-41 0 -70 26z" />
<glyph unicode="&#xf3;" horiz-adv-x="1259" d="M88 520q0 147 73 272.5t198 199t272 73.5t271.5 -73.5t196.5 -199t72 -272.5t-72 -272t-196.5 -198t-271.5 -73t-272 73t-198 198t-73 272zM631 182q128 0 218.5 98t90.5 240t-90.5 239t-218.5 97q-130 0 -221 -97t-91 -239t91 -240t221 -98zM856 1339l-160 -135 q-29 -26 -67 -26h-129q-47 0 -2 51l254 274q29 39 61 -12l57 -92q10 -18 7.5 -31t-21.5 -29z" />
<glyph unicode="&#xf4;" horiz-adv-x="1259" d="M88 520q0 147 73 272.5t198 199t272 73.5t271.5 -73.5t196.5 -199t72 -272.5t-72 -272t-196.5 -198t-271.5 -73t-272 73t-198 198t-73 272zM631 182q128 0 218.5 98t90.5 240t-90.5 239t-218.5 97q-130 0 -221 -97t-91 -239t91 -240t221 -98zM582 1542h96q32 -3 59 -43 l197 -282q27 -43 -19 -43h-92q-41 0 -65 43l-129 200l-127 -200q-24 -43 -66 -43h-94q-43 0 -16 43l194 282q30 41 62 43z" />
<glyph unicode="&#xf5;" horiz-adv-x="1259" d="M88 520q0 147 73 272.5t198 199t272 73.5t271.5 -73.5t196.5 -199t72 -272.5t-72 -272t-196.5 -198t-271.5 -73t-272 73t-198 198t-73 272zM631 182q128 0 218.5 98t90.5 240t-90.5 239t-218.5 97q-130 0 -221 -97t-91 -239t91 -240t221 -98zM776 1409q66 0 98 82 q9 24 20.5 29t37.5 -4l57 -27q26 -9 31 -21.5t-6 -37.5q-71 -179 -226 -179q-55 0 -90.5 13t-83.5 47q-7 4 -23.5 15t-21.5 14t-17.5 10t-17.5 9t-14.5 5.5t-17.5 4.5t-17 1q-67 0 -98 -80q-11 -23 -21.5 -28t-35.5 2l-60 26q-24 10 -29 22.5t5 37.5q74 180 225 180 q55 0 92 -14t84 -48q5 -4 19 -13t18 -11.5t14.5 -9t14.5 -8t12 -6t12.5 -5.5t11.5 -3t13.5 -2.5t13.5 -0.5z" />
<glyph unicode="&#xf6;" horiz-adv-x="1259" d="M88 520q0 147 73 272.5t198 199t272 73.5t271.5 -73.5t196.5 -199t72 -272.5t-72 -272t-196.5 -198t-271.5 -73t-272 73t-198 198t-73 272zM631 182q128 0 218.5 98t90.5 240t-90.5 239t-218.5 97q-130 0 -221 -97t-91 -239t91 -240t221 -98zM305 1370q0 51 34 86t85 35 q50 0 84.5 -35t34.5 -86t-34.5 -85t-84.5 -34q-51 0 -85 34t-34 85zM721 1370q0 51 34 86t85 35q50 0 85.5 -35t35.5 -86q0 -50 -35.5 -84.5t-85.5 -34.5q-51 0 -85 34t-34 85z" />
<glyph unicode="&#xf7;" horiz-adv-x="1138" d="M1022 541h-903q-25 0 -34 9.5t-9 35.5v80q0 26 9 35.5t34 9.5h903q26 0 35.5 -9t9.5 -34v-84q0 -25 -9.5 -34t-35.5 -9zM444 231q0 54 35.5 90.5t87.5 36.5q54 0 90.5 -36.5t36.5 -90.5q0 -52 -36.5 -87t-90.5 -35q-53 0 -88 35t-35 87zM444 1012q0 54 35.5 90.5 t87.5 36.5q53 0 90 -36.5t37 -90.5q0 -52 -36.5 -87.5t-90.5 -35.5q-53 0 -88 35.5t-35 87.5z" />
<glyph unicode="&#xf8;" horiz-adv-x="1251" d="M80 520q0 147 72.5 272.5t197 199t271.5 73.5q89 0 174 -31l34 64q10 20 22 28.5t36 8.5h76q60 0 38 -45l-69 -125q106 -76 168.5 -192.5t62.5 -252.5q0 -147 -72.5 -272t-197.5 -198t-272 -73q-89 0 -183 33l-32 -65q-8 -20 -20.5 -28.5t-37.5 -8.5h-74q-58 0 -38 45 l65 129q-101 73 -161 189.5t-60 248.5zM621 182q129 0 220 98t91 240q0 131 -105 240l-292 -561q51 -17 86 -17zM311 520q0 -55 19 -106t35.5 -73.5t42.5 -53.5l288 555q-40 14 -75 14q-128 0 -219 -97t-91 -239z" />
<glyph unicode="&#xf9;" horiz-adv-x="1232" d="M858 172l29 -129q13 -25 22.5 -34t28.5 -9h74q25 0 34 9t9 34v469v487q0 25 -9 34t-34 9h-148q-25 0 -34 -9t-9 -34v-491q0 -150 -58.5 -236t-170.5 -86q-223 0 -223 314v499q0 25 -9 34t-34 9h-148q-25 0 -34 -9t-9 -34v-548q0 -128 30 -222t85 -148t124.5 -79 t157.5 -25q62 0 114.5 17.5t92.5 50t65 60t54 67.5zM510 1204l-160 135q-19 17 -21 29.5t9 30.5l57 92q31 51 60 12l256 -274q45 -51 -4 -51h-127q-41 0 -70 26z" />
<glyph unicode="&#xfa;" horiz-adv-x="1232" d="M887 43l-29 129q-29 -40 -54 -67.5t-65 -60t-92.5 -50t-114.5 -17.5q-88 0 -157.5 25t-124.5 79t-85 148t-30 222v548q0 25 9 34t34 9h148q25 0 34 -9t9 -34v-499q0 -314 223 -314q112 0 170.5 86t58.5 236v491q0 25 9 34t34 9h148q25 0 34 -9t9 -34v-487v-469 q0 -25 -9 -34t-34 -9h-74q-19 0 -28.5 9t-22.5 34zM819 1339l-160 -135q-29 -26 -67 -26h-129q-47 0 -2 51l254 274q29 39 61 -12l58 -92q10 -18 7 -30.5t-22 -29.5z" />
<glyph unicode="&#xfb;" horiz-adv-x="1232" d="M858 172l29 -129q13 -25 22.5 -34t28.5 -9h74q25 0 34 9t9 34v469v487q0 25 -9 34t-34 9h-148q-25 0 -34 -9t-9 -34v-491q0 -150 -58.5 -236t-170.5 -86q-223 0 -223 314v499q0 25 -9 34t-34 9h-148q-25 0 -34 -9t-9 -34v-548q0 -128 30 -222t85 -148t124.5 -79 t157.5 -25q62 0 114.5 17.5t92.5 50t65 60t54 67.5zM553 1542h96q33 -3 60 -43l196 -282q27 -43 -18 -43h-92q-42 0 -66 43l-129 200l-127 -200q-24 -43 -65 -43h-95q-43 0 -16 43l195 282q30 41 61 43z" />
<glyph unicode="&#xfc;" horiz-adv-x="1232" d="M858 172l29 -129q13 -25 22.5 -34t28.5 -9h74q25 0 34 9t9 34v469v487q0 25 -9 34t-34 9h-148q-25 0 -34 -9t-9 -34v-491q0 -150 -58.5 -236t-170.5 -86q-223 0 -223 314v499q0 25 -9 34t-34 9h-148q-25 0 -34 -9t-9 -34v-548q0 -128 30 -222t85 -148t124.5 -79 t157.5 -25q62 0 114.5 17.5t92.5 50t65 60t54 67.5zM274 1370q0 51 34 86t85 35q50 0 84.5 -35t34.5 -86t-34.5 -85t-84.5 -34q-51 0 -85 34t-34 85zM690 1370q0 51 34 86t85 35q50 0 85.5 -35t35.5 -86q0 -50 -35.5 -84.5t-85.5 -34.5q-51 0 -85 34t-34 85z" />
<glyph unicode="&#xfd;" horiz-adv-x="1093" d="M549 356l282 643q14 25 25.5 34t32.5 9h168q23 0 28 -9t-6 -34l-620 -1374q-12 -26 -23.5 -34.5t-32.5 -8.5h-167q-24 0 -29 9t6 34l211 469l-410 905q-10 25 -5 34t28 9h168q21 0 32 -8.5t25 -34.5l285 -645zM758 1339l-160 -135q-29 -26 -68 -26h-129q-47 0 -2 51 l254 274q16 19 32 15t30 -27l57 -92q10 -18 7.5 -31t-21.5 -29z" />
<glyph unicode="&#xfe;" horiz-adv-x="1320" d="M758 0h-355v-375q0 -25 -8.5 -34t-34.5 -9h-145q-26 0 -35.5 9t-9.5 34v1792q0 25 9.5 34t35.5 9h145q26 0 34.5 -9t8.5 -34v-375h355q133 0 242 -69t171 -188t62 -263q0 -224 -136 -373t-339 -149zM403 209h299q125 0 212 85t87 228t-87 229.5t-212 86.5h-299v-629z" />
<glyph unicode="&#xff;" horiz-adv-x="1093" d="M549 356l282 643q14 25 25.5 34t32.5 9h168q23 0 28 -9t-6 -34l-620 -1374q-12 -26 -23.5 -34.5t-32.5 -8.5h-167q-24 0 -29 9t6 34l211 469l-410 905q-10 25 -5 34t28 9h168q21 0 32 -8.5t25 -34.5l285 -645zM221 1370q0 51 34 86t85 35q50 0 84.5 -35t34.5 -86 t-34.5 -85t-84.5 -34q-51 0 -85 34t-34 85zM637 1370q0 51 34 86t85 35q50 0 85.5 -35t35.5 -86q0 -50 -35.5 -84.5t-85.5 -34.5q-51 0 -85 34t-34 85z" />
<glyph unicode="&#x152;" horiz-adv-x="2283" d="M346 717q0 -100 35 -194.5t96.5 -168.5t152.5 -119t195 -45q106 0 198 45t152.5 119t95 168.5t34.5 194.5q0 101 -34.5 195.5t-95 168t-152.5 118t-198 44.5q-104 0 -195 -44.5t-152.5 -118t-96.5 -168.5t-35 -195zM2068 616h-520q-15 -127 -66 -223t-145 -182h781 q26 0 34.5 -8.5t8.5 -34.5v-125q0 -25 -8.5 -34t-34.5 -9h-932q-57 0 -181.5 -13.5t-179.5 -13.5q-148 0 -283.5 59.5t-233.5 159t-156 237.5t-58 288t58 287.5t156 237.5t233.5 159t283.5 59q54 0 179 -13t182 -13h932q25 0 34 -9t9 -34v-125q0 -25 -9.5 -35t-33.5 -10 h-654h-127q80 -61 138.5 -168t68.5 -226h524q25 0 34 -8.5t9 -34.5v-125q0 -25 -9 -34t-34 -9z" />
<glyph unicode="&#x153;" horiz-adv-x="1970" d="M1126 444v-94q26 -81 106.5 -126.5t170.5 -45.5q143 0 280 78q3 1 9.5 4t8.5 4t7 3t7 2t6 0.5t6 -1t5.5 -3.5t6.5 -5.5t6 -7.5l59 -74q16 -19 17.5 -30t-9.5 -25q-72 -71 -184 -108.5t-231 -37.5q-230 0 -387 154q-74 -73 -172.5 -113.5t-206.5 -40.5q-147 0 -272 73 t-198 198t-73 272t73 272.5t198 199t272 73.5q107 0 205.5 -41t173.5 -113q161 154 376 154q126 0 226 -51.5t160 -136t91 -184t31 -204.5q0 -26 -8 -35.5t-33 -9.5h-727zM1133 692v-94h524q-11 115 -83 194.5t-194 79.5q-171 0 -247 -180zM901 418v205q-21 105 -93.5 169 t-176.5 64q-130 0 -221 -97t-91 -239t91 -240t221 -98q104 0 176.5 65.5t93.5 170.5z" />
<glyph unicode="&#x178;" horiz-adv-x="1327" d="M20 1391l525 -850v-498q0 -25 9 -34t34 -9h153q26 0 34.5 9t8.5 34v498l525 850q13 25 8 34t-29 9h-182q-21 0 -31 -8.5t-26 -34.5l-383 -633l-381 633q-14 25 -25.5 34t-32.5 9h-186q-24 0 -29 -9t8 -34zM332 1761q0 51 34 86t85 35q50 0 84 -35t34 -86t-34 -85t-84 -34 q-51 0 -85 34t-34 85zM748 1761q0 51 33.5 86t84.5 35q50 0 85.5 -35t35.5 -86q0 -50 -35.5 -84.5t-85.5 -34.5q-51 0 -84.5 34t-33.5 85z" />
<glyph unicode="&#x2c6;" horiz-adv-x="800" d="M352 1542h97q32 -3 59 -43l197 -282q27 -43 -19 -43h-92q-42 0 -66 43l-129 200l-127 -200q-24 -43 -65 -43h-94q-44 0 -17 43l195 282q30 41 61 43z" />
<glyph unicode="&#x2dc;" horiz-adv-x="917" d="M606 1409q32 0 58 21.5t41 60.5q9 24 20 29t37 -4l57 -27q26 -9 31 -21.5t-6 -37.5q-71 -179 -226 -179q-55 0 -90.5 13t-83.5 47q-7 4 -23.5 15t-21.5 14t-17.5 10t-17.5 9t-14.5 5.5t-17.5 4.5t-17 1q-67 0 -98 -80q-11 -23 -21.5 -28t-35.5 2l-60 26q-24 10 -29 22.5 t5 37.5q74 180 225 180q55 0 92 -14t84 -48q5 -4 19 -13t18 -11.5t14.5 -9t14.5 -8t12 -6t12.5 -5.5t11.5 -3t13.5 -2.5t13.5 -0.5z" />
<glyph unicode="&#x2000;" horiz-adv-x="1015" />
<glyph unicode="&#x2001;" horiz-adv-x="2030" />
<glyph unicode="&#x2002;" horiz-adv-x="1015" />
<glyph unicode="&#x2003;" horiz-adv-x="2030" />
<glyph unicode="&#x2004;" horiz-adv-x="676" />
<glyph unicode="&#x2005;" horiz-adv-x="507" />
<glyph unicode="&#x2006;" horiz-adv-x="338" />
<glyph unicode="&#x2007;" horiz-adv-x="338" />
<glyph unicode="&#x2008;" horiz-adv-x="253" />
<glyph unicode="&#x2009;" horiz-adv-x="406" />
<glyph unicode="&#x200a;" horiz-adv-x="112" />
<glyph unicode="&#x2010;" horiz-adv-x="878" d="M723 489h-565q-26 0 -35.5 9t-9.5 34v97q0 26 9 34.5t36 8.5h565q25 0 34 -8.5t9 -34.5v-97q0 -25 -9 -34t-34 -9z" />
<glyph unicode="&#x2011;" horiz-adv-x="878" d="M723 489h-565q-26 0 -35.5 9t-9.5 34v97q0 26 9 34.5t36 8.5h565q25 0 34 -8.5t9 -34.5v-97q0 -25 -9 -34t-34 -9z" />
<glyph unicode="&#x2012;" horiz-adv-x="878" d="M723 489h-565q-26 0 -35.5 9t-9.5 34v97q0 26 9 34.5t36 8.5h565q25 0 34 -8.5t9 -34.5v-97q0 -25 -9 -34t-34 -9z" />
<glyph unicode="&#x2013;" horiz-adv-x="860" d="M719 489h-580q-25 0 -34 8.5t-9 34.5v97q0 25 9 34t34 9h580q26 0 35.5 -9t9.5 -34v-97q0 -26 -9 -34.5t-36 -8.5z" />
<glyph unicode="&#x2014;" horiz-adv-x="1206" d="M1065 489h-926q-25 0 -34 8.5t-9 34.5v97q0 25 9 34t34 9h926q26 0 35.5 -9t9.5 -34v-97q0 -26 -9 -34.5t-36 -8.5z" />
<glyph unicode="&#x2018;" horiz-adv-x="577" d="M289 1130h8q64 0 109 -45t45 -110t-45.5 -111.5t-110.5 -46.5q-75 0 -121.5 56t-46.5 151q0 143 80 255.5t201 174.5q19 11 28 -4l41 -66q10 -15 -8 -28q-153 -95 -180 -226z" />
<glyph unicode="&#x2019;" horiz-adv-x="577" d="M291 1147h-10q-65 0 -109.5 45t-44.5 111q0 65 45 111t111 46q75 0 121.5 -56t46.5 -153q0 -143 -79.5 -256t-201.5 -172q-17 -10 -29 4l-41 66q-11 16 9 27q152 98 182 227z" />
<glyph unicode="&#x201a;" horiz-adv-x="577" d="M291 -23h-10q-65 2 -109.5 47t-44.5 109q0 65 45.5 111.5t110.5 46.5q75 0 121.5 -55.5t46.5 -151.5q0 -143 -79.5 -256t-201.5 -174q-20 -8 -29 4l-41 66q-10 15 9 28q152 94 182 225z" />
<glyph unicode="&#x201c;" horiz-adv-x="1013" d="M725 1133h8q65 -2 109.5 -47t44.5 -109q0 -66 -45 -113t-111 -47q-75 0 -121.5 56t-46.5 153q0 143 80 255.5t201 172.5q19 11 28 -4l41 -66q12 -15 -8 -26q-153 -98 -180 -225zM289 1133h8q65 -2 109.5 -47t44.5 -109q0 -66 -45 -113t-111 -47q-75 0 -121.5 56 t-46.5 153q0 143 80 255.5t201 172.5q19 11 28 -4l41 -66q12 -15 -8 -26q-153 -98 -180 -225z" />
<glyph unicode="&#x201d;" horiz-adv-x="1013" d="M291 1147h-10q-65 0 -109.5 45t-44.5 111q0 65 45 111t111 46q75 0 121.5 -56t46.5 -153q0 -143 -79.5 -256t-201.5 -172q-17 -10 -29 4l-41 66q-11 16 9 27q152 98 182 227zM727 1147h-10q-65 0 -109.5 45t-44.5 111q0 65 45 111t111 46q75 0 121.5 -56t46.5 -153 q0 -143 -79.5 -256t-201.5 -172q-17 -10 -28 4l-41 66q-11 16 8 27q152 98 182 227z" />
<glyph unicode="&#x201e;" horiz-adv-x="1013" d="M291 -23h-10q-65 2 -109.5 47t-44.5 109q0 65 45.5 111.5t110.5 46.5q75 0 121.5 -55.5t46.5 -151.5q0 -143 -79.5 -256t-201.5 -174q-20 -8 -29 4l-41 66q-10 15 9 28q152 94 182 225zM727 -23h-10q-65 2 -109.5 47t-44.5 109q0 65 45.5 111.5t110.5 46.5 q75 0 121.5 -55.5t46.5 -151.5q0 -143 -79.5 -256t-201.5 -174q-19 -8 -28 4l-41 66q-10 15 8 28q152 94 182 225z" />
<glyph unicode="&#x2022;" horiz-adv-x="550" d="M76 700q0 84 57.5 142.5t140.5 58.5t141 -59t58 -142t-57.5 -139.5t-141.5 -56.5q-83 0 -140.5 56.5t-57.5 139.5z" />
<glyph unicode="&#x2026;" horiz-adv-x="1554" d="M127 133q0 66 45 112t111 46t112.5 -46t46.5 -112t-46.5 -111t-112.5 -45t-111 45t-45 111zM621 133q0 66 44.5 112t110.5 46q65 0 111.5 -46t46.5 -112q0 -65 -46.5 -110.5t-111.5 -45.5q-66 0 -110.5 45t-44.5 111zM1112 133q0 66 45 112t111 46t111.5 -46t45.5 -112 t-45.5 -111t-111.5 -45t-111 45t-45 111z" />
<glyph unicode="&#x202f;" horiz-adv-x="406" />
<glyph unicode="&#x2039;" horiz-adv-x="688" d="M94 606l336 377q18 18 29 20t30 -10l93 -53q20 -12 21 -25.5t-13 -33.5l-289 -361l289 -360q14 -20 13 -33.5t-21 -26.5l-93 -53q-19 -12 -30.5 -10.5t-28.5 20.5l-336 377q-35 40 -35 80v12q0 43 35 80z" />
<glyph unicode="&#x203a;" horiz-adv-x="688" d="M258 983l336 -377q35 -37 35 -80v-12q0 -40 -35 -80l-336 -377q-19 -19 -30 -20.5t-31 10.5l-91 53q-20 13 -21.5 26.5t13.5 33.5l289 360l-289 361q-16 20 -14.5 33.5t22.5 25.5l91 53q21 12 31.5 10t29.5 -20z" />
<glyph unicode="&#x205f;" horiz-adv-x="507" />
<glyph unicode="&#x20ac;" horiz-adv-x="1300" d="M997 494h-503q21 -59 54.5 -110.5t81.5 -96t115.5 -71t145.5 -26.5q120 0 203 39q24 10 34.5 4.5t20.5 -28.5l43 -119q10 -23 7.5 -36.5t-21.5 -20.5q-136 -56 -287 -56q-234 0 -413 147t-242 374h-164q-27 0 -36 8.5t-9 34.5v24q0 25 9.5 34t35.5 9h137q-8 52 -8 129v64 h-129q-27 0 -36 8.5t-9 34.5v22q0 26 9.5 35.5t35.5 9.5h147q52 243 235.5 398t436.5 155q146 0 287 -55q19 -7 21 -21.5t-7 -37.5l-43 -119q-8 -24 -20 -29.5t-35 4.5q-80 41 -203 41q-87 0 -159 -27.5t-122 -76t-84 -106.5t-53 -126h524q25 0 34 -9t9 -34v-24 q0 -26 -9 -34.5t-34 -8.5h-544l-2 -64q0 -71 12 -129h534q25 0 34 -9t9 -34v-24q0 -26 -9 -34.5t-34 -8.5z" />
<glyph unicode="&#x2122;" horiz-adv-x="1830" d="M43 1434h635q13 0 17.5 -5t4.5 -16v-94q0 -14 -4.5 -18.5t-17.5 -4.5h-240v-630q0 -21 -24 -21h-107q-22 0 -22 21v630h-242q-23 0 -23 23v94q0 21 23 21zM1567 1106l-271 -453q-16 -22 -26 -22h-10q-11 0 -27 22l-266 451l-52 -436q-1 -10 -2.5 -14.5t-6.5 -6.5t-15 -2 h-94q-29 0 -23 23l94 772q2 10 11 10h8q7 0 14 -10l363 -598l364 598q8 10 17 10h8q6 0 8 -8v-2l94 -772q6 -23 -22 -23h-97q-12 0 -16 4.5t-6 18.5z" />
<glyph unicode="&#x25fc;" horiz-adv-x="1044" d="M0 1044h1044v-1044h-1044v1044z" />
</font>
</defs>
</svg>
