<?xml version="1.0" standalone="no"?>
<!DOCTYPE svg PUBLIC "-//W3C//DTD SVG 1.1//EN" "http://www.w3.org/Graphics/SVG/1.1/DTD/svg11.dtd" >
<svg xmlns="http://www.w3.org/2000/svg">
<metadata></metadata>
<defs>
<font id="acherus_grotesquethin" horiz-adv-x="1402" >
<font-face units-per-em="2048" ascent="1638" descent="-410" />
<missing-glyph horiz-adv-x="518" />
<glyph unicode="&#xfb01;" horiz-adv-x="1316" d="M985 993h-651v-977q0 -16 -17 -16h-16q-16 0 -16 16v977h-187q-16 0 -16 17v16q0 16 16 16h187v60q0 113 15.5 193.5t53 142t105 91.5t166.5 30q92 0 159 -31q13 -6 7 -21l-7 -14q-7 -11 -20 -6q-62 22 -137 22q-159 0 -226 -93.5t-67 -323.5v-50h684q16 0 16 -16v-1010 q0 -16 -16 -16h-17q-16 0 -16 16v977zM948 1405q0 23 17.5 40t42.5 17t42 -17t17 -40q0 -26 -17 -44t-42 -18t-42.5 18t-17.5 44z" />
<glyph unicode="&#xfb03;" horiz-adv-x="1976" d="M1645 993h-652v-977q0 -16 -16 -16h-16q-17 0 -17 16v977h-610v-977q0 -16 -17 -16h-16q-16 0 -16 16v977h-187q-16 0 -16 17v16q0 16 16 16h187v60q0 113 15.5 193.5t53 142t105 91.5t166.5 30q92 0 159 -31q13 -6 7 -21l-7 -14q-7 -11 -20 -6q-62 22 -137 22 q-159 0 -226 -93.5t-67 -323.5v-50h610v60q0 113 15.5 193.5t53 142t105 91.5t166.5 30q93 0 160 -31q12 -6 6 -21l-6 -14q-7 -12 -21 -6q-62 22 -137 22q-159 0 -226 -93.5t-67 -323.5v-50h684q17 0 17 -16v-1010q0 -16 -17 -16h-16q-16 0 -16 16v977zM1608 1405 q0 24 17.5 40.5t43.5 16.5q23 0 40 -17t17 -40q0 -26 -17 -44t-40 -18q-26 0 -43.5 18t-17.5 44z" />
<glyph horiz-adv-x="0" />
<glyph horiz-adv-x="682" />
<glyph horiz-adv-x="0" />
<glyph horiz-adv-x="0" />
<glyph unicode="&#xd;" horiz-adv-x="518" />
<glyph unicode=" "  horiz-adv-x="518" />
<glyph unicode="&#x09;" horiz-adv-x="518" />
<glyph unicode="&#xa0;" horiz-adv-x="518" />
<glyph unicode="!" horiz-adv-x="696" d="M324 485v932q0 17 16 17h18q17 0 17 -17v-932q0 -16 -19 -16h-14q-18 0 -18 16zM281 45q0 29 20 48.5t47 19.5q29 0 49.5 -19.5t20.5 -48.5q0 -28 -20.5 -48t-49.5 -20q-26 0 -46.5 20.5t-20.5 47.5z" />
<glyph unicode="&#x22;" horiz-adv-x="712" d="M152 924v493q0 17 16 17h16q17 0 17 -17l-2 -493q0 -17 -17 -17h-14q-16 0 -16 17zM512 924v493q0 17 16 17h17q16 0 16 -17l-2 -493q0 -17 -16 -17h-15q-16 0 -16 17z" />
<glyph unicode="#" horiz-adv-x="1675" d="M225 1020h396l100 397q5 17 22 17h23q18 0 12 -17l-100 -397h481l103 397q7 17 22 17h23q18 0 12 -17l-100 -397h376q17 0 17 -16v-19q0 -9 -3.5 -12.5t-13.5 -3.5h-391l-123 -492h387q17 0 17 -16v-19q0 -16 -17 -16h-403l-102 -410q-5 -16 -25 -16h-23q-15 0 -10 16 l103 410h-486l-100 -410q-5 -16 -25 -16h-22q-15 0 -10 16l102 410h-367q-16 0 -16 16v19q0 16 16 16h381l127 492h-383q-16 0 -16 16v19q0 16 16 16zM666 969l-127 -492h483l127 492h-483z" />
<glyph unicode="$" horiz-adv-x="1259" d="M608 -166v143q-296 14 -506 160q-16 10 -6 25l10 18q9 15 29 2q97 -70 226.5 -111.5t246.5 -43.5v684q-55 8 -95.5 16t-94 22.5t-92 31t-78.5 43t-65.5 58t-41.5 76t-16 97.5q0 74 32 145t91 128.5t153 92.5t207 35v125q0 16 17 16h14q16 0 16 -16v-125q222 -2 478 -158 q13 -8 6 -22l-9 -16q-13 -17 -28 -7q-230 152 -447 154v-653q80 -10 142.5 -23t133.5 -40.5t118 -64.5t78.5 -98t31.5 -139q0 -82 -31 -154.5t-91 -130.5t-158.5 -92t-223.5 -35v-143q0 -16 -16 -16h-14q-17 0 -17 16zM1110 389q0 59 -21.5 105.5t-58 79t-95.5 58t-124.5 42 t-155.5 31.5v-678q59 1 116 10.5t120.5 35t110 64t77.5 104t31 148.5zM174 1055q0 -59 30.5 -107t75.5 -78.5t107 -53.5t114 -34t107 -18v643q-97 -3 -174.5 -30t-124.5 -65t-79 -86t-44 -90.5t-12 -80.5z" />
<glyph unicode="%" horiz-adv-x="1767" d="M420 727q-152 0 -243 95.5t-91 271.5t91 271t243 95t244 -95t92 -271t-92 -271.5t-244 -95.5zM420 776q138 0 212.5 84.5t74.5 233.5t-74.5 233t-212.5 84t-211.5 -83.5t-73.5 -233.5t73.5 -234t211.5 -84zM1401 1417l-975 -1401q-13 -16 -27 -16h-20q-23 0 -10 16 l974 1401q14 17 25 17h25q7 0 10 -5t-2 -12zM1346 -4q-152 0 -243 95t-91 271t91 271.5t243 95.5t243.5 -95.5t91.5 -271.5t-91.5 -271t-243.5 -95zM1346 45q138 0 212 84t74 233q0 150 -74 234t-212 84t-211.5 -84t-73.5 -234t73.5 -233.5t211.5 -83.5z" />
<glyph unicode="&#x26;" horiz-adv-x="1513" d="M965 375l-338 336q-58 -12 -112.5 -28.5t-120.5 -45.5t-114 -64.5t-81 -87.5t-33 -112q0 -162 102 -256t258 -94q50 0 98 18t83 42t76 66.5t65 73t61.5 80.5t55.5 72zM637 774q60 17 125 51.5t124 82t96.5 110.5t37.5 127q0 110 -97 188t-243 78q-142 0 -222.5 -76 t-80.5 -190q0 -47 27 -102.5t71.5 -107.5t82.5 -89.5t79 -71.5zM1397 664q-250 -175 -353 -285l371 -359q17 -20 -4 -20h-35q-18 0 -41 20l-331 314q-18 -22 -60 -76t-66.5 -84t-69 -74t-82.5 -67.5t-92 -41.5t-112 -18q-189 0 -297 110t-108 290q0 70 31.5 129t76.5 97.5 t112.5 71.5t120.5 50.5t120 34.5l-3 2q-6 5 -40 37.5t-48 47.5t-44.5 48t-45.5 58t-34 58.5t-27 68t-8 69.5q0 55 21.5 109t63 101t111 76t156.5 29t162.5 -29.5t123.5 -75.5t75.5 -101t27.5 -109q0 -65 -29 -126.5t-71.5 -105.5t-98 -83t-101.5 -62t-89 -39l321 -309 q95 97 369 289q5 5 11.5 5.5t9.5 -5.5l16 -21q4 -4 5 -7t-0.5 -5.5t-2 -3.5t-5.5 -4t-7 -4z" />
<glyph unicode="'" horiz-adv-x="350" d="M152 924v493q0 17 16 17h16q17 0 17 -17l-2 -493q0 -17 -17 -17h-14q-16 0 -16 17z" />
<glyph unicode="(" horiz-adv-x="761" d="M80 590q0 292 140 513.5t378 346.5q18 9 25 -6l10 -17q8 -16 -6 -22q-216 -100 -357 -322t-141 -493t141 -493t357 -322q14 -6 6 -23l-10 -16q-7 -15 -25 -6q-237 120 -377.5 343.5t-140.5 516.5z" />
<glyph unicode=")" horiz-adv-x="761" d="M766 590q0 -293 -140.5 -516.5t-377.5 -343.5q-18 -9 -25 6l-10 16q-8 17 6 23q216 100 357 322t141 493t-141 493t-357 322q-14 6 -6 22l10 17q7 15 25 6q238 -125 378 -346.5t140 -513.5z" />
<glyph unicode="*" horiz-adv-x="894" d="M102 903l293 154l-284 139q-18 9 -11 23l9 16q7 14 24 6l293 -141v321q0 17 16 17h17q14 0 14 -17v-319l289 149q15 8 22 -6l9 -16q8 -16 -7 -23l-276 -147l289 -141q16 -8 8 -23l-8 -16q-8 -15 -23 -9l-303 148v-344q0 -17 -16 -17h-13q-18 0 -18 17v340l-301 -156 q-18 -7 -23 6l-6 15q-4 8 -3.5 12.5t9.5 11.5z" />
<glyph unicode="+" horiz-adv-x="976" d="M514 995v-342h344q16 0 16 -16v-16q0 -17 -16 -17h-344v-348q0 -16 -18 -16h-13q-18 0 -18 16v348h-346q-17 0 -17 19v12q0 18 17 18h346v342q0 17 16 17h17q16 0 16 -17z" />
<glyph unicode="," horiz-adv-x="512" d="M279 -4h-23q-29 0 -49.5 20.5t-20.5 51.5q0 28 20 48.5t50 20.5q31 0 51.5 -22t20.5 -62q0 -139 -40 -220.5t-138 -143.5q-12 -8 -17 0l-10 16q-6 9 4 16q152 99 152 275z" />
<glyph unicode="-" horiz-adv-x="876" d="M721 559h-565q-17 0 -17 19v12q0 18 17 18h565q16 0 16 -16v-17q0 -16 -16 -16z" />
<glyph unicode="." horiz-adv-x="512" d="M186 49q0 29 20.5 49.5t49.5 20.5q31 0 51.5 -20.5t20.5 -49.5q0 -31 -20.5 -51.5t-51.5 -20.5q-29 0 -49.5 20.5t-20.5 51.5z" />
<glyph unicode="/" horiz-adv-x="653" d="M600 1417l-479 -1401q-7 -16 -23 -16h-24q-16 0 -11 16l480 1401q7 17 22 17h25q16 0 10 -17z" />
<glyph unicode="0" horiz-adv-x="1314" d="M156 717q0 -105 16.5 -202t54 -188t94 -157.5t143 -106.5t193.5 -40t193.5 40t143 106.5t94.5 157.5t54.5 188t16.5 202t-16.5 202t-54.5 188t-94.5 157.5t-143 106.5t-193.5 40t-193.5 -40t-143 -106.5t-94 -157.5t-54 -188t-16.5 -202zM106 717q0 157 33 289t98.5 235 t173 161t246.5 58t246.5 -58t173 -161t98.5 -235t33 -289t-33 -289t-98.5 -235t-173 -161.5t-246.5 -58.5t-246.5 58.5t-173 161.5t-98.5 235t-33 289z" />
<glyph unicode="1" horiz-adv-x="724" d="M70 1245l319 180q18 9 29 9h16q17 0 17 -17v-1401q0 -16 -17 -16h-16q-17 0 -17 16v1358l-327 -182q-15 -8 -15 6v31q0 9 11 16z" />
<glyph unicode="2" horiz-adv-x="1150" d="M911 850l-725 -801h854q17 0 17 -16v-17q0 -16 -17 -16h-907q-16 0 -16 16v15q0 21 16 37l762 835q43 47 66 103t24.5 112.5t-23 109t-70 93.5t-124 65.5t-178.5 24.5q-128 0 -234.5 -44.5t-197.5 -147.5q-16 -13 -27 -2l-14 16q-9 9 2 20q103 103 215.5 155t255.5 52 q103 0 188 -26.5t140.5 -71t86 -105t31 -127.5t-30.5 -140t-94 -140z" />
<glyph unicode="3" horiz-adv-x="1193" d="M621 709h-228q-16 0 -16 18v14q0 17 16 17h250q80 0 143 21t99.5 52t60.5 70t32.5 71.5t8.5 61.5q0 174 -121 275.5t-303 101.5q-122 0 -227.5 -56.5t-177.5 -135.5q-13 -13 -27 -2l-14 16q-9 9 2 20q102 102 203.5 154.5t240.5 52.5q91 0 173 -25t150.5 -74.5t109 -134 t40.5 -192.5q0 -59 -24 -113.5t-62 -93t-82 -63.5t-86 -31v-2q44 -6 93.5 -29t97.5 -63t79 -104.5t31 -141.5q0 -213 -138 -316.5t-382 -103.5q-266 0 -473 207q-12 12 -2 21l14 16q14 11 27 -2q72 -79 185.5 -135.5t248.5 -56.5q237 0 354 91.5t117 278.5 q0 137 -118.5 226.5t-294.5 89.5z" />
<glyph unicode="4" horiz-adv-x="1327" d="M883 1434h30q19 0 19 -17v-1028h282q17 0 17 -16v-17q0 -16 -17 -16h-282v-324q0 -16 -19 -16h-14q-18 0 -18 16v324h-762q-17 0 -17 16v21q0 15 17 39l731 1001q14 17 33 17zM881 1374l-721 -985h721v985z" />
<glyph unicode="5" horiz-adv-x="1185" d="M283 1434h682q16 0 16 -17v-16q0 -17 -16 -17h-652l-82 -567h336q87 0 161 -13t137 -42.5t107.5 -74.5t69.5 -111t25 -150q0 -119 -37 -207t-106.5 -141.5t-161 -79t-207.5 -25.5q-143 0 -258 53.5t-219 157.5q-8 8 0 15l16 18q13 8 21 0q38 -38 74 -66t90.5 -60.5 t125 -50t150.5 -17.5q82 0 147.5 10.5t126.5 38t101 72t64 116t24 166.5q0 340 -445 340h-380q-20 0 -17 18l90 633q3 17 17 17z" />
<glyph unicode="6" horiz-adv-x="1228" d="M649 936q93 0 177 -29t150.5 -83.5t106 -141.5t39.5 -195q0 -143 -52.5 -258t-162 -185.5t-260.5 -70.5q-96 0 -175 20.5t-133 54t-95 83.5t-64.5 102t-38 116.5t-19.5 120t-5 118.5q0 101 5.5 187t21 177.5t40 164t65.5 138.5t95 110t130.5 69.5t170.5 25.5 q137 0 233.5 -33.5t198.5 -117.5q15 -10 0 -25l-12 -14q-15 -16 -31 0q-98 90 -179.5 115.5t-209.5 25.5q-479 0 -479 -811q59 152 189.5 244t293.5 92zM647 23q106 0 189.5 38.5t134 104t76.5 147.5t26 174q0 123 -59.5 215.5t-155.5 138.5t-211 46q-111 0 -220 -60 t-179 -161t-70 -209q0 -23 3.5 -51.5t16 -72t32 -84t56 -82.5t84 -73t119 -51t158.5 -20z" />
<glyph unicode="7" horiz-adv-x="1140" d="M1081 1417v-8q0 -16 -16 -43l-858 -1356q-7 -10 -19 -10h-36q-15 0 -7 14l867 1370h-930q-16 0 -16 17v16q0 17 16 17h983q16 0 16 -17z" />
<glyph unicode="8" horiz-adv-x="1224" d="M612 -27q-129 0 -226.5 31t-155 86t-85.5 125t-28 154q0 76 31 140t72.5 102t95 67.5t86 40.5t57.5 16q-25 5 -54 15t-77 37t-84.5 62.5t-64 97.5t-27.5 136q0 163 131.5 270t330.5 107q200 0 329.5 -107t129.5 -270q0 -54 -14.5 -101.5t-36 -80.5t-53 -62t-58 -45.5 t-59.5 -31t-48.5 -19.5t-33.5 -10q23 -4 55.5 -15t85 -40t94 -67t72.5 -102t31 -140q0 -84 -27.5 -154t-84.5 -125t-155 -86t-229 -31zM614 711q-80 -1 -158.5 -24t-143.5 -64.5t-105.5 -107.5t-40.5 -146q0 -69 25 -129t76 -109.5t139.5 -78.5t205.5 -29q99 0 177 19.5 t128 51.5t82.5 77.5t46 94t13.5 103.5q0 79 -40.5 145.5t-105.5 108t-142.5 64.5t-156.5 24zM614 1411q-180 0 -296.5 -94.5t-116.5 -233.5q0 -101 61.5 -176.5t153.5 -111.5t198 -37q78 1 150.5 22.5t131 61t93.5 102.5t35 139q0 140 -115.5 234t-294.5 94z" />
<glyph unicode="9" horiz-adv-x="1228" d="M582 498q-93 0 -177.5 29t-151.5 83t-107 141t-40 195q0 107 31 199.5t89 163t150 111t206 40.5q96 0 175 -20.5t133 -54t95 -83t64.5 -101.5t38 -116.5t19.5 -120t5 -118.5q0 -101 -5.5 -187.5t-21 -177.5t-40 -163.5t-65.5 -138.5t-95 -110t-130.5 -70t-170.5 -26 q-134 0 -243 41t-214 127q-14 11 0 25l14 14q15 16 31 0q102 -88 197.5 -122.5t214.5 -34.5q479 0 479 811q-59 -152 -188.5 -244t-292.5 -92zM582 1411q-106 0 -189.5 -38.5t-134 -104.5t-76.5 -148t-26 -174q0 -183 124 -291t302 -108q111 0 220 60t179 161t70 209 q0 23 -3.5 51.5t-16 72t-32 84t-56 82.5t-84 73t-119 51t-158.5 20z" />
<glyph unicode=":" horiz-adv-x="512" d="M186 49q0 28 20 49t50 21q29 0 50.5 -21t21.5 -49q0 -32 -21 -52t-51 -20q-31 0 -50.5 20t-19.5 52zM186 745q0 31 19.5 51.5t48.5 20.5q32 0 53 -20.5t21 -51.5t-21 -50t-53 -19q-30 0 -49 19t-19 50z" />
<glyph unicode=";" horiz-adv-x="512" d="M186 748q0 29 20.5 49t49.5 20q31 0 51.5 -20t20.5 -49q0 -31 -20.5 -51.5t-51.5 -20.5q-29 0 -49.5 20.5t-20.5 51.5zM279 -23h-23q-29 0 -49.5 20.5t-20.5 51.5q0 28 20 49t50 21q31 0 51.5 -22t20.5 -62q0 -140 -40 -222t-138 -143q-12 -8 -17 0l-10 17q-6 9 4 16 q152 99 152 274z" />
<glyph unicode="&#x3c;" horiz-adv-x="1079" d="M41 719v4q0 11 8 16l912 541q16 8 16 -8v-21q0 -14 -16 -22l-850 -508l850 -508q16 -8 16 -23v-20q0 -16 -16 -8l-912 540q-8 4 -8 17z" />
<glyph unicode="=" horiz-adv-x="966" d="M811 803h-655q-17 0 -17 18v13q0 18 17 18h655q16 0 16 -16v-17q0 -16 -16 -16zM811 399h-655q-17 0 -17 17v12q0 18 17 18h655q16 0 16 -16v-16q0 -15 -16 -15z" />
<glyph unicode="&#x3e;" horiz-adv-x="1079" d="M1040 723v-4q0 -12 -10 -17l-911 -540q-17 -8 -17 8v20q0 14 17 23l852 508l-852 508q-17 9 -17 22v21q0 16 17 8l911 -541q10 -7 10 -16z" />
<glyph unicode="?" horiz-adv-x="1028" d="M461 637q101 20 185.5 51.5t157 77.5t113.5 111.5t41 144.5q0 72 -34 140.5t-95 123t-155.5 88t-206.5 33.5q-101 0 -195.5 -39t-210.5 -115q-16 -13 -26 4l-10 19q-10 13 8 24q91 61 207.5 108.5t226.5 47.5q109 0 200.5 -26.5t153 -69.5t105 -100t63 -117t19.5 -121 q0 -314 -514 -426v-207q0 -16 -17 -16h-16q-17 0 -17 16v227q0 18 17 21zM397 45q0 29 20.5 49.5t49.5 20.5t50.5 -20.5t21.5 -49.5q0 -30 -21 -51t-51 -21q-29 0 -49.5 20.5t-20.5 51.5z" />
<glyph unicode="@" horiz-adv-x="2084" d="M1923 524q0 199 -73 368t-195.5 282t-283 176t-335.5 63q-115 0 -227.5 -34t-208.5 -93.5t-178 -143.5t-139.5 -181.5t-90 -210.5t-32.5 -228q0 -173 71.5 -337t190 -286t280.5 -196t334 -74q170 0 289 56q20 9 25 -4l6 -17q6 -13 -8 -20q-130 -62 -312 -62 q-188 0 -359 75t-294.5 201t-196.5 300t-73 364q0 189 73 362.5t196.5 299.5t294.5 201t359 75q154 0 294 -40t257 -119.5t203 -190.5t134 -261.5t48 -324.5q0 -72 -5.5 -139t-24 -145.5t-47.5 -135t-82 -94t-123 -35.5q-117 0 -184.5 66t-67.5 180v62q-12 -29 -25.5 -57 t-50.5 -77t-80.5 -83.5t-115.5 -61.5t-156 -27q-145 0 -254.5 74t-165 196.5t-55.5 274.5q0 151 55.5 273t165 196t254.5 74q84 0 156 -26.5t116.5 -62t80.5 -83t50.5 -77t24.5 -56.5v266q0 16 14 16h21q14 0 14 -16v-799q0 -103 55.5 -152.5t147.5 -49.5q49 0 87 20t63 58 t42 83.5t25.5 105t12 114t3.5 118.5zM1012 27q97 0 179.5 43.5t135.5 114.5t82 158t29 177t-29 178t-82 159t-135.5 115t-179.5 44q-99 0 -181 -42t-135.5 -111.5t-82.5 -157.5t-29 -183q0 -138 49.5 -249t148 -178.5t230.5 -67.5z" />
<glyph unicode="A" d="M707 1374h-2l-383 -872h768zM721 1464l639 -1448q6 -16 -10 -16h-25q-17 0 -25 16l-190 439h-807l-192 -439q-8 -16 -23 -16h-27q-14 0 -8 16l637 1448q6 11 12 11h7q7 0 12 -11z" />
<glyph unicode="B" horiz-adv-x="1366" d="M772 0h-530q-17 0 -17 16v1401q0 17 17 17h479q73 0 140.5 -12t132 -41t111.5 -73t76 -113.5t29 -156.5q0 -58 -20.5 -107.5t-50.5 -81t-68 -56t-70.5 -36t-60.5 -16.5v-2q22 -2 56.5 -13.5t82.5 -38.5t88 -64t68.5 -97.5t28.5 -132.5q0 -102 -38.5 -179.5t-107 -123 t-155.5 -68t-191 -22.5zM274 49h486q229 0 338.5 91.5t109.5 258.5q0 86 -57.5 159t-153.5 115t-206 42h-517v-666zM274 764h517q153 0 259.5 73.5t106.5 196.5q0 173 -122.5 261.5t-323.5 88.5h-437v-620z" />
<glyph unicode="C" horiz-adv-x="1486" d="M844 23q158 0 286.5 60t215.5 148q11 11 22 0l18 -18q10 -13 -6 -29q-98 -98 -242 -154.5t-294 -56.5q-148 0 -283.5 59.5t-233.5 159t-156 237.5t-58 288t58 287.5t156 237.5t233.5 159t283.5 59q150 0 294 -56.5t242 -154.5q12 -12 2 -22l-18 -21q-12 -12 -27 2 q-78 84 -206.5 143.5t-286.5 59.5q-178 0 -336.5 -98t-252 -258.5t-93.5 -337.5q0 -134 55.5 -262t148 -222.5t218.5 -152t260 -57.5z" />
<glyph unicode="D" horiz-adv-x="1550" d="M252 1434h489q149 0 278.5 -55t221.5 -150t144.5 -228t52.5 -284t-52.5 -284t-144.5 -228t-221.5 -150t-278.5 -55h-489q-16 0 -16 16v1401q0 17 16 17zM739 1384h-454v-1335h454q184 0 334 91.5t233 244t83 332.5t-83 332.5t-233 243.5t-334 91z" />
<glyph unicode="E" horiz-adv-x="1290" d="M1141 0h-899q-17 0 -17 16v1401q0 17 17 17h899q16 0 16 -17v-16q0 -17 -16 -17h-867v-632h826q16 0 16 -19v-14q0 -19 -16 -19h-826v-651h867q16 0 16 -16v-17q0 -16 -16 -16z" />
<glyph unicode="F" horiz-adv-x="1277" d="M285 700v-684q0 -16 -15 -16h-18q-16 0 -16 16v1401q0 17 16 17h897q16 0 16 -17v-16q0 -17 -16 -17h-864v-632h848q16 0 16 -19v-14q0 -19 -16 -19h-848z" />
<glyph unicode="G" horiz-adv-x="1564" d="M838 1411q-178 0 -335 -97.5t-249 -258t-92 -338.5t92 -338.5t249 -258t335 -97.5q309 0 534 210v433h-520q-16 0 -16 16v16q0 17 16 17h553q16 0 16 -17v-436q0 -42 -32 -74q-101 -99 -250 -157t-301 -58q-198 0 -365 100.5t-263.5 271.5t-96.5 372t96.5 372t263.5 271 t365 100q147 0 287 -55t247 -152q12 -12 0 -24l-20 -21q-11 -11 -27 2q-80 79 -216 140t-271 61z" />
<glyph unicode="H" horiz-adv-x="1552" d="M1253 750v667q0 17 17 17h16q17 0 17 -17v-1401q0 -16 -17 -16h-16q-17 0 -17 16v682h-954v-682q0 -16 -16 -16h-17q-16 0 -16 16v1401q0 17 16 17h17q16 0 16 -17v-667h954z" />
<glyph unicode="I" horiz-adv-x="546" d="M250 16v1401q0 17 16 17h17q16 0 16 -17v-1401q0 -16 -16 -16h-17q-16 0 -16 16z" />
<glyph unicode="J" horiz-adv-x="892" d="M668 1384h-381q-17 0 -17 17v16q0 17 17 17h415q19 0 19 -17v-860q0 -308 -144 -446t-460 -138q-22 0 -25 17l-2 16q-2 12 4 17.5t21 5.5q294 0 423.5 129.5t129.5 398.5v827z" />
<glyph unicode="K" horiz-adv-x="1292" d="M319 750l895 -734q7 -6 5.5 -11t-7.5 -5h-51q-13 0 -35 16l-825 678v-678q0 -16 -16 -16h-19q-16 0 -16 16v1401q0 17 16 17h19q16 0 16 -17v-614l774 614q25 17 43 17h35q8 0 9.5 -5.5t-5.5 -11.5z" />
<glyph unicode="L" horiz-adv-x="1167" d="M285 49h794q17 0 17 -16v-17q0 -16 -17 -16h-827q-16 0 -16 16v1401q0 17 16 17h16q17 0 17 -17v-1368z" />
<glyph unicode="M" horiz-adv-x="2072" d="M1704 1389l-637 -1399q-7 -17 -27 -17h-8q-16 0 -26 17l-637 1399l-154 -1373q-3 -16 -16 -16h-21q-15 0 -12 16l168 1426q2 11 5 14.5t13 3.5h10q16 0 25 -18l649 -1411l650 1411q9 18 24 18h10q10 0 13.5 -3.5t5.5 -14.5l168 -1426q3 -16 -13 -16h-20q-13 0 -16 16z " />
<glyph unicode="N" horiz-adv-x="1591" d="M295 1360v-1344q0 -16 -16 -16h-17q-16 0 -16 16v1428q0 10 3.5 13t14.5 3h4q12 0 19 -10l1009 -1370v1337q0 10 4 13.5t13 3.5h16q9 0 13 -3.5t4 -13.5v-1427q0 -10 -4 -13.5t-13 -3.5h-2q-12 0 -24 15z" />
<glyph unicode="O" horiz-adv-x="1687" d="M113 717q0 150 58 287.5t156 237.5t233.5 159t283.5 59t283.5 -59t233.5 -159t156 -237.5t58 -287.5t-58 -288t-156 -237.5t-233.5 -159t-283.5 -59.5t-283.5 59.5t-233.5 159t-156 237.5t-58 288zM162 717q0 -178 93.5 -338.5t252 -258t336.5 -97.5q133 0 259 58 t218.5 153t148.5 222.5t56 260.5t-56 260.5t-148.5 222.5t-218.5 153t-259 58q-178 0 -336.5 -97.5t-252 -258t-93.5 -338.5z" />
<glyph unicode="P" horiz-adv-x="1269" d="M285 602h422q108 0 190.5 24.5t131 63.5t79 94t41 108t10.5 114q0 55 -10.5 104t-41 101t-79 89t-131 60.5t-190.5 23.5h-422v-782zM717 553h-432v-537q0 -9 -3.5 -12.5t-13.5 -3.5h-16q-10 0 -13 3.5t-3 12.5v1401q0 11 3.5 14t12.5 3h465q81 0 150.5 -12.5t133.5 -43 t109 -78t71.5 -122.5t26.5 -172q0 -120 -40 -210t-109.5 -141.5t-155 -76.5t-186.5 -25z" />
<glyph unicode="Q" horiz-adv-x="1687" d="M113 717q0 150 58 287.5t156 237.5t233.5 159t283.5 59t283.5 -59t233.5 -159t156 -237.5t58 -287.5q0 -114 -29 -212t-83 -175t-111 -133t-133 -111l182 -262q11 -14 -2 -23l-17 -10q-13 -8 -24 6l-180 266q-66 -33 -100.5 -47.5t-97 -28.5t-136.5 -14 q-148 0 -283.5 59.5t-233.5 159t-156 237.5t-58 288zM162 717q0 -178 93.5 -338.5t252 -258t336.5 -97.5q133 0 259 58t218.5 153t148.5 222.5t56 260.5t-56 260.5t-148.5 222t-218.5 152.5t-259 59q-178 1 -336.5 -96.5t-252 -258.5t-93.5 -339z" />
<glyph unicode="R" horiz-adv-x="1380" d="M1208 1004q0 -359 -338 -441l414 -547q10 -16 -12 -16h-25q-16 0 -28 16l-404 537h-530v-537q0 -16 -17 -16h-16q-6 0 -9 0.5t-5 4t-2 11.5v1401q0 17 16 17h475q74 0 140 -12.5t129.5 -43.5t109.5 -78.5t74 -123.5t28 -172zM285 602h432q222 0 332 108t110 294 q0 130 -59 217t-156 125t-227 38h-432v-782z" />
<glyph unicode="S" horiz-adv-x="1304" d="M668 1407q-79 0 -146 -13.5t-114 -35.5t-85 -52.5t-61 -62.5t-38 -67t-21 -64.5t-6 -56.5q0 -51 19 -93t56 -72t80.5 -52.5t105 -39t114.5 -26.5t124 -20q89 -12 159 -29t133 -45.5t104.5 -67t65.5 -94.5t24 -127q0 -81 -30.5 -153.5t-91 -131t-160.5 -93t-228 -34.5 q-313 0 -547 160q-16 10 -6 25l10 18q6 9 11.5 9.5t17.5 -7.5q99 -71 231.5 -113t261.5 -42q67 0 129.5 9t128.5 34.5t114 64.5t79 104.5t31 149.5q0 142 -119.5 213t-372.5 109q-57 8 -98.5 16t-96.5 22t-94 30.5t-80 43t-66.5 58t-42 76.5t-16.5 98q0 44 13 92.5t49 105 t90 100.5t144.5 73.5t203.5 29.5q147 0 261.5 -39t246.5 -119q13 -8 6 -22l-8 -16q-11 -18 -29 -7q-104 70 -222.5 112t-233.5 42z" />
<glyph unicode="T" horiz-adv-x="1218" d="M37 1434h1145q11 0 13.5 -4t2.5 -13v-16q0 -17 -16 -17h-547v-1368q0 -16 -17 -16h-16q-18 0 -18 16v1368h-547q-17 0 -17 17v16q0 17 17 17z" />
<glyph unicode="U" horiz-adv-x="1454" d="M727 -27q-256 0 -404.5 158.5t-148.5 458.5v827q0 17 16 17h17q16 0 16 -17v-817q0 -151 39 -264.5t109 -180.5t159 -99.5t197 -32.5t197 32.5t159 99.5t109 180.5t39 264.5v817q0 17 16 17h17q10 0 13 -3.5t3 -13.5v-827q0 -300 -148.5 -458.5t-404.5 -158.5z" />
<glyph unicode="V" d="M690 -31l-637 1448q-7 17 8 17h27q16 0 23 -17l594 -1356h2l593 1356q7 17 25 17h25q16 0 10 -17l-639 -1448q-7 -10 -12 -10h-7q-4 0 -12 10z" />
<glyph unicode="W" horiz-adv-x="1964" d="M111 1417l475 -1343l377 1370q5 16 22 16h4q18 0 23 -16l377 -1370l475 1343q6 17 22 17h27q14 0 8 -17l-520 -1448q-3 -10 -12 -10h-7q-9 0 -12 10l-383 1403l-383 -1403q-5 -10 -12 -10h-6q-8 0 -13 10l-520 1448q-7 17 8 17h27q17 0 23 -17z" />
<glyph unicode="X" horiz-adv-x="1353" d="M680 676l-561 -660q-16 -16 -29 -16h-27q-7 0 -9 4t3 12l584 701l-584 700q-6 7 -4 12t10 5h27q15 0 29 -17l561 -655l561 655q15 17 29 17h26q7 0 10 -4t-3 -13l-584 -700l584 -701q6 -8 3.5 -12t-10.5 -4h-26q-13 0 -29 16z" />
<glyph unicode="Y" horiz-adv-x="1212" d="M588 590l-553 827q-10 17 6 17h25q16 0 26 -17l520 -764l516 764q12 17 29 17h25q14 0 6 -17l-551 -827v-574q0 -16 -16 -16h-17q-16 0 -16 16v574z" />
<glyph unicode="Z" horiz-adv-x="1290" d="M1167 0h-1058q-17 0 -17 16v2q0 14 8 25l1028 1341h-952q-16 0 -16 17v16q0 17 16 17h1016q16 0 16 -17v-4q0 -12 -8 -24l-1026 -1340h993q17 0 17 -16v-17q0 -16 -17 -16z" />
<glyph unicode="[" horiz-adv-x="780" d="M627 -346v-16q0 -17 -17 -17h-364q-17 0 -17 17v1804q0 16 17 16h364q17 0 17 -16v-17q0 -16 -17 -16h-329v-1739h329q17 0 17 -16z" />
<glyph unicode="\" horiz-adv-x="876" d="M659 16l-483 1401q-6 17 12 17h21q12 0 18 -17l484 -1401q3 -9 -2.5 -12.5t-16.5 -3.5h-14q-10 0 -13 3t-6 13z" />
<glyph unicode="]" horiz-adv-x="768" d="M145 -362v16q0 16 17 16h330v1739h-330q-17 0 -17 16v17q0 16 17 16h364q17 0 17 -16v-1804q0 -17 -17 -17h-364q-17 0 -17 17z" />
<glyph unicode="^" horiz-adv-x="688" d="M346 1542h6q10 0 21 -16l237 -336q13 -16 -8 -16h-22q-20 0 -31 16l-201 293l-198 -293q-11 -16 -31 -16h-25q-19 0 -6 16l236 336q11 16 22 16z" />
<glyph unicode="_" horiz-adv-x="1003" d="M913 -74h-815q-16 0 -16 17v14q0 18 16 18h815q17 0 17 -16v-18q0 -15 -17 -15z" />
<glyph unicode="`" horiz-adv-x="430" d="M301 1200l-225 223q-6 9 0 19l14 20q8 13 21 0l254 -260q5 -6 2 -10t-11 -4h-24q-19 0 -31 12z" />
<glyph unicode="a" horiz-adv-x="1142" d="M236 977q-13 -3 -18.5 0.5t-8.5 15.5l-2 11q-6 18 18 24q22 5 63 12.5t124 16t159 8.5q216 0 312 -110t96 -373v-566q0 -16 -14 -16h-21q-12 0 -12 16l-2 197q-20 -36 -59.5 -74.5t-95.5 -76t-134 -61.5t-160 -24q-162 0 -265 91.5t-103 244.5q0 334 446 334 q94 0 180.5 -23t190.5 -69q0 252 -83.5 356.5t-275.5 104.5q-153 0 -335 -39zM559 598q-397 0 -397 -285q0 -135 90.5 -210.5t241.5 -75.5q136 0 258 75.5t178 171.5v226q-113 52 -191 75t-180 23z" />
<glyph unicode="b" horiz-adv-x="1288" d="M274 1495v-735q10 28 24.5 57t50 76.5t79.5 83t116 62t156 26.5q145 0 255 -74t165.5 -196t55.5 -273q0 -152 -55.5 -274.5t-165.5 -196.5t-255 -74q-61 0 -116 14t-94.5 35.5t-74.5 51.5t-57.5 57.5t-41 59.5t-27 51t-15.5 37l-2 -267q0 -16 -14 -16h-18q-15 0 -15 16 v1479q0 16 15 16h20q14 0 14 -16zM700 27q131 0 229 67.5t147.5 179t49.5 248.5q0 95 -29 183t-82 157.5t-135 111.5t-180 42q-97 0 -179.5 -44t-135.5 -115t-82 -159t-29 -178t29 -177t82 -158t135.5 -114.5t179.5 -43.5z" />
<glyph unicode="c" horiz-adv-x="1128" d="M647 27q108 0 197 41.5t149 105.5q11 12 23 0l14 -14q10 -13 -6 -29q-154 -154 -379 -154q-147 0 -269.5 73t-192.5 197.5t-70 272.5t70 273t192.5 198.5t269.5 73.5q225 0 379 -154q17 -17 6 -28l-14 -15q-12 -12 -23 0q-61 64 -150 106t-196 42q-132 0 -244 -67.5 t-176.5 -181.5t-64.5 -247q0 -204 141.5 -348.5t343.5 -144.5z" />
<glyph unicode="d" horiz-adv-x="1288" d="M1014 760v735q0 16 14 16h21q16 0 16 -16v-1479q0 -16 -16 -16h-19q-14 0 -14 16l-2 267q-7 -18 -15.5 -37t-27 -51t-41 -59.5t-57.5 -57.5t-74.5 -51.5t-94.5 -35.5t-116 -14q-145 0 -254.5 74t-165 196.5t-55.5 274.5q0 151 55.5 273t165 196t254.5 74q84 0 156 -26.5 t116 -62t79.5 -83t50 -76.5t24.5 -57zM588 27q97 0 179.5 43.5t135.5 114.5t82 158t29 177t-29 178t-82 159t-135.5 115t-179.5 44q-98 0 -180 -42t-135 -111.5t-82 -157.5t-29 -183q0 -137 49.5 -248.5t147.5 -179t229 -67.5z" />
<glyph unicode="e" horiz-adv-x="1249" d="M1059 162l14 -15q10 -12 -6 -28q-70 -67 -183 -104.5t-229 -37.5q-151 0 -276 73t-195.5 197.5t-70.5 272.5t70 273t192.5 198.5t269.5 73.5q146 0 261.5 -74t178 -200t62.5 -279q0 -16 -17 -16h-968q0 -91 40 -177.5t107.5 -150.5t160 -102.5t192.5 -38.5 q102 0 205.5 36.5t168.5 98.5q12 12 23 0zM162 543h934q0 123 -58.5 231.5t-163 175t-229.5 66.5q-126 0 -238 -66t-178.5 -175.5t-66.5 -231.5z" />
<glyph unicode="f" horiz-adv-x="835" d="M285 1038v64q0 113 15.5 193.5t53 142t105 91.5t166.5 30q92 0 159 -31q13 -6 7 -21l-7 -14q-7 -11 -20 -6q-62 22 -137 22q-159 0 -226 -93.5t-67 -323.5v-54h440q17 0 17 -16v-16q0 -17 -17 -17h-440v-973q0 -16 -17 -16h-16q-16 0 -16 16v973h-187q-16 0 -16 17v16 q0 16 16 16h187z" />
<glyph unicode="g" horiz-adv-x="1288" d="M1014 57v226q-7 -18 -15.5 -37t-27 -51t-41 -59.5t-57.5 -57.5t-74.5 -51.5t-94.5 -35.5t-116 -14q-146 0 -255.5 74t-164.5 196t-55 273q0 152 55.5 274.5t165 196.5t254.5 74q84 0 156 -26.5t116 -62t79.5 -83t50 -76.5t24.5 -57l2 266q0 16 14 16h19q16 0 16 -16v-969 q0 -281 -110 -422t-343 -141q-52 0 -101.5 4.5t-83.5 9.5t-73 14.5t-56 15t-47 15.5t-32 11q-15 5 -10 18l6 21q5 13 21 8q4 -1 39 -14t58.5 -19.5t67 -16t96.5 -14t115 -4.5q101 0 176 31t117.5 78.5t67.5 118.5t33 137t8 149zM588 1016q-131 0 -229 -67.5t-147.5 -179 t-49.5 -249.5q0 -93 29 -181t82 -157.5t135 -112t180 -42.5q97 0 179 43.5t135 114.5t82.5 159t29.5 178t-29 177t-82 158t-135.5 115t-179.5 44z" />
<glyph unicode="h" horiz-adv-x="1236" d="M274 1495v-725q8 34 35.5 80t73.5 96t119.5 84.5t156.5 34.5q79 0 152 -29t132 -83t94.5 -141t35.5 -194v-602q0 -16 -14 -16h-21q-14 0 -14 16v576q0 102 -31 184t-83.5 133.5t-119.5 79t-141 27.5q-102 0 -189.5 -67t-136.5 -169.5t-49 -210.5v-553q0 -16 -14 -16h-20 q-15 0 -15 16v537v942q0 16 15 16h20q14 0 14 -16z" />
<glyph unicode="i" horiz-adv-x="616" d="M285 16v1010q0 16 18 16h16q17 0 17 -16v-1010q0 -16 -17 -16h-16q-18 0 -18 16zM250 1405q0 23 17 40t42 17q24 0 42 -17t18 -40q0 -26 -18 -44t-42 -18q-25 0 -42 18t-17 44z" />
<glyph unicode="j" horiz-adv-x="774" d="M430 1405q0 23 18 40t44 17q23 0 40 -17t17 -40q0 -26 -17 -44t-40 -18q-26 0 -44 18t-18 44zM106 1010v16q0 16 17 16h383q16 0 16 -16v-1053q0 -113 -16 -193t-53.5 -141.5t-105.5 -91.5t-167 -30q-121 0 -203 53q-11 7 -4 20l7 15q5 9 7.5 10.5t10.5 -2.5 q74 -47 182 -47q159 0 226 94t67 324v925v84h-350q-17 0 -17 17z" />
<glyph unicode="k" horiz-adv-x="1093" d="M336 553l649 -537q7 -6 6 -11t-8 -5h-37q-16 0 -35 16l-626 519v-519q0 -16 -17 -16h-16q-16 0 -16 16v1479q0 16 16 16h16q17 0 17 -16v-928l598 459q22 16 37 16h30q6 0 7.5 -6t-5.5 -10z" />
<glyph unicode="l" horiz-adv-x="546" d="M250 16v1479q0 16 16 16h17q16 0 16 -16v-1479q0 -16 -16 -16h-17q-16 0 -16 16z" />
<glyph unicode="m" horiz-adv-x="1892" d="M985 748q8 32 25 70t49 83t72.5 80.5t99 59.5t123.5 24t130 -29t120.5 -82.5t90 -140.5t34.5 -192v-605q0 -16 -15 -16h-20q-15 0 -15 16v576q0 101 -30.5 184t-80 134t-108 78.5t-117.5 27.5q-135 0 -236 -126.5t-101 -320.5v-553q0 -16 -15 -16h-20q-15 0 -15 16v576 q0 176 -96 300t-239 124q-142 0 -239 -132.5t-97 -314.5v-553q0 -16 -15 -16h-20q-14 0 -14 16v1010q0 16 14 16h18q15 0 15 -16l2 -266q4 36 27.5 84.5t64 99.5t108 86t146.5 35q81 0 149 -35.5t109.5 -88t65.5 -103t30 -90.5z" />
<glyph unicode="n" horiz-adv-x="1247" d="M283 1026l2 -256q8 34 35.5 80t73.5 96t119.5 84.5t156.5 34.5q79 0 152 -29t132 -83t94 -141t35 -194v-602q0 -16 -14 -16h-20q-15 0 -15 16v576q0 102 -31 184t-83.5 133.5t-119.5 79t-141 27.5q-102 0 -189.5 -67t-136 -169.5t-48.5 -210.5v-553q0 -16 -15 -16h-20 q-14 0 -14 16v537v473q0 16 14 16h18q15 0 15 -16z" />
<glyph unicode="o" horiz-adv-x="1294" d="M113 520q0 148 70.5 273t193.5 198.5t270 73.5t270 -73.5t194 -199t71 -272.5t-71 -272t-194 -198t-270 -73t-270 73t-193.5 198t-70.5 272zM647 27q133 0 245 66.5t176.5 180t64.5 246.5t-64.5 247t-177 181.5t-244.5 67.5t-244 -67.5t-176.5 -181.5t-64.5 -247 t64.5 -246.5t176 -180t244.5 -66.5z" />
<glyph unicode="p" horiz-adv-x="1288" d="M274 283v-684q0 -17 -14 -17h-20q-15 0 -15 17v1427q0 16 15 16h18q14 0 14 -16l2 -266q10 28 24.5 57t50 76.5t79.5 83t116 62t156 26.5q145 0 255 -74t165.5 -196.5t55.5 -274.5q0 -151 -55.5 -273t-165.5 -196t-255 -74q-61 0 -116 14t-94.5 35.5t-74.5 51.5 t-57.5 57.5t-41 59.5t-27 51t-15.5 37zM700 1016q-97 0 -179.5 -44t-135.5 -115t-82 -158t-29 -177t29 -177.5t82 -159t135 -115t180 -43.5q130 0 229 72t148 182.5t49 238.5q0 138 -49.5 249.5t-147.5 179t-229 67.5z" />
<glyph unicode="q" horiz-adv-x="1288" d="M1014 -401v684q-7 -18 -15.5 -37t-27 -51t-41 -59.5t-57.5 -57.5t-74.5 -51.5t-94.5 -35.5t-116 -14q-145 0 -254.5 74t-165 196t-55.5 273q0 152 55.5 274.5t165 196.5t254.5 74q84 0 156 -26.5t116 -62t79.5 -83t50 -76.5t24.5 -57l2 266q0 16 14 16h19q16 0 16 -16 v-1427q0 -17 -16 -17h-21q-14 0 -14 17zM588 1016q-131 0 -229 -67.5t-147.5 -179t-49.5 -249.5q0 -128 49 -238.5t148 -182.5t229 -72q98 0 180 43.5t135 115t82 159t29 177.5t-29 177t-82 158t-135.5 115t-179.5 44z" />
<glyph unicode="r" horiz-adv-x="831" d="M745 1016q-89 0 -165 -25.5t-129.5 -69t-91.5 -101t-56 -121.5t-18 -130v-553q0 -16 -15 -16h-20q-14 0 -14 16v1010q0 16 14 16h18q15 0 15 -16l2 -266q7 19 15.5 37.5t28 50.5t43 59t61.5 57.5t82 51.5t105.5 35t131.5 14q10 0 14 -3t2 -11l-2 -19q-3 -16 -21 -16z" />
<glyph unicode="s" horiz-adv-x="1034" d="M530 27q93 0 162.5 21t109.5 57.5t59.5 81.5t19.5 98q0 87 -86.5 139.5t-259.5 77.5q-168 24 -235 49q-147 55 -158 189q-1 12 -1 24q0 138 98 219.5t271 81.5q208 0 383 -113q15 -9 10 -24l-6 -17q-8 -16 -25 -6q-109 64 -184 87.5t-178 23.5q-152 0 -236 -69.5 t-84 -182.5q0 -29 5 -52.5t18 -41.5t26 -31.5t40 -25.5t47 -19t61 -15.5t68 -13t80 -12.5q395 -57 395 -268q0 -135 -104.5 -221.5t-295.5 -86.5q-94 0 -204.5 30.5t-214.5 98.5q-13 10 -5 23l11 21q7 14 24 2q179 -125 389 -125z" />
<glyph unicode="t" horiz-adv-x="886" d="M784 23q-82 -46 -190 -46q-99 0 -166.5 30t-105 92t-53 142.5t-15.5 194.5v557h-135q-17 0 -17 17v16q0 16 17 16h135v228q0 16 16 16h17q16 0 16 -16v-228h440q17 0 17 -18v-14q0 -17 -17 -17h-440v-549q0 -230 67 -323.5t226 -93.5q61 0 92.5 6t75.5 30q12 7 20 -6 l7 -14q5 -14 -7 -20z" />
<glyph unicode="u" horiz-adv-x="1247" d="M963 16v256q-8 -34 -35.5 -80t-73.5 -96t-119.5 -84.5t-156.5 -34.5q-79 0 -152 29t-132 83t-94.5 141t-35.5 194v602q0 16 14 16h21q14 0 14 -16v-575q0 -102 31 -184t83.5 -133.5t119.5 -79t141 -27.5q102 0 189.5 66.5t136.5 169t49 210.5v553q0 16 14 16h20 q15 0 15 -16v-537v-473q0 -16 -15 -16h-18q-13 0 -16 16z" />
<glyph unicode="v" horiz-adv-x="1005" d="M487 -31l-464 1057q-6 16 8 16h26q16 0 23 -16l422 -965h2l420 965q7 16 24 16h25q15 0 10 -16l-465 -1057q-7 -10 -12 -10h-6q-5 0 -13 10z" />
<glyph unicode="w" horiz-adv-x="1478" d="M92 1026l283 -934l344 973q5 10 12 10h14q10 0 15 -10l346 -973l280 934q5 16 23 16h27q14 0 8 -16l-311 -1034q-6 -17 -17 -17h-10q-15 0 -21 17l-346 977l-346 -977q-6 -17 -20 -17h-11q-10 0 -16 17l-311 1034q-6 16 8 16h27q17 0 22 -16z" />
<glyph unicode="x" horiz-adv-x="944" d="M479 494l-385 -478q-13 -16 -24 -16h-27q-19 0 -6 16l399 504l-399 506q-13 16 6 16h27q11 0 24 -16l385 -477l369 477q13 16 24 16h29q19 0 6 -16l-387 -506l387 -504q13 -16 -6 -16h-29q-11 0 -24 16z" />
<glyph unicode="y" horiz-adv-x="1007" d="M504 59l420 967q7 16 24 16h25q18 0 10 -16l-625 -1427q-7 -17 -24 -17h-25q-19 0 -10 17l176 401l-452 1026q-6 16 8 16h26q16 0 23 -16l422 -967h2z" />
<glyph unicode="z" horiz-adv-x="989" d="M901 0h-803q-16 0 -16 16v2q0 14 8 25l723 950h-653q-17 0 -17 17v16q0 16 17 16h717q16 0 16 -16v-4q0 -13 -8 -25l-725 -948h741q17 0 17 -16v-17q0 -16 -17 -16z" />
<glyph unicode="{" horiz-adv-x="925" d="M80 502v16q0 12 20 19q78 22 133.5 95t55.5 152v162q0 95 20 173t52 130t77 91.5t89.5 61.5t94.5 36t87 18t73 4q17 0 17 -16v-17q0 -16 -17 -16q-29 0 -60 -3.5t-76 -15.5t-85.5 -31t-82.5 -55t-72 -83t-49 -118.5t-19 -158.5v-162q0 -109 -59.5 -180.5t-133.5 -93.5 q74 -23 133.5 -93.5t59.5 -180.5v-162q0 -87 19 -158.5t49 -118.5t72 -83t82.5 -55t85.5 -31t76 -15.5t60 -3.5q17 0 17 -17v-16q0 -16 -17 -16q-36 0 -73 4t-87 18t-94.5 36t-89.5 61.5t-77 91.5t-52 130t-20 173v162q0 80 -55.5 152.5t-133.5 94.5q-20 3 -20 19z" />
<glyph unicode="|" horiz-adv-x="497" d="M225 -186v1806q0 16 17 16h14q11 0 14.5 -4t3.5 -12v-1806q0 -17 -18 -17h-14q-17 0 -17 17z" />
<glyph unicode="}" horiz-adv-x="925" d="M846 518v-16q0 -16 -21 -19q-78 -22 -133 -94.5t-55 -152.5v-162q0 -95 -20 -173t-52.5 -130t-77.5 -91.5t-89.5 -61.5t-94.5 -36t-87 -18t-73 -4q-16 0 -16 16v16q0 17 16 17q29 0 60 3.5t76.5 15.5t85.5 31t82 55t72.5 83t49.5 118.5t19 158.5v162q0 110 59 180.5 t133 93.5q-74 22 -133 93.5t-59 180.5v162q0 87 -19 158.5t-49.5 118.5t-72.5 83t-82 55t-85.5 31t-76.5 15.5t-60 3.5q-16 0 -16 16v17q0 16 16 16q36 0 73 -4t87 -18t94.5 -36t89.5 -61.5t77.5 -91.5t52.5 -130t20 -173v-162q0 -79 55.5 -152t132.5 -95q21 -7 21 -19z" />
<glyph unicode="~" horiz-adv-x="1026" d="M502 799q-45 45 -76.5 63.5t-69.5 18.5q-65 0 -98 -24t-65 -95q-10 -23 -29 -14l-14 6q-15 7 -5 30q14 30 27 50t36 44.5t58 37t80 12.5q55 0 97.5 -22t86.5 -66q48 -47 74.5 -61.5t65.5 -14.5q66 0 100.5 24t63.5 93q6 15 11 18t17 -2l15 -6q15 -5 4 -31 q-14 -30 -27 -50t-36 -44t-58 -36.5t-80 -12.5q-56 0 -96 19.5t-82 62.5z" />
<glyph unicode="&#xa1;" horiz-adv-x="696" d="M324 -649v932q0 16 18 16h14q19 0 19 -16v-932q0 -17 -17 -17h-18q-16 0 -16 17zM281 723q0 27 20.5 47.5t46.5 20.5q29 0 49.5 -20t20.5 -48q0 -29 -20.5 -48.5t-49.5 -19.5q-27 0 -47 19.5t-20 48.5z" />
<glyph unicode="&#xa2;" horiz-adv-x="1128" d="M522 -274l35 258q-133 23 -235.5 103t-155.5 193t-53 240q0 146 74.5 274.5t197.5 202t260 68.5l60 -2l28 197q3 19 21 16l18 -2q17 0 14 -19l-30 -200q69 -12 143.5 -53t124.5 -91q17 -17 6 -28l-14 -15q-12 -12 -23 0q-51 53 -116.5 89t-124.5 49l-138 -979 q225 -7 379 147q11 12 23 0l14 -14q10 -13 -6 -29q-162 -162 -416 -156l-33 -254q-3 -19 -20 -16l-18 2q-10 2 -13 5.5t-2 13.5zM162 520q0 -98 37 -187t95.5 -150.5t129 -100.5t139.5 -47l135 979q-113 9 -214 -28.5t-171 -106.5t-110.5 -163t-40.5 -196z" />
<glyph unicode="&#xa3;" horiz-adv-x="1054" d="M147 705h140q-9 17 -60 91.5t-77.5 139t-26.5 137.5q0 56 13 109.5t43 104.5t74.5 89t113 61t153.5 23q204 0 420 -143q11 -7 4 -21l-12 -20q-10 -14 -25 -2q-66 53 -187.5 95t-199.5 42q-87 0 -155.5 -30.5t-109 -80t-61 -107.5t-20.5 -118q0 -33 8.5 -68.5t31.5 -82 t35 -69t48.5 -82t42.5 -68.5h487q17 0 17 -17v-14q0 -17 -17 -17h-479q9 -76 4 -140.5t-24.5 -140t-39 -130.5t-39.5 -112t-26 -85h713q16 0 16 -16v-15q0 -18 -16 -18h-768q-16 0 -16 16q0 24 28.5 101.5t60.5 162t51.5 191.5t4.5 186h-150q-16 0 -16 17v14q0 17 16 17z " />
<glyph unicode="&#xa4;" horiz-adv-x="1046" d="M174 700q0 129 82 236l-137 137q-10 10 0 23l10 12q11 10 23 -2l137 -137q107 82 233 82q127 0 234 -84l139 139q11 12 23 0l10 -10q14 -12 0 -23l-142 -141q86 -102 86 -232q0 -125 -86 -231l142 -141q14 -12 0 -23l-10 -10q-12 -11 -23 0l-139 139q-107 -82 -234 -82 q-126 0 -233 84l-137 -137q-12 -11 -23 0l-10 10q-11 11 0 23l137 137q-82 107 -82 231zM223 700q0 -130 80.5 -214.5t218.5 -84.5q139 0 220 84.5t81 214.5t-81 215.5t-220 85.5q-137 0 -218 -85.5t-81 -215.5z" />
<glyph unicode="&#xa5;" horiz-adv-x="1259" d="M623 653l516 764q12 17 28 17h25q20 0 24 7q1 2 0 2q-8 -1 -18 -26l-455 -684h363q18 0 18 -16v-15q0 -16 -18 -16h-395l-64 -96v-70v-131h459q18 0 18 -16v-15q0 -16 -18 -16h-459v-326q0 -16 -16 -16h-17q-16 0 -16 16v326h-446q-17 0 -17 16v15q0 16 17 16h446v201 l-66 96h-380q-17 0 -17 16v15q0 16 17 16h348l-455 684q-10 17 6 17h25q16 0 26 -17z" />
<glyph unicode="&#xa6;" horiz-adv-x="538" d="M246 -186v790q0 17 16 17h14q17 0 17 -17v-790q0 -17 -17 -17h-14q-16 0 -16 17zM246 895v670q0 16 16 16h14q17 0 17 -16v-670q0 -16 -17 -16h-14q-16 0 -16 16z" />
<glyph unicode="&#xa7;" horiz-adv-x="1302" d="M1180 389q0 -77 -37.5 -164t-95.5 -131q133 -91 133 -256q0 -183 -128.5 -296t-381.5 -113q-310 0 -539 153q-24 16 -14 31l10 18q6 9 11.5 9.5t17.5 -7.5q96 -69 230.5 -112t262.5 -43q66 0 128.5 9t128 34.5t114 64.5t79.5 104.5t31 149.5q0 142 -120 214t-371 108 q-59 8 -101.5 15.5t-97.5 22t-94 31t-79.5 42.5t-65 58t-40.5 76.5t-16 98.5q0 89 44.5 168t107.5 131q-77 42 -114.5 102.5t-37.5 147.5q0 44 13 92.5t49 105t90 100.5t144.5 73.5t203.5 29.5q150 0 263 -37t239 -116q19 -12 12 -27l-8 -16q-11 -19 -29 -7 q-229 154 -458 154q-107 0 -193 -28t-135.5 -69t-83 -91.5t-45.5 -91t-12 -72.5q0 -44 15 -81.5t39.5 -64.5t64 -50t79 -38.5t94.5 -29t100.5 -22t106.5 -17.5q113 -16 195.5 -40t151.5 -65t104 -105.5t35 -152.5zM639 711q-15 2 -285 67q-64 -40 -111.5 -120.5 t-47.5 -151.5q0 -44 15 -81.5t39.5 -64.5t64 -50t79 -38.5t94.5 -29t100.5 -22t106.5 -17.5q83 -12 143.5 -25.5t83.5 -21.5t45.5 -19t26.5 -12q46 21 91.5 95.5t45.5 168.5q0 73 -31.5 127t-97 91.5t-152 61t-210.5 42.5z" />
<glyph unicode="&#xa8;" horiz-adv-x="733" d="M123 1405q0 23 17 40t42 17t42.5 -17t17.5 -40q0 -25 -17.5 -43.5t-42.5 -18.5q-24 0 -41.5 18.5t-17.5 43.5zM492 1405q0 24 17.5 40.5t43.5 16.5q23 0 40 -17t17 -40q0 -25 -17 -43.5t-40 -18.5q-26 0 -43.5 18.5t-17.5 43.5z" />
<glyph unicode="&#xa9;" horiz-adv-x="1712" d="M113 717q0 151 58.5 288.5t158 237t237 158.5t289.5 59q174 0 315.5 -64t228.5 -168.5t134 -238t47 -273t-47 -273t-134 -238t-228.5 -168.5t-315.5 -64q-152 0 -289.5 59t-237 158.5t-158 237t-58.5 289.5zM160 717q0 -190 93 -350.5t254 -253.5t351 -93q163 0 295.5 60 t213.5 158t125 223t44 255.5t-44 255.5t-125 223t-213.5 158t-295.5 60q-142 0 -271.5 -55.5t-223 -148.5t-148.5 -222t-55 -270zM854 389q-136 0 -229 94.5t-93 231.5q0 138 92.5 233.5t229.5 95.5q141 0 231 -94q11 -6 17 0l16 17q7 7 -4 18q-107 107 -260 107 q-156 0 -262.5 -110.5t-106.5 -266.5q0 -155 106.5 -264t262.5 -109t260 104q11 11 4 21l-16 16q-6 6 -17 0q-90 -94 -231 -94z" />
<glyph unicode="&#xaa;" horiz-adv-x="804" d="M199 1384q-16 -3 -19 13l-10 24q-3 14 12 17q10 3 38 7.5t79 9.5t98 5q133 0 193.5 -69t60.5 -232v-348q0 -12 -10 -12h-29q-8 0 -8 12v123q-28 -55 -97 -102.5t-165 -47.5q-101 0 -165 57.5t-64 151.5q0 207 276 207q62 0 108.5 -13t104.5 -44q0 150 -47 209t-158 59 q-32 0 -64 -3t-49 -6t-47 -9.5t-38 -8.5zM389 1153q-112 0 -169.5 -37.5t-57.5 -122.5q0 -78 50 -120t138 -42q81 0 148 50t104 114v99q-60 34 -103.5 46.5t-109.5 12.5z" />
<glyph unicode="&#xab;" horiz-adv-x="1017" d="M109 565l354 385q10 10 18 4l25 -12q10 -6 0 -16l-369 -406l369 -405q10 -10 0 -17l-25 -12q-8 -6 -18 4l-354 385q-27 30 -27 41v8q0 10 27 41zM512 565l354 385q10 10 21 4l22 -12q10 -6 0 -16l-366 -406l366 -405q10 -10 0 -17l-22 -12q-11 -6 -21 4l-354 385 q-27 30 -27 41v8q0 10 27 41z" />
<glyph unicode="&#xac;" horiz-adv-x="1036" d="M862 141v510h-743q-17 0 -17 17v14q0 18 17 18h778q16 0 16 -16v-541q0 -11 -3.5 -14.5t-14.5 -3.5h-14q-19 0 -19 16z" />
<glyph unicode="&#xad;" horiz-adv-x="802" d="M684 559h-565q-17 0 -17 16v13q0 18 17 18h565q16 0 16 -16v-17q0 -14 -16 -14z" />
<glyph unicode="&#xae;" horiz-adv-x="1712" d="M1116 866q0 -93 -53 -153.5t-123 -75.5l217 -287q2 -5 -1 -6.5t-13 -1.5h-37q-8 0 -16 8l-211 281h-224v-281q0 -8 -8 -8h-31q-8 0 -8 8v733q0 9 8 9h254q50 0 91.5 -11t77.5 -35.5t56.5 -70.5t20.5 -109zM655 680h213q96 0 147.5 48t51.5 138q0 97 -53 137.5t-154 40.5 h-205v-364zM113 717q0 151 58.5 288.5t158 237t237 158.5t289.5 59q151 0 288.5 -59t237 -158.5t158.5 -237t59 -288.5q0 -152 -59 -289.5t-158.5 -237t-237 -158.5t-288.5 -59q-152 0 -289.5 59t-237 158.5t-158 237t-58.5 289.5zM158 717q0 -190 93 -351t254 -254.5 t351 -93.5q189 0 349 93.5t253.5 254.5t93.5 351q0 188 -93.5 348.5t-254 254t-348.5 93.5q-142 0 -271.5 -55.5t-223 -148.5t-148.5 -222t-55 -270z" />
<glyph unicode="&#xaf;" horiz-adv-x="731" d="M612 1411h-493q-17 0 -17 16v15q0 18 17 18h493q17 0 17 -16v-19q0 -14 -17 -14z" />
<glyph unicode="&#xb0;" horiz-adv-x="841" d="M113 1147q0 131 88.5 219t218.5 88t219.5 -88.5t89.5 -218.5q0 -131 -89.5 -220t-219.5 -89q-131 0 -219 88.5t-88 220.5zM162 1147q0 -112 73.5 -186t184.5 -74q107 0 183.5 74.5t76.5 185.5q0 103 -77.5 180.5t-182.5 77.5q-109 0 -183.5 -77t-74.5 -181z" />
<glyph unicode="&#xb1;" horiz-adv-x="1101" d="M575 1331v-342h345q16 0 16 -16v-17q0 -16 -16 -16h-345v-317q0 -17 -16 -17h-14q-19 0 -19 17v317h-344q-18 0 -18 18v13q0 11 4 14.5t14 3.5h344v342q0 17 17 17h18q14 0 14 -17zM920 221h-740q-16 0 -16 17v14q0 18 16 18h740q18 0 18 -16v-16q0 -17 -18 -17z" />
<glyph unicode="&#xb2;" horiz-adv-x="581" d="M438 1354l-254 -338h310q16 0 16 -17v-18q0 -14 -16 -14h-394q-6 0 -6 6v4q0 10 8 20l289 381q50 67 38.5 111.5t-49.5 67t-85 22.5q-104 0 -168 -66q-12 -15 -25 -2l-16 17q-9 9 2 20q93 80 207 80q66 0 112 -26t63 -66t9 -89t-41 -93z" />
<glyph unicode="&#xb3;" horiz-adv-x="593" d="M287 950q-66 0 -115 20.5t-94 65.5q-12 12 -2 21l14 14q12 11 25 -2q24 -24 38.5 -35.5t50.5 -24t83 -12.5q184 0 184 142q0 52 -53 89.5t-133 37.5h-60q-16 0 -16 16v14q0 17 16 17h60q80 0 133 37.5t53 89.5q0 141 -184 141q-47 0 -83 -12.5t-50.5 -24t-38.5 -35.5 q-13 -13 -25 -2l-14 15q-9 9 2 20q45 45 94 65.5t115 20.5q59 0 109 -17t86 -61t36 -110q0 -61 -39 -100.5t-92 -51.5v-2q53 -8 92 -47.5t39 -103.5q0 -93 -69 -139t-162 -46z" />
<glyph unicode="&#xb4;" horiz-adv-x="499" d="M393 1423l-223 -223q-12 -12 -31 -12h-24q-8 0 -11 4t2 10l254 260q10 13 19 0l16 -20q7 -10 -2 -19z" />
<glyph unicode="&#xb5;" horiz-adv-x="1282" d="M997 16v267q-9 -14 -34.5 -58t-41.5 -69t-49 -63.5t-65 -60.5t-80 -38.5t-102 -16.5q-109 0 -202.5 53.5t-137.5 155.5v-587q0 -17 -15 -17h-20q-14 0 -14 17v1427q0 16 14 16h20q15 0 15 -16v-571q0 -59 9.5 -115.5t34 -114.5t61.5 -101t97.5 -70t137.5 -27q99 0 186 74 t136.5 188t49.5 233v504q0 16 15 16h20q15 0 15 -16v-1010q0 -16 -15 -16h-18q-14 0 -17 16z" />
<glyph unicode="&#xb6;" horiz-adv-x="1484" d="M653 -469v1006q-242 0 -386 116t-144 334q0 108 37 195.5t97.5 141t134 82t151.5 28.5h843q17 0 17 -17v-18q0 -15 -17 -15h-280v-1855q0 -16 -16 -16h-17q-16 0 -16 16v1855h-355v-1853q0 -16 -16 -16h-16q-17 0 -17 16z" />
<glyph unicode="&#xb7;" horiz-adv-x="385" d="M113 702q0 33 23.5 56.5t58.5 23.5q32 0 54.5 -23.5t22.5 -56.5q0 -34 -22.5 -57.5t-54.5 -23.5q-35 0 -58.5 23.5t-23.5 57.5z" />
<glyph unicode="&#xb8;" horiz-adv-x="524" d="M195 -23l45 -4l-25 -155q117 0 174 -41t57 -131q0 -71 -47.5 -113.5t-122.5 -42.5q-98 0 -190 70q-12 8 -4 16l14 18q6 9 15 3q72 -58 165 -58q121 0 121 107q0 67 -39.5 96t-132.5 29h-55q-8 0 -8 10z" />
<glyph unicode="&#xb9;" horiz-adv-x="464" d="M92 1509l150 84q16 9 28 9h15q16 0 16 -17v-602q0 -16 -16 -16h-15q-16 0 -16 16v561l-158 -86q-14 -7 -14 6v29q0 9 10 16z" />
<glyph unicode="&#xba;" horiz-adv-x="690" d="M82 1116q0 151 66 247.5t198 96.5t197 -96t65 -248t-65 -248t-197 -96t-198 96.5t-66 247.5zM131 1116q0 -135 51.5 -215t163.5 -80t162.5 80t50.5 215t-50.5 215t-162.5 80t-163.5 -80t-51.5 -215z" />
<glyph unicode="&#xbb;" horiz-adv-x="1017" d="M555 950l354 -385q27 -31 27 -41v-8q0 -11 -27 -41l-354 -385q-10 -10 -18 -4l-25 12q-10 7 0 17l369 405l-369 406q-10 10 0 16l25 12q8 6 18 -4zM152 950l354 -385q26 -30 26 -41v-8q0 -12 -26 -41l-354 -385q-10 -10 -21 -4l-22 12q-10 7 0 17l366 405l-366 406 q-10 10 0 16l22 12q11 6 21 -4z" />
<glyph unicode="&#xbc;" horiz-adv-x="1259" d="M973 1417l-713 -1401q-7 -16 -22 -16h-25q-18 0 -10 16l712 1401q7 17 23 17h25q19 0 10 -17zM72 1341l149 84q16 9 29 9h16q17 0 17 -17v-602q0 -16 -17 -16h-16q-17 0 -17 16v561l-157 -86q-15 -8 -15 6v29q0 9 11 16zM1024 635h31q16 0 16 -17v-385h109q16 0 16 -16 v-14q0 -17 -16 -17h-109v-170q0 -16 -16 -16h-17q-16 0 -16 16v170h-287q-16 0 -16 17v18q0 17 16 39l256 358q14 17 33 17zM1022 578l-246 -345h246v345z" />
<glyph unicode="&#xbd;" horiz-adv-x="1329" d="M1018 1417l-713 -1401q-7 -16 -22 -16h-25q-18 0 -10 16l713 1401q7 17 22 17h25q18 0 10 -17zM72 1341l149 84q16 9 29 9h16q17 0 17 -17v-602q0 -16 -17 -16h-16q-17 0 -17 16v561l-157 -86q-15 -8 -15 6v29q0 9 11 16zM940 49l256 338q33 44 40.5 93t-10 89 t-63.5 66.5t-112 26.5q-114 0 -207 -80q-12 -12 -2 -21l18 -16q13 -13 25 2q63 65 166 65q34 0 65.5 -13t53 -36.5t17.5 -63.5t-40 -87l-289 -381q-8 -10 -8 -21v-4q0 -6 6 -6h393q17 0 17 14v19q0 16 -17 16h-309z" />
<glyph unicode="&#xbe;" horiz-adv-x="1355" d="M1067 1417l-713 -1401q-7 -16 -22 -16h-25q-18 0 -10 16l713 1401q7 17 22 17h25q19 0 10 -17zM276 782q-66 0 -114.5 20.5t-93.5 65.5q-12 12 -2 21l16 14q11 11 24 -2q24 -24 38.5 -35.5t49.5 -24t82 -12.5q185 0 185 142q0 52 -53.5 89.5t-133.5 37.5h-59 q-16 0 -16 16v14q0 17 16 17h59q80 0 133.5 37.5t53.5 89.5q0 141 -185 141q-47 0 -82 -12.5t-49.5 -24t-38.5 -35.5q-13 -13 -24 -2l-16 15q-9 9 2 20q45 45 93.5 65.5t114.5 20.5q59 0 109 -17t86.5 -61t36.5 -110q0 -61 -38 -100.5t-91 -51.5v-2q53 -8 91 -47.5 t38 -103.5q0 -93 -69 -139t-163 -46zM1120 635h31q16 0 16 -17v-385h109q16 0 16 -16v-14q0 -17 -16 -17h-109v-170q0 -16 -16 -16h-16q-17 0 -17 16v170h-287q-16 0 -16 17v18q0 17 16 39l256 358q14 17 33 17zM1118 578l-246 -345h246v345z" />
<glyph unicode="&#xbf;" horiz-adv-x="1028" d="M567 131q17 3 17 21v227q0 16 -17 16h-16q-16 0 -16 -16v-207q-515 -112 -515 -426q0 -61 19.5 -121t63 -117t105 -100t153 -69.5t200.5 -26.5q110 0 226.5 47.5t207.5 108.5q19 11 9 24l-11 19q-10 17 -26 4q-116 -76 -210.5 -115t-195.5 -39q-112 0 -206.5 33.5 t-155.5 88t-95 123t-34 140.5q0 79 41 144.5t113.5 111.5t157 77.5t185.5 51.5zM631 723q0 -29 -20.5 -49.5t-49.5 -20.5t-50.5 20.5t-21.5 49.5q0 30 21 51t51 21q29 0 49.5 -20.5t20.5 -51.5z" />
<glyph unicode="&#xc0;" d="M707 1374h-2l-383 -872h768zM721 1464l639 -1448q6 -16 -10 -16h-25q-17 0 -25 16l-190 439h-807l-192 -439q-8 -16 -23 -16h-27q-14 0 -8 16l637 1448q6 11 12 11h7q7 0 12 -11zM760 1591l-223 224q-8 8 -2 18l16 20q8 13 18 0l254 -260q6 -6 3 -10t-11 -4h-24 q-19 0 -31 12z" />
<glyph unicode="&#xc1;" d="M707 1374h-2l-383 -872h768zM721 1464l639 -1448q6 -16 -10 -16h-25q-17 0 -25 16l-190 439h-807l-192 -439q-8 -16 -23 -16h-27q-14 0 -8 16l637 1448q6 11 12 11h7q7 0 12 -11zM928 1815l-223 -224q-12 -12 -31 -12h-25q-8 0 -11 4t3 10l254 260q10 13 18 0l17 -20 q6 -10 -2 -18z" />
<glyph unicode="&#xc2;" d="M707 1374h-2l-383 -872h768zM721 1464l639 -1448q6 -16 -10 -16h-25q-17 0 -25 16l-190 439h-807l-192 -439q-8 -16 -23 -16h-27q-14 0 -8 16l637 1448q6 11 12 11h7q7 0 12 -11zM705 1933h6q9 0 20 -16l238 -336q13 -16 -8 -16h-23q-20 0 -31 16l-200 293l-199 -293 q-11 -16 -33 -16h-22q-20 0 -7 16l236 336q11 16 23 16z" />
<glyph unicode="&#xc3;" d="M707 1374h-2l-383 -872h768zM721 1464l639 -1448q6 -16 -10 -16h-25q-17 0 -25 16l-190 439h-807l-192 -439q-8 -16 -23 -16h-27q-14 0 -8 16l637 1448q6 11 12 11h7q7 0 12 -11zM860 1729q68 0 101.5 22.5t62.5 91.5q6 15 11.5 18t17.5 -1l14 -7q15 -5 4 -30 q-14 -30 -27 -50t-36 -44.5t-58 -37t-80 -12.5q-56 0 -95 19t-81 63q-44 44 -75.5 62t-69.5 18q-67 0 -100 -23t-62 -92q-10 -23 -31 -16l-14 6q-13 9 -4 31q14 30 27 50t36 44t58 36.5t80 12.5q55 0 96.5 -22t85.5 -66q47 -46 73 -59.5t66 -13.5z" />
<glyph unicode="&#xc4;" d="M707 1374h-2l-383 -872h768zM721 1464l639 -1448q6 -16 -10 -16h-25q-17 0 -25 16l-190 439h-807l-192 -439q-8 -16 -23 -16h-27q-14 0 -8 16l637 1448q6 11 12 11h7q7 0 12 -11zM463 1796q0 23 17 40t42 17t42.5 -17t17.5 -40q0 -25 -17.5 -43t-42.5 -18t-42 18t-17 43z M831 1796q0 23 18 40t44 17q23 0 40 -17t17 -40q0 -25 -17 -43t-40 -18q-26 0 -44 18t-18 43z" />
<glyph unicode="&#xc5;" d="M707 1374h-2l-383 -872h768zM721 1464l639 -1448q6 -16 -10 -16h-25q-17 0 -25 16l-190 439h-807l-192 -439q-8 -16 -23 -16h-27q-14 0 -8 16l637 1448q6 11 12 11h7q7 0 12 -11zM705 1585q-93 0 -149 60t-56 155t56 155t149 60q91 0 147.5 -60t56.5 -155t-56.5 -155 t-147.5 -60zM705 1626q75 0 119 51.5t44 122.5q0 72 -43 123t-118 51q-74 0 -119 -51.5t-45 -122.5t44.5 -122.5t117.5 -51.5z" />
<glyph unicode="&#xc6;" horiz-adv-x="1957" d="M909 0q-16 0 -16 16v439h-522l-260 -439q-8 -16 -23 -16h-27q-14 0 -8 16l783 1362q27 56 49 56h923q8 0 13.5 -5t5.5 -12v-16q0 -7 -5.5 -12t-13.5 -5h-866v-632h825q17 0 17 -19v-14q0 -19 -17 -19h-825v-651h866q19 0 19 -16v-17q0 -16 -19 -16h-899zM893 1382 l-502 -880h502v880z" />
<glyph unicode="&#xc7;" horiz-adv-x="1486" d="M731 -219l33 196q-175 22 -325 130.5t-238 271.5t-88 338q0 150 58 287.5t156 237.5t233.5 159t283.5 59q150 0 294 -56.5t242 -154.5q12 -12 2 -22l-18 -21q-12 -12 -27 2q-78 84 -206.5 143.5t-286.5 59.5q-178 0 -336.5 -98t-252 -258.5t-93.5 -337.5 q0 -134 55.5 -262t148 -222.5t218.5 -152t260 -57.5q158 0 285.5 59.5t216.5 148.5q11 11 22 0l18 -18q12 -11 -6 -29q-99 -99 -248.5 -155t-324.5 -56l-25 -155q117 0 174.5 -41.5t57.5 -130.5q0 -71 -47.5 -113.5t-120.5 -42.5q-99 0 -191 70q-12 8 -4 16l15 18q6 9 14 3 q72 -58 166 -58q121 0 121 107q0 67 -39.5 96t-132.5 29h-56q-8 0 -8 10z" />
<glyph unicode="&#xc8;" horiz-adv-x="1290" d="M1122 0h-899q-16 0 -16 16v1401q0 17 16 17h899q17 0 17 -17v-16q0 -17 -17 -17h-866v-632h825q17 0 17 -19v-14q0 -19 -17 -19h-825v-651h866q17 0 17 -16v-17q0 -16 -17 -16zM698 1591l-225 224q-6 9 0 18l14 20q8 13 21 0l254 -260q6 -6 3 -10t-11 -4h-25 q-19 0 -31 12z" />
<glyph unicode="&#xc9;" horiz-adv-x="1290" d="M1122 0h-899q-16 0 -16 16v1401q0 17 16 17h899q17 0 17 -17v-16q0 -17 -17 -17h-866v-632h825q17 0 17 -19v-14q0 -19 -17 -19h-825v-651h866q17 0 17 -16v-17q0 -16 -17 -16zM823 1815l-223 -224q-12 -12 -31 -12h-24q-8 0 -11 4t3 10l254 260q10 13 18 0l16 -20 q6 -10 -2 -18z" />
<glyph unicode="&#xca;" horiz-adv-x="1265" d="M684 1933h6q10 0 21 -16l237 -336q13 -16 -8 -16h-22q-20 0 -31 16l-201 293l-199 -293q-11 -16 -32 -16h-23q-19 0 -6 16l236 336q11 16 22 16zM1126 0h-899q-16 0 -16 16v1401q0 17 16 17h899q17 0 17 -17v-16q0 -17 -17 -17h-866v-632h825q17 0 17 -19v-14 q0 -19 -17 -19h-825v-651h866q17 0 17 -16v-17q0 -16 -17 -16z" />
<glyph unicode="&#xcb;" horiz-adv-x="1290" d="M1122 0h-899q-16 0 -16 16v1401q0 17 16 17h899q17 0 17 -17v-16q0 -17 -17 -17h-866v-632h825q17 0 17 -19v-14q0 -19 -17 -19h-825v-651h866q17 0 17 -16v-17q0 -16 -17 -16zM440 1796q0 23 17.5 40t42.5 17t42 -17t17 -40q0 -25 -17 -43t-42 -18t-42.5 18t-17.5 43z M809 1796q0 24 17.5 40.5t43.5 16.5q23 0 40.5 -17t17.5 -40q0 -25 -17.5 -43t-40.5 -18q-26 0 -43.5 18t-17.5 43z" />
<glyph unicode="&#xcc;" horiz-adv-x="616" d="M268 16v1401q0 17 17 17h16q16 0 16 -17v-1401q0 -16 -16 -16h-16q-17 0 -17 16zM301 1591l-225 224q-6 9 0 18l14 20q8 13 21 0l254 -260q5 -6 2 -10t-11 -4h-24q-19 0 -31 12z" />
<glyph unicode="&#xcd;" horiz-adv-x="612" d="M283 16v1401q0 17 16 17h16q17 0 17 -17v-1401q0 -16 -17 -16h-16q-16 0 -16 16zM504 1815l-223 -224q-12 -12 -31 -12h-25q-8 0 -11 4t3 10l254 260q10 13 18 0l17 -20q6 -10 -2 -18z" />
<glyph unicode="&#xce;" horiz-adv-x="614" d="M283 16v1401q0 17 16 17h16q17 0 17 -17v-1401q0 -16 -17 -16h-16q-16 0 -16 16zM305 1933h6q10 0 21 -16l237 -336q13 -16 -8 -16h-22q-20 0 -31 16l-201 293l-198 -293q-11 -16 -33 -16h-23q-19 0 -6 16l236 336q11 16 22 16z" />
<glyph unicode="&#xcf;" horiz-adv-x="612" d="M283 16v1401q0 17 16 17h16q17 0 17 -17v-1401q0 -16 -17 -16h-16q-16 0 -16 16zM25 1796q0 23 17 40t42 17t42 -17t17 -40q0 -25 -17 -43t-42 -18t-42 18t-17 43zM393 1796q0 23 18 40t44 17q23 0 40 -17t17 -40q0 -25 -17 -43t-40 -18q-26 0 -44 18t-18 43z" />
<glyph unicode="&#xd0;" horiz-adv-x="1624" d="M68 754h241v663q0 17 17 17h489q149 0 278.5 -55t221 -150t144 -228t52.5 -284t-52.5 -284t-144 -228t-221 -150t-278.5 -55h-489q-17 0 -17 16v686h-241q-17 0 -17 19v14q0 8 5 13.5t12 5.5zM813 1384h-455v-630h430q7 0 12 -5.5t5 -13.5v-14q0 -19 -17 -19h-430v-653 h455q139 0 261 53.5t206.5 144.5t133 213.5t48.5 256.5t-48.5 256t-133 212.5t-206.5 144.5t-261 54z" />
<glyph unicode="&#xd1;" horiz-adv-x="1591" d="M295 1354v-1338q0 -16 -16 -16h-17q-16 0 -16 16v1428q0 10 3.5 13t14.5 3h4q12 0 19 -10l1009 -1370v1337q0 10 4 13.5t13 3.5h16q9 0 13 -3.5t4 -13.5v-1427q0 -10 -4 -13.5t-13 -3.5h-2q-12 0 -24 15zM932 1729q68 0 101.5 22.5t62.5 91.5q6 15 11 18t17 -1l15 -7 q15 -5 4 -30q-14 -30 -27 -50t-36 -44.5t-58 -37t-80 -12.5q-56 0 -95 19t-81 63q-44 44 -75.5 62t-69.5 18q-67 0 -100 -23t-62 -92q-10 -23 -31 -16l-14 6q-13 9 -4 31q14 30 26.5 50t35.5 44t58 36.5t80 12.5q55 0 97 -22t86 -66q47 -46 73 -59.5t66 -13.5z" />
<glyph unicode="&#xd2;" horiz-adv-x="1687" d="M113 717q0 150 58 287.5t156 237.5t233.5 159t283.5 59t283.5 -59t233.5 -159t156 -237.5t58 -287.5t-58 -288t-156 -237.5t-233.5 -159t-283.5 -59.5t-283.5 59.5t-233.5 159t-156 237.5t-58 288zM162 717q0 -178 93.5 -338.5t252 -258t336.5 -97.5q133 0 259 58 t218.5 153t148.5 222.5t56 260.5t-56 260.5t-148.5 222.5t-218.5 153t-259 58q-178 0 -336.5 -97.5t-252 -258t-93.5 -338.5zM872 1591l-225 224q-6 9 0 18l15 20q8 12 20 0l254 -260q6 -6 3 -10t-11 -4h-25q-19 0 -31 12z" />
<glyph unicode="&#xd3;" horiz-adv-x="1687" d="M113 717q0 150 58 287.5t156 237.5t233.5 159t283.5 59t283.5 -59t233.5 -159t156 -237.5t58 -287.5t-58 -288t-156 -237.5t-233.5 -159t-283.5 -59.5t-283.5 59.5t-233.5 159t-156 237.5t-58 288zM162 717q0 -178 93.5 -338.5t252 -258t336.5 -97.5q133 0 259 58 t218.5 153t148.5 222.5t56 260.5t-56 260.5t-148.5 222.5t-218.5 153t-259 58q-178 0 -336.5 -97.5t-252 -258t-93.5 -338.5zM1047 1815l-224 -224q-12 -12 -30 -12h-25q-8 0 -11 4t3 10l254 260q10 13 18 0l17 -20q6 -10 -2 -18z" />
<glyph unicode="&#xd4;" horiz-adv-x="1687" d="M113 717q0 150 58 287.5t156 237.5t233.5 159t283.5 59t283.5 -59t233.5 -159t156 -237.5t58 -287.5t-58 -288t-156 -237.5t-233.5 -159t-283.5 -59.5t-283.5 59.5t-233.5 159t-156 237.5t-58 288zM162 717q0 -178 93.5 -338.5t252 -258t336.5 -97.5q133 0 259 58 t218.5 153t148.5 222.5t56 260.5t-56 260.5t-148.5 222.5t-218.5 153t-259 58q-178 0 -336.5 -97.5t-252 -258t-93.5 -338.5zM842 1933h6q9 0 20 -16l238 -336q13 -16 -8 -16h-23q-20 0 -31 16l-200 293l-199 -293q-11 -16 -33 -16h-22q-19 0 -6 16l235 336q11 16 23 16z " />
<glyph unicode="&#xd5;" horiz-adv-x="1687" d="M113 717q0 150 58 287.5t156 237.5t233.5 159t283.5 59t283.5 -59t233.5 -159t156 -237.5t58 -287.5t-58 -288t-156 -237.5t-233.5 -159t-283.5 -59.5t-283.5 59.5t-233.5 159t-156 237.5t-58 288zM162 717q0 -178 93.5 -338.5t252 -258t336.5 -97.5q133 0 259 58 t218.5 153t148.5 222.5t56 260.5t-56 260.5t-148.5 222.5t-218.5 153t-259 58q-178 0 -336.5 -97.5t-252 -258t-93.5 -338.5zM989 1729q68 0 101.5 22.5t62.5 91.5q6 15 11.5 18t17.5 -1l14 -7q15 -5 4 -30q-14 -30 -27 -50t-36 -44.5t-58 -37t-80 -12.5q-56 0 -95 19 t-81 63q-44 44 -75.5 62t-69.5 18q-67 0 -100 -23t-62 -92q-10 -23 -31 -16l-14 6q-13 9 -4 31q14 30 27 50t36 44t58 36.5t80 12.5q55 0 96.5 -22t85.5 -66q47 -46 73 -59.5t66 -13.5z" />
<glyph unicode="&#xd6;" horiz-adv-x="1687" d="M113 717q0 150 58 287.5t156 237.5t233.5 159t283.5 59t283.5 -59t233.5 -159t156 -237.5t58 -287.5t-58 -288t-156 -237.5t-233.5 -159t-283.5 -59.5t-283.5 59.5t-233.5 159t-156 237.5t-58 288zM162 717q0 -178 93.5 -338.5t252 -258t336.5 -97.5q133 0 259 58 t218.5 153t148.5 222.5t56 260.5t-56 260.5t-148.5 222.5t-218.5 153t-259 58q-178 0 -336.5 -97.5t-252 -258t-93.5 -338.5zM571 1796q0 23 17.5 40t42.5 17t42 -17t17 -40q0 -25 -17 -43t-42 -18t-42.5 18t-17.5 43zM940 1796q0 24 17.5 40.5t43.5 16.5q23 0 40.5 -17 t17.5 -40q0 -25 -17.5 -43t-40.5 -18q-26 0 -43.5 18t-17.5 43z" />
<glyph unicode="&#xd7;" horiz-adv-x="776" d="M641 338l-248 248l-248 -248q-12 -12 -24 0l-12 10q-11 12 0 23l249 250l-249 249q-11 12 0 23l12 10q12 12 24 0l246 -248l250 248q13 13 25 0l12 -10q12 -11 0 -23l-250 -249l250 -250q10 -13 0 -23l-12 -10q-14 -14 -25 0z" />
<glyph unicode="&#xd8;" horiz-adv-x="1687" d="M113 719q0 150 58 287.5t156 236.5t233.5 158t283.5 59q73 0 156.5 -18t148.5 -47l59 114q10 13 23 13h29q10 0 12.5 -7t-2.5 -16l-74 -131q32 -20 54.5 -35.5t65.5 -51t74 -70t68 -88.5t60.5 -111t40 -134t16.5 -161q0 -150 -58 -288t-156 -237.5t-233.5 -159 t-283.5 -59.5q-91 0 -180.5 23t-151.5 59l-70 -131q-6 -12 -20 -12h-29q-9 0 -12 6t0 12l84 150q-158 101 -255 269t-97 370zM1526 717q0 103 -29.5 196.5t-69 156.5t-94.5 118.5t-90.5 82t-71.5 48.5l-632 -1217q47 -28 129.5 -53.5t175.5 -25.5q133 0 259 58t218.5 153 t148.5 222.5t56 260.5zM162 717q1 -99 29.5 -190.5t66 -153.5t87.5 -116.5t84 -81t65 -46.5l632 1212q-131 70 -282 70q-132 0 -258.5 -58.5t-219.5 -153t-149 -222.5t-55 -260z" />
<glyph unicode="&#xd9;" horiz-adv-x="1454" d="M727 -27q-256 0 -404.5 158.5t-148.5 458.5v827q0 17 16 17h17q16 0 16 -17v-817q0 -151 39 -264.5t109 -180.5t159 -99.5t197 -32.5t197 32.5t159 99.5t109 180.5t39 264.5v817q0 17 16 17h17q10 0 13 -3.5t3 -13.5v-827q0 -300 -148.5 -458.5t-404.5 -158.5zM750 1591 l-226 224q-6 9 0 18l15 20q8 12 20 0l254 -260q6 -6 3 -10t-11 -4h-25q-18 0 -30 12z" />
<glyph unicode="&#xda;" horiz-adv-x="1454" d="M727 -27q-256 0 -404.5 158.5t-148.5 458.5v827q0 17 16 17h17q16 0 16 -17v-817q0 -151 39 -264.5t109 -180.5t159 -99.5t197 -32.5t197 32.5t159 99.5t109 180.5t39 264.5v817q0 17 16 17h17q10 0 13 -3.5t3 -13.5v-827q0 -300 -148.5 -458.5t-404.5 -158.5zM891 1815 l-223 -224q-12 -12 -31 -12h-25q-8 0 -11 4t3 10l254 260q10 13 19 0l16 -20q6 -10 -2 -18z" />
<glyph unicode="&#xdb;" horiz-adv-x="1454" d="M727 -27q-256 0 -404.5 158.5t-148.5 458.5v827q0 17 16 17h17q16 0 16 -17v-817q0 -151 39 -264.5t109 -180.5t159 -99.5t197 -32.5t197 32.5t159 99.5t109 180.5t39 264.5v817q0 17 16 17h17q10 0 13 -3.5t3 -13.5v-827q0 -300 -148.5 -458.5t-404.5 -158.5zM725 1933 h6q10 0 21 -16l237 -336q13 -16 -8 -16h-23q-19 0 -30 16l-201 293l-199 -293q-11 -16 -32 -16h-23q-19 0 -6 16l235 336q11 16 23 16z" />
<glyph unicode="&#xdc;" horiz-adv-x="1454" d="M727 -27q-256 0 -404.5 158.5t-148.5 458.5v827q0 17 16 17h17q16 0 16 -17v-817q0 -151 39 -264.5t109 -180.5t159 -99.5t197 -32.5t197 32.5t159 99.5t109 180.5t39 264.5v817q0 17 16 17h17q10 0 13 -3.5t3 -13.5v-827q0 -300 -148.5 -458.5t-404.5 -158.5zM485 1796 q0 23 17.5 40t42.5 17t42 -17t17 -40q0 -25 -17 -43t-42 -18t-42.5 18t-17.5 43zM854 1796q0 24 17.5 40.5t43.5 16.5q23 0 40.5 -17t17.5 -40q0 -25 -17.5 -43t-40.5 -18q-26 0 -43.5 18t-17.5 43z" />
<glyph unicode="&#xdd;" horiz-adv-x="1212" d="M588 590l-553 827q-10 17 6 17h25q16 0 26 -17l520 -764l516 764q12 17 29 17h25q14 0 6 -17l-551 -827v-574q0 -16 -16 -16h-17q-16 0 -16 16v574zM776 1815l-223 -224q-12 -12 -31 -12h-24q-8 0 -11 4t2 10l254 260q10 13 19 0l16 -20q6 -10 -2 -18z" />
<glyph unicode="&#xde;" horiz-adv-x="1347" d="M745 0h-460v-401q0 -17 -17 -17h-16q-19 0 -19 17v1845q0 16 19 16h16q17 0 17 -16v-402h460q136 0 248.5 -67t177 -187t64.5 -268q0 -223 -141 -371.5t-349 -148.5zM285 49h454q117 0 218 56t165 165.5t64 249.5t-64 250t-165 166.5t-218 56.5h-454v-944z" />
<glyph unicode="&#xdf;" horiz-adv-x="1304" d="M653 764h117q153 0 260 73.5t107 196.5q0 173 -125 261.5t-336 88.5q-86 0 -159 -18.5t-133.5 -57.5t-95 -108t-34.5 -162v-448v-574q0 -16 -16 -16h-17q-16 0 -16 16v1022q0 87 27 156.5t71.5 113.5t106.5 73t127.5 41t138.5 12q81 0 153 -12t139 -41t115.5 -73 t77.5 -113.5t29 -156.5q0 -58 -20.5 -107.5t-50.5 -81t-68 -56t-70.5 -36t-60.5 -16.5v-2q22 -2 56.5 -13.5t82.5 -38.5t88 -64t68 -97.5t28 -132.5q0 -393 -491 -393h-162q-17 0 -17 16v15q0 18 17 18h149q229 0 339 91.5t110 258.5q0 85 -57.5 158t-154 115.5t-206.5 42.5 h-117q-16 0 -16 18v12q0 19 16 19z" />
<glyph unicode="&#xe0;" horiz-adv-x="1142" d="M236 977q-13 -3 -18.5 0.5t-8.5 15.5l-2 11q-6 18 18 24q22 5 63 12.5t124 16t159 8.5q216 0 312 -110t96 -373v-566q0 -16 -14 -16h-21q-12 0 -12 16l-2 197q-20 -36 -59.5 -74.5t-95.5 -76t-134 -61.5t-160 -24q-162 0 -265 91.5t-103 244.5q0 334 446 334 q94 0 180.5 -23t190.5 -69q0 252 -83.5 356.5t-275.5 104.5q-153 0 -335 -39zM559 598q-397 0 -397 -285q0 -135 90.5 -210.5t241.5 -75.5q136 0 258 75.5t178 171.5v226q-113 52 -191 75t-180 23zM641 1200l-225 223q-6 9 0 19l14 20q8 13 21 0l254 -260q5 -6 2 -10t-11 -4 h-24q-19 0 -31 12z" />
<glyph unicode="&#xe1;" horiz-adv-x="1142" d="M236 977q-13 -3 -18.5 0.5t-8.5 15.5l-2 11q-6 18 18 24q22 5 63 12.5t124 16t159 8.5q216 0 312 -110t96 -373v-566q0 -16 -14 -16h-21q-12 0 -12 16l-2 197q-20 -36 -59.5 -74.5t-95.5 -76t-134 -61.5t-160 -24q-162 0 -265 91.5t-103 244.5q0 334 446 334 q94 0 180.5 -23t190.5 -69q0 252 -83.5 356.5t-275.5 104.5q-153 0 -335 -39zM559 598q-397 0 -397 -285q0 -135 90.5 -210.5t241.5 -75.5q136 0 258 75.5t178 171.5v226q-113 52 -191 75t-180 23zM754 1423l-224 -223q-12 -12 -30 -12h-25q-8 0 -11 4t3 10l254 260 q10 13 18 0l17 -20q7 -10 -2 -19z" />
<glyph unicode="&#xe2;" horiz-adv-x="1142" d="M236 977q-13 -3 -18.5 0.5t-8.5 15.5l-2 11q-6 18 18 24q22 5 63 12.5t124 16t159 8.5q216 0 312 -110t96 -373v-566q0 -16 -14 -16h-21q-12 0 -12 16l-2 197q-20 -36 -59.5 -74.5t-95.5 -76t-134 -61.5t-160 -24q-162 0 -265 91.5t-103 244.5q0 334 446 334 q94 0 180.5 -23t190.5 -69q0 252 -83.5 356.5t-275.5 104.5q-153 0 -335 -39zM559 598q-397 0 -397 -285q0 -135 90.5 -210.5t241.5 -75.5q136 0 258 75.5t178 171.5v226q-113 52 -191 75t-180 23zM569 1542h6q10 0 21 -16l238 -336q13 -16 -9 -16h-22q-20 0 -31 16 l-201 293l-198 -293q-11 -16 -33 -16h-23q-19 0 -6 16l236 336q11 16 22 16z" />
<glyph unicode="&#xe3;" horiz-adv-x="1142" d="M236 977q-13 -3 -18.5 0.5t-8.5 15.5l-2 11q-6 18 18 24q22 5 63 12.5t124 16t159 8.5q216 0 312 -110t96 -373v-566q0 -16 -14 -16h-21q-12 0 -12 16l-2 197q-20 -36 -59.5 -74.5t-95.5 -76t-134 -61.5t-160 -24q-162 0 -265 91.5t-103 244.5q0 334 446 334 q94 0 180.5 -23t190.5 -69q0 252 -83.5 356.5t-275.5 104.5q-153 0 -335 -39zM559 598q-397 0 -397 -285q0 -135 90.5 -210.5t241.5 -75.5q136 0 258 75.5t178 171.5v226q-113 52 -191 75t-180 23zM727 1337q67 0 101 23t63 92q6 15 11.5 18t17.5 -2l14 -6q15 -5 4 -30 q-14 -30 -27 -50t-36 -44.5t-58 -37t-80 -12.5q-56 0 -95 19t-81 63q-44 44 -75.5 62t-69.5 18q-67 0 -100 -23t-62 -92q-10 -23 -31 -16l-14 6q-13 9 -4 31q14 30 27 50t36 44t58 36.5t80 12.5q55 0 96.5 -22t85.5 -66q48 -46 74 -60t65 -14z" />
<glyph unicode="&#xe4;" horiz-adv-x="1142" d="M236 977q-13 -3 -18.5 0.5t-8.5 15.5l-2 11q-6 18 18 24q22 5 63 12.5t124 16t159 8.5q216 0 312 -110t96 -373v-566q0 -16 -14 -16h-21q-12 0 -12 16l-2 197q-20 -36 -59.5 -74.5t-95.5 -76t-134 -61.5t-160 -24q-162 0 -265 91.5t-103 244.5q0 334 446 334 q94 0 180.5 -23t190.5 -69q0 252 -83.5 356.5t-275.5 104.5q-153 0 -335 -39zM559 598q-397 0 -397 -285q0 -135 90.5 -210.5t241.5 -75.5q136 0 258 75.5t178 171.5v226q-113 52 -191 75t-180 23zM299 1405q0 23 17 40t42 17t42.5 -17t17.5 -40q0 -25 -17.5 -43.5 t-42.5 -18.5q-24 0 -41.5 18.5t-17.5 43.5zM668 1405q0 24 17.5 40.5t43.5 16.5q23 0 40 -17t17 -40q0 -25 -17 -43.5t-40 -18.5q-26 0 -43.5 18.5t-17.5 43.5z" />
<glyph unicode="&#xe5;" horiz-adv-x="1142" d="M236 977q-13 -3 -18.5 0.5t-8.5 15.5l-2 11q-6 18 18 24q22 5 63 12.5t124 16t159 8.5q216 0 312 -110t96 -373v-566q0 -16 -14 -16h-21q-12 0 -12 16l-2 197q-20 -36 -59.5 -74.5t-95.5 -76t-134 -61.5t-160 -24q-162 0 -265 91.5t-103 244.5q0 334 446 334 q94 0 180.5 -23t190.5 -69q0 252 -83.5 356.5t-275.5 104.5q-153 0 -335 -39zM559 598q-397 0 -397 -285q0 -135 90.5 -210.5t241.5 -75.5q136 0 258 75.5t178 171.5v226q-113 52 -191 75t-180 23zM575 1194q-93 0 -148.5 60t-55.5 155t55.5 155t148.5 60q92 0 148.5 -60.5 t56.5 -154.5t-56.5 -154.5t-148.5 -60.5zM575 1235q75 0 119.5 51.5t44.5 122.5q0 72 -43 123t-118 51q-74 0 -119 -51.5t-45 -122.5t44 -122.5t117 -51.5z" />
<glyph unicode="&#xe6;" horiz-adv-x="1951" d="M930 555v281q-19 53 -54.5 89.5t-84.5 55.5t-101.5 27t-118.5 8q-153 0 -335 -39q-13 -3 -18.5 0.5t-8.5 15.5l-2 11q-6 18 18 24q40 10 143 23.5t203 13.5q317 0 383 -178q170 178 402 178q102 0 185.5 -31.5t139.5 -84t94.5 -123t56 -147.5t17.5 -159v-8q0 -16 -16 -16 h-854v-220q45 -98 150.5 -173.5t226.5 -75.5q104 0 212.5 36.5t170.5 98.5q11 11 22 0l15 -15q10 -12 -2 -24q-68 -68 -184 -107t-234 -39q-136 0 -251 80.5t-151 167.5q-30 -41 -73 -81.5t-102.5 -79.5t-137.5 -63t-160 -24q-163 0 -265.5 91t-102.5 245q0 334 444 334 q96 0 182.5 -23t190.5 -69zM930 274v226q-112 51 -191.5 74.5t-179.5 23.5q-397 0 -397 -295q0 -129 90.5 -202.5t241.5 -73.5q135 0 259 75.5t177 171.5zM979 836v-293h817q0 95 -27.5 179t-80 150.5t-138.5 105t-194 38.5q-226 0 -377 -180z" />
<glyph unicode="&#xe7;" horiz-adv-x="1128" d="M551 -215l33 192q-99 17 -184 61t-149.5 111.5t-101 163t-36.5 207.5q0 148 70 273t192.5 198.5t269.5 73.5q225 0 379 -154q17 -17 6 -28l-14 -15q-12 -12 -23 0q-61 64 -150 106t-196 42q-132 0 -244 -67.5t-176.5 -181.5t-64.5 -247q0 -204 141.5 -348.5t343.5 -144.5 q108 0 197 41.5t149 105.5q11 12 23 0l14 -14q10 -13 -6 -29q-154 -154 -397 -154l-25 -155q232 0 232 -172q0 -71 -47.5 -113.5t-120.5 -42.5q-88 0 -191 70q-12 8 -4 16l14 19q6 8 15 2q72 -58 166 -58q120 0 120 107q0 67 -39.5 96t-132.5 29h-55q-8 0 -8 10z" />
<glyph unicode="&#xe8;" horiz-adv-x="1249" d="M1073 147l-14 15q-11 12 -23 0q-65 -62 -168.5 -98.5t-205.5 -36.5q-100 0 -192.5 38.5t-160 102.5t-107.5 150.5t-40 177.5h968q17 0 17 16q0 153 -62.5 279t-178 200t-261.5 74q-147 0 -269.5 -73.5t-192.5 -198.5t-70 -273t70.5 -272.5t195.5 -197.5t276 -73 q116 0 229 37.5t183 104.5q16 16 6 28zM1096 543h-934q0 122 66.5 231.5t178.5 175.5t238 66q125 0 229.5 -66.5t163 -175t58.5 -231.5zM664 1200l-226 223q-6 9 0 19l15 20q8 12 20 0l254 -260q6 -6 3 -10t-11 -4h-25q-18 0 -30 12z" />
<glyph unicode="&#xe9;" horiz-adv-x="1249" d="M1059 162l14 -15q10 -12 -6 -28q-70 -67 -183 -104.5t-229 -37.5q-151 0 -276 73t-195.5 197.5t-70.5 272.5t70 273t192.5 198.5t269.5 73.5q146 0 261.5 -74t178 -200t62.5 -279q0 -16 -17 -16h-968q0 -91 40 -177.5t107.5 -150.5t160 -102.5t192.5 -38.5 q102 0 205.5 36.5t168.5 98.5q12 12 23 0zM162 543h934q0 123 -58.5 231.5t-163 175t-229.5 66.5q-126 0 -238 -66t-178.5 -175.5t-66.5 -231.5zM836 1423l-224 -223q-12 -12 -30 -12h-25q-8 0 -11 4t3 10l254 260q10 13 18 0l17 -20q7 -10 -2 -19z" />
<glyph unicode="&#xea;" horiz-adv-x="1249" d="M1073 147l-14 15q-11 12 -23 0q-65 -62 -168.5 -98.5t-205.5 -36.5q-100 0 -192.5 38.5t-160 102.5t-107.5 150.5t-40 177.5h968q17 0 17 16q0 153 -62.5 279t-178 200t-261.5 74q-147 0 -269.5 -73.5t-192.5 -198.5t-70 -273t70.5 -272.5t195.5 -197.5t276 -73 q116 0 229 37.5t183 104.5q16 16 6 28zM1096 543h-934q0 122 66.5 231.5t178.5 175.5t238 66q125 0 229.5 -66.5t163 -175t58.5 -231.5zM651 1542h6q10 0 21 -16l237 -336q13 -16 -8 -16h-22q-20 0 -31 16l-201 293l-198 -293q-11 -16 -33 -16h-23q-19 0 -6 16l236 336 q11 16 22 16z" />
<glyph unicode="&#xeb;" horiz-adv-x="1249" d="M1073 147l-14 15q-11 12 -23 0q-65 -62 -168.5 -98.5t-205.5 -36.5q-100 0 -192.5 38.5t-160 102.5t-107.5 150.5t-40 177.5h968q17 0 17 16q0 153 -62.5 279t-178 200t-261.5 74q-147 0 -269.5 -73.5t-192.5 -198.5t-70 -273t70.5 -272.5t195.5 -197.5t276 -73 q116 0 229 37.5t183 104.5q16 16 6 28zM1096 543h-934q0 122 66.5 231.5t178.5 175.5t238 66q125 0 229.5 -66.5t163 -175t58.5 -231.5zM389 1405q0 23 17.5 40t42.5 17t42 -17t17 -40q0 -25 -17.5 -43.5t-41.5 -18.5q-25 0 -42.5 18.5t-17.5 43.5zM758 1405q0 24 17.5 40.5 t43.5 16.5q23 0 40.5 -17t17.5 -40q0 -25 -17.5 -43.5t-40.5 -18.5q-26 0 -43.5 18.5t-17.5 43.5z" />
<glyph unicode="&#xec;" horiz-adv-x="598" d="M274 16v1010q0 16 17 16h16q17 0 17 -16v-1010q0 -16 -17 -16h-16q-17 0 -17 16zM291 1200l-225 223q-6 9 0 19l14 20q8 12 20 0l254 -260q6 -6 3 -10t-11 -4h-24q-19 0 -31 12z" />
<glyph unicode="&#xed;" horiz-adv-x="581" d="M270 16v1010q0 16 17 16h16q16 0 16 -16v-1010q0 -16 -16 -16h-16q-17 0 -17 16zM516 1423l-223 -223q-12 -12 -31 -12h-24q-8 0 -11 4t2 10l254 260q10 13 19 0l16 -20q7 -10 -2 -19z" />
<glyph unicode="&#xee;" horiz-adv-x="598" d="M274 16v1010q0 16 17 16h16q17 0 17 -16v-1010q0 -16 -17 -16h-16q-17 0 -17 16zM297 1542h6q10 0 21 -16l237 -336q13 -16 -8 -16h-23q-19 0 -30 16l-201 293l-199 -293q-11 -16 -32 -16h-23q-19 0 -6 16l235 336q11 16 23 16z" />
<glyph unicode="&#xef;" horiz-adv-x="598" d="M274 16v1010q0 16 17 16h16q17 0 17 -16v-1010q0 -16 -17 -16h-16q-17 0 -17 16zM55 1405q0 23 17.5 40t42.5 17t42 -17t17 -40q0 -25 -17.5 -43.5t-41.5 -18.5q-25 0 -42.5 18.5t-17.5 43.5zM424 1405q0 24 17.5 40.5t43.5 16.5q23 0 40.5 -17t17.5 -40 q0 -25 -17.5 -43.5t-40.5 -18.5q-26 0 -43.5 18.5t-17.5 43.5z" />
<glyph unicode="&#xf0;" horiz-adv-x="1206" d="M868 1516l-63 -109q161 -90 228 -284.5t67 -534.5q0 -155 -27.5 -266t-89.5 -191t-165.5 -119t-250.5 -39q-151 0 -260.5 70.5t-162 185.5t-52.5 258q0 108 39.5 195t106 141.5t150.5 83.5t177 29q162 0 293.5 -92.5t190.5 -243.5q0 282 -61 475t-208 285l-147 -250 q-14 -14 -25 -6l-10 6q-16 12 -8 25l145 245q-124 33 -268 27q-16 0 -16 16v15q0 18 16 18h72q113 0 223 -29l67 111q9 15 21 8l14 -8q13 -7 4 -22zM567 23q87 0 158 18t118.5 46t84 67.5t56.5 78.5t32.5 83.5t16 77t3.5 63.5q0 108 -70.5 209t-179.5 161t-219 60 q-115 0 -211 -45.5t-155.5 -138t-59.5 -216.5q0 -92 26 -174t76.5 -147.5t134 -104t189.5 -38.5z" />
<glyph unicode="&#xf1;" horiz-adv-x="1247" d="M285 770l-2 256q0 16 -15 16h-18q-14 0 -14 -16v-473v-537q0 -16 14 -16h20q15 0 15 16v553q0 108 48.5 210.5t136 169.5t189.5 67q74 0 141 -27.5t119.5 -79t83.5 -133.5t31 -184v-576q0 -16 15 -16h20q14 0 14 16v602q0 107 -35 194t-94 141t-132 83t-152 29 q-83 0 -156.5 -34.5t-119.5 -84.5t-73.5 -96t-35.5 -80zM809 1337q67 0 101 23t63 92q6 15 11 18t17 -2l15 -6q15 -5 4 -30q-14 -30 -27 -50t-36 -44.5t-58 -37t-80 -12.5q-56 0 -95 19t-81 63q-44 44 -75.5 62t-69.5 18q-67 0 -100 -23t-62 -92q-10 -23 -31 -16l-14 6 q-13 9 -4 31q14 30 26.5 50t35.5 44t58 36.5t80 12.5q55 0 97 -22t86 -66q48 -46 74 -60t65 -14z" />
<glyph unicode="&#xf2;" horiz-adv-x="1294" d="M113 520q0 148 70.5 273t193.5 198.5t270 73.5t270 -73.5t194 -199t71 -272.5t-71 -272t-194 -198t-270 -73t-270 73t-193.5 198t-70.5 272zM647 27q133 0 245 66.5t176.5 180t64.5 246.5t-64.5 247t-177 181.5t-244.5 67.5t-244 -67.5t-176.5 -181.5t-64.5 -247 t64.5 -246.5t176 -180t244.5 -66.5zM674 1200l-225 223q-6 9 0 19l14 20q8 12 20 0l254 -260q6 -6 3 -10t-11 -4h-24q-19 0 -31 12z" />
<glyph unicode="&#xf3;" horiz-adv-x="1294" d="M113 520q0 148 70.5 273t193.5 198.5t270 73.5t270 -73.5t194 -199t71 -272.5t-71 -272t-194 -198t-270 -73t-270 73t-193.5 198t-70.5 272zM647 27q133 0 245 66.5t176.5 180t64.5 246.5t-64.5 247t-177 181.5t-244.5 67.5t-244 -67.5t-176.5 -181.5t-64.5 -247 t64.5 -246.5t176 -180t244.5 -66.5zM829 1423l-223 -223q-12 -12 -31 -12h-24q-8 0 -11 4t3 10l254 260q10 13 18 0l16 -20q7 -10 -2 -19z" />
<glyph unicode="&#xf4;" horiz-adv-x="1294" d="M113 520q0 148 70.5 273t193.5 198.5t270 73.5t270 -73.5t194 -199t71 -272.5t-71 -272t-194 -198t-270 -73t-270 73t-193.5 198t-70.5 272zM647 27q133 0 245 66.5t176.5 180t64.5 246.5t-64.5 247t-177 181.5t-244.5 67.5t-244 -67.5t-176.5 -181.5t-64.5 -247 t64.5 -246.5t176 -180t244.5 -66.5zM645 1542h6q10 0 21 -16l237 -336q13 -16 -8 -16h-22q-20 0 -31 16l-201 293l-198 -293q-11 -16 -33 -16h-23q-19 0 -6 16l236 336q11 16 22 16z" />
<glyph unicode="&#xf5;" horiz-adv-x="1294" d="M113 520q0 148 70.5 273t193.5 198.5t270 73.5t270 -73.5t194 -199t71 -272.5t-71 -272t-194 -198t-270 -73t-270 73t-193.5 198t-70.5 272zM647 27q133 0 245 66.5t176.5 180t64.5 246.5t-64.5 247t-177 181.5t-244.5 67.5t-244 -67.5t-176.5 -181.5t-64.5 -247 t64.5 -246.5t176 -180t244.5 -66.5zM803 1337q67 0 101 23t63 92q6 15 11 18t17 -2l15 -6q15 -5 4 -30q-14 -30 -27 -50t-36 -44.5t-58 -37t-80 -12.5q-56 0 -95 19t-81 63q-44 44 -75.5 62t-69.5 18q-67 0 -100 -23t-62 -92q-10 -23 -31 -16l-14 6q-13 9 -4 31 q14 30 26.5 50t35.5 44t58 36.5t80 12.5q55 0 97 -22t86 -66q48 -46 74 -60t65 -14z" />
<glyph unicode="&#xf6;" horiz-adv-x="1294" d="M113 520q0 148 70.5 273t193.5 198.5t270 73.5t270 -73.5t194 -199t71 -272.5t-71 -272t-194 -198t-270 -73t-270 73t-193.5 198t-70.5 272zM647 27q133 0 245 66.5t176.5 180t64.5 246.5t-64.5 247t-177 181.5t-244.5 67.5t-244 -67.5t-176.5 -181.5t-64.5 -247 t64.5 -246.5t176 -180t244.5 -66.5zM395 1405q0 23 17.5 40t42.5 17t42 -17t17 -40q0 -25 -17.5 -43.5t-41.5 -18.5q-25 0 -42.5 18.5t-17.5 43.5zM764 1405q0 24 17.5 40.5t43.5 16.5q23 0 40.5 -17t17.5 -40q0 -25 -17.5 -43.5t-40.5 -18.5q-26 0 -43.5 18.5t-17.5 43.5z " />
<glyph unicode="&#xf7;" horiz-adv-x="1050" d="M981 606h-903q-17 0 -17 17v12q0 18 17 18h903q16 0 16 -16v-16q0 -15 -16 -15zM467 227q0 28 16.5 45t42.5 17q29 0 46.5 -17t17.5 -45q0 -26 -17.5 -42.5t-46.5 -16.5q-26 0 -42.5 16.5t-16.5 42.5zM467 1008q0 26 16.5 43.5t42.5 17.5q27 0 45.5 -17.5t18.5 -43.5 q0 -25 -18.5 -42.5t-45.5 -17.5q-25 0 -42 17.5t-17 42.5z" />
<glyph unicode="&#xf8;" horiz-adv-x="1294" d="M113 520q0 148 70.5 273t193.5 198.5t270 73.5q123 0 213 -45l55 96q11 19 31 19h25q9 0 12 -5.5t-2 -13.5l-70 -121q121 -73 196 -196.5t75 -278.5q0 -147 -71 -272t-194 -198t-270 -73q-120 0 -239 56l-48 -105q-9 -20 -28 -20h-21q-10 0 -13.5 4.5t1.5 13.5l63 133 q-111 70 -180 195.5t-69 265.5zM647 27q133 0 245 66.5t176.5 180t64.5 246.5q0 266 -244 432l-459 -872q27 -16 86 -34.5t131 -18.5zM162 520q0 -253 221 -416l455 873q-93 39 -191 39q-132 0 -244 -67.5t-176.5 -182t-64.5 -246.5z" />
<glyph unicode="&#xf9;" horiz-adv-x="1247" d="M963 272v-256q3 -16 16 -16h18q15 0 15 16v473v537q0 16 -15 16h-20q-14 0 -14 -16v-553q0 -108 -49 -210.5t-136.5 -169t-189.5 -66.5q-74 0 -141 27.5t-119.5 79t-83.5 133.5t-31 184v575q0 16 -14 16h-21q-14 0 -14 -16v-602q0 -107 35.5 -194t94.5 -141t132 -83 t152 -29q83 0 156.5 34.5t119.5 84.5t73.5 96t35.5 80zM598 1200l-225 223q-6 9 0 19l14 20q8 13 21 0l254 -260q5 -6 2 -10t-11 -4h-24q-19 0 -31 12z" />
<glyph unicode="&#xfa;" horiz-adv-x="1247" d="M963 16v256q-8 -34 -35.5 -80t-73.5 -96t-119.5 -84.5t-156.5 -34.5q-79 0 -152 29t-132 83t-94.5 141t-35.5 194v602q0 16 14 16h21q14 0 14 -16v-575q0 -102 31 -184t83.5 -133.5t119.5 -79t141 -27.5q102 0 189.5 66.5t136.5 169t49 210.5v553q0 16 14 16h20 q15 0 15 -16v-537v-473q0 -16 -15 -16h-18q-13 0 -16 16zM768 1423l-223 -223q-12 -12 -31 -12h-25q-8 0 -11 4t3 10l254 260q10 13 19 0l16 -20q7 -10 -2 -19z" />
<glyph unicode="&#xfb;" horiz-adv-x="1247" d="M963 272v-256q3 -16 16 -16h18q15 0 15 16v473v537q0 16 -15 16h-20q-14 0 -14 -16v-553q0 -108 -49 -210.5t-136.5 -169t-189.5 -66.5q-74 0 -141 27.5t-119.5 79t-83.5 133.5t-31 184v575q0 16 -14 16h-21q-14 0 -14 -16v-602q0 -107 35.5 -194t94.5 -141t132 -83 t152 -29q83 0 156.5 34.5t119.5 84.5t73.5 96t35.5 80zM592 1542h6q9 0 20 -16l238 -336q13 -16 -8 -16h-23q-19 0 -30 16l-201 293l-199 -293q-11 -16 -33 -16h-22q-19 0 -6 16l235 336q11 16 23 16z" />
<glyph unicode="&#xfc;" horiz-adv-x="1247" d="M963 272v-256q3 -16 16 -16h18q15 0 15 16v473v537q0 16 -15 16h-20q-14 0 -14 -16v-553q0 -108 -49 -210.5t-136.5 -169t-189.5 -66.5q-74 0 -141 27.5t-119.5 79t-83.5 133.5t-31 184v575q0 16 -14 16h-21q-14 0 -14 -16v-602q0 -107 35.5 -194t94.5 -141t132 -83 t152 -29q83 0 156.5 34.5t119.5 84.5t73.5 96t35.5 80zM344 1405q0 23 17 40t42 17t42.5 -17t17.5 -40q0 -25 -17.5 -43.5t-42.5 -18.5q-24 0 -41.5 18.5t-17.5 43.5zM713 1405q0 24 17.5 40.5t43.5 16.5q23 0 40 -17t17 -40q0 -25 -17 -43.5t-40 -18.5q-26 0 -43.5 18.5 t-17.5 43.5z" />
<glyph unicode="&#xfd;" horiz-adv-x="1007" d="M504 59l420 967q7 16 24 16h25q18 0 10 -16l-625 -1427q-7 -17 -24 -17h-25q-19 0 -10 17l176 401l-452 1026q-6 16 8 16h26q16 0 23 -16l422 -967h2zM670 1423l-224 -223q-12 -12 -30 -12h-25q-8 0 -11 4t3 10l254 260q10 13 18 0l17 -20q7 -10 -2 -19z" />
<glyph unicode="&#xfe;" horiz-adv-x="1347" d="M745 0h-460v-401q0 -17 -17 -17h-16q-16 0 -16 17v1845q0 16 16 16h16q17 0 17 -16v-402h460q136 0 248.5 -67t177 -187t64.5 -268q0 -223 -141 -371.5t-349 -148.5zM285 49h454q117 0 218 56t165 165.5t64 249.5t-64 250t-165 166.5t-218 56.5h-454v-944z" />
<glyph unicode="&#xff;" horiz-adv-x="1007" d="M504 59l420 967q7 16 24 16h25q18 0 10 -16l-625 -1427q-7 -17 -24 -17h-25q-19 0 -10 17l176 401l-452 1026q-6 16 8 16h26q16 0 23 -16l422 -967h2zM246 1405q0 23 17 40t42 17t42.5 -17t17.5 -40q0 -25 -17.5 -43.5t-42.5 -18.5q-24 0 -41.5 18.5t-17.5 43.5z M614 1405q0 23 18 40t44 17q23 0 40 -17t17 -40q0 -25 -17 -43.5t-40 -18.5q-26 0 -44 18.5t-18 43.5z" />
<glyph unicode="&#x152;" horiz-adv-x="2277" d="M168 715q0 -180 89 -339.5t242 -256t330 -96.5q133 0 256 58t211.5 153t141.5 222t53 261t-53 261t-141.5 222t-211.5 153t-256 58q-132 0 -255 -58t-211.5 -153.5t-141.5 -223t-53 -261.5zM2085 700h-539q-5 -214 -110.5 -388t-286.5 -263h979q16 0 16 -16v-17 q0 -16 -16 -16h-938q-57 0 -181.5 -13.5t-179.5 -13.5q-198 0 -363 100t-259 270.5t-94 371.5q0 151 55.5 288.5t150.5 237.5t228.5 159.5t281.5 59.5q54 0 179 -13t182 -13h938q16 0 16 -17v-16q0 -17 -16 -17h-660h-319q177 -88 282.5 -256.5t114.5 -375.5h539 q16 0 16 -19v-14q0 -19 -16 -19z" />
<glyph unicode="&#x153;" horiz-adv-x="2007" d="M1053 496v-314q49 -67 158.5 -111t207.5 -44q102 0 206 36.5t169 98.5q12 12 23 0l14 -15q10 -12 -2 -24q-73 -70 -185.5 -108t-230.5 -38q-230 0 -387 154q-74 -73 -172.5 -113.5t-206.5 -40.5q-147 0 -270 73t-193.5 198t-70.5 272q0 148 70.5 273t193.5 198.5 t270 73.5q107 0 205.5 -41t173.5 -113q161 154 377 154q126 0 225 -48t158 -128t89 -176t30 -201q0 -16 -17 -16h-835zM1053 860v-317h800q0 201 -129 337t-321 136q-98 0 -193.5 -43.5t-156.5 -112.5zM1001 184v672q-66 75 -158 117.5t-196 42.5q-132 0 -244 -67.5 t-176.5 -181.5t-64.5 -247q0 -134 64 -247.5t175.5 -179.5t245.5 -66q105 0 197 41.5t157 115.5z" />
<glyph unicode="&#x178;" horiz-adv-x="1212" d="M35 1417l553 -827v-574q0 -16 16 -16h17q16 0 16 16v574l551 827q8 17 -6 17h-25q-17 0 -29 -17l-516 -764l-520 764q-10 17 -26 17h-25q-16 0 -6 -17zM330 1796q0 23 17 40t42 17t42.5 -17t17.5 -40q0 -25 -17.5 -43t-42.5 -18t-42 18t-17 43zM698 1796q0 23 18 40 t44 17q23 0 40 -17t17 -40q0 -25 -17 -43t-40 -18q-26 0 -44 18t-18 43z" />
<glyph unicode="&#x2c6;" horiz-adv-x="737" d="M367 1542h6q9 0 20 -16l238 -336q13 -16 -8 -16h-23q-20 0 -31 16l-200 293l-199 -293q-11 -16 -33 -16h-22q-19 0 -6 16l235 336q11 16 23 16z" />
<glyph unicode="&#x2dc;" horiz-adv-x="878" d="M600 1337q67 0 101 23t63 92q6 15 11.5 18t17.5 -2l14 -6q15 -5 4 -30q-14 -30 -27 -50t-36 -44.5t-58 -37t-80 -12.5q-56 0 -95 19t-81 63q-44 44 -75.5 62t-69.5 18q-67 0 -100 -23t-62 -92q-10 -23 -31 -16l-14 6q-13 9 -4 31q14 30 27 50t36 44t58 36.5t80 12.5 q55 0 96.5 -22t85.5 -66q48 -46 74 -60t65 -14z" />
<glyph unicode="&#x2000;" horiz-adv-x="1007" />
<glyph unicode="&#x2001;" horiz-adv-x="2015" />
<glyph unicode="&#x2002;" horiz-adv-x="1007" />
<glyph unicode="&#x2003;" horiz-adv-x="2015" />
<glyph unicode="&#x2004;" horiz-adv-x="671" />
<glyph unicode="&#x2005;" horiz-adv-x="503" />
<glyph unicode="&#x2006;" horiz-adv-x="335" />
<glyph unicode="&#x2007;" horiz-adv-x="335" />
<glyph unicode="&#x2008;" horiz-adv-x="251" />
<glyph unicode="&#x2009;" horiz-adv-x="403" />
<glyph unicode="&#x200a;" horiz-adv-x="111" />
<glyph unicode="&#x2010;" horiz-adv-x="876" d="M721 559h-565q-17 0 -17 19v12q0 18 17 18h565q16 0 16 -16v-17q0 -16 -16 -16z" />
<glyph unicode="&#x2011;" horiz-adv-x="876" d="M721 559h-565q-17 0 -17 19v12q0 18 17 18h565q16 0 16 -16v-17q0 -16 -16 -16z" />
<glyph unicode="&#x2012;" horiz-adv-x="876" d="M721 559h-565q-17 0 -17 19v12q0 18 17 18h565q16 0 16 -16v-17q0 -16 -16 -16z" />
<glyph unicode="&#x2013;" horiz-adv-x="778" d="M678 559h-580q-16 0 -16 16v13q0 18 16 18h580q16 0 16 -16v-17q0 -14 -16 -14z" />
<glyph unicode="&#x2014;" horiz-adv-x="1124" d="M1024 559h-926q-16 0 -16 16v13q0 18 16 18h926q16 0 16 -16v-17q0 -14 -16 -14z" />
<glyph unicode="&#x2018;" horiz-adv-x="512" d="M233 1147h23q31 0 51.5 -20.5t20.5 -51.5q0 -29 -20 -49t-52 -20q-29 0 -49.5 22.5t-20.5 61.5q0 140 39 221.5t137 142.5q12 8 17 0l12 -16q6 -9 -4 -17q-150 -98 -154 -274z" />
<glyph unicode="&#x2019;" horiz-adv-x="512" d="M279 1319h-23q-29 0 -49.5 20.5t-20.5 49.5q0 30 20 50.5t50 20.5q31 0 51.5 -22t20.5 -62q0 -139 -40 -220.5t-138 -143.5q-12 -8 -17 0l-10 16q-6 9 4 16q152 99 152 275z" />
<glyph unicode="&#x201a;" horiz-adv-x="512" d="M279 -23h-23q-29 0 -49.5 20.5t-20.5 51.5q0 28 20 49t50 21q31 0 51.5 -22t20.5 -62q0 -140 -40 -222t-138 -143q-12 -8 -17 0l-10 17q-6 9 4 16q152 99 152 274z" />
<glyph unicode="&#x201c;" horiz-adv-x="864" d="M586 1149h22q29 0 49.5 -20.5t20.5 -51.5q0 -28 -20 -48.5t-50 -20.5q-31 0 -51 22t-20 62q0 139 40 220.5t138 143.5q11 7 16 0l10 -16q6 -9 -4 -17q-151 -98 -151 -274zM233 1149h23q31 0 51.5 -20.5t20.5 -51.5q0 -29 -20 -49t-52 -20q-29 0 -49.5 22.5t-20.5 61.5 q0 140 39 221.5t137 142.5q12 8 17 0l12 -16q6 -9 -4 -17q-150 -98 -154 -274z" />
<glyph unicode="&#x201d;" horiz-adv-x="864" d="M279 1319h-23q-29 0 -49.5 20.5t-20.5 49.5q0 30 20 50.5t50 20.5q31 0 51.5 -22t20.5 -62q0 -139 -40 -220.5t-138 -143.5q-12 -8 -17 0l-10 16q-6 9 4 16q152 99 152 275zM631 1319h-23q-30 0 -50.5 20.5t-20.5 49.5q0 30 19.5 50.5t51.5 20.5q29 0 49.5 -22.5 t20.5 -61.5q0 -140 -39 -221.5t-137 -142.5q-12 -8 -17 0l-12 16q-6 9 4 16q154 100 154 275z" />
<glyph unicode="&#x201e;" horiz-adv-x="864" d="M279 -23h-23q-29 0 -49.5 20.5t-20.5 51.5q0 28 20 49t50 21q31 0 51.5 -22t20.5 -62q0 -140 -40 -222t-138 -143q-12 -8 -17 0l-10 17q-6 9 4 16q152 99 152 274zM631 -23h-23q-31 0 -51 20.5t-20 51.5q0 29 20 49.5t51 20.5q29 0 49.5 -22.5t20.5 -61.5 q0 -140 -39 -222t-137 -143q-12 -8 -17 0l-12 17q-6 9 4 16q154 100 154 274z" />
<glyph unicode="&#x2022;" horiz-adv-x="364" d="M102 702q0 33 23.5 56.5t58.5 23.5q32 0 55 -24t23 -56q0 -34 -23 -57.5t-55 -23.5q-35 0 -58.5 23.5t-23.5 57.5z" />
<glyph unicode="&#x2026;" horiz-adv-x="1499" d="M186 49q0 29 20.5 49.5t49.5 20.5q31 0 51.5 -20.5t20.5 -49.5q0 -31 -20.5 -51.5t-51.5 -20.5q-29 0 -49.5 20.5t-20.5 51.5zM680 49q0 29 20.5 49.5t49.5 20.5q30 0 50.5 -20.5t20.5 -49.5q0 -31 -20 -51.5t-51 -20.5q-29 0 -49.5 20.5t-20.5 51.5zM1174 49 q0 29 20 49.5t49 20.5q31 0 51.5 -20.5t20.5 -49.5q0 -31 -20.5 -51.5t-51.5 -20.5q-29 0 -49 20.5t-20 51.5z" />
<glyph unicode="&#x202f;" horiz-adv-x="403" />
<glyph unicode="&#x2039;" horiz-adv-x="653" d="M129 565l354 385q10 10 19 4l22 -12q13 -6 0 -16l-366 -406l366 -405q14 -10 0 -17l-22 -12q-9 -6 -19 4l-354 385q-27 30 -27 41v8q0 10 27 41z" />
<glyph unicode="&#x203a;" horiz-adv-x="653" d="M172 950l352 -385q29 -29 29 -41v-8q0 -12 -29 -41l-352 -385q-12 -9 -20 -4l-23 12q-10 7 0 17l367 405l-367 406q-10 10 0 16l23 12q8 5 20 -4z" />
<glyph unicode="&#x205f;" horiz-adv-x="503" />
<glyph unicode="&#x20ac;" horiz-adv-x="1245" d="M963 524h-713q16 -63 47 -127.5t84.5 -133t119 -121t158.5 -86t197 -33.5q52 0 139.5 15t124.5 34q11 6 19 -6l10 -21q6 -10 -6 -16q-112 -56 -287 -56q-244 0 -430 158t-229 393h-160q-17 0 -17 17v14q0 16 17 16h149q-12 78 -12 146l6 110h-143q-17 0 -17 17v12 q0 18 17 18h151q22 124 81.5 231.5t146 186t200.5 123.5t240 45q153 0 287 -55q13 -5 8 -19l-8 -22q-5 -11 -19 -4q-40 20 -120 35.5t-148 15.5q-105 0 -197 -32.5t-158.5 -85.5t-120 -124.5t-86.5 -144.5t-52 -150h721q16 0 16 -16v-16q0 -15 -16 -15h-730l-8 -110 q0 -15 15 -146h723q16 0 16 -16v-16q0 -15 -16 -15z" />
<glyph unicode="&#x2122;" horiz-adv-x="1794" d="M27 1434h635q6 0 6 -9v-30q0 -11 -6 -11h-293v-731q0 -8 -11 -8h-26q-10 0 -10 8v731h-295q-7 0 -7 11v30q0 9 7 9zM1606 1337l-340 -696q-3 -8 -17 -8h-2q-13 0 -16 8l-338 698l-78 -684q0 -10 -10 -10h-29q-9 0 -6 10l92 785q2 10 8 10h7q9 0 14 -10l356 -740l359 740 q5 10 14 10h6q6 0 8 -10l92 -785q3 -10 -6 -10h-28q-9 0 -9 10z" />
<glyph unicode="&#x25fc;" horiz-adv-x="1044" d="M0 1044h1044v-1044h-1044v1044z" />
</font>
</defs>
</svg>
