<?xml version="1.0" standalone="no"?>
<!DOCTYPE svg PUBLIC "-//W3C//DTD SVG 1.1//EN" "http://www.w3.org/Graphics/SVG/1.1/DTD/svg11.dtd" >
<svg xmlns="http://www.w3.org/2000/svg">
<metadata></metadata>
<defs>
<font id="acherus_grotesquebold_italic" horiz-adv-x="1304" >
<font-face units-per-em="2048" ascent="1638" descent="-410" />
<missing-glyph horiz-adv-x="518" />
<glyph unicode="&#xfb01;" horiz-adv-x="1400" d="M971 854h-512l-127 -811q-5 -25 -16 -34t-37 -9h-144q-26 0 -34 9t-3 34l129 811h-127q-25 0 -33 8.5t-4 34.5l17 102q5 25 15 34t36 9h125l8 60q36 220 154 338.5t317 118.5q109 0 183 -48q16 -10 18 -21t-6 -34l-35 -102q-10 -31 -21 -35t-38 10q-46 21 -111 21 q-95 0 -150.5 -61t-76.5 -197l-9 -50h701q26 0 34 -9t3 -34l-152 -956q-5 -25 -15 -34t-36 -9h-145q-26 0 -34 9t-3 34zM1024 1368q9 60 56.5 102.5t107.5 42.5t96 -42.5t27 -102.5q-9 -59 -58 -100t-110 -41q-60 0 -94.5 40.5t-24.5 100.5z" />
<glyph unicode="&#xfb03;" horiz-adv-x="2086" d="M1657 854h-512l-127 -811q-4 -25 -15 -34t-36 -9h-146q-26 0 -33 9t-2 34l127 811h-454l-127 -811q-5 -25 -16 -34t-37 -9h-144q-26 0 -34 9t-3 34l129 811h-127q-25 0 -33 8.5t-4 34.5l17 102q5 25 15 34t36 9h125l8 60q36 220 154 338.5t317 118.5q109 0 183 -48 q16 -10 18 -21t-6 -34l-35 -102q-10 -31 -21 -35t-38 10q-46 21 -111 21q-95 0 -150.5 -61t-76.5 -197l-9 -50h455l8 60q36 220 153.5 338.5t315.5 118.5q112 0 183 -48q16 -10 18 -21t-6 -34l-35 -102q-10 -31 -21 -35t-38 10q-46 21 -109 21q-97 0 -152.5 -61t-76.5 -197 l-8 -50h700q26 0 34 -9t5 -34l-152 -956q-5 -25 -16 -34t-37 -9h-145q-26 0 -33 9t-2 34zM1710 1368q9 60 57.5 102.5t108.5 42.5q59 0 95 -42.5t26 -102.5q-9 -59 -58 -100t-110 -41q-60 0 -94 40.5t-25 100.5z" />
<glyph horiz-adv-x="0" />
<glyph horiz-adv-x="682" />
<glyph horiz-adv-x="0" />
<glyph horiz-adv-x="0" />
<glyph unicode="&#xd;" horiz-adv-x="518" />
<glyph unicode=" "  horiz-adv-x="518" />
<glyph unicode="&#x09;" horiz-adv-x="518" />
<glyph unicode="&#xa0;" horiz-adv-x="518" />
<glyph unicode="!" horiz-adv-x="696" d="M209 541l104 850q3 25 13.5 34t35.5 9h201q26 0 33 -9t4 -34l-166 -850q-6 -25 -16.5 -34t-36.5 -9h-135q-25 0 -32 8.5t-5 34.5zM100 131q9 66 61.5 112t117.5 46q66 0 104.5 -46t28.5 -112q-9 -64 -63 -109t-120 -45q-64 0 -101 44.5t-28 109.5z" />
<glyph unicode="&#x22;" horiz-adv-x="798" d="M80 950l72 441q3 25 13.5 34t35.5 9h133q57 0 31 -54l-148 -444q-10 -29 -43 -29h-57q-25 0 -32.5 8.5t-4.5 34.5zM446 950l72 441q3 25 13.5 34t35.5 9h133q30 0 36.5 -14.5t-5.5 -39.5l-147 -444q-10 -29 -43 -29h-58q-25 0 -32.5 8.5t-4.5 34.5z" />
<glyph unicode="#" horiz-adv-x="1722" d="M303 1075h348l131 322q11 21 24.5 29t37.5 8h80q29 0 37 -10t-3 -33l-131 -316h367l133 322q16 37 59 37h82q28 0 36 -10t-3 -33l-131 -316h303q25 0 33 -8.5t4 -34.5l-14 -86q-4 -26 -14.5 -34.5t-36.5 -8.5h-345l-153 -368h313q26 0 34 -9t5 -34l-14 -86 q-5 -27 -15 -36.5t-36 -9.5h-359l-135 -323q-10 -23 -22 -30t-37 -7h-86q-27 0 -34 10t5 33l131 317h-367l-133 -323q-12 -24 -23.5 -30.5t-37.5 -6.5h-84q-27 0 -34 10t3 33l133 317h-288q-25 0 -32.5 10t-4.5 36l14 86q3 25 13.5 34t35.5 9h334l152 368h-302 q-24 0 -31.5 9t-4.5 34l14 86q3 25 13.5 34t35.5 9zM758 903l-156 -368h367l153 368h-364z" />
<glyph unicode="$" horiz-adv-x="1259" d="M414 -145l18 127q-247 18 -428 151q-33 21 -2 62l80 102q16 23 28 27.5t33 -9.5q139 -104 324 -118l68 421q-71 10 -129.5 25t-118 45t-96.5 70.5t-55 104.5t-5 145q11 73 50 145t103 137t163.5 109.5t218.5 54.5l18 115q5 27 15 36t36 9h47q26 0 34 -9.5t3 -35.5 l-18 -115q115 -8 211 -47t196 -107q10 -6 14.5 -12t3.5 -14t-4.5 -15.5t-11.5 -19.5l-77 -100q-16 -24 -29.5 -29t-34.5 8q-149 111 -303 119l-66 -416q41 -5 76 -11.5t74.5 -16.5t70.5 -23t64 -31t55 -40.5t43.5 -52t29.5 -64.5t13 -78t-6 -94q-18 -110 -86 -203t-190 -156 t-277 -71l-20 -125q-5 -27 -15 -36t-36 -9h-47q-25 0 -32 9.5t-3 35.5zM879 399q13 85 -40.5 129.5t-172.5 69.5l-64 -401q69 5 124.5 25t98.5 65.5t54 111.5zM373 1016q-6 -40 7.5 -71t44.5 -51.5t65.5 -33t78.5 -20.5l62 393q-124 -14 -185.5 -76.5t-72.5 -140.5z" />
<glyph unicode="%" horiz-adv-x="1767" d="M418 727q-158 0 -238 95.5t-51 271.5q27 176 137.5 271t268.5 95q157 0 237 -95.5t53 -270.5q-29 -175 -139.5 -271t-267.5 -96zM440 866q82 0 140 62t75 166q15 104 -22.5 164.5t-120.5 60.5t-140.5 -61t-72.5 -164q-17 -104 20.5 -166t120.5 -62zM1565 1391 l-1176 -1358q-14 -19 -26.5 -26t-34.5 -7h-109q-31 0 -36.5 10t14.5 33l1175 1358q16 20 28 26.5t34 6.5h110q61 0 21 -43zM1231 -4q-158 0 -238 95t-53 271q29 176 139.5 271.5t268.5 95.5q157 0 237 -96t51 -271q-27 -175 -137.5 -270.5t-267.5 -95.5zM1253 135 q83 0 140.5 62t72.5 165q17 103 -20.5 164.5t-120.5 61.5q-84 0 -141 -61t-74 -165q-15 -104 22 -165.5t121 -61.5z" />
<glyph unicode="&#x26;" horiz-adv-x="1574" d="M811 377l-207 250q-298 -93 -319 -234q-15 -101 39 -156t172 -55q46 0 92 17.5t89 51.5t70 60t64 66zM672 860l10 -10q87 32 164 98t88 139q12 77 -35 126t-133 49q-84 0 -139.5 -48.5t-67.5 -126.5q-15 -92 113 -227zM1446 618q-17 -11 -80 -49.5t-92 -57.5t-79 -56.5 t-93 -75.5l293 -334q18 -20 12 -32.5t-33 -12.5h-223q-17 0 -30 7.5t-18 12.5t-22 25l-159 186q-49 -47 -88 -80.5t-89.5 -69.5t-96 -58t-101.5 -36t-113 -14q-222 0 -328 116.5t-77 299.5q10 66 41.5 122t72.5 94.5t99.5 72t111 54t117.5 40.5v2q-169 180 -145 350 q9 59 42.5 116.5t89.5 107.5t144.5 81t194.5 31t187 -31t124 -81t61 -108t9 -116q-13 -80 -55.5 -150t-102 -119.5t-109.5 -80.5t-104 -55l174 -197q103 97 360 256q20 14 32.5 13t25.5 -19l65 -96q28 -36 -18 -58z" />
<glyph unicode="'" horiz-adv-x="421" d="M63 950l72 441q3 25 13.5 34t35.5 9h133q54 0 31 -54l-147 -444q-7 -17 -16.5 -23t-28.5 -6h-56q-25 0 -33 8.5t-4 34.5z" />
<glyph unicode="(" horiz-adv-x="821" d="M70 590q46 292 221 510.5t442 349.5q26 13 40 8.5t22 -26.5l45 -113q20 -48 -41 -76q-199 -92 -329 -261.5t-165 -391.5q-35 -224 41 -395t246 -258q56 -27 18 -76l-82 -113q-30 -41 -67 -18q-226 130 -332.5 349t-58.5 511z" />
<glyph unicode=")" horiz-adv-x="821" d="M776 590q-48 -293 -223.5 -512t-441.5 -348q-46 -24 -62 18l-45 113q-18 49 41 76q199 89 329 259t165 394t-40.5 394t-244.5 259q-58 28 -21 76l82 113q31 41 68 18q226 -131 332.5 -349.5t60.5 -510.5z" />
<glyph unicode="*" horiz-adv-x="894" d="M88 961l215 88l-186 88q-21 10 -22.5 23t14.5 36l45 66q15 23 28 26.5t33 -8.5l186 -125l21 240q3 24 14.5 33.5t36.5 9.5h74q26 0 34 -9.5t1 -33.5l-54 -238l224 125q16 9 26 10t17 -5.5t12 -22.5l24 -66q9 -23 3.5 -35.5t-31.5 -21.5l-213 -90l190 -86q38 -16 8 -60 l-45 -65q-16 -23 -28 -27.5t-33 6.5l-188 125l-21 -244q-1 -24 -13 -33.5t-38 -9.5h-72q-27 0 -35 9.5t-2 33.5l54 244l-228 -127q-41 -25 -55 19l-25 63q-8 23 -2 37.5t31 24.5z" />
<glyph unicode="+" horiz-adv-x="1032" d="M668 995l-43 -272h274q26 0 33 -9t4 -36l-16 -103q-3 -26 -13.5 -34.5t-36.5 -8.5h-274l-45 -276q-3 -26 -13.5 -34.5t-35.5 -8.5h-103q-26 0 -34 8.5t-5 34.5l46 276h-275q-26 0 -34 8.5t-5 34.5l17 103q4 26 15 35.5t36 9.5h274l43 272q5 25 15 34t36 9h103q26 0 34 -9 t3 -34z" />
<glyph unicode="," horiz-adv-x="577" d="M289 -16h-8q-64 0 -101 45t-28 110q11 65 64 111.5t118 46.5q73 0 110.5 -56t22.5 -153q-24 -143 -121 -256t-227 -172q-20 -10 -29 4l-31 66q-5 16 15 26q168 97 215 228z" />
<glyph unicode="-" horiz-adv-x="878" d="M707 489h-566q-25 0 -33 9.5t-4 33.5l17 97q3 26 13.5 34.5t35.5 8.5h565q26 0 33.5 -8.5t3.5 -34.5l-16 -97q-3 -25 -13 -34t-36 -9z" />
<glyph unicode="." horiz-adv-x="569" d="M127 133q11 66 62.5 112t117.5 46t104.5 -46t28.5 -112t-64 -111t-120 -45t-103 45t-26 111z" />
<glyph unicode="/" horiz-adv-x="856" d="M885 1391l-680 -1354q-11 -23 -24 -30t-40 -7h-131q-26 0 -32.5 10t4.5 33l677 1354q19 37 64 37h127q30 0 38.5 -10t-3.5 -33z" />
<glyph unicode="0" horiz-adv-x="1351" d="M346 717q-13 -83 -15 -156t10.5 -142.5t41 -119t82 -79.5t127.5 -30t136.5 30t107 79.5t79.5 119t56 142.5t35 156q10 68 12.5 129.5t-2.5 122t-23.5 109t-48 86.5t-77 58.5t-109.5 20.5q-74 0 -136.5 -30t-106.5 -80t-79 -119t-56 -142t-34 -155zM96 717q19 124 58 234 t100.5 203.5t139.5 161.5t180.5 106t218.5 38q97 0 176.5 -26.5t134 -75.5t93 -116.5t55 -150.5t19 -177.5t-15.5 -196.5q-25 -156 -81.5 -289t-142.5 -235.5t-207.5 -161t-266.5 -58.5q-116 0 -206.5 38t-146 106t-89 161.5t-35 204.5t15.5 234z" />
<glyph unicode="1" horiz-adv-x="778" d="M172 1235l287 158q74 41 100 41h98q25 0 32.5 -9t4.5 -34l-215 -1348q-3 -25 -13.5 -34t-35.5 -9h-162q-25 0 -32.5 9t-4.5 34l172 1081l-237 -55q-25 -1 -32.5 7.5t-4.5 33.5l12 78q6 32 31 47z" />
<glyph unicode="2" horiz-adv-x="1144" d="M961 805l-574 -594h553q26 0 33 -8.5t4 -34.5l-21 -125q-3 -25 -13.5 -34t-35.5 -9h-936q-17 0 -14 18l4 25q2 14 25 37l790 821q75 77 85 157.5t-46.5 132.5t-161.5 52q-195 0 -366 -151q-22 -19 -34.5 -17.5t-25.5 21.5l-71 94q-16 20 -16.5 30.5t20.5 30.5 q246 209 528 209q105 0 188.5 -29t135 -78t76.5 -115t20 -138t-42.5 -149t-104.5 -146z" />
<glyph unicode="3" horiz-adv-x="1198" d="M586 627h-207q-26 0 -34 8.5t-5 34.5l18 112q5 26 15.5 35.5t36.5 9.5h194q125 0 194.5 57.5t80.5 127.5q17 110 -44 170.5t-190 60.5q-98 0 -171 -37.5t-152 -111.5q-34 -32 -62 4l-67 92q-15 18 -14.5 30.5t20.5 30.5q123 105 232.5 157t248.5 52q72 0 140.5 -15 t130.5 -48.5t105.5 -82t63.5 -121t6 -159.5q-17 -106 -88 -186.5t-159 -120.5v-2q222 -93 186 -319q-17 -109 -72.5 -193t-139.5 -136t-187 -78t-222 -26q-265 0 -442 209q-12 20 -9.5 31t21.5 31l99 90q20 19 33.5 20t27.5 -16q62 -72 131.5 -110t173.5 -38q162 0 243.5 60 t100.5 178q12 85 -51 142t-186 57z" />
<glyph unicode="4" horiz-adv-x="1325" d="M899 1434h193q26 0 33.5 -9t2.5 -34l-139 -873h187q25 0 32.5 -9.5t3.5 -35.5l-16 -104q-3 -25 -14 -34t-37 -9h-184l-46 -283q-5 -25 -15 -34t-36 -9h-145q-26 0 -34 9t-3 34l45 283h-661q-25 0 -32.5 9t-4.5 34l18 112q3 25 10 38t29 36l778 862q13 17 35 17zM854 1126 l-553 -608h455z" />
<glyph unicode="5" horiz-adv-x="1185" d="M381 1434h698q25 0 33 -9.5t4 -33.5l-20 -125q-3 -26 -14 -35.5t-38 -9.5h-548l-99 -332h209q63 0 117.5 -6t106.5 -20t92 -37.5t73.5 -57.5t50.5 -79.5t24 -105.5t-7 -134q-15 -97 -55 -176t-98.5 -134.5t-133.5 -93t-159.5 -55t-178.5 -17.5q-142 0 -248.5 54 t-193.5 157q-12 19 -9.5 29.5t21.5 30.5l98 90q37 37 60 4q43 -47 77.5 -75.5t94.5 -50.5t135 -22q154 0 238 60.5t106 189.5q19 116 -46 174t-216 58h-385q-25 0 -34 9.5t-3 33.5l197 676q8 27 16.5 35t34.5 8z" />
<glyph unicode="6" horiz-adv-x="1265" d="M758 936q93 0 169.5 -29t131 -83.5t77 -141.5t5.5 -195q-17 -105 -68.5 -199t-127.5 -163.5t-179.5 -110.5t-218.5 -41q-112 0 -197 25.5t-138.5 74t-86.5 110.5t-44 142.5t-8.5 162t17.5 176.5q21 132 56.5 244.5t94.5 216.5t136 176.5t186 115.5t240 43q134 0 234 -44 t188 -138q13 -20 9.5 -31.5t-24.5 -32.5l-102 -94q-21 -19 -34.5 -20.5t-31.5 16.5q-61 70 -126.5 98.5t-165.5 28.5q-157 0 -262 -137t-142 -363q138 193 412 193zM567 182q130 0 217.5 82t108.5 207q18 118 -51.5 193t-186.5 75q-121 0 -219 -81.5t-117 -194.5 q-3 -35 -2 -73t18.5 -75.5t44.5 -67t75.5 -47.5t111.5 -18z" />
<glyph unicode="7" horiz-adv-x="1159" d="M1249 1401l-2 -8q-3 -21 -26 -54l-942 -1298q-18 -23 -34.5 -32t-43.5 -9h-168q-25 0 -34.5 10t1.5 33l844 1163h-662q-25 2 -32 10.5t-3 32.5l21 142q5 25 15 34t36 9h1000q20 0 26.5 -7.5t3.5 -25.5z" />
<glyph unicode="8" horiz-adv-x="1232" d="M498 -27q-130 0 -227.5 32.5t-153 89t-77 131t-7.5 161.5q9 60 38 115t64.5 92.5t76.5 68t71.5 46t52.5 22.5l2 8q-16 8 -36 21.5t-48.5 42t-49 62t-31 83.5t-1.5 105q29 181 173.5 294t389.5 113q123 0 213.5 -31t141.5 -86.5t70 -129t5 -160.5q-11 -67 -46 -126 t-80.5 -97t-79 -59.5t-58.5 -31.5l-2 -8q21 -7 47 -22.5t57.5 -46t55 -68t35 -92.5t2.5 -115q-14 -87 -59 -161.5t-118 -131.5t-181.5 -89t-239.5 -32zM604 641q-85 -13 -153.5 -42.5t-117 -80.5t-59.5 -117q-14 -96 51.5 -157.5t206.5 -61.5q142 0 226 61.5t98 157.5 q16 98 -55 159t-197 81zM700 1251q-119 0 -196.5 -59.5t-91.5 -153.5q-13 -86 47.5 -141t173.5 -70q121 15 199.5 70t91.5 141q14 94 -46 153.5t-178 59.5z" />
<glyph unicode="9" horiz-adv-x="1261" d="M510 498q-93 0 -169.5 29t-131 83.5t-77 141t-5.5 194.5q17 105 68 198.5t127 163.5t179 111t218 41q135 0 230.5 -38t147.5 -100.5t76 -154t23.5 -186.5t-18.5 -211q-21 -132 -56.5 -245t-94.5 -216.5t-136 -176.5t-186 -116t-240 -43q-134 0 -238 47t-190 142 q-14 19 -11 29t25 32l101 94q24 20 35 22t30 -17q62 -70 131.5 -101t169.5 -31q156 0 260.5 137t141.5 363q-137 -192 -410 -192zM698 1251q-129 0 -215.5 -82t-107.5 -206q-18 -118 50.5 -193.5t186.5 -75.5q119 0 218 82t118 195q6 28 2.5 60t-11 63t-27.5 59.5t-47.5 50 t-70.5 34.5t-96 13z" />
<glyph unicode=":" horiz-adv-x="569" d="M70 133q11 65 64 111.5t118 46.5q66 0 105 -46.5t28 -111.5q-10 -66 -64 -111t-120 -45t-103 45t-28 111zM180 831q12 66 64 112t118 46t105 -46t29 -112q-10 -65 -64 -110t-121 -45q-66 0 -103 44.5t-28 110.5z" />
<glyph unicode=";" horiz-adv-x="577" d="M207 831q11 66 63.5 112t118.5 46t104.5 -46t28.5 -112t-64 -110.5t-120 -44.5t-103 44.5t-28 110.5zM233 -23h-8q-64 1 -101 46t-28 110q11 65 64 111.5t119 46.5q73 0 110.5 -55.5t22.5 -151.5q-23 -143 -120.5 -256t-228.5 -174q-21 -7 -28 4l-29 66q-5 16 12 28 q168 94 215 225z" />
<glyph unicode="&#x3c;" horiz-adv-x="1144" d="M27 719v4q5 34 49 51l1009 500q26 11 35 7t6 -26l-20 -135q-9 -42 -53 -59l-697 -342l588 -340q40 -21 35 -60l-23 -137q-3 -20 -13 -24t-32 6l-852 502q-35 18 -32 53z" />
<glyph unicode="=" horiz-adv-x="980" d="M840 731h-666q-26 0 -34 9.5t-3 35.5l15 94q5 27 15 36t36 9h665q26 0 34 -9.5t3 -35.5l-14 -96q-5 -25 -15 -34t-36 -9zM776 330h-665q-26 0 -33.5 8.5t-3.5 34.5l14 96q3 25 14 34t37 9h666q25 0 32.5 -9t4.5 -34l-15 -96q-4 -26 -14.5 -34.5t-36.5 -8.5z" />
<glyph unicode="&#x3e;" horiz-adv-x="1144" d="M1118 723v-4q0 -13 -13.5 -28t-37.5 -25l-1010 -502q-26 -10 -35 -6t-6 24l21 137q8 40 55 60l696 340l-589 342q-40 19 -35 59l24 135q1 21 12 25.5t33 -6.5l850 -498q22 -11 29 -22t6 -31z" />
<glyph unicode="?" horiz-adv-x="1081" d="M420 756q209 36 318.5 94t127.5 160q15 105 -57.5 167t-220.5 62q-165 0 -373 -129q-25 -14 -35 -9.5t-20 27.5l-45 103q-9 21 -6 35.5t26 25.5q136 80 250.5 122t251.5 42q82 0 151 -13.5t118.5 -38t89.5 -57.5t62.5 -71.5t38 -81t16 -86t-4.5 -86.5q-12 -75 -45 -134.5 t-78 -100t-111.5 -73t-133 -52.5t-154.5 -39l-17 -111q-4 -26 -14.5 -34.5t-36.5 -8.5h-129q-25 0 -33 8.5t-4 34.5l35 213q3 28 33 31zM240 131q12 67 64 113.5t116 46.5q66 0 105.5 -47t29.5 -113q-11 -65 -64.5 -110.5t-119.5 -45.5q-65 0 -102.5 45.5t-28.5 110.5z" />
<glyph unicode="@" horiz-adv-x="2215" d="M1917 539q25 155 2 277t-82.5 212t-153 148.5t-209 87.5t-251.5 30q-178 0 -337.5 -58t-279 -160t-200 -245t-107.5 -311q-36 -223 33.5 -399t228 -274.5t377.5 -98.5q57 0 126.5 13.5t119.5 33.5q22 9 32.5 11t17 -3.5t7.5 -21.5l6 -100q2 -28 -4.5 -41t-32.5 -27 q-136 -57 -303 -57q-210 0 -379 75.5t-274 205t-148.5 306.5t-13.5 377q26 160 94.5 306.5t175.5 266t242 208.5t302 137.5t347 48.5q171 0 318 -39.5t262 -116.5t190 -191.5t102.5 -264.5t-1.5 -336q-16 -101 -40.5 -190t-65 -176.5t-91.5 -149.5t-123 -100.5t-157 -37.5 q-104 0 -175 54.5t-98 166.5l-16 70q-39 -39 -74.5 -68t-88.5 -62t-117.5 -51t-135.5 -18q-136 0 -231 75t-132.5 198.5t-13.5 269.5q23 149 100 273t196 198t255 74q70 0 128.5 -22t96.5 -57.5t58.5 -62t34.5 -53.5l53 138q24 34 51 34h102q25 0 32.5 -9t4.5 -34l-116 -723 q-17 -103 10 -154.5t90 -51.5q54 0 97 34.5t72.5 101.5t49.5 146.5t37 186.5zM1028 182q126 0 224 99.5t120 238.5q22 138 -45 237t-192 99q-126 0 -224.5 -98t-122.5 -238q-23 -146 44.5 -242t195.5 -96z" />
<glyph unicode="A" horiz-adv-x="1499" d="M803 1044h-4l-320 -509h479zM899 1423l473 -1380q6 -15 -5 -29t-30 -14h-190q-21 0 -30.5 8.5t-18.5 34.5l-88 281h-648l-178 -281q-18 -26 -29.5 -34.5t-33.5 -8.5h-189q-18 0 -24.5 14t4.5 29l909 1380q2 3 7 10t7 9.5t5.5 7t5.5 6.5t5.5 4t6.5 3t6 1h6q9 0 14.5 -8.5 t12.5 -26.5q1 -4 2 -6z" />
<glyph unicode="B" horiz-adv-x="1372" d="M664 0h-560q-25 0 -32.5 8.5t-3.5 34.5l213 1348q5 25 15 34t36 9h508q74 0 141 -12t130.5 -41.5t106.5 -74t63.5 -114t6.5 -156.5q-30 -194 -250 -297v-2q21 -9 40.5 -20t43.5 -28t42.5 -37t37 -46.5t27.5 -57t14 -69.5t-4 -82q-16 -107 -70 -186t-134 -124t-172.5 -66 t-198.5 -21zM340 207h344q144 0 219 53.5t90 159.5q15 88 -49 148.5t-184 60.5h-352zM438 827h318q116 0 193 53t89 132q17 109 -44.5 162t-196.5 53h-293z" />
<glyph unicode="C" horiz-adv-x="1458" d="M745 190q220 0 406 164q21 18 33 16.5t26 -20.5l78 -102q15 -19 14 -32.5t-22 -31.5q-114 -97 -267 -154t-302 -57q-148 0 -274 59.5t-209 159t-120 237.5t-14 288q34 213 155.5 383t304.5 265t392 95q149 0 285 -57t219 -154q13 -18 10 -29t-24 -32l-101 -94 q-21 -18 -34 -19.5t-29 15.5q-56 73 -149 113t-212 40q-101 0 -198.5 -44t-172.5 -116t-127 -168t-67 -198q-21 -134 19 -254t140 -196.5t240 -76.5z" />
<glyph unicode="D" horiz-adv-x="1552" d="M334 1434h514q149 0 274 -55t206.5 -150t117 -228.5t12.5 -283.5q-31 -201 -151.5 -365.5t-301.5 -258t-384 -93.5h-515q-24 0 -31.5 9t-4.5 34l215 1348q3 25 13.5 34t35.5 9zM813 1227h-307l-162 -1020h307q111 0 209 42t167.5 113.5t116 162.5t62.5 192q15 101 -3 193 t-66 162.5t-132 112.5t-192 42z" />
<glyph unicode="E" d="M1024 0h-920q-26 0 -33.5 9t-2.5 34l213 1348q4 25 15 34t36 9h919q25 0 33 -9.5t4 -33.5l-20 -125q-3 -26 -13.5 -35.5t-35.5 -9.5h-717l-62 -394h684q26 0 33.5 -8.5t3.5 -34.5l-18 -125q-4 -25 -15 -34t-36 -9h-686l-64 -405h717q25 0 32.5 -8.5t4.5 -34.5l-21 -125 q-5 -25 -15 -34t-36 -9z" />
<glyph unicode="F" horiz-adv-x="1275" d="M410 616l-93 -573q-3 -25 -13.5 -34t-35.5 -9h-162q-24 0 -31.5 9t-4.5 34l215 1348q3 25 13.5 34t35.5 9h919q26 0 34 -9t5 -34l-20 -125q-6 -27 -16.5 -36t-34.5 -9h-717l-62 -394h697q26 0 34 -9t3 -34l-21 -125q-3 -25 -13.5 -34t-35.5 -9h-696z" />
<glyph unicode="G" horiz-adv-x="1533" d="M909 1243q-102 0 -199.5 -44t-171.5 -116.5t-125.5 -168t-66.5 -197.5q-15 -100 4.5 -194.5t69 -168.5t133.5 -119t190 -45q194 0 355 113l41 256h-295q-25 0 -33 8.5t-4 34.5l18 125q4 25 15.5 34t36.5 9h499q25 0 32.5 -9t2.5 -34l-74 -465q-5 -39 -43 -74 q-118 -99 -276 -157t-309 -58q-147 0 -273 59.5t-208.5 159t-119.5 237.5t-14 288q34 213 155 383t303.5 265t391.5 95q148 0 282.5 -56.5t221.5 -152.5q13 -19 10 -30.5t-24 -32.5l-101 -92q-21 -19 -34 -20.5t-31 16.5q-57 71 -152.5 111t-206.5 40z" />
<glyph unicode="H" horiz-adv-x="1552" d="M1137 821l92 570q3 25 13.5 34t35.5 9h162q25 0 32.5 -9t4.5 -34l-215 -1348q-3 -24 -14 -33.5t-36 -9.5h-161q-25 0 -32.5 9t-4.5 34l90 563h-692l-90 -563q-3 -24 -14 -33.5t-36 -9.5h-161q-25 0 -32.5 9t-4.5 34l215 1348q3 25 13.5 34t35.5 9h162q25 0 32.5 -9 t4.5 -34l-91 -570h691z" />
<glyph unicode="I" horiz-adv-x="612" d="M74 43l215 1348q3 25 13.5 34t35.5 9h162q26 0 33 -9t4 -34l-215 -1348q-3 -24 -14 -33.5t-36 -9.5h-161q-25 0 -32.5 9t-4.5 34z" />
<glyph unicode="J" horiz-adv-x="944" d="M641 1243h-283q-25 0 -32 9t-2 34l16 105q3 25 13.5 34t35.5 9h488q26 0 33.5 -9t4.5 -34l-133 -834q-26 -159 -89 -272.5t-161.5 -181t-222 -98.5t-282.5 -32q-31 0 -38 8t-7 35l4 131q1 24 14.5 33.5t40.5 9.5q239 0 349.5 84.5t141.5 282.5z" />
<glyph unicode="K" horiz-adv-x="1368" d="M662 750l546 -707q31 -43 -24 -43h-207q-20 0 -30 8t-29 35l-492 641l-104 -641q-3 -26 -13.5 -34.5t-36.5 -8.5h-161q-25 0 -32.5 9t-4.5 34l215 1348q3 25 13.5 34t35.5 9h162q25 0 33 -9.5t4 -33.5l-95 -586l662 586q29 28 41.5 35.5t34.5 7.5h204q53 0 13 -43z" />
<glyph unicode="L" horiz-adv-x="1169" d="M346 211h633q26 0 33.5 -8.5t3.5 -34.5l-21 -125q-3 -25 -13.5 -34t-35.5 -9h-840q-24 0 -31.5 9t-4.5 34l215 1348q3 25 13.5 34t35.5 9h162q24 0 31.5 -9t4.5 -34z" />
<glyph unicode="M" horiz-adv-x="2013" d="M1585 879l-633 -863q-20 -24 -31.5 -33.5t-23.5 -9.5h-20q-11 0 -19 9.5t-20 33.5l-353 856l-229 -829q-8 -27 -17.5 -35t-33.5 -8h-162q-24 0 -32.5 9.5t-2.5 33.5l395 1399q3 11 7 14.5t14 3.5h14q15 0 23 -18l485 -1106l838 1106q13 18 26 18h15q10 0 13 -3.5t3 -14.5 l-51 -1399q-1 -24 -12.5 -33.5t-36.5 -9.5h-162q-25 0 -32 8.5t-5 34.5z" />
<glyph unicode="N" horiz-adv-x="1589" d="M467 961l-145 -918q-4 -25 -15.5 -34t-36.5 -9h-159q-25 0 -33 9.5t-4 33.5l221 1399q2 11 6 14.5t14 3.5h17q14 0 30 -16l760 -963l144 910q3 25 13.5 34t35.5 9h162q24 0 31.5 -9t4.5 -34l-223 -1399q-2 -11 -6 -15t-14 -4h-15q-15 0 -32 17z" />
<glyph unicode="O" horiz-adv-x="1658" d="M94 717q33 213 155.5 383t305 265t391.5 95q148 0 274.5 -59t209.5 -159t120.5 -237.5t14.5 -287.5t-103.5 -288t-195.5 -237.5t-261 -159t-294 -59.5t-274 59.5t-209 159t-120 237.5t-14 288zM346 717q-15 -101 5.5 -196t70 -168.5t133.5 -118t188 -44.5q106 0 206 45 t173.5 119t124 168.5t66.5 194.5q15 102 -5.5 197t-70.5 168t-135 117t-191 44q-102 0 -200 -44t-172.5 -116.5t-126 -168t-66.5 -197.5z" />
<glyph unicode="P" horiz-adv-x="1271" d="M434 774h283q278 0 319 230q15 103 -41.5 163t-206.5 60h-282zM692 567h-291l-84 -524q-3 -25 -13.5 -34t-35.5 -9h-162q-26 0 -32.5 8.5t-3.5 34.5l215 1348q3 26 13.5 34.5t35.5 8.5h497q76 0 143.5 -12.5t131 -43.5t105.5 -78.5t61 -123.5t4 -172t-58 -172.5 t-100.5 -125t-131 -81t-146 -45.5t-148.5 -13z" />
<glyph unicode="Q" horiz-adv-x="1658" d="M113 717q34 213 156 383t305 265t393 95q197 0 350.5 -100t225.5 -271.5t40 -371.5q-28 -182 -131 -332t-256 -258l139 -236q10 -22 6 -34.5t-26 -26.5l-144 -92q-23 -13 -34.5 -10.5t-22.5 24.5l-137 266q-133 -45 -246 -45q-148 0 -274.5 59.5t-209.5 159t-120 237.5 t-14 288zM365 717q-21 -136 19.5 -255.5t140 -195.5t239.5 -76q105 0 204.5 45.5t173.5 119t125 168.5t66 194q21 137 -19.5 256.5t-140.5 194.5t-241 75q-102 0 -200 -44t-172.5 -116.5t-126.5 -168t-68 -197.5z" />
<glyph unicode="R" horiz-adv-x="1357" d="M1276 1004q-26 -168 -126.5 -269.5t-250.5 -142.5l281 -537q13 -27 -1.5 -41t-43.5 -14h-152q-46 0 -70 43l-272 524h-240l-84 -524q-3 -26 -13.5 -34.5t-35.5 -8.5h-162q-25 0 -32 8.5t-4 34.5l215 1348q3 25 13.5 34t35.5 9h500q74 0 140.5 -12.5t130 -43.5 t105.5 -78.5t61.5 -123.5t4.5 -172zM434 774h285q278 0 317 230q18 114 -45.5 168.5t-199.5 54.5h-285z" />
<glyph unicode="S" horiz-adv-x="1310" d="M754 1239q-89 0 -156 -20t-104.5 -54.5t-56.5 -71t-25 -77.5q-7 -40 6 -70.5t37.5 -49.5t71.5 -34t92.5 -23.5t115.5 -17.5q81 -10 143.5 -25t124.5 -45.5t99 -73.5t54 -111t3 -156q-13 -86 -59.5 -163t-121 -137.5t-183 -96.5t-236.5 -36q-327 0 -530 156q-18 14 -18 27 t18 35l77 102q16 23 28.5 27.5t33.5 -9.5q170 -120 405 -120q311 0 342 204q7 43 -4 76t-35.5 55t-70 38.5t-95.5 27t-124 20.5q-60 8 -110 19.5t-104 31.5t-93 49.5t-68.5 69.5t-40 96.5t-0.5 125.5q9 60 34 119.5t74 120t115 106t164 74t213 28.5q148 0 253.5 -38 t223.5 -118q10 -6 14.5 -12t3.5 -14t-4.5 -15.5t-11.5 -19.5l-78 -100q-16 -24 -28.5 -29t-34.5 8q-87 65 -169.5 93t-184.5 28z" />
<glyph unicode="T" horiz-adv-x="1269" d="M176 1434h1143q25 0 32.5 -9t4.5 -34l-23 -136q-3 -26 -13.5 -34.5t-35.5 -8.5h-448l-185 -1169q-5 -25 -15 -34t-36 -9h-160q-26 0 -34 9t-3 34l185 1169h-447q-26 0 -33 9t-4 34l23 136q3 25 13.5 34t35.5 9z" />
<glyph unicode="U" horiz-adv-x="1476" d="M623 -27q-127 0 -229 39.5t-172.5 115t-98.5 194.5t-4 268l127 801q4 25 15 34t36 9h160q26 0 34 -9t3 -34l-125 -791q-33 -208 41.5 -309t244.5 -101t278 101t142 309l125 791q3 25 13 34t36 9h160q26 0 34 -9t5 -34l-127 -801q-24 -149 -89.5 -268t-159.5 -194.5 t-208 -115t-241 -39.5z" />
<glyph unicode="V" horiz-adv-x="1499" d="M602 10l-473 1381q-5 16 5 29.5t28 13.5h190q22 0 32 -8.5t19 -34.5l306 -949l2 -2l606 951q18 26 30 34.5t33 8.5h189q21 0 26 -15.5t-4 -27.5l-913 -1381q-11 -17 -16 -23.5t-11.5 -12t-13.5 -5.5h-6q-3 0 -5.5 0.5t-4.5 3t-3.5 4t-3.5 6t-3.5 7.5t-4 9.5t-4.5 10.5z " />
<glyph unicode="W" horiz-adv-x="1970" d="M406 1391l176 -902l467 928q13 24 21.5 33.5t19.5 9.5h30q11 0 16.5 -9.5t10.5 -33.5l174 -928l461 902q12 25 25 34t38 9h197q23 0 26.5 -9t-10.5 -34l-760 -1381q-8 -13 -11 -18t-8 -12t-9 -9t-8 -2h-19q-15 0 -24 41l-191 977l-498 -977q-15 -24 -22.5 -32.5 t-15.5 -8.5h-19q-13 0 -24 41l-320 1381q-6 25 0 34t29 9h196q25 0 36.5 -9t15.5 -34z" />
<glyph unicode="X" horiz-adv-x="1376" d="M657 514l-434 -471q-23 -26 -36 -34.5t-35 -8.5h-189q-52 0 -14 43l610 666l-403 682q-23 43 26 43h191q22 0 33.5 -8.5t25.5 -34.5l289 -486l442 486q25 26 38 34.5t34 8.5h190q53 0 15 -43l-617 -682l398 -666q12 -25 4.5 -34t-33.5 -9h-186q-21 0 -32.5 8.5 t-29.5 34.5z" />
<glyph unicode="Y" horiz-adv-x="1327" d="M516 541l-389 850q-10 25 -3.5 34t30.5 9h184q22 0 32 -8.5t21 -34.5l279 -633l485 633q20 26 32 34.5t34 8.5h178q25 0 29 -9t-13 -34l-659 -850l-78 -498q-5 -25 -15 -34t-36 -9h-154q-25 0 -32.5 9t-4.5 34z" />
<glyph unicode="Z" horiz-adv-x="1257" d="M1030 0h-1083q-10 0 -14 3.5t-3 14.5l7 23q3 13 20 33l963 1147h-699q-25 0 -32.5 9.5t-4.5 35.5l21 125q5 25 15 34t36 9h1057q19 0 16 -17l-6 -22q-3 -16 -20 -35l-965 -1149h727q25 0 32.5 -8.5t4.5 -34.5l-21 -125q-5 -25 -15 -34t-36 -9z" />
<glyph unicode="[" horiz-adv-x="788" d="M541 -225l-17 -111q-4 -25 -15 -34t-36 -9h-401q-25 0 -32.5 9t-2.5 34l276 1751q4 25 15.5 34t36.5 9h401q25 0 32.5 -9t2.5 -34l-17 -110q-4 -26 -15 -35.5t-36 -9.5h-227l-227 -1442h227q25 0 32 -8.5t3 -34.5z" />
<glyph unicode="\" horiz-adv-x="884" d="M459 37l-254 1354q-4 23 7.5 33t39.5 10h129q24 0 34 -8.5t13 -28.5l252 -1354q4 -23 -5.5 -33t-37.5 -10h-129q-26 0 -35.5 7t-13.5 30z" />
<glyph unicode="]" horiz-adv-x="784" d="M-14 -336l16 111q3 26 13 34.5t36 8.5h228l227 1442h-227q-25 0 -32 9.5t-3 35.5l16 110q4 25 15 34t36 9h400q26 0 34 -9t3 -34l-277 -1751q-4 -25 -15 -34t-36 -9h-402q-25 0 -31.5 9t-0.5 34z" />
<glyph unicode="^" horiz-adv-x="768" d="M367 1542h94q19 -1 29 -10.5t24 -32.5l154 -282q11 -22 3.5 -32.5t-30.5 -10.5h-92q-42 0 -57 43l-99 200l-157 -200q-34 -43 -76 -43h-92q-43 0 -9 43l238 282q38 41 70 43z" />
<glyph unicode="_" horiz-adv-x="1091" d="M940 -217h-815q-26 0 -34 8.5t-5 34.5l16 104q5 26 15.5 35.5t36.5 9.5h815q25 0 32.5 -9t4.5 -34l-17 -106q-3 -26 -13.5 -34.5t-35.5 -8.5z" />
<glyph unicode="`" horiz-adv-x="530" d="M225 1204l-137 135q-18 17 -18.5 29.5t14.5 30.5l72 92q39 49 61 12l213 -274q34 -51 -12 -51h-127q-40 0 -66 26z" />
<glyph unicode="a" horiz-adv-x="1175" d="M319 834q-24 -3 -32 5.5t-11 34.5l-10 99q-2 25 5.5 36t31.5 17q38 9 152.5 24t212.5 15q144 0 232 -32t125.5 -94.5t42.5 -155.5t-17 -214l-84 -526q-5 -25 -15.5 -34t-36.5 -9h-86q-19 0 -28 9t-13 34v96q-175 -162 -407 -162q-70 0 -130 21.5t-104.5 63t-64 108 t-6.5 149.5q27 161 151.5 245.5t298.5 84.5q68 0 150 -14.5t145 -38.5q24 148 -17 208t-179 60q-143 0 -306 -30zM557 483q-112 0 -174.5 -45t-73.5 -119q-12 -66 32.5 -114.5t143.5 -48.5q74 0 150.5 41t138.5 104l21 129q-76 28 -126.5 40.5t-111.5 12.5z" />
<glyph unicode="b" d="M516 1468l-94 -594q16 24 46 53t76.5 62t112.5 54.5t136 21.5q136 0 233.5 -74t137 -198t16.5 -273q-17 -109 -68 -208.5t-124 -173t-169 -117.5t-198 -44q-71 0 -129.5 18t-100.5 50.5t-68.5 62t-52.5 68.5l-51 -133q-16 -25 -26.5 -34t-28.5 -9h-72q-25 0 -32.5 9 t-4.5 34l228 1425q3 25 13.5 34t35.5 9h147q25 0 32.5 -9t4.5 -34zM602 182q127 0 224.5 97t119.5 241q24 140 -43.5 238t-193.5 98q-125 0 -225 -99t-122 -237t46 -238t194 -100z" />
<glyph unicode="c" horiz-adv-x="1091" d="M573 186q143 0 252 88q21 16 32.5 14t27.5 -22l61 -82q14 -19 13.5 -29.5t-15.5 -23.5q-183 -154 -403 -154q-147 0 -260 73t-165.5 198t-29.5 272q24 150 116.5 275.5t229 197.5t283.5 72q221 0 354 -154q10 -14 7.5 -24t-21.5 -29l-90 -82q-21 -20 -33.5 -22t-28.5 14 q-77 88 -223 88q-129 0 -235 -97.5t-128 -238.5q-23 -141 52 -237.5t204 -96.5z" />
<glyph unicode="d" d="M924 874l94 594q3 25 13 34t36 9h145q26 0 34 -9t5 -34l-227 -1425q-5 -25 -15 -34t-34 -9h-72q-19 0 -27 8.5t-18 34.5l-6 133q-40 -40 -75 -68.5t-87.5 -62t-116.5 -51t-135 -17.5q-137 0 -233.5 75t-136 198t-17.5 270q17 111 68 211t123.5 173.5t168.5 117t199 43.5 q70 0 128.5 -21.5t95.5 -55t58 -61.5t32 -53zM522 182q125 0 224 100t120 238q22 138 -44.5 237t-192.5 99t-224 -98t-122 -238q-22 -144 45 -241t194 -97z" />
<glyph unicode="e" horiz-adv-x="1212" d="M944 252l47 -72q14 -19 13.5 -31.5t-15.5 -27.5q-81 -67 -201.5 -105.5t-236.5 -38.5q-152 0 -267 73t-168 197.5t-30 272.5q24 150 116.5 275.5t229 197.5t283.5 72q98 0 176.5 -30.5t128 -84t81.5 -126t36.5 -157.5t-7.5 -178q-3 -26 -12.5 -35.5t-34.5 -9.5h-768 q2 -112 79 -189t194 -77q145 0 295 78q5 2 14.5 6.5t12.5 5.5t9 2t9 -1t7.5 -6t8.5 -11zM346 598h563q3 71 -18 130.5t-76 101.5t-137 42q-84 0 -156.5 -43.5t-115 -104t-60.5 -126.5z" />
<glyph unicode="f" horiz-adv-x="854" d="M256 1038l8 64q36 220 154 338.5t317 118.5q109 0 183 -48q16 -10 18 -21t-6 -34l-35 -102q-10 -31 -21 -35t-38 10q-46 21 -111 21q-95 0 -150.5 -61t-76.5 -197l-9 -54h314q26 0 33 -9t4 -34l-17 -100q-5 -25 -15 -34t-34 -9h-315l-127 -809q-5 -25 -16 -34t-37 -9 h-144q-26 0 -33 9t-4 34l129 809h-127q-25 0 -33 9.5t-4 33.5l15 100q5 25 16 34t37 9h125z" />
<glyph unicode="g" d="M866 57l19 111q-18 -25 -48 -53.5t-77 -61.5t-112.5 -54.5t-135.5 -21.5q-137 0 -234.5 74t-136.5 198t-16 273q24 146 102 269.5t199 198.5t258 75q71 0 129.5 -18t100.5 -50.5t68 -62t52 -68.5l49 133q16 25 27.5 34t30.5 9h71q25 0 33 -9.5t4 -33.5l-145 -913 q-95 -592 -592 -592q-54 0 -106.5 5t-91 12t-77 16.5t-59 16.5t-43 15t-24.5 9q-20 11 -23 19.5t6 33.5l49 123q9 26 19.5 31t30.5 -4q163 -72 313 -72q303 0 360 358zM702 860q-126 0 -224.5 -97t-121.5 -241q-22 -140 46 -238t194 -98q125 0 224 99t120 237 q22 138 -45 238t-193 100z" />
<glyph unicode="h" horiz-adv-x="1228" d="M520 1468l-88 -561q148 158 311 158q88 0 153.5 -24.5t114 -80t61.5 -146t-5 -222.5l-86 -549q-4 -25 -15 -34t-36 -9h-148q-23 0 -30.5 9t-3.5 34l77 498q51 315 -172 315q-113 0 -184.5 -85.5t-95.5 -235.5l-78 -492q-4 -25 -15 -34t-36 -9h-148q-24 0 -31.5 9.5 t-3.5 33.5l76 487l150 938q4 25 15 34t34 9h147q25 0 33 -9.5t4 -33.5z" />
<glyph unicode="i" horiz-adv-x="651" d="M96 43l152 956q4 25 15 34t36 9h145q26 0 34 -9t3 -34l-151 -956q-5 -25 -15 -34t-36 -9h-146q-25 0 -33 9.5t-4 33.5zM279 1368q9 60 57 102.5t108 42.5t95.5 -42.5t25.5 -102.5q-9 -59 -58 -100t-110 -41q-60 0 -93.5 40.5t-24.5 100.5z" />
<glyph unicode="j" horiz-adv-x="780" d="M453 1368q9 60 57 102.5t108 42.5t95.5 -42.5t25.5 -102.5q-7 -59 -56 -100t-110 -41q-60 0 -94.5 40.5t-25.5 100.5zM133 897l17 102q5 43 49 43h419q26 0 34 -9t3 -34l-159 -1026q-36 -220 -154 -338t-317 -118q-117 0 -191 53q-17 12 -19.5 22t5.5 33l37 105 q9 30 19.5 34t39.5 -10q45 -28 119 -28q95 0 150.5 61t78.5 197l133 843l4 27h-231q-24 0 -32.5 10t-4.5 33z" />
<glyph unicode="k" horiz-adv-x="1165" d="M606 553l377 -510q14 -18 10.5 -27.5t-11.5 -12.5t-24 -3h-202q-21 0 -31 8t-29 35l-334 453l-71 -453q-5 -25 -15 -34t-36 -9h-146q-26 0 -34 9t-3 34l226 1425q5 25 15 34t36 9h145q26 0 34 -9t3 -34l-137 -874l442 405q26 26 39.5 34.5t34.5 8.5h203q23 0 26 -14 t-16 -29z" />
<glyph unicode="l" horiz-adv-x="598" d="M68 43l227 1425q3 25 13.5 34t35.5 9h148q26 0 32.5 -8.5t3.5 -34.5l-227 -1425q-3 -25 -13.5 -34t-35.5 -9h-148q-24 0 -31.5 9t-4.5 34z" />
<glyph unicode="m" horiz-adv-x="1871" d="M1069 862q158 203 358 203q70 0 125 -15.5t100 -49.5t69.5 -89t33 -133.5t-9.5 -183.5l-86 -551q-4 -25 -15 -34t-36 -9h-148q-24 0 -31.5 9.5t-3.5 33.5l80 498q24 159 -20 237t-148 78q-103 0 -172 -79.5t-92 -225.5l-80 -508q-4 -25 -15 -34t-36 -9h-147 q-24 0 -31.5 9.5t-3.5 33.5l80 498q24 153 -17.5 234t-150.5 81q-108 0 -176 -83t-93 -238l-75 -492q-6 -25 -17 -34t-37 -9h-145q-25 0 -33 9.5t-2 33.5l150 956q4 25 15 34t34 9h76q18 0 26.5 -9t16.5 -34l8 -133q35 42 61.5 69t70.5 61t97 51.5t113 17.5 q124 0 198.5 -57.5t108.5 -145.5z" />
<glyph unicode="n" horiz-adv-x="1232" d="M420 999l6 -129q38 41 65.5 66.5t74.5 60t101.5 51.5t116.5 17q70 0 125.5 -15.5t101 -49.5t70.5 -89t34 -134.5t-9 -184.5l-86 -549q-4 -25 -15 -34t-36 -9h-148q-25 0 -32.5 9t-2.5 34l78 498q51 315 -174 315q-111 0 -182.5 -85.5t-95.5 -235.5l-78 -492 q-4 -25 -15 -34t-36 -9h-148q-25 0 -32.5 9t-2.5 34l78 487l74 469q3 25 13.5 34t35.5 9h74q19 0 27 -8.5t18 -34.5z" />
<glyph unicode="o" horiz-adv-x="1259" d="M86 520q24 150 117.5 275.5t230 197.5t283.5 72t259.5 -73.5t164.5 -199t28 -272.5q-23 -147 -115 -272t-228 -198t-283 -73t-260.5 73t-166.5 198t-30 272zM575 182q128 0 234 98t129 240q22 142 -53 239t-203 97t-235 -97.5t-130 -238.5q-22 -142 54 -240t204 -98z" />
<glyph unicode="p" d="M377 168l-88 -543q-3 -25 -13.5 -34t-35.5 -9h-148q-25 0 -32.5 9t-4.5 34l219 1374q3 24 14 33.5t36 9.5h71q18 0 26.5 -9t16.5 -34l8 -133q40 40 75 68.5t87.5 62t116.5 51t135 17.5q136 0 233 -75t136.5 -199t17.5 -269q-17 -111 -68 -211t-124 -173.5t-169 -117 t-198 -43.5q-70 0 -129 21.5t-95.5 54t-57.5 62t-29 53.5zM776 860q-125 0 -224.5 -100t-121.5 -238t45.5 -237t192.5 -99q127 0 225.5 98t120.5 238q23 144 -44 241t-194 97z" />
<glyph unicode="q" d="M791 -375l86 543q-17 -25 -47 -54t-76.5 -61.5t-112 -54t-135.5 -21.5q-137 0 -234.5 74t-136.5 198t-16 273q17 108 67.5 207.5t123 173.5t169 118t199.5 44q71 0 129.5 -18t100.5 -50.5t68 -62t52 -68.5l49 133q16 25 27.5 34t30.5 9h71q25 0 32.5 -9t4.5 -34 l-219 -1374q-5 -25 -15 -34t-34 -9h-148q-26 0 -33.5 9t-2.5 34zM696 860q-126 0 -224.5 -97t-121.5 -241q-22 -140 45 -238t193 -98t225 99t121 237t-45.5 238t-192.5 100z" />
<glyph unicode="r" horiz-adv-x="858" d="M799 834q-167 0 -268 -92.5t-123 -227.5l-74 -471q-4 -25 -15 -34t-36 -9h-148q-25 0 -32.5 9t-2.5 34l152 956q3 25 13.5 34t35.5 9h74q19 0 27 -8.5t18 -34.5l16 -159q27 37 49 63t61.5 59.5t81 53.5t103.5 34.5t135 14.5q29 0 35.5 -9.5t-2.5 -31.5l-45 -150 q-9 -25 -19.5 -32.5t-35.5 -7.5z" />
<glyph unicode="s" horiz-adv-x="1046" d="M459 160q111 0 175 38t73 101q7 49 -49.5 77t-178.5 44q-68 9 -119.5 22.5t-101 37.5t-79.5 56.5t-44 82.5t-4 114q23 155 150.5 243.5t316.5 88.5q198 0 377 -115q14 -10 17 -20t-0.5 -18.5t-14.5 -24.5l-55 -76q-16 -24 -28.5 -28.5t-35.5 8.5q-66 47 -127 69.5 t-149 22.5q-207 0 -230 -138q-3 -24 6 -41.5t25 -29.5t48 -21.5t64 -15.5t85 -14q67 -9 120 -22t102.5 -37t79.5 -57t44 -83t4 -113q-23 -150 -156 -242t-330 -92q-94 0 -202 31.5t-201 100.5q-12 10 -14.5 19t0.5 17t14 25l57 78q12 17 19 24t18 6.5t25 -12.5 q136 -106 299 -106z" />
<glyph unicode="t" horiz-adv-x="905" d="M705 29q-92 -52 -207 -52q-198 0 -278.5 118t-45.5 335l68 426h-76q-25 0 -33 9.5t-2 33.5l14 100q3 24 14 33.5t36 9.5h75l33 201q3 25 13 34t36 9h146q25 0 32.5 -9t4.5 -34l-33 -201h315q25 0 32.5 -9.5t4.5 -35.5l-14 -98q-4 -25 -15.5 -34t-36.5 -9h-315l-65 -412 q-21 -136 15.5 -197t131.5 -61q71 0 127 25q32 15 41.5 11t9.5 -36l2 -102q0 -25 -4.5 -34.5t-25.5 -20.5z" />
<glyph unicode="u" horiz-adv-x="1232" d="M811 43l-8 129q-35 -40 -64.5 -67.5t-75 -60t-100.5 -50t-117 -17.5q-70 0 -125.5 15.5t-101 50t-70.5 89.5t-33.5 134.5t9.5 184.5l86 548q4 25 15 34t36 9h148q24 0 30.5 -9t3.5 -34l-79 -499q-48 -314 176 -314q111 0 182.5 86t95.5 236l78 491q4 25 15 34t36 9h148 q24 0 30.5 -9t3.5 -34l-77 -487l-74 -469q-3 -25 -13.5 -34t-35.5 -9h-74q-19 0 -27 8.5t-18 34.5z" />
<glyph unicode="v" horiz-adv-x="1085" d="M424 10l-336 989q-5 16 5.5 29.5t29.5 13.5h162q21 0 30.5 -8.5t18.5 -34.5l194 -583l377 583q18 26 30.5 34.5t33.5 8.5h161q21 0 26 -15.5t-5 -27.5l-649 -989q-27 -41 -43 -41h-4q-11 0 -16.5 8.5t-14.5 32.5z" />
<glyph unicode="w" horiz-adv-x="1519" d="M352 1006l82 -553l357 575q2 3 6 8.5t5.5 8t5 7t5.5 6.5t5.5 5t6 4.5t6 2.5t7.5 1h14q9 0 15.5 -6.5t9.5 -13t8 -23.5l174 -575l254 546q12 25 26 34t39 9h174q22 0 25 -9t-10 -34l-475 -976q-24 -46 -45 -46h-11q-20 0 -35 46l-213 698l-432 -698q-17 -26 -26.5 -36 t-22.5 -10h-12q-17 0 -29 46l-168 976q-6 25 0 34t29 9h176q23 0 34 -7.5t15 -28.5z" />
<glyph unicode="x" horiz-adv-x="1028" d="M492 373l-273 -330q-18 -26 -32.5 -34.5t-36.5 -8.5h-181q-52 0 -14 43l405 477l-256 479q-23 43 27 43h184q23 0 34.5 -8.5t23.5 -34.5l164 -335l270 335q20 27 33.5 35t36.5 8h182q52 0 14 -43l-405 -479l254 -477q21 -43 -29 -43h-182q-22 0 -33.5 8.5t-24.5 34.5z " />
<glyph unicode="y" horiz-adv-x="1093" d="M555 356l385 643q18 26 30.5 34.5t33.5 8.5h167q24 0 28 -9t-13 -34l-838 -1374q-17 -26 -29 -34.5t-32 -8.5h-168q-24 0 -28 9t11 34l287 469l-266 905q-7 25 -1 34t30 9h167q21 0 31 -9t19 -34l184 -645z" />
<glyph unicode="z" horiz-adv-x="1005" d="M813 0h-825q-9 0 -12 3.5t-3 14.5l4 17q2 14 21 39l647 764h-452q-25 0 -32.5 9t-4.5 34l20 118q5 25 15 34t36 9h787q10 0 13 -3.5t1 -14.5l-4 -18q-2 -12 -20 -37l-639 -764h481q26 0 34 -9t5 -34l-21 -119q-5 -25 -15 -34t-36 -9z" />
<glyph unicode="{" horiz-adv-x="919" d="M59 446l19 127q5 21 15 32.5t32 17.5q69 19 128.5 60t68.5 101l24 162q15 95 46.5 172.5t70.5 130t89.5 92t98.5 62t103.5 36t98.5 17.5t89 4q25 0 32.5 -9t4.5 -34l-21 -129q-3 -26 -14 -35.5t-37 -9.5q-51 0 -98 -13.5t-93.5 -45t-80.5 -92.5t-47 -146l-25 -162 q-19 -105 -84.5 -176t-138.5 -92l-2 -12q67 -22 110.5 -92.5t26.5 -175.5l-24 -162q-14 -71 -4 -122.5t29.5 -85t53.5 -53.5t69 -28t75 -8q27 0 34.5 -9t2.5 -36l-21 -129q-3 -26 -13.5 -34.5t-35.5 -8.5q-31 0 -60.5 2t-64.5 7t-66 15t-64 24.5t-60 36.5t-51.5 49.5t-41 66 t-26 84t-9.5 104t11 125.5l24 162q6 32 -6 60t-36.5 47.5t-49 32t-51.5 21.5q-22 6 -29 17.5t-2 31.5z" />
<glyph unicode="|" horiz-adv-x="546" d="M37 -160l274 1753q4 25 16 34t38 9h108q26 0 33 -9t2 -34l-277 -1753q-4 -25 -15 -34t-36 -9h-108q-26 0 -33.5 9t-1.5 34z" />
<glyph unicode="}" horiz-adv-x="919" d="M858 573l-18 -127q-5 -21 -15 -32t-32 -17q-68 -20 -127 -60.5t-70 -100.5l-25 -162q-15 -95 -46.5 -172.5t-70.5 -130t-89 -92t-98 -62t-103.5 -36t-98 -17.5t-88.5 -4q-25 0 -32 8.5t-4 34.5l20 129q5 26 14.5 35.5t34.5 9.5q51 0 98 13.5t94 45t81.5 92.5t48.5 146 l24 162q17 105 83.5 175.5t140.5 92.5v12q-68 22 -111.5 92.5t-24.5 175.5l25 162q13 85 -1.5 146t-51 92.5t-79 45t-93.5 13.5q-26 0 -34 9.5t-3 35.5l20 129q3 25 13.5 34t35.5 9q31 0 60.5 -2t64.5 -7t66.5 -15t64.5 -24.5t59.5 -36.5t51.5 -49.5t41.5 -66t26 -84 t9.5 -104t-11 -125.5l-25 -162q-9 -60 36 -100.5t107 -60.5q40 -11 31 -50z" />
<glyph unicode="~" horiz-adv-x="1175" d="M553 739q-32 29 -48.5 41.5t-41.5 23.5t-51 11q-66 0 -176 -123q-22 -18 -35 -18t-29 18l-51 66q-15 19 -12.5 32.5t22.5 30.5q85 81 153.5 123.5t151.5 42.5q95 0 187 -92q36 -31 49.5 -41.5t38.5 -21.5t51 -11q38 0 79 31.5t97 91.5q22 20 35 19.5t28 -19.5l52 -65 q15 -21 12.5 -33.5t-23.5 -30.5q-83 -82 -152.5 -125t-152.5 -43q-92 0 -184 92z" />
<glyph unicode="&#xa1;" horiz-adv-x="696" d="M94 -623l168 850q5 25 15 34t36 9h136q25 0 31.5 -8.5t4.5 -34.5l-104 -850q-3 -25 -14 -34t-37 -9h-199q-25 0 -33 9.5t-4 33.5zM283 637q9 64 61 109t117 45q66 0 104.5 -45t28.5 -109q-9 -66 -62.5 -113t-119.5 -47q-64 0 -102 47t-27 113z" />
<glyph unicode="&#xa2;" horiz-adv-x="1077" d="M350 -270l78 260q-178 43 -271.5 191.5t-64.5 338.5q23 149 117 275.5t230 198.5t280 71h22l58 190q6 26 17.5 34t37.5 5l33 -4q26 -4 32.5 -14t0.5 -35l-60 -197q129 -36 213 -133q11 -14 8.5 -23.5t-20.5 -29.5l-90 -82q-21 -20 -33.5 -22t-28.5 14q-42 47 -108 70 l-193 -650q119 3 223 86q21 17 33 15t27 -23l61 -82q14 -19 13.5 -29.5t-15.5 -23.5q-184 -154 -403 -154l-74 -264q-9 -26 -20.5 -33t-36.5 -4l-35 5q-25 3 -31.5 13t0.5 36zM324 520q-18 -116 32 -202.5t133 -112.5l191 649q-129 -3 -231.5 -100t-124.5 -234z" />
<glyph unicode="&#xa3;" horiz-adv-x="1107" d="M141 735h109q-6 14 -17 37.5t-18 40t-16.5 41t-14.5 47t-9 49.5t-3 58t6 65q11 70 47.5 137t95 124t147.5 91.5t194 34.5q191 0 405 -151q19 -14 18 -25t-18 -35l-78 -102q-16 -24 -28.5 -29t-32.5 8q-62 52 -142.5 84.5t-144.5 32.5q-102 0 -160 -62.5t-71 -142.5 q-5 -33 3 -75.5t19.5 -73.5t32.5 -81.5t29 -72.5h360q25 0 32.5 -8.5t4.5 -34.5l-4 -24q-4 -25 -15 -34t-36 -9h-332q-2 -65 -29 -152t-48 -134t-60 -128h512q26 0 32.5 -8t3.5 -35l-20 -123q-3 -26 -13.5 -35.5t-35.5 -9.5h-768q-26 0 -34 9t-5 34q4 24 42.5 92.5t81 141.5 t77 171t32.5 177h-149q-26 0 -34 9t-3 34l4 24q3 26 13.5 34.5t37.5 8.5z" />
<glyph unicode="&#xa4;" horiz-adv-x="1093" d="M195 700q14 107 79 187l-118 141q-14 19 -12 32t22 30l59 53q38 32 62 -2l119 -142q96 56 196 56q103 0 178 -56l166 142q19 19 32 19t30 -19l41 -51q14 -17 12 -30.5t-23 -31.5l-166 -141q43 -80 29 -187q-17 -103 -86 -186l119 -141q14 -19 12 -32t-22 -30l-60 -53 q-20 -17 -33 -17t-28 17l-119 141q-92 -51 -195 -51q-104 0 -178 53l-164 -141q-19 -19 -32.5 -19t-28.5 19l-41 51q-14 17 -12.5 31t22.5 31l162 141q-39 80 -22 186zM360 700q-12 -80 30.5 -137t123.5 -57q82 0 144.5 57t74.5 137q11 79 -33 137t-125 58q-80 0 -142 -58.5 t-73 -136.5z" />
<glyph unicode="&#xa5;" horiz-adv-x="1355" d="M680 758l485 633q20 26 31.5 34.5t32.5 8.5h180q24 0 28 -9t-12 -34l-473 -609h217q25 0 32.5 -8.5t4.5 -34.5l-12 -65q-3 -26 -13 -34.5t-36 -8.5h-287l-47 -29l-49 -82l-12 -82h364q26 0 33 -8.5t4 -34.5l-10 -65q-4 -26 -14.5 -34.5t-36.5 -8.5h-365l-39 -244 q-3 -25 -13.5 -34t-35.5 -9h-154q-26 0 -34 9t-3 34l37 244h-360q-25 0 -32 8.5t-3 34.5l10 65q3 26 14 34.5t38 8.5h360l14 103l-41 90h-305q-25 0 -32.5 8.5t-4.5 34.5l11 65q4 26 15 34.5t36 8.5h213l-279 609q-11 25 -4 34t31 9h184q22 0 32 -8.5t21 -34.5z" />
<glyph unicode="&#xa6;" horiz-adv-x="526" d="M49 -121l115 725q3 25 13.5 34t35.5 9h78q25 0 32.5 -9t4.5 -34l-115 -725q-5 -25 -15 -34t-36 -9h-76q-25 0 -32.5 9t-4.5 34zM209 895l102 643q3 25 13.5 34t35.5 9h76q26 0 34 -9t5 -34l-102 -643q-4 -26 -14.5 -34.5t-36.5 -8.5h-76q-25 0 -32.5 8.5t-4.5 34.5z" />
<glyph unicode="&#xa7;" horiz-adv-x="1294" d="M1188 410q-12 -74 -53.5 -148.5t-100.5 -128.5q93 -100 66 -272q-14 -88 -60.5 -165t-120.5 -137t-182.5 -95t-236.5 -35q-304 0 -512 153q-20 13 -20 27.5t18 36.5l77 102q16 23 29.5 27.5t34.5 -8.5q163 -121 387 -121q310 0 344 204q7 43 -4 76t-36.5 55.5t-71 39.5 t-96.5 27.5t-124 19.5q-74 10 -133 24.5t-120.5 44t-99.5 70t-56.5 105.5t-5.5 147q12 74 54.5 149.5t106.5 136.5q-101 95 -73 263q9 56 34 114.5t74.5 119t115 107.5t163 77t211.5 30q149 0 255 -37t222 -116q14 -9 17.5 -19t0 -19t-13.5 -26l-78 -100q-19 -24 -30 -29 t-33 8q-87 65 -169.5 93t-183.5 28q-74 0 -132.5 -14.5t-95.5 -37t-62.5 -53.5t-37 -59.5t-16.5 -58.5q-7 -40 6 -70.5t37.5 -49.5t71.5 -34t92 -23.5t115 -17.5q82 -10 144.5 -25t124.5 -45.5t99 -73.5t54.5 -111t3.5 -156zM614 616q-49 7 -135 29q-52 -27 -85.5 -76 t-41.5 -102q-6 -40 7.5 -70.5t38 -49.5t71 -34t92 -23.5t115.5 -17.5q66 -10 151 -32q43 19 75.5 60.5t41.5 98.5q7 43 -4 76t-35.5 55t-70.5 38.5t-96 27t-124 20.5z" />
<glyph unicode="&#xa8;" horiz-adv-x="872" d="M106 1370q9 51 49 86t91 35q50 0 78.5 -35t21.5 -86q-7 -50 -48 -84.5t-91 -34.5q-51 0 -80 34t-21 85zM522 1370q9 51 49 86t91 35q50 0 78.5 -35t21.5 -86q-7 -50 -48 -84.5t-91 -34.5q-51 0 -80 34t-21 85z" />
<glyph unicode="&#xa9;" horiz-adv-x="1662" d="M88 717q23 151 103.5 288.5t195.5 237t262 158.5t299 59q312 0 478 -197q137 -161 139 -407q2 -241 -124 -459q-132 -228 -355 -339q-171 -85 -373 -85q-152 0 -280.5 59t-212 158.5t-120 237t-12.5 289.5zM166 717q-30 -182 34.5 -335.5t203.5 -242t321 -88.5 q296 0 506 195q167 155 230 383q61 226 -7 419q-70 198 -254 282q-115 52 -264 52q-182 0 -349.5 -89t-280.5 -242.5t-140 -333.5zM788 459q-104 0 -158 76.5t-38 181.5q18 106 95 182t181 76q113 0 174 -80q16 -15 33 2l58 55q17 17 6 33q-42 50 -110 78.5t-142 28.5 q-153 0 -279 -110.5t-149 -264.5q-25 -154 66.5 -264.5t244.5 -110.5q74 0 149.5 28t135.5 79q16 16 4 32l-41 54q-9 12 -16 12.5t-19 -8.5q-80 -80 -195 -80z" />
<glyph unicode="&#xaa;" horiz-adv-x="811" d="M231 1311q-16 -3 -21 2.5t-7 23.5l-6 68q-3 28 20 33q2 0 20 3t40 6t50 6t58.5 5t56.5 2q120 0 178.5 -35t67.5 -103.5t-6 -170.5l-51 -324q-3 -17 -10 -22.5t-25 -5.5h-57q-23 0 -25 28l4 58q-111 -101 -252 -101q-93 0 -148.5 55.5t-39.5 155.5q17 101 93.5 154 t184.5 53q94 0 181 -33q14 90 -11 126t-110 36q-72 0 -185 -20zM373 1094q-66 0 -103 -27.5t-43 -71.5q-7 -39 18.5 -67.5t84.5 -28.5q86 0 180 94l8 70q-88 31 -145 31z" />
<glyph unicode="&#xab;" horiz-adv-x="1167" d="M119 606l395 377q20 17 30.5 19t30.5 -9l82 -53q34 -19 0 -59l-346 -361l232 -360q11 -20 7.5 -33.5t-26.5 -26.5l-98 -53q-23 -12 -33.5 -10.5t-25.5 20.5l-277 377q-27 39 -22 80l2 12q7 41 49 80zM590 606l393 377q22 17 32 19t29 -9l84 -53q34 -19 0 -59l-346 -361 l232 -360q11 -20 7 -33.5t-26 -26.5l-98 -53q-22 -12 -33 -10.5t-26 20.5l-277 377q-26 33 -22 78l2 14q3 37 49 80z" />
<glyph unicode="&#xac;" horiz-adv-x="1077" d="M745 168l54 348h-637q-26 0 -34 9.5t-3 35.5l14 94q4 26 15 35.5t36 9.5h779q25 0 33 -9.5t2 -33.5l-74 -487q-4 -26 -15.5 -35.5t-37.5 -9.5h-97q-25 0 -32.5 9t-2.5 34z" />
<glyph unicode="&#xad;" horiz-adv-x="858" d="M696 489h-565q-26 0 -34 8.5t-5 34.5l17 97q5 25 15 34t36 9h565q25 0 32.5 -9t4.5 -34l-17 -97q-3 -26 -13.5 -34.5t-35.5 -8.5z" />
<glyph unicode="&#xae;" horiz-adv-x="1662" d="M1135 866q-13 -86 -67.5 -140t-129.5 -75l147 -280q4 -17 -2 -23t-24 -6h-84q-27 0 -37 20l-143 277h-109l-45 -277q-3 -20 -27 -20h-88q-15 0 -20 4t-2 16l110 709q3 21 29 21h260q51 0 94 -11t79.5 -35.5t52.5 -70.5t6 -109zM702 754h146q135 0 153 112q9 59 -21 85 t-99 26h-144zM88 717q23 151 103.5 288.5t195.5 237t262 158.5t299 59q151 0 279.5 -59t212 -158.5t121 -237t14.5 -288.5q-24 -152 -105 -289.5t-196.5 -237t-262.5 -158.5t-298 -59q-152 0 -280.5 59t-212 158.5t-120 237t-12.5 289.5zM164 717q-29 -183 35.5 -336.5 t203.5 -242.5t322 -89q181 0 348 89t281 243t143 336q21 135 -12.5 258t-108.5 212.5t-190 142t-250 52.5q-182 0 -350 -89t-281 -242t-141 -334z" />
<glyph unicode="&#xaf;" horiz-adv-x="788" d="M629 1292h-498q-25 0 -32.5 9t-4.5 34l15 80q3 26 13.5 35.5t35.5 9.5h497q25 0 32.5 -9t4.5 -34l-14 -82q-3 -25 -13.5 -34t-35.5 -9z" />
<glyph unicode="&#xb0;" horiz-adv-x="800" d="M88 1147q20 130 125 220.5t236 90.5q129 0 206.5 -90.5t57.5 -220.5q-22 -131 -128.5 -222t-236.5 -91q-131 0 -206.5 90.5t-53.5 222.5zM246 1147q-10 -64 27 -109t100 -45q62 0 114 45t62 109q9 60 -28.5 104.5t-100.5 44.5t-114 -44.5t-60 -104.5z" />
<glyph unicode="&#xb1;" horiz-adv-x="1177" d="M774 1331l-43 -272h275q25 0 32.5 -9.5t3.5 -35.5l-16 -103q-4 -26 -14.5 -34.5t-36.5 -8.5h-275l-36 -245q-4 -26 -15.5 -34.5t-36.5 -8.5h-104q-25 0 -32 8.5t-3 34.5l37 245h-272q-26 0 -34 8.5t-5 34.5l16 103q5 27 15 36t36 9h275l43 272q4 25 15 34t36 9h104 q25 0 32.5 -9t2.5 -34zM887 150h-793q-25 0 -33 8.5t-2 34.5l17 104q3 26 13.5 35.5t35.5 9.5h793q26 0 32.5 -8.5t3.5 -34.5l-16 -106q-4 -26 -15 -34.5t-36 -8.5z" />
<glyph unicode="&#xb2;" horiz-adv-x="630" d="M477 1319l-190 -219h194q13 0 18 -4.5t3 -16.5l-15 -92q-3 -20 -26 -20h-416q-10 0 -8 8l2 8q0 9 10 21l299 325q41 45 53.5 85.5t-4 63.5t-53.5 23q-79 0 -141 -57q-14 -8 -19.5 -7t-13.5 9l-47 59q-12 18 6 31q107 92 233 92q93 0 140.5 -48.5t39 -120.5t-64.5 -140z " />
<glyph unicode="&#xb3;" horiz-adv-x="616" d="M244 948q-129 0 -205 92q-13 14 4 31l61 55q19 16 33 2q26 -31 54 -48t71 -17q61 0 93.5 28.5t39.5 67.5q5 35 -22.5 56.5t-81.5 21.5h-60q-24 0 -18 23l8 55q3 24 25 24h59q54 0 89.5 21.5t41.5 56.5q5 40 -17.5 67t-84.5 27q-74 0 -146 -65q-20 -15 -34 2l-41 57 q-14 18 2 29q112 94 237 94q43 0 82 -11.5t71.5 -34t48.5 -61.5t9 -89q-8 -51 -41.5 -88t-77.5 -56v-2q37 -20 58.5 -57t13.5 -88q-9 -64 -55 -110t-102 -64.5t-115 -18.5z" />
<glyph unicode="&#xb4;" horiz-adv-x="559" d="M461 1339l-182 -135q-32 -26 -72 -26h-127q-50 0 4 51l299 274q33 38 57 -12l43 -92q7 -18 3 -31t-25 -29z" />
<glyph unicode="&#xb5;" horiz-adv-x="1265" d="M877 43l-11 133q-35 -38 -53.5 -57t-56 -51.5t-69 -48.5t-77 -29t-94.5 -13q-104 0 -147 66l-68 -418q-3 -25 -13.5 -34t-35.5 -9h-148q-24 0 -31.5 9t-4.5 34l219 1374q3 25 13.5 34t35.5 9h147q25 0 32.5 -9t4.5 -34l-80 -497q-14 -94 -8.5 -164.5t48.5 -111t124 -40.5 q110 0 183 90t100 246l74 477q5 25 15 34t36 9h147q24 0 31.5 -9.5t3.5 -33.5l-150 -956q-4 -24 -15.5 -33.5t-35.5 -9.5h-75q-18 0 -25.5 9t-15.5 34z" />
<glyph unicode="&#xb6;" horiz-adv-x="1638" d="M465 -442l139 882q-230 0 -362.5 146t-96.5 368q23 145 111.5 256t212 167.5t260.5 56.5h926q26 0 34 -9t3 -34l-21 -131q-6 -25 -16.5 -34t-36.5 -9h-201l-264 -1661q-3 -25 -13.5 -34t-35.5 -9h-117q-26 0 -34 9t-3 34l262 1661h-282l-262 -1659q-4 -25 -15.5 -34 t-36.5 -9h-116q-25 0 -32.5 9t-2.5 34z" />
<glyph unicode="&#xb7;" horiz-adv-x="552" d="M104 700q12 72 69.5 122t129.5 50q71 0 113 -50t30 -122q-10 -70 -68.5 -120t-129.5 -50q-72 0 -114 49.5t-30 120.5z" />
<glyph unicode="&#xb8;" horiz-adv-x="624" d="M244 -18l104 -9l-24 -86q110 0 160.5 -51t35.5 -145q-14 -92 -81.5 -146.5t-174.5 -54.5q-88 0 -180 82q-25 18 2 45l33 35q14 13 22.5 13.5t22.5 -9.5q66 -41 135 -41q81 0 92 76q15 82 -90 82h-94q-20 0 -27.5 10t0.5 29z" />
<glyph unicode="&#xb9;" horiz-adv-x="499" d="M115 1511l143 70q42 21 53 21h68q24 0 18 -23l-92 -590q-3 -13 -8 -17.5t-18 -4.5h-95q-24 0 -18 22l70 438l-130 -26q-11 -2 -16 2.5t-2 15.5l10 68q2 14 17 24z" />
<glyph unicode="&#xba;" horiz-adv-x="681" d="M70 1116q23 150 107.5 247t217.5 97q90 0 144.5 -47.5t70 -123.5t0.5 -173q-25 -151 -107.5 -247.5t-215.5 -96.5q-90 0 -145 47.5t-71.5 123.5t-0.5 173zM223 1116q-16 -95 5 -149t81 -54q58 0 96.5 54t53.5 149q14 96 -7 149.5t-79 53.5q-60 0 -98 -54t-52 -149z" />
<glyph unicode="&#xbb;" horiz-adv-x="1167" d="M799 983l276 -377q27 -34 23 -80l-2 -12q-8 -42 -49 -80l-394 -377q-22 -19 -33 -20.5t-28 10.5l-84 53q-18 14 -18 26.5t18 33.5l348 360l-233 361q-7 14 -8.5 24t5 18.5t21.5 16.5l98 53q24 12 34.5 10t25.5 -20zM328 983l276 -377q30 -38 23 -80l-2 -12 q-8 -40 -50 -80l-393 -377q-22 -19 -33 -20.5t-28 10.5l-84 53q-18 14 -18 26.5t18 33.5l348 360l-233 361q-7 14 -8.5 24t5 18.5t21.5 16.5l98 53q23 12 34.5 10t25.5 -20z" />
<glyph unicode="&#xbc;" horiz-adv-x="1372" d="M1188 1391l-912 -1354q-13 -20 -26 -28.5t-35 -8.5h-76q-60 0 -30 43l911 1354q13 20 25.5 28.5t35.5 8.5h76q61 0 31 -43zM215 1343l143 70q42 21 54 21h67q13 0 17 -5t2 -18l-92 -590q-3 -13 -8.5 -17.5t-18.5 -4.5h-100q-22 0 -19 22l70 430l-123 -26q-13 0 -17.5 4 t-3.5 16l13 74q2 15 16 24zM1022 635h104q20 0 17 -23l-53 -348h86q11 0 14 -4t2 -16l-10 -68q-5 -20 -25 -20h-86l-22 -133q-1 -13 -6.5 -18t-16.5 -5h-82q-12 0 -15.5 5t-2.5 18l22 133h-268q-12 0 -16.5 4t-1.5 16l6 47q2 12 20 39l313 363q7 10 21 10zM997 469 l-178 -205h146z" />
<glyph unicode="&#xbd;" horiz-adv-x="1441" d="M1231 1391l-912 -1354q-15 -21 -27.5 -29t-35.5 -8h-74q-60 0 -30 43l911 1354q13 20 25.5 28.5t35.5 8.5h76q61 0 31 -43zM215 1343l143 70q42 21 54 21h67q13 0 17 -5t2 -18l-92 -590q-3 -13 -8.5 -17.5t-18.5 -4.5h-100q-22 0 -19 22l70 430l-123 -26q-13 0 -17.5 4 t-3.5 16l13 74q2 15 16 24zM1026 133l188 219q57 68 65.5 140t-38 121t-139.5 49q-125 0 -236 -93q-16 -12 -4 -30l45 -60q18 -15 35 -2q63 58 141 58q37 0 53.5 -23t5 -64t-51.5 -86l-302 -325q-10 -13 -10 -21l-2 -8q0 -8 8 -8h416q24 0 27 20l12 93q1 12 -2.5 16t-15.5 4 h-195z" />
<glyph unicode="&#xbe;" horiz-adv-x="1472" d="M1276 1391l-911 -1354q-13 -20 -26 -28.5t-36 -8.5h-76q-60 0 -30 43l911 1354q13 20 25.5 28.5t35.5 8.5h76q58 0 31 -43zM342 782q-131 0 -207 92q-13 15 6 31l60 56q11 9 17 10t15 -8q28 -31 56 -47.5t71 -16.5q62 0 94.5 27.5t37.5 66.5q6 34 -22 56t-83 22h-59 q-22 0 -19 23l10 55q3 25 25 25h59q56 0 90 21t39 56q7 39 -16 68t-84 29q-70 0 -147 -66q-18 -16 -33 2l-43 55q-12 15 4 31q109 92 238 92q59 0 109 -18.5t81.5 -64.5t20.5 -111q-16 -95 -119 -146v-2q37 -17 58 -54t13 -89q-11 -66 -57 -111.5t-101 -64.5t-114 -19z M1106 635h104q22 0 17 -23l-56 -348h86q21 0 19 -20l-10 -68q-5 -20 -25 -20h-86l-20 -133q-5 -23 -25 -23h-82q-12 0 -15.5 5t-2.5 18l22 133h-268q-13 0 -17.5 4t-1.5 16l7 47q2 12 20 39l311 363q10 10 23 10zM1081 469l-178 -205h146z" />
<glyph unicode="&#xbf;" horiz-adv-x="1081" d="M662 12q29 3 32 31l35 213q4 26 -4 34.5t-33 8.5h-129q-26 0 -36.5 -8.5t-14.5 -34.5l-16 -111q-88 -19 -155 -39t-133.5 -52.5t-111.5 -73t-78 -100t-45 -134.5q-5 -43 -4.5 -86.5t16 -86t38 -81t62.5 -71.5t89.5 -57.5t118.5 -38t151 -13.5q137 0 251.5 42t250.5 122 q23 11 26.5 25.5t-5.5 35.5l-45 103q-10 23 -20.5 27.5t-35.5 -9.5q-208 -129 -372 -129q-148 0 -221 62t-58 167q18 102 128 160t319 94zM842 637q-12 -67 -64 -113.5t-116 -46.5q-66 0 -106 47t-30 113q11 65 65 110.5t120 45.5q65 0 102.5 -45.5t28.5 -110.5z" />
<glyph unicode="&#xc0;" horiz-adv-x="1499" d="M803 1044h-4l-320 -509h479zM899 1423l473 -1380q6 -15 -5 -29t-30 -14h-190q-21 0 -30.5 8.5t-18.5 34.5l-88 281h-648l-178 -281q-18 -26 -29.5 -34.5t-33.5 -8.5h-189q-18 0 -24.5 14t4.5 29l909 1380q2 3 7 10t7 9.5t5.5 7t5.5 6.5t5.5 4t6.5 3t6 1h6q9 0 14.5 -8.5 t12.5 -26.5q1 -4 2 -6zM721 1595l-182 136q-21 17 -25.5 29t2.5 30l43 92q24 50 57 12l299 -274q54 -51 5 -51h-127q-39 0 -72 26z" />
<glyph unicode="&#xc1;" horiz-adv-x="1499" d="M803 1044h-4l-320 -509h479zM899 1423l473 -1380q6 -15 -5 -29t-30 -14h-190q-21 0 -30.5 8.5t-18.5 34.5l-88 281h-648l-178 -281q-18 -26 -29.5 -34.5t-33.5 -8.5h-189q-18 0 -24.5 14t4.5 29l909 1380q2 3 7 10t7 9.5t5.5 7t5.5 6.5t5.5 4t6.5 3t6 1h6q9 0 14.5 -8.5 t12.5 -26.5q1 -4 2 -6zM1190 1731l-182 -136q-32 -26 -72 -26h-127q-50 0 4 51l299 274q33 38 57 -12l43 -92q7 -18 3 -30t-25 -29z" />
<glyph unicode="&#xc2;" horiz-adv-x="1499" d="M803 1044h-4l-320 -509h479zM899 1423l473 -1380q6 -15 -5 -29t-30 -14h-190q-21 0 -30.5 8.5t-18.5 34.5l-88 281h-648l-178 -281q-18 -26 -29.5 -34.5t-33.5 -8.5h-189q-18 0 -24.5 14t4.5 29l909 1380q2 3 7 10t7 9.5t5.5 7t5.5 6.5t5.5 4t6.5 3t6 1h6q9 0 14.5 -8.5 t12.5 -26.5q1 -4 2 -6zM881 1933h94q19 -1 29.5 -10.5t23.5 -32.5l154 -282q21 -43 -27 -43h-92q-22 0 -35 10t-22 33l-99 200l-157 -200q-30 -43 -74 -43h-94q-46 0 -9 43l238 282q38 41 70 43z" />
<glyph unicode="&#xc3;" horiz-adv-x="1499" d="M803 1044h-4l-320 -509h479zM899 1423l473 -1380q6 -15 -5 -29t-30 -14h-190q-21 0 -30.5 8.5t-18.5 34.5l-88 281h-648l-178 -281q-18 -26 -29.5 -34.5t-33.5 -8.5h-189q-18 0 -24.5 14t4.5 29l909 1380q2 3 7 10t7 9.5t5.5 7t5.5 6.5t5.5 4t6.5 3t6 1h6q9 0 14.5 -8.5 t12.5 -26.5q1 -4 2 -6zM1040 1800q64 0 111 82q14 24 25 29t36 -4l54 -25q16 -8 22 -15.5t4.5 -17.5t-10.5 -28q-103 -179 -254 -179q-55 0 -89 13.5t-77 46.5q-35 26 -47.5 34.5t-32.5 16.5t-41 8q-61 0 -110 -80q-14 -23 -25.5 -28t-34.5 2l-55 26q-17 7 -23 14.5t-3.5 18 t12.5 27.5q97 180 252 180q55 0 90 -14t78 -47q6 -4 19 -14t17 -13t14 -10t14 -9l12 -6t13.5 -5t13 -2t15.5 -1z" />
<glyph unicode="&#xc4;" horiz-adv-x="1499" d="M827 1051h-4l-319 -510h479zM924 1430l473 -1381q6 -15 -5 -29t-30 -14h-191q-21 0 -30.5 8.5t-18.5 34.5l-88 281h-647l-178 -281q-18 -26 -30 -34.5t-34 -8.5h-188q-18 0 -24.5 14t4.5 29l909 1381q2 2 5 7q13 19 20.5 26t17.5 7h6q6 0 11 -5t8 -10.5t8 -19.5 q1 -3 2 -5zM580 1761q9 51 48.5 86t90.5 35q50 0 78.5 -35t21.5 -86q-7 -50 -48 -84.5t-91 -34.5q-51 0 -79.5 34t-20.5 85zM995 1761q9 51 49 86t91 35q50 0 78.5 -35t21.5 -86q-7 -50 -48 -84.5t-91 -34.5q-51 0 -80 34t-21 85z" />
<glyph unicode="&#xc5;" horiz-adv-x="1499" d="M803 1044h-4l-320 -509h479zM899 1423l473 -1380q6 -15 -5 -29t-30 -14h-190q-21 0 -30.5 8.5t-18.5 34.5l-88 281h-648l-178 -281q-18 -26 -29.5 -34.5t-33.5 -8.5h-189q-18 0 -24.5 14t4.5 29l909 1380q2 3 7 10t7 9.5t5.5 7t5.5 6.5t5.5 4t6.5 3t6 1h6q9 0 14.5 -8.5 t12.5 -26.5q1 -4 2 -6zM879 1571q-97 0 -151.5 66t-37.5 163q14 97 88.5 163.5t171.5 66.5q96 0 151.5 -66.5t41.5 -163.5q-17 -97 -93 -163t-171 -66zM897 1686q48 0 81.5 34.5t41.5 79.5q7 45 -16.5 80t-71.5 35q-47 0 -81 -35t-40 -80q-8 -44 15 -79t71 -35z" />
<glyph unicode="&#xc6;" horiz-adv-x="2019" d="M797 0q-25 0 -32.5 9t-4.5 34l45 281h-416l-203 -281q-19 -26 -32 -34.5t-35 -8.5h-185q-18 0 -24.5 14t4.5 29l981 1335q14 19 18 24.5t12.5 15.5t14 13t12.5 3h1014q26 0 34 -9t5 -34l-23 -125q-3 -25 -13.5 -35t-35.5 -10h-716l-62 -394h666q26 0 33.5 -8.5t3.5 -34.5 l-19 -125q-4 -25 -15 -34t-36 -9h-668l-63 -405h717q25 0 32 -8.5t4 -34.5l-20 -125q-5 -25 -15 -34t-36 -9h-942zM924 1079l-387 -544h303z" />
<glyph unicode="&#xc7;" horiz-adv-x="1458" d="M578 -188l63 170q-169 27 -296 132t-185 264.5t-29 338.5q35 213 156.5 383t305 265t392.5 95q149 0 283.5 -57t218.5 -154q14 -18 11.5 -30t-23.5 -31l-111 -103q-21 -19 -34.5 -20.5t-29.5 16.5q-125 162 -350 162q-136 0 -260.5 -74.5t-206 -195t-102.5 -256.5 q-10 -81 -1.5 -157t42.5 -143.5t83 -117.5t121 -79.5t156 -29.5q224 0 406 164q23 18 35 16t26 -20l78 -102q13 -19 12.5 -32.5t-20.5 -31.5q-113 -97 -266 -153.5t-308 -57.5l-24 -86q110 0 161 -51t36 -145q-14 -92 -81.5 -146.5t-174.5 -54.5q-91 0 -179 82q-24 18 0 45 l33 35q14 13 22.5 13.5t22.5 -9.5q66 -41 137 -41q79 0 90 76q6 42 -15.5 62t-74.5 20h-94q-19 0 -26 10t0 29z" />
<glyph unicode="&#xc8;" d="M1018 0h-920q-26 0 -34 9t-3 34l213 1348q4 25 15.5 34t36.5 9h919q25 0 33 -9.5t4 -33.5l-20 -125q-3 -26 -14 -35.5t-36 -9.5h-716l-62 -394h684q26 0 33.5 -8.5t3.5 -34.5l-18 -125q-4 -25 -15.5 -34t-36.5 -9h-686l-63 -405h717q25 0 32.5 -8.5t4.5 -34.5l-21 -125 q-5 -25 -15 -34t-36 -9zM715 1595l-137 136q-19 17 -19.5 28.5t14.5 30.5l72 92q40 50 62 12l213 -274q34 -51 -13 -51h-127q-39 0 -65 26z" />
<glyph unicode="&#xc9;" d="M1018 0h-920q-26 0 -34 9t-3 34l213 1348q4 25 15.5 34t36.5 9h919q25 0 33 -9.5t4 -33.5l-20 -125q-3 -26 -14 -35.5t-36 -9.5h-716l-62 -394h684q26 0 33.5 -8.5t3.5 -34.5l-18 -125q-4 -25 -15.5 -34t-36.5 -9h-686l-63 -405h717q25 0 32.5 -8.5t4.5 -34.5l-21 -125 q-5 -25 -15 -34t-36 -9zM1012 1731l-183 -136q-33 -26 -71 -26h-127q-50 0 4 51l299 274q33 38 57 -12l43 -92q7 -18 3 -30t-25 -29z" />
<glyph unicode="&#xca;" horiz-adv-x="1265" d="M784 1933h95q19 -1 29.5 -10.5t23.5 -32.5l153 -282q21 -43 -26 -43h-92q-40 0 -58 43l-98 200l-158 -200q-30 -43 -73 -43h-95q-45 0 -8 43l238 282q38 41 69 43zM1010 0h-920q-26 0 -34 9t-3 34l213 1348q4 25 15 34t36 9h920q25 0 33 -9.5t4 -33.5l-21 -125 q-3 -26 -13.5 -35.5t-35.5 -9.5h-717l-61 -394h684q26 0 33.5 -8.5t3.5 -34.5l-19 -125q-4 -25 -15 -34t-36 -9h-686l-63 -405h716q25 0 32.5 -8.5t4.5 -34.5l-20 -125q-5 -25 -15 -34t-36 -9z" />
<glyph unicode="&#xcb;" d="M1018 0h-920q-26 0 -34 9t-3 34l213 1348q4 25 15.5 34t36.5 9h919q25 0 33 -9.5t4 -33.5l-20 -125q-3 -26 -14 -35.5t-36 -9.5h-716l-62 -394h684q26 0 33.5 -8.5t3.5 -34.5l-18 -125q-4 -25 -15.5 -34t-36.5 -9h-686l-63 -405h717q25 0 32.5 -8.5t4.5 -34.5l-21 -125 q-5 -25 -15 -34t-36 -9zM498 1761q9 51 48.5 86t90.5 35q50 0 78.5 -35t21.5 -86q-7 -50 -48 -84.5t-91 -34.5q-51 0 -79.5 34t-20.5 85zM913 1761q9 51 49 86t91 35q50 0 78.5 -35t21.5 -86q-7 -50 -48 -84.5t-91 -34.5q-51 0 -80 34t-21 85z" />
<glyph unicode="&#xcc;" horiz-adv-x="632" d="M80 43l215 1348q3 25 13.5 34t35.5 9h162q26 0 33 -9t4 -34l-215 -1348q-3 -25 -13.5 -34t-35.5 -9h-162q-25 0 -32.5 9t-4.5 34zM324 1595l-138 136q-18 17 -18.5 29t14.5 30l72 92q39 49 61 12l213 -274q34 -51 -12 -51h-127q-39 0 -65 26z" />
<glyph unicode="&#xcd;" horiz-adv-x="612" d="M74 43l215 1348q3 25 13.5 34t35.5 9h162q26 0 33 -9t4 -34l-215 -1348q-3 -24 -14 -33.5t-36 -9.5h-161q-25 0 -32.5 9t-4.5 34zM750 1731l-183 -136q-33 -26 -71 -26h-127q-50 0 4 51l299 274q33 38 57 -12l43 -92q7 -18 3 -30t-25 -29z" />
<glyph unicode="&#xce;" horiz-adv-x="612" d="M74 43l215 1348q3 25 13.5 34t35.5 9h162q26 0 33 -9t4 -34l-215 -1348q-3 -24 -14 -33.5t-36 -9.5h-161q-25 0 -32.5 9t-4.5 34zM442 1933h95q19 -1 29.5 -10.5t23.5 -32.5l153 -282q21 -43 -26 -43h-92q-40 0 -58 43l-98 200l-158 -200q-30 -43 -73 -43h-95 q-45 0 -8 43l238 282q38 41 69 43z" />
<glyph unicode="&#xcf;" horiz-adv-x="612" d="M74 43l215 1348q3 25 13.5 34t35.5 9h162q26 0 33 -9t4 -34l-215 -1348q-3 -24 -14 -33.5t-36 -9.5h-161q-25 0 -32.5 9t-4.5 34zM131 1761q9 51 48.5 86t90.5 35q50 0 79 -35t22 -86q-7 -50 -48.5 -84.5t-91.5 -34.5q-51 0 -79.5 34t-20.5 85zM547 1761q9 51 48.5 86 t90.5 35q50 0 78.5 -35t21.5 -86q-7 -50 -48 -84.5t-91 -34.5q-51 0 -79.5 34t-20.5 85z" />
<glyph unicode="&#xd0;" horiz-adv-x="1648" d="M96 825h193l90 566q4 25 15 34t36 9h514q149 0 274 -55t206.5 -150t117 -228.5t12.5 -283.5q-32 -201 -154.5 -365.5t-303 -258t-379.5 -93.5h-514q-25 0 -33 9.5t-4 33.5l92 582h-192q-25 0 -33 10t-4 35l16 112q4 25 15 34t36 9zM909 1227h-307l-65 -402h282 q25 0 33 -9.5t4 -33.5l-16 -112q-5 -25 -15.5 -35t-36.5 -10h-282l-68 -418h310q108 0 205.5 42t168 113t118.5 163t65 192q15 101 -3.5 193t-67 162.5t-133 112.5t-192.5 42z" />
<glyph unicode="&#xd1;" horiz-adv-x="1589" d="M467 958l-145 -915q-4 -25 -15.5 -34t-36.5 -9h-159q-25 0 -33 9.5t-4 33.5l221 1399q2 11 6 14.5t14 3.5h17q14 0 30 -16l760 -963l144 910q3 25 13.5 34t35.5 9h162q24 0 31.5 -9t4.5 -34l-223 -1399q-2 -11 -6 -15t-14 -4h-15q-15 0 -32 17zM1079 1800q64 0 111 82 q14 24 25 29t36 -4l54 -25q16 -8 22 -15.5t4.5 -17.5t-10.5 -28q-103 -179 -254 -179q-55 0 -89 13.5t-77 46.5q-35 26 -47.5 34.5t-32.5 16.5t-41 8q-61 0 -110 -80q-14 -23 -25.5 -28t-34.5 2l-55 26q-17 7 -23 14.5t-3.5 18t12.5 27.5q97 180 252 180q55 0 90 -14t78 -47 q6 -4 19 -14t17 -13t14 -10t14 -9l12 -6t13.5 -5t13 -2t15.5 -1z" />
<glyph unicode="&#xd2;" horiz-adv-x="1658" d="M94 717q33 213 155.5 383t305 265t391.5 95q148 0 274.5 -59t209.5 -159t120.5 -237.5t14.5 -287.5t-103.5 -288t-195.5 -237.5t-261 -159t-294 -59.5t-274 59.5t-209 159t-120 237.5t-14 288zM346 717q-15 -101 5.5 -196t70 -168.5t133.5 -118t188 -44.5q106 0 206 45 t173.5 119t124 168.5t66.5 194.5q15 102 -5.5 197t-70.5 168t-135 117t-191 44q-102 0 -200 -44t-172.5 -116.5t-126 -168t-66.5 -197.5zM885 1595l-137 136q-19 17 -19.5 28.5t14.5 30.5l72 92q40 50 62 12l213 -274q34 -51 -13 -51h-127q-39 0 -65 26z" />
<glyph unicode="&#xd3;" horiz-adv-x="1658" d="M94 717q33 213 155.5 383t305 265t391.5 95q148 0 274.5 -59t209.5 -159t120.5 -237.5t14.5 -287.5t-103.5 -288t-195.5 -237.5t-261 -159t-294 -59.5t-274 59.5t-209 159t-120 237.5t-14 288zM346 717q-15 -101 5.5 -196t70 -168.5t133.5 -118t188 -44.5q106 0 206 45 t173.5 119t124 168.5t66.5 194.5q15 102 -5.5 197t-70.5 168t-135 117t-191 44q-102 0 -200 -44t-172.5 -116.5t-126 -168t-66.5 -197.5zM1251 1731l-182 -136q-33 -26 -72 -26h-127q-50 0 4 51l300 274q33 38 57 -12l43 -92q7 -18 2.5 -30t-25.5 -29z" />
<glyph unicode="&#xd4;" horiz-adv-x="1658" d="M94 717q33 213 155.5 383t305 265t391.5 95q148 0 274.5 -59t209.5 -159t120.5 -237.5t14.5 -287.5t-103.5 -288t-195.5 -237.5t-261 -159t-294 -59.5t-274 59.5t-209 159t-120 237.5t-14 288zM346 717q-15 -101 5.5 -196t70 -168.5t133.5 -118t188 -44.5q106 0 206 45 t173.5 119t124 168.5t66.5 194.5q15 102 -5.5 197t-70.5 168t-135 117t-191 44q-102 0 -200 -44t-172.5 -116.5t-126 -168t-66.5 -197.5zM991 1933h94q19 -1 30 -10.5t24 -32.5l153 -282q21 -43 -26 -43h-92q-40 0 -58 43l-98 200l-158 -200q-30 -43 -74 -43h-94 q-45 0 -8 43l238 282q38 41 69 43z" />
<glyph unicode="&#xd5;" horiz-adv-x="1658" d="M94 717q33 213 155.5 383t305 265t391.5 95q148 0 274.5 -59t209.5 -159t120.5 -237.5t14.5 -287.5t-103.5 -288t-195.5 -237.5t-261 -159t-294 -59.5t-274 59.5t-209 159t-120 237.5t-14 288zM346 717q-15 -101 5.5 -196t70 -168.5t133.5 -118t188 -44.5q106 0 206 45 t173.5 119t124 168.5t66.5 194.5q15 102 -5.5 197t-70.5 168t-135 117t-191 44q-102 0 -200 -44t-172.5 -116.5t-126 -168t-66.5 -197.5zM1149 1800q64 0 111 82q14 24 25 29t36 -4l53 -25q24 -12 27 -23.5t-10 -37.5q-103 -179 -254 -179q-55 0 -89 13.5t-77 46.5 q-35 26 -47.5 34.5t-32.5 16.5t-41 8q-62 0 -111 -80q-14 -23 -25 -28t-34 2l-55 26q-17 7 -23 14.5t-4 18t12 27.5q97 180 252 180q55 0 90 -14t78 -47q4 -3 16.5 -12.5t16 -12t13 -9t13 -8.5t11 -6.5t12 -5.5t11.5 -3t13 -2.5t13 -0.5z" />
<glyph unicode="&#xd6;" horiz-adv-x="1658" d="M94 717q33 213 155.5 383t305 265t391.5 95q148 0 274.5 -59t209.5 -159t120.5 -237.5t14.5 -287.5t-103.5 -288t-195.5 -237.5t-261 -159t-294 -59.5t-274 59.5t-209 159t-120 237.5t-14 288zM346 717q-15 -101 5.5 -196t70 -168.5t133.5 -118t188 -44.5q106 0 206 45 t173.5 119t124 168.5t66.5 194.5q15 102 -5.5 197t-70.5 168t-135 117t-191 44q-102 0 -200 -44t-172.5 -116.5t-126 -168t-66.5 -197.5zM676 1761q9 51 48.5 86t90.5 35q50 0 78.5 -35t21.5 -86q-7 -50 -48 -84.5t-91 -34.5q-51 0 -79.5 34t-20.5 85zM1092 1761 q9 51 48.5 86t90.5 35q50 0 78.5 -35t21.5 -86q-7 -50 -48 -84.5t-91 -34.5q-51 0 -79.5 34t-20.5 85z" />
<glyph unicode="&#xd7;" horiz-adv-x="901" d="M594 291l-164 194l-227 -194q-20 -19 -33.5 -19t-28.5 19l-61 74q-15 17 -13.5 29.5t21.5 31.5l229 195l-165 194q-15 19 -13 32t23 30l84 73q22 19 34 19t27 -19l164 -194l227 194q20 19 34 19t28 -19l61 -73q15 -17 13.5 -30t-21.5 -32l-227 -194l164 -195 q15 -19 13 -31.5t-24 -29.5l-84 -74q-20 -19 -33 -19t-28 19z" />
<glyph unicode="&#xd8;" horiz-adv-x="1658" d="M94 717q34 213 155.5 383t304.5 265t392 95q128 0 256 -49l51 76q21 35 62 35h78q59 0 28 -45l-94 -140q46 -36 85 -79.5t75 -102t56.5 -124.5t29 -146.5t-7.5 -167.5q-24 -150 -105 -288t-195.5 -237.5t-260 -159t-293.5 -59.5t-271 58l-55 -84q-13 -19 -26 -27t-37 -8 h-76q-57 0 -31 45l102 147q-132 102 -192.5 263.5t-30.5 349.5zM1315 717q14 91 -5.5 177t-50.5 140t-73 99l-613 -906q76 -37 172 -37q106 0 205.5 45t173 119t124 168.5t67.5 194.5zM344 717q-32 -226 115 -404l612 899q-96 31 -160 31q-101 0 -199 -44t-173 -116 t-127.5 -168t-67.5 -198z" />
<glyph unicode="&#xd9;" horiz-adv-x="1476" d="M623 -27q-127 0 -229 39.5t-172.5 115t-98.5 194.5t-4 268l127 801q4 25 15 34t36 9h160q26 0 34 -9t3 -34l-125 -791q-33 -208 41.5 -309t244.5 -101t278 101t142 309l125 791q3 25 13 34t36 9h160q26 0 34 -9t5 -34l-127 -801q-24 -149 -89.5 -268t-159.5 -194.5 t-208 -115t-241 -39.5zM772 1595l-137 136q-18 17 -18.5 29t14.5 30l71 92q40 50 62 12l213 -274q34 -51 -12 -51h-127q-40 0 -66 26z" />
<glyph unicode="&#xda;" horiz-adv-x="1476" d="M623 -27q-127 0 -229 39.5t-172.5 115t-98.5 194.5t-4 268l127 801q4 25 15 34t36 9h160q26 0 34 -9t3 -34l-125 -791q-33 -208 41.5 -309t244.5 -101t278 101t142 309l125 791q3 25 13 34t36 9h160q26 0 34 -9t5 -34l-127 -801q-24 -149 -89.5 -268t-159.5 -194.5 t-208 -115t-241 -39.5zM1083 1731l-182 -136q-33 -26 -72 -26h-127q-49 0 5 51l299 274q33 38 57 -12l43 -92q7 -18 2.5 -30t-25.5 -29z" />
<glyph unicode="&#xdb;" horiz-adv-x="1476" d="M623 -27q-127 0 -229 39.5t-172.5 115t-98.5 194.5t-4 268l127 801q4 25 15 34t36 9h160q26 0 34 -9t3 -34l-125 -791q-33 -208 41.5 -309t244.5 -101t278 101t142 309l125 791q3 25 13 34t36 9h160q26 0 34 -9t5 -34l-127 -801q-24 -149 -89.5 -268t-159.5 -194.5 t-208 -115t-241 -39.5zM877 1933h94q19 -1 29.5 -10.5t23.5 -32.5l154 -282q21 -43 -27 -43h-92q-40 0 -58 43l-98 200l-158 -200q-30 -43 -73 -43h-94q-46 0 -9 43l238 282q38 41 70 43z" />
<glyph unicode="&#xdc;" horiz-adv-x="1476" d="M623 -27q-127 0 -229 39.5t-172.5 115t-98.5 194.5t-4 268l127 801q4 25 15 34t36 9h160q26 0 34 -9t3 -34l-125 -791q-33 -208 41.5 -309t244.5 -101t278 101t142 309l125 791q3 25 13 34t36 9h160q26 0 34 -9t5 -34l-127 -801q-24 -149 -89.5 -268t-159.5 -194.5 t-208 -115t-241 -39.5zM561 1761q9 51 48.5 86t90.5 35q50 0 79 -35t22 -86q-7 -50 -48 -84.5t-91 -34.5q-51 0 -80 34t-21 85zM977 1761q9 51 48.5 86t90.5 35q50 0 79 -35t22 -86q-7 -50 -48.5 -84.5t-91.5 -34.5q-51 0 -79.5 34t-20.5 85z" />
<glyph unicode="&#xdd;" horiz-adv-x="1333" d="M522 541l-389 850q-10 25 -3.5 34t30.5 9h184q22 0 32 -8.5t21 -34.5l279 -633l485 633q20 26 32 34.5t34 8.5h178q25 0 29 -9t-13 -34l-659 -850l-78 -498q-5 -25 -15 -34t-36 -9h-154q-25 0 -32.5 9t-4.5 34zM1014 1731l-183 -136q-33 -26 -71 -26h-127q-50 0 4 51 l299 274q33 38 57 -12l43 -92q7 -18 3 -30t-25 -29z" />
<glyph unicode="&#xde;" horiz-adv-x="1296" d="M655 0h-352l-59 -375q-3 -25 -13.5 -34t-35.5 -9h-148q-23 0 -30.5 9t-4.5 34l283 1792q3 25 13.5 34t35.5 9h148q26 0 32.5 -8.5t3.5 -34.5l-59 -375h352q134 0 232.5 -69t142 -188t21.5 -263q-37 -224 -197.5 -373t-364.5 -149zM338 209h299q80 0 152.5 36.5t125.5 109 t68 167.5q24 143 -49.5 229.5t-198.5 86.5h-299z" />
<glyph unicode="&#xdf;" horiz-adv-x="1329" d="M682 827h43q117 0 194 53t89 132q17 109 -45.5 162t-200.5 53q-134 0 -212.5 -50.5t-96.5 -162.5l-66 -424l-88 -547q-5 -25 -15 -34t-36 -9h-158q-25 0 -32.5 9t-4.5 34l158 993q14 87 55.5 156.5t98 114t128.5 74t142.5 41.5t144.5 12h21q76 0 145 -12t133 -41.5 t107.5 -74t64 -114t6.5 -156.5q-30 -196 -249 -297v-2q21 -9 40.5 -20t43.5 -28t42 -37t37 -46.5t27.5 -57t13.5 -69.5t-4 -82q-17 -108 -74.5 -188t-140.5 -124t-173 -64.5t-187 -20.5h-146q-24 0 -31.5 9t-4.5 34l18 121q4 26 15 34.5t36 8.5h133q144 0 219 53.5t93 159.5 q12 88 -52 148.5t-184 60.5h-78q-25 0 -32.5 8.5t-4.5 34.5l19 112q3 26 13.5 34.5t35.5 8.5z" />
<glyph unicode="&#xe0;" horiz-adv-x="1155" d="M297 834q-24 -3 -32 5.5t-11 34.5l-10 99q-2 25 5.5 36t31.5 17q38 9 152 24t212 15q144 0 232 -32t125.5 -94.5t42.5 -155.5t-17 -214l-84 -526q-5 -25 -15 -34t-36 -9h-86q-19 0 -28 9t-13 34v96q-175 -162 -408 -162q-70 0 -130 21.5t-104.5 63t-64 108t-6.5 149.5 q27 160 151.5 245t299.5 85q68 0 150 -14.5t145 -38.5q24 148 -17.5 208t-179.5 60q-142 0 -305 -30zM535 483q-112 0 -174.5 -45t-73.5 -119q-12 -66 32.5 -114.5t143.5 -48.5q74 0 150.5 41t138.5 104l20 129q-76 28 -126 40.5t-111 12.5zM592 1204l-137 135 q-18 17 -18.5 29.5t14.5 30.5l71 92q40 50 62 12l213 -274q34 -51 -13 -51h-127q-39 0 -65 26z" />
<glyph unicode="&#xe1;" horiz-adv-x="1155" d="M297 834q-24 -3 -32 5.5t-11 34.5l-10 99q-2 25 5.5 36t31.5 17q38 9 152 24t212 15q144 0 232 -32t125.5 -94.5t42.5 -155.5t-17 -214l-84 -526q-5 -25 -15 -34t-36 -9h-86q-19 0 -28 9t-13 34v96q-175 -162 -408 -162q-70 0 -130 21.5t-104.5 63t-64 108t-6.5 149.5 q27 160 151.5 245t299.5 85q68 0 150 -14.5t145 -38.5q24 148 -17.5 208t-179.5 60q-142 0 -305 -30zM535 483q-112 0 -174.5 -45t-73.5 -119q-12 -66 32.5 -114.5t143.5 -48.5q74 0 150.5 41t138.5 104l20 129q-76 28 -126 40.5t-111 12.5zM881 1339l-183 -135 q-32 -26 -71 -26h-127q-50 0 4 51l299 274q33 38 57 -12l43 -92q7 -18 3 -31t-25 -29z" />
<glyph unicode="&#xe2;" horiz-adv-x="1155" d="M297 834q-24 -3 -32 5.5t-11 34.5l-10 99q-2 25 5.5 36t31.5 17q38 9 152 24t212 15q144 0 232 -32t125.5 -94.5t42.5 -155.5t-17 -214l-84 -526q-5 -25 -15 -34t-36 -9h-86q-19 0 -28 9t-13 34v96q-175 -162 -408 -162q-70 0 -130 21.5t-104.5 63t-64 108t-6.5 149.5 q27 160 151.5 245t299.5 85q68 0 150 -14.5t145 -38.5q24 148 -17.5 208t-179.5 60q-142 0 -305 -30zM535 483q-112 0 -174.5 -45t-73.5 -119q-12 -66 32.5 -114.5t143.5 -48.5q74 0 150.5 41t138.5 104l20 129q-76 28 -126 40.5t-111 12.5zM657 1542h95q19 -1 29.5 -10.5 t23.5 -32.5l153 -282q21 -43 -26 -43h-92q-40 0 -58 43l-98 200l-158 -200q-30 -43 -73 -43h-95q-45 0 -8 43l238 282q38 41 69 43z" />
<glyph unicode="&#xe3;" horiz-adv-x="1155" d="M297 834q-24 -3 -32 5.5t-11 34.5l-10 99q-2 25 5.5 36t31.5 17q38 9 152 24t212 15q144 0 232 -32t125.5 -94.5t42.5 -155.5t-17 -214l-84 -526q-5 -25 -15 -34t-36 -9h-86q-19 0 -28 9t-13 34v96q-175 -162 -408 -162q-70 0 -130 21.5t-104.5 63t-64 108t-6.5 149.5 q27 160 151.5 245t299.5 85q68 0 150 -14.5t145 -38.5q24 148 -17.5 208t-179.5 60q-142 0 -305 -30zM535 483q-112 0 -174.5 -45t-73.5 -119q-12 -66 32.5 -114.5t143.5 -48.5q74 0 150.5 41t138.5 104l20 129q-76 28 -126 40.5t-111 12.5zM813 1409q64 0 111 82 q14 24 25 29t36 -4l53 -25q24 -12 27 -23.5t-10 -37.5q-103 -179 -254 -179q-55 0 -89 13.5t-77 46.5q-35 26 -47.5 34.5t-32.5 16.5t-41 8q-62 0 -111 -80q-14 -23 -25 -28t-34 2l-55 26q-17 7 -23 14.5t-4 18t12 27.5q97 180 252 180q55 0 89.5 -14t78.5 -48 q61 -46 82 -53q17 -6 37 -6z" />
<glyph unicode="&#xe4;" horiz-adv-x="1155" d="M297 834q-24 -3 -32 5.5t-11 34.5l-10 99q-2 25 5.5 36t31.5 17q38 9 152 24t212 15q144 0 232 -32t125.5 -94.5t42.5 -155.5t-17 -214l-84 -526q-5 -25 -15 -34t-36 -9h-86q-19 0 -28 9t-13 34v96q-175 -162 -408 -162q-70 0 -130 21.5t-104.5 63t-64 108t-6.5 149.5 q27 160 151.5 245t299.5 85q68 0 150 -14.5t145 -38.5q24 148 -17.5 208t-179.5 60q-142 0 -305 -30zM535 483q-112 0 -174.5 -45t-73.5 -119q-12 -66 32.5 -114.5t143.5 -48.5q74 0 150.5 41t138.5 104l20 129q-76 28 -126 40.5t-111 12.5zM369 1370q9 51 48.5 86t90.5 35 q50 0 78.5 -35t21.5 -86q-7 -50 -48 -84.5t-91 -34.5q-51 0 -79.5 34t-20.5 85zM784 1370q9 51 49 86t91 35q50 0 78.5 -35t21.5 -86q-7 -50 -48 -84.5t-91 -34.5q-51 0 -80 34t-21 85z" />
<glyph unicode="&#xe5;" horiz-adv-x="1155" d="M297 834q-24 -3 -32 5.5t-11 34.5l-10 99q-2 25 5.5 36t31.5 17q38 9 152 24t212 15q144 0 232 -32t125.5 -94.5t42.5 -155.5t-17 -214l-84 -526q-5 -25 -15 -34t-36 -9h-86q-19 0 -28 9t-13 34v96q-175 -162 -408 -162q-70 0 -130 21.5t-104.5 63t-64 108t-6.5 149.5 q27 160 151.5 245t299.5 85q68 0 150 -14.5t145 -38.5q24 148 -17.5 208t-179.5 60q-142 0 -305 -30zM535 483q-112 0 -174.5 -45t-73.5 -119q-12 -66 32.5 -114.5t143.5 -48.5q74 0 150.5 41t138.5 104l20 129q-76 28 -126 40.5t-111 12.5zM659 1180q-97 0 -151 66t-37 163 q14 97 88.5 163t171.5 66q96 0 151.5 -66t41.5 -163q-17 -97 -93.5 -163t-171.5 -66zM678 1294q48 0 81.5 35t41.5 80q7 45 -16.5 80t-71.5 35q-47 0 -81 -35t-40 -80q-8 -45 15 -80t71 -35z" />
<glyph unicode="&#xe6;" horiz-adv-x="1892" d="M815 596l14 84q3 101 -47.5 142.5t-173.5 41.5q-140 0 -303 -30q-22 -3 -32 5t-13 33l-8 101q-2 25 5.5 36t31.5 17q36 9 155.5 24t214.5 15q123 0 198.5 -32t125.5 -118q103 80 200.5 115t213.5 35q85 0 156 -24t119 -65.5t84 -97.5t50 -119.5t17.5 -131t-13.5 -133.5 l-2 -9q-7 -24 -15.5 -32.5t-31.5 -8.5h-731l-10 -67q20 -85 87 -142t161 -57q149 0 293 78q15 6 23 8.5t16.5 3t14 -3t9.5 -12.5l47 -74q13 -20 13 -31t-15 -24q-81 -69 -202.5 -107.5t-243.5 -38.5q-131 0 -222.5 64t-132.5 152q-51 -47 -122.5 -93t-178.5 -84.5 t-205 -38.5q-71 0 -131 21t-105 61t-65.5 105.5t-7.5 148.5q27 164 147.5 250t293.5 86q70 0 165 -15t156 -38zM768 301l20 129q-144 53 -264 53q-113 0 -179.5 -46t-78.5 -122q-10 -65 31 -112t139 -47q78 0 177.5 43.5t154.5 101.5zM1073 686l-14 -88h530q2 53 -8 99.5 t-35 87t-72.5 64t-113.5 23.5q-177 0 -287 -186z" />
<glyph unicode="&#xe7;" horiz-adv-x="1091" d="M426 -184l63 168q-188 36 -292 184t-72 352q23 150 115.5 275.5t228.5 197.5t283 72q221 0 354 -154q12 -14 9 -24t-23 -29l-88 -82q-21 -20 -33.5 -22t-28.5 14q-80 88 -223 88q-130 0 -235.5 -97t-127.5 -239t53 -238t203 -96q143 0 252 88q21 17 33 15t27 -23l61 -82 q14 -19 13.5 -29.5t-15.5 -23.5q-177 -148 -391 -154l-23 -86q109 0 160.5 -51t36.5 -145q-14 -92 -81.5 -146.5t-174.5 -54.5q-88 0 -180 82q-23 17 2 45l33 35q13 13 22 13.5t23 -9.5q66 -41 135 -41q81 0 92 76q6 42 -16 62t-74 20h-96q-19 0 -26 10t1 29z" />
<glyph unicode="&#xe8;" horiz-adv-x="1212" d="M991 180l-47 72q-4 7 -8.5 11t-7.5 6t-9 1t-9 -2t-12.5 -5.5t-14.5 -6.5q-150 -78 -295 -78q-117 0 -194 77t-79 189h768q25 0 34.5 9.5t12.5 35.5q12 93 7.5 178t-36.5 157.5t-81.5 126t-128 84t-176.5 30.5q-147 0 -283.5 -72t-229 -197.5t-116.5 -275.5 q-23 -148 30 -272.5t168 -197.5t267 -73q116 0 236.5 38.5t201.5 105.5q15 15 15.5 27.5t-13.5 31.5zM909 598h-563q18 66 60.5 126.5t115 104t156.5 43.5q82 0 137 -42t76 -101.5t18 -130.5zM676 1204l-137 135q-18 17 -18.5 29.5t14.5 30.5l71 92q40 50 62 12l213 -274 q34 -51 -13 -51h-127q-39 0 -65 26z" />
<glyph unicode="&#xe9;" horiz-adv-x="1212" d="M944 252l47 -72q14 -19 13.5 -31.5t-15.5 -27.5q-81 -67 -201.5 -105.5t-236.5 -38.5q-152 0 -267 73t-168 197.5t-30 272.5q24 150 116.5 275.5t229 197.5t283.5 72q98 0 176.5 -30.5t128 -84t81.5 -126t36.5 -157.5t-7.5 -178q-3 -26 -12.5 -35.5t-34.5 -9.5h-768 q2 -112 79 -189t194 -77q145 0 295 78q5 2 14.5 6.5t12.5 5.5t9 2t9 -1t7.5 -6t8.5 -11zM346 598h563q3 71 -18 130.5t-76 101.5t-137 42q-84 0 -156.5 -43.5t-115 -104t-60.5 -126.5zM1004 1339l-183 -135q-33 -26 -71 -26h-127q-50 0 4 51l299 274q33 38 57 -12l43 -92 q7 -18 3 -31t-25 -29z" />
<glyph unicode="&#xea;" horiz-adv-x="1212" d="M991 180l-47 72q-4 7 -8.5 11t-7.5 6t-9 1t-9 -2t-12.5 -5.5t-14.5 -6.5q-150 -78 -295 -78q-117 0 -194 77t-79 189h768q25 0 34.5 9.5t12.5 35.5q12 93 7.5 178t-36.5 157.5t-81.5 126t-128 84t-176.5 30.5q-147 0 -283.5 -72t-229 -197.5t-116.5 -275.5 q-23 -148 30 -272.5t168 -197.5t267 -73q116 0 236.5 38.5t201.5 105.5q15 15 15.5 27.5t-13.5 31.5zM909 598h-563q18 66 60.5 126.5t115 104t156.5 43.5q82 0 137 -42t76 -101.5t18 -130.5zM758 1542h94q19 -1 29.5 -10.5t23.5 -32.5l154 -282q21 -43 -27 -43h-92 q-22 0 -35 10t-22 33l-99 200l-157 -200q-30 -43 -74 -43h-94q-45 0 -8 43l237 282q38 41 70 43z" />
<glyph unicode="&#xeb;" horiz-adv-x="1212" d="M991 180l-47 72q-4 7 -8.5 11t-7.5 6t-9 1t-9 -2t-12.5 -5.5t-14.5 -6.5q-150 -78 -295 -78q-117 0 -194 77t-79 189h768q25 0 34.5 9.5t12.5 35.5q12 93 7.5 178t-36.5 157.5t-81.5 126t-128 84t-176.5 30.5q-147 0 -283.5 -72t-229 -197.5t-116.5 -275.5 q-23 -148 30 -272.5t168 -197.5t267 -73q116 0 236.5 38.5t201.5 105.5q15 15 15.5 27.5t-13.5 31.5zM909 598h-563q18 66 60.5 126.5t115 104t156.5 43.5q82 0 137 -42t76 -101.5t18 -130.5zM442 1370q9 51 49 86t91 35q50 0 78.5 -35t21.5 -86q-7 -50 -48 -84.5t-91 -34.5 q-51 0 -80 34t-21 85zM858 1370q9 51 48.5 86t90.5 35q50 0 79 -35t22 -86q-7 -50 -48.5 -84.5t-91.5 -34.5q-51 0 -79.5 34t-20.5 85z" />
<glyph unicode="&#xec;" horiz-adv-x="604" d="M113 43l151 956q5 25 15 34t36 9h146q26 0 34 -9t3 -34l-152 -956q-4 -25 -15 -34t-36 -9h-145q-26 0 -34 9t-3 34zM276 1204l-137 135q-18 17 -18.5 29.5t14.5 30.5l72 92q39 49 61 12l213 -274q34 -51 -12 -51h-127q-40 0 -66 26z" />
<glyph unicode="&#xed;" horiz-adv-x="604" d="M104 43l152 956q5 25 15 34t36 9h146q26 0 33.5 -9t2.5 -34l-151 -956q-4 -25 -15 -34t-36 -9h-146q-26 0 -34 9t-3 34zM707 1339l-183 -135q-32 -26 -71 -26h-127q-50 0 4 51l299 274q33 38 57 -12l43 -92q7 -18 3 -31t-25 -29z" />
<glyph unicode="&#xee;" horiz-adv-x="598" d="M106 43l152 956q5 25 15 34t36 9h146q26 0 34 -9t3 -34l-152 -956q-4 -25 -15 -34t-36 -9h-146q-26 0 -34 9t-3 34zM401 1542h95q19 -1 29.5 -10.5t23.5 -32.5l153 -282q21 -43 -26 -43h-92q-40 0 -58 43l-98 200l-158 -200q-30 -43 -73 -43h-95q-45 0 -8 43l238 282 q38 41 69 43z" />
<glyph unicode="&#xef;" horiz-adv-x="598" d="M106 43l152 956q5 25 15 34t36 9h146q26 0 34 -9t3 -34l-152 -956q-4 -25 -15 -34t-36 -9h-146q-26 0 -34 9t-3 34zM98 1370q9 51 49 86t91 35q50 0 78.5 -35t21.5 -86q-7 -50 -48 -84.5t-91 -34.5q-51 0 -80 34t-21 85zM514 1370q9 51 48.5 86t90.5 35q50 0 79 -35 t22 -86q-7 -50 -48.5 -84.5t-91.5 -34.5q-51 0 -79.5 34t-20.5 85z" />
<glyph unicode="&#xf0;" horiz-adv-x="1247" d="M1014 1483l-68 -90q274 -168 187 -729q-20 -126 -52 -226.5t-86 -189.5t-127 -148t-177 -93t-234 -34q-152 0 -258.5 70t-150 186.5t-21.5 257.5q34 213 182.5 331t341.5 118q277 0 350 -193q53 339 -98 455l-119 -158q-15 -22 -29 -25.5t-34 9.5l-17 10q-38 22 -6 60 l104 141q-68 9 -147 0q-25 -4 -32.5 6.5t-2.5 38.5l21 125q3 27 14 38.5t37 12.5q23 2 72 2q101 0 188 -24l76 104q17 23 30 26t31 -10l19 -12q20 -12 21.5 -24t-15.5 -35zM504 182q78 0 141 26t102 68.5t61.5 89.5t29.5 97q20 112 -53 194t-193 82q-117 0 -210.5 -74.5 t-113.5 -193.5q-18 -125 44 -207t192 -82z" />
<glyph unicode="&#xf1;" horiz-adv-x="1232" d="M426 870l-6 129q-10 26 -18 34.5t-27 8.5h-74q-25 0 -35.5 -9t-13.5 -34l-74 -469l-78 -487q-5 -25 2.5 -34t32.5 -9h148q25 0 36 9t15 34l78 492q24 150 95.5 235.5t182.5 85.5q225 0 174 -315l-78 -498q-5 -25 2.5 -34t32.5 -9h148q25 0 36 9t15 34l86 549 q18 105 9 184.5t-34 134.5t-70.5 89t-101 49.5t-125.5 15.5q-62 0 -116.5 -17t-101.5 -51.5t-74.5 -60t-65.5 -66.5zM887 1409q63 0 110 82q14 24 25.5 29t36.5 -4l53 -25q16 -8 22 -15.5t4.5 -17.5t-10.5 -28q-103 -179 -254 -179q-55 0 -88.5 13t-76.5 47 q-35 26 -47.5 34.5t-32.5 16.5t-41 8q-62 0 -111 -80q-14 -23 -25 -28t-34 2l-56 26q-17 7 -23 14.5t-3.5 18t12.5 27.5q97 180 252 180q55 0 89.5 -14t78.5 -48q61 -46 82 -53q17 -6 37 -6z" />
<glyph unicode="&#xf2;" horiz-adv-x="1259" d="M86 520q24 150 117.5 275.5t230 197.5t283.5 72t259.5 -73.5t164.5 -199t28 -272.5q-23 -147 -115 -272t-228 -198t-283 -73t-260.5 73t-166.5 198t-30 272zM575 182q128 0 234 98t129 240q22 142 -53 239t-203 97t-235 -97.5t-130 -238.5q-22 -142 54 -240t204 -98z M647 1204l-137 135q-18 17 -18.5 29.5t14.5 30.5l72 92q39 49 61 12l213 -274q34 -51 -12 -51h-127q-40 0 -66 26z" />
<glyph unicode="&#xf3;" horiz-adv-x="1259" d="M86 520q24 150 117.5 275.5t230 197.5t283.5 72t259.5 -73.5t164.5 -199t28 -272.5q-23 -147 -115 -272t-228 -198t-283 -73t-260.5 73t-166.5 198t-30 272zM575 182q128 0 234 98t129 240q22 142 -53 239t-203 97t-235 -97.5t-130 -238.5q-22 -142 54 -240t204 -98z M1014 1339l-183 -135q-33 -26 -71 -26h-127q-50 0 4 51l299 274q33 38 57 -12l43 -92q7 -18 3 -31t-25 -29z" />
<glyph unicode="&#xf4;" horiz-adv-x="1259" d="M86 520q24 150 117.5 275.5t230 197.5t283.5 72t259.5 -73.5t164.5 -199t28 -272.5q-23 -147 -115 -272t-228 -198t-283 -73t-260.5 73t-166.5 198t-30 272zM575 182q128 0 234 98t129 240q22 142 -53 239t-203 97t-235 -97.5t-130 -238.5q-22 -142 54 -240t204 -98z M760 1542h94q19 -1 29.5 -10.5t23.5 -32.5l154 -282q21 -43 -27 -43h-92q-22 0 -35 10t-22 33l-99 200l-157 -200q-30 -43 -74 -43h-94q-45 0 -8 43l237 282q38 41 70 43z" />
<glyph unicode="&#xf5;" horiz-adv-x="1259" d="M86 520q24 150 117.5 275.5t230 197.5t283.5 72t259.5 -73.5t164.5 -199t28 -272.5q-23 -147 -115 -272t-228 -198t-283 -73t-260.5 73t-166.5 198t-30 272zM575 182q128 0 234 98t129 240q22 142 -53 239t-203 97t-235 -97.5t-130 -238.5q-22 -142 54 -240t204 -98z M909 1409q64 0 111 82q14 24 25 29t36 -4l54 -25q16 -8 22 -15.5t4.5 -17.5t-10.5 -28q-103 -179 -254 -179q-55 0 -89 13.5t-77 46.5q-35 26 -47.5 34.5t-32.5 16.5t-41 8q-61 0 -110 -80q-14 -23 -25.5 -28t-34.5 2l-55 26q-17 7 -23 14.5t-3.5 18t12.5 27.5 q97 180 252 180q55 0 89.5 -14t78.5 -48q4 -3 15 -11.5t14.5 -10.5t12 -8.5t11.5 -8t10 -6t10.5 -5.5t10 -3.5t11 -3.5t11 -1.5t12.5 -0.5z" />
<glyph unicode="&#xf6;" horiz-adv-x="1259" d="M86 520q24 150 117.5 275.5t230 197.5t283.5 72t259.5 -73.5t164.5 -199t28 -272.5q-23 -147 -115 -272t-228 -198t-283 -73t-260.5 73t-166.5 198t-30 272zM575 182q128 0 234 98t129 240q22 142 -53 239t-203 97t-235 -97.5t-130 -238.5q-22 -142 54 -240t204 -98z M463 1370q9 51 48.5 86t90.5 35q50 0 78.5 -35t21.5 -86q-7 -50 -48 -84.5t-91 -34.5q-51 0 -79.5 34t-20.5 85zM879 1370q9 51 48.5 86t90.5 35q50 0 78.5 -35t21.5 -86q-7 -50 -48 -84.5t-91 -34.5q-51 0 -79.5 34t-20.5 85z" />
<glyph unicode="&#xf7;" horiz-adv-x="1138" d="M1010 541h-904q-26 0 -33.5 9t-4.5 36l14 80q3 26 13.5 35.5t35.5 9.5h903q26 0 34 -9t5 -34l-14 -84q-3 -25 -13.5 -34t-35.5 -9zM381 231q9 54 50 90.5t93 36.5q54 0 85 -36.5t22 -90.5q-6 -52 -49 -87t-97 -35t-83 34.5t-21 87.5zM506 1012q8 54 48.5 90.5t94.5 36.5 q53 0 83.5 -36.5t23.5 -90.5q-7 -52 -50.5 -87.5t-97.5 -35.5q-53 0 -82 35.5t-20 87.5z" />
<glyph unicode="&#xf8;" horiz-adv-x="1251" d="M78 520q25 150 117.5 275.5t228.5 197.5t283 72q88 0 170 -31l43 64q14 20 27.5 28.5t37.5 8.5h74q61 0 33 -45l-91 -125q94 -76 138.5 -193t21.5 -252q-23 -147 -115.5 -272t-229.5 -198t-284 -73q-86 0 -176 33l-41 -65q-13 -20 -26.5 -28.5t-38.5 -8.5h-74 q-59 0 -33 45l86 129q-89 73 -130.5 190t-20.5 248zM567 182q128 0 234 98t129 240q21 134 -68 240l-379 -561q51 -17 84 -17zM309 520q-7 -54 4 -105.5t23 -73.5t33 -54l376 555q-35 14 -71 14q-130 0 -236 -97t-129 -239z" />
<glyph unicode="&#xf9;" horiz-adv-x="1232" d="M803 172l8 -129q10 -26 18 -34.5t27 -8.5h74q25 0 35.5 9t13.5 34l74 469l77 487q3 25 -3.5 34t-30.5 9h-148q-25 0 -36 -9t-15 -34l-78 -491q-24 -150 -95.5 -236t-182.5 -86q-224 0 -176 314l79 499q3 25 -3.5 34t-30.5 9h-148q-25 0 -36 -9t-15 -34l-86 -548 q-18 -105 -9.5 -184.5t33.5 -134.5t70.5 -89.5t101 -50t125.5 -15.5q62 0 117 17.5t100.5 50t75 60t64.5 67.5zM602 1204l-137 135q-18 17 -18.5 29.5t14.5 30.5l71 92q40 50 62 12l213 -274q34 -51 -12 -51h-127q-40 0 -66 26z" />
<glyph unicode="&#xfa;" horiz-adv-x="1232" d="M811 43l-8 129q-35 -40 -64.5 -67.5t-75 -60t-100.5 -50t-117 -17.5q-70 0 -125.5 15.5t-101 50t-70.5 89.5t-33.5 134.5t9.5 184.5l86 548q4 25 15 34t36 9h148q24 0 30.5 -9t3.5 -34l-79 -499q-48 -314 176 -314q111 0 182.5 86t95.5 236l78 491q4 25 15 34t36 9h148 q24 0 30.5 -9t3.5 -34l-77 -487l-74 -469q-3 -25 -13.5 -34t-35.5 -9h-74q-19 0 -27 8.5t-18 34.5zM905 1339l-182 -135q-33 -26 -72 -26h-127q-50 0 4 51l299 274q33 39 58 -12l43 -92q7 -18 2.5 -30.5t-25.5 -29.5z" />
<glyph unicode="&#xfb;" horiz-adv-x="1232" d="M803 172l8 -129q10 -26 18 -34.5t27 -8.5h74q25 0 35.5 9t13.5 34l74 469l77 487q3 25 -3.5 34t-30.5 9h-148q-25 0 -36 -9t-15 -34l-78 -491q-24 -150 -95.5 -236t-182.5 -86q-224 0 -176 314l79 499q3 25 -3.5 34t-30.5 9h-148q-25 0 -36 -9t-15 -34l-86 -548 q-18 -105 -9.5 -184.5t33.5 -134.5t70.5 -89.5t101 -50t125.5 -15.5q62 0 117 17.5t100.5 50t75 60t64.5 67.5zM696 1542h95q19 -1 29.5 -10.5t23.5 -32.5l153 -282q21 -43 -26 -43h-92q-40 0 -58 43l-98 200l-158 -200q-30 -43 -73 -43h-95q-45 0 -8 43l238 282 q38 41 69 43z" />
<glyph unicode="&#xfc;" horiz-adv-x="1232" d="M803 172l8 -129q10 -26 18 -34.5t27 -8.5h74q25 0 35.5 9t13.5 34l74 469l77 487q3 25 -3.5 34t-30.5 9h-148q-25 0 -36 -9t-15 -34l-78 -491q-24 -150 -95.5 -236t-182.5 -86q-224 0 -176 314l79 499q3 25 -3.5 34t-30.5 9h-148q-25 0 -36 -9t-15 -34l-86 -548 q-18 -105 -9.5 -184.5t33.5 -134.5t70.5 -89.5t101 -50t125.5 -15.5q62 0 117 17.5t100.5 50t75 60t64.5 67.5zM393 1370q9 51 48.5 86t90.5 35q50 0 79 -35t22 -86q-7 -50 -48 -84.5t-91 -34.5q-51 0 -80 34t-21 85zM809 1370q9 51 48.5 86t90.5 35q50 0 79 -35t22 -86 q-7 -50 -48.5 -84.5t-91.5 -34.5q-51 0 -79.5 34t-20.5 85z" />
<glyph unicode="&#xfd;" horiz-adv-x="1093" d="M555 356l385 643q18 26 30.5 34.5t33.5 8.5h167q24 0 28 -9t-13 -34l-838 -1374q-17 -26 -29 -34.5t-32 -8.5h-168q-24 0 -28 9t11 34l287 469l-266 905q-7 25 -1 34t30 9h167q21 0 31 -9t19 -34l184 -645zM860 1339l-182 -135q-32 -26 -72 -26h-127q-50 0 4 51l299 274 q33 39 58 -12l43 -92q7 -18 2.5 -30.5t-25.5 -29.5z" />
<glyph unicode="&#xfe;" horiz-adv-x="1320" d="M674 0h-355l-57 -375q-5 -25 -15 -34t-36 -9h-145q-26 0 -33 9t-4 34l282 1792q5 25 15 34t36 9h146q26 0 34 -9t3 -34l-60 -375h355q133 0 231.5 -69t141.5 -188t20 -263q-37 -224 -196.5 -373t-362.5 -149zM354 209h299q125 0 225.5 85t122.5 228t-51 229.5t-196 86.5 h-299z" />
<glyph unicode="&#xff;" horiz-adv-x="1093" d="M555 356l385 643q18 26 30.5 34.5t33.5 8.5h167q24 0 28 -9t-13 -34l-838 -1374q-17 -26 -29 -34.5t-32 -8.5h-168q-24 0 -28 9t11 34l287 469l-266 905q-7 25 -1 34t30 9h167q21 0 31 -9t19 -34l184 -645zM371 1370q9 51 48.5 86t90.5 35q50 0 78.5 -35t21.5 -86 q-7 -50 -48 -84.5t-91 -34.5q-51 0 -79.5 34t-20.5 85zM786 1370q9 51 49 86t91 35q50 0 78.5 -35t21.5 -86q-7 -50 -48 -84.5t-91 -34.5q-51 0 -80 34t-21 85z" />
<glyph unicode="&#x152;" horiz-adv-x="2283" d="M346 717q-15 -100 4.5 -194.5t68.5 -168.5t132.5 -119t187.5 -45q106 0 205 45t171.5 119t122.5 168.5t67 194.5q10 81 2.5 157.5t-40.5 143.5t-81.5 117t-120.5 79t-158 29q-102 0 -199 -44t-171 -116.5t-125 -168t-66 -197.5zM2050 616h-520q-34 -127 -100.5 -223 t-172.5 -182h781q25 0 32.5 -8.5t4.5 -34.5l-23 -125q-3 -25 -13 -34t-36 -9h-932q-57 0 -183 -13.5t-181 -13.5q-148 0 -274 59.5t-208 159.5t-118 237.5t-13 287.5q34 213 154.5 383t303 265t390.5 95q54 0 176.5 -13t179.5 -13h932q25 0 33 -9.5t4 -33.5l-20 -125 q-5 -25 -15.5 -35t-36.5 -10h-653h-127q70 -61 112.5 -168t35.5 -226h522q25 0 32 -8.5t3 -34.5l-19 -125q-3 -25 -14 -34t-37 -9z" />
<glyph unicode="&#x153;" horiz-adv-x="1970" d="M1114 444l-16 -94q13 -81 86 -126.5t162 -45.5q142 0 294 78q4 2 11.5 5t10 4.5t8 3t8 1.5t6.5 -0.5t6.5 -2.5t5.5 -6t6 -9l47 -74q13 -19 13 -30.5t-13 -24.5q-85 -71 -203 -108.5t-237 -37.5q-228 0 -363 154q-86 -73 -190.5 -113.5t-212.5 -40.5q-147 0 -261 73 t-167 198t-29 272q25 150 118 275.5t229.5 197.5t283.5 72q106 0 197.5 -41t156.5 -113q185 154 402 154q85 0 155.5 -24t117.5 -65.5t82 -97.5t49.5 -120t19 -132.5t-8.5 -136.5q-3 -26 -12.5 -35.5t-34.5 -9.5h-727zM1159 692l-16 -94h524q7 115 -51.5 194.5t-179.5 79.5 q-94 0 -163 -51.5t-114 -128.5zM883 418l32 205q-5 105 -67 169t-166 64q-128 0 -235 -97.5t-130 -238.5q-22 -142 54 -240t204 -98q104 0 187 65.5t121 170.5z" />
<glyph unicode="&#x178;" horiz-adv-x="1327" d="M127 1391l389 -850l-80 -498q-3 -25 4.5 -34t32.5 -9h154q26 0 36 9t15 34l78 498l659 850q17 25 13 34t-29 9h-178q-22 0 -34 -8.5t-32 -34.5l-485 -633l-279 633q-11 26 -21 34.5t-32 8.5h-184q-24 0 -30.5 -9t3.5 -34zM481 1761q9 51 49 86t91 35q50 0 78.5 -35 t21.5 -86q-7 -50 -48 -84.5t-91 -34.5q-51 0 -80 34t-21 85zM897 1761q9 51 48.5 86t90.5 35q50 0 79 -35t22 -86q-7 -50 -48.5 -84.5t-91.5 -34.5q-51 0 -79.5 34t-20.5 85z" />
<glyph unicode="&#x2c6;" horiz-adv-x="800" d="M381 1542h94q19 -1 29.5 -10.5t23.5 -32.5l154 -282q21 -43 -27 -43h-92q-22 0 -35 10t-22 33l-98 200l-158 -200q-30 -43 -74 -43h-94q-45 0 -8 43l237 282q38 41 70 43z" />
<glyph unicode="&#x2dc;" horiz-adv-x="917" d="M608 1409q64 0 111 82q14 24 25 29t36 -4l54 -25q16 -8 22 -15.5t4.5 -17.5t-10.5 -28q-103 -179 -254 -179q-55 0 -89 13.5t-77 46.5q-35 26 -47.5 34.5t-32.5 16.5t-41 8q-61 0 -110 -80q-14 -23 -25.5 -28t-34.5 2l-55 26q-17 7 -23 14.5t-3.5 18t12.5 27.5 q97 180 252 180q55 0 89 -14t78 -48q61 -46 82 -53q17 -6 37 -6z" />
<glyph unicode="&#x2000;" horiz-adv-x="1015" />
<glyph unicode="&#x2001;" horiz-adv-x="2030" />
<glyph unicode="&#x2002;" horiz-adv-x="1015" />
<glyph unicode="&#x2003;" horiz-adv-x="2030" />
<glyph unicode="&#x2004;" horiz-adv-x="676" />
<glyph unicode="&#x2005;" horiz-adv-x="507" />
<glyph unicode="&#x2006;" horiz-adv-x="338" />
<glyph unicode="&#x2007;" horiz-adv-x="338" />
<glyph unicode="&#x2008;" horiz-adv-x="253" />
<glyph unicode="&#x2009;" horiz-adv-x="406" />
<glyph unicode="&#x200a;" horiz-adv-x="112" />
<glyph unicode="&#x2010;" horiz-adv-x="878" d="M707 489h-566q-25 0 -33 9.5t-4 33.5l17 97q3 26 13.5 34.5t35.5 8.5h565q26 0 33.5 -8.5t3.5 -34.5l-16 -97q-3 -25 -13 -34t-36 -9z" />
<glyph unicode="&#x2011;" horiz-adv-x="878" d="M707 489h-566q-25 0 -33 9.5t-4 33.5l17 97q3 26 13.5 34.5t35.5 8.5h565q26 0 33.5 -8.5t3.5 -34.5l-16 -97q-3 -25 -13 -34t-36 -9z" />
<glyph unicode="&#x2012;" horiz-adv-x="878" d="M707 489h-566q-25 0 -33 9.5t-4 33.5l17 97q3 26 13.5 34.5t35.5 8.5h565q26 0 33.5 -8.5t3.5 -34.5l-16 -97q-3 -25 -13 -34t-36 -9z" />
<glyph unicode="&#x2013;" horiz-adv-x="860" d="M705 489h-580q-26 0 -34 8.5t-5 34.5l16 97q5 25 15.5 34t36.5 9h579q25 0 32.5 -9t4.5 -34l-16 -97q-3 -26 -13.5 -34.5t-35.5 -8.5z" />
<glyph unicode="&#x2014;" horiz-adv-x="1206" d="M1051 489h-926q-26 0 -34 8.5t-5 34.5l16 97q5 25 15.5 34t36.5 9h925q25 0 32.5 -9t4.5 -34l-16 -97q-3 -26 -13.5 -34.5t-35.5 -8.5z" />
<glyph unicode="&#x2018;" horiz-adv-x="577" d="M287 1130h10q63 0 99.5 -45t27.5 -110q-11 -65 -64 -111.5t-118 -46.5q-73 0 -110.5 56t-22.5 151q23 143 120 256t228 174q23 11 28 -4l31 -66q5 -16 -14 -28q-167 -94 -215 -226z" />
<glyph unicode="&#x2019;" horiz-adv-x="577" d="M289 1147h-8q-64 0 -101 45t-28 111q11 65 63.5 111t118.5 46q73 0 110.5 -56t22.5 -153q-24 -143 -121 -256t-227 -172q-20 -10 -29 4l-31 66q-6 17 15 27q168 97 215 227z" />
<glyph unicode="&#x201a;" horiz-adv-x="577" d="M289 -23h-8q-64 1 -101 46t-28 110q11 65 64 111.5t118 46.5q73 0 110.5 -55.5t22.5 -151.5q-23 -143 -120 -256t-228 -174q-22 -7 -29 4l-31 66q-5 15 15 28q168 94 215 225z" />
<glyph unicode="&#x201c;" horiz-adv-x="1013" d="M723 1133h10q63 -1 99.5 -46t27.5 -110q-11 -66 -63.5 -113t-118.5 -47q-73 0 -110.5 56t-22.5 153q24 143 121 256t227 172q23 11 29 -4l30 -66q6 -16 -14 -26q-168 -97 -215 -225zM287 1133h10q63 -1 99.5 -46t27.5 -110q-11 -66 -63.5 -113t-118.5 -47 q-73 0 -110.5 56t-22.5 153q24 143 121 256t227 172q23 11 28 -4l31 -66q3 -9 0.5 -14.5t-14.5 -11.5q-168 -97 -215 -225z" />
<glyph unicode="&#x201d;" horiz-adv-x="1013" d="M289 1147h-8q-64 0 -101 45t-28 111q11 65 63.5 111t118.5 46q73 0 110.5 -56t22.5 -153q-24 -143 -121 -256t-227 -172q-20 -10 -29 4l-31 66q-6 17 15 27q168 97 215 227zM725 1147h-8q-64 0 -101 45t-28 111q11 65 63.5 111t118.5 46q73 0 110.5 -56t22.5 -153 q-24 -143 -121 -256t-227 -172q-20 -10 -29 4l-30 66q-6 17 14 27q168 97 215 227z" />
<glyph unicode="&#x201e;" horiz-adv-x="1013" d="M289 -23h-8q-64 1 -101 46t-28 110q11 65 64 111.5t118 46.5q73 0 110.5 -55.5t22.5 -151.5q-23 -143 -120 -256t-228 -174q-22 -7 -29 4l-31 66q-5 15 15 28q168 94 215 225zM725 -23h-8q-64 1 -101 46t-28 110q11 65 64 111.5t118 46.5q73 0 110.5 -55.5t22.5 -151.5 q-23 -143 -120 -256t-228 -174q-22 -7 -29 4l-30 66q-5 16 14 28q168 94 215 225z" />
<glyph unicode="&#x2022;" horiz-adv-x="550" d="M76 700q12 83 79 142t150 59t131.5 -58.5t36.5 -142.5q-13 -83 -80 -139.5t-151 -56.5q-85 0 -132.5 56.5t-33.5 139.5z" />
<glyph unicode="&#x2026;" horiz-adv-x="1554" d="M127 133q11 66 62.5 112t117.5 46t104.5 -46t28.5 -112t-64 -111t-120 -45t-103 45t-26 111zM618 133q11 66 64 112t119 46q65 0 103 -46t28 -112t-63.5 -111t-118.5 -45q-66 0 -104 45t-28 111zM1110 133q11 66 63.5 112t118.5 46t104.5 -46t28.5 -112t-64 -111 t-120 -45t-104 45t-27 111z" />
<glyph unicode="&#x202f;" horiz-adv-x="406" />
<glyph unicode="&#x2039;" horiz-adv-x="688" d="M109 606l393 377q22 17 33 19t28 -9l84 -53q18 -12 18 -25t-18 -34l-346 -361l231 -360q11 -20 7 -33.5t-25 -26.5l-98 -53q-23 -12 -35 -10.5t-25 20.5l-276 377q-31 41 -23 80l2 12q9 43 50 80z" />
<glyph unicode="&#x203a;" horiz-adv-x="688" d="M330 983l276 -377q27 -34 23 -80l-2 -12q-8 -42 -49 -80l-394 -377q-22 -19 -33 -20.5t-28 10.5l-84 53q-17 13 -17 26.5t17 33.5l348 360l-233 361q-7 14 -8.5 24t5 18.5t21.5 16.5l98 53q24 12 34.5 10t25.5 -20z" />
<glyph unicode="&#x205f;" horiz-adv-x="507" />
<glyph unicode="&#x20ac;" horiz-adv-x="1300" d="M961 494h-504q12 -58 37 -110t66 -96.5t104 -71t141 -26.5q120 0 209 39q28 10 38 4.5t15 -28.5l25 -119q6 -23 1 -36.5t-26 -20.5q-142 -56 -295 -56q-156 0 -281 69t-199 186.5t-93 265.5h-164q-25 0 -32.5 8.5t-4.5 34.5l4 24q5 25 15 34t36 9h137q0 54 11 129l12 64 h-129q-26 0 -34 8.5t-5 34.5l4 22q5 27 15 36t36 9h148q91 243 299 398t461 155q143 0 278 -55q18 -10 17.5 -21.5t-13.5 -37.5l-61 -119q-12 -24 -25 -29.5t-35 4.5q-74 41 -196 41q-86 0 -162.5 -27.5t-134 -76t-100.5 -106.5t-74 -126h524q25 0 32.5 -9t4.5 -34l-4 -24 q-3 -26 -13.5 -34.5t-35.5 -8.5h-545l-12 -64q-11 -56 -11 -129h537q25 0 32.5 -9t4.5 -34l-6 -24q-3 -26 -13.5 -34.5t-35.5 -8.5z" />
<glyph unicode="&#x2122;" horiz-adv-x="1830" d="M106 1434h633q24 0 19 -21l-15 -94q-3 -23 -26 -23h-240l-100 -630q-5 -21 -29 -21h-104q-24 0 -19 21l99 630h-240q-24 0 -21 23l15 94q5 21 28 21zM1577 1106l-342 -453q-19 -22 -31 -22h-10q-10 0 -23 22l-194 451l-121 -436q-5 -14 -10 -18.5t-19 -4.5h-94 q-27 0 -18 23l215 772q3 10 12 10h8q8 0 13 -10l270 -598l457 598q10 10 18 10h6q8 0 8 -10l-26 -772q0 -23 -27 -23h-94q-14 0 -18 5t-3 18z" />
<glyph unicode="&#x25fc;" horiz-adv-x="1044" d="M0 1044h1044v-1044h-1044v1044z" />
</font>
</defs>
</svg>
