<?xml version="1.0" standalone="no"?>
<!DOCTYPE svg PUBLIC "-//W3C//DTD SVG 1.1//EN" "http://www.w3.org/Graphics/SVG/1.1/DTD/svg11.dtd" >
<svg xmlns="http://www.w3.org/2000/svg">
<metadata></metadata>
<defs>
<font id="acherus_grotesqueblack_italic" horiz-adv-x="1310" >
<font-face units-per-em="2048" ascent="1638" descent="-410" />
<missing-glyph horiz-adv-x="518" />
<glyph unicode="&#xfb01;" horiz-adv-x="1437" d="M950 793h-450l-117 -738q-6 -32 -20 -43.5t-46 -11.5h-200q-32 0 -41.5 11.5t-3.5 43.5l116 738h-100q-33 0 -43 11.5t-4 43.5l22 139q4 32 18 43.5t46 11.5h100l9 60q35 217 163.5 337t329.5 120q118 0 195 -54q21 -14 23.5 -27t-7.5 -42l-47 -144q-12 -41 -25.5 -46 t-48.5 14q-41 20 -100 20q-143 0 -172 -188l-8 -50h708q32 0 42 -11.5t5 -43.5l-147 -932q-6 -32 -20 -43.5t-46 -11.5h-202q-32 0 -41.5 11.5t-3.5 43.5zM1014 1354q12 75 72 128.5t135 53.5t120 -53.5t33 -128.5t-74 -126.5t-137 -51.5t-118 51.5t-31 126.5z" />
<glyph unicode="&#xfb03;" horiz-adv-x="2136" d="M1649 793h-451l-117 -738q-6 -32 -19.5 -43.5t-45.5 -11.5h-201q-32 0 -41.5 11.5t-3.5 43.5l117 738h-387l-117 -738q-6 -32 -20 -43.5t-46 -11.5h-200q-32 0 -41.5 11.5t-3.5 43.5l116 738h-100q-33 0 -43 11.5t-4 43.5l22 139q4 32 18 43.5t46 11.5h100l9 60 q35 217 163.5 337t329.5 120q118 0 195 -54q21 -14 23.5 -27t-7.5 -42l-47 -144q-12 -41 -25.5 -46t-48.5 14q-41 20 -100 20q-143 0 -172 -188l-8 -50h387l8 60q35 217 163.5 337t329.5 120q118 0 195 -54q21 -14 23.5 -27t-7.5 -42l-47 -144q-12 -41 -25 -46t-48 14 q-41 20 -101 20q-143 0 -172 -188l-8 -50h709q32 0 42 -11.5t5 -43.5l-148 -932q-6 -32 -19.5 -43.5t-45.5 -11.5h-203q-32 0 -41.5 11.5t-3.5 43.5zM1712 1354q12 75 72 128.5t135 53.5t120.5 -53.5t33.5 -128.5t-74 -126.5t-137 -51.5t-118.5 51.5t-31.5 126.5z" />
<glyph horiz-adv-x="0" />
<glyph horiz-adv-x="682" />
<glyph horiz-adv-x="0" />
<glyph horiz-adv-x="0" />
<glyph unicode="&#xd;" horiz-adv-x="518" />
<glyph unicode=" "  horiz-adv-x="518" />
<glyph unicode="&#x09;" horiz-adv-x="518" />
<glyph unicode="&#xa0;" horiz-adv-x="518" />
<glyph unicode="!" horiz-adv-x="696" d="M176 565l84 813q4 32 18 44t46 12h278q32 0 42 -12t5 -44l-174 -813q-6 -32 -19.5 -43.5t-45.5 -11.5h-189q-31 0 -39.5 11t-5.5 44zM68 170q12 82 77 139.5t146 57.5q82 0 130 -57.5t36 -139.5q-12 -81 -79 -137t-149 -56q-81 0 -127 55.5t-34 137.5z" />
<glyph unicode="&#x22;" horiz-adv-x="837" d="M68 963l67 415q4 32 18 44t46 12h182q72 0 39 -70l-176 -424q-15 -33 -56 -33h-73q-32 0 -41.5 11t-5.5 45zM436 963l68 415q5 32 18 44t45 12h183q39 0 47 -19t-9 -51l-176 -424q-9 -19 -21 -26t-34 -7h-74q-32 0 -41.5 11t-5.5 45z" />
<glyph unicode="#" horiz-adv-x="1742" d="M317 1100h326l119 289q12 24 29.5 34.5t48.5 10.5h104q37 0 47.5 -13.5t-2.5 -42.5l-117 -278h316l119 289q13 24 29.5 34.5t47.5 10.5h105q37 0 47.5 -13.5t-2.5 -42.5l-117 -278h269q32 0 42 -12t5 -44l-19 -114q-5 -32 -18 -44t-45 -12h-326l-133 -315h283 q32 0 42 -11.5t5 -43.5l-19 -115q-4 -32 -17.5 -43.5t-45.5 -11.5h-340l-119 -289q-13 -28 -28.5 -36.5t-49.5 -8.5h-110q-35 0 -44 13t5 42l116 279h-315l-119 -289q-15 -28 -30 -36.5t-48 -8.5h-110q-35 0 -43.5 13t4.5 42l117 279h-254q-32 0 -42 11.5t-5 43.5l18 115 q4 32 17.5 43.5t45.5 11.5h312l131 315h-266q-32 0 -42 12t-5 44l18 114q5 32 18 44t45 12zM780 874l-133 -315h316l131 315h-314z" />
<glyph unicode="$" horiz-adv-x="1259" d="M389 -137l19 121q-231 20 -408 147q-22 19 -21 34.5t21 43.5l106 139q22 30 37 36t41 -9q119 -85 269 -105l49 308q-447 60 -391 409q9 57 33 115t68.5 116.5t103 106t143 82t182.5 45.5l16 113q6 32 20 43.5t46 11.5h61q32 0 41.5 -11.5t3.5 -43.5l-16 -113 q111 -10 199.5 -46t189.5 -103q16 -11 20 -22.5t-1 -23t-19 -32.5l-106 -140q-22 -30 -37 -36t-41 10q-69 51 -126.5 74.5t-125.5 29.5l-49 -313q36 -5 68 -10.5t67 -14.5t63.5 -20t58.5 -26t52 -34t43.5 -43t33.5 -52.5t22 -64t8 -76t-7 -89.5q-28 -171 -174.5 -297 t-371.5 -143l-19 -117q-6 -32 -19.5 -44t-45.5 -12h-62q-32 0 -41.5 12t-3.5 44zM801 403q9 62 -24.5 96t-106.5 52l-45 -281q158 20 176 133zM436 999q-9 -52 19 -80.5t94 -44.5l45 283q-80 -16 -114.5 -56.5t-43.5 -101.5z" />
<glyph unicode="%" horiz-adv-x="1767" d="M418 727q-160 0 -242 96t-53 271q27 175 139.5 270.5t272.5 95.5t241.5 -95t54.5 -271q-29 -176 -141 -271.5t-272 -95.5zM446 907q59 0 104 52t58 135q12 84 -16 135t-86 51q-59 0 -103.5 -51.5t-56.5 -134.5q-14 -83 14 -135t86 -52zM1589 1378l-1165 -1339 q-20 -23 -34.5 -31t-41.5 -8h-147q-40 0 -47.5 13t18.5 42l1165 1340q20 23 34.5 31t41.5 8h148q40 0 47 -13.5t-19 -42.5zM1231 -4q-160 0 -242 95.5t-55 270.5q29 175 141.5 271t272.5 96t241.5 -95.5t52.5 -271.5q-27 -175 -139 -270.5t-272 -95.5zM1260 176 q59 0 103 51.5t56 134.5q14 83 -14 135t-86 52q-59 0 -104 -52t-58 -135q-12 -83 16.5 -134.5t86.5 -51.5z" />
<glyph unicode="&#x26;" horiz-adv-x="1601" d="M768 377l-172 213q-219 -77 -236 -187q-11 -75 29 -113t141 -38q67 0 130.5 37.5t107.5 87.5zM684 897l14 -14q63 28 112 77.5t56 102.5q10 62 -19.5 97.5t-90.5 35.5q-59 0 -98.5 -35t-49.5 -98q-10 -71 76 -166zM1473 598q-29 -18 -78.5 -47.5t-80.5 -48.5t-76 -52 t-87 -71l285 -324q21 -25 12.5 -40t-41.5 -15h-305q-11 0 -20 2t-14.5 4t-13.5 9.5t-10.5 10.5t-12.5 14t-13 15l-105 131q-114 -106 -225.5 -159.5t-241.5 -53.5q-236 0 -348.5 119t-83.5 303q10 65 38 120t64.5 94t89 72t102.5 54.5t114 42.5v2q-149 159 -125 336 q9 60 44 118.5t94 110t153.5 83.5t208.5 32q115 0 200.5 -32t129 -83.5t60.5 -110t7 -118.5q-39 -253 -332 -401l131 -148q46 45 112.5 94.5t102 72t121.5 75.5q28 19 41.5 17t32.5 -25l90 -129q19 -23 14.5 -40t-34.5 -34z" />
<glyph unicode="'" horiz-adv-x="452" d="M43 963l68 415q5 32 18 44t45 12h182q72 0 39 -70l-176 -424q-9 -19 -21 -26t-34 -7h-74q-32 0 -41.5 11t-5.5 45z" />
<glyph unicode="(" horiz-adv-x="845" d="M66 590q46 292 221.5 509.5t445.5 350.5q34 16 50.5 9.5t27.5 -34.5l63 -153q25 -62 -55 -98q-184 -83 -294.5 -232t-141.5 -352q-32 -203 31 -352t219 -232q73 -36 26 -98l-112 -154q-21 -28 -39 -34t-47 10q-229 133 -336 350.5t-59 509.5z" />
<glyph unicode=")" horiz-adv-x="845" d="M780 590q-48 -292 -223.5 -509.5t-445.5 -350.5q-34 -16 -50.5 -10t-27.5 34l-62 154q-25 61 54 98q184 83 295 231.5t143 352.5q31 204 -32.5 352.5t-219.5 231.5q-74 36 -27 98l113 153q22 28 39.5 34t46.5 -9q229 -133 336 -350.5t61 -509.5z" />
<glyph unicode="*" horiz-adv-x="894" d="M92 985l172 62l-153 65q-27 12 -29.5 28.5t18.5 45.5l60 86q21 30 37 35.5t41 -11.5l149 -116l8 202q3 32 18 44t48 12h98q33 0 43.5 -12t1.5 -44l-55 -200l186 114q28 17 43.5 11.5t26.5 -35.5l31 -86q12 -29 5 -45.5t-40 -28.5l-176 -65l157 -62q26 -12 28.5 -29.5 t-17.5 -46.5l-60 -86q-21 -30 -37 -35.5t-41 11.5l-149 112l-6 -198q-3 -32 -18 -44t-48 -12h-98q-33 0 -43.5 12t-1.5 44l53 200l-186 -114q-28 -17 -43.5 -11.5t-26.5 35.5l-31 86q-11 29 -3.5 46.5t38.5 29.5z" />
<glyph unicode="+" horiz-adv-x="1054" d="M711 995l-39 -243h243q32 0 42.5 -12t5.5 -44l-23 -141q-4 -32 -17.5 -43.5t-45.5 -11.5h-244l-39 -244q-4 -32 -18 -43.5t-46 -11.5h-141q-32 0 -42 11.5t-5 43.5l39 244h-244q-32 0 -42 11.5t-5 43.5l23 141q5 32 18 44t45 12h244l39 243q5 32 18 44t45 12h142 q32 0 42 -12t5 -44z" />
<glyph unicode="," horiz-adv-x="606" d="M289 -23h-4q-78 2 -124 58t-34 135q14 82 79 139.5t146 57.5q94 0 140 -71t26 -192q-23 -146 -140.5 -271.5t-256.5 -184.5q-25 -11 -33 6l-41 86q-8 19 16 33q177 101 226 204z" />
<glyph unicode="-" horiz-adv-x="880" d="M702 459h-565q-32 0 -42 11.5t-5 43.5l23 131q4 32 17.5 43.5t45.5 11.5h565q32 0 42 -11.5t5 -43.5l-22 -131q-4 -32 -18 -43.5t-46 -11.5z" />
<glyph unicode="." horiz-adv-x="593" d="M100 170q14 82 79.5 139.5t146.5 57.5q82 0 129.5 -57.5t33.5 -139.5q-12 -81 -78.5 -137t-148.5 -56q-81 0 -127.5 55.5t-34.5 137.5z" />
<glyph unicode="/" horiz-adv-x="944" d="M961 1378l-672 -1333q-15 -28 -30 -36.5t-48 -8.5h-180q-34 0 -42.5 13t5.5 42l670 1334q13 24 29.5 34.5t47.5 10.5h174q75 0 46 -56z" />
<glyph unicode="0" horiz-adv-x="1368" d="M430 717q-74 -455 180 -455t328 455q70 454 -182 454q-74 0 -132 -38t-95.5 -105t-61 -143t-37.5 -168zM92 717q24 156 81.5 289t145 235t211.5 160.5t271 58.5q99 0 179.5 -26.5t136.5 -75.5t96 -116.5t57.5 -150.5t20.5 -177.5t-15 -196.5q-25 -156 -83 -289 t-145.5 -235.5t-211.5 -161t-271 -58.5q-99 0 -179.5 27t-136.5 75.5t-96 116.5t-57 150.5t-19.5 177.5t15.5 197z" />
<glyph unicode="1" horiz-adv-x="800" d="M180 1231l262 147q92 56 127 56h136q32 0 42 -12t5 -44l-211 -1323q-4 -32 -18 -43.5t-46 -11.5h-223q-32 0 -42 11.5t-5 43.5l153 961h-186q-32 0 -42 11.5t-5 43.5l16 100q2 15 5 23t10.5 18t21.5 19z" />
<glyph unicode="2" horiz-adv-x="1142" d="M973 784l-451 -501h422q32 0 42 -12t5 -44l-28 -172q-4 -32 -18 -43.5t-46 -11.5h-946q-11 0 -14 4t-2 14l6 29q3 15 24 39l746 813q63 69 67 133.5t-38 101.5t-107 37q-168 0 -324 -135q-29 -23 -43 -21t-32 27l-99 129q-20 27 -20 41.5t26 36.5q249 211 537 211 q105 0 190 -30.5t138 -81.5t80.5 -119.5t24 -142.5t-39 -153t-100.5 -149z" />
<glyph unicode="3" horiz-adv-x="1200" d="M571 590h-198q-32 0 -42 11.5t-5 43.5l24 156q4 32 18 43.5t46 11.5h170q101 0 158 42.5t67 105.5q12 82 -29 124.5t-145 42.5q-61 0 -109.5 -17t-80.5 -41t-85 -73q-27 -22 -42 -20t-35 27l-93 124q-20 24 -19.5 40t26.5 38q127 108 235.5 159.5t247.5 51.5 q72 0 142 -15t135 -48.5t111 -82t67.5 -121t7.5 -159.5q-16 -102 -77.5 -181t-145.5 -128v-2q22 -13 40 -24.5t38 -28.5t33.5 -35t27 -42t18 -50t7.5 -60t-5 -71q-17 -110 -75 -195t-144 -137.5t-191.5 -79.5t-224.5 -27q-142 0 -248.5 54t-195.5 157q-11 15 -12 27t5.5 22 t24.5 29l134 123q25 24 42 25.5t35 -19.5q61 -68 116.5 -98.5t143.5 -30.5q130 0 191 47t74 133q10 62 -36 105t-147 43z" />
<glyph unicode="4" horiz-adv-x="1323" d="M856 1434h264q32 0 42 -12t5 -44l-129 -805h144q32 0 42 -11.5t5 -43.5l-23 -143q-5 -32 -18 -44t-45 -12h-144l-43 -264q-4 -32 -17.5 -43.5t-45.5 -11.5h-203q-32 0 -42 11.5t-5 43.5l43 264h-616q-32 0 -42 12t-5 44l24 153q4 32 12 46.5t33 41.5l729 801q13 17 35 17 zM797 1020l-412 -447h340z" />
<glyph unicode="5" horiz-adv-x="1185" d="M373 1434h706q32 0 42 -12t5 -44l-28 -172q-4 -32 -18 -43.5t-46 -11.5h-504l-67 -231h153q55 0 103.5 -4.5t97 -15t86.5 -27.5t73.5 -43t58 -60.5t38.5 -80t16.5 -103t-8.5 -127.5q-19 -121 -78.5 -215.5t-146.5 -152.5t-193 -88t-225 -30q-142 0 -248.5 54t-193.5 157 q-17 26 -13 38.5t29 39.5l133 123q25 24 42.5 25.5t35.5 -19.5q61 -68 116.5 -98.5t143.5 -30.5q130 0 191 48.5t76 135.5q13 87 -32.5 136t-174.5 49h-385q-33 0 -44.5 12t-2.5 43l198 692q9 35 20.5 45.5t43.5 10.5z" />
<glyph unicode="6" horiz-adv-x="1282" d="M791 936q93 0 168 -29t127 -84t73 -141.5t4 -194.5q-34 -215 -206 -364.5t-402 -149.5q-135 0 -232 37.5t-151 101t-79.5 157.5t-25 197t20.5 230q20 128 57.5 238t99 208.5t142 167.5t191 109.5t241.5 40.5q259 0 428 -196q17 -25 13 -38t-31 -40l-139 -129 q-19 -17 -30.5 -23t-23.5 -2.5t-26 19.5q-52 62 -111.5 91t-150.5 29q-112 0 -199.5 -100.5t-114.5 -265.5q24 26 48 44.5t66 40.5t103.5 34t139.5 12zM582 252q96 0 164 59.5t83 153.5q13 89 -39.5 150t-142.5 61q-98 0 -166 -60t-82 -151q-15 -95 34.5 -154t148.5 -59z " />
<glyph unicode="7" horiz-adv-x="1167" d="M1274 1395l-2 -11q-3 -19 -29 -57l-885 -1272q-22 -30 -44 -42.5t-54 -12.5h-229q-33 0 -46.5 13t1.5 42l739 1073h-545q-32 3 -41.5 14t-3.5 42l31 194q5 32 18 44t45 12h1008q23 0 31.5 -9.5t5.5 -29.5z" />
<glyph unicode="8" horiz-adv-x="1236" d="M500 -27q-258 0 -383.5 119t-96.5 303q10 66 43 127t74.5 102t79 67.5t66.5 37.5l2 12q-14 9 -30.5 24.5t-38 44t-37 61t-23 77t-0.5 90.5q15 91 56 166t109.5 133t174.5 90.5t241 32.5q133 0 228 -32.5t145.5 -90.5t67.5 -133t2 -166q-9 -57 -38 -110.5t-66.5 -90.5 t-67.5 -60.5t-52 -35.5l-2 -12q26 -10 56 -37t58.5 -68t42 -102t3.5 -127q-31 -185 -192.5 -303.5t-421.5 -118.5zM600 612q-232 -60 -254 -196q-11 -73 42.5 -118.5t156.5 -45.5q101 0 169 45.5t79 118.5q12 72 -37.5 119.5t-155.5 76.5zM690 1182q-91 0 -146.5 -45 t-66.5 -119q-19 -117 162 -162q196 44 215 162q11 74 -31 119t-133 45z" />
<glyph unicode="9" horiz-adv-x="1275" d="M494 498q-93 0 -168 28.5t-127.5 83.5t-73.5 141.5t-4 194.5q34 215 206 364.5t402 149.5q135 0 232 -37.5t151 -101t79.5 -157.5t25 -197t-20.5 -230q-20 -128 -57.5 -238t-99 -208.5t-142 -167.5t-191 -109.5t-241.5 -40.5q-258 0 -428 197q-17 25 -13 38t31 40 l140 129q19 17 30 23t23 2.5t26 -19.5q53 -62 112.5 -91.5t150.5 -29.5q111 0 198.5 100.5t114.5 266.5q-24 -26 -48 -44.5t-65.5 -40.5t-103 -34t-139.5 -12zM702 1182q-96 0 -164 -59.5t-83 -153.5q-13 -89 39.5 -150t142.5 -61q98 0 166 60t82 151q15 95 -34.5 154 t-148.5 59z" />
<glyph unicode=":" horiz-adv-x="593" d="M45 170q14 82 79 139.5t146 57.5q82 0 130 -57.5t34 -139.5q-12 -81 -78.5 -137t-148.5 -56q-81 0 -127.5 55.5t-34.5 137.5zM156 868q14 82 79 139.5t146 57.5q82 0 130 -57.5t34 -139.5q-12 -81 -78.5 -136.5t-149.5 -55.5q-81 0 -127 55t-34 137z" />
<glyph unicode=";" horiz-adv-x="606" d="M182 868q14 82 79.5 139.5t146.5 57.5q82 0 129.5 -57.5t33.5 -139.5q-12 -81 -78.5 -136.5t-148.5 -55.5t-128 55t-34 137zM233 -23h-4q-78 1 -123.5 57t-33.5 136q14 82 79 139.5t146 57.5q94 0 140 -71t26 -192q-23 -146 -140.5 -271.5t-256.5 -184.5q-25 -11 -33 6 l-39 86q-8 19 14 33q176 100 225 204z" />
<glyph unicode="&#x3c;" horiz-adv-x="1173" d="M20 719v4q4 24 19 39t47 29l1016 481q34 13 45 8t8 -31l-31 -186q-9 -53 -67 -76l-594 -268l510 -268q51 -25 43 -76l-31 -187q-3 -26 -16 -31t-41 9l-865 485q-27 14 -36.5 29t-6.5 39z" />
<glyph unicode="=" horiz-adv-x="987" d="M842 700h-672q-32 0 -42 12t-5 44l20 131q4 32 18 43.5t46 11.5h672q32 0 42 -11.5t5 -43.5l-21 -131q-5 -31 -18 -43.5t-45 -12.5zM778 299h-672q-32 0 -42 11.5t-5 43.5l21 131q5 32 18 44t45 12h672q32 0 42 -12t5 -44l-20 -131q-4 -32 -18 -43.5t-46 -11.5z" />
<glyph unicode="&#x3e;" horiz-adv-x="1173" d="M1153 723v-4q0 -18 -18 -36.5t-50 -31.5l-1015 -485q-34 -14 -45.5 -9t-8.5 31l31 187q9 53 68 76l596 268l-512 268q-51 25 -43 76l30 186q3 26 16.5 31.5t41.5 -8.5l864 -481q27 -13 37 -28t8 -40z" />
<glyph unicode="?" horiz-adv-x="1103" d="M408 809q206 32 295 73.5t102 121.5q12 79 -42.5 121t-170.5 42q-155 0 -346 -120q-32 -17 -45.5 -10.5t-24.5 36.5l-61 139q-11 26 -7.5 44t31.5 34q100 58 165.5 89t159 54t195.5 23q83 0 153 -13.5t119.5 -38t89 -57.5t62 -71.5t37 -81t15 -86t-4.5 -86.5 q-12 -75 -42 -133.5t-71 -97.5t-103.5 -70t-126 -50t-152.5 -38l-10 -68q-6 -32 -19 -43.5t-45 -11.5h-178q-33 0 -43 11.5t-4 43.5l33 207q3 18 11.5 26t27.5 11zM219 170q14 82 78 139.5t145 57.5q82 0 130.5 -57.5t35.5 -139.5q-12 -81 -78.5 -137t-148.5 -56 q-81 0 -127.5 55.5t-34.5 137.5z" />
<glyph unicode="@" horiz-adv-x="2273" d="M1915 545q18 127 8.5 227.5t-50.5 178t-101 132.5t-144 90.5t-179.5 52t-207.5 17.5q-363 0 -595.5 -194t-287.5 -529q-52 -331 111 -526t489 -195q46 0 112 13t110 32q38 17 54 14t17 -32l9 -137q2 -38 -6 -54t-42 -34q-148 -58 -294 -58q-220 0 -394.5 76t-280 207.5 t-148 310.5t-11.5 383q33 205 133 383.5t252.5 311t362.5 208.5t450 76q179 0 332 -39t272.5 -116t197.5 -191.5t106.5 -266.5t-1.5 -341q-18 -113 -46 -211.5t-72.5 -190t-101 -156.5t-134.5 -103.5t-170 -37.5q-211 0 -297 209l-29 74q-172 -152 -387 -152 q-131 0 -225.5 76t-132.5 200t-16 267q24 149 102 273t196 198t250 74q55 0 105.5 -15.5t87 -40.5t60 -47t38.5 -42l58 79q31 43 63 43h139q32 0 42 -11.5t5 -43.5l-110 -690q-34 -207 69 -207q90 0 143.5 114.5t88.5 340.5zM1071 250q97 0 177 76.5t98 193.5 q18 115 -38 190.5t-153 75.5t-177.5 -75.5t-98.5 -190.5q-18 -117 38 -193.5t154 -76.5z" />
<glyph unicode="A" horiz-adv-x="1542" d="M801 901h-4l-232 -352h353zM926 1405l501 -1350q7 -20 -6.5 -37.5t-36.5 -17.5h-262q-27 0 -39 11t-24 44l-74 211h-575l-144 -211q-22 -33 -37.5 -44t-42.5 -11h-260q-23 0 -30.5 17.5t4.5 37.5l929 1350q4 5 10 14t8.5 12.5t7.5 9.5t7.5 8.5t6 5.5t7 4t7.5 1h6 q3 0 5.5 -0.5t5 -2.5t4 -3.5t3.5 -5t3.5 -6t3.5 -7.5t3.5 -8.5t4 -10.5t4.5 -11z" />
<glyph unicode="B" horiz-adv-x="1374" d="M666 0h-572q-32 0 -42 11.5t-5 43.5l211 1323q4 32 18 44t46 12h520q74 0 142 -12.5t133 -42t109.5 -74t66 -114.5t7.5 -157q-30 -186 -221 -297v-2q208 -106 172 -336q-14 -88 -53.5 -157t-95 -114t-128 -74t-148.5 -41.5t-160 -12.5zM416 276h280q107 0 161.5 37 t66.5 117q11 69 -33.5 114.5t-142.5 45.5h-281zM508 856h231q101 0 158.5 43t67.5 105q12 80 -29.5 116.5t-147.5 36.5h-231z" />
<glyph unicode="C" horiz-adv-x="1445" d="M750 262q189 0 350 146q27 22 42 20.5t34 -27.5l104 -139q20 -27 20 -41.5t-26 -36.5q-114 -97 -267 -154t-302 -57q-148 0 -275 59.5t-210 159t-120 237.5t-14 288q35 218 155 387.5t302.5 262.5t396.5 93q149 0 285 -57t219 -154q12 -15 13 -27t-6 -22t-26 -29 l-137 -127q-26 -24 -42.5 -26t-37.5 20q-103 133 -313 133q-117 0 -220.5 -64.5t-168 -167.5t-82.5 -222q-8 -68 -3.5 -133t30.5 -123.5t65 -102.5t99.5 -70t134.5 -26z" />
<glyph unicode="D" horiz-adv-x="1554" d="M322 1434h524q149 0 275.5 -55t210.5 -150t121.5 -228.5t14.5 -283.5q-32 -201 -155.5 -365.5t-307 -258t-387.5 -93.5h-524q-32 0 -42 11.5t-5 43.5l211 1323q4 32 18 44t46 12zM801 1157h-244l-141 -881h243q79 0 149.5 24.5t123.5 66.5t94.5 98.5t67 120t36.5 131.5 q16 85 0 164.5t-53 140.5t-109 98t-167 37z" />
<glyph unicode="E" d="M1024 0h-930q-32 0 -42 11.5t-5 43.5l211 1323q4 32 18 44t46 12h929q32 0 42 -12t5 -44l-28 -172q-4 -32 -18 -43.5t-46 -11.5h-651l-45 -289h625q32 0 41.5 -11.5t3.5 -43.5l-27 -172q-4 -32 -17.5 -43.5t-45.5 -11.5h-625l-47 -297h651q32 0 42 -12t5 -44l-29 -172 q-4 -32 -17.5 -43.5t-45.5 -11.5z" />
<glyph unicode="F" horiz-adv-x="1275" d="M465 580l-84 -525q-4 -32 -18 -43.5t-46 -11.5h-223q-32 0 -42 11.5t-5 43.5l211 1323q4 32 18 44t46 12h929q32 0 42 -12t5 -44l-28 -172q-6 -32 -19 -43.5t-45 -11.5h-651l-45 -289h631q32 0 41.5 -11.5t3.5 -43.5l-27 -172q-4 -32 -17.5 -43.5t-45.5 -11.5h-631z" />
<glyph unicode="G" horiz-adv-x="1519" d="M895 1171q-117 0 -220.5 -64.5t-168 -167.5t-82.5 -222q-8 -68 -3.5 -133t30.5 -123.5t65 -102.5t99.5 -70t134.5 -26q144 0 262 72l28 178h-196q-32 0 -42 11.5t-5 43.5l26 172q6 32 20 44t46 12h475q32 0 41.5 -12t3.5 -44l-76 -477q-5 -39 -43 -74q-118 -99 -276 -157 t-309 -58q-148 0 -275 59.5t-210 159t-120 237.5t-14 288q35 218 155 387.5t302.5 262.5t396.5 93q149 0 285 -57t219 -154q12 -15 13 -27t-6 -22t-26 -29l-137 -127q-26 -24 -42.5 -26t-37.5 20q-103 133 -313 133z" />
<glyph unicode="H" horiz-adv-x="1552" d="M1085 854l84 524q4 32 18 44t46 12h223q32 0 42 -12t5 -44l-211 -1323q-4 -32 -17.5 -43.5t-45.5 -11.5h-223q-32 0 -42 11.5t-6 43.5l82 510h-577l-82 -510q-4 -32 -18 -43.5t-46 -11.5h-223q-32 0 -42 11.5t-5 43.5l211 1323q4 32 18 44t46 12h223q32 0 42 -12t5 -44 l-84 -524h577z" />
<glyph unicode="I" horiz-adv-x="641" d="M47 55l211 1323q4 32 18 44t46 12h223q32 0 42 -12t5 -44l-211 -1323q-4 -32 -18 -43.5t-46 -11.5h-223q-32 0 -42 11.5t-5 43.5z" />
<glyph unicode="J" horiz-adv-x="966" d="M584 1182h-240q-32 0 -41.5 11.5t-3.5 43.5l23 141q5 32 18 44t45 12h518q32 0 42 -12t5 -44l-131 -821q-26 -161 -93 -275.5t-171.5 -180.5t-230 -96t-285.5 -32q-39 0 -48 10.5t-9 45.5l8 180q1 29 17.5 41t49.5 12q214 0 308 65t120 230z" />
<glyph unicode="K" horiz-adv-x="1402" d="M809 750l446 -695q12 -18 14 -29.5t-5 -16.5t-16.5 -7t-24.5 -2h-277q-26 0 -38 10t-34 45l-393 625l-100 -625q-4 -32 -18 -43.5t-46 -11.5h-223q-32 0 -42 11.5t-5 43.5l211 1323q4 32 18 44t46 12h223q32 0 42 -12t5 -44l-92 -571l569 571q34 36 48.5 46t39.5 10h279 q69 0 16 -56z" />
<glyph unicode="L" horiz-adv-x="1169" d="M418 283h565q32 0 42 -12t5 -44l-29 -172q-4 -32 -17.5 -43.5t-45.5 -11.5h-844q-32 0 -42 11.5t-5 43.5l211 1323q4 32 18 44t46 12h223q32 0 42 -12t5 -44z" />
<glyph unicode="M" horiz-adv-x="1988" d="M1487 655l-535 -626q-17 -21 -26 -31t-19.5 -17.5t-19.5 -7.5h-25q-12 0 -21.5 12.5t-25.5 43.5l-326 618l-167 -592q-9 -34 -20.5 -44.5t-43.5 -10.5h-223q-32 0 -43 12.5t-2 42.5l395 1387q3 11 7 14.5t14 3.5h16q12 0 22 -18l510 -973l822 973q15 18 26 18h17 q10 0 13 -3.5t3 -14.5l-47 -1387q-1 -30 -16 -42.5t-48 -12.5h-223q-32 0 -40.5 10.5t-6.5 44.5z" />
<glyph unicode="N" horiz-adv-x="1587" d="M498 786l-117 -731q-4 -32 -18 -43.5t-46 -11.5h-223q-32 0 -42 11.5t-5 43.5l221 1387q1 10 5.5 14t15.5 4h20q19 0 37 -18l744 -785l114 721q4 32 18 44t46 12h223q32 0 42 -12t5 -44l-221 -1386q-3 -19 -21 -19h-20q-18 0 -37 19z" />
<glyph unicode="O" horiz-adv-x="1646" d="M86 717q35 218 155.5 387.5t303 262.5t395.5 93q148 0 275 -59t210.5 -159t121 -237.5t14.5 -287.5q-24 -150 -105 -288t-196 -237.5t-261 -159t-294 -59.5t-275 59.5t-210 159t-120 237.5t-14 288zM424 717q-8 -68 -3.5 -133t30.5 -123.5t65 -102.5t99.5 -70t134.5 -26 q95 0 179 39.5t143 104.5t98 145.5t53 165.5q8 69 4.5 134.5t-29 123.5t-64.5 101.5t-101 69t-138 25.5q-117 0 -220.5 -64.5t-168 -167.5t-82.5 -222z" />
<glyph unicode="P" horiz-adv-x="1271" d="M508 850h221q107 0 164 37.5t70 116.5q12 79 -33 116t-152 37h-221zM694 573h-231l-82 -518q-4 -32 -18 -43.5t-46 -11.5h-223q-32 0 -42 11.5t-5 43.5l211 1323q4 32 18 44t46 12h509q74 0 142 -12.5t133 -43.5t109.5 -78.5t65 -123.5t5.5 -172t-59.5 -172t-104 -123.5 t-135 -79t-147.5 -44t-146 -12.5z" />
<glyph unicode="Q" horiz-adv-x="1646" d="M106 717q54 330 293 536.5t564 206.5q198 0 352 -100t226 -271.5t40 -371.5q-26 -169 -121 -318t-237 -254l139 -225q14 -26 8 -42.5t-35 -35.5l-198 -127q-29 -17 -44 -14t-28 31l-137 268q-111 -27 -201 -27q-148 0 -275.5 59.5t-211.5 159t-121 237.5t-13 288z M444 717q-8 -68 -4 -133t30.5 -123.5t65.5 -102.5t100.5 -70t135.5 -26q95 0 178.5 39.5t142.5 104.5t98 145.5t52 165.5q9 69 5.5 134.5t-28.5 123.5t-63.5 101.5t-100.5 69t-138 25.5q-117 0 -220.5 -64.5t-169 -167.5t-84.5 -222z" />
<glyph unicode="R" horiz-adv-x="1349" d="M1286 1004q-26 -161 -124 -259.5t-240 -140.5l262 -532q16 -35 -3.5 -53.5t-56.5 -18.5h-206q-59 0 -87 55l-253 518h-115l-82 -518q-4 -32 -18 -43.5t-46 -11.5h-223q-32 0 -42 11.5t-5 43.5l211 1323q4 32 18 44t46 12h509q74 0 142 -12.5t133 -43.5t109.5 -78.5 t65 -123.5t5.5 -172zM508 850h221q107 0 164 37.5t70 116.5q12 79 -33 116t-152 37h-221z" />
<glyph unicode="S" horiz-adv-x="1312" d="M745 1167q-136 0 -194 -44t-70 -124q-4 -26 0.5 -46t21 -34.5t35.5 -24t55.5 -17.5t69.5 -13t87 -12q78 -9 138.5 -23.5t124 -46t102 -76.5t56.5 -118t3 -168q-14 -88 -62.5 -167t-125 -141t-187 -98.5t-238.5 -36.5q-336 0 -534 154q-23 19 -22.5 34.5t22.5 43.5 l106 139q22 30 37 36t41 -9q158 -109 377 -109q124 0 185.5 34t72.5 103q5 31 0 55t-23.5 41t-39.5 29t-59.5 21t-72.5 14t-88 12q-458 57 -407 412q10 67 37 131.5t77.5 126.5t119 108t167.5 74.5t215 28.5q148 0 253.5 -37t223.5 -116q16 -11 20 -22.5t-1 -23t-19 -32.5 l-106 -140q-22 -30 -37 -36t-41 10q-85 64 -154 86t-166 22z" />
<glyph unicode="T" horiz-adv-x="1292" d="M188 1434h1141q32 0 42 -12t5 -44l-30 -186q-4 -32 -18 -43.5t-46 -11.5h-403l-172 -1082q-4 -32 -18 -43.5t-46 -11.5h-223q-32 0 -42 11.5t-5 43.5l172 1082h-404q-32 0 -42 11.5t-5 43.5l31 186q5 32 18 44t45 12z" />
<glyph unicode="U" horiz-adv-x="1486" d="M627 -27q-127 0 -232 40t-179 115t-105 194t-7 268l125 788q4 32 18 44t46 12h223q32 0 42 -12t5 -44l-123 -778q-56 -338 232 -338q146 0 230 84.5t112 253.5l123 778q5 32 18 44t45 12h223q32 0 42 -12t5 -44l-124 -788q-24 -149 -93 -268t-166.5 -194t-215 -115 t-244.5 -40z" />
<glyph unicode="V" horiz-adv-x="1542" d="M614 29l-501 1349q-6 21 7 38.5t36 17.5h262q27 0 38.5 -11t24.5 -45l275 -770v-2l518 772q23 34 38 45t42 11h262q27 0 32.5 -20.5t-6.5 -35.5l-931 -1349q-4 -6 -10 -14t-9 -12.5t-7 -10t-7 -8.5t-6.5 -6t-7 -4t-7.5 -1h-6q-5 0 -9 2t-7.5 8t-5.5 11t-6.5 16t-8.5 19z " />
<glyph unicode="W" horiz-adv-x="1974" d="M485 1378l138 -708l413 735q10 19 13.5 25t10 15.5t11.5 12t12 2.5h41q13 0 18.5 -12t12.5 -43l180 -735l363 708q15 32 32 44t48 12h272q29 0 33 -12t-15 -44l-761 -1349q-30 -48 -38 -53q-5 -3 -9 -3h-25q-16 0 -31 56l-203 790l-452 -790q-30 -48 -38 -53q-5 -3 -9 -3 h-25q-16 0 -31 56l-331 1349q-9 32 -1.5 44t36.5 12h272q31 0 44 -12t19 -44z" />
<glyph unicode="X" horiz-adv-x="1386" d="M651 444l-334 -389q-29 -34 -45 -44.5t-43 -10.5h-260q-32 0 -38 11.5t18 43.5l573 652l-370 671q-30 56 34 56h263q27 0 40 -11t31 -45l215 -409l346 409q30 34 46 45t42 11h263q66 0 18 -56l-582 -671l367 -652q15 -32 6 -43.5t-41 -11.5h-262q-26 0 -39 10.5t-35 44.5 z" />
<glyph unicode="Y" horiz-adv-x="1376" d="M494 520l-375 858q-12 32 -3.5 44t38.5 12h256q26 0 37.5 -11t25.5 -45l227 -573l418 573q25 34 39.5 45t40.5 11h250q30 0 35 -12t-17 -44l-649 -858l-74 -465q-4 -32 -17.5 -43.5t-45.5 -11.5h-213q-32 0 -42 11.5t-5 43.5z" />
<glyph unicode="Z" horiz-adv-x="1243" d="M1022 0h-1096q-11 0 -14 4t-2 14l6 29q2 10 25 39l843 1065h-587q-32 0 -42 11.5t-5 43.5l28 172q4 32 18 44t46 12h1075q19 0 16 -19l-6 -29q-2 -11 -24 -38l-846 -1065h610q32 0 42 -12t5 -44l-29 -172q-4 -32 -17.5 -43.5t-45.5 -11.5z" />
<glyph unicode="[" horiz-adv-x="792" d="M565 -172l-22 -152q-6 -32 -20 -43.5t-46 -11.5h-416q-32 0 -41.5 11.5t-3.5 43.5l273 1727q6 32 19.5 43.5t45.5 11.5h416q32 0 41.5 -11.5t3.5 -43.5l-22 -152q-6 -32 -20 -43.5t-46 -11.5h-182l-207 -1313h182q32 0 41 -11t4 -44z" />
<glyph unicode="\" horiz-adv-x="888" d="M420 45l-250 1333q-6 29 9 42.5t52 13.5h175q31 0 44.5 -10.5t16.5 -34.5l250 -1334q5 -30 -7.5 -42.5t-47.5 -12.5h-181q-33 0 -44 8t-17 37z" />
<glyph unicode="]" horiz-adv-x="792" d="M-23 -324l23 152q4 32 17.5 43.5t45.5 11.5h183l207 1313h-183q-32 0 -41.5 11.5t-3.5 43.5l23 152q6 32 19.5 43.5t45.5 11.5h416q32 0 41.5 -11.5t3.5 -43.5l-272 -1727q-6 -32 -20 -43.5t-46 -11.5h-416q-31 0 -40 11.5t-3 43.5z" />
<glyph unicode="^" horiz-adv-x="802" d="M362 1542h136q24 -1 37.5 -13t29.5 -42l140 -258q14 -28 4.5 -41.5t-37.5 -13.5h-123q-51 0 -72 55l-71 160l-121 -160q-40 -55 -92 -55h-123q-56 0 -13 55l217 258q47 53 88 55z" />
<glyph unicode="_" horiz-adv-x="1130" d="M952 -281h-815q-32 0 -42 12t-5 44l23 145q4 32 17.5 43.5t45.5 11.5h815q32 0 42 -11.5t5 -43.5l-22 -145q-4 -32 -18 -44t-46 -12z" />
<glyph unicode="`" horiz-adv-x="573" d="M201 1206l-115 97q-24 23 -24.5 38t18.5 39l94 123q51 64 82 19l211 -283q48 -65 -12 -65h-172q-45 0 -82 32z" />
<glyph unicode="a" horiz-adv-x="1189" d="M326 772q-30 -4 -39.5 6.5t-12.5 44.5l-14 138q-2 32 6.5 45t36.5 20q35 9 156 24t213 15q73 0 131.5 -7.5t103 -20t77 -34t54.5 -45.5t35 -58.5t18.5 -68.5t4.5 -80.5t-5.5 -89t-13.5 -98.5l-82 -508q-4 -32 -17.5 -43.5t-45.5 -11.5h-117q-23 0 -34.5 11.5t-18.5 43.5 l-12 51q-35 -25 -47.5 -34t-53.5 -32t-73.5 -33.5t-86 -20t-112.5 -9.5q-53 0 -101 13t-89.5 40.5t-70 67t-40 97.5t-0.5 127q17 106 84 182.5t156.5 111.5t189.5 35q55 0 134.5 -11t131.5 -28q10 64 3.5 105.5t-44.5 61.5t-117 20q-126 0 -288 -27zM551 434 q-79 0 -117.5 -34t-46.5 -78q-6 -37 23 -74t106 -37q90 0 207 102l14 88q-6 2 -24.5 6.5t-25 6t-22 5.5t-23.5 5.5t-21.5 4t-23 3t-22 1.5t-24.5 1z" />
<glyph unicode="b" d="M569 1456l-84 -530q35 46 128 92.5t198 46.5q132 0 229 -73.5t138 -198.5t18 -273q-17 -107 -68.5 -206.5t-125 -173.5t-169 -118.5t-194.5 -44.5q-218 0 -338 152l-53 -74q-17 -23 -25.5 -32.5t-20.5 -16t-28 -6.5h-94q-32 0 -42 11.5t-5 43.5l223 1401q4 32 17.5 43.5 t45.5 11.5h203q32 0 42 -11.5t5 -43.5zM608 250q97 0 178 77.5t99 192.5t-38 190.5t-153 75.5t-177.5 -75.5t-98.5 -190.5q-19 -115 37 -192.5t153 -77.5z" />
<glyph unicode="c" horiz-adv-x="1075" d="M578 256q119 0 198 63q27 20 41 17t35 -29l84 -112q18 -25 18.5 -35t-18.5 -29q-183 -154 -404 -154q-147 0 -260.5 73t-166 198t-29.5 272q24 151 117.5 277t229.5 197t284 71q221 0 354 -154q12 -19 8 -28.5t-29 -34.5l-120 -113q-28 -26 -43 -29t-37 17 q-57 63 -178 63q-97 0 -178 -75.5t-99 -190.5t39 -189.5t154 -74.5z" />
<glyph unicode="d" d="M883 926l84 530q4 32 17.5 43.5t45.5 11.5h203q32 0 42 -11.5t5 -43.5l-223 -1401q-4 -32 -18 -43.5t-46 -11.5h-94q-23 0 -33.5 11t-23.5 44l-29 74q-173 -152 -387 -152q-131 0 -228 75.5t-137.5 199.5t-19.5 268q17 111 69 211t125.5 173.5t168.5 117t194 43.5 q105 0 183 -46t102 -93zM543 250q97 0 177 77t99 193q18 115 -37.5 190.5t-152.5 75.5t-178 -75.5t-99 -190.5t38 -192.5t153 -77.5z" />
<glyph unicode="e" horiz-adv-x="1198" d="M920 293l63 -100q16 -25 17 -38t-17 -32q-81 -69 -201.5 -107.5t-238.5 -38.5q-152 0 -267.5 73t-169 198t-30.5 272q24 151 117.5 277t229.5 197t284 71q85 0 155.5 -22t119 -61.5t83.5 -94t50.5 -119.5t19 -138t-10.5 -149q-5 -35 -16.5 -47t-42.5 -12h-680 q14 -79 70 -128.5t137 -49.5q120 0 248 53l17.5 7.5t14.5 6t11 3.5t10.5 1t8.5 -3t9 -6.5t9 -12.5zM424 621h403q-13 190 -168 190q-51 0 -92.5 -18t-69 -50.5t-43 -59.5t-30.5 -62z" />
<glyph unicode="f" horiz-adv-x="862" d="M227 1038l9 64q35 217 163.5 337t329.5 120q118 0 195 -54q21 -14 23.5 -27t-7.5 -42l-47 -144q-12 -41 -25.5 -46t-48.5 14q-41 20 -100 20q-143 0 -172 -188l-8 -54h260q32 0 41 -11t4 -44l-21 -135q-6 -33 -18.5 -44t-44.5 -11h-260l-117 -738q-6 -32 -20 -43.5 t-46 -11.5h-200q-32 0 -41 11t-4 44l116 738h-100q-33 0 -43 11.5t-4 43.5l20 135q6 32 20 43.5t46 11.5h100z" />
<glyph unicode="g" d="M817 57l10 60q-37 -47 -129.5 -93.5t-197.5 -46.5q-132 0 -229 73.5t-138 198.5t-18 273q17 107 69 206.5t125.5 173.5t168.5 118.5t194 44.5q216 0 340 -152l51 74q17 23 25.5 32.5t20.5 16t28 6.5h94q33 0 43 -11.5t4 -43.5l-141 -889q-96 -604 -615 -604 q-104 0 -204 19t-142 33.5t-63 25.5q-25 12 -29 23.5t8 42.5l68 167q12 34 23.5 40.5t37.5 -5.5q154 -73 291 -73q43 0 78.5 6.5t73.5 25t66.5 50t52 84.5t34.5 124zM702 793q-96 0 -176.5 -77.5t-99.5 -193.5q-18 -115 38.5 -190.5t153.5 -75.5t177 75.5t98 190.5t-38 193 t-153 78z" />
<glyph unicode="h" horiz-adv-x="1226" d="M578 1456l-78 -489q61 48 121 73t139 25q60 0 108 -9.5t90 -32t69 -59t44.5 -90t17 -126t-13.5 -166.5l-84 -527q-4 -32 -17.5 -43.5t-45.5 -11.5h-203q-32 0 -42 11.5t-5 43.5l74 465q25 140 0 203t-115 63q-93 0 -139 -61.5t-70 -204.5l-74 -465q-4 -32 -17.5 -43.5 t-45.5 -11.5h-203q-32 0 -42 11.5t-5 43.5l74 465l149 936q4 32 18 43.5t46 11.5h202q32 0 42 -11.5t6 -43.5z" />
<glyph unicode="i" horiz-adv-x="667" d="M63 55l148 932q6 32 19.5 43.5t45.5 11.5h203q32 0 41.5 -11.5t3.5 -43.5l-147 -932q-4 -32 -18 -43.5t-46 -11.5h-202q-32 0 -42 11.5t-6 43.5zM246 1354q12 75 72 128.5t135 53.5t120 -53.5t33 -128.5t-74 -126.5t-137 -51.5t-118 51.5t-31 126.5z" />
<glyph unicode="j" horiz-adv-x="784" d="M399 1354q12 75 73 128.5t136 53.5t119.5 -53.5t32.5 -128.5q-10 -74 -71.5 -126t-137.5 -52q-75 0 -119 51.5t-33 126.5zM109 848l22 139q4 31 19.5 43t44.5 12h436q32 0 42 -11.5t5 -43.5l-160 -1014q-34 -216 -162.5 -336t-330.5 -120q-117 0 -191 53q-22 14 -25 27.5 t7 42.5l47 143q12 41 25.5 46.5t50.5 -13.5q41 -21 96 -21q141 0 174 189l127 809h-180q-55 0 -47 55z" />
<glyph unicode="k" horiz-adv-x="1198" d="M737 553l297 -498q11 -18 13 -30t-5 -17t-16 -6.5t-25 -1.5h-276q-26 0 -38 10t-34 45l-241 424l-68 -424q-4 -32 -17.5 -43.5t-45.5 -11.5h-203q-32 0 -42 11.5t-5 43.5l223 1401q4 32 17.5 43.5t45.5 11.5h203q32 0 42 -11.5t5 -43.5l-135 -850l344 381q31 34 47 44.5 t43 10.5h279q29 0 33 -16.5t-19 -38.5z" />
<glyph unicode="l" horiz-adv-x="620" d="M41 55l223 1401q4 32 18 43.5t46 11.5h202q32 0 42 -11.5t6 -43.5l-224 -1401q-4 -32 -17.5 -43.5t-45.5 -11.5h-203q-32 0 -42 11.5t-5 43.5z" />
<glyph unicode="m" horiz-adv-x="1863" d="M1092 913q148 152 331 152q78 0 135.5 -14t103.5 -47.5t68.5 -88.5t29.5 -138t-13 -195l-82 -527q-6 -32 -20 -43.5t-46 -11.5h-202q-32 0 -41.5 11.5t-3.5 43.5l73 465q22 144 -3.5 205t-118.5 61q-89 0 -135.5 -58.5t-67.5 -184.5l-76 -488q-6 -32 -20 -43.5t-46 -11.5 h-202q-32 0 -41.5 11.5t-3.5 43.5l73 465q22 144 -3.5 205t-118.5 61t-139 -61.5t-68 -204.5l-74 -465q-6 -32 -20 -43.5t-46 -11.5h-202q-32 0 -41.5 11.5t-3.5 43.5l147 932q4 32 18 43.5t46 11.5h98q23 0 33.5 -11t23.5 -44l29 -74q42 39 70.5 61t68.5 46t84 34.5 t96 10.5q118 0 193.5 -37t116.5 -115z" />
<glyph unicode="n" horiz-adv-x="1226" d="M444 987l29 -74q84 77 154.5 114.5t169.5 37.5q73 0 127.5 -14t100 -47.5t68 -88.5t30 -138t-12.5 -195l-82 -527q-6 -32 -19.5 -43.5t-45.5 -11.5h-203q-32 0 -41.5 11.5t-3.5 43.5l73 465q22 144 -2 205t-114 61q-93 0 -139 -61.5t-68 -204.5l-74 -465 q-6 -32 -19.5 -43.5t-45.5 -11.5h-203q-32 0 -41.5 11.5t-3.5 43.5l74 465l73 467q4 32 18 43.5t46 11.5h98q23 0 33.5 -11t23.5 -44z" />
<glyph unicode="o" horiz-adv-x="1245" d="M76 520q24 151 118 277t230.5 197t284.5 71q147 0 260.5 -73.5t166.5 -199t29 -272.5q-23 -147 -116 -272t-230 -198t-284 -73t-261 73t-167.5 198t-30.5 272zM580 250q96 0 175.5 77t98.5 193q18 115 -37.5 190.5t-152.5 75.5t-178 -75.5t-99 -190.5t39 -192.5 t154 -77.5z" />
<glyph unicode="p" d="M424 117l-78 -479q-5 -32 -18 -44t-45 -12h-203q-32 0 -42 12t-5 44l215 1349q4 32 17.5 43.5t45.5 11.5h95q23 0 33.5 -11t23.5 -44l29 -74q173 152 387 152q132 0 229 -75.5t137.5 -199.5t18.5 -268q-17 -111 -69 -211t-125.5 -173.5t-168.5 -117t-194 -43.5 q-105 0 -183 46.5t-100 93.5zM762 793q-97 0 -177.5 -77.5t-99.5 -193.5q-18 -115 38 -190.5t153 -75.5t177.5 75.5t98.5 190.5q19 116 -37 193.5t-153 77.5z" />
<glyph unicode="q" d="M743 -362l78 479q-37 -47 -129.5 -93.5t-197.5 -46.5q-132 0 -229 73.5t-138 198.5t-18 273q17 107 68.5 206.5t125 173.5t169 118.5t194.5 44.5q218 0 338 -152l53 74q18 24 25.5 32.5t19.5 15.5t28 7h95q32 0 42 -11.5t5 -43.5l-215 -1349q-4 -32 -18 -44t-46 -12h-202 q-32 0 -42.5 12t-5.5 44zM696 793q-96 0 -176.5 -77.5t-99.5 -193.5q-18 -115 37.5 -190.5t152.5 -75.5t178 75.5t99 190.5t-38 193t-153 78z" />
<glyph unicode="r" horiz-adv-x="870" d="M791 756q-146 0 -229.5 -75t-102.5 -192l-68 -434q-6 -32 -19.5 -43.5t-45.5 -11.5h-203q-32 0 -41.5 11.5t-3.5 43.5l147 932q4 32 18 43.5t46 11.5h98q23 0 33.5 -11t23.5 -44l43 -113q50 65 96 103.5t120.5 63t177.5 24.5q36 0 44 -11.5t-3 -39.5l-64 -207 q-12 -32 -24 -41.5t-43 -9.5z" />
<glyph unicode="s" horiz-adv-x="1050" d="M463 217q82 0 130.5 22.5t55.5 65.5q4 33 -41.5 50t-148.5 30q-87 12 -152 34t-115.5 60t-71.5 98.5t-9 141.5q24 162 158 254t329 92q194 0 383 -117q17 -11 20.5 -23t-1.5 -23.5t-19 -31.5l-76 -102q-15 -21 -25 -30t-23.5 -9.5t-29.5 12.5q-52 39 -108.5 61.5 t-138.5 22.5q-89 0 -126.5 -21t-45.5 -67q-4 -33 42.5 -52t147.5 -32q38 -5 70.5 -11t65.5 -15t59 -20t51.5 -26t43 -33.5t33 -41.5t21.5 -50t9 -60.5t-5 -71.5q-25 -157 -164 -252t-338 -95q-94 0 -202 32t-201 102q-16 12 -19.5 23.5t1 22t18.5 31.5l76 103q17 23 25 31 t21.5 9t31.5 -14q118 -100 268 -100z" />
<glyph unicode="t" horiz-adv-x="913" d="M713 31q-94 -54 -211 -54q-201 0 -291.5 119.5t-56.5 331.5l57 369h-49q-32 0 -41.5 11.5t-3.5 43.5l20 135q4 32 18 43.5t46 11.5h49l31 189q4 32 17.5 43.5t45.5 11.5h201q32 0 42 -11.5t5 -43.5l-31 -189h260q32 0 42 -11.5t5 -43.5l-20 -135q-6 -32 -20 -43.5 t-46 -11.5h-260l-55 -353q-29 -188 113 -188q60 0 106 20q41 19 53 14t11 -46l2 -144q0 -31 -6 -43t-33 -26z" />
<glyph unicode="u" horiz-adv-x="1226" d="M780 55l-28 74q-84 -77 -154.5 -114.5t-169.5 -37.5q-73 0 -128 14t-100 47.5t-67.5 89t-30 138.5t12.5 195l82 526q6 32 19.5 43.5t45.5 11.5h203q32 0 41 -11t4 -44l-74 -465q-22 -144 2.5 -205t114.5 -61q93 0 139 61.5t68 204.5l74 465q6 32 19.5 43.5t45.5 11.5h203 q32 0 41 -11t4 -44l-74 -465l-74 -467q-4 -32 -17.5 -43.5t-45.5 -11.5h-98q-23 0 -34 11.5t-24 43.5z" />
<glyph unicode="v" horiz-adv-x="1120" d="M434 29l-352 958q-6 21 6.5 38t36.5 17h221q27 0 39.5 -11t24.5 -44l159 -416v-2l293 418q22 33 37.5 44t42.5 11h221q27 0 33 -20t-6 -35l-660 -958q-5 -7 -13 -19t-11.5 -16.5t-9 -10.5t-10 -8t-9.5 -2h-6q-12 0 -19 12t-18 44z" />
<glyph unicode="w" horiz-adv-x="1536" d="M430 997l62 -387l292 404q4 5 12.5 16.5t12.5 16t11 11t13.5 9t14.5 2.5h14q6 0 11 -2t8 -5t6.5 -9.5t5 -10.5t5 -13.5t5.5 -14.5l166 -404l178 377q15 32 33 43.5t49 11.5h240q29 0 32.5 -11.5t-14.5 -43.5l-477 -952q-27 -55 -55 -55h-11q-13 0 -22.5 13t-20.5 42 l-221 579l-401 -579q-22 -31 -35 -43t-27 -12h-12q-23 0 -35 55l-178 952q-8 32 0 43.5t37 11.5h242q28 0 41.5 -9.5t17.5 -35.5z" />
<glyph unicode="x" horiz-adv-x="1064" d="M500 322l-191 -267q-22 -34 -40.5 -44.5t-47.5 -10.5h-250q-31 0 -36.5 11.5t18.5 43.5l375 465l-228 467q-15 32 -6 43.5t41 11.5h252q29 0 44 -11t28 -44l102 -272l193 272q25 35 42 45t46 10h252q31 0 36.5 -11.5t-18.5 -43.5l-379 -467l230 -465q15 -32 6 -43.5 t-41 -11.5h-252q-28 0 -41.5 10t-30.5 45z" />
<glyph unicode="y" horiz-adv-x="1132" d="M596 485l303 502q22 33 37.5 44t42.5 11h229q30 0 34.5 -11.5t-15.5 -43.5l-832 -1349q-23 -34 -38 -45t-42 -11h-229q-30 0 -34 12t16 44l307 497l-256 852q-10 32 -2.5 43.5t37.5 11.5h229q27 0 39 -11t24 -44l148 -504z" />
<glyph unicode="z" horiz-adv-x="1013" d="M813 0h-836q-10 0 -13 3.5t-1 14.5l4 25q3 18 25 43l547 684h-363q-32 0 -42 11.5t-5 43.5l27 162q4 32 17.5 43.5t45.5 11.5h817q10 0 13.5 -3.5t1.5 -14.5l-4 -25q-2 -12 -25 -43l-537 -684h371q32 0 42 -11.5t5 -43.5l-26 -162q-4 -32 -18 -43.5t-46 -11.5z" />
<glyph unicode="{" horiz-adv-x="917" d="M51 422l27 176q5 25 17 40.5t40 23.5q5 1 25.5 7t32 9.5t31.5 11.5t32.5 16t27 19.5t22.5 26.5t11 32l25 162q83 514 604 514q32 0 42 -11.5t5 -43.5l-28 -178q-5 -33 -18 -44.5t-46 -11.5q-100 0 -158.5 -54t-76.5 -171l-25 -162q-17 -103 -81 -174t-136 -92l-2 -16 q66 -21 107 -92.5t24 -173.5l-25 -162q-19 -117 21.5 -171.5t140.5 -54.5q33 0 42.5 -11t4.5 -44l-28 -178q-4 -32 -18 -43.5t-46 -11.5q-35 0 -66 2t-68 7t-68.5 15t-65 24.5t-60 36.5t-50.5 50t-39.5 66t-25 83.5t-9 104t11.5 125.5l24 162q3 17 0 32t-14 26.5t-19.5 19.5 t-27.5 16t-27.5 11.5t-29 9.5t-23.5 7q-46 16 -37 64z" />
<glyph unicode="|" horiz-adv-x="567" d="M16 -147l273 1728q6 32 19.5 43.5t45.5 11.5h150q32 0 41.5 -11.5t3.5 -43.5l-273 -1728q-6 -32 -19.5 -44t-45.5 -12h-150q-32 0 -41.5 12t-3.5 44z" />
<glyph unicode="}" horiz-adv-x="917" d="M864 598l-26 -176q-9 -49 -58 -64q-5 -1 -25.5 -7t-32 -9.5t-31.5 -11.5t-32.5 -16t-27 -19.5t-22.5 -26.5t-11 -32l-25 -162q-83 -514 -602 -514q-32 0 -42 11.5t-5 43.5l29 178q5 33 17 44t44 11q100 0 159 54.5t77 171.5l24 162q17 103 81.5 174t136.5 92l2 16 q-66 21 -107.5 92.5t-24.5 173.5l25 162q18 117 -22 171t-140 54q-33 0 -42.5 11.5t-4.5 44.5l29 178q4 32 17.5 43.5t45.5 11.5q35 0 66 -2t68 -7t68.5 -15t65 -24.5t60 -36.5t51 -50t40 -66t25 -83.5t9 -104t-11.5 -125.5l-25 -162q-3 -17 0 -32t14 -26.5t19.5 -19.5 t27.5 -16t27.5 -11.5t29 -9.5t23.5 -7q46 -16 37 -64z" />
<glyph unicode="~" horiz-adv-x="1241" d="M575 713q-5 4 -23.5 18.5t-24 18.5t-21 13.5t-24.5 12.5t-22.5 6.5t-27.5 3.5q-12 0 -26.5 -6.5t-36 -23t-33 -26t-41.5 -36t-37 -32.5q-28 -21 -43.5 -19.5t-34.5 25.5l-67 92q-17 25 -13.5 41.5t29.5 36.5q103 88 179.5 132t160.5 44q88 0 195 -94q7 -5 24 -18.5 t23.5 -18.5t21 -14t24 -13t23 -7t27.5 -3t36 13t40 28t49 42.5t49 41.5q26 22 42.5 20.5t35.5 -26.5l67 -93q17 -25 13.5 -41t-29.5 -36q-104 -88 -180.5 -132.5t-159.5 -44.5q-87 0 -195 95z" />
<glyph unicode="&#xa1;" horiz-adv-x="696" d="M45 -610l174 813q6 32 20 43.5t46 11.5h188q31 0 39.5 -11t5.5 -44l-84 -813q-5 -32 -18 -44t-45 -12h-279q-32 0 -42.5 12t-4.5 44zM238 598q12 82 76.5 137.5t146.5 55.5t130 -55.5t36 -137.5t-79 -139.5t-149 -57.5q-81 0 -127 57.5t-34 139.5z" />
<glyph unicode="&#xa2;" horiz-adv-x="1054" d="M330 -268l78 262q-170 45 -262.5 192t-63.5 334q23 151 116.5 277t230 197t284.5 71h6l55 188q7 32 22 42.5t48 7.5l41 -7q32 -4 40.5 -16.5t0.5 -44.5l-58 -195q118 -39 199 -129q12 -19 8.5 -28.5t-28.5 -34.5l-121 -113q-28 -26 -43 -29t-37 17q-26 29 -60 41 l-147 -506q83 11 143 61q27 20 41 17t35 -29l84 -112q18 -25 18.5 -35t-18.5 -29q-173 -148 -385 -154l-76 -266q-12 -34 -25.5 -42.5t-45.5 -4.5l-41 4q-32 5 -40 17.5t1 46.5zM391 520q-12 -85 14.5 -148t83.5 -93l148 505q-88 -12 -158 -85.5t-88 -178.5z" />
<glyph unicode="&#xa3;" horiz-adv-x="1130" d="M139 750h97q-2 6 -12 27.5t-13 29t-11 28t-11 32t-8 32t-6 37.5t-2 40t1 47t6 50q11 70 48.5 137t97.5 123.5t150.5 91.5t195.5 35q186 0 411 -153q16 -11 20 -22.5t-1 -23t-19 -32.5l-106 -139q-15 -21 -25 -30t-23.5 -9.5t-29.5 12.5q-133 108 -252 108 q-73 0 -112 -44.5t-48 -102.5q-5 -39 6 -83t37.5 -108t32.5 -83h303q32 0 42 -12t5 -44l-4 -28q-6 -32 -19.5 -44t-45.5 -12h-266q-13 -166 -103 -327h426q32 0 42 -12t5 -44l-28 -172q-4 -32 -18 -43.5t-46 -11.5h-768q-32 0 -42 11.5t-5 43.5q4 24 41.5 88t79 132.5 t75 162t31.5 172.5h-151q-32 0 -41.5 12t-3.5 44l4 28q5 32 18 44t45 12z" />
<glyph unicode="&#xa4;" horiz-adv-x="1114" d="M203 700q11 85 63 166l-119 144q-18 24 -15 39.5t28 37.5l80 70q26 23 42 23t35 -23l121 -143q84 43 174 43t162 -43l166 143q25 23 41.5 23t36.5 -23l55 -70q19 -21 17 -37.5t-29 -39.5l-166 -144q30 -74 18 -166q-14 -87 -69 -168l119 -141q18 -24 15 -40t-28 -38 l-80 -69q-26 -23 -42 -23t-35 23l-121 141q-83 -39 -172 -39q-92 0 -160 41l-166 -143q-25 -23 -41.5 -23t-36.5 23l-55 69q-19 21 -17 38t29 40l164 141q-29 75 -14 168zM420 700q-9 -58 23.5 -102.5t88.5 -44.5t104.5 44.5t57.5 102.5q8 58 -25 103t-89 45t-104 -45 t-56 -103z" />
<glyph unicode="&#xa5;" horiz-adv-x="1396" d="M711 805l417 573q25 34 39.5 45t40.5 11h250q31 0 36 -12t-17 -44l-435 -573h154q32 0 42 -11.5t5 -43.5l-14 -88q-4 -32 -18 -44t-46 -12h-239h-33l-66 -86l-8 -59h324q32 0 41 -11t4 -44l-12 -89q-6 -32 -20 -43.5t-46 -11.5h-324l-32 -207q-4 -32 -18 -43.5t-46 -11.5 h-213q-32 0 -42 11.5t-5 43.5l33 207h-324q-32 0 -41.5 11.5t-3.5 43.5l12 89q4 32 18.5 43.5t47.5 11.5h324l8 59l-37 86h-272q-32 0 -42.5 12t-5.5 44l15 88q4 32 17.5 43.5t45.5 11.5h154l-250 573q-12 32 -3.5 44t38.5 12h256q26 0 37.5 -11t25.5 -45z" />
<glyph unicode="&#xa6;" horiz-adv-x="520" d="M25 -92l110 696q4 32 18 43.5t46 11.5h102q32 0 42 -11.5t5 -43.5l-110 -696q-4 -32 -18 -43.5t-46 -11.5h-102q-32 0 -42 11.5t-5 43.5zM180 895l101 631q4 32 17.5 43.5t45.5 11.5h102q32 0 42 -11.5t6 -43.5l-101 -631q-4 -32 -17.5 -43.5t-45.5 -11.5h-103 q-32 0 -42 11.5t-5 43.5z" />
<glyph unicode="&#xa7;" horiz-adv-x="1292" d="M1196 420q-25 -155 -143 -270q83 -102 55 -279q-14 -88 -62 -167t-124 -140.5t-186 -98t-238 -36.5q-303 0 -512 153q-24 18 -23.5 33.5t23.5 44.5l104 139q22 30 37 36t41 -9q156 -109 354 -109q239 0 260 138q5 31 0 55t-23 41t-39.5 29t-60 21t-72.5 14t-89 12 q-462 57 -406 411q11 71 48 145.5t98 137.5q-86 102 -58 266q10 62 37.5 124.5t78.5 125.5t119 111t167 78t213 30q148 0 253.5 -37t223.5 -116q16 -11 20 -22.5t-1 -23t-19 -32.5l-107 -140q-22 -30 -37 -36t-41 10q-85 64 -153 86t-164 22q-139 0 -195.5 -44t-68.5 -124 q-4 -26 0 -46t20 -34.5t35 -24t55 -17.5t69 -13t87 -12q78 -9 138.5 -23.5t124 -46t102 -76.5t56.5 -118t3 -168zM586 575q-37 3 -76 13q-78 -40 -92 -137q-5 -31 4.5 -54t27.5 -37.5t56.5 -25.5t76.5 -17t103 -14q61 -8 90 -14q80 35 92 114q5 31 0 55t-23 41t-39 29 t-59.5 21t-72.5 14t-88 12z" />
<glyph unicode="&#xa8;" horiz-adv-x="931" d="M100 1356q11 62 59 104.5t109 42.5q62 0 97.5 -43t25.5 -104q-9 -61 -58.5 -102.5t-111.5 -41.5q-61 0 -95.5 41t-25.5 103zM537 1356q11 62 59 104.5t109 42.5q62 0 97 -43t25 -104q-9 -61 -58.5 -102.5t-111.5 -41.5q-61 0 -95 41t-25 103z" />
<glyph unicode="&#xa9;" horiz-adv-x="1642" d="M78 717q23 151 103.5 288.5t195.5 237t262 158.5t299 59q312 0 478 -197q137 -161 138 -407q2 -241 -124 -459q-132 -228 -355 -339q-171 -85 -373 -85q-203 0 -358 99.5t-226.5 270.5t-39.5 374zM168 717q-22 -133 10.5 -254.5t106 -209t186.5 -139t246 -51.5 q291 0 497 192q164 154 225 379q60 223 -8 412q-70 194 -254 275q-110 49 -253 49q-178 0 -342.5 -87.5t-275.5 -238t-138 -327.5zM782 487q-91 0 -134.5 69.5t-29.5 160.5q14 93 79.5 161t156.5 68q98 0 154 -74q18 -21 41 2l73 72q12 12 14 19t-6 20q-41 49 -109.5 78 t-143.5 29q-152 0 -278.5 -110.5t-149.5 -264.5q-25 -154 67 -264.5t244 -110.5q75 0 152.5 29t134.5 78q12 12 12.5 19t-8.5 19l-54 70q-10 15 -19 15.5t-22 -11.5q-74 -74 -174 -74z" />
<glyph unicode="&#xaa;" horiz-adv-x="813" d="M225 1278q-19 -3 -23.5 3.5t-6.5 29.5l-7 86q-2 20 2.5 29t20.5 12q176 22 229 22q101 0 160.5 -21.5t81 -62t23 -98.5t-12.5 -131l-49 -313q-3 -21 -11.5 -28t-29.5 -7h-72q-14 0 -21.5 7t-10.5 28l-4 30q-64 -44 -105 -59q-59 -21 -131 -21q-90 0 -147 55t-39 158 q16 99 92.5 153t173.5 54q85 0 168 -22q10 63 -9 88.5t-91 25.5q-80 0 -181 -18zM365 1067q-49 0 -73 -21.5t-28 -48.5q-4 -24 13 -46.5t65 -22.5q57 0 135 65l8 56q-81 18 -120 18z" />
<glyph unicode="&#xab;" horiz-adv-x="1232" d="M121 625l385 372q28 23 41.5 25.5t38.5 -12.5l110 -70q24 -15 24 -33t-24 -45l-309 -342l201 -342q14 -26 9 -43t-34 -35l-131 -69q-30 -17 -43.5 -14.5t-32.5 26.5l-270 373q-29 39 -23 96l3 16q8 53 55 97zM621 625l385 372q28 23 41 25.5t38 -12.5l111 -70 q24 -15 24 -33t-24 -45l-309 -342l200 -342q14 -26 9.5 -43t-33.5 -35l-131 -69q-30 -17 -43.5 -14.5t-32.5 26.5l-270 373q-27 38 -23 94l2 18q4 47 56 97z" />
<glyph unicode="&#xac;" horiz-adv-x="1093" d="M713 180l43 279h-592q-32 0 -42 11.5t-5 43.5l20 131q6 32 20 43.5t46 11.5h778q32 0 41.5 -11.5t3.5 -43.5l-72 -465q-6 -32 -19.5 -43.5t-45.5 -11.5h-131q-32 0 -41.5 11.5t-3.5 43.5z" />
<glyph unicode="&#xad;" horiz-adv-x="880" d="M702 459h-565q-32 0 -42 11.5t-5 43.5l23 131q4 32 17.5 43.5t45.5 11.5h565q32 0 42 -11.5t5 -43.5l-22 -131q-4 -32 -18 -43.5t-46 -11.5z" />
<glyph unicode="&#xae;" horiz-adv-x="1642" d="M1133 866q-24 -156 -191 -209l137 -278q13 -37 -30 -37h-107q-32 0 -45 27l-133 274h-59l-43 -274q-3 -15 -10.5 -21t-24.5 -6h-115q-19 0 -25.5 6t-3.5 21l109 696q3 15 11 21t26 6h264q51 0 95 -11t82 -35.5t55.5 -70.5t7.5 -109zM727 786h117q107 0 119 80 q6 42 -17 62t-78 20h-116zM78 717q23 151 103.5 288.5t195.5 237t262 158.5t299 59q151 0 279.5 -59t212 -158.5t121 -237t14.5 -288.5q-32 -203 -159.5 -374t-314.5 -270.5t-389 -99.5q-203 0 -358 99.5t-226.5 270.5t-39.5 374zM168 717q-22 -133 10.5 -254.5t106 -209 t186.5 -139t246 -51.5q177 0 341.5 87.5t276 238t140.5 328.5q27 177 -37 327.5t-200.5 238t-313.5 87.5q-178 0 -342.5 -87.5t-275.5 -238t-138 -327.5z" />
<glyph unicode="&#xaf;" horiz-adv-x="813" d="M637 1241h-498q-32 0 -42 11.5t-5 43.5l19 109q4 32 17.5 43.5t45.5 11.5h498q32 0 42 -11.5t5 -43.5l-19 -109q-4 -32 -17.5 -43.5t-45.5 -11.5z" />
<glyph unicode="&#xb0;" horiz-adv-x="784" d="M78 1147q20 130 125.5 221.5t236.5 91.5q130 0 208.5 -91.5t58.5 -221.5q-22 -131 -129.5 -223.5t-237.5 -92.5q-131 0 -207.5 92t-54.5 224zM283 1147q-7 -44 19 -75.5t69 -31.5t78 31.5t43 75.5q6 41 -20 71.5t-69 30.5t-78.5 -30.5t-41.5 -71.5z" />
<glyph unicode="&#xb1;" horiz-adv-x="1212" d="M823 1331l-39 -244h244q33 0 43 -11.5t4 -43.5l-22 -141q-4 -32 -18 -43.5t-46 -11.5h-244l-32 -213q-6 -32 -20 -44t-46 -12h-141q-32 0 -41.5 12t-3.5 44l33 213h-244q-32 0 -42 11.5t-5 43.5l22 141q6 32 19 43.5t45 11.5h243l39 244q6 32 20 43.5t46 11.5h141 q32 0 41.5 -11.5t3.5 -43.5zM911 117h-815q-32 0 -41.5 11.5t-3.5 43.5l23 145q5 32 18 44t45 12h815q32 0 42 -12t5 -44l-22 -145q-6 -32 -20 -43.5t-46 -11.5z" />
<glyph unicode="&#xb2;" horiz-adv-x="651" d="M489 1305l-137 -168h146q15 0 18.5 -4.5t1.5 -18.5l-18 -123q-3 -24 -29 -24h-426q-4 0 -6 0.5t-3.5 2t-0.5 5.5l2 12q3 12 10 19l279 303q65 70 64 120q-1 37 -44 37q-68 0 -125 -51q-16 -10 -21.5 -8.5t-15.5 12.5l-59 78q-15 21 4 35q111 96 242 96q95 0 143.5 -51 t40.5 -126t-66 -146z" />
<glyph unicode="&#xb3;" horiz-adv-x="626" d="M250 946q-131 0 -211 96q-15 14 6 35l80 72q13 11 19.5 12.5t17.5 -8.5q51 -61 110 -61q47 0 72 23.5t29 51.5q5 27 -15 42.5t-63 15.5h-59q-26 0 -21 24l10 74q5 27 29 27h59q89 0 99 57q4 29 -12.5 52.5t-63.5 23.5q-60 0 -131 -64q-14 -10 -20.5 -8.5t-16.5 12.5 l-55 74q-16 22 2 35q114 96 243 96q43 0 83 -12t73 -34.5t49.5 -62t9.5 -89.5q-8 -46 -36.5 -83t-65.5 -59l-2 -2q73 -53 57 -141q-9 -65 -56 -112t-104 -67t-116 -20z" />
<glyph unicode="&#xb4;" horiz-adv-x="583" d="M483 1303l-147 -97q-43 -32 -90 -32h-172q-63 0 8 65l301 283q44 47 74 -19l57 -123q10 -24 4.5 -39t-35.5 -38z" />
<glyph unicode="&#xb5;" horiz-adv-x="1257" d="M844 55l-31 74q-82 -77 -152 -114.5t-169 -37.5q-16 0 -78 5l-56 -344q-5 -32 -18 -44t-45 -12h-203q-32 0 -42 12t-5 44l215 1349q4 32 18 43.5t46 11.5h202q32 0 42 -11.5t5 -43.5l-73 -465q-26 -140 -1 -203t115 -63q93 0 139 61.5t70 204.5l74 465q4 32 18 43.5 t46 11.5h202q32 0 42 -11.5t5 -43.5l-147 -932q-6 -32 -20 -43.5t-46 -11.5h-98q-23 0 -32 10.5t-23 44.5z" />
<glyph unicode="&#xb6;" horiz-adv-x="1705" d="M449 -430l131 827q-147 0 -261.5 73t-168 198t-29.5 272q35 219 213.5 356.5t408.5 137.5h963q32 0 42 -12t5 -44l-29 -178q-6 -32 -19.5 -43.5t-45.5 -11.5h-170l-250 -1577q-4 -32 -17.5 -43.5t-45.5 -11.5h-160q-32 0 -42 11.5t-5 43.5l250 1577h-252l-248 -1575 q-6 -32 -20 -43.5t-46 -11.5h-159q-32 0 -41.5 11.5t-3.5 43.5z" />
<glyph unicode="&#xb7;" horiz-adv-x="626" d="M100 700q15 89 85.5 151t158.5 62q89 0 141 -62t37 -151q-13 -88 -85 -148t-161 -60q-88 0 -138.5 60t-37.5 148z" />
<glyph unicode="&#xb8;" horiz-adv-x="667" d="M250 -16l129 -11l-12 -55q108 0 157.5 -55.5t34.5 -153.5q-15 -101 -88.5 -160t-196.5 -59q-86 0 -178 86q-29 26 4 57l39 43q18 18 28.5 18.5t29.5 -11.5q66 -35 127 -35q63 0 71 61q6 31 -11 48.5t-52 17.5h-113q-25 0 -35 13t0 38z" />
<glyph unicode="&#xb9;" horiz-adv-x="514" d="M109 1511l137 66q50 25 61 25h92q27 0 21 -25l-92 -586q-3 -14 -8.5 -19t-20.5 -5h-129q-14 0 -18.5 5.5t-1.5 18.5l61 385h-111q-14 0 -18.5 5t-1.5 20l12 84q3 18 17 26z" />
<glyph unicode="&#xba;" horiz-adv-x="677" d="M66 1116q23 150 108.5 247t218.5 97t187.5 -97t31.5 -247q-25 -150 -109.5 -247t-217.5 -97t-188.5 97.5t-30.5 246.5zM264 1116q-13 -77 0 -119.5t49 -42.5q35 0 62.5 42t40.5 120q12 77 -1.5 119.5t-49.5 42.5t-62.5 -42.5t-38.5 -119.5z" />
<glyph unicode="&#xbb;" horiz-adv-x="1232" d="M874 997l271 -372q31 -42 22 -97l-2 -16q-8 -52 -55 -96l-385 -373q-28 -24 -42 -26.5t-38 14.5l-110 69q-23 19 -23 35.5t23 42.5l311 342l-203 342q-15 26 -10 43.5t35 34.5l131 70q30 16 43 13.5t32 -26.5zM375 997l270 -372q32 -43 23 -97l-2 -16q-8 -50 -56 -96 l-385 -373q-28 -24 -42 -26.5t-38 14.5l-110 69q-23 19 -23 35.5t23 42.5l311 342l-203 342q-15 26 -10 43.5t35 34.5l131 70q30 16 43.5 13.5t32.5 -26.5z" />
<glyph unicode="&#xbc;" horiz-adv-x="1421" d="M1235 1378l-901 -1333q-17 -25 -32.5 -35t-45.5 -10h-98q-78 0 -41 55l901 1334q17 25 32.5 35t45.5 10h98q37 0 48 -14t-7 -42zM233 1343l138 66q50 25 61 25h92q14 0 18.5 -5.5t2.5 -19.5l-92 -586q-3 -14 -8.5 -19t-20.5 -5h-137q-26 0 -21 24l60 375h-103 q-14 0 -18.5 5t-1.5 20l14 94q3 19 16 26zM1028 635h135q22 0 19 -25l-52 -331h76q22 0 19 -25l-15 -88q-3 -15 -8.5 -20t-17.5 -5h-76l-18 -116q-3 -15 -9 -20t-18 -5h-111q-14 0 -17.5 5t-0.5 20l18 116h-260q-14 0 -18.5 5t-1.5 20l8 57q2 16 20 39l312 365q8 8 16 8z M997 422l-125 -143h103z" />
<glyph unicode="&#xbd;" horiz-adv-x="1490" d="M1276 1378l-901 -1333q-17 -25 -32.5 -35t-45.5 -10h-98q-78 0 -41 55l901 1334q17 25 32.5 35t45.5 10h98q37 0 48 -14t-7 -42zM233 1343l138 66q50 25 61 25h92q14 0 18.5 -5.5t2.5 -19.5l-92 -586q-3 -14 -8.5 -19t-20.5 -5h-137q-26 0 -21 24l60 375h-103 q-14 0 -18.5 5t-1.5 20l14 94q3 19 16 26zM1110 170l137 168q58 71 65.5 146.5t-41 126.5t-143.5 51q-129 0 -241 -97q-19 -14 -4 -35l59 -77q10 -11 16.5 -12.5t20.5 8.5q57 51 125 51q50 0 42 -49q-7 -49 -61 -109l-280 -303q-8 -10 -10 -19l-2 -12q0 -8 10 -8h426 q25 0 28 25l19 122q1 13 -3 18t-18 5h-145z" />
<glyph unicode="&#xbe;" horiz-adv-x="1523" d="M1319 1378l-901 -1333q-15 -24 -30.5 -34.5t-45.5 -10.5h-98q-78 0 -41 55l901 1334q15 24 31.5 34.5t46.5 10.5h98q77 0 39 -56zM367 782q-130 0 -211 97q-8 10 -6.5 16.5t14.5 17.5l78 72q13 11 19.5 12.5t17.5 -8.5q54 -61 112 -61q47 0 70.5 24t27.5 52 q5 27 -14.5 42t-62.5 15h-60q-13 0 -17.5 5t-2.5 19l12 74q5 27 29 27h59q86 0 96 57q4 29 -12 52.5t-63 23.5q-56 0 -131 -64q-14 -9 -20.5 -8t-16.5 13l-56 73q-15 21 4 35q111 96 242 96q59 0 110 -19.5t83.5 -66.5t21.5 -112q-7 -46 -35.5 -82.5t-66.5 -59.5v-2 q31 -22 47.5 -58.5t9.5 -82.5q-11 -65 -58 -112t-104.5 -67t-115.5 -20zM1106 635h137q13 0 17.5 -5.5t1.5 -19.5l-54 -331h76q24 0 21 -25l-15 -88q-3 -15 -8.5 -20t-17.5 -5h-76l-19 -116q-3 -15 -8.5 -20t-17.5 -5h-111q-14 0 -17.5 5t-0.5 20l18 116h-260q-14 0 -18.5 5 t-1.5 20l8 57q2 16 20 39l310 365q8 8 16 8zM1077 422l-127 -143h103z" />
<glyph unicode="&#xbf;" horiz-adv-x="1103" d="M696 -41q19 3 27.5 11t11.5 26l33 207q6 32 -4 43.5t-43 11.5h-178q-32 0 -45 -11.5t-19 -43.5l-10 -68q-89 -19 -152.5 -38t-126 -50t-103.5 -70t-71.5 -97.5t-42.5 -133.5q-5 -43 -4.5 -86.5t15 -86t37 -81t62 -71.5t89 -57.5t119.5 -38t153 -13.5q148 0 259.5 40 t261.5 126q28 16 31.5 34t-7.5 44l-61 139q-11 30 -24.5 36.5t-45.5 -10.5q-191 -120 -346 -120q-116 0 -170.5 42t-42.5 121q13 80 102 121.5t295 73.5zM885 598q-14 -82 -78 -139.5t-145 -57.5q-82 0 -130.5 57.5t-35.5 139.5q12 81 78.5 137t148.5 56q81 0 127.5 -55.5 t34.5 -137.5z" />
<glyph unicode="&#xc0;" horiz-adv-x="1542" d="M801 901h-4l-232 -352h353zM926 1405l501 -1350q7 -20 -6.5 -37.5t-36.5 -17.5h-262q-27 0 -39 11t-24 44l-74 211h-575l-144 -211q-22 -33 -37.5 -44t-42.5 -11h-260q-23 0 -30.5 17.5t4.5 37.5l929 1350q4 5 10 14t8.5 12.5t7.5 9.5t7.5 8.5t6 5.5t7 4t7.5 1h6 q3 0 5.5 -0.5t5 -2.5t4 -3.5t3.5 -5t3.5 -6t3.5 -7.5t3.5 -8.5t4 -10.5t4.5 -11zM694 1597l-147 97q-30 22 -35.5 38t4.5 40l57 122q30 66 74 19l301 -283q71 -65 8 -65h-172q-47 0 -90 32z" />
<glyph unicode="&#xc1;" horiz-adv-x="1542" d="M801 901h-4l-232 -352h353zM926 1405l501 -1350q7 -20 -6.5 -37.5t-36.5 -17.5h-262q-27 0 -39 11t-24 44l-74 211h-575l-144 -211q-22 -33 -37.5 -44t-42.5 -11h-260q-23 0 -30.5 17.5t4.5 37.5l929 1350q4 5 10 14t8.5 12.5t7.5 9.5t7.5 8.5t6 5.5t7 4t7.5 1h6 q3 0 5.5 -0.5t5 -2.5t4 -3.5t3.5 -5t3.5 -6t3.5 -7.5t3.5 -8.5t4 -10.5t4.5 -11zM1227 1694l-148 -97q-43 -32 -90 -32h-172q-63 0 8 65l301 283q44 47 74 -19l57 -122q10 -24 5 -40t-35 -38z" />
<glyph unicode="&#xc2;" horiz-adv-x="1542" d="M801 901h-4l-232 -352h353zM926 1405l501 -1350q7 -20 -6.5 -37.5t-36.5 -17.5h-262q-27 0 -39 11t-24 44l-74 211h-575l-144 -211q-22 -33 -37.5 -44t-42.5 -11h-260q-23 0 -30.5 17.5t4.5 37.5l929 1350q4 5 10 14t8.5 12.5t7.5 9.5t7.5 8.5t6 5.5t7 4t7.5 1h6 q3 0 5.5 -0.5t5 -2.5t4 -3.5t3.5 -5t3.5 -6t3.5 -7.5t3.5 -8.5t4 -10.5t4.5 -11zM879 1933h135q24 -1 37.5 -13t29.5 -42l140 -258q24 -55 -33 -55h-123q-51 0 -72 55l-71 160l-121 -160q-40 -55 -92 -55h-123q-56 0 -13 55l218 258q47 53 88 55z" />
<glyph unicode="&#xc3;" horiz-adv-x="1542" d="M801 901h-4l-232 -352h353zM926 1405l501 -1350q7 -20 -6.5 -37.5t-36.5 -17.5h-262q-27 0 -39 11t-24 44l-74 211h-575l-144 -211q-22 -33 -37.5 -44t-42.5 -11h-260q-23 0 -30.5 17.5t4.5 37.5l929 1350q4 5 10 14t8.5 12.5t7.5 9.5t7.5 8.5t6 5.5t7 4t7.5 1h6 q3 0 5.5 -0.5t5 -2.5t4 -3.5t3.5 -5t3.5 -6t3.5 -7.5t3.5 -8.5t4 -10.5t4.5 -11zM1057 1833q18 0 42 20t38 45q16 29 29.5 35t43.5 -6l72 -35q30 -16 34.5 -28t-11.5 -43q-107 -195 -267 -195q-56 0 -89 10.5t-79 38.5q-14 8 -34.5 20.5t-29.5 17t-22.5 9t-27.5 4.5 q-18 0 -42 -20t-38 -45q-17 -28 -31 -33.5t-43 4.5l-72 35q-31 12 -35 26.5t13 45.5q106 194 266 194q56 0 89 -10.5t79 -38.5q13 -7 34.5 -20t30 -17.5t22.5 -9t28 -4.5z" />
<glyph unicode="&#xc4;" horiz-adv-x="1542" d="M801 901h-4l-232 -352h353zM926 1405l501 -1350q7 -20 -6.5 -37.5t-36.5 -17.5h-262q-27 0 -39 11t-24 44l-74 211h-575l-144 -211q-22 -33 -37.5 -44t-42.5 -11h-260q-23 0 -30.5 17.5t4.5 37.5l929 1350q4 5 10 14t8.5 12.5t7.5 9.5t7.5 8.5t6 5.5t7 4t7.5 1h6 q3 0 5.5 -0.5t5 -2.5t4 -3.5t3.5 -5t3.5 -6t3.5 -7.5t3.5 -8.5t4 -10.5t4.5 -11zM561 1747q11 62 59 104.5t109 42.5q62 0 97.5 -43t25.5 -104q-9 -61 -58.5 -102t-111.5 -41q-61 0 -95.5 40.5t-25.5 102.5zM997 1747q11 62 59 104.5t109 42.5q62 0 97.5 -43t25.5 -104 q-9 -61 -58.5 -102t-111.5 -41q-61 0 -95.5 40.5t-25.5 102.5z" />
<glyph unicode="&#xc5;" horiz-adv-x="1542" d="M801 901h-4l-232 -352h353zM926 1405l501 -1350q7 -20 -6.5 -37.5t-36.5 -17.5h-262q-27 0 -39 11t-24 44l-74 211h-575l-144 -211q-22 -33 -37.5 -44t-42.5 -11h-260q-23 0 -30.5 17.5t4.5 37.5l929 1350q4 5 10 14t8.5 12.5t7.5 9.5t7.5 8.5t6 5.5t7 4t7.5 1h6 q3 0 5.5 -0.5t5 -2.5t4 -3.5t3.5 -5t3.5 -6t3.5 -7.5t3.5 -8.5t4 -10.5t4.5 -11zM897 1565q-99 0 -156.5 68.5t-40.5 166.5q15 98 95 167t178 69q97 0 155 -69t43 -167q-17 -98 -97 -166.5t-177 -68.5zM922 1710q35 0 60 27.5t32 62.5q5 34 -12.5 61t-53.5 27t-61.5 -27 t-30.5 -61q-6 -33 12 -61.5t54 -28.5z" />
<glyph unicode="&#xc6;" horiz-adv-x="2045" d="M799 0q-32 0 -42 11.5t-5 43.5l34 211h-368l-150 -211q-25 -34 -41.5 -44.5t-44.5 -10.5h-254q-23 0 -30.5 17.5t4.5 37.5l972 1323q16 22 23 31t16.5 17t18.5 8h1055q32 0 42 -12t5 -44l-29 -172q-4 -32 -17.5 -43.5t-45.5 -11.5h-652l-45 -289h598q32 0 41.5 -11.5 t3.5 -43.5l-26 -172q-4 -32 -18 -43.5t-46 -11.5h-598l-47 -297h651q32 0 42 -12t5 -44l-28 -172q-4 -32 -18 -43.5t-46 -11.5h-960zM893 948l-279 -399h217z" />
<glyph unicode="&#xc7;" horiz-adv-x="1445" d="M559 -174l64 158q-168 29 -292 133t-180.5 262t-27.5 338q36 218 156.5 387.5t303 262.5t396.5 93q149 0 283.5 -57t218.5 -154q18 -25 14 -38t-33 -40l-147 -139q-27 -24 -43 -26t-37 20q-112 145 -303 145q-116 0 -219 -64.5t-168 -167.5t-84 -222q-13 -85 1.5 -165.5 t53.5 -145.5t109.5 -104.5t162.5 -39.5q191 0 349 146q29 22 43 20t34 -27l105 -139q19 -27 19 -41.5t-25 -36.5q-112 -95 -262 -151.5t-297 -59.5l-15 -55q108 0 159 -55.5t36 -153.5q-15 -101 -88.5 -160t-196.5 -59q-86 0 -178 86q-29 26 2 57l41 43q18 18 28 18.5 t29 -11.5q66 -35 127 -35q64 0 72 61q5 31 -11.5 48.5t-51.5 17.5h-113q-52 0 -35 51z" />
<glyph unicode="&#xc8;" d="M1024 0h-930q-32 0 -42 11.5t-5 43.5l211 1323q4 32 18 44t46 12h929q32 0 42 -12t5 -44l-28 -172q-4 -32 -18 -43.5t-46 -11.5h-651l-45 -289h625q32 0 41.5 -11.5t3.5 -43.5l-27 -172q-4 -32 -17.5 -43.5t-45.5 -11.5h-625l-47 -297h651q32 0 42 -12t5 -44l-29 -172 q-4 -32 -17.5 -43.5t-45.5 -11.5zM670 1597l-115 97q-24 23 -24.5 38.5t18.5 39.5l94 122q51 64 82 19l211 -283q48 -65 -12 -65h-172q-45 0 -82 32z" />
<glyph unicode="&#xc9;" d="M1024 0h-930q-32 0 -42 11.5t-5 43.5l211 1323q4 32 18 44t46 12h929q32 0 42 -12t5 -44l-28 -172q-4 -32 -18 -43.5t-46 -11.5h-651l-45 -289h625q32 0 41.5 -11.5t3.5 -43.5l-27 -172q-4 -32 -17.5 -43.5t-45.5 -11.5h-625l-47 -297h651q32 0 42 -12t5 -44l-29 -172 q-4 -32 -17.5 -43.5t-45.5 -11.5zM1020 1694l-148 -97q-43 -32 -90 -32h-172q-63 0 8 65l302 283q43 46 73 -19l58 -122q10 -24 4.5 -40t-35.5 -38z" />
<glyph unicode="&#xca;" horiz-adv-x="1265" d="M758 1933h135q24 -1 38 -13.5t30 -41.5l139 -258q24 -55 -33 -55h-123q-51 0 -72 55l-71 160l-121 -160q-40 -55 -92 -55h-123q-55 0 -12 55l217 258q47 53 88 55zM1010 0h-930q-32 0 -42 11.5t-5 43.5l211 1323q5 32 18 44t45 12h930q32 0 42 -12t5 -44l-29 -172 q-4 -32 -17.5 -43.5t-45.5 -11.5h-651l-45 -289h624q32 0 41.5 -11.5t3.5 -43.5l-26 -172q-4 -32 -18 -43.5t-46 -11.5h-624l-48 -297h652q32 0 42 -12t5 -44l-29 -172q-4 -32 -17.5 -43.5t-45.5 -11.5z" />
<glyph unicode="&#xcb;" d="M1024 0h-930q-32 0 -42 11.5t-5 43.5l211 1323q4 32 18 44t46 12h929q32 0 42 -12t5 -44l-28 -172q-4 -32 -18 -43.5t-46 -11.5h-651l-45 -289h625q32 0 41.5 -11.5t3.5 -43.5l-27 -172q-4 -32 -17.5 -43.5t-45.5 -11.5h-625l-47 -297h651q32 0 42 -12t5 -44l-29 -172 q-4 -32 -17.5 -43.5t-45.5 -11.5zM463 1747q11 62 59 104.5t109 42.5q62 0 97.5 -43t25.5 -104q-9 -61 -58.5 -102t-111.5 -41q-61 0 -95.5 40.5t-25.5 102.5zM899 1747q11 62 59 104.5t109 42.5q62 0 97.5 -43t25.5 -104q-9 -61 -58.5 -102t-111.5 -41q-61 0 -95.5 40.5 t-25.5 102.5z" />
<glyph unicode="&#xcc;" horiz-adv-x="641" d="M47 55l211 1323q4 32 18 44t46 12h223q32 0 42 -12t5 -44l-211 -1323q-4 -32 -18 -43.5t-46 -11.5h-223q-32 0 -42 11.5t-5 43.5zM301 1597l-115 97q-24 23 -24.5 38.5t18.5 39.5l94 122q51 64 82 19l211 -283q48 -65 -12 -65h-172q-45 0 -82 32z" />
<glyph unicode="&#xcd;" horiz-adv-x="612" d="M33 55l211 1323q5 32 18 44t45 12h223q32 0 42.5 -12t5.5 -44l-211 -1323q-4 -32 -18 -43.5t-46 -11.5h-223q-32 0 -42 11.5t-5 43.5zM754 1694l-148 -97q-43 -32 -90 -32h-172q-63 0 8 65l301 283q44 47 74 -19l57 -122q10 -24 5 -40t-35 -38z" />
<glyph unicode="&#xce;" horiz-adv-x="612" d="M33 55l211 1323q5 32 18 44t45 12h223q32 0 42.5 -12t5.5 -44l-211 -1323q-4 -32 -18 -43.5t-46 -11.5h-223q-32 0 -42 11.5t-5 43.5zM426 1933h135q24 -1 38 -13.5t30 -41.5l139 -258q24 -55 -33 -55h-123q-50 0 -71 55l-72 160l-121 -160q-40 -55 -92 -55h-123 q-55 0 -12 55l217 258q47 53 88 55z" />
<glyph unicode="&#xcf;" horiz-adv-x="612" d="M33 55l211 1323q5 32 18 44t45 12h223q32 0 42.5 -12t5.5 -44l-211 -1323q-4 -32 -18 -43.5t-46 -11.5h-223q-32 0 -42 11.5t-5 43.5zM94 1747q11 62 59 104.5t109 42.5q62 0 97.5 -43t25.5 -104q-9 -61 -58.5 -102t-111.5 -41q-61 0 -95.5 40.5t-25.5 102.5zM530 1747 q11 62 59 104.5t109 42.5q62 0 97.5 -43t25.5 -104q-9 -61 -58.5 -102t-111.5 -41q-61 0 -95.5 40.5t-25.5 102.5z" />
<glyph unicode="&#xd0;" horiz-adv-x="1658" d="M106 858h173l83 520q4 32 18 44t46 12h524q149 0 276 -55t211 -150t121.5 -228.5t14.5 -283.5q-24 -150 -104 -283.5t-194.5 -228.5t-258.5 -150t-293 -55h-524q-32 0 -42 11.5t-5 43.5l86 537h-172q-32 0 -42 11.5t-6 43.5l25 156q4 32 17.5 43.5t45.5 11.5zM905 1157 h-243l-50 -299h219q32 0 42 -11.5t6 -43.5l-25 -156q-4 -32 -17.5 -43.5t-45.5 -11.5h-220l-51 -316h244q95 0 178.5 37.5t142 100t97.5 140.5t53 163q18 117 -10.5 215t-111 161.5t-208.5 63.5z" />
<glyph unicode="&#xd1;" horiz-adv-x="1587" d="M498 786l-117 -731q-4 -32 -18 -43.5t-46 -11.5h-223q-32 0 -42 11.5t-5 43.5l221 1387q1 10 5.5 14t15.5 4h20q19 0 37 -18l744 -785l114 721q4 32 18 44t46 12h223q32 0 42 -12t5 -44l-221 -1386q-3 -19 -21 -19h-20q-18 0 -37 19zM1079 1833q18 0 42 20t38 45 q16 29 30 35t44 -6l72 -35q30 -15 34 -27.5t-12 -43.5q-107 -195 -266 -195q-56 0 -89 10.5t-79 38.5q-13 7 -34.5 20t-30 17.5t-22.5 9t-28 4.5q-18 0 -42 -20t-38 -45q-18 -28 -30.5 -33.5t-42.5 4.5l-72 35q-31 12 -35.5 26.5t12.5 45.5q106 194 267 194q56 0 89 -10.5 t79 -38.5q14 -8 34.5 -20.5t29.5 -17t22.5 -9t27.5 -4.5z" />
<glyph unicode="&#xd2;" horiz-adv-x="1646" d="M86 717q35 218 155.5 387.5t303 262.5t395.5 93q148 0 275 -59t210.5 -159t121 -237.5t14.5 -287.5q-24 -150 -105 -288t-196 -237.5t-261 -159t-294 -59.5t-275 59.5t-210 159t-120 237.5t-14 288zM424 717q-8 -68 -3.5 -133t30.5 -123.5t65 -102.5t99.5 -70t134.5 -26 q95 0 179 39.5t143 104.5t98 145.5t53 165.5q8 69 4.5 134.5t-29 123.5t-64.5 101.5t-101 69t-138 25.5q-117 0 -220.5 -64.5t-168 -167.5t-82.5 -222zM844 1597l-115 97q-24 23 -24.5 38.5t18.5 39.5l94 122q51 64 82 19l211 -283q48 -65 -12 -65h-172q-45 0 -82 32z" />
<glyph unicode="&#xd3;" horiz-adv-x="1646" d="M86 717q35 218 155.5 387.5t303 262.5t395.5 93q148 0 275 -59t210.5 -159t121 -237.5t14.5 -287.5q-24 -150 -105 -288t-196 -237.5t-261 -159t-294 -59.5t-275 59.5t-210 159t-120 237.5t-14 288zM424 717q-8 -68 -3.5 -133t30.5 -123.5t65 -102.5t99.5 -70t134.5 -26 q95 0 179 39.5t143 104.5t98 145.5t53 165.5q8 69 4.5 134.5t-29 123.5t-64.5 101.5t-101 69t-138 25.5q-117 0 -220.5 -64.5t-168 -167.5t-82.5 -222zM1264 1694l-148 -97q-43 -32 -90 -32h-172q-63 0 8 65l301 283q44 47 74 -19l57 -122q10 -24 5 -40t-35 -38z" />
<glyph unicode="&#xd4;" horiz-adv-x="1646" d="M86 717q35 218 155.5 387.5t303 262.5t395.5 93q148 0 275 -59t210.5 -159t121 -237.5t14.5 -287.5q-24 -150 -105 -288t-196 -237.5t-261 -159t-294 -59.5t-275 59.5t-210 159t-120 237.5t-14 288zM424 717q-8 -68 -3.5 -133t30.5 -123.5t65 -102.5t99.5 -70t134.5 -26 q95 0 179 39.5t143 104.5t98 145.5t53 165.5q8 69 4.5 134.5t-29 123.5t-64.5 101.5t-101 69t-138 25.5q-117 0 -220.5 -64.5t-168 -167.5t-82.5 -222zM971 1933h135q24 -1 38 -13.5t30 -41.5l139 -258q24 -55 -33 -55h-123q-51 0 -72 55l-71 160l-121 -160q-40 -55 -92 -55 h-123q-55 0 -12 55l217 258q47 53 88 55z" />
<glyph unicode="&#xd5;" horiz-adv-x="1646" d="M86 717q35 218 155.5 387.5t303 262.5t395.5 93q148 0 275 -59t210.5 -159t121 -237.5t14.5 -287.5q-24 -150 -105 -288t-196 -237.5t-261 -159t-294 -59.5t-275 59.5t-210 159t-120 237.5t-14 288zM424 717q-8 -68 -3.5 -133t30.5 -123.5t65 -102.5t99.5 -70t134.5 -26 q95 0 179 39.5t143 104.5t98 145.5t53 165.5q8 69 4.5 134.5t-29 123.5t-64.5 101.5t-101 69t-138 25.5q-117 0 -220.5 -64.5t-168 -167.5t-82.5 -222zM1145 1833q18 0 42 20t38 45q16 29 29.5 35t43.5 -6l72 -35q30 -16 34.5 -28t-11.5 -43q-107 -195 -267 -195 q-56 0 -89 10.5t-79 38.5q-14 8 -34.5 20.5t-29.5 17t-22.5 9t-27.5 4.5q-18 0 -42 -20t-38 -45q-17 -28 -31 -33.5t-43 4.5l-72 35q-31 12 -35 26.5t13 45.5q106 194 266 194q56 0 89 -10.5t79 -38.5q13 -7 34.5 -20t30 -17.5t22.5 -9t28 -4.5z" />
<glyph unicode="&#xd6;" horiz-adv-x="1646" d="M86 717q35 218 155.5 387.5t303 262.5t395.5 93q148 0 275 -59t210.5 -159t121 -237.5t14.5 -287.5q-24 -150 -105 -288t-196 -237.5t-261 -159t-294 -59.5t-275 59.5t-210 159t-120 237.5t-14 288zM424 717q-8 -68 -3.5 -133t30.5 -123.5t65 -102.5t99.5 -70t134.5 -26 q95 0 179 39.5t143 104.5t98 145.5t53 165.5q8 69 4.5 134.5t-29 123.5t-64.5 101.5t-101 69t-138 25.5q-117 0 -220.5 -64.5t-168 -167.5t-82.5 -222zM641 1747q11 62 59 104.5t109 42.5q62 0 97.5 -43t25.5 -104q-9 -61 -58.5 -102t-111.5 -41q-61 0 -95.5 40.5 t-25.5 102.5zM1077 1747q11 62 59 104.5t109 42.5q62 0 97.5 -43t25.5 -104q-9 -61 -58.5 -102t-111.5 -41q-61 0 -95.5 40.5t-25.5 102.5z" />
<glyph unicode="&#xd7;" horiz-adv-x="954" d="M592 270l-143 172l-201 -172q-26 -23 -42 -23t-36 23l-84 101q-20 22 -17.5 38t29.5 40l201 172l-145 172q-20 23 -18 38.5t30 38.5l117 101q26 23 41.5 23t35.5 -23l144 -172l201 172q26 23 42 23t35 -23l84 -101q19 -23 16.5 -38.5t-28.5 -38.5l-199 -172l144 -172 q20 -24 17 -40t-30 -38l-116 -101q-25 -23 -41.5 -23t-36.5 23z" />
<glyph unicode="&#xd8;" horiz-adv-x="1646" d="M86 717q35 218 155 387.5t302.5 262.5t396.5 93q122 0 240 -43l39 60q15 24 31 34.5t46 10.5h99q77 0 39 -56l-95 -141q129 -104 190 -264t32 -344q-24 -150 -105 -288t-196 -237.5t-261 -159t-294 -59.5q-136 0 -248 47l-43 -63q-15 -24 -31.5 -34.5t-46.5 -10.5h-98 q-76 0 -39 55l98 148q-126 103 -183 261t-28 341zM1223 717q30 207 -70 334l-520 -770q55 -19 117 -19q95 0 179 39.5t143 104.5t98 145.5t53 165.5zM424 717q-27 -200 61 -324l519 764q-61 14 -109 14q-117 0 -220.5 -64.5t-168 -167.5t-82.5 -222z" />
<glyph unicode="&#xd9;" horiz-adv-x="1486" d="M627 -27q-127 0 -232 40t-179 115t-105 194t-7 268l125 788q4 32 18 44t46 12h223q32 0 42 -12t5 -44l-123 -778q-56 -338 232 -338q146 0 230 84.5t112 253.5l123 778q5 32 18 44t45 12h223q32 0 42 -12t5 -44l-124 -788q-24 -149 -93 -268t-166.5 -194t-215 -115 t-244.5 -40zM729 1597l-115 97q-24 23 -24.5 38.5t18.5 39.5l94 122q51 64 82 19l211 -283q48 -65 -12 -65h-172q-45 0 -82 32z" />
<glyph unicode="&#xda;" horiz-adv-x="1486" d="M627 -27q-127 0 -232 40t-179 115t-105 194t-7 268l125 788q4 32 18 44t46 12h223q32 0 42 -12t5 -44l-123 -778q-56 -338 232 -338q146 0 230 84.5t112 253.5l123 778q5 32 18 44t45 12h223q32 0 42 -12t5 -44l-124 -788q-24 -149 -93 -268t-166.5 -194t-215 -115 t-244.5 -40zM1102 1694l-148 -97q-43 -32 -90 -32h-172q-63 0 8 65l301 283q44 47 74 -19l58 -122q10 -24 4.5 -40t-35.5 -38z" />
<glyph unicode="&#xdb;" horiz-adv-x="1486" d="M627 -27q-127 0 -232 40t-179 115t-105 194t-7 268l125 788q4 32 18 44t46 12h223q32 0 42 -12t5 -44l-123 -778q-56 -338 232 -338q146 0 230 84.5t112 253.5l123 778q5 32 18 44t45 12h223q32 0 42 -12t5 -44l-124 -788q-24 -149 -93 -268t-166.5 -194t-215 -115 t-244.5 -40zM856 1933h135q24 -1 38 -13.5t30 -41.5l139 -258q24 -55 -33 -55h-123q-50 0 -71 55l-72 160l-121 -160q-40 -55 -92 -55h-123q-55 0 -12 55l217 258q47 53 88 55z" />
<glyph unicode="&#xdc;" horiz-adv-x="1486" d="M627 -27q-127 0 -232 40t-179 115t-105 194t-7 268l125 788q4 32 18 44t46 12h223q32 0 42 -12t5 -44l-123 -778q-56 -338 232 -338q146 0 230 84.5t112 253.5l123 778q5 32 18 44t45 12h223q32 0 42 -12t5 -44l-124 -788q-24 -149 -93 -268t-166.5 -194t-215 -115 t-244.5 -40zM530 1747q11 62 59 104.5t109 42.5q62 0 97.5 -43t25.5 -104q-9 -61 -58.5 -102t-111.5 -41q-61 0 -95.5 40.5t-25.5 102.5zM967 1747q11 62 59 104.5t109 42.5q62 0 97 -43t25 -104q-9 -61 -58.5 -102t-111.5 -41q-61 0 -95 40.5t-25 102.5z" />
<glyph unicode="&#xdd;" horiz-adv-x="1386" d="M504 520l-375 858q-12 32 -3.5 44t38.5 12h256q26 0 37.5 -11t25.5 -45l228 -573l417 573q25 34 39.5 45t40.5 11h250q31 0 36 -12t-17 -44l-650 -858l-73 -465q-4 -32 -18 -43.5t-46 -11.5h-213q-32 0 -42 11.5t-5 43.5zM1057 1694l-148 -97q-43 -32 -90 -32h-172 q-63 0 8 65l301 283q44 47 74 -19l57 -122q10 -24 5 -40t-35 -38z" />
<glyph unicode="&#xde;" horiz-adv-x="1273" d="M653 0h-305l-57 -362q-4 -32 -18 -44t-46 -12h-202q-31 0 -40.5 12t-4.5 44l278 1767q4 32 18 43.5t46 11.5h202q32 0 42 -11.5t5 -43.5l-57 -363h305q132 0 229.5 -69.5t139.5 -188.5t20 -262q-37 -224 -195 -373t-360 -149zM393 279h232q99 0 176.5 65t95.5 178 t-39 180.5t-156 67.5h-231z" />
<glyph unicode="&#xdf;" horiz-adv-x="1339" d="M692 856h13q101 0 158 42.5t67 105.5q12 80 -29 116.5t-147 36.5q-113 0 -168.5 -36.5t-67.5 -116.5l-65 -414l-86 -535q-4 -32 -18 -43.5t-46 -11.5h-219q-32 0 -42 11.5t-5 43.5l156 979q14 87 57 157t102 114.5t133.5 74t146.5 42t146 12.5h29q74 0 142.5 -12.5 t133 -42t109.5 -74t66.5 -114.5t7.5 -157q-29 -186 -222 -297v-2q41 -21 74 -48.5t60.5 -68t38 -96.5t0.5 -123q-17 -108 -77.5 -188.5t-147 -124.5t-177 -65t-184.5 -21h-137q-32 0 -42 11.5t-6 43.5l27 166q4 32 18 43.5t46 11.5h125q107 0 161 37t66 117 q11 69 -33.5 114.5t-142.5 45.5h-62q-32 0 -42 11.5t-5 43.5l25 156q4 32 17.5 43.5t45.5 11.5z" />
<glyph unicode="&#xe0;" horiz-adv-x="1159" d="M295 772q-30 -4 -39 6.5t-12 44.5l-15 138q-2 32 6.5 45t36.5 20q35 9 156 24t213 15q93 0 163.5 -12t118 -32.5t78 -56t46 -73.5t18.5 -94t-1.5 -108.5t-16.5 -125.5l-82 -508q-4 -32 -18 -43.5t-46 -11.5h-117q-23 0 -34.5 11.5t-18.5 43.5l-12 51q-35 -25 -47.5 -34 t-53.5 -32t-73.5 -33.5t-86 -20t-112.5 -9.5q-53 0 -101 13t-89.5 40.5t-70 67t-40 97.5t-0.5 127q17 106 84 182.5t156.5 111.5t189.5 35q55 0 134.5 -11t131.5 -28q10 64 4 105.5t-44 61.5t-117 20q-127 0 -289 -27zM520 434q-79 0 -117.5 -34t-46.5 -78q-6 -37 23 -74 t106 -37q90 0 207 102l15 88q-128 33 -187 33zM555 1206l-115 97q-24 23 -24.5 38t18.5 39l94 123q51 64 82 19l211 -283q48 -65 -12 -65h-172q-45 0 -82 32z" />
<glyph unicode="&#xe1;" horiz-adv-x="1159" d="M295 772q-30 -4 -39 6.5t-12 44.5l-15 138q-2 32 6.5 45t36.5 20q35 9 156 24t213 15q93 0 163.5 -12t118 -32.5t78 -56t46 -73.5t18.5 -94t-1.5 -108.5t-16.5 -125.5l-82 -508q-4 -32 -18 -43.5t-46 -11.5h-117q-23 0 -34.5 11.5t-18.5 43.5l-12 51q-35 -25 -47.5 -34 t-53.5 -32t-73.5 -33.5t-86 -20t-112.5 -9.5q-53 0 -101 13t-89.5 40.5t-70 67t-40 97.5t-0.5 127q17 106 84 182.5t156.5 111.5t189.5 35q55 0 134.5 -11t131.5 -28q10 64 4 105.5t-44 61.5t-117 20q-127 0 -289 -27zM520 434q-79 0 -117.5 -34t-46.5 -78q-6 -37 23 -74 t106 -37q90 0 207 102l15 88q-128 33 -187 33zM885 1303l-148 -97q-43 -32 -90 -32h-172q-63 0 8 65l301 283q44 47 74 -19l57 -123q10 -24 5 -39.5t-35 -37.5z" />
<glyph unicode="&#xe2;" horiz-adv-x="1159" d="M295 772q-30 -4 -39 6.5t-12 44.5l-15 138q-2 32 6.5 45t36.5 20q35 9 156 24t213 15q93 0 163.5 -12t118 -32.5t78 -56t46 -73.5t18.5 -94t-1.5 -108.5t-16.5 -125.5l-82 -508q-4 -32 -18 -43.5t-46 -11.5h-117q-23 0 -34.5 11.5t-18.5 43.5l-12 51q-35 -25 -47.5 -34 t-53.5 -32t-73.5 -33.5t-86 -20t-112.5 -9.5q-53 0 -101 13t-89.5 40.5t-70 67t-40 97.5t-0.5 127q17 106 84 182.5t156.5 111.5t189.5 35q55 0 134.5 -11t131.5 -28q10 64 4 105.5t-44 61.5t-117 20q-127 0 -289 -27zM520 434q-79 0 -117.5 -34t-46.5 -78q-6 -37 23 -74 t106 -37q90 0 207 102l15 88q-128 33 -187 33zM639 1542h135q24 -1 38 -13.5t30 -41.5l139 -258q24 -55 -33 -55h-123q-50 0 -71 55l-72 160l-121 -160q-40 -55 -92 -55h-123q-55 0 -12 55l217 258q47 53 88 55z" />
<glyph unicode="&#xe3;" horiz-adv-x="1159" d="M295 772q-30 -4 -39 6.5t-12 44.5l-15 138q-2 32 6.5 45t36.5 20q35 9 156 24t213 15q93 0 163.5 -12t118 -32.5t78 -56t46 -73.5t18.5 -94t-1.5 -108.5t-16.5 -125.5l-82 -508q-4 -32 -18 -43.5t-46 -11.5h-117q-23 0 -34.5 11.5t-18.5 43.5l-12 51q-35 -25 -47.5 -34 t-53.5 -32t-73.5 -33.5t-86 -20t-112.5 -9.5q-53 0 -101 13t-89.5 40.5t-70 67t-40 97.5t-0.5 127q17 106 84 182.5t156.5 111.5t189.5 35q55 0 134.5 -11t131.5 -28q10 64 4 105.5t-44 61.5t-117 20q-127 0 -289 -27zM520 434q-79 0 -117.5 -34t-46.5 -78q-6 -37 23 -74 t106 -37q90 0 207 102l15 88q-128 33 -187 33zM811 1442q18 0 42 20t38 45q16 29 30 35t44 -6l71 -35q30 -16 34.5 -28t-11.5 -43q-107 -195 -266 -195q-56 0 -89 10.5t-79 38.5q-13 7 -34.5 20t-30 17.5t-22.5 9t-28 4.5q-18 0 -42 -20t-38 -45q-17 -28 -31 -33.5t-43 4.5 l-71 35q-31 12 -35.5 26.5t12.5 45.5q106 194 266 194q56 0 89 -10.5t79 -38.5q13 -7 34.5 -20t30 -17.5t22.5 -9t28 -4.5z" />
<glyph unicode="&#xe4;" horiz-adv-x="1159" d="M295 772q-30 -4 -39 6.5t-12 44.5l-15 138q-2 32 6.5 45t36.5 20q35 9 156 24t213 15q93 0 163.5 -12t118 -32.5t78 -56t46 -73.5t18.5 -94t-1.5 -108.5t-16.5 -125.5l-82 -508q-4 -32 -18 -43.5t-46 -11.5h-117q-23 0 -34.5 11.5t-18.5 43.5l-12 51q-35 -25 -47.5 -34 t-53.5 -32t-73.5 -33.5t-86 -20t-112.5 -9.5q-53 0 -101 13t-89.5 40.5t-70 67t-40 97.5t-0.5 127q17 106 84 182.5t156.5 111.5t189.5 35q55 0 134.5 -11t131.5 -28q10 64 4 105.5t-44 61.5t-117 20q-127 0 -289 -27zM520 434q-79 0 -117.5 -34t-46.5 -78q-6 -37 23 -74 t106 -37q90 0 207 102l15 88q-128 33 -187 33zM328 1356q11 62 59 104.5t109 42.5q62 0 97 -43t25 -104q-9 -61 -58 -102.5t-111 -41.5q-61 0 -95.5 41t-25.5 103zM764 1356q11 62 59 104.5t109 42.5q62 0 97.5 -43t25.5 -104q-9 -61 -58.5 -102.5t-111.5 -41.5 q-61 0 -95.5 41t-25.5 103z" />
<glyph unicode="&#xe5;" horiz-adv-x="1159" d="M295 772q-30 -4 -39 6.5t-12 44.5l-15 138q-2 32 6.5 45t36.5 20q35 9 156 24t213 15q93 0 163.5 -12t118 -32.5t78 -56t46 -73.5t18.5 -94t-1.5 -108.5t-16.5 -125.5l-82 -508q-4 -32 -18 -43.5t-46 -11.5h-117q-23 0 -34.5 11.5t-18.5 43.5l-12 51q-35 -25 -47.5 -34 t-53.5 -32t-73.5 -33.5t-86 -20t-112.5 -9.5q-53 0 -101 13t-89.5 40.5t-70 67t-40 97.5t-0.5 127q17 106 84 182.5t156.5 111.5t189.5 35q55 0 134.5 -11t131.5 -28q10 64 4 105.5t-44 61.5t-117 20q-127 0 -289 -27zM520 434q-79 0 -117.5 -34t-46.5 -78q-6 -37 23 -74 t106 -37q90 0 207 102l15 88q-128 33 -187 33zM662 1174q-99 0 -156.5 68.5t-40.5 166.5q15 98 94.5 167t177.5 69q97 0 155.5 -69t43.5 -167q-17 -98 -97 -166.5t-177 -68.5zM686 1319q35 0 60 27.5t32 62.5q5 34 -12 61t-53 27t-61.5 -27t-30.5 -61q-7 -33 11 -61.5 t54 -28.5z" />
<glyph unicode="&#xe6;" horiz-adv-x="1867" d="M764 612q16 103 -19 145t-153 42q-127 0 -289 -27q-24 -3 -36 8t-15 41l-14 140q-2 32 6.5 45t36.5 20q34 8 160 23.5t218 15.5q113 0 181 -27.5t131 -109.5q103 74 196.5 105.5t208.5 31.5q73 0 136.5 -18.5t111 -51.5t84.5 -77.5t59.5 -97t33.5 -109.5t9 -115.5 t-16 -114.5l-2 -8q-8 -30 -19 -40.5t-40 -10.5h-678q14 -79 70.5 -128.5t138.5 -49.5q116 0 245 53q25 10 38 13t23.5 -0.5t18.5 -16.5l64 -100q16 -25 17 -38t-17 -32q-81 -69 -203.5 -107.5t-247.5 -38.5q-129 0 -215 56.5t-135 144.5q-86 -72 -226.5 -136.5t-277.5 -64.5 q-67 0 -125.5 19.5t-105 58.5t-67 105.5t-7.5 152.5q27 163 144 250.5t272 87.5q58 0 156.5 -11t148.5 -28zM715 313l14 88q-128 33 -225 33q-80 0 -124.5 -34t-51.5 -78q-5 -13 -0.5 -32t13.5 -36.5t36.5 -30t68.5 -12.5q54 0 137 29.5t132 72.5zM1094 621h403 q-13 190 -168 190q-162 0 -235 -190z" />
<glyph unicode="&#xe7;" horiz-adv-x="1075" d="M406 -170l63 158q-120 23 -208 99t-127 189.5t-19 243.5q23 151 115.5 277t228.5 197t284 71q222 0 355 -154q13 -19 9.5 -28.5t-30.5 -34.5l-119 -113q-30 -26 -43.5 -29t-35.5 17q-59 63 -179 63q-98 0 -178.5 -75.5t-97.5 -190.5t39 -189.5t153 -74.5q120 0 199 63 q27 20 41 17t35 -29l84 -112q18 -25 18.5 -35t-18.5 -29q-170 -145 -377 -154l-12 -55q108 0 158.5 -55.5t35.5 -153.5q-15 -101 -88 -160t-196 -59q-89 0 -181 86q-24 24 4 58l39 43q17 17 29 17.5t31 -11.5q66 -35 125 -35q62 0 73 61q5 31 -11.5 48.5t-51.5 17.5h-113 q-54 0 -34 51z" />
<glyph unicode="&#xe8;" horiz-adv-x="1198" d="M983 193l-63 100q-6 9 -11.5 13.5t-9 7t-11.5 1t-11.5 -2.5t-17 -6.5t-19.5 -8.5q-128 -53 -248 -53q-81 0 -137 49.5t-70 128.5h680q31 0 42.5 12t16.5 47q14 76 10.5 149t-19 138t-50.5 119.5t-83.5 94t-119 61.5t-155.5 22q-148 0 -284 -71t-229.5 -197t-117.5 -277 q-23 -147 30.5 -272t169 -198t267.5 -73q118 0 238.5 38.5t201.5 107.5q18 19 17 32t-17 38zM827 621h-403q15 35 30.5 62t43 59.5t69 50.5t92.5 18q155 0 168 -190zM639 1206l-115 97q-24 23 -24.5 38t18.5 39l94 123q51 64 82 19l211 -283q48 -65 -12 -65h-172 q-45 0 -82 32z" />
<glyph unicode="&#xe9;" horiz-adv-x="1198" d="M920 293l63 -100q16 -25 17 -38t-17 -32q-81 -69 -201.5 -107.5t-238.5 -38.5q-152 0 -267.5 73t-169 198t-30.5 272q24 151 117.5 277t229.5 197t284 71q85 0 155.5 -22t119 -61.5t83.5 -94t50.5 -119.5t19 -138t-10.5 -149q-5 -35 -16.5 -47t-42.5 -12h-680 q14 -79 70 -128.5t137 -49.5q120 0 248 53l17.5 7.5t14.5 6t11 3.5t10.5 1t8.5 -3t9 -6.5t9 -12.5zM424 621h403q-13 190 -168 190q-51 0 -92.5 -18t-69 -50.5t-43 -59.5t-30.5 -62zM1016 1303l-148 -97q-43 -32 -90 -32h-172q-63 0 8 65l301 283q44 47 74 -19l58 -123 q10 -24 4.5 -39t-35.5 -38z" />
<glyph unicode="&#xea;" horiz-adv-x="1198" d="M983 193l-63 100q-6 9 -11.5 13.5t-9 7t-11.5 1t-11.5 -2.5t-17 -6.5t-19.5 -8.5q-128 -53 -248 -53q-81 0 -137 49.5t-70 128.5h680q31 0 42.5 12t16.5 47q14 76 10.5 149t-19 138t-50.5 119.5t-83.5 94t-119 61.5t-155.5 22q-148 0 -284 -71t-229.5 -197t-117.5 -277 q-23 -147 30.5 -272t169 -198t267.5 -73q118 0 238.5 38.5t201.5 107.5q18 19 17 32t-17 38zM827 621h-403q15 35 30.5 62t43 59.5t69 50.5t92.5 18q155 0 168 -190zM737 1542h135q24 -1 38 -13.5t30 -41.5l139 -258q24 -55 -32 -55h-123q-51 0 -72 55l-72 160l-121 -160 q-40 -55 -92 -55h-123q-55 0 -12 55l217 258q47 53 88 55z" />
<glyph unicode="&#xeb;" horiz-adv-x="1198" d="M983 193l-63 100q-6 9 -11.5 13.5t-9 7t-11.5 1t-11.5 -2.5t-17 -6.5t-19.5 -8.5q-128 -53 -248 -53q-81 0 -137 49.5t-70 128.5h680q31 0 42.5 12t16.5 47q14 76 10.5 149t-19 138t-50.5 119.5t-83.5 94t-119 61.5t-155.5 22q-148 0 -284 -71t-229.5 -197t-117.5 -277 q-23 -147 30.5 -272t169 -198t267.5 -73q118 0 238.5 38.5t201.5 107.5q18 19 17 32t-17 38zM827 621h-403q15 35 30.5 62t43 59.5t69 50.5t92.5 18q155 0 168 -190zM414 1356q11 62 59 104.5t109 42.5q62 0 97.5 -43t25.5 -104q-9 -61 -58.5 -102.5t-111.5 -41.5 q-61 0 -95.5 41t-25.5 103zM850 1356q11 62 59 104.5t109 42.5q62 0 97.5 -43t25.5 -104q-9 -61 -58.5 -102.5t-111.5 -41.5q-61 0 -95.5 41t-25.5 103z" />
<glyph unicode="&#xec;" horiz-adv-x="608" d="M76 55l149 932q4 32 18 43.5t46 11.5h203q32 0 42 -11.5t5 -43.5l-150 -932q-4 -32 -17.5 -43.5t-45.5 -11.5h-203q-32 0 -42 11.5t-5 43.5zM244 1206l-115 97q-24 23 -24.5 38t18.5 39l94 123q51 64 82 19l211 -283q48 -65 -12 -65h-172q-45 0 -82 32z" />
<glyph unicode="&#xed;" horiz-adv-x="614" d="M68 55l149 932q4 32 18 43.5t46 11.5h202q32 0 42 -11.5t5 -43.5l-149 -932q-4 -32 -18 -43.5t-46 -11.5h-202q-32 0 -42 11.5t-5 43.5zM711 1303l-148 -97q-43 -32 -90 -32h-172q-63 0 8 65l301 283q44 47 74 -19l57 -123q10 -24 5 -39.5t-35 -37.5z" />
<glyph unicode="&#xee;" horiz-adv-x="598" d="M68 55l149 932q4 32 18 43.5t46 11.5h202q32 0 42 -11.5t5 -43.5l-149 -932q-4 -32 -18 -43.5t-46 -11.5h-202q-32 0 -42 11.5t-5 43.5zM381 1542h135q24 -1 38 -13.5t30 -41.5l139 -258q24 -55 -33 -55h-123q-50 0 -71 55l-72 160l-121 -160q-40 -55 -92 -55h-123 q-55 0 -12 55l217 258q47 53 88 55z" />
<glyph unicode="&#xef;" horiz-adv-x="598" d="M68 55l149 932q4 32 18 43.5t46 11.5h202q32 0 42 -11.5t5 -43.5l-149 -932q-4 -32 -18 -43.5t-46 -11.5h-202q-32 0 -42 11.5t-5 43.5zM63 1356q11 62 59 104.5t109 42.5q62 0 97.5 -43t25.5 -104q-9 -61 -58.5 -102.5t-111.5 -41.5q-61 0 -95.5 41t-25.5 103zM500 1356 q11 62 59 104.5t109 42.5q62 0 97.5 -43t25.5 -104q-9 -61 -58.5 -102.5t-111.5 -41.5q-61 0 -95.5 41t-25.5 103z" />
<glyph unicode="&#xf0;" horiz-adv-x="1265" d="M1026 1468l-61 -82q142 -88 187 -269.5t7 -420.5q-20 -127 -52 -230t-87 -197t-129.5 -157.5t-183.5 -101t-244 -37.5q-153 0 -263 70t-156.5 187t-25.5 257q34 214 178 331.5t336 117.5q78 0 136 -12t93 -34t53.5 -41t33.5 -44q17 112 -3.5 195.5t-72.5 127.5l-90 -118 q-21 -28 -37 -33t-41 12l-20 12q-25 15 -26.5 32.5t20.5 43.5l69 94q-44 0 -96 -10q-32 -7 -41.5 7.5t-3.5 48.5l26 174q5 33 19.5 47.5t46.5 17.5q46 4 72 4q96 0 176 -22l74 100q20 29 36.5 33t40.5 -12l21 -15q25 -15 27 -30.5t-19 -45.5zM526 252q99 0 166.5 59 t81.5 154q15 91 -33.5 151t-146.5 60q-90 0 -162.5 -61t-87.5 -150q-14 -95 36 -154t146 -59z" />
<glyph unicode="&#xf1;" horiz-adv-x="1226" d="M473 913l-29 74q-13 33 -23.5 44t-33.5 11h-98q-32 0 -46 -11.5t-18 -43.5l-73 -467l-74 -465q-6 -32 3.5 -43.5t41.5 -11.5h203q32 0 45.5 11.5t19.5 43.5l74 465q22 143 68 204.5t139 61.5q90 0 114 -61t2 -205l-73 -465q-6 -32 3.5 -43.5t41.5 -11.5h203 q32 0 45.5 11.5t19.5 43.5l82 527q20 112 12.5 195t-30 138t-68 88.5t-100 47.5t-127.5 14q-99 0 -169.5 -37.5t-154.5 -114.5zM881 1442q18 0 42 20t38 45q16 29 29.5 35t43.5 -6l72 -35q30 -15 34 -27.5t-12 -43.5q-107 -195 -266 -195q-56 0 -89 10.5t-79 38.5 q-14 8 -34.5 20.5t-29.5 17t-22.5 9t-27.5 4.5q-18 0 -42 -20t-38 -45q-17 -28 -31 -33.5t-43 4.5l-72 35q-31 12 -35 26.5t13 45.5q106 194 266 194q56 0 89 -10.5t79 -38.5q13 -7 34.5 -20t30 -17.5t22.5 -9t28 -4.5z" />
<glyph unicode="&#xf2;" horiz-adv-x="1245" d="M76 520q24 151 118 277t230.5 197t284.5 71q147 0 260.5 -73.5t166.5 -199t29 -272.5q-23 -147 -116 -272t-230 -198t-284 -73t-261 73t-167.5 198t-30.5 272zM580 250q96 0 175.5 77t98.5 193q18 115 -37.5 190.5t-152.5 75.5t-178 -75.5t-99 -190.5t39 -192.5 t154 -77.5zM602 1206l-115 97q-24 23 -24.5 38t18.5 39l94 123q51 64 82 19l211 -283q48 -65 -12 -65h-172q-45 0 -82 32z" />
<glyph unicode="&#xf3;" horiz-adv-x="1245" d="M76 520q24 151 118 277t230.5 197t284.5 71q147 0 260.5 -73.5t166.5 -199t29 -272.5q-23 -147 -116 -272t-230 -198t-284 -73t-261 73t-167.5 198t-30.5 272zM580 250q96 0 175.5 77t98.5 193q18 115 -37.5 190.5t-152.5 75.5t-178 -75.5t-99 -190.5t39 -192.5 t154 -77.5zM1018 1303l-148 -97q-43 -32 -90 -32h-172q-63 0 8 65l302 283q43 46 73 -19l58 -123q10 -24 4.5 -39t-35.5 -38z" />
<glyph unicode="&#xf4;" horiz-adv-x="1245" d="M76 520q24 151 118 277t230.5 197t284.5 71q147 0 260.5 -73.5t166.5 -199t29 -272.5q-23 -147 -116 -272t-230 -198t-284 -73t-261 73t-167.5 198t-30.5 272zM580 250q96 0 175.5 77t98.5 193q18 115 -37.5 190.5t-152.5 75.5t-178 -75.5t-99 -190.5t39 -192.5 t154 -77.5zM735 1542h135q24 -1 38 -13.5t30 -41.5l139 -258q24 -55 -33 -55h-122q-51 0 -72 55l-72 160l-121 -160q-40 -55 -92 -55h-123q-55 0 -12 55l217 258q47 53 88 55z" />
<glyph unicode="&#xf5;" horiz-adv-x="1245" d="M76 520q24 151 118 277t230.5 197t284.5 71q147 0 260.5 -73.5t166.5 -199t29 -272.5q-23 -147 -116 -272t-230 -198t-284 -73t-261 73t-167.5 198t-30.5 272zM580 250q96 0 175.5 77t98.5 193q18 115 -37.5 190.5t-152.5 75.5t-178 -75.5t-99 -190.5t39 -192.5 t154 -77.5zM918 1442q18 0 41.5 20t37.5 45q16 29 30 35t44 -6l72 -35q30 -15 34 -27.5t-12 -43.5q-107 -195 -266 -195q-56 0 -89 10.5t-79 38.5q-13 7 -34.5 20t-30 17.5t-22.5 9t-28 4.5q-18 0 -41.5 -19.5t-37.5 -45.5q-17 -28 -31 -33.5t-43 4.5l-72 35 q-31 12 -35 26.5t13 45.5q106 194 266 194q56 0 89 -10.5t79 -38.5q13 -7 34.5 -20t30 -17.5t22.5 -9t28 -4.5z" />
<glyph unicode="&#xf6;" horiz-adv-x="1245" d="M76 520q24 151 118 277t230.5 197t284.5 71q147 0 260.5 -73.5t166.5 -199t29 -272.5q-23 -147 -116 -272t-230 -198t-284 -73t-261 73t-167.5 198t-30.5 272zM580 250q96 0 175.5 77t98.5 193q18 115 -37.5 190.5t-152.5 75.5t-178 -75.5t-99 -190.5t39 -192.5 t154 -77.5zM426 1356q11 62 59 104.5t109 42.5q62 0 97.5 -43t25.5 -104q-9 -61 -58.5 -102.5t-111.5 -41.5q-61 0 -95.5 41t-25.5 103zM862 1356q11 62 59 104.5t109 42.5q62 0 97.5 -43t25.5 -104q-9 -61 -58.5 -102.5t-111.5 -41.5q-61 0 -95.5 41t-25.5 103z" />
<glyph unicode="&#xf7;" horiz-adv-x="1177" d="M1022 514h-903q-32 0 -42 11.5t-5 43.5l18 111q4 32 18 43.5t46 11.5h903q32 0 42 -11.5t5 -43.5l-19 -111q-4 -32 -17.5 -43.5t-45.5 -11.5zM371 233q11 65 61.5 110.5t114.5 45.5q65 0 103 -46t28 -110q-9 -64 -62 -107.5t-118 -43.5q-64 0 -100 43t-27 108zM496 1014 q9 65 60.5 110t115.5 45t102 -45t29 -110q-10 -64 -62.5 -108t-117.5 -44q-64 0 -101 43.5t-26 108.5z" />
<glyph unicode="&#xf8;" horiz-adv-x="1232" d="M63 520q25 152 119 277.5t230 196.5t284 71q77 0 154 -25l31 50q17 25 32 35t45 10h99q37 0 48 -14t-7 -42l-88 -129q87 -77 125.5 -189.5t17.5 -240.5q-23 -147 -116.5 -272t-230.5 -198t-284 -73q-74 0 -155 23l-31 -47q-17 -25 -32.5 -35t-45.5 -10h-98q-78 0 -41 55 l86 129q-85 75 -124 187.5t-18 240.5zM567 250q96 0 176 77t99 193q14 84 -19 156l-284 -424q8 -2 28 -2zM375 520q-12 -88 16 -155l285 419q-4 0 -12.5 1t-12.5 1q-97 0 -177.5 -75.5t-98.5 -190.5z" />
<glyph unicode="&#xf9;" horiz-adv-x="1226" d="M752 129l28 -74q13 -32 24 -43.5t34 -11.5h98q32 0 45.5 11.5t17.5 43.5l74 467l74 465q5 33 -4 44t-41 11h-203q-32 0 -45.5 -11.5t-19.5 -43.5l-74 -465q-22 -143 -68 -204.5t-139 -61.5q-90 0 -114.5 61t-2.5 205l74 465q5 33 -4 44t-41 11h-203q-32 0 -45.5 -11.5 t-19.5 -43.5l-82 -526q-20 -112 -12.5 -195t30 -138.5t67.5 -89t100 -47.5t128 -14q99 0 169.5 37.5t154.5 114.5zM563 1206l-114 97q-24 23 -25 38t18 39l95 123q50 63 81 19l211 -283q48 -65 -12 -65h-172q-45 0 -82 32z" />
<glyph unicode="&#xfa;" horiz-adv-x="1226" d="M780 55l-28 74q-84 -77 -154.5 -114.5t-169.5 -37.5q-73 0 -128 14t-100 47.5t-67.5 89t-30 138.5t12.5 195l82 526q6 32 19.5 43.5t45.5 11.5h203q32 0 41 -11t4 -44l-74 -465q-22 -144 2.5 -205t114.5 -61q93 0 139 61.5t68 204.5l74 465q6 32 19.5 43.5t45.5 11.5h203 q32 0 41 -11t4 -44l-74 -465l-74 -467q-4 -32 -17.5 -43.5t-45.5 -11.5h-98q-23 0 -34 11.5t-24 43.5zM920 1303l-148 -97q-43 -32 -90 -32h-172q-63 0 8 65l301 283q44 47 74 -19l57 -123q10 -24 5 -39.5t-35 -37.5z" />
<glyph unicode="&#xfb;" horiz-adv-x="1226" d="M752 129l28 -74q13 -32 24 -43.5t34 -11.5h98q32 0 45.5 11.5t17.5 43.5l74 467l74 465q5 33 -4 44t-41 11h-203q-32 0 -45.5 -11.5t-19.5 -43.5l-74 -465q-22 -143 -68 -204.5t-139 -61.5q-90 0 -114.5 61t-2.5 205l74 465q5 33 -4 44t-41 11h-203q-32 0 -45.5 -11.5 t-19.5 -43.5l-82 -526q-20 -112 -12.5 -195t30 -138.5t67.5 -89t100 -47.5t128 -14q99 0 169.5 37.5t154.5 114.5zM676 1542h135q24 -1 38 -13.5t30 -41.5l139 -258q24 -55 -33 -55h-123q-50 0 -71 55l-72 160l-121 -160q-40 -55 -92 -55h-123q-55 0 -12 55l217 258 q47 53 88 55z" />
<glyph unicode="&#xfc;" horiz-adv-x="1226" d="M752 129l28 -74q13 -32 24 -43.5t34 -11.5h98q32 0 45.5 11.5t17.5 43.5l74 467l74 465q5 33 -4 44t-41 11h-203q-32 0 -45.5 -11.5t-19.5 -43.5l-74 -465q-22 -143 -68 -204.5t-139 -61.5q-90 0 -114.5 61t-2.5 205l74 465q5 33 -4 44t-41 11h-203q-32 0 -45.5 -11.5 t-19.5 -43.5l-82 -526q-20 -112 -12.5 -195t30 -138.5t67.5 -89t100 -47.5t128 -14q99 0 169.5 37.5t154.5 114.5zM358 1356q11 62 59 104.5t109 42.5q62 0 97.5 -43t25.5 -104q-9 -61 -58.5 -102.5t-111.5 -41.5q-61 0 -95.5 41t-25.5 103zM795 1356q11 62 59 104.5 t109 42.5q62 0 97 -43t25 -104q-9 -61 -58.5 -102.5t-111.5 -41.5q-61 0 -95 41t-25 103z" />
<glyph unicode="&#xfd;" horiz-adv-x="1132" d="M596 485l303 502q22 33 37.5 44t42.5 11h229q30 0 34.5 -11.5t-15.5 -43.5l-832 -1349q-23 -34 -38 -45t-42 -11h-229q-30 0 -34 12t16 44l307 497l-256 852q-10 32 -2.5 43.5t37.5 11.5h229q27 0 39 -11t24 -44l148 -504zM887 1303l-148 -97q-43 -32 -90 -32h-172 q-63 0 8 65l301 283q44 47 74 -19l58 -123q10 -24 4.5 -39t-35.5 -38z" />
<glyph unicode="&#xfe;" d="M678 0h-305l-58 -362q-5 -32 -18 -44t-45 -12h-203q-32 0 -41 11.5t-6 44.5l281 1767q4 32 17.5 43.5t45.5 11.5h203q32 0 42 -11.5t5 -43.5l-57 -363h305q132 0 229.5 -69.5t139.5 -188.5t20 -262q-37 -224 -195 -373t-360 -149zM418 279h231q100 0 177.5 65t95.5 178 t-39 180.5t-156 67.5h-231z" />
<glyph unicode="&#xff;" horiz-adv-x="1132" d="M596 485l303 502q22 33 37.5 44t42.5 11h229q30 0 34.5 -11.5t-15.5 -43.5l-832 -1349q-23 -34 -38 -45t-42 -11h-229q-30 0 -34 12t16 44l307 497l-256 852q-10 32 -2.5 43.5t37.5 11.5h229q27 0 39 -11t24 -44l148 -504zM356 1356q11 62 59 104.5t109 42.5 q62 0 97.5 -43t25.5 -104q-9 -61 -58.5 -102.5t-111.5 -41.5q-61 0 -95.5 41t-25.5 103zM793 1356q11 62 59 104.5t109 42.5q62 0 97 -43t25 -104q-9 -61 -58.5 -102.5t-111.5 -41.5q-61 0 -95 41t-25 103z" />
<glyph unicode="&#x152;" horiz-adv-x="2285" d="M424 717q-8 -68 -3.5 -133t30.5 -123.5t65 -102.5t99.5 -70t134.5 -26q95 0 179 39.5t143 104.5t98 145.5t53 165.5q8 69 4.5 134.5t-29 123.5t-64.5 101.5t-101 69t-138 25.5q-117 0 -220.5 -64.5t-168 -167.5t-82.5 -222zM2038 580h-512q-34 -89 -71.5 -151.5 t-104.5 -147.5l694 2q32 0 42 -12t5 -44l-29 -172q-4 -32 -17.5 -43.5t-45.5 -11.5h-930q-57 0 -183 -13.5t-181 -13.5q-148 0 -275 59.5t-210 159t-120 237.5t-14 288q35 218 155.5 387.5t303 262.5t395.5 93q54 0 176.5 -13t179.5 -13h930q32 0 42 -12t5 -44l-28 -172 q-6 -32 -19 -43.5t-45 -11.5h-651h-43q82 -157 80 -289h516q32 0 41.5 -11.5t3.5 -43.5l-27 -172q-4 -32 -17.5 -43.5t-45.5 -11.5z" />
<glyph unicode="&#x153;" horiz-adv-x="1955" d="M1143 422q1 -87 61.5 -132.5t145.5 -45.5q118 0 247 53l17.5 7.5t14.5 6t11 3.5t10.5 1t8.5 -3t9 -6.5t9 -12.5l64 -100q16 -25 17 -38t-17 -32q-83 -71 -202.5 -108.5t-238.5 -37.5q-227 0 -362 154q-86 -73 -190.5 -113.5t-212.5 -40.5q-147 0 -261.5 73t-168 198 t-29.5 272q25 152 119 277.5t230 196.5t284 71q106 0 197.5 -41t156.5 -113q185 154 401 154q85 0 155.5 -24.5t118 -67t83 -100t50 -122t19.5 -134t-8 -136.5q-5 -35 -16.5 -47t-42.5 -12h-680zM1182 621h403q-13 190 -168 190q-162 0 -235 -190zM854 520q19 118 -33 192 t-157 74q-97 0 -178 -75.5t-99 -190.5t39 -192.5t154 -77.5q104 0 179.5 75.5t94.5 194.5z" />
<glyph unicode="&#x178;" horiz-adv-x="1376" d="M119 1378l375 -858l-74 -465q-5 -32 5 -43.5t42 -11.5h213q32 0 45.5 11.5t17.5 43.5l74 465l649 858q22 32 17 44t-35 12h-250q-26 0 -40.5 -11t-39.5 -45l-418 -573l-227 573q-14 34 -25.5 45t-37.5 11h-256q-30 0 -38.5 -12t3.5 -44zM469 1747q11 62 59 104.5 t109 42.5q62 0 97.5 -43t25.5 -104q-9 -61 -58.5 -102t-111.5 -41q-61 0 -95.5 40.5t-25.5 102.5zM905 1747q11 62 59 104.5t109 42.5q62 0 97.5 -43t25.5 -104q-9 -61 -58.5 -102t-111.5 -41q-61 0 -95.5 40.5t-25.5 102.5z" />
<glyph unicode="&#x2c6;" horiz-adv-x="827" d="M375 1542h135q24 -1 38 -13.5t30 -41.5l139 -258q24 -55 -33 -55h-123q-51 0 -72 55l-71 160l-121 -160q-40 -55 -92 -55h-123q-55 0 -12 55l217 258q47 53 88 55z" />
<glyph unicode="&#x2dc;" horiz-adv-x="933" d="M616 1442q18 0 42 20t38 45q16 29 30 35t44 -6l72 -35q30 -15 34 -27.5t-12 -43.5q-107 -195 -266 -195q-56 0 -89 10.5t-79 38.5q-13 7 -34.5 20t-30 17.5t-22.5 9t-28 4.5q-18 0 -41.5 -19.5t-37.5 -45.5q-17 -28 -31 -33.5t-43 4.5l-72 35q-31 12 -35 26.5t13 45.5 q106 194 266 194q56 0 89 -10.5t79 -38.5q14 -8 34.5 -20.5t29.5 -17t22.5 -9t27.5 -4.5z" />
<glyph unicode="&#x2000;" horiz-adv-x="1018" />
<glyph unicode="&#x2001;" horiz-adv-x="2036" />
<glyph unicode="&#x2002;" horiz-adv-x="1018" />
<glyph unicode="&#x2003;" horiz-adv-x="2036" />
<glyph unicode="&#x2004;" horiz-adv-x="678" />
<glyph unicode="&#x2005;" horiz-adv-x="509" />
<glyph unicode="&#x2006;" horiz-adv-x="339" />
<glyph unicode="&#x2007;" horiz-adv-x="339" />
<glyph unicode="&#x2008;" horiz-adv-x="254" />
<glyph unicode="&#x2009;" horiz-adv-x="407" />
<glyph unicode="&#x200a;" horiz-adv-x="113" />
<glyph unicode="&#x2010;" horiz-adv-x="880" d="M702 459h-565q-32 0 -42 11.5t-5 43.5l23 131q4 32 17.5 43.5t45.5 11.5h565q32 0 42 -11.5t5 -43.5l-22 -131q-4 -32 -18 -43.5t-46 -11.5z" />
<glyph unicode="&#x2011;" horiz-adv-x="880" d="M702 459h-565q-32 0 -42 11.5t-5 43.5l23 131q4 32 17.5 43.5t45.5 11.5h565q32 0 42 -11.5t5 -43.5l-22 -131q-4 -32 -18 -43.5t-46 -11.5z" />
<glyph unicode="&#x2012;" horiz-adv-x="880" d="M702 459h-565q-32 0 -42 11.5t-5 43.5l23 131q4 32 17.5 43.5t45.5 11.5h565q32 0 42 -11.5t5 -43.5l-22 -131q-4 -32 -18 -43.5t-46 -11.5z" />
<glyph unicode="&#x2013;" horiz-adv-x="894" d="M717 459h-580q-32 0 -42 11.5t-5 43.5l23 131q4 32 17.5 43.5t45.5 11.5h580q32 0 42 -11.5t5 -43.5l-23 -131q-4 -32 -17.5 -43.5t-45.5 -11.5z" />
<glyph unicode="&#x2014;" horiz-adv-x="1241" d="M1063 459h-926q-32 0 -42 11.5t-5 43.5l23 131q4 32 17.5 43.5t45.5 11.5h926q32 0 42 -11.5t5 -43.5l-23 -131q-4 -32 -17.5 -43.5t-45.5 -11.5z" />
<glyph unicode="&#x2018;" horiz-adv-x="606" d="M315 1124h4q78 -2 124 -57.5t34 -134.5q-14 -82 -79 -139.5t-146 -57.5q-94 0 -140 70.5t-26 191.5q23 146 140.5 272t256.5 185q26 11 33 -6l41 -86q8 -19 -16 -33q-176 -100 -226 -205z" />
<glyph unicode="&#x2019;" horiz-adv-x="606" d="M289 1071h-4q-78 2 -124 58t-34 135q14 82 79 139t146 57q94 0 140 -70.5t26 -191.5q-23 -146 -140.5 -272t-256.5 -185q-24 -10 -33 7l-41 86q-8 19 16 32q176 100 226 205z" />
<glyph unicode="&#x201a;" horiz-adv-x="606" d="M289 -23h-4q-78 2 -124 58t-34 135q14 82 79 139.5t146 57.5q94 0 140 -71t26 -192q-23 -146 -140.5 -271.5t-256.5 -184.5q-25 -11 -33 6l-41 86q-8 19 16 33q177 101 226 204z" />
<glyph unicode="&#x201c;" horiz-adv-x="1079" d="M788 1124h5q78 -2 123.5 -57.5t33.5 -134.5q-14 -82 -79 -139.5t-146 -57.5q-94 0 -140 70.5t-26 191.5q23 146 140.5 272t256.5 185q25 11 33 -6l41 -86q8 -19 -16 -33q-176 -100 -226 -205zM315 1124h4q78 -2 124 -57.5t34 -134.5q-14 -82 -79 -139.5t-146 -57.5 q-94 0 -140 70.5t-26 191.5q23 146 140.5 272t256.5 185q26 11 33 -6l41 -86q8 -19 -16 -33q-176 -100 -226 -205z" />
<glyph unicode="&#x201d;" horiz-adv-x="1079" d="M289 1071h-4q-78 2 -124 58t-34 135q14 82 79 139t146 57q94 0 140 -70.5t26 -191.5q-23 -146 -140.5 -272t-256.5 -185q-24 -10 -33 7l-41 86q-8 19 16 32q176 100 226 205zM762 1071h-4q-78 2 -124 58t-34 135q14 82 79 139t146 57q94 0 140 -70.5t26 -191.5 q-23 -146 -140.5 -272t-256.5 -185q-24 -10 -33 7l-41 86q-8 18 17 32q175 100 225 205z" />
<glyph unicode="&#x201e;" horiz-adv-x="1079" d="M289 -23h-4q-78 2 -124 58t-34 135q14 82 79 139.5t146 57.5q94 0 140 -71t26 -192q-23 -146 -140.5 -271.5t-256.5 -184.5q-25 -11 -33 6l-41 86q-8 19 16 33q177 101 226 204zM762 -23h-4q-78 2 -124 58t-34 135q14 82 79 139.5t146 57.5q94 0 140 -71t26 -192 q-23 -146 -140.5 -271.5t-256.5 -184.5q-25 -11 -33 6l-41 86q-8 19 17 33q176 100 225 204z" />
<glyph unicode="&#x2022;" horiz-adv-x="630" d="M63 700q17 105 101 178.5t188 73.5t166 -74t45 -178q-15 -103 -100.5 -175t-190.5 -72q-104 0 -164 71.5t-45 175.5z" />
<glyph unicode="&#x2026;" horiz-adv-x="1576" d="M100 170q14 82 79.5 139.5t146.5 57.5q82 0 129.5 -57.5t33.5 -139.5q-12 -81 -78.5 -137t-148.5 -56q-81 0 -127.5 55.5t-34.5 137.5zM592 170q14 82 79 139.5t146 57.5q82 0 130 -57.5t34 -139.5q-12 -81 -78.5 -137t-148.5 -56q-81 0 -127.5 55.5t-34.5 137.5z M1083 170q14 82 79.5 139.5t146.5 57.5q82 0 130 -57.5t34 -139.5q-12 -81 -79 -137t-149 -56q-81 0 -127.5 55.5t-34.5 137.5z" />
<glyph unicode="&#x202f;" horiz-adv-x="407" />
<glyph unicode="&#x2039;" horiz-adv-x="702" d="M96 625l385 372q27 23 42 25t38 -12l111 -70q24 -18 24 -34.5t-24 -43.5l-310 -342l201 -342q14 -26 9.5 -43t-33.5 -35l-131 -69q-30 -17 -43.5 -14.5t-32.5 26.5l-271 373q-31 41 -22 96l2 16q8 53 55 97z" />
<glyph unicode="&#x203a;" horiz-adv-x="702" d="M369 997l270 -372q32 -43 23 -97l-3 -16q-8 -52 -55 -96l-385 -373q-28 -24 -42 -26.5t-38 14.5l-110 69q-22 19 -22 35.5t22 42.5l311 342l-203 342q-15 26 -10 43.5t35 34.5l131 70q30 16 43.5 13.5t32.5 -26.5z" />
<glyph unicode="&#x205f;" horiz-adv-x="509" />
<glyph unicode="&#x20ac;" horiz-adv-x="1323" d="M973 479h-412q26 -100 93 -158.5t177 -58.5q99 0 183 37q34 12 47.5 4.5t19.5 -37.5l31 -162q8 -29 1.5 -48t-32.5 -27q-150 -56 -295 -56q-229 0 -382 141.5t-191 364.5h-166q-32 0 -41 11.5t-6 44.5l6 28q4 32 18 43.5t46 11.5h133q0 55 10 123l8 41h-125q-32 0 -42 12 t-5 44l4 28q4 32 18 44t46 12h145q94 240 300.5 389t459.5 149q143 0 278 -55q23 -8 23.5 -27.5t-16.5 -48.5l-84 -162q-15 -30 -31.5 -37.5t-44.5 5.5q-71 36 -170 36q-131 0 -225 -67.5t-148 -181.5h438q32 0 42.5 -12t5.5 -44l-5 -28q-5 -32 -18 -44t-45 -12h-463l-8 -41 q-11 -72 -8 -123h452q32 0 42 -11.5t5 -43.5l-6 -28q-5 -32 -18 -44t-45 -12z" />
<glyph unicode="&#x2122;" horiz-adv-x="1847" d="M113 1434h635q17 0 22 -6t2 -21l-18 -121q-3 -17 -10.5 -23t-24.5 -6h-219l-92 -587q-3 -15 -10.5 -20t-24.5 -5h-140q-15 0 -20 5t-2 20l92 587h-219q-17 0 -22.5 6t-2.5 23l19 121q3 15 10.5 21t24.5 6zM1544 1006l-295 -347q-27 -30 -37 -30h-14q-3 0 -5.5 1t-5 4.5 t-3.5 6t-4.5 9t-5.5 9.5l-181 342l-92 -327q-6 -20 -11.5 -24.5t-25.5 -4.5h-123q-18 0 -23 6t-1 23l217 766q3 10 12 10h8q8 0 13 -10l282 -537l451 537q10 10 18 10h8q9 0 9 -10l-27 -766q0 -17 -8 -23t-27 -6h-123q-17 0 -21.5 5t-2.5 24z" />
<glyph unicode="&#x25fc;" horiz-adv-x="1044" d="M0 1044h1044v-1044h-1044v1044z" />
</font>
</defs>
</svg>
