<?xml version="1.0" standalone="no"?>
<!DOCTYPE svg PUBLIC "-//W3C//DTD SVG 1.1//EN" "http://www.w3.org/Graphics/SVG/1.1/DTD/svg11.dtd" >
<svg xmlns="http://www.w3.org/2000/svg">
<metadata></metadata>
<defs>
<font id="acherus_grotesqueultraLtIt" horiz-adv-x="1292" >
<font-face units-per-em="2048" ascent="1638" descent="-410" />
<missing-glyph horiz-adv-x="518" />
<glyph unicode="&#xfb01;" horiz-adv-x="1333" d="M1008 965h-623l-147 -942q-6 -23 -29 -23h-41q-13 0 -16.5 5t-1.5 18l149 942h-174q-26 0 -21 22l9 33q3 13 8 17.5t16 4.5h174l8 60q37 228 135 342.5t291 114.5q95 0 160 -35q14 -8 6 -27l-14 -33q-7 -12 -13 -13.5t-18 3.5q-56 23 -129 23q-147 0 -222 -86.5 t-109 -298.5l-9 -50h686q27 0 21 -22l-158 -997q-3 -23 -26 -23h-43q-23 0 -17 23zM1042 1397q3 31 29.5 53.5t58.5 22.5q31 0 50 -22.5t14 -53.5q-4 -32 -30.5 -54t-57.5 -22q-32 0 -51 22t-13 54z" />
<glyph unicode="&#xfb03;" horiz-adv-x="1998" d="M1673 965h-622l-150 -942q-3 -23 -27 -23h-43q-13 0 -15.5 5t-0.5 18l148 942h-578l-147 -942q-6 -23 -29 -23h-41q-13 0 -16.5 5t-1.5 18l149 942h-174q-26 0 -21 22l9 33q3 13 8 17.5t16 4.5h174l8 60q37 228 135 342.5t291 114.5q95 0 160 -35q14 -8 6 -27l-14 -33 q-7 -12 -13 -13.5t-18 3.5q-56 23 -129 23q-147 0 -222 -86.5t-109 -298.5l-9 -50h580l8 60q37 229 134 343t290 114q97 0 160 -35q17 -8 6 -27l-12 -33q-7 -11 -14 -13t-17 3q-59 23 -129 23q-147 0 -223 -86.5t-109 -298.5l-8 -50h688q13 0 16.5 -4.5t1.5 -17.5l-157 -997 q-3 -23 -27 -23h-43q-22 0 -16 23zM1706 1397q5 31 31.5 53.5t58.5 22.5q31 0 50 -22.5t14 -53.5q-4 -32 -30.5 -54t-57.5 -22q-32 0 -51 22t-15 54z" />
<glyph horiz-adv-x="0" />
<glyph horiz-adv-x="682" />
<glyph horiz-adv-x="0" />
<glyph horiz-adv-x="0" />
<glyph unicode="&#xd;" horiz-adv-x="518" />
<glyph unicode=" "  horiz-adv-x="518" />
<glyph unicode="&#x09;" horiz-adv-x="518" />
<glyph unicode="&#xa0;" horiz-adv-x="518" />
<glyph unicode="!" horiz-adv-x="696" d="M272 498l140 913q3 23 24 23h56q14 0 17 -5t1 -18l-154 -913q-3 -23 -24 -23h-41q-22 0 -19 23zM160 61q6 37 34.5 63t63.5 26q37 0 58.5 -26t15.5 -63q-5 -34 -34.5 -59t-66.5 -25q-35 0 -55.5 25t-15.5 59z" />
<glyph unicode="&#x22;" horiz-adv-x="729" d="M104 930l78 481q3 23 25 23h41q27 0 16 -25l-94 -483q-3 -19 -23 -19h-24q-12 0 -16 5t-3 18zM465 930l80 481q3 23 24 23h41q24 0 17 -25l-95 -483q-6 -19 -24 -19h-23q-12 0 -16.5 5t-3.5 18z" />
<glyph unicode="#" horiz-adv-x="1685" d="M279 1032h385l157 381q11 21 31 21h37q23 0 12 -23l-156 -379h459l158 381q13 21 31 21h37q26 0 14 -23l-158 -379h363q13 0 18 -4.5t2 -17.5l-8 -33q-3 -14 -8.5 -18.5t-18.5 -4.5h-379l-192 -465h373q13 0 17.5 -5t2.5 -17l-6 -33q-3 -13 -8.5 -17.5t-18.5 -4.5h-393 l-162 -392q-9 -20 -30 -20h-39q-25 0 -13 23l160 389h-459l-161 -392q-9 -20 -31 -20h-37q-21 0 -12 23l160 389h-351q-21 0 -18 22l6 33q3 22 25 22h370l195 465h-367q-21 0 -18 23l6 33q3 22 25 22zM717 954l-197 -465h459l195 465h-457z" />
<glyph unicode="$" horiz-adv-x="1259" d="M457 -162l22 139q-286 17 -471 160q-18 15 -2 31l29 35q15 21 35 6q83 -66 198 -105.5t226 -42.5l98 631q-76 12 -130.5 24.5t-120 39.5t-104 62t-60 93.5t-9.5 132.5t55 145.5t110.5 130.5t166.5 96.5t213 39.5l20 123q3 23 25 23h20q24 0 21 -23l-21 -123 q217 -5 443 -158q18 -10 2 -30l-25 -33q-15 -26 -35 -8q-192 143 -397 145l-96 -604q78 -10 138.5 -23t126.5 -41t106 -66.5t61 -101.5t8 -143q-13 -82 -56 -154.5t-111.5 -131t-171.5 -93.5t-226 -37l-23 -139q-3 -22 -24 -22h-23q-21 0 -18 22zM1022 391q11 67 -9 116.5 t-72 82.5t-119 54.5t-167 39.5l-96 -623q56 2 109 11.5t113.5 33t107.5 58.5t84 93.5t49 133.5zM256 1047q-8 -53 12.5 -96.5t56 -72t87.5 -50t98 -32.5t96 -18l94 594q-88 -4 -162.5 -28.5t-122.5 -59.5t-83.5 -79t-52.5 -83t-23 -75z" />
<glyph unicode="%" horiz-adv-x="1767" d="M418 727q-153 0 -230.5 95.5t-48.5 271.5q27 175 134.5 270.5t261.5 95.5q153 0 230 -95t50 -271q-29 -176 -136.5 -271.5t-260.5 -95.5zM428 795q127 0 209 79.5t104 219.5t-34.5 219.5t-184.5 79.5q-126 0 -206.5 -79.5t-102.5 -219.5t33.5 -219.5t181.5 -79.5z M1522 1411l-1196 -1391q-14 -20 -35 -20h-39q-12 0 -15.5 6t5.5 17l1194 1390q16 21 32 21h43q11 0 15 -6t-4 -17zM1229 -4q-153 0 -229.5 95t-49.5 271q29 176 136 271.5t260 95.5t230 -95.5t48 -271.5q-27 -176 -134 -271t-261 -95zM1241 63q127 0 208 79.5t103 219.5 t-34 220t-183 80t-208 -80t-103 -220t34 -219.5t183 -79.5z" />
<glyph unicode="&#x26;" horiz-adv-x="1525" d="M889 375l-268 319q-59 -13 -112.5 -29.5t-118.5 -45t-113.5 -61t-85.5 -80t-46 -101.5q-24 -150 57 -236t230 -86q46 0 93 16.5t82.5 38t80.5 61t70.5 66t69.5 73.5t61 65zM651 791l2 -3q58 17 122 49.5t124.5 77t104 102.5t53.5 116q15 104 -62 175.5t-211 71.5 q-131 0 -215 -69.5t-102 -177.5q-13 -80 46.5 -174t137.5 -168zM1399 653q-3 -2 -33.5 -21.5t-38 -24t-37 -23.5t-41.5 -27l-39 -26t-42 -29t-39.5 -28.5t-41.5 -31.5t-37 -30.5t-38 -32.5l311 -352q9 -11 7 -19t-17 -8h-74q-13 0 -21.5 6t-21.5 21l-258 286 q-18 -18 -54 -55.5t-57 -59.5t-57.5 -56t-63 -54t-65 -45t-72.5 -38t-75.5 -22.5t-83.5 -9.5q-196 0 -289.5 111.5t-65.5 292.5q9 58 36 108t69.5 87.5t88 66.5t104.5 52.5t105 38.5t103 30l-2 2q-5 6 -17 19q-40 45 -62.5 73.5t-54 78.5t-42.5 102t-2 106q9 56 40 110.5 t81 102t127 77t168 29.5t164 -29.5t114.5 -76.5t60 -102.5t9.5 -110.5q-11 -65 -48 -126t-84.5 -104.5t-107.5 -82.5t-107 -61.5t-93 -39.5l253 -287q122 109 404 283q19 15 31 -2l22 -35q5 -13 1.5 -18.5t-17.5 -14.5z" />
<glyph unicode="'" horiz-adv-x="364" d="M100 930l78 481q3 23 25 23h43q23 0 16 -25l-96 -483q-3 -19 -23 -19h-24q-12 0 -16 5t-3 18z" />
<glyph unicode="(" horiz-adv-x="774" d="M78 590q46 292 220.5 512.5t434.5 347.5q25 13 33 -8l12 -37q8 -23 -16 -35q-226 -109 -391 -316t-205 -464q-42 -261 57 -473t293 -310q23 -12 6 -32l-28 -37q-14 -17 -33 -8q-220 121 -325.5 344t-57.5 516z" />
<glyph unicode=")" horiz-adv-x="774" d="M768 590q-48 -294 -223.5 -516.5t-433.5 -343.5q-27 -13 -33 8l-12 39q-6 22 16 33q225 98 390.5 308.5t207.5 471.5q41 262 -56.5 472.5t-291.5 307.5q-24 12 -8 35l24 37q15 18 35 8q221 -126 326 -346.5t59 -513.5z" />
<glyph unicode="*" horiz-adv-x="894" d="M80 915l297 140l-248 129q-10 6 -11 12t5 18l18 29q11 19 33 6l254 -137l43 303q3 23 25 23h28q23 0 17 -23l-49 -301l292 143q21 11 29 -8l10 -26q5 -12 2 -18.5t-16 -12.5l-283 -135l250 -129q22 -11 8 -31l-20 -27q-14 -21 -31 -10l-260 144l-47 -324q-3 -23 -27 -23 h-24q-24 0 -21 23l54 319l-304 -149q-24 -14 -30 8l-8 25q-6 22 14 32z" />
<glyph unicode="+" horiz-adv-x="989" d="M590 995l-51 -327h331q12 0 16 -5t1 -18l-4 -35q-3 -20 -25 -20h-332l-53 -334q-3 -23 -24 -23h-31q-15 0 -20 5.5t-3 17.5l54 334h-330q-13 0 -18 5t-3 17l6 31q2 25 27 25h330l51 327q3 13 8.5 18t18.5 5h34q23 0 17 -23z" />
<glyph unicode="," horiz-adv-x="526" d="M291 -6h-21q-36 0 -56.5 25.5t-14.5 62.5q5 36 34.5 62t65.5 26q40 0 61.5 -29t12.5 -80q-23 -140 -84.5 -228.5t-173.5 -149.5q-16 -8 -21 0l-10 28q-3 11 8 19q166 97 199 264z" />
<glyph unicode="-" horiz-adv-x="876" d="M715 545h-565q-24 0 -19 22l4 31q3 25 25 25h565q23 0 20 -23l-6 -35q-3 -20 -24 -20z" />
<glyph unicode="." horiz-adv-x="524" d="M174 66q6 37 34.5 62.5t65.5 25.5t59.5 -25.5t16.5 -62.5q-8 -37 -38 -63t-66 -26q-37 0 -58 26t-14 63z" />
<glyph unicode="/" horiz-adv-x="694" d="M745 1411l-696 -1391q-9 -20 -33 -20h-45q-23 0 -12 23l696 1390q11 21 33 21h45q23 0 12 -23z" />
<glyph unicode="0" horiz-adv-x="1323" d="M195 717q-13 -84 -14.5 -162t8.5 -153t38 -137t71 -109t109 -73t150 -26q100 0 186 38t148.5 101t111.5 149t78.5 178.5t46.5 193.5q13 84 14 161.5t-9.5 153t-38.5 137t-70.5 108.5t-109 73t-150.5 26q-100 0 -186.5 -38t-149 -100.5t-110.5 -149t-77.5 -178.5 t-45.5 -193zM104 717q19 124 56.5 234t96.5 204t134.5 161.5t174.5 105.5t212 38t200 -38t140 -106t84 -161.5t32.5 -204t-15.5 -233.5q-25 -156 -80 -288.5t-137.5 -235.5t-200.5 -161.5t-258 -58.5q-95 0 -171.5 26.5t-129.5 75.5t-88.5 116.5t-51 151t-15.5 177.5t17 197 z" />
<glyph unicode="1" horiz-adv-x="737" d="M156 1243l336 176q38 15 49 15h30q20 0 17 -23l-221 -1388q-3 -23 -25 -23h-47q-22 0 -19 23l207 1300l-331 -156q-11 -3 -15.5 1t-3.5 14l6 39q3 13 17 22z" />
<glyph unicode="2" horiz-adv-x="1148" d="M936 840l-795 -758h791q14 0 17.5 -5t0.5 -18l-6 -36q-3 -23 -24 -23h-914q-17 0 -14 16l2 17q3 21 24 37l875 833q47 45 76.5 98t38.5 105.5t-6 101.5t-52 86t-105 59.5t-159 22.5q-247 0 -442 -184q-21 -18 -33 0l-23 31q-14 14 5 30q119 103 241 155t266 52 q124 0 215.5 -37.5t136 -101.5t51 -143t-37 -168t-129.5 -170z" />
<glyph unicode="3" horiz-adv-x="1193" d="M612 692h-223q-23 0 -20 23l6 35q2 22 26 22h238q75 0 137 19t101.5 47.5t68 64.5t41.5 67.5t17 59.5q27 161 -69.5 253.5t-268.5 92.5q-215 0 -414 -182q-16 -16 -33 -2l-22 31q-10 16 6 30q117 102 227.5 154.5t249.5 52.5q91 0 170 -25t141.5 -74.5t91 -134 t11.5 -192.5q-19 -113 -109 -197.5t-182 -105.5v-2q43 -7 86 -30.5t82.5 -62.5t59 -102.5t7.5 -138.5q-34 -213 -192 -317.5t-402 -104.5q-266 0 -440 207q-13 15 4 29l33 31q19 16 33 0q61 -77 159 -130t226 -53q222 0 342.5 85t146.5 259q22 126 -74 208.5t-262 82.5z" />
<glyph unicode="4" horiz-adv-x="1327" d="M977 1434h61q27 0 21 -23l-158 -995h262q24 0 21 -23l-6 -35q-3 -22 -27 -22h-262l-51 -313q-3 -23 -25 -23h-43q-24 0 -18 23l49 313h-740q-23 0 -20 22l6 39q2 19 27 47l868 973q10 17 35 17zM958 1325l-811 -909h666z" />
<glyph unicode="5" horiz-adv-x="1185" d="M393 1434h686q25 0 19 -23l-6 -37q-1 -13 -7 -17.5t-20 -4.5h-631l-155 -521h309q110 0 195.5 -21.5t148.5 -67t89 -125t9 -187.5q-19 -119 -71 -208t-131 -142.5t-176.5 -80t-213.5 -26.5q-143 0 -249.5 53.5t-192.5 157.5q-9 12 4 25l35 31q16 16 28 2 q30 -36 61.5 -64.5t78.5 -58t111 -46t139 -16.5q78 0 141.5 10.5t123 36t103 67t75 106.5t44.5 151q14 88 -6.5 151.5t-72.5 99.5t-122.5 52.5t-163.5 16.5h-380q-25 0 -19 22l193 641q3 14 7.5 18.5t16.5 4.5z" />
<glyph unicode="6" horiz-adv-x="1236" d="M696 936q93 0 172.5 -29t137.5 -83.5t83.5 -141.5t8.5 -195q-17 -106 -64 -199t-118 -163.5t-170.5 -111t-213.5 -40.5q-537 0 -438 629q16 100 36 186t50.5 175t67.5 161t89.5 136t114.5 107t143 68t175 25q137 0 230 -35.5t182 -121.5q15 -15 -6 -33l-35 -31 q-20 -20 -37 0q-79 85 -154 111t-196 26q-446 0 -568 -747q79 139 214.5 223t295.5 84zM543 55q98 0 181 35.5t139.5 96t93.5 136t51 160.5q13 86 -7.5 157.5t-67.5 118t-115 72t-148 25.5q-104 0 -213.5 -55.5t-188.5 -148t-96 -193.5q-3 -24 -3.5 -51.5t5.5 -68.5 t19.5 -78t41 -75.5t66.5 -66.5t101.5 -46t140.5 -18z" />
<glyph unicode="7" horiz-adv-x="1144" d="M1204 1413l-2 -8q-5 -17 -22 -45l-1049 -1344q-13 -16 -37 -16h-57q-10 0 -14 5t4 15l1034 1328h-875q-21 0 -18 22l6 41q3 13 8.5 18t18.5 5h983q23 0 20 -21z" />
<glyph unicode="8" horiz-adv-x="1226" d="M494 -27q-130 0 -223.5 31.5t-143.5 87t-67.5 126.5t-4.5 155q11 73 49.5 135t83.5 100t100 67.5t88.5 41.5t59.5 18q-23 6 -49 16.5t-67 38t-69.5 63t-45 94.5t-4.5 130q27 166 174.5 274.5t355.5 108.5q210 0 322.5 -108.5t85.5 -274.5q-12 -71 -47.5 -130.5 t-74.5 -94.5t-89 -62.5t-77 -37.5t-52 -17l-2 -2q22 -5 52.5 -17t74.5 -41t77.5 -67t52.5 -100t7 -135q-28 -177 -170 -288.5t-397 -111.5zM610 696q-76 -2 -152.5 -24t-143 -61t-113 -100.5t-58.5 -135.5q-10 -64 4.5 -120t55.5 -101.5t119.5 -72t185.5 -26.5q112 0 199 26 t140.5 72t84 101t41.5 121q10 59 -6 111t-51 89t-84.5 64t-106 41t-115.5 16zM719 1378q-169 0 -289.5 -86.5t-140.5 -218.5q-14 -91 30.5 -160.5t124.5 -104t179 -36.5q100 2 190.5 36.5t156 104t79.5 160.5q20 132 -71.5 218.5t-258.5 86.5z" />
<glyph unicode="9" horiz-adv-x="1234" d="M539 498q-93 0 -172.5 29t-137.5 83t-83.5 141t-8.5 195q17 106 64 199t117.5 163.5t170 111t213.5 40.5q96 0 172 -20t125.5 -54t83.5 -83.5t50.5 -103t21.5 -119t1.5 -124t-13.5 -125.5q-16 -100 -36.5 -186t-51 -175.5t-68 -161t-90 -135.5t-114.5 -107t-143 -68 t-175 -25q-134 0 -236.5 42t-193.5 130q-7 9 -6 15.5t12 17.5l33 31q24 18 39 0q84 -85 168.5 -118.5t201.5 -33.5q99 0 182 38.5t144 104.5t108.5 162.5t79 204.5t52.5 238q-79 -139 -214.5 -223t-295.5 -84zM692 1378q-98 0 -181 -35.5t-139.5 -96t-93.5 -136t-51 -160.5 q-13 -86 7.5 -157t68 -117.5t115 -72t147.5 -25.5q104 0 213.5 55.5t188.5 148t96 193.5q3 24 3.5 51.5t-5.5 68t-19 78t-40.5 76t-67 66t-102 45.5t-140.5 18z" />
<glyph unicode=":" horiz-adv-x="524" d="M117 66q6 36 35.5 62t66.5 26q36 0 58 -26t16 -62q-6 -38 -36 -63.5t-67 -25.5q-38 0 -58.5 25.5t-14.5 63.5zM227 762q8 39 36.5 64.5t64.5 25.5q39 0 60.5 -26t14.5 -64q-6 -37 -36 -61.5t-68 -24.5q-37 0 -57.5 24.5t-14.5 61.5z" />
<glyph unicode=";" horiz-adv-x="526" d="M254 764q6 37 34.5 62.5t65.5 25.5q38 0 60 -25.5t16 -62.5t-36 -62.5t-68 -25.5q-37 0 -57.5 25.5t-14.5 62.5zM236 -23h-21q-37 0 -57.5 26t-14.5 63q5 35 34.5 61.5t66.5 26.5q40 0 61 -29t12 -80q-23 -139 -84.5 -227.5t-173.5 -151.5q-15 -8 -20 2l-10 27 q-4 11 8 18q166 100 199 264z" />
<glyph unicode="&#x3c;" horiz-adv-x="1093" d="M37 719v4q3 16 20 25l1000 530q12 6 17 3.5t3 -13.5l-6 -43q-5 -19 -29 -31l-882 -473l733 -473q19 -11 16 -31l-6 -45q-3 -20 -24 -10l-828 530q-14 8 -14 27z" />
<glyph unicode="=" horiz-adv-x="968" d="M836 788h-656q-22 0 -16 23l4 31q3 24 25 24h657q13 0 17.5 -5t2.5 -17l-6 -35q-5 -13 -10 -17t-18 -4zM774 385h-657q-24 0 -19 21l4 30q3 25 27 25h657q22 0 19 -23l-4 -32q-3 -12 -8.5 -16.5t-18.5 -4.5z" />
<glyph unicode="&#x3e;" horiz-adv-x="1093" d="M1055 725v-4q0 -18 -21 -27l-999 -532q-21 -10 -21 10l6 45q6 19 29 31l885 473l-735 473q-22 14 -17 31l8 43q3 23 23 10l827 -528q15 -9 15 -25z" />
<glyph unicode="?" horiz-adv-x="1040" d="M440 662q104 19 191 48.5t162.5 72t123.5 103.5t60 134q25 152 -82 252t-317 100q-98 0 -197 -36.5t-223 -110.5q-18 -13 -29 6l-16 35q-7 21 14 32q260 158 469 158q110 0 197 -26.5t141.5 -69.5t88.5 -100t44 -117t0 -121q-12 -74 -49.5 -136t-90 -106t-125.5 -79.5 t-145.5 -58t-160.5 -40.5l-29 -188q-3 -13 -8.5 -18t-18.5 -5h-39q-24 0 -18 23l37 225q3 20 20 23zM281 61q6 37 35 64t65 27q37 0 59.5 -27t16.5 -64t-37 -62.5t-68 -25.5q-36 0 -56.5 25.5t-14.5 62.5z" />
<glyph unicode="@" horiz-adv-x="2111" d="M1921 526q24 163 1 297.5t-88.5 240t-162.5 177.5t-220.5 110t-262.5 38q-174 0 -345 -71t-305 -188.5t-228.5 -277t-121.5 -330.5q-28 -171 15 -331t139 -277.5t243 -188.5t318 -71q168 0 287 53q28 11 31 -6l4 -33q2 -13 -1 -18.5t-16 -11.5q-141 -62 -317 -62 q-192 0 -353 75t-265 202.5t-149 302t-15 366.5q24 153 92.5 296.5t173 260t233.5 204t281.5 135.5t308.5 48q157 0 293.5 -40.5t242.5 -118.5t176.5 -192t95 -261.5t-2.5 -327.5q-12 -77 -30 -148.5t-51 -151.5t-74 -137.5t-102.5 -95t-133.5 -36.5q-115 0 -174.5 63.5 t-53.5 178.5l7 63q-183 -285 -465 -285q-108 0 -191.5 43t-130 117.5t-65.5 173.5t2 211q36 231 190 387t369 156q57 0 107 -13t85 -32.5t64.5 -47.5t47 -53t32 -55t20 -47t10.5 -35l45 240q7 20 25 20h35q21 0 18 -22l-125 -782q-17 -103 26.5 -153t129.5 -50 q55 0 100.5 29t77 74t56.5 112t40 132t27 144zM950 57q91 0 174.5 41t143 107t100 148t53.5 167q9 69 4.5 135t-30.5 125.5t-64.5 104.5t-99 71.5t-133.5 26.5q-91 0 -173.5 -39t-142.5 -103.5t-100.5 -147t-54.5 -171.5q-22 -130 8 -235t111.5 -167.5t203.5 -62.5z" />
<glyph unicode="A" horiz-adv-x="1421" d="M807 1307h-4l-479 -799h708zM850 1456l420 -1433q3 -9 -2 -16t-17 -7h-57q-19 0 -25 23l-116 405h-774l-242 -405q-17 -23 -35 -23h-59q-10 0 -12.5 7t3.5 16l875 1433q9 17 20 17h7q7 0 14 -17z" />
<glyph unicode="B" horiz-adv-x="1368" d="M659 0h-536q-24 0 -21 23l222 1388q3 13 8 18t18 5h486q73 0 139 -12t127 -41t101.5 -73t58.5 -113.5t4 -156.5q-8 -56 -34.5 -104t-59.5 -79.5t-73.5 -56.5t-74 -37.5t-63.5 -19.5v-2q25 -5 56 -17.5t73 -40.5t73 -64.5t48 -95.5t6 -128q-16 -103 -67 -180.5 t-127.5 -123t-167.5 -67.5t-196 -22zM203 82h456q412 0 465 321q20 122 -80.5 208.5t-259.5 86.5h-483zM313 778h475q145 0 255 69t128 183q25 160 -73 241t-287 81h-408z" />
<glyph unicode="C" horiz-adv-x="1480" d="M735 57q151 0 280.5 56t229.5 143q15 18 29 0l29 -35q13 -18 -13 -37q-114 -98 -266.5 -154.5t-302.5 -56.5q-146 0 -271.5 59.5t-208.5 159t-119.5 237.5t-12.5 288q23 153 102 290.5t192 236.5t258 157.5t295 58.5t285.5 -56.5t218.5 -154.5q12 -14 -4 -30l-35 -33 q-18 -18 -32 0q-64 80 -179.5 135t-265.5 55q-126 0 -252.5 -55t-226.5 -145t-170 -211t-90 -248q-20 -128 10.5 -249t100 -211.5t179.5 -145t240 -54.5z" />
<glyph unicode="D" horiz-adv-x="1550" d="M358 1434h494q198 0 344 -93.5t211 -257.5t35 -366q-23 -151 -97 -284t-182 -228t-248 -150t-290 -55h-494q-23 0 -20 23l223 1388q3 23 24 23zM838 1352h-426l-199 -1270h424q176 0 331 87t254 232t124 316q26 172 -27 316.5t-179.5 231.5t-301.5 87z" />
<glyph unicode="E" d="M1026 0h-903q-24 0 -21 23l222 1388q6 23 26 23h903q25 0 19 -23l-6 -37q-2 -22 -27 -22h-836l-92 -586h797q12 0 16.5 -5t1.5 -18l-4 -36q-6 -23 -26 -23h-799l-94 -602h837q12 0 15.5 -4.5t1.5 -18.5l-6 -36q-3 -23 -25 -23z" />
<glyph unicode="F" horiz-adv-x="1277" d="M307 684l-106 -661q-3 -23 -23 -23h-47q-23 0 -20 23l223 1388q3 23 24 23h899q26 0 23 -23l-6 -37q-5 -22 -27 -22h-835l-93 -586h818q23 0 20 -23l-6 -36q-6 -23 -27 -23h-817z" />
<glyph unicode="G" horiz-adv-x="1558" d="M938 1376q-169 0 -330 -92t-270 -244t-135 -323q-20 -128 10 -248t99 -211t178.5 -146t240.5 -55q285 0 522 191l64 397h-473q-24 0 -19 21l4 39q5 22 27 22h541q24 0 18 -22l-69 -443q-5 -39 -43 -74q-118 -99 -276.5 -157t-309.5 -58q-143 0 -267.5 59.5t-207.5 159 t-120 237.5t-13 288q23 153 101 290.5t190.5 236.5t257 157.5t294.5 58.5q147 0 279.5 -55.5t222.5 -151.5q7 -11 6 -17t-12 -15l-35 -31q-20 -17 -35 0q-64 75 -187 130.5t-253 55.5z" />
<glyph unicode="H" horiz-adv-x="1552" d="M1233 764l104 647q3 23 25 23h45q23 0 20 -23l-223 -1388q-3 -23 -24 -23h-45q-24 0 -21 23l107 657h-904l-104 -657q-3 -23 -25 -23h-45q-23 0 -20 23l221 1388q6 23 27 23h45q24 0 18 -23l-102 -647h901z" />
<glyph unicode="I" horiz-adv-x="561" d="M123 23l221 1388q6 23 27 23h47q13 0 16.5 -5.5t-0.5 -17.5l-221 -1388q-3 -23 -25 -23h-45q-23 0 -20 23z" />
<glyph unicode="J" horiz-adv-x="903" d="M748 1356h-363q-12 0 -15 4.5t-1 17.5l4 33q6 23 26 23h430q24 0 21 -23l-137 -854q-49 -308 -219.5 -446t-487.5 -138q-26 0 -26 23l2 39q0 15 7 20.5t25 5.5q282 0 425 121t182 375z" />
<glyph unicode="K" horiz-adv-x="1306" d="M393 750l729 -727q9 -11 5.5 -17t-13.5 -6h-82q-17 0 -37 23l-671 669l-109 -669q-3 -23 -25 -23h-47q-23 0 -20 23l221 1388q6 23 27 23h47q23 0 18 -23l-96 -608l829 608q33 23 52 23h69q11 0 12.5 -6t-8.5 -17z" />
<glyph unicode="L" horiz-adv-x="1167" d="M213 82h762q12 0 15.5 -5t0.5 -18l-6 -36q-3 -23 -27 -23h-827q-23 0 -20 23l223 1388q3 23 24 23h45q24 0 21 -23z" />
<glyph unicode="M" horiz-adv-x="2060" d="M1763 1286l-813 -1290q-16 -23 -35 -23h-10q-11 0 -16 5t-10 18l-404 1288l-342 -1261q-6 -23 -24 -23h-50q-22 0 -16 23l395 1419q3 11 7 14.5t14 3.5h12q16 0 23 -18l436 -1350l866 1350q11 18 27 18h12q10 0 13 -3.5t3 -14.5l-57 -1419q-3 -23 -25 -23h-49 q-11 0 -14 5t-2 18z" />
<glyph unicode="N" horiz-adv-x="1591" d="M410 1280l-199 -1257q-6 -23 -27 -23h-45q-24 0 -18 23l225 1421q1 10 5.5 13t15.5 3h6q11 0 20 -12l787 -1286l198 1249q1 13 7 18t18 5h47q12 0 15.5 -5t2.5 -18l-227 -1421q-2 -17 -18 -17h-4q-16 0 -25 15z" />
<glyph unicode="O" horiz-adv-x="1681" d="M109 717q23 153 102 290.5t192 236.5t258 157.5t295 58.5q195 0 348 -100t226 -271.5t43 -371.5q-22 -150 -102.5 -288t-195 -237.5t-260.5 -159t-294 -59.5q-147 0 -272 59.5t-207 159t-118.5 237.5t-14.5 288zM205 717q-16 -105 0.5 -204.5t62.5 -181t113.5 -143.5 t158.5 -96.5t193 -34.5q128 0 256 55t228 145.5t170 211.5t90 248q20 129 -12.5 251t-104.5 211t-181 143t-235 54q-169 0 -331.5 -92t-272.5 -244.5t-135 -322.5z" />
<glyph unicode="P" horiz-adv-x="1269" d="M299 637h393q99 0 178 22t129.5 57t87 85t55 99t27.5 106q9 40 5.5 80.5t-12.5 79t-37 72.5t-67.5 59.5t-104 40t-146.5 14.5h-395zM690 555h-403l-86 -532q-2 -13 -7 -18t-18 -5h-45q-23 0 -20 23l223 1388q1 14 6 18.5t18 4.5h471q80 0 147.5 -12.5t127.5 -43t98 -78 t54 -122.5t1 -172t-55 -174.5t-94.5 -128t-124 -85t-142 -49t-151.5 -14.5z" />
<glyph unicode="Q" horiz-adv-x="1681" d="M123 717q23 152 102.5 290t193 237t259 157.5t295.5 58.5q147 0 273 -59t209 -159t119.5 -237.5t12.5 -287.5q-17 -110 -59.5 -206t-105 -172t-128 -133t-147.5 -112l139 -256q11 -20 -8 -31l-43 -28q-22 -11 -31 8l-139 266q-67 -29 -102.5 -42.5t-97 -25.5t-128.5 -12 q-147 0 -272.5 59.5t-207.5 159t-119 237.5t-15 288zM219 717q-26 -175 35.5 -327t194 -242.5t303.5 -90.5q122 0 250 56t230 146.5t174.5 212t90.5 245.5q19 130 -14.5 251.5t-105.5 210.5t-181 143t-235 54q-127 0 -254 -54.5t-227 -144.5t-170.5 -211.5t-90.5 -248.5z " />
<glyph unicode="R" horiz-adv-x="1376" d="M1257 1004q-28 -180 -131.5 -287.5t-267.5 -147.5l316 -544q6 -12 -0.5 -18.5t-20.5 -6.5h-51q-20 0 -35 23l-309 532h-471l-86 -532q-1 -13 -7 -18t-18 -5h-45q-13 0 -17 4.5t-3 18.5l223 1388q3 23 24 23h480q74 0 138.5 -12.5t124 -43.5t98.5 -78.5t56 -123.5t2 -172z M299 637h401q207 0 324.5 98t144.5 269q28 177 -69 262.5t-285 85.5h-403z" />
<glyph unicode="S" horiz-adv-x="1306" d="M772 1372q-101 0 -184.5 -23.5t-136 -58.5t-90 -80.5t-55 -85t-23.5 -77.5q-10 -56 10 -100.5t56.5 -73t99 -50.5t121 -34t139.5 -23q86 -12 151.5 -28.5t124.5 -45.5t95 -68.5t51.5 -98t3.5 -132.5q-13 -82 -56 -155.5t-113.5 -132.5t-177 -93.5t-233.5 -34.5 q-315 0 -522 160q-18 12 -2 31l26 35q15 21 33 6q88 -69 210 -108.5t247 -39.5q65 0 125.5 8.5t124.5 32t113.5 59t87 95t49.5 135.5q11 69 -10.5 120t-79 85.5t-136 56.5t-194.5 39q-77 11 -133.5 23.5t-122.5 39t-105.5 62t-61 94t-9.5 133.5q7 47 28.5 98t67 108.5 t107.5 102t158 74t210 29.5q147 0 254 -39t225 -119q17 -10 4 -30l-24 -33q-17 -23 -37 -8q-193 145 -416 145z" />
<glyph unicode="T" horiz-adv-x="1228" d="M156 1434h1142q24 0 21 -23l-6 -39q-2 -22 -27 -22h-528l-209 -1327q-3 -13 -8.5 -18t-18.5 -5h-45q-24 0 -18 23l209 1327h-527q-13 0 -16.5 4.5t-1.5 17.5l8 39q3 23 25 23z" />
<glyph unicode="U" horiz-adv-x="1458" d="M612 -27q-258 0 -385.5 159.5t-79.5 457.5l132 821q3 23 24 23h45q24 0 21 -23l-129 -811q-21 -146 -3.5 -249t74 -168.5t135 -95.5t181.5 -30t191.5 31t163.5 94t128 169.5t76 248.5l129 811q3 23 24 23h45q24 0 21 -23l-131 -821q-32 -200 -126.5 -340.5t-230.5 -208.5 t-305 -68z" />
<glyph unicode="V" horiz-adv-x="1421" d="M580 -23l-422 1434q-2 9 2.5 16t13.5 7h62q10 0 14.5 -4.5t9.5 -18.5l365 -1274h2l768 1274q13 23 35 23h53q24 0 14 -23l-876 -1434q-13 -16 -21 -16h-4q-10 0 -16 16z" />
<glyph unicode="W" horiz-adv-x="1966" d="M258 1411l246 -1253l567 1280q11 22 29 22h10q10 0 14 -5t6 -17l164 -1280l641 1253q11 23 33 23h62q20 0 8 -23l-752 -1434q-2 -2 -5 -6.5t-4 -5.5t-3.5 -2.5t-5.5 -1.5h-13q-10 0 -10 16l-168 1317l-581 -1317q-11 -16 -21 -16h-6q-11 0 -16 16l-297 1434q-3 23 14 23 h61q24 0 27 -23z" />
<glyph unicode="X" horiz-adv-x="1357" d="M668 643l-617 -620q-23 -23 -43 -23h-55q-10 0 -12.5 5.5t6.5 17.5l678 692l-459 696q-14 23 12 23h55q23 0 37 -23l424 -620l619 620q23 23 45 23h55q26 0 6 -23l-680 -696l457 -692q12 -23 -16 -23h-52q-18 0 -38 23z" />
<glyph unicode="Y" horiz-adv-x="1234" d="M557 580l-416 831q-11 23 13 23h53q14 0 21.5 -5t13.5 -18l372 -737l609 737q18 23 39 23h49q26 0 10 -23l-676 -831l-90 -557q-3 -23 -25 -23h-45q-21 0 -18 23z" />
<glyph unicode="Z" horiz-adv-x="1284" d="M1049 0h-1063q-15 0 -16 6q0 4 1 10l2 15q2 7 13 18l1183 1303h-901q-12 0 -15.5 4.5t-2.5 17.5l6 37q3 13 8.5 18t18.5 5h1024q18 0 14 -15l-2 -12q-4 -15 -14 -25l-1182 -1300h938q21 0 18 -23l-6 -36q-3 -23 -24 -23z" />
<glyph unicode="[" horiz-adv-x="782" d="M498 -322l-6 -34q-3 -23 -27 -23h-373q-22 0 -16 23l282 1792q3 22 27 22h373q22 0 16 -22l-4 -35q-3 -13 -8.5 -18t-18.5 -5h-309l-264 -1677h309q22 0 19 -23z" />
<glyph unicode="\" horiz-adv-x="878" d="M530 20l-260 1391q-3 23 21 23h43q16 0 22 -21l258 -1390q3 -23 -24 -23h-35q-13 0 -18 4t-7 16z" />
<glyph unicode="]" horiz-adv-x="772" d="M-2 -356l6 34q3 23 25 23h309l266 1677h-309q-25 0 -19 23l5 35q5 22 26 22h371q13 0 17.5 -5t2.5 -17l-284 -1792q-3 -23 -27 -23h-373q-11 0 -14.5 5t-1.5 18z" />
<glyph unicode="^" horiz-adv-x="704" d="M373 1542h22q12 0 25 -22l180 -324q13 -22 -14 -22h-37q-25 0 -33 22l-143 272l-228 -272q-16 -22 -43 -22h-36q-24 0 -5 22l277 324q22 22 35 22z" />
<glyph unicode="_" horiz-adv-x="1019" d="M915 -102h-815q-13 0 -17 4.5t-1 17.5l4 31q3 14 8.5 19t18.5 5h815q21 0 18 -22l-6 -35q-2 -20 -25 -20z" />
<glyph unicode="`" horiz-adv-x="450" d="M268 1200l-178 207q-12 13 0 25l31 36q15 19 26 2l213 -262q16 -22 -10 -22h-45q-23 0 -37 14z" />
<glyph unicode="a" horiz-adv-x="1148" d="M309 948q-21 -3 -26 21l-4 28q-3 23 26 31q40 10 144.5 23.5t209.5 13.5q228 0 305.5 -111.5t36.5 -373.5l-90 -557q-3 -23 -26 -23h-29q-21 0 -18 23l24 176q-26 -34 -69.5 -70.5t-103.5 -71.5t-139 -57.5t-159 -22.5q-159 0 -248 91t-65 247q27 166 153.5 249t335.5 83 q161 0 344 -84q36 232 -25.5 327t-242.5 95q-40 0 -77 -2t-79.5 -7.5t-60.5 -8t-67 -11t-50 -8.5zM567 575q-174 0 -278 -64.5t-125 -195.5q-19 -122 52.5 -192t211.5 -70q123 0 246 69t192 159l33 204q-100 48 -169.5 69t-162.5 21z" />
<glyph unicode="b" d="M418 1489l-113 -707q14 25 33.5 53.5t61 72t89 76.5t119.5 57t150 24q143 0 241 -73.5t135 -196.5t13 -273t-99.5 -273.5t-197 -197.5t-264.5 -74q-279 0 -373 285l-43 -239q-9 -23 -25 -23h-30q-22 0 -19 23l236 1466q3 22 22 22h45q22 0 19 -22zM590 57 q182 0 310.5 133t160.5 332q20 120 -10 224t-112.5 170.5t-203.5 66.5q-120 0 -224 -69.5t-167 -174t-82 -219.5q-18 -114 12 -218.5t113 -174.5t203 -70z" />
<glyph unicode="c" horiz-adv-x="1120" d="M569 59q99 0 189 38t155 98q19 13 31 -2l23 -27q12 -15 -11 -35q-179 -154 -403 -154q-147 0 -258.5 73t-162.5 198t-28 272q24 148 115 273.5t226 198.5t282 73q224 0 354 -154q13 -16 -2 -34l-28 -27q-20 -16 -31 -2q-50 60 -127.5 97.5t-177.5 37.5 q-123 0 -236.5 -62.5t-190 -169t-95.5 -231.5q-20 -126 22.5 -232t136 -167.5t217.5 -61.5z" />
<glyph unicode="d" d="M997 782l113 707q3 22 23 22h45q21 0 18 -22l-233 -1466q-3 -23 -23 -23h-31q-18 0 -18 23l33 239q-183 -285 -465 -285q-143 0 -240.5 74.5t-134.5 197t-14 273.5q24 150 99.5 273t196.5 196.5t265 73.5q79 0 143.5 -24.5t101.5 -56.5t65.5 -77t38.5 -71.5t17 -53.5z M483 57q119 0 223.5 70t167 174.5t80.5 218.5q9 69 4.5 135t-30.5 125.5t-64.5 104.5t-99 71.5t-133.5 26.5q-91 0 -174 -38.5t-143 -103.5t-100.5 -147.5t-55.5 -171.5q-21 -129 9.5 -234t112 -168t203.5 -63z" />
<glyph unicode="e" horiz-adv-x="1241" d="M991 180l19 -24q13 -16 -11 -37q-81 -67 -200.5 -104.5t-235.5 -37.5q-152 0 -265.5 73t-165 197.5t-28.5 272.5q24 148 115 273.5t226 198.5t282 73q150 0 253.5 -75.5t144.5 -201.5t16 -280q-2 -13 -6.5 -18t-18.5 -5h-926q-16 -112 31 -210.5t144 -158t219 -59.5 q94 0 197 32.5t180 90.5q18 15 30 0zM201 555h858q12 83 -7 161.5t-63 138.5t-116 96t-160 36q-117 0 -229 -61.5t-188 -161.5t-95 -209z" />
<glyph unicode="f" horiz-adv-x="839" d="M311 1038l8 64q37 228 135 342.5t291 114.5q95 0 160 -35q14 -8 6 -27l-14 -33q-7 -12 -13 -13.5t-18 3.5q-56 23 -129 23q-147 0 -222 -86.5t-109 -298.5l-9 -54h416q12 0 15 -4.5t1 -17.5l-4 -33q-3 -13 -8 -17.5t-16 -4.5h-416l-147 -938q-6 -23 -29 -23h-41 q-13 0 -16.5 5t-1.5 18l149 938h-174q-13 0 -17.5 4.5t-3.5 17.5l7 33q3 22 26 22h174z" />
<glyph unicode="g" d="M954 57l33 203q-14 -25 -33 -53.5t-61 -72t-90 -76t-120 -57t-151 -24.5q-144 0 -242 74t-134.5 196t-12.5 273q24 150 100 273.5t197.5 197.5t264.5 74q57 0 107 -13t84.5 -31t65 -47t47.5 -52t33 -55.5t21.5 -48t13.5 -38.5l45 240q8 22 25 22h31q22 0 16 -22 l-152 -957q-45 -286 -179 -427.5t-369 -141.5q-45 0 -87.5 3t-78.5 8.5t-63.5 10.5t-55.5 13.5t-42 13t-35 12.5t-23 9q-19 8 -11 26l17 41q8 21 28 13q2 -1 22.5 -9.5t28.5 -11.5t31.5 -11t39.5 -12t44.5 -10t54.5 -8.5t60.5 -5t71.5 -2.5q93 0 166.5 27.5t121.5 71 t83.5 108.5t54.5 130.5t32 145.5zM705 983q-184 0 -314 -132.5t-160 -330.5q-9 -70 -4.5 -136.5t31 -125.5t66 -103t100 -70t133.5 -26q90 0 173.5 40.5t143.5 106.5t100.5 148.5t53.5 167.5t-1 166.5t-53 147.5t-109 106.5t-160 40.5z" />
<glyph unicode="h" horiz-adv-x="1234" d="M418 1489l-111 -690q13 25 35.5 56t61 69t83 68.5t105 51.5t123.5 21q81 0 149.5 -28.5t118 -82.5t70 -142.5t2.5 -199.5l-94 -589q-6 -23 -27 -23h-43q-22 0 -19 23l91 559q15 100 0 175.5t-55.5 125.5t-98 75t-127.5 25q-96 0 -186.5 -61.5t-149.5 -158t-76 -202.5 l-86 -538q-6 -23 -26 -23h-43q-22 0 -19 23l84 526l150 940q6 22 24 22h45q22 0 19 -22z" />
<glyph unicode="i" horiz-adv-x="624" d="M156 23l157 997q5 22 27 22h43q13 0 16.5 -4.5t1.5 -17.5l-157 -997q-6 -23 -27 -23h-43q-21 0 -18 23zM340 1397q5 31 30.5 53.5t57.5 22.5q31 0 50.5 -22.5t15.5 -53.5q-6 -32 -33 -54t-58 -22q-32 0 -50.5 22t-12.5 54z" />
<glyph unicode="j" horiz-adv-x="776" d="M549 1397q6 31 32 53.5t58 22.5q31 0 50 -22.5t13 -53.5q-4 -32 -30 -54t-58 -22t-51 22t-14 54zM176 987l6 33q3 22 25 22h391q24 0 18 -22l-163 -1047q-37 -228 -135.5 -342t-292.5 -114q-119 0 -193 53q-14 10 -2 29l14 30q6 14 11.5 16.5t17.5 -3.5q63 -43 160 -43 q147 0 223 86.5t109 298.5l145 909l12 72h-325q-24 0 -21 22z" />
<glyph unicode="k" horiz-adv-x="1107" d="M365 553l524 -530q8 -11 5 -17t-13 -6h-70q-17 0 -37 23l-504 503l-80 -503q-3 -23 -24 -23h-43q-25 0 -19 23l234 1466q3 22 24 22h44q24 0 18 -22l-145 -916l624 447q27 22 47 22h62q11 0 12.5 -7t-8.5 -15z" />
<glyph unicode="l" horiz-adv-x="557" d="M117 23l233 1466q6 22 27 22h43q13 0 16.5 -4.5t1.5 -17.5l-233 -1466q-3 -23 -25 -23h-43q-23 0 -20 23z" />
<glyph unicode="m" horiz-adv-x="1888" d="M1028 770q15 32 38.5 67.5t62 77.5t82.5 74.5t103.5 54t121.5 21.5q69 0 130.5 -28.5t107.5 -82t65.5 -142t1.5 -198.5l-92 -591q-3 -23 -25 -23h-45q-22 0 -16 23l88 559q15 97 0 175t-52.5 126.5t-88.5 74t-109 25.5q-128 0 -238.5 -117t-138.5 -301l-86 -542 q-3 -23 -25 -23h-45q-22 0 -16 23l88 559q27 171 -43.5 286t-206.5 115q-134 0 -241.5 -122.5t-137.5 -299.5l-84 -538q-3 -23 -24 -23h-45q-23 0 -17 23l158 997q3 22 23 22h30q19 0 19 -22l-31 -240q12 29 32.5 63t56.5 74.5t77.5 72.5t99.5 53.5t119 21.5 q62 0 114.5 -21.5t85 -54t56 -73.5t34 -77.5t13.5 -68.5z" />
<glyph unicode="n" horiz-adv-x="1243" d="M373 1020l-31 -229q19 35 52.5 76.5t86 88.5t126.5 78t153 31q81 0 149 -28.5t117.5 -82.5t69.5 -142.5t2 -199.5l-92 -589q-6 -23 -27 -23h-45q-19 0 -16 23l88 559q15 100 0 175.5t-55.5 125.5t-98 75t-127.5 25q-96 0 -186 -61.5t-149 -158t-77 -202.5l-84 -538 q-3 -13 -8 -18t-18 -5h-45q-20 0 -17 23l84 526l76 471q3 22 23 22h30q19 0 19 -22z" />
<glyph unicode="o" horiz-adv-x="1286" d="M104 520q24 148 115.5 273.5t227 198.5t282.5 73t259 -73.5t163 -199t27 -272.5q-23 -147 -114 -272t-226.5 -198t-282.5 -73t-259 73t-163.5 198t-28.5 272zM569 57q187 0 339.5 136t183.5 327q19 125 -23.5 231.5t-136 169t-217.5 62.5q-123 0 -236.5 -62.5t-190 -169 t-95.5 -231.5q-20 -125 22.5 -231.5t136.5 -169t217 -62.5z" />
<glyph unicode="p" d="M289 260l-105 -655q-3 -23 -24 -23h-45q-22 0 -19 23l228 1415q3 22 22 22h31q15 0 18 -22l-33 -240q183 285 463 285q108 0 192 -43t131 -117.5t66.5 -173.5t-0.5 -211q-24 -150 -99.5 -273t-196.5 -196.5t-265 -73.5q-78 0 -142 24.5t-101.5 57t-65.5 76t-38.5 72 t-16.5 53.5zM803 983q-91 0 -174.5 -40.5t-144 -106.5t-101 -147.5t-53.5 -166.5q-19 -115 10.5 -219.5t111.5 -174t203 -69.5q120 0 223.5 66.5t166.5 170.5t83 224q20 129 -10 233.5t-112 167t-203 62.5z" />
<glyph unicode="q" d="M877 -395l102 655q-12 -24 -32 -53t-61 -72t-89 -76.5t-120 -57.5t-151 -24q-143 0 -241 73.5t-135 196.5t-13 273t99.5 273.5t197 197.5t264.5 74q57 0 107 -12.5t85 -31t65 -47.5t47.5 -52t33.5 -55.5t21.5 -48t13.5 -38.5l45 240q8 22 25 22h30q20 0 17 -22 l-225 -1415q-3 -23 -23 -23h-47q-22 0 -16 23zM696 983q-122 0 -223.5 -62.5t-164.5 -167t-83 -233.5q-10 -72 -5.5 -138.5t30.5 -125.5t65.5 -102.5t100 -69t133.5 -25.5q91 0 174.5 40.5t143.5 107t100.5 148.5t54.5 167q18 114 -12 218t-112 173.5t-202 69.5z" />
<glyph unicode="r" horiz-adv-x="837" d="M817 979q-106 0 -197 -36t-153 -96.5t-101.5 -135t-52.5 -154.5l-84 -534q-6 -23 -26 -23h-45q-20 0 -17 23l160 997q3 22 23 22h30q19 0 19 -22l-31 -244q173 289 500 289q27 0 18 -21l-14 -45q-8 -20 -29 -20z" />
<glyph unicode="s" horiz-adv-x="1036" d="M453 53q166 0 255.5 66t106.5 168q12 80 -61 127t-234 71q-71 10 -114.5 18.5t-99.5 28.5t-85 46.5t-46 72.5t-7 107q22 141 137 224t291 83q205 0 367 -113q12 -8 12.5 -16t-6.5 -16l-19 -29q-13 -23 -35 -8q-90 60 -159.5 83t-169.5 23q-143 0 -229.5 -62.5 t-104.5 -166.5q-5 -34 -0.5 -60t23 -45t38.5 -31t62 -23t75.5 -17.5t96.5 -16.5q62 -9 113 -21.5t101.5 -34.5t82.5 -51t48 -72.5t7 -96.5q-21 -138 -143 -226t-314 -88q-94 0 -200 30.5t-199 98.5q-14 12 0 31l23 31q8 12 13.5 13.5t18.5 -7.5q156 -121 355 -121z" />
<glyph unicode="t" horiz-adv-x="890" d="M690 25q-90 -48 -198 -48q-132 0 -203 54.5t-85 156.5t7 246l86 531h-123q-24 0 -18 22l4 33q2 22 24 22h123l37 222q2 12 7 17t18 5h43q21 0 18 -22l-37 -222h416q23 0 18 -24l-4 -31q-3 -22 -24 -22h-416l-84 -521q-33 -212 16 -298.5t197 -86.5q55 0 86.5 6.5 t75.5 28.5q13 6 19 4t7 -14l5 -33q1 -10 -1.5 -15t-13.5 -11z" />
<glyph unicode="u" horiz-adv-x="1243" d="M868 23l31 229q-13 -27 -36.5 -59t-63 -71.5t-85 -70.5t-107.5 -52.5t-126 -21.5q-81 0 -148.5 28t-117 82.5t-69.5 143t-3 199.5l95 590q3 22 24 22h45q20 0 17 -22l-88 -559q-15 -101 0 -176t55 -125.5t97.5 -75.5t127.5 -25q96 0 186.5 61.5t149.5 158t76 202.5 l86 539q3 22 24 22h45q20 0 17 -22l-82 -526l-76 -471q-3 -23 -24 -23h-29q-18 0 -21 23z" />
<glyph unicode="v" horiz-adv-x="1021" d="M406 -23l-306 1043q-2 9 3.5 15.5t15.5 6.5h51q20 0 27 -22l254 -887h2l532 887q15 22 33 22h51q12 0 15 -6.5t-3 -15.5l-635 -1043q-10 -16 -20 -16h-4q-11 0 -16 16z" />
<glyph unicode="w" horiz-adv-x="1486" d="M207 1022l125 -858l469 893q9 18 20 18h15q13 0 16 -18l188 -893l394 856q10 22 32 22h54q20 0 12 -22l-475 -1022q-11 -23 -25 -23h-10q-17 0 -23 23l-194 922l-488 -922q-11 -23 -28 -23h-10q-14 0 -17 23l-153 1022q-2 13 1 17.5t15 4.5h55q24 0 27 -20z" />
<glyph unicode="x" horiz-adv-x="960" d="M479 469l-424 -446q-20 -23 -37 -23h-53q-28 0 -8 23l463 497l-305 500q-14 22 12 22h57q11 0 17 -4.5t14 -17.5l279 -449l409 449q17 22 37 22h55q28 0 9 -22l-455 -500l295 -497q12 -23 -15 -23h-55q-20 0 -31 23z" />
<glyph unicode="y" horiz-adv-x="1024" d="M483 119l535 901q12 22 33 22h53q24 0 10 -22l-850 -1415q-13 -23 -33 -23h-53q-24 0 -10 23l248 413l-283 1002q-3 12 -0.5 17t14.5 5h56q19 0 26 -22l252 -901h2z" />
<glyph unicode="z" horiz-adv-x="993" d="M815 0h-807q-8 0 -11 3t-3 13l2 7q1 10 14 26l828 912h-613q-23 0 -20 22l8 37q5 22 27 22h733q10 0 13 -3.5t1 -12.5l-4 -10q-2 -11 -14 -25l-828 -911h688q13 0 18.5 -4t2.5 -17l-8 -36q-6 -23 -27 -23z" />
<glyph unicode="{" horiz-adv-x="923" d="M74 489l6 41q2 17 26 23q78 21 145 88.5t79 142.5l24 162q15 95 47.5 173t72.5 130t91 91.5t99 62t101 36t92 17.5t77 4q24 0 18 -22l-6 -39q-3 -23 -26 -23q-28 0 -59 -3.5t-74.5 -15t-83.5 -30t-83 -52t-77 -77t-61 -108.5t-40 -144l-24 -162q-10 -56 -35.5 -105 t-59.5 -81.5t-68.5 -54t-68.5 -31.5l-2 -4q70 -22 117 -92.5t29 -179.5l-25 -162q-12 -64 -8 -116t13.5 -93.5t30.5 -73t43.5 -55t52.5 -40t56.5 -26.5t57 -16t52.5 -8t44 -2q23 0 17 -23l-7 -39q-2 -22 -24 -22q-56 0 -110.5 8.5t-122.5 41t-114 85t-68 150.5t-1 229 l25 162q13 75 -32 142.5t-116 88.5q-23 3 -20 22z" />
<glyph unicode="|" horiz-adv-x="507" d="M72 -180l282 1794q6 22 29 22h33q14 0 17 -4.5t1 -17.5l-282 -1794q-6 -23 -29 -23h-33q-13 0 -16.5 5t-1.5 18z" />
<glyph unicode="}" horiz-adv-x="923" d="M848 530l-4 -41q-5 -19 -29 -22q-78 -21 -144 -88t-79 -143l-25 -162q-15 -95 -47.5 -173t-72.5 -130t-91 -91.5t-98.5 -62t-100 -36t-91 -17.5t-76.5 -4q-11 0 -15.5 4.5t-3.5 17.5l6 39q3 23 25 23q29 0 59.5 3.5t74 14.5t83.5 29.5t82.5 52t76.5 77t61 109t40 144.5 l25 162q10 57 35.5 106t60 81.5t69.5 53.5t70 31v4q-71 22 -118 93t-29 179l24 162q12 64 8 116t-13.5 93t-30.5 73t-43.5 55t-52.5 39.5t-56.5 27t-56 16.5t-52 8t-43.5 2q-12 0 -15.5 5t-2.5 18l6 39q3 22 25 22q56 0 110.5 -8.5t122.5 -41t114 -85t68 -150.5t1 -229 l-25 -162q-10 -75 34 -142.5t113 -88.5q26 -6 21 -23z" />
<glyph unicode="~" horiz-adv-x="1056" d="M510 786q-39 44 -68 62t-67 18q-62 0 -100.5 -25.5t-79.5 -92.5q-13 -13 -19 -15.5t-20 2.5l-23 19q-17 15 4 39q23 31 42 52.5t48.5 45.5t68 36.5t83.5 12.5q54 0 93 -22t79 -66q41 -46 65.5 -61t63.5 -15q60 0 99.5 26t80.5 93q12 16 19.5 18t19.5 -6l19 -18 q19 -14 0 -39q-23 -32 -42 -53t-48.5 -45.5t-68 -37t-83.5 -12.5q-56 0 -93.5 20.5t-72.5 63.5z" />
<glyph unicode="&#xa1;" horiz-adv-x="696" d="M186 -643l154 913q3 23 25 23h41q21 0 18 -23l-139 -913q-3 -23 -27 -23h-53q-25 0 -19 23zM365 707q5 34 34 59t64 25q36 0 57.5 -25t16.5 -59q-6 -37 -35 -63t-66 -26q-35 0 -56 26t-15 63z" />
<glyph unicode="&#xa2;" horiz-adv-x="1118" d="M389 -274l76 260q-127 24 -215 103.5t-123.5 192t-15.5 238.5q17 110 77.5 212.5t145 176t189.5 116.5t208 40l51 -2l60 197q4 14 10.5 18t19.5 2l19 -2q14 -3 18 -8.5t0 -18.5l-61 -198q65 -13 130.5 -53t106.5 -89q14 -17 0 -34l-30 -27q-20 -16 -31 -2q-37 47 -92 79 t-107 44l-272 -912q206 -5 367 136q19 14 30 -2l21 -27q11 -16 -8 -35q-186 -159 -433 -156l-73 -256q-4 -13 -10.5 -17.5t-20.5 -2.5l-20 2q-13 2 -17 7t0 18zM199 520q-14 -90 6 -172t63.5 -139t101 -93.5t119.5 -45.5l271 911q-102 7 -199.5 -28.5t-171.5 -99t-125 -151 t-65 -182.5z" />
<glyph unicode="&#xa3;" horiz-adv-x="1067" d="M143 711h133q-5 13 -44 89.5t-53 138t-3 134.5q9 56 31 109.5t61 104.5t90.5 89t124.5 61t158 23q201 0 399 -145q13 -8 0 -29l-28 -37q-16 -20 -33 -6q-59 53 -166 93t-184 40q-80 0 -147 -28t-111 -74t-71 -99t-36 -108q-5 -32 -1 -67t18 -77.5t24 -67.5t33.5 -77 t30.5 -67h460q12 0 16 -5t3 -18l-2 -16q-5 -21 -27 -21h-448q0 -74 -27 -164t-59 -157t-70 -142.5t-49 -105.5h672q13 0 16.5 -4.5t1.5 -18.5l-6 -34q-3 -25 -25 -25h-768q-23 0 -20 23q4 24 44.5 99.5t85.5 157.5t81.5 187t34.5 184h-150q-13 0 -17.5 4.5t-2.5 16.5l4 16 q1 13 6.5 18t19.5 5z" />
<glyph unicode="&#xa4;" horiz-adv-x="1056" d="M178 700q16 121 111 226l-117 137q-11 16 4 31l23 22q17 14 30 -2l117 -139q113 76 238 76q122 0 209 -78l163 141q14 14 31 0l14 -20q12 -15 -4 -31l-166 -141q65 -99 48 -222q-20 -121 -115 -221l119 -141q12 -18 -6 -31l-23 -20q-17 -14 -31 0l-116 139 q-115 -74 -236 -74q-123 0 -211 76l-162 -137q-14 -16 -30 0l-15 18q-12 18 6 31l160 139q-61 102 -41 221zM252 700q-19 -119 42 -198.5t187 -79.5q127 0 216 79.5t108 198.5q18 119 -45.5 200t-188.5 81q-127 0 -215.5 -81t-103.5 -200z" />
<glyph unicode="&#xa5;" horiz-adv-x="1277" d="M623 674l608 737q18 23 37 23h49q28 0 14 -23l-545 -668h334q12 0 15.5 -4t1.5 -18l-4 -25q-3 -22 -25 -22h-375l-69 -82l-21 -72l-18 -121h440q12 0 15.5 -4.5t2.5 -17.5l-4 -25q-3 -22 -26 -22h-441l-49 -307q-3 -23 -24 -23h-45q-22 0 -19 23l49 307h-428 q-13 0 -16.5 4.5t-1.5 17.5l4 25q1 13 7 17.5t20 4.5h428l28 181l-49 94h-364q-13 0 -18 5t-3 17l4 25q3 13 9 17.5t18 4.5h321l-333 668q-12 23 12 23h57q19 0 31 -23z" />
<glyph unicode="&#xa6;" horiz-adv-x="536" d="M94 -172l123 776q3 23 25 23h28q22 0 19 -23l-123 -776q-3 -23 -25 -23h-28q-22 0 -19 23zM262 895l105 664q5 22 26 22h27q13 0 17.5 -5t2.5 -17l-106 -664q-3 -23 -25 -23h-28q-22 0 -19 23z" />
<glyph unicode="&#xa7;" horiz-adv-x="1300" d="M1174 393q-11 -76 -61 -160.5t-114 -130.5q114 -95 88 -260q-29 -183 -178.5 -298t-402.5 -115q-310 0 -512 153q-24 19 -8 37l28 35q15 18 35 4q83 -65 205.5 -105t245.5 -40q64 0 124 8.5t124 31.5t113.5 59t86.5 95t49 135q22 134 -81 201t-336 100q-55 8 -98 16 t-94 22t-88 31.5t-72.5 44.5t-55.5 60t-28.5 78.5t-0.5 100.5q16 88 71 166.5t124 130.5q-67 42 -93.5 102.5t-13.5 148.5q8 46 30 97t67.5 108.5t107.5 102.5t158 74.5t209 29.5q150 0 257.5 -37t219.5 -116q22 -14 8 -35l-24 -33q-20 -23 -37 -8q-193 145 -418 145 q-84 0 -157 -17.5t-123 -46.5t-89.5 -63.5t-63.5 -72.5t-37 -69t-17 -56q-8 -47 3.5 -85.5t41.5 -66.5t66.5 -48.5t92 -36t104 -25t115.5 -19.5q87 -13 152.5 -29.5t125.5 -45.5t95.5 -68t51.5 -97.5t4 -132.5zM666 692q-55 9 -102.5 19.5t-71 17.5t-45 14.5t-25.5 8.5 q-66 -37 -122.5 -112t-66.5 -142q-8 -47 3.5 -85.5t42 -66.5t67.5 -48.5t93 -36t104.5 -25t115.5 -19.5q71 -11 123.5 -23t72 -19t41 -17t24.5 -11q48 20 99.5 88.5t63.5 155.5q22 134 -80 200.5t-337 100.5z" />
<glyph unicode="&#xa8;" horiz-adv-x="761" d="M119 1397q5 29 29 50t55 21q28 0 45.5 -21t13.5 -50t-29 -50.5t-53 -21.5q-30 0 -48 21t-13 51zM498 1397q5 29 29 50t55 21q28 0 45.5 -21t13.5 -50t-29 -50.5t-53 -21.5q-30 0 -48 21t-13 51z" />
<glyph unicode="&#xa9;" horiz-adv-x="1701" d="M106 717q31 202 157.5 373t313.5 270.5t390 99.5q312 0 478 -197q137 -161 138 -407q2 -241 -124 -459q-132 -228 -355 -339q-171 -85 -373 -85q-152 0 -280.5 59t-212 158.5t-120 237t-12.5 289.5zM162 717q-30 -188 37 -347t211.5 -251t332.5 -92q304 0 520 199 q172 159 239 393q65 230 -1 430q-67 206 -253 297q-123 61 -287 61q-188 0 -362.5 -93t-291.5 -252t-145 -345zM799 403q-129 0 -202.5 91t-53.5 221q22 131 123 223t231 92q135 0 209 -92q9 -6 18 0l27 25q10 10 0 22q-88 107 -246 107q-154 0 -278.5 -110.5t-149.5 -266.5 q-23 -155 67 -264t244 -109q157 0 279 104q13 13 6 23l-20 25q-8 10 -19 2q-104 -93 -235 -93z" />
<glyph unicode="&#xaa;" horiz-adv-x="806" d="M242 1370q-18 -3 -23 14l-6 33q-3 17 14 21q22 6 89 14t133 8q142 0 190 -69.5t23 -233.5l-56 -342q-2 -9 -6 -12.5t-14 -3.5h-29q-15 0 -12 16l16 109q-38 -52 -111 -96t-167 -44q-99 0 -154.5 57t-40.5 152q17 104 95.5 155.5t207.5 51.5q107 0 201 -51 q21 136 -14.5 191t-141.5 55q-76 0 -194 -25zM389 1141q-208 0 -231 -148q-12 -70 28.5 -108.5t122.5 -38.5q73 0 143.5 45t114.5 104l15 92q-53 30 -93 42t-100 12z" />
<glyph unicode="&#xab;" horiz-adv-x="1048" d="M115 573l411 383q15 15 29 7l33 -21q16 -9 -2 -27l-414 -395l289 -395q11 -17 -6 -27l-41 -20q-14 -7 -27 6l-289 383q-23 29 -20 49l2 8q6 20 35 49zM532 573l412 383q15 15 29 7l33 -21q16 -9 -2 -27l-414 -395l289 -395q10 -15 -7 -27l-38 -20q-15 -8 -29 6l-289 383 q-23 29 -20 49l2 8q2 18 34 49z" />
<glyph unicode="&#xac;" horiz-adv-x="1044" d="M805 147l74 478h-721q-14 0 -18 4.5t-3 17.5l6 29q3 24 27 24h776q24 0 19 -22l-82 -528q-3 -25 -29 -25h-33q-12 0 -15 4.5t-1 17.5z" />
<glyph unicode="&#xad;" horiz-adv-x="815" d="M684 545h-565q-14 0 -18 4t-3 16l6 31q3 25 25 25h565q25 0 19 -23l-4 -33q-1 -12 -7 -16t-18 -4z" />
<glyph unicode="&#xae;" horiz-adv-x="1701" d="M1139 866q-14 -91 -75.5 -150.5t-135.5 -76.5l168 -285q1 -7 -3 -9.5t-16 -2.5h-43q-14 0 -22 10l-162 281h-199l-45 -281q-2 -10 -14 -10h-41q-7 0 -9 0.5t-3.5 2.5t0.5 7l116 729q2 11 15 11h252q50 0 91 -11t74.5 -35.5t47.5 -70.5t4 -109zM659 694h199q90 0 145.5 45 t69.5 127q13 88 -30.5 126t-137.5 38h-192zM106 717q31 202 157.5 373t313.5 270.5t390 99.5q151 0 279 -59t212 -158.5t121 -237t14 -288.5q-24 -152 -105 -289.5t-196.5 -237t-262.5 -158.5t-298 -59q-152 0 -280.5 59t-212 158.5t-120 237t-12.5 289.5zM160 717 q-30 -189 36.5 -348t210.5 -251.5t332 -92.5q187 0 360.5 92.5t292 252t148.5 347.5q29 186 -39 345t-212.5 252t-330.5 93q-188 0 -362 -93t-291 -252t-145 -345z" />
<glyph unicode="&#xaf;" horiz-adv-x="743" d="M612 1386h-493q-24 0 -21 23l6 27q3 24 25 24h494q23 0 20 -22l-6 -31q-3 -21 -25 -21z" />
<glyph unicode="&#xb0;" horiz-adv-x="833" d="M106 1147q20 130 123 218.5t234 88.5q130 0 206 -88.5t56 -218.5q-22 -131 -125 -220t-233 -89q-131 0 -207 89t-54 220zM178 1147q-17 -101 40.5 -170.5t158.5 -69.5q97 0 178 69.5t98 170.5q14 95 -45 165t-155 70q-100 0 -180.5 -70t-94.5 -165z" />
<glyph unicode="&#xb1;" horiz-adv-x="1116" d="M684 1331l-53 -327h332q12 0 16.5 -5t1.5 -18l-4 -35q-3 -11 -8.5 -15.5t-18.5 -4.5h-329l-50 -303q-3 -23 -24 -23h-33q-23 0 -20 23l49 303h-330q-13 0 -17.5 5t-2.5 17l4 31q3 15 8 20t20 5h328l53 327q3 23 25 23h37q19 0 16 -23zM842 207h-752q-21 0 -18 20l6 35 q3 23 26 23h750q13 0 16.5 -4t1.5 -17l-6 -37q-3 -20 -24 -20z" />
<glyph unicode="&#xb2;" horiz-adv-x="591" d="M453 1346l-283 -314h285q9 0 12 -3t2 -13l-4 -33q-3 -16 -21 -16h-397q-9 0 -6 6v6q0 5 12 20l338 369q41 45 52 84t-3.5 62.5t-41 37t-58.5 13.5q-96 0 -172 -66q-14 -13 -25 -2l-22 27q-6 10 6 22q106 82 223 82q89 0 133 -45t34.5 -110.5t-64.5 -126.5z" />
<glyph unicode="&#xb3;" horiz-adv-x="598" d="M233 950q-125 0 -196 86q-9 15 2 23l27 24q14 11 24 -2q21 -24 33.5 -35t44.5 -22.5t76 -11.5q168 0 192 131q6 48 -37 82.5t-116 34.5h-60q-19 0 -14 18l2 22q2 11 6 15t14 4h60q74 0 128 34.5t62 82.5q10 61 -25 96t-124 35q-44 0 -79.5 -12t-52 -24t-42.5 -36 q-16 -13 -29 0l-18 23q-8 12 6 22q104 88 225 88q59 0 107 -17.5t77.5 -62t18.5 -110.5q-8 -59 -50.5 -98t-97.5 -52v-2q48 -10 79.5 -49t21.5 -100q-14 -94 -92 -140.5t-173 -46.5z" />
<glyph unicode="&#xb4;" horiz-adv-x="512" d="M420 1407l-244 -207q-21 -14 -41 -14h-45q-11 0 -13 6t9 16l295 262q17 17 27 -2l18 -36q5 -14 -6 -25z" />
<glyph unicode="&#xb5;" horiz-adv-x="1277" d="M936 23l31 239q-23 -34 -33.5 -49t-39.5 -51.5t-49.5 -55.5t-55.5 -48t-67 -43.5t-75 -26t-88 -11.5q-97 0 -172.5 46t-101.5 135l-88 -553q-3 -23 -25 -23h-45q-21 0 -18 23l227 1415q3 22 22 22h45q22 0 19 -22l-88 -555q-7 -56 -9.5 -113t13 -109.5t42.5 -93.5 t79.5 -65.5t124.5 -24.5q93 0 183.5 68t152 174t81.5 221l78 498q5 22 25 22h45q21 0 18 -22l-157 -997q-6 -23 -27 -23h-31q-16 0 -16 23z" />
<glyph unicode="&#xb6;" horiz-adv-x="1515" d="M496 -463l155 981q-239 0 -367 122t-94 341q17 108 69 196t123.5 143t154 84.5t165.5 29.5h859q26 0 20 -23l-8 -41q-6 -20 -27 -20h-262l-289 -1815q-3 -22 -24 -22h-37q-24 0 -19 22l287 1815h-340l-287 -1813q-3 -22 -26 -22h-37q-22 0 -16 22z" />
<glyph unicode="&#xb7;" horiz-adv-x="419" d="M111 702q6 40 39.5 69.5t74.5 29.5t64.5 -29.5t17.5 -69.5q-6 -41 -39.5 -70.5t-74.5 -29.5t-65 29.5t-17 70.5z" />
<glyph unicode="&#xb8;" horiz-adv-x="544" d="M233 -23l58 -4l-45 -141q117 0 167.5 -43t35.5 -133q-12 -76 -68.5 -121t-136.5 -45q-96 0 -181 72q-14 10 -2 22l23 23q9 9 20 2q63 -55 152 -55q112 0 129 102q9 61 -23.5 88t-117.5 27h-62q-18 0 -12 16z" />
<glyph unicode="&#xb9;" horiz-adv-x="473" d="M125 1509l158 82q22 11 34 11h27q17 0 14 -19l-94 -598q-5 -18 -20 -18h-33q-17 0 -14 18l86 537l-164 -76q-6 -3 -11 -1t-4 9l7 37q2 12 14 18z" />
<glyph unicode="&#xba;" horiz-adv-x="688" d="M80 1116q15 98 53.5 173.5t107 123t158.5 47.5q68 0 115.5 -27.5t69.5 -74t29.5 -109.5t-5.5 -133q-25 -152 -105 -248t-212 -96q-90 0 -144.5 47.5t-67 124t0.5 172.5zM150 1116q-22 -127 13.5 -201.5t137.5 -74.5q194 0 238 276q11 80 3.5 141.5t-47 98.5t-108.5 37 q-102 0 -160 -75.5t-77 -201.5z" />
<glyph unicode="&#xbb;" horiz-adv-x="1048" d="M659 956l289 -383q24 -30 21 -49l-2 -8q-3 -20 -37 -49l-410 -383q-16 -13 -28 -6l-33 20q-13 11 0 27l415 395l-288 395q-11 16 6 27l39 21q11 4 15.5 2.5t12.5 -9.5zM242 956l288 -383q24 -30 21 -49l-2 -8q-3 -20 -37 -49l-410 -383q-16 -13 -28 -6l-33 20 q-13 11 0 27l416 395l-289 395q-10 16 6 27l39 21q15 7 29 -7z" />
<glyph unicode="&#xbc;" horiz-adv-x="1282" d="M1104 1411l-930 -1391q-15 -20 -37 -20h-31q-26 0 -12 23l930 1390q13 21 33 21h35q26 0 12 -23zM180 1341l158 82q22 11 35 11h26q18 0 15 -19l-95 -598q-5 -18 -20 -18h-33q-11 0 -14 4t-2 14l86 535l-162 -76q-8 -2 -11.5 0.5t-2.5 9.5l6 37q3 13 14 18zM1012 635h45 q17 0 14 -19l-59 -376h106q18 0 15 -17l-5 -26q-3 -17 -20 -17h-107l-24 -162q-3 -18 -21 -18h-28q-18 0 -15 18l25 162h-281q-20 0 -14 17l2 24q3 15 23 39l313 361q14 14 31 14zM999 555l-276 -315h225z" />
<glyph unicode="&#xbd;" horiz-adv-x="1351" d="M1149 1411l-932 -1391q-13 -20 -33 -20h-32q-30 0 -13 23l930 1390q13 21 33 21h35q26 0 12 -23zM180 1341l158 82q22 11 35 11h26q15 0 15 -19l-95 -598q-5 -18 -20 -18h-33q-11 0 -14 4t-2 14l86 535l-162 -76q-8 -2 -11.5 0.5t-2.5 9.5l6 37q0 12 14 18zM872 66 l285 313q54 61 63.5 127t-34.5 111t-133 45q-116 0 -222 -82q-18 -15 -6 -23l21 -27q15 -11 26 2q73 66 172 66q33 0 59.5 -13.5t41 -37t3.5 -62.5t-52 -84l-340 -368q-11 -14 -11 -21v-6q0 -6 7 -6h397q17 0 20 16l5 33q3 17 -17 17h-285z" />
<glyph unicode="&#xbe;" horiz-adv-x="1378" d="M1196 1411l-932 -1391q-12 -20 -33 -20h-32q-29 0 -15 23l932 1390q13 21 33 21h33q28 0 14 -23zM297 782q-123 0 -199 88q-10 10 2 23l27 22q14 14 27 -2q19 -23 31.5 -34.5t44 -23t75.5 -11.5q89 0 136 35t55 96q8 48 -35 82.5t-117 34.5h-59q-20 0 -17 18l4 23 q3 18 23 18h59q74 0 127.5 34.5t61.5 82.5q10 61 -26 96t-124 35q-44 0 -79 -11.5t-52.5 -23.5t-42.5 -35q-15 -13 -26 -2l-19 23q-10 10 4 24q102 86 225 86q43 0 81 -10t69.5 -31.5t46 -59t6.5 -87.5q-8 -60 -50.5 -99t-94.5 -53v-2q48 -10 78 -49t20 -100 q-11 -64 -54 -108t-96 -61.5t-112 -17.5zM1104 635h45q20 0 14 -19l-59 -376h104q20 0 17 -17l-4 -26q-3 -17 -21 -17h-106l-25 -162q-3 -18 -20 -18h-29q-17 0 -14 18l24 162h-280q-20 0 -17 17l4 24q3 15 23 39l311 361q17 14 33 14zM1092 555l-277 -315h225z" />
<glyph unicode="&#xbf;" horiz-adv-x="1040" d="M600 106q18 3 21 23l36 225q6 23 -18 23h-39q-13 0 -18.5 -5t-8.5 -18l-28 -188q-112 -23 -200.5 -54.5t-170.5 -80t-134 -121t-67 -164.5q-10 -61 0 -121t44 -117t88.5 -100t141.5 -69.5t197 -26.5q209 0 469 158q22 11 15 32l-17 35q-6 11 -11.5 12t-16.5 -6 q-124 -74 -223 -110.5t-197 -36.5q-210 0 -317.5 100t-82.5 252q12 73 60 134t123.5 103.5t162.5 72t191 48.5zM760 707q-6 -37 -35.5 -64t-65.5 -27q-37 0 -59 27t-16 64t36.5 62.5t67.5 25.5t57.5 -25.5t14.5 -62.5z" />
<glyph unicode="&#xc0;" horiz-adv-x="1421" d="M807 1307h-4l-479 -799h708zM850 1456l420 -1433q3 -9 -2 -16t-17 -7h-57q-19 0 -25 23l-116 405h-774l-242 -405q-17 -23 -35 -23h-59q-10 0 -12.5 7t3.5 16l875 1433q9 17 20 17h7q7 0 14 -17zM768 1591l-244 207q-11 11 -6 25l19 37q9 19 26 2l295 -263 q11 -11 9 -16.5t-13 -5.5h-45q-20 0 -41 14z" />
<glyph unicode="&#xc1;" horiz-adv-x="1421" d="M807 1307h-4l-479 -799h708zM850 1456l420 -1433q3 -9 -2 -16t-17 -7h-57q-19 0 -25 23l-116 405h-774l-242 -405q-17 -23 -35 -23h-59q-10 0 -12.5 7t3.5 16l875 1433q9 17 20 17h7q7 0 14 -17zM1124 1798l-243 -207q-21 -14 -41 -14h-45q-11 0 -13 5.5t9 16.5l294 263 q17 17 27 -2l18 -37q5 -14 -6 -25z" />
<glyph unicode="&#xc2;" horiz-adv-x="1421" d="M807 1307h-4l-479 -799h708zM850 1456l420 -1433q3 -9 -2 -16t-17 -7h-57q-19 0 -25 23l-116 405h-774l-242 -405q-17 -23 -35 -23h-59q-10 0 -12.5 7t3.5 16l875 1433q9 17 20 17h7q7 0 14 -17zM881 1933h22q10 0 15 -5t12 -17l178 -324q13 -22 -14 -22h-37 q-22 0 -33 22l-143 273l-228 -273q-17 -22 -43 -22h-37q-23 0 -4 22l277 324q22 22 35 22z" />
<glyph unicode="&#xc3;" horiz-adv-x="1421" d="M807 1307h-4l-479 -799h708zM850 1456l420 -1433q3 -9 -2 -16t-17 -7h-57q-19 0 -25 23l-116 405h-774l-242 -405q-17 -23 -35 -23h-59q-10 0 -12.5 7t3.5 16l875 1433q9 17 20 17h7q7 0 14 -17zM1010 1743q60 0 96 22.5t70 85.5q11 18 17.5 21.5t20.5 -2.5l19 -8 q11 -6 12.5 -13.5t-6.5 -25.5q-17 -30 -35 -53t-46 -47.5t-66 -38t-84 -13.5q-56 0 -91 18t-71 60q-38 43 -66 59.5t-65 16.5q-60 0 -95 -22t-71 -87q-16 -26 -37 -18l-25 10q-18 10 0 37q82 151 230 151q55 0 92 -19.5t76 -61.5q40 -45 63.5 -58.5t61.5 -13.5z" />
<glyph unicode="&#xc4;" horiz-adv-x="1421" d="M877 1323h-5l-479 -799h709zM920 1473l419 -1434q3 -9 -1.5 -16t-16.5 -7h-57q-19 0 -25 23l-117 405h-774l-242 -405q-17 -23 -34 -23h-60q-10 0 -12 7t4 16l875 1434q8 16 20 16h6q9 0 15 -16zM612 1788q5 30 29.5 51t54.5 21q28 0 46 -21.5t14 -50.5t-29 -50.5 t-53 -21.5q-31 0 -49 21.5t-13 50.5zM991 1788q5 30 29.5 51t54.5 21q28 0 46 -21.5t14 -50.5t-29 -50.5t-53 -21.5q-31 0 -49 21.5t-13 50.5z" />
<glyph unicode="&#xc5;" horiz-adv-x="1421" d="M807 1307h-4l-479 -799h708zM850 1456l420 -1433q3 -9 -2 -16t-17 -7h-57q-19 0 -25 23l-116 405h-774l-242 -405q-17 -23 -35 -23h-59q-10 0 -12.5 7t3.5 16l875 1433q9 17 20 17h7q7 0 14 -17zM846 1581q-94 0 -141.5 62t-32.5 157q14 95 81 156t160 61t142 -61 t35 -156q-15 -94 -83.5 -156.5t-160.5 -62.5zM854 1638q69 0 118 48.5t60 113.5q8 66 -24.5 114t-100.5 48q-69 0 -119 -48.5t-59 -113.5q-10 -65 24 -113.5t101 -48.5z" />
<glyph unicode="&#xc6;" horiz-adv-x="1970" d="M795 0q-22 0 -19 23l64 405h-500l-301 -405q-18 -23 -37 -23h-55q-9 0 -12.5 7t2.5 16l993 1355q21 31 32.5 43.5t24.5 12.5h944q22 0 19 -23l-6 -37q-3 -22 -27 -22h-836l-92 -586h793q12 0 16.5 -5t1.5 -18l-4 -36q-6 -23 -27 -23h-794l-94 -602h835q13 0 17 -4.5 t2 -18.5l-6 -36q-3 -23 -25 -23h-909zM981 1321l-588 -813h461z" />
<glyph unicode="&#xc7;" horiz-adv-x="1480" d="M610 -213l64 190q-171 23 -302.5 131t-192.5 270.5t-34 338.5q24 153 103.5 290.5t193 236.5t258.5 157.5t295 58.5t285.5 -56.5t216.5 -154.5q14 -14 -2 -30l-39 -37q-18 -18 -35 0q-63 82 -176 138t-262 56q-127 0 -254.5 -55t-228.5 -145t-172.5 -211t-91.5 -248 q-26 -171 36.5 -323t196 -244.5t303.5 -92.5q151 0 280.5 56t229.5 143q16 16 31 0l26 -35q15 -18 -10 -37q-113 -99 -270.5 -155t-327.5 -56l-45 -141q117 0 167.5 -43t35.5 -133q-12 -76 -69.5 -121t-137.5 -45q-93 0 -178 72q-14 10 -2 22l20 23q12 10 23 2 q63 -55 151 -55q113 0 127 102q11 61 -21 88t-116 27h-63q-16 0 -13 16z" />
<glyph unicode="&#xc8;" d="M1010 0h-904q-23 0 -20 23l221 1388q6 23 27 23h903q24 0 18 -23l-6 -37q-2 -22 -26 -22h-836l-92 -586h797q12 0 16.5 -5t1.5 -18l-4 -36q-6 -23 -27 -23h-798l-95 -602h838q12 0 15 -4.5t1 -18.5l-6 -36q-3 -23 -24 -23zM797 1591l-179 207q-12 12 0 25l31 37 q15 19 27 2l213 -263q16 -22 -10 -22h-45q-23 0 -37 14z" />
<glyph unicode="&#xc9;" d="M1010 0h-904q-23 0 -20 23l221 1388q6 23 27 23h903q24 0 18 -23l-6 -37q-2 -22 -26 -22h-836l-92 -586h797q12 0 16.5 -5t1.5 -18l-4 -36q-6 -23 -27 -23h-798l-95 -602h838q12 0 15 -4.5t1 -18.5l-6 -36q-3 -23 -24 -23zM995 1798l-243 -207q-21 -14 -41 -14h-45 q-11 0 -13 5.5t9 16.5l294 263q17 17 27 -2l18 -37q5 -14 -6 -25z" />
<glyph unicode="&#xca;" horiz-adv-x="1265" d="M831 1933h23q10 0 15 -5t12 -17l178 -324q6 -11 1.5 -16.5t-16.5 -5.5h-36q-22 0 -33 22l-144 273l-227 -273q-16 -22 -43 -22h-37q-23 0 -4 22l277 324q22 22 34 22zM1012 0h-903q-24 0 -21 23l221 1388q6 23 27 23h903q24 0 18 -23l-6 -37q-2 -22 -26 -22h-836 l-92 -586h797q12 0 16.5 -5t1.5 -18l-4 -36q-6 -23 -27 -23h-798l-95 -602h838q12 0 15 -4.5t1 -18.5l-6 -36q-3 -23 -24 -23z" />
<glyph unicode="&#xcb;" d="M1010 0h-904q-23 0 -20 23l221 1388q6 23 27 23h903q24 0 18 -23l-6 -37q-2 -22 -26 -22h-836l-92 -586h797q12 0 16.5 -5t1.5 -18l-4 -36q-6 -23 -27 -23h-798l-95 -602h838q12 0 15 -4.5t1 -18.5l-6 -36q-3 -23 -24 -23zM565 1788q5 30 29.5 51t54.5 21q28 0 46 -21.5 t14 -50.5t-29 -50.5t-53 -21.5q-31 0 -49 21.5t-13 50.5zM944 1788q5 30 29.5 51t54.5 21q28 0 45.5 -21.5t13.5 -50.5t-28.5 -50.5t-52.5 -21.5q-31 0 -49 21.5t-13 50.5z" />
<glyph unicode="&#xcc;" horiz-adv-x="620" d="M139 23l221 1388q6 23 27 23h47q23 0 17 -23l-222 -1388q-3 -23 -24 -23h-45q-24 0 -21 23zM365 1591l-179 207q-12 12 0 25l31 37q15 19 27 2l213 -263q16 -22 -11 -22h-45q-22 0 -36 14z" />
<glyph unicode="&#xcd;" horiz-adv-x="612" d="M150 23l221 1388q6 23 26 23h47q23 0 17 -23l-221 -1388q-3 -23 -25 -23h-45q-23 0 -20 23zM743 1798l-243 -207q-21 -14 -41 -14h-45q-11 0 -13 5.5t9 16.5l295 263q17 17 26 -2l19 -37q5 -13 -7 -25z" />
<glyph unicode="&#xce;" horiz-adv-x="614" d="M150 23l221 1388q6 23 26 23h47q23 0 17 -23l-221 -1388q-3 -23 -25 -23h-45q-23 0 -20 23zM473 1933h23q10 0 14.5 -4.5t11.5 -17.5l178 -324q13 -22 -14 -22h-37q-22 0 -33 22l-143 273l-227 -273q-16 -22 -43 -22h-37q-23 0 -4 22l276 324q22 22 35 22z" />
<glyph unicode="&#xcf;" horiz-adv-x="612" d="M150 23l221 1388q6 23 26 23h47q23 0 17 -23l-221 -1388q-3 -23 -25 -23h-45q-23 0 -20 23zM199 1788q5 30 29.5 51t54.5 21q28 0 45.5 -21.5t13.5 -50.5t-29 -50.5t-53 -21.5q-30 0 -48 21t-13 51zM578 1788q5 30 29.5 51t54.5 21q28 0 45.5 -21.5t13.5 -50.5t-29 -50.5 t-53 -21.5q-30 0 -48 21t-13 51z" />
<glyph unicode="&#xd0;" horiz-adv-x="1630" d="M78 768h229l105 643q3 23 26 23h494q149 0 270.5 -55t199 -150t109.5 -228t9 -284q-33 -202 -149.5 -366t-292 -257.5t-373.5 -93.5h-496q-10 0 -16 6t-3 17l107 665h-231q-25 0 -19 23l4 34q7 23 27 23zM915 1352h-423l-95 -584h402q11 0 16 -6.5t2 -16.5l-4 -34 q-6 -23 -27 -23h-399l-96 -606h424q133 0 256.5 51t216.5 137.5t157.5 202.5t84.5 244q27 170 -27 315t-183 232.5t-305 87.5z" />
<glyph unicode="&#xd1;" horiz-adv-x="1591" d="M410 1274l-199 -1251q-6 -23 -27 -23h-45q-24 0 -18 23l225 1421q1 10 5.5 13t15.5 3h6q11 0 20 -12l787 -1286l198 1249q1 13 7 18t18 5h47q12 0 15.5 -5t2.5 -18l-227 -1421q-2 -17 -18 -17h-4q-16 0 -25 15zM1083 1743q60 0 96 22.5t70 85.5q11 17 18 21t21 -2l19 -8 q11 -6 12.5 -13.5t-6.5 -25.5q-87 -152 -232 -152q-56 0 -90.5 18t-70.5 60q-38 42 -66.5 59t-65.5 17q-60 0 -94.5 -22t-70.5 -87q-16 -26 -37 -18l-25 10q-18 10 0 37q82 151 230 151q55 0 91.5 -19.5t75.5 -61.5q40 -45 63.5 -58.5t61.5 -13.5z" />
<glyph unicode="&#xd2;" horiz-adv-x="1681" d="M109 717q23 153 102 290.5t192 236.5t258 157.5t295 58.5q195 0 348 -100t226 -271.5t43 -371.5q-22 -150 -102.5 -288t-195 -237.5t-260.5 -159t-294 -59.5q-147 0 -272 59.5t-207 159t-118.5 237.5t-14.5 288zM205 717q-16 -105 0.5 -204.5t62.5 -181t113.5 -143.5 t158.5 -96.5t193 -34.5q128 0 256 55t228 145.5t170 211.5t90 248q20 129 -12.5 251t-104.5 211t-181 143t-235 54q-169 0 -331.5 -92t-272.5 -244.5t-135 -322.5zM958 1591l-178 207q-12 12 0 25l31 37q15 19 27 2l213 -263q16 -22 -11 -22h-45q-23 0 -37 14z" />
<glyph unicode="&#xd3;" horiz-adv-x="1681" d="M109 717q23 153 102 290.5t192 236.5t258 157.5t295 58.5q195 0 348 -100t226 -271.5t43 -371.5q-22 -150 -102.5 -288t-195 -237.5t-260.5 -159t-294 -59.5q-147 0 -272 59.5t-207 159t-118.5 237.5t-14.5 288zM205 717q-16 -105 0.5 -204.5t62.5 -181t113.5 -143.5 t158.5 -96.5t193 -34.5q128 0 256 55t228 145.5t170 211.5t90 248q20 129 -12.5 251t-104.5 211t-181 143t-235 54q-169 0 -331.5 -92t-272.5 -244.5t-135 -322.5zM1229 1798l-244 -207q-21 -14 -41 -14h-45q-11 0 -13 5.5t9 16.5l295 263q17 17 27 -2l18 -37q5 -14 -6 -25z " />
<glyph unicode="&#xd4;" horiz-adv-x="1681" d="M109 717q23 153 102 290.5t192 236.5t258 157.5t295 58.5q195 0 348 -100t226 -271.5t43 -371.5q-22 -150 -102.5 -288t-195 -237.5t-260.5 -159t-294 -59.5q-147 0 -272 59.5t-207 159t-118.5 237.5t-14.5 288zM205 717q-16 -105 0.5 -204.5t62.5 -181t113.5 -143.5 t158.5 -96.5t193 -34.5q128 0 256 55t228 145.5t170 211.5t90 248q20 129 -12.5 251t-104.5 211t-181 143t-235 54q-169 0 -331.5 -92t-272.5 -244.5t-135 -322.5zM1028 1933h23q7 0 11.5 -3t7 -6.5t7.5 -12.5l178 -324q13 -22 -14 -22h-37q-22 0 -33 22l-143 273l-227 -273 q-17 -22 -43 -22h-37q-23 0 -4 22l276 324q22 22 35 22z" />
<glyph unicode="&#xd5;" horiz-adv-x="1681" d="M109 717q23 153 102 290.5t192 236.5t258 157.5t295 58.5q195 0 348 -100t226 -271.5t43 -371.5q-22 -150 -102.5 -288t-195 -237.5t-260.5 -159t-294 -59.5q-147 0 -272 59.5t-207 159t-118.5 237.5t-14.5 288zM205 717q-16 -105 0.5 -204.5t62.5 -181t113.5 -143.5 t158.5 -96.5t193 -34.5q128 0 256 55t228 145.5t170 211.5t90 248q20 129 -12.5 251t-104.5 211t-181 143t-235 54q-169 0 -331.5 -92t-272.5 -244.5t-135 -322.5zM1155 1743q60 0 96 22.5t70 85.5q11 17 18 21t21 -2l18 -8q11 -6 12.5 -13.5t-6.5 -25.5q-17 -30 -35 -53 t-46 -47.5t-66 -38t-84 -13.5q-56 0 -91 18t-71 60q-38 43 -66 59.5t-65 16.5q-60 0 -95 -22t-71 -87q-16 -26 -37 -18l-24 10q-18 10 0 37q82 151 229 151q55 0 92 -19.5t76 -61.5q40 -45 63.5 -58.5t61.5 -13.5z" />
<glyph unicode="&#xd6;" horiz-adv-x="1681" d="M109 717q23 153 102 290.5t192 236.5t258 157.5t295 58.5q195 0 348 -100t226 -271.5t43 -371.5q-22 -150 -102.5 -288t-195 -237.5t-260.5 -159t-294 -59.5q-147 0 -272 59.5t-207 159t-118.5 237.5t-14.5 288zM205 717q-16 -105 0.5 -204.5t62.5 -181t113.5 -143.5 t158.5 -96.5t193 -34.5q128 0 256 55t228 145.5t170 211.5t90 248q20 129 -12.5 251t-104.5 211t-181 143t-235 54q-169 0 -331.5 -92t-272.5 -244.5t-135 -322.5zM741 1788q5 30 29.5 51t54.5 21q28 0 46 -21.5t14 -50.5t-29 -50.5t-53 -21.5q-31 0 -49 21.5t-13 50.5z M1120 1788q5 30 29.5 51t54.5 21q28 0 46 -21.5t14 -50.5t-29 -50.5t-53 -21.5q-31 0 -49 21.5t-13 50.5z" />
<glyph unicode="&#xd7;" horiz-adv-x="800" d="M596 328l-201 237l-274 -237q-19 -16 -33 0l-20 24q-12 15 4 31l278 238l-203 237q-12 15 7 31l26 24q19 17 33 0l199 -237l274 237q19 17 33 0l22 -24q13 -13 -6 -31l-274 -237l198 -238q11 -16 -6 -31l-24 -24q-21 -18 -33 0z" />
<glyph unicode="&#xd8;" horiz-adv-x="1681" d="M109 719q23 152 102 289t192 236t258 157.5t295 58.5q72 0 150.5 -17t136.5 -44l74 106q14 17 33 17h39q13 0 15.5 -8t-5.5 -19l-94 -133q331 -236 268 -645q-24 -150 -104.5 -288t-194.5 -237.5t-259.5 -159t-293.5 -59.5q-87 0 -168.5 21t-138.5 55l-84 -121 q-13 -16 -33 -16h-35q-13 0 -17.5 7t3.5 18l104 149q-139 101 -207.5 267.5t-35.5 365.5zM1483 717q11 53 8 104t-8 93t-20.5 82t-30.5 72t-36.5 62t-39.5 51.5t-40 42t-37 33t-30 23.5l-782 -1153q42 -26 113 -48t155 -22q171 0 334.5 93t274.5 245t139 322zM199 717 q-6 -62 -7 -112.5t11 -99.5t24.5 -87t34.5 -74.5t40 -62.5t41.5 -50.5t38 -38t30.5 -26.5l782 1149q-119 61 -250 61q-168 0 -332 -92.5t-276 -245t-137 -321.5z" />
<glyph unicode="&#xd9;" horiz-adv-x="1458" d="M612 -27q-258 0 -385.5 159.5t-79.5 457.5l132 821q3 23 24 23h45q24 0 21 -23l-129 -811q-21 -146 -3.5 -249t74 -168.5t135 -95.5t181.5 -30t191.5 31t163.5 94t128 169.5t76 248.5l129 811q3 23 24 23h45q24 0 21 -23l-131 -821q-32 -200 -126.5 -340.5t-230.5 -208.5 t-305 -68zM848 1591l-178 207q-12 12 0 25l30 37q15 19 27 2l213 -263q16 -22 -10 -22h-45q-23 0 -37 14z" />
<glyph unicode="&#xda;" horiz-adv-x="1458" d="M612 -27q-258 0 -385.5 159.5t-79.5 457.5l132 821q3 23 24 23h45q24 0 21 -23l-129 -811q-21 -146 -3.5 -249t74 -168.5t135 -95.5t181.5 -30t191.5 31t163.5 94t128 169.5t76 248.5l129 811q3 23 24 23h45q24 0 21 -23l-131 -821q-32 -200 -126.5 -340.5t-230.5 -208.5 t-305 -68zM1049 1798l-244 -207q-21 -14 -41 -14h-45q-11 0 -13 5.5t9 16.5l295 263q17 17 26 -2l19 -37q5 -14 -6 -25z" />
<glyph unicode="&#xdb;" horiz-adv-x="1458" d="M612 -27q-258 0 -385.5 159.5t-79.5 457.5l132 821q3 23 24 23h45q24 0 21 -23l-129 -811q-21 -146 -3.5 -249t74 -168.5t135 -95.5t181.5 -30t191.5 31t163.5 94t128 169.5t76 248.5l129 811q3 23 24 23h45q24 0 21 -23l-131 -821q-32 -200 -126.5 -340.5t-230.5 -208.5 t-305 -68zM911 1933h23q10 0 15 -5t12 -17l178 -324q6 -11 1.5 -16.5t-16.5 -5.5h-37q-21 0 -32 22l-144 273l-227 -273q-16 -22 -43 -22h-37q-23 0 -4 22l277 324q22 22 34 22z" />
<glyph unicode="&#xdc;" horiz-adv-x="1458" d="M612 -27q-258 0 -385.5 159.5t-79.5 457.5l132 821q3 23 24 23h45q24 0 21 -23l-129 -811q-21 -146 -3.5 -249t74 -168.5t135 -95.5t181.5 -30t191.5 31t163.5 94t128 169.5t76 248.5l129 811q3 23 24 23h45q24 0 21 -23l-131 -821q-32 -200 -126.5 -340.5t-230.5 -208.5 t-305 -68zM621 1788q5 30 29.5 51t54.5 21q28 0 45.5 -21.5t13.5 -50.5t-29 -50.5t-53 -21.5q-30 0 -48 21t-13 51zM999 1788q5 30 29.5 51t54.5 21q28 0 46 -21.5t14 -50.5t-29 -50.5t-53 -21.5q-31 0 -49 21.5t-13 50.5z" />
<glyph unicode="&#xdd;" horiz-adv-x="1236" d="M559 580l-416 831q-11 23 13 23h53q14 0 21.5 -5t13.5 -18l372 -737l609 737q18 23 39 23h49q26 0 10 -23l-676 -831l-90 -557q-3 -23 -25 -23h-45q-21 0 -18 23zM936 1798l-244 -207q-21 -14 -41 -14h-45q-11 0 -13 5.5t9 16.5l295 263q17 17 27 -2l18 -37q5 -14 -6 -25 z" />
<glyph unicode="&#xde;" horiz-adv-x="1337" d="M659 0h-438l-63 -395q-3 -23 -25 -23h-43q-21 0 -18 23l290 1833q3 22 25 22h43q13 0 17.5 -5t1.5 -17l-62 -396h438q136 0 237 -67.5t146 -187.5t21 -267q-35 -223 -198.5 -371.5t-371.5 -148.5zM236 82h421q110 0 212 51.5t177.5 153.5t96.5 233q16 99 -5.5 183 t-70 140t-118.5 87t-152 31h-424z" />
<glyph unicode="&#xdf;" horiz-adv-x="1310" d="M664 778h102q145 0 255 69t128 183q25 160 -75.5 241t-297.5 81q-82 0 -152.5 -17t-132 -53t-103 -100t-54.5 -150l-70 -442l-90 -567q-3 -13 -8.5 -18t-18.5 -5h-45q-21 0 -18 23l160 1015q14 87 53 156.5t91.5 113.5t120.5 73t136 41t141 12h5q80 0 150 -12t133.5 -41 t105 -73t59.5 -113.5t4 -156.5q-8 -56 -34.5 -104t-59.5 -79.5t-73.5 -56.5t-74 -37.5t-63.5 -19.5v-2q25 -5 56 -17.5t73 -40.5t73 -64.5t48 -95.5t6 -128q-14 -88 -51 -156.5t-89 -112.5t-121 -72.5t-141 -40t-155 -11.5h-160q-21 0 -18 23l6 34q3 25 27 25h145 q412 0 465 321q19 121 -81.5 208t-258.5 87h-109q-12 0 -16.5 5t-3.5 18l6 33q3 24 25 24z" />
<glyph unicode="&#xe0;" horiz-adv-x="1144" d="M305 948q-21 -3 -26 21l-5 28q-3 23 27 31q40 10 144.5 23.5t209.5 13.5q228 0 305.5 -111.5t36.5 -373.5l-90 -557q-3 -23 -26 -23h-29q-21 0 -18 23l24 176q-26 -34 -69.5 -70.5t-103.5 -71.5t-139 -57.5t-159 -22.5q-159 0 -248 91t-65 247q27 166 153.5 249t335.5 83 q161 0 344 -84q36 232 -25.5 327t-242.5 95q-40 0 -77 -2t-79.5 -7.5t-60.5 -8t-67 -11t-50 -8.5zM563 575q-174 0 -278 -64.5t-125 -195.5q-19 -122 52.5 -192t211.5 -70q123 0 246 69t192 159l33 204q-100 48 -169.5 69t-162.5 21zM657 1200l-178 207q-13 13 0 25l31 36 q15 19 27 2l213 -262q16 -22 -11 -22h-45q-23 0 -37 14z" />
<glyph unicode="&#xe1;" horiz-adv-x="1144" d="M305 948q-21 -3 -26 21l-5 28q-3 23 27 31q40 10 144.5 23.5t209.5 13.5q228 0 305.5 -111.5t36.5 -373.5l-90 -557q-3 -23 -26 -23h-29q-21 0 -18 23l24 176q-26 -34 -69.5 -70.5t-103.5 -71.5t-139 -57.5t-159 -22.5q-159 0 -248 91t-65 247q27 166 153.5 249t335.5 83 q161 0 344 -84q36 232 -25.5 327t-242.5 95q-40 0 -77 -2t-79.5 -7.5t-60.5 -8t-67 -11t-50 -8.5zM563 575q-174 0 -278 -64.5t-125 -195.5q-19 -122 52.5 -192t211.5 -70q123 0 246 69t192 159l33 204q-100 48 -169.5 69t-162.5 21zM872 1407l-243 -207q-21 -14 -41 -14 h-45q-11 0 -13 6t9 16l295 262q17 17 26 -2l19 -36q5 -13 -7 -25z" />
<glyph unicode="&#xe2;" horiz-adv-x="1144" d="M305 948q-21 -3 -26 21l-5 28q-3 23 27 31q40 10 144.5 23.5t209.5 13.5q228 0 305.5 -111.5t36.5 -373.5l-90 -557q-3 -23 -26 -23h-29q-21 0 -18 23l24 176q-26 -34 -69.5 -70.5t-103.5 -71.5t-139 -57.5t-159 -22.5q-159 0 -248 91t-65 247q27 166 153.5 249t335.5 83 q161 0 344 -84q36 232 -25.5 327t-242.5 95q-40 0 -77 -2t-79.5 -7.5t-60.5 -8t-67 -11t-50 -8.5zM563 575q-174 0 -278 -64.5t-125 -195.5q-19 -122 52.5 -192t211.5 -70q123 0 246 69t192 159l33 204q-100 48 -169.5 69t-162.5 21zM692 1542h23q7 0 11.5 -3t7 -6.5 t7.5 -12.5l179 -324q6 -10 1.5 -16t-16.5 -6h-37q-21 0 -32 22l-144 272l-227 -272q-17 -22 -43 -22h-37q-23 0 -4 22l276 324q22 22 35 22z" />
<glyph unicode="&#xe3;" horiz-adv-x="1144" d="M305 948q-21 -3 -26 21l-5 28q-3 23 27 31q40 10 144.5 23.5t209.5 13.5q228 0 305.5 -111.5t36.5 -373.5l-90 -557q-3 -23 -26 -23h-29q-21 0 -18 23l24 176q-26 -34 -69.5 -70.5t-103.5 -71.5t-139 -57.5t-159 -22.5q-159 0 -248 91t-65 247q27 166 153.5 249t335.5 83 q161 0 344 -84q36 232 -25.5 327t-242.5 95q-40 0 -77 -2t-79.5 -7.5t-60.5 -8t-67 -11t-50 -8.5zM563 575q-174 0 -278 -64.5t-125 -195.5q-19 -122 52.5 -192t211.5 -70q123 0 246 69t192 159l33 204q-100 48 -169.5 69t-162.5 21zM817 1352q60 0 96 22.5t70 85.5 q11 17 18 21t21 -2l18 -9q11 -7 13 -13.5t-6 -24.5q-87 -152 -232 -152q-56 0 -91 18t-71 60q-38 43 -66 59.5t-65 16.5q-60 0 -95 -22t-71 -87q-16 -26 -37 -18l-24 10q-18 10 0 37q82 151 229 151q55 0 92 -20t76 -62q40 -44 63.5 -57.5t61.5 -13.5z" />
<glyph unicode="&#xe4;" horiz-adv-x="1144" d="M305 948q-21 -3 -26 21l-5 28q-3 23 27 31q40 10 144.5 23.5t209.5 13.5q228 0 305.5 -111.5t36.5 -373.5l-90 -557q-3 -23 -26 -23h-29q-21 0 -18 23l24 176q-26 -34 -69.5 -70.5t-103.5 -71.5t-139 -57.5t-159 -22.5q-159 0 -248 91t-65 247q27 166 153.5 249t335.5 83 q161 0 344 -84q36 232 -25.5 327t-242.5 95q-40 0 -77 -2t-79.5 -7.5t-60.5 -8t-67 -11t-50 -8.5zM563 575q-174 0 -278 -64.5t-125 -195.5q-19 -122 52.5 -192t211.5 -70q123 0 246 69t192 159l33 204q-100 48 -169.5 69t-162.5 21zM446 1397q5 29 29 50t55 21q28 0 46 -21 t14 -50t-29 -50.5t-53 -21.5q-31 0 -49 21.5t-13 50.5zM825 1397q5 29 29 50t55 21q28 0 46 -21t14 -50t-29 -50.5t-53 -21.5q-31 0 -49 21.5t-13 50.5z" />
<glyph unicode="&#xe5;" horiz-adv-x="1144" d="M305 948q-21 -3 -26 21l-5 28q-3 23 27 31q40 10 144.5 23.5t209.5 13.5q228 0 305.5 -111.5t36.5 -373.5l-90 -557q-3 -23 -26 -23h-29q-21 0 -18 23l24 176q-26 -34 -69.5 -70.5t-103.5 -71.5t-139 -57.5t-159 -22.5q-159 0 -248 91t-65 247q27 166 153.5 249t335.5 83 q161 0 344 -84q36 232 -25.5 327t-242.5 95q-40 0 -77 -2t-79.5 -7.5t-60.5 -8t-67 -11t-50 -8.5zM563 575q-174 0 -278 -64.5t-125 -195.5q-19 -122 52.5 -192t211.5 -70q123 0 246 69t192 159l33 204q-100 48 -169.5 69t-162.5 21zM657 1190q-94 0 -141.5 62t-32.5 157 q14 94 81.5 155.5t160.5 61.5t141.5 -61t34.5 -156q-15 -94 -83.5 -156.5t-160.5 -62.5zM666 1247q69 0 118 48.5t60 113.5q8 66 -24.5 114t-100.5 48q-69 0 -119 -48.5t-59 -113.5q-10 -65 24 -113.5t101 -48.5z" />
<glyph unicode="&#xe6;" horiz-adv-x="1939" d="M909 563l39 240q-16 102 -94 142t-213 40q-140 0 -334 -37q-28 -6 -28 21l-3 28q0 23 25 31q37 9 147 23t209 14q301 0 349 -172q104 91 207 131.5t219 40.5q85 0 155 -22.5t116.5 -61.5t81 -92t48 -114t17 -128t-10.5 -133v-8q-3 -12 -7.5 -16.5t-16.5 -4.5h-828 l-31 -188q27 -95 115 -167.5t203 -72.5q96 0 203 32.5t180 90.5q22 16 31 0l18 -26q12 -15 -4 -31q-81 -68 -203.5 -107t-241.5 -39q-70 0 -133.5 23t-108.5 60t-75 78t-41 81q-82 -91 -220.5 -166.5t-291.5 -75.5q-160 0 -249.5 90t-65.5 246q27 167 152.5 250.5 t334.5 83.5q170 0 350 -84zM864 281l33 204q-95 46 -168.5 68t-167.5 22q-363 0 -405 -270q-20 -115 51 -183.5t211 -68.5q124 0 252 69.5t194 158.5zM1038 805l-41 -250h760q12 86 -1.5 162t-52.5 137t-112.5 97t-173.5 36q-212 0 -379 -182z" />
<glyph unicode="&#xe7;" horiz-adv-x="1120" d="M461 -209l63 189q-197 35 -306 178.5t-75 361.5q23 148 113.5 273.5t225.5 198.5t282 73q224 0 354 -154q17 -17 0 -34l-31 -27q-16 -16 -30 -2q-48 60 -125.5 97.5t-177.5 37.5q-123 0 -236.5 -62.5t-190.5 -169t-96 -231.5q-20 -126 22.5 -232t136.5 -167.5t218 -61.5 q98 0 187.5 38t156.5 98q20 14 31 -2l21 -27q12 -17 -9 -35q-181 -154 -415 -154l-43 -141q111 0 164 -43.5t38 -132.5q-12 -76 -68 -121t-136 -45q-90 0 -181 72q-14 10 -2 22l23 23q9 9 20 2q63 -55 152 -55q112 0 129 102q9 61 -23.5 88t-117.5 27h-64q-16 0 -10 16z" />
<glyph unicode="&#xe8;" horiz-adv-x="1241" d="M1010 156l-19 24q-12 15 -30 0q-77 -58 -180 -90.5t-197 -32.5q-122 0 -219 59.5t-144 158t-31 210.5h926q14 0 18.5 5t6.5 18q25 154 -16 280t-144.5 201.5t-253.5 75.5q-147 0 -282 -73t-226 -198.5t-115 -273.5q-23 -148 28.5 -272.5t165 -197.5t265.5 -73 q116 0 235.5 37.5t200.5 104.5q24 21 11 37zM1059 555h-858q19 109 95 209t188 161.5t229 61.5q88 0 160 -36t116 -96t63 -138.5t7 -161.5zM741 1200l-178 207q-13 13 0 25l31 36q15 19 27 2l213 -262q16 -22 -11 -22h-45q-23 0 -37 14z" />
<glyph unicode="&#xe9;" horiz-adv-x="1241" d="M991 180l19 -24q13 -16 -11 -37q-81 -67 -200.5 -104.5t-235.5 -37.5q-152 0 -265.5 73t-165 197.5t-28.5 272.5q24 148 115 273.5t226 198.5t282 73q150 0 253.5 -75.5t144.5 -201.5t16 -280q-2 -13 -6.5 -18t-18.5 -5h-926q-16 -112 31 -210.5t144 -158t219 -59.5 q94 0 197 32.5t180 90.5q18 15 30 0zM201 555h858q12 83 -7 161.5t-63 138.5t-116 96t-160 36q-117 0 -229 -61.5t-188 -161.5t-95 -209zM983 1407l-244 -207q-21 -14 -41 -14h-45q-11 0 -13 6t9 16l295 262q17 17 27 -2l18 -36q5 -14 -6 -25z" />
<glyph unicode="&#xea;" horiz-adv-x="1241" d="M1010 156l-19 24q-12 15 -30 0q-77 -58 -180 -90.5t-197 -32.5q-122 0 -219 59.5t-144 158t-31 210.5h926q14 0 18.5 5t6.5 18q25 154 -16 280t-144.5 201.5t-253.5 75.5q-147 0 -282 -73t-226 -198.5t-115 -273.5q-23 -148 28.5 -272.5t165 -197.5t265.5 -73 q116 0 235.5 37.5t200.5 104.5q24 21 11 37zM1059 555h-858q19 109 95 209t188 161.5t229 61.5q88 0 160 -36t116 -96t63 -138.5t7 -161.5zM797 1542h22q10 0 15 -5t12 -17l178 -324q13 -22 -14 -22h-37q-22 0 -33 22l-143 272l-228 -272q-17 -22 -43 -22h-37q-23 0 -4 22 l277 324q22 22 35 22z" />
<glyph unicode="&#xeb;" horiz-adv-x="1241" d="M1010 156l-19 24q-12 15 -30 0q-77 -58 -180 -90.5t-197 -32.5q-122 0 -219 59.5t-144 158t-31 210.5h926q14 0 18.5 5t6.5 18q25 154 -16 280t-144.5 201.5t-253.5 75.5q-147 0 -282 -73t-226 -198.5t-115 -273.5q-23 -148 28.5 -272.5t165 -197.5t265.5 -73 q116 0 235.5 37.5t200.5 104.5q24 21 11 37zM1059 555h-858q19 109 95 209t188 161.5t229 61.5q88 0 160 -36t116 -96t63 -138.5t7 -161.5zM496 1397q5 29 29 50t55 21q28 0 45.5 -21t13.5 -50t-29 -50.5t-53 -21.5q-30 0 -48 21t-13 51zM874 1397q5 29 29 50t55 21 q28 0 46 -21t14 -50t-29 -50.5t-53 -21.5q-31 0 -49 21.5t-13 50.5z" />
<glyph unicode="&#xec;" horiz-adv-x="600" d="M176 23l160 997q3 22 24 22h43q25 0 19 -22l-160 -997q-3 -23 -26 -23h-41q-25 0 -19 23zM332 1200l-178 207q-12 13 0 25l30 36q15 19 27 2l213 -262q16 -22 -10 -22h-45q-23 0 -37 14z" />
<glyph unicode="&#xed;" horiz-adv-x="585" d="M170 23l160 997q3 22 24 22h43q25 0 19 -22l-160 -997q-3 -23 -27 -23h-41q-24 0 -18 23zM698 1407l-243 -207q-21 -14 -41 -14h-45q-11 0 -13 6t9 16l294 262q17 17 27 -2l19 -36q5 -13 -7 -25z" />
<glyph unicode="&#xee;" horiz-adv-x="598" d="M174 23l160 997q3 22 24 22h43q25 0 19 -22l-160 -997q-3 -23 -27 -23h-40q-25 0 -19 23zM438 1542h23q7 0 11.5 -3t7 -6.5t7.5 -12.5l179 -324q6 -10 1.5 -16t-16.5 -6h-37q-21 0 -32 22l-144 272l-227 -272q-16 -22 -43 -22h-37q-23 0 -4 22l276 324q22 22 35 22z" />
<glyph unicode="&#xef;" horiz-adv-x="598" d="M174 23l160 997q3 22 24 22h43q25 0 19 -22l-160 -997q-3 -23 -27 -23h-40q-25 0 -19 23zM160 1397q5 29 29 50t55 21q28 0 45.5 -21t13.5 -50t-29 -50.5t-53 -21.5q-30 0 -48 21t-13 51zM539 1397q5 29 29 50t55 21q28 0 45.5 -21t13.5 -50t-29 -50.5t-53 -21.5 q-30 0 -48 21t-13 51z" />
<glyph unicode="&#xf0;" horiz-adv-x="1214" d="M993 1509l-80 -106q147 -90 186 -288.5t-16 -512.5q-24 -155 -69.5 -268t-121 -196t-187 -124t-261.5 -41q-92 0 -166.5 26.5t-123 73.5t-80 111.5t-37 141t5.5 161.5q17 108 69.5 195t127.5 141.5t163 83.5t181 29q160 0 269 -84.5t144 -222.5q24 162 25 295t-40 239 t-124 164l-170 -231q-21 -21 -35 -9l-10 9q-21 12 -6 30l168 226q-106 26 -240 20q-13 -1 -16.5 4t-1.5 19l6 37q1 13 7 18.5t20 5.5h71q116 0 211 -26l84 108q15 21 31 10l12 -10q16 -8 4 -29zM461 55q108 0 194.5 31t138 74.5t88.5 103t52 105t22 90.5q16 100 -33 193 t-140.5 148.5t-194.5 55.5q-108 0 -204 -42.5t-165 -129t-88 -201.5q-8 -67 -4.5 -129.5t28.5 -117t63.5 -94.5t101 -63.5t141.5 -23.5z" />
<glyph unicode="&#xf1;" horiz-adv-x="1243" d="M342 791l31 229q0 22 -19 22h-30q-20 0 -23 -22l-76 -471l-84 -526q-3 -23 17 -23h45q13 0 18 5t8 18l84 538q18 106 77 202.5t149 158t186 61.5q70 0 127.5 -25t98 -75t55.5 -125.5t0 -175.5l-88 -559q-3 -23 16 -23h45q21 0 27 23l92 589q18 111 -2 199.5t-69.5 142.5 t-117.5 82.5t-149 28.5q-79 0 -153 -31t-126.5 -78t-86 -88.5t-52.5 -76.5zM901 1352q60 0 96 22.5t70 85.5q11 17 18 21t21 -2l18 -9q11 -6 12.5 -13t-6.5 -25q-17 -30 -35 -53t-46 -47.5t-66 -38t-84 -13.5q-56 0 -91 18t-71 60q-38 43 -66 59.5t-65 16.5q-60 0 -95 -22 t-71 -87q-16 -26 -37 -18l-24 10q-18 10 0 37q82 151 229 151q55 0 92 -20t76 -62q40 -44 63.5 -57.5t61.5 -13.5z" />
<glyph unicode="&#xf2;" horiz-adv-x="1286" d="M104 520q24 148 115.5 273.5t227 198.5t282.5 73t259 -73.5t163 -199t27 -272.5q-23 -147 -114 -272t-226.5 -198t-282.5 -73t-259 73t-163.5 198t-28.5 272zM569 57q187 0 339.5 136t183.5 327q19 125 -23.5 231.5t-136 169t-217.5 62.5q-123 0 -236.5 -62.5t-190 -169 t-95.5 -231.5q-20 -125 22.5 -231.5t136.5 -169t217 -62.5zM731 1200l-178 207q-13 13 0 25l31 36q15 19 26 2l213 -262q16 -22 -10 -22h-45q-23 0 -37 14z" />
<glyph unicode="&#xf3;" horiz-adv-x="1286" d="M104 520q24 148 115.5 273.5t227 198.5t282.5 73t259 -73.5t163 -199t27 -272.5q-23 -147 -114 -272t-226.5 -198t-282.5 -73t-259 73t-163.5 198t-28.5 272zM569 57q187 0 339.5 136t183.5 327q19 125 -23.5 231.5t-136 169t-217.5 62.5q-123 0 -236.5 -62.5t-190 -169 t-95.5 -231.5q-20 -125 22.5 -231.5t136.5 -169t217 -62.5zM1008 1407l-244 -207q-21 -14 -41 -14h-45q-11 0 -13 6t9 16l295 262q17 17 26 -2l19 -36q5 -14 -6 -25z" />
<glyph unicode="&#xf4;" horiz-adv-x="1286" d="M104 520q24 148 115.5 273.5t227 198.5t282.5 73t259 -73.5t163 -199t27 -272.5q-23 -147 -114 -272t-226.5 -198t-282.5 -73t-259 73t-163.5 198t-28.5 272zM569 57q187 0 339.5 136t183.5 327q19 125 -23.5 231.5t-136 169t-217.5 62.5q-123 0 -236.5 -62.5t-190 -169 t-95.5 -231.5q-20 -125 22.5 -231.5t136.5 -169t217 -62.5zM803 1542h22q10 0 15 -5t12 -17l178 -324q13 -22 -14 -22h-37q-22 0 -33 22l-143 272l-228 -272q-17 -22 -43 -22h-36q-23 0 -4 22l276 324q22 22 35 22z" />
<glyph unicode="&#xf5;" horiz-adv-x="1286" d="M104 520q24 148 115.5 273.5t227 198.5t282.5 73t259 -73.5t163 -199t27 -272.5q-23 -147 -114 -272t-226.5 -198t-282.5 -73t-259 73t-163.5 198t-28.5 272zM569 57q187 0 339.5 136t183.5 327q19 125 -23.5 231.5t-136 169t-217.5 62.5q-123 0 -236.5 -62.5t-190 -169 t-95.5 -231.5q-20 -125 22.5 -231.5t136.5 -169t217 -62.5zM897 1352q60 0 96 22.5t70 85.5q11 17 18 21t21 -2l18 -9q11 -6 12.5 -13t-6.5 -25q-17 -30 -35 -53t-46 -47.5t-66 -38t-84 -13.5q-56 0 -91 18t-71 60q-38 43 -66 59.5t-65 16.5q-60 0 -95 -22t-71 -87 q-16 -26 -37 -18l-24 10q-18 10 0 37q82 151 229 151q55 0 92 -20t76 -62q40 -44 63.5 -57.5t61.5 -13.5z" />
<glyph unicode="&#xf6;" horiz-adv-x="1286" d="M104 520q24 148 115.5 273.5t227 198.5t282.5 73t259 -73.5t163 -199t27 -272.5q-23 -147 -114 -272t-226.5 -198t-282.5 -73t-259 73t-163.5 198t-28.5 272zM569 57q187 0 339.5 136t183.5 327q19 125 -23.5 231.5t-136 169t-217.5 62.5q-123 0 -236.5 -62.5t-190 -169 t-95.5 -231.5q-20 -125 22.5 -231.5t136.5 -169t217 -62.5zM530 1397q5 29 29 50t55 21q28 0 46 -21t14 -50t-29 -50.5t-53 -21.5q-31 0 -49 21.5t-13 50.5zM909 1397q5 29 29 50t55 21q28 0 46 -21t14 -50t-29 -50.5t-53 -21.5q-31 0 -49 21.5t-13 50.5z" />
<glyph unicode="&#xf7;" horiz-adv-x="1067" d="M985 592h-903q-24 0 -19 22l5 27q3 25 24 25h903q24 0 21 -23l-6 -31q-3 -20 -25 -20zM399 227q4 33 28.5 54.5t55.5 21.5q34 0 52 -21t12 -55q-3 -31 -27.5 -51t-58.5 -20q-32 0 -49.5 20t-12.5 51zM524 1008q3 32 27.5 53.5t56.5 21.5q30 0 49 -21.5t15 -53.5 q-5 -29 -30.5 -50.5t-57.5 -21.5q-31 0 -48.5 21.5t-11.5 50.5z" />
<glyph unicode="&#xf8;" horiz-adv-x="1284" d="M104 520q24 148 115 273.5t226 198.5t282 73q117 0 199 -43l65 90q19 23 41 23h33q28 0 14 -25l-90 -121q106 -75 159 -196.5t28 -272.5q-23 -147 -114 -272t-226.5 -198t-282.5 -73q-115 0 -217 52l-60 -97q-15 -24 -38 -24h-33q-30 0 -15 24l86 131q-99 71 -146.5 195 t-25.5 262zM567 57q187 0 339.5 136t183.5 327q39 237 -154 393l-553 -809q23 -15 72.5 -31t111.5 -16zM190 520q-6 -37 -6 -72t4 -63t13 -56t17.5 -47.5t23 -41.5t23.5 -34t24.5 -28t21 -21t17.5 -16l549 809q-82 33 -162 33q-188 0 -341 -136t-184 -327z" />
<glyph unicode="&#xf9;" horiz-adv-x="1243" d="M899 252l-31 -229q3 -23 21 -23h29q21 0 24 23l76 471l82 526q3 22 -17 22h-45q-21 0 -24 -22l-86 -539q-17 -106 -76 -202.5t-149.5 -158t-186.5 -61.5q-70 0 -127.5 25t-97.5 75.5t-55 125.5t0 176l88 559q3 22 -17 22h-45q-21 0 -24 -22l-95 -590q-17 -111 3 -199.5 t69.5 -143t117 -82.5t148.5 -28q64 0 126 21.5t107.5 52.5t85 70.5t63 71.5t36.5 59zM672 1200l-178 207q-12 13 0 25l30 36q15 19 27 2l213 -262q16 -22 -10 -22h-45q-23 0 -37 14z" />
<glyph unicode="&#xfa;" horiz-adv-x="1243" d="M868 23l31 229q-13 -27 -36.5 -59t-63 -71.5t-85 -70.5t-107.5 -52.5t-126 -21.5q-81 0 -148.5 28t-117 82.5t-69.5 143t-3 199.5l95 590q3 22 24 22h45q20 0 17 -22l-88 -559q-15 -101 0 -176t55 -125.5t97.5 -75.5t127.5 -25q96 0 186.5 61.5t149.5 158t76 202.5 l86 539q3 22 24 22h45q20 0 17 -22l-82 -526l-76 -471q-3 -23 -24 -23h-29q-18 0 -21 23zM883 1407l-244 -207q-21 -14 -41 -14h-45q-11 0 -13 6t9 16l295 262q17 17 26 -2l19 -36q5 -14 -6 -25z" />
<glyph unicode="&#xfb;" horiz-adv-x="1243" d="M899 252l-31 -229q3 -23 21 -23h29q21 0 24 23l76 471l82 526q3 22 -17 22h-45q-21 0 -24 -22l-86 -539q-17 -106 -76 -202.5t-149.5 -158t-186.5 -61.5q-70 0 -127.5 25t-97.5 75.5t-55 125.5t0 176l88 559q3 22 -17 22h-45q-21 0 -24 -22l-95 -590q-17 -111 3 -199.5 t69.5 -143t117 -82.5t148.5 -28q64 0 126 21.5t107.5 52.5t85 70.5t63 71.5t36.5 59zM731 1542h23q10 0 14.5 -4.5t11.5 -17.5l178 -324q13 -22 -14 -22h-37q-22 0 -33 22l-143 272l-227 -272q-16 -22 -43 -22h-37q-23 0 -4 22l276 324q22 22 35 22z" />
<glyph unicode="&#xfc;" horiz-adv-x="1243" d="M899 252l-31 -229q3 -23 21 -23h29q21 0 24 23l76 471l82 526q3 22 -17 22h-45q-21 0 -24 -22l-86 -539q-17 -106 -76 -202.5t-149.5 -158t-186.5 -61.5q-70 0 -127.5 25t-97.5 75.5t-55 125.5t0 176l88 559q3 22 -17 22h-45q-21 0 -24 -22l-95 -590q-17 -111 3 -199.5 t69.5 -143t117 -82.5t148.5 -28q64 0 126 21.5t107.5 52.5t85 70.5t63 71.5t36.5 59zM461 1397q5 29 29 50t55 21q28 0 45.5 -21t13.5 -50t-29 -50.5t-53 -21.5q-30 0 -48 21t-13 51zM840 1397q5 29 29 50t55 21q28 0 45.5 -21t13.5 -50t-29 -50.5t-53 -21.5q-30 0 -48 21 t-13 51z" />
<glyph unicode="&#xfd;" horiz-adv-x="1024" d="M483 119l535 901q12 22 33 22h53q24 0 10 -22l-850 -1415q-13 -23 -33 -23h-53q-24 0 -10 23l248 413l-283 1002q-3 12 -0.5 17t14.5 5h56q19 0 26 -22l252 -901h2zM815 1407l-244 -207q-21 -14 -41 -14h-45q-11 0 -13 6t9 16l295 262q17 17 27 -2l18 -36q5 -14 -6 -25z " />
<glyph unicode="&#xfe;" horiz-adv-x="1341" d="M664 0h-439l-63 -395q-3 -23 -25 -23h-43q-21 0 -18 23l291 1833q3 22 24 22h43q13 0 17.5 -5t1.5 -17l-62 -396h438q136 0 237 -67.5t146 -187.5t21 -267q-35 -223 -198 -371.5t-371 -148.5zM238 82h424q110 0 212 51.5t177 153.5t96 233q16 99 -5.5 183t-70 140 t-118.5 87t-152 31h-424z" />
<glyph unicode="&#xff;" horiz-adv-x="1024" d="M483 119l535 901q12 22 33 22h53q24 0 10 -22l-850 -1415q-13 -23 -33 -23h-53q-24 0 -10 23l248 413l-283 1002q-3 12 -0.5 17t14.5 5h56q19 0 26 -22l252 -901h2zM401 1397q5 29 29 50t55 21q28 0 46 -21t14 -50t-29 -50.5t-53 -21.5q-31 0 -49 21.5t-13 50.5z M780 1397q5 29 29 50t55 21q28 0 46 -21t14 -50t-29 -50.5t-53 -21.5q-31 0 -49 21.5t-13 50.5z" />
<glyph unicode="&#x152;" horiz-adv-x="2279" d="M203 715q-26 -171 32.5 -322t188 -243.5t299.5 -92.5q128 0 253.5 55t222.5 145.5t165 211.5t88 248q27 170 -31.5 322t-188.5 244.5t-300 92.5q-127 0 -252 -55t-222 -145.5t-166 -211.5t-89 -249zM2075 684h-535q-38 -197 -157.5 -356t-295.5 -246h938q12 0 15.5 -4.5 t1.5 -18.5l-6 -36q-3 -23 -25 -23h-936q-57 0 -183 -13.5t-181 -13.5q-148 0 -272.5 59t-205 158.5t-115.5 236.5t-12 288q33 204 154.5 375t303.5 270.5t382 99.5q54 0 177 -13t180 -13h935q25 0 19 -23l-6 -37q-3 -22 -27 -22h-657h-281q145 -82 216.5 -239t49.5 -347h537 q12 0 15.5 -5t2.5 -18l-6 -36q-3 -23 -26 -23z" />
<glyph unicode="&#x153;" horiz-adv-x="1998" d="M1061 485l-43 -268q34 -70 130.5 -115t192.5 -45q93 0 196 33t181 90q20 17 31 0l18 -26q12 -17 -6 -31q-85 -70 -203.5 -108t-236.5 -38q-228 0 -363 154q-86 -73 -190.5 -113.5t-212.5 -40.5q-147 0 -259 73t-163.5 198t-28.5 272q25 148 116.5 273.5t226.5 198.5 t282 73q106 0 197.5 -41t156.5 -113q185 154 402 154q85 0 155 -22.5t117 -62t82 -93t49 -115t18.5 -129t-8.5 -135.5q-1 -9 -2.5 -13.5t-6.5 -7t-15 -2.5h-813zM1116 825l-45 -270h746q27 183 -71 307.5t-276 124.5q-96 0 -191 -45.5t-163 -116.5zM934 231l92 578 q-45 80 -126.5 127t-184.5 47q-123 0 -236.5 -62.5t-190 -169t-95.5 -231.5q-31 -193 78.5 -328t297.5 -135q103 0 199.5 47t165.5 127z" />
<glyph unicode="&#x178;" horiz-adv-x="1234" d="M141 1411l416 -831l-90 -557q-3 -23 18 -23h45q22 0 25 23l90 557l676 831q16 23 -10 23h-49q-21 0 -39 -23l-609 -737l-372 737q-6 13 -13.5 18t-21.5 5h-53q-24 0 -13 -23zM506 1788q5 30 29.5 51t54.5 21q28 0 45.5 -21.5t13.5 -50.5t-29 -50.5t-53 -21.5 q-30 0 -48 21t-13 51zM885 1788q5 30 29.5 51t54.5 21q28 0 45.5 -21.5t13.5 -50.5t-29 -50.5t-53 -21.5q-30 0 -48 21t-13 51z" />
<glyph unicode="&#x2c6;" horiz-adv-x="751" d="M391 1542h23q10 0 14.5 -4.5t11.5 -17.5l178 -324q13 -22 -14 -22h-37q-21 0 -32 22l-144 272l-227 -272q-16 -22 -43 -22h-37q-23 0 -4 22l276 324q22 22 35 22z" />
<glyph unicode="&#x2dc;" horiz-adv-x="886" d="M594 1352q60 0 96 22.5t70 85.5q11 17 18 21t21 -2l18 -9q11 -6 12.5 -13t-6.5 -25q-17 -30 -35 -53t-46 -47.5t-66 -38t-84 -13.5q-56 0 -91 18t-71 60q-38 43 -66 59.5t-65 16.5q-60 0 -95 -22t-71 -87q-16 -26 -37 -18l-24 10q-18 10 0 37q82 151 229 151q55 0 92 -20 t76 -62q40 -44 63.5 -57.5t61.5 -13.5z" />
<glyph unicode="&#x2000;" horiz-adv-x="1008" />
<glyph unicode="&#x2001;" horiz-adv-x="2017" />
<glyph unicode="&#x2002;" horiz-adv-x="1008" />
<glyph unicode="&#x2003;" horiz-adv-x="2017" />
<glyph unicode="&#x2004;" horiz-adv-x="672" />
<glyph unicode="&#x2005;" horiz-adv-x="504" />
<glyph unicode="&#x2006;" horiz-adv-x="336" />
<glyph unicode="&#x2007;" horiz-adv-x="336" />
<glyph unicode="&#x2008;" horiz-adv-x="252" />
<glyph unicode="&#x2009;" horiz-adv-x="403" />
<glyph unicode="&#x200a;" horiz-adv-x="112" />
<glyph unicode="&#x2010;" horiz-adv-x="876" d="M715 545h-565q-24 0 -19 22l4 31q3 25 25 25h565q23 0 20 -23l-6 -35q-3 -20 -24 -20z" />
<glyph unicode="&#x2011;" horiz-adv-x="876" d="M715 545h-565q-24 0 -19 22l4 31q3 25 25 25h565q23 0 20 -23l-6 -35q-3 -20 -24 -20z" />
<glyph unicode="&#x2012;" horiz-adv-x="876" d="M715 545h-565q-24 0 -19 22l4 31q3 25 25 25h565q23 0 20 -23l-6 -35q-3 -20 -24 -20z" />
<glyph unicode="&#x2013;" horiz-adv-x="794" d="M680 545h-580q-12 0 -16.5 4t-1.5 16l4 31q3 14 8.5 19.5t18.5 5.5h579q22 0 19 -23l-6 -33q-1 -12 -7 -16t-18 -4z" />
<glyph unicode="&#x2014;" horiz-adv-x="1140" d="M1026 545h-926q-12 0 -16.5 4t-1.5 16l4 31q3 14 8.5 19.5t18.5 5.5h925q22 0 19 -23l-6 -33q-1 -12 -7 -16t-18 -4z" />
<glyph unicode="&#x2018;" horiz-adv-x="526" d="M233 1143h21q35 0 56.5 -25.5t15.5 -62.5q-5 -36 -35 -62t-68 -26t-59 28.5t-14 79.5q25 142 86 230.5t174 148.5q15 8 18 0l12 -29q2 -10 -8 -18q-166 -96 -199 -264z" />
<glyph unicode="&#x2019;" horiz-adv-x="526" d="M291 1284h-21q-36 0 -56.5 25.5t-14.5 62.5q5 36 34.5 62t65.5 26q40 0 61.5 -28.5t12.5 -79.5q-23 -140 -84.5 -229t-173.5 -150q-16 -8 -21 0l-10 28q-3 11 8 19q166 97 199 264z" />
<glyph unicode="&#x201a;" horiz-adv-x="526" d="M291 -23h-21q-36 0 -56.5 26t-14.5 63q5 36 34.5 62t65.5 26q40 0 61.5 -29t12.5 -80q-23 -139 -84.5 -227.5t-173.5 -151.5q-15 -8 -21 2l-10 27q-3 11 8 18q166 100 199 264z" />
<glyph unicode="&#x201c;" horiz-adv-x="894" d="M602 1145h21q35 0 56 -25.5t15 -62.5q-5 -36 -34.5 -62t-67.5 -26t-59.5 28.5t-14.5 79.5q25 142 86 230.5t174 148.5q16 8 19 -2l12 -27q4 -11 -8 -18q-166 -98 -199 -264zM233 1145h21q35 0 56.5 -25.5t15.5 -62.5q-5 -36 -35 -62t-68 -26t-59 28.5t-14 79.5 q25 142 86 230.5t174 148.5q16 8 18 -2l12 -27q3 -11 -8 -18q-166 -98 -199 -264z" />
<glyph unicode="&#x201d;" horiz-adv-x="894" d="M291 1284h-21q-36 0 -56.5 25.5t-14.5 62.5q5 36 34.5 62t65.5 26q40 0 61.5 -28.5t12.5 -79.5q-23 -140 -84.5 -229t-173.5 -150q-16 -8 -21 0l-10 28q-3 10 8 19q166 97 199 264zM659 1284h-20q-37 0 -57.5 25.5t-14.5 62.5q5 35 34.5 61.5t66.5 26.5q40 0 61 -28.5 t12 -79.5q-23 -140 -84.5 -229t-173.5 -150q-15 -7 -20 0l-10 28q-3 11 8 19q165 97 198 264z" />
<glyph unicode="&#x201e;" horiz-adv-x="894" d="M291 -23h-21q-36 0 -56.5 26t-14.5 63q5 36 34.5 62t65.5 26q40 0 61.5 -29t12.5 -80q-23 -139 -84.5 -227.5t-173.5 -151.5q-16 -8 -21 2l-10 27q-4 11 8 18q166 100 199 264zM659 -23h-20q-37 0 -57.5 26t-14.5 63q5 35 34.5 61.5t66.5 26.5q40 0 61 -29t12 -80 q-23 -139 -84.5 -227.5t-173.5 -151.5q-16 -8 -20 2l-10 27q-3 11 8 18q165 99 198 264z" />
<glyph unicode="&#x2022;" horiz-adv-x="403" d="M96 702q6 43 42.5 74t80.5 31q42 0 67 -31t19 -74q-7 -44 -42.5 -74t-78.5 -30q-44 0 -69.5 30t-18.5 74z" />
<glyph unicode="&#x2026;" horiz-adv-x="1511" d="M174 66q6 37 34.5 62.5t65.5 25.5t59.5 -25.5t16.5 -62.5q-8 -37 -38 -63t-66 -26q-37 0 -58 26t-14 63zM668 66q4 37 33.5 62.5t66.5 25.5t59.5 -25.5t16.5 -62.5q-8 -37 -38 -63t-67 -26t-57.5 26t-13.5 63zM1159 66q6 37 36 62.5t67 25.5t59 -25.5t16 -62.5 q-8 -37 -38 -63t-66 -26q-37 0 -58.5 26t-15.5 63z" />
<glyph unicode="&#x202f;" horiz-adv-x="403" />
<glyph unicode="&#x2039;" horiz-adv-x="661" d="M129 573l412 383q15 15 26 7l35 -21q14 -11 -2 -27l-414 -395l289 -395q11 -14 -6 -27l-41 -20q-15 -9 -27 6l-288 383q-26 32 -23 49l2 8q7 22 37 49z" />
<glyph unicode="&#x203a;" horiz-adv-x="661" d="M258 956l289 -383q23 -29 20 -49l-2 -8q-3 -20 -37 -49l-409 -383q-16 -14 -29 -6l-33 20q-13 11 0 27l416 395l-289 395q-12 15 6 27l39 21q15 7 29 -7z" />
<glyph unicode="&#x205f;" horiz-adv-x="504" />
<glyph unicode="&#x20ac;" horiz-adv-x="1257" d="M938 518h-672q7 -59 27.5 -119t60.5 -122.5t93.5 -110.5t134.5 -78.5t176 -30.5q52 0 135 14t123 33q14 4 17 2t7 -12l13 -41q3 -11 0.5 -15t-13.5 -9q-128 -56 -295 -56q-121 0 -225.5 42t-179 115t-119 173.5t-49.5 214.5h-160q-21 0 -18 23l4 16q2 12 6 16.5t16 4.5 h148q0 82 12 143l21 100h-142q-12 0 -16.5 5t-1.5 18l2 14q3 23 27 23h151q84 251 295.5 415t464.5 164q151 0 279 -55q13 -8 4 -27l-23 -43q-10 -17 -29 -8q-37 20 -108 34.5t-137 14.5q-98 0 -188.5 -30t-160.5 -78t-130.5 -114t-102.5 -133.5t-72 -139.5h682 q12 0 16 -4.5t3 -16.5l-4 -18q-3 -21 -25 -21h-692l-23 -100q-3 -16 -10 -143h686q24 0 21 -21l-4 -18q-3 -21 -25 -21z" />
<glyph unicode="&#x2122;" horiz-adv-x="1802" d="M94 1434h629q13 0 10 -11l-6 -43q-2 -12 -14 -12h-279l-115 -711q-2 -12 -14 -12h-43q-15 0 -10 12l113 711h-281q-12 0 -10 12l6 43q2 11 14 11zM1636 1290l-428 -647q-5 -10 -20 -10h-2q-14 0 -19 10l-221 649l-172 -635q-6 -12 -16 -12h-37q-16 0 -10 12l215 783 q2 10 10 10h6q10 0 12 -10l246 -711l471 711q10 10 19 10h4q8 0 8 -10l-31 -783q0 -12 -12 -12h-41q-10 0 -10 12z" />
<glyph unicode="&#x25fc;" horiz-adv-x="1044" d="M0 1044h1044v-1044h-1044v1044z" />
</font>
</defs>
</svg>
