<?xml version="1.0" standalone="no"?>
<!DOCTYPE svg PUBLIC "-//W3C//DTD SVG 1.1//EN" "http://www.w3.org/Graphics/SVG/1.1/DTD/svg11.dtd" >
<svg xmlns="http://www.w3.org/2000/svg">
<metadata></metadata>
<defs>
<font id="acherus_grotesqueRgIt" horiz-adv-x="1458" >
<font-face units-per-em="2048" ascent="1638" descent="-410" />
<missing-glyph horiz-adv-x="518" />
<glyph unicode="&#xfb01;" horiz-adv-x="1363" d="M991 913h-573l-137 -880q-5 -19 -13 -26t-26 -7h-90q-18 0 -23 7t-2 26l139 880h-151q-20 0 -26.5 7t-2.5 26l12 64q3 19 10.5 25.5t26.5 6.5h152l8 60q37 225 142.5 341t301.5 116q104 0 170 -39q12 -9 14.5 -16t-3.5 -25l-25 -66q-7 -20 -15.5 -22.5t-27.5 6.5 q-51 22 -119 22q-125 0 -191.5 -74.5t-95.5 -252.5l-8 -50h695q19 0 24.5 -6.5t3.5 -25.5l-155 -977q-3 -19 -11.5 -26t-27.5 -7h-90q-18 0 -23 7t-2 26zM1034 1384q6 44 42.5 75.5t80.5 31.5q43 0 70 -31.5t20 -75.5t-44 -75t-81 -31t-70 31t-18 75z" />
<glyph unicode="&#xfb03;" horiz-adv-x="2039" d="M1665 913h-571l-140 -880q-3 -19 -11.5 -26t-27.5 -7h-88q-20 0 -24.5 7t0.5 26l137 880h-522l-137 -880q-5 -19 -13 -26t-26 -7h-90q-18 0 -23 7t-2 26l139 880h-151q-20 0 -26.5 7t-2.5 26l12 64q3 19 10.5 25.5t26.5 6.5h152l8 60q37 225 142.5 341t301.5 116 q104 0 170 -39q12 -9 14.5 -16t-3.5 -25l-25 -66q-7 -20 -15.5 -22.5t-27.5 6.5q-51 22 -119 22q-125 0 -191.5 -74.5t-95.5 -252.5l-8 -50h523l8 60q37 224 143.5 340.5t302.5 116.5q100 0 170 -39q12 -9 13.5 -16.5t-5.5 -24.5l-22 -66q-9 -20 -16.5 -22.5t-26.5 6.5 q-54 22 -121 22q-124 0 -191 -75t-94 -252l-8 -50h694q19 0 24.5 -6.5t2.5 -25.5l-154 -977q-5 -19 -13 -26t-26 -7h-90q-19 0 -24 7t0 26zM1708 1384q8 44 43.5 75.5t79.5 31.5t71 -31.5t21 -75.5q-7 -44 -44.5 -75t-80.5 -31q-44 0 -70.5 31t-19.5 75z" />
<glyph horiz-adv-x="0" />
<glyph horiz-adv-x="682" />
<glyph horiz-adv-x="0" />
<glyph horiz-adv-x="0" />
<glyph unicode="&#xd;" horiz-adv-x="518" />
<glyph unicode=" "  horiz-adv-x="518" />
<glyph unicode="&#x09;" horiz-adv-x="518" />
<glyph unicode="&#xa0;" horiz-adv-x="518" />
<glyph unicode="!" horiz-adv-x="696" d="M244 518l123 883q3 19 10.5 26t25.5 7h121q20 0 25 -7t2 -26l-160 -883q-3 -19 -10.5 -26t-26.5 -7h-84q-18 0 -23 6.5t-3 26.5zM133 94q8 50 47 84.5t88 34.5q50 0 79 -35t22 -84t-47.5 -83t-90.5 -34q-49 0 -77.5 33.5t-20.5 83.5z" />
<glyph unicode="&#x22;" horiz-adv-x="761" d="M94 940l74 461q3 19 10.5 26t26.5 7h82q22 0 26.5 -10t-2.5 -27l-118 -467q-9 -23 -33 -23h-39q-19 0 -24.5 6.5t-2.5 26.5zM457 940l75 461q3 19 10.5 26t26.5 7h82q39 0 23 -37l-119 -467q-9 -23 -33 -23h-37q-19 0 -25 6.5t-3 26.5z" />
<glyph unicode="#" horiz-adv-x="1701" d="M291 1053h366l146 352q7 17 17 23t28 6h57q19 0 24.5 -7t-1.5 -26l-146 -348h416l148 352q9 17 18.5 23t26.5 6h57q19 0 24 -7t-2 -26l-145 -348h334q19 0 25.5 -6.5t3.5 -26.5l-11 -57q-3 -19 -10.5 -25t-26.5 -6h-364l-174 -422h346q19 0 24.5 -7t2.5 -26l-11 -55 q-2 -19 -9 -26t-25 -7h-379l-150 -360q-7 -18 -16.5 -23.5t-28.5 -5.5h-59q-19 0 -23.5 7t2.5 26l148 356h-416l-150 -360q-9 -18 -18 -23.5t-27 -5.5h-57q-20 0 -24 7t4 26l147 356h-322q-19 0 -25 7t-3 26l10 55q3 19 10.5 26t26.5 7h352l176 422h-336q-19 0 -25 6.5 t-3 24.5l10 57q3 19 10.5 26t26.5 7zM735 932l-178 -422h418l176 422h-416z" />
<glyph unicode="$" horiz-adv-x="1259" d="M436 -154l23 134q-272 16 -453 155q-22 16 -2 45l51 66q13 16 22 19t25 -7q78 -60 179 -95t200 -40l84 536q-35 5 -64.5 10.5t-64 14t-62.5 18.5t-58.5 23.5t-53 29.5t-45 36.5t-35.5 44.5t-24 53.5t-10.5 63.5t4.5 75q11 73 52 144.5t106.5 133.5t165.5 102.5t216 45.5 l19 121q3 19 10.5 25t26.5 6h32q19 0 24.5 -7t2.5 -24l-19 -121q209 -7 429 -154q13 -10 12 -19.5t-12 -25.5l-50 -63q-21 -35 -47 -14q-172 128 -354 133l-82 -518q77 -10 137.5 -24t124.5 -43t103.5 -69.5t59.5 -106t7 -149.5q-13 -82 -56 -156t-112 -133t-170.5 -95 t-222.5 -40l-20 -131q-3 -19 -10.5 -25.5t-26.5 -6.5h-35q-19 0 -24.5 6.5t-2.5 25.5zM956 395q9 56 -6.5 98t-57.5 70.5t-97 47t-136 34.5l-81 -522q63 3 119.5 17.5t113 44t95 83.5t50.5 127zM309 1032q-7 -44 8.5 -80t43 -59.5t69 -41.5t79 -27.5t81.5 -16.5l80 502 q-72 -5 -132.5 -26t-99.5 -50t-67.5 -66t-42.5 -70t-19 -65z" />
<glyph unicode="%" horiz-adv-x="1767" d="M418 727q-155 0 -233.5 95.5t-49.5 271.5q27 175 136 270.5t264 95.5t234 -95t52 -271q-29 -176 -138.5 -271.5t-264.5 -95.5zM434 827q106 0 177.5 72t90.5 195t-29.5 194.5t-154.5 71.5t-175.5 -71.5t-90.5 -194.5q-19 -123 28.5 -195t153.5 -72zM1542 1401 l-1188 -1376q-22 -25 -47 -25h-69q-43 0 -17 33l1186 1376q22 25 45 25h74q42 0 16 -33zM1229 -4q-155 0 -233.5 95t-51.5 271q29 176 138 271.5t264 95.5t234 -95.5t50 -271.5q-27 -175 -136.5 -270.5t-264.5 -95.5zM1245 96q107 0 177 71.5t91 194.5q19 123 -29 195 t-155 72q-106 0 -176.5 -72t-89.5 -195t28.5 -194.5t153.5 -71.5z" />
<glyph unicode="&#x26;" horiz-adv-x="1548" d="M854 375l-242 289q-55 -14 -104.5 -31t-102.5 -42t-92.5 -54t-68 -68.5t-35.5 -83.5q-20 -128 49 -200t203 -72q34 0 67 8t67 27.5t57.5 34t58.5 47.5t49.5 47t51 53t42.5 45zM662 821l4 -4q69 22 138.5 63.5t127.5 104.5t67 127q15 93 -48 154t-175 61 q-111 0 -181.5 -60t-86.5 -155q-9 -66 39 -145t115 -146zM1421 637q-8 -5 -66 -41t-80 -50.5t-68.5 -46.5t-82.5 -60.5t-71 -59.5l303 -344q14 -15 9.5 -25t-24.5 -10h-143q-6 0 -10.5 0.5t-9.5 3t-7.5 3.5t-7 6t-6 6t-7.5 8t-7 8l-213 241l-18 -18q-56 -56 -86 -84.5 t-85.5 -73.5t-98.5 -68t-102.5 -41t-119.5 -18q-207 0 -306 113t-71 295q11 68 46.5 126t81 96.5t110 71.5t118 51.5t121.5 37.5l-2 2q-41 46 -64.5 76.5t-54 80.5t-41.5 102.5t-2 107.5q9 57 41 113t85 104.5t135.5 79t179.5 30.5q98 0 175 -30.5t119 -79t60 -105t8 -112.5 q-10 -65 -44.5 -125t-77.5 -103t-99 -81t-99 -60.5t-87 -40.5l217 -246q118 109 383 273q27 18 43 -7l43 -61q9 -16 5 -25t-22 -20z" />
<glyph unicode="'" horiz-adv-x="391" d="M84 940l74 461q3 19 10.5 26t26.5 7h84q20 0 24.5 -10t-2.5 -27l-119 -467q-9 -23 -32 -23h-39q-19 0 -24.5 6.5t-2.5 26.5z" />
<glyph unicode="(" horiz-adv-x="794" d="M74 590q46 292 221 512t438 348q34 17 45 -14l29 -70q7 -21 0 -32t-29 -21q-213 -102 -362.5 -292.5t-186.5 -430.5q-39 -243 50 -437t272 -286q36 -19 12 -53l-53 -70q-13 -16 -22 -19t-27 5q-222 125 -328.5 346.5t-58.5 513.5z" />
<glyph unicode=")" horiz-adv-x="794" d="M772 590q-48 -293 -224 -514.5t-437 -345.5q-37 -18 -45 14l-29 72q-6 19 1.5 30t27.5 21q213 94 362 286.5t188 436.5q38 244 -49 436.5t-270 286.5q-39 19 -14 53l51 70q20 29 49 14q223 -128 329 -348t60 -512z" />
<glyph unicode="*" horiz-adv-x="894" d="M84 936l260 117l-219 110q-17 7 -18 16.5t10 26.5l30 45q18 30 46 13l223 -131l33 272q1 18 9.5 25.5t26.5 7.5h50q17 0 22.5 -7t1.5 -26l-51 -270l262 135q17 9 26 5.5t15 -20.5l16 -43q6 -19 2.5 -27.5t-22.5 -15.5l-252 -114l223 -111q29 -13 8 -43l-30 -45 q-21 -30 -45 -14l-228 135l-34 -287q-3 -19 -11.5 -26t-27.5 -7h-48q-19 0 -24.5 7t-1.5 26l53 285l-270 -141q-31 -15 -41 14l-15 43q-5 17 -1 27.5t22 17.5z" />
<glyph unicode="+" horiz-adv-x="1007" d="M627 995l-49 -303h305q19 0 24 -5.5t2 -24.5l-10 -68q-3 -18 -11 -24.5t-26 -6.5h-305l-47 -307q-3 -19 -10.5 -26t-26.5 -7h-63q-20 0 -26 7t-3 26l47 307h-305q-19 0 -24.5 7t-2.5 26l10 63q3 20 10.5 26.5t26.5 6.5h306l49 303q2 19 9 26t25 7h68q17 0 23 -7t4 -26z " />
<glyph unicode="," horiz-adv-x="548" d="M291 -12h-17q-49 1 -76.5 34.5t-19.5 83.5q6 50 46 85.5t91 35.5q56 0 84.5 -40.5t16.5 -112.5q-43 -272 -299 -402q-20 -8 -25 2l-18 45q-5 13 10 23q164 95 207 246z" />
<glyph unicode="-" horiz-adv-x="878" d="M711 520h-566q-18 0 -23.5 7t-2.5 26l10 59q3 19 10.5 26t26.5 7h565q19 0 24.5 -7t2.5 -26l-10 -61q-3 -18 -11 -24.5t-26 -6.5z" />
<glyph unicode="." horiz-adv-x="544" d="M152 96q9 51 48.5 86t90.5 35q50 0 78.5 -35t21.5 -86q-9 -51 -49 -85t-90 -34q-51 0 -79.5 34t-20.5 85z" />
<glyph unicode="/" horiz-adv-x="768" d="M809 1401l-690 -1372q-9 -18 -18 -23.5t-27 -5.5h-84q-19 0 -23.5 7t2.5 26l688 1372q15 29 45 29h84q21 0 26.5 -7t-3.5 -26z" />
<glyph unicode="0" horiz-adv-x="1335" d="M264 717q-15 -92 -15.5 -176t16.5 -162.5t53 -135.5t100.5 -91.5t152.5 -34.5t164 34.5t130.5 91.5t97 135.5t68 162t40.5 176.5t15.5 176.5t-16.5 162t-53.5 135.5t-101.5 91.5t-153 34.5t-164 -34.5t-130.5 -91.5t-96.5 -135.5t-67.5 -162.5t-39.5 -176zM100 717 q19 124 57.5 234t98.5 203.5t136.5 161.5t176.5 106t215 38q96 0 173.5 -26.5t131 -75.5t91 -116.5t53.5 -150.5t18 -177.5t-16 -196.5q-25 -156 -80.5 -289t-139.5 -235.5t-204 -161t-262 -58.5q-96 0 -173.5 26.5t-131.5 75.5t-90.5 116.5t-53.5 151t-17 177.5t17 197z " />
<glyph unicode="1" horiz-adv-x="755" d="M164 1239l313 168q56 27 72 27h61q18 0 23.5 -7t3.5 -26l-219 -1368q-3 -19 -10.5 -26t-26.5 -7h-98q-19 0 -24.5 7t-2.5 26l193 1200l-291 -111q-17 -2 -22.5 4t-4.5 23l10 57q3 20 23 33z" />
<glyph unicode="2" horiz-adv-x="1146" d="M946 823l-692 -682h682q19 0 24.5 -6.5t2.5 -25.5l-13 -76q-3 -19 -10.5 -26t-26.5 -7h-921q-11 0 -14.5 3.5t-2.5 12.5l5 21q2 17 22 39l838 825q65 64 89 137.5t6.5 135t-86 102.5t-177.5 41q-223 0 -408 -170q-17 -13 -26.5 -12.5t-18.5 14.5l-47 57q-10 13 -9 23.5 t15 21.5q243 209 516 209q104 0 186.5 -28t133 -75t74 -111t16 -133.5t-47.5 -145.5t-110 -144z" />
<glyph unicode="3" horiz-adv-x="1196" d="M600 662h-217q-19 0 -24.5 6.5t-2.5 25.5l11 72q3 18 11.5 24.5t27.5 6.5h217q80 0 143.5 23.5t99.5 60t55.5 72t24.5 69.5q23 138 -57.5 216.5t-231.5 78.5q-193 0 -372 -168q-25 -22 -47 0l-43 59q-18 24 6 43q119 104 229.5 156.5t249.5 52.5q72 0 138.5 -15 t126 -48.5t100.5 -82t59 -121t4 -159.5q-12 -74 -57.5 -140t-101 -106t-111.5 -59v-2q42 -12 80.5 -35.5t74.5 -62t52.5 -98t5.5 -130.5q-23 -145 -109.5 -243t-212 -141.5t-285.5 -43.5q-265 0 -442 209q-14 18 8 43l64 58q27 25 47 2q133 -168 346 -168q195 0 298.5 74.5 t125.5 222.5q19 106 -62.5 177t-228.5 71z" />
<glyph unicode="4" horiz-adv-x="1325" d="M940 1434h123q19 0 25.5 -7t3.5 -26l-150 -940h227q19 0 24.5 -6t2.5 -25l-10 -65q-1 -19 -9.5 -26t-27.5 -7h-227l-50 -299q-3 -19 -10.5 -26t-25.5 -7h-88q-19 0 -25.5 7t-3.5 26l49 299h-705q-17 0 -23 7t-3 26l10 71q5 30 31 60l827 921q14 17 35 17zM911 1235 l-694 -774h571z" />
<glyph unicode="5" horiz-adv-x="1185" d="M387 1434h692q19 0 24.5 -7t2.5 -26l-12 -76q-3 -19 -10.5 -26t-26.5 -7h-594l-131 -436h264q88 0 160.5 -12.5t134.5 -43t100.5 -77.5t54 -119.5t1.5 -165.5q-26 -158 -114 -264.5t-213 -153.5t-282 -47q-143 0 -249.5 53.5t-192.5 157.5q-8 13 -6 20t14 19l64 60 q25 25 43 2q31 -36 59.5 -61t71 -52t98 -41t121.5 -14q182 0 289 72.5t135 244.5q22 145 -61.5 212t-258.5 67h-381q-19 0 -25.5 7t-0.5 25l192 656q6 21 12.5 27t24.5 6z" />
<glyph unicode="6" horiz-adv-x="1249" d="M725 936q93 0 171 -29t133.5 -83.5t79.5 -141.5t7 -195q-17 -106 -65.5 -199t-122 -163.5t-174.5 -111t-215 -40.5q-551 0 -447 658q135 829 692 829q135 0 232 -40t184 -130q11 -13 8.5 -22t-18.5 -23l-64 -59q-16 -14 -26.5 -15t-24.5 13q-71 79 -141.5 106t-181.5 27 q-103 0 -187.5 -48.5t-144 -136.5t-99 -200.5t-61.5 -251.5q68 115 188 185.5t277 70.5zM555 113q163 0 268.5 105.5t130.5 260.5q24 146 -61.5 235t-228.5 89q-142 0 -272 -104t-152 -238q-1 -22 -3.5 -51t5.5 -62.5t19 -66.5t36.5 -63.5t58 -53.5t84.5 -37t115 -14z" />
<glyph unicode="7" horiz-adv-x="1150" d="M1225 1409l-2 -10q-4 -13 -25 -49l-999 -1321q-20 -29 -56 -29h-108q-17 0 -23.5 7t2.5 24l949 1253h-779q-18 0 -23.5 6.5t-2.5 24.5l14 86q3 19 10.5 26t26.5 7h991q28 0 25 -25z" />
<glyph unicode="8" horiz-adv-x="1228" d="M496 -27q-130 0 -225 32t-147.5 88t-72 128.5t-6.5 157.5q10 67 44.5 126t75 96.5t89.5 67.5t80.5 43.5t56.5 20.5v4q-21 8 -43.5 19.5t-58 39.5t-60 62t-38 89t-3.5 118q27 173 173.5 284t371.5 111q223 0 334 -110.5t84 -284.5q-10 -63 -42 -118t-67 -89t-79.5 -62 t-69.5 -39.5t-49 -19.5v-6q22 -6 49.5 -19.5t66.5 -43t67.5 -67t44 -96.5t5.5 -126q-14 -86 -56.5 -158t-112.5 -128.5t-175.5 -88t-236.5 -31.5zM608 672q-149 -11 -266.5 -86.5t-138.5 -198.5q-19 -118 59.5 -196t255.5 -78q183 0 283 77.5t119 196.5q14 83 -29 147 t-117 97.5t-166 40.5zM711 1321q-146 0 -248 -74.5t-119 -189.5q-18 -112 64.5 -181.5t220.5 -78.5q139 9 241.5 78.5t120.5 181.5q17 116 -59.5 190t-220.5 74z" />
<glyph unicode="9" horiz-adv-x="1247" d="M526 498q-93 0 -171 29t-134.5 83t-80.5 141t-7 195q23 142 99 257.5t201.5 186t277.5 70.5q97 0 173 -20t127 -53.5t86 -84t52 -105.5t22.5 -123.5t1.5 -132.5t-16 -138q-131 -830 -692 -830q-134 0 -237.5 44.5t-192.5 136.5q-18 20 10 45l66 59q15 14 26 14.5 t23 -12.5q74 -77 152.5 -110t185.5 -33q103 0 187.5 48.5t143.5 136.5t98.5 200.5t61.5 251.5q-69 -116 -187.5 -186t-275.5 -70zM694 1321q-162 0 -268 -105.5t-131 -261.5q-24 -146 62 -234.5t229 -88.5q142 0 272 104t152 238q3 21 3.5 44.5t-2.5 53t-12.5 57.5t-24.5 57 t-40 53t-57.5 43t-79.5 29.5t-103 10.5z" />
<glyph unicode=":" horiz-adv-x="544" d="M96 96q8 50 48 85.5t92 35.5q49 0 78 -35.5t20 -85.5q-7 -51 -47 -85t-90 -34q-52 0 -80.5 34t-20.5 85zM207 793q9 53 47.5 87.5t89.5 34.5t80 -35t20 -87q-7 -49 -47.5 -83t-91.5 -34t-78.5 33.5t-19.5 83.5z" />
<glyph unicode=";" horiz-adv-x="548" d="M233 795q7 51 47 85.5t91 34.5t80 -34.5t20 -85.5q-7 -51 -47.5 -85t-91.5 -34t-79 34t-20 85zM236 -23h-17q-49 0 -76.5 34.5t-19.5 84.5q6 50 46 85.5t91 35.5q55 0 83.5 -41.5t16.5 -112.5q-43 -271 -299 -401q-18 -11 -24 2l-19 43q-6 14 11 25q165 96 207 245z" />
<glyph unicode="&#x3c;" horiz-adv-x="1116" d="M33 719v4q2 22 33 37l1003 516q20 8 26.5 5t4.5 -17l-15 -86q-3 -31 -38 -45l-797 -412l665 -414q30 -15 25 -45l-12 -84q-3 -16 -10.5 -19t-24.5 5l-838 516q-25 14 -22 39z" />
<glyph unicode="=" horiz-adv-x="974" d="M838 764h-660q-19 0 -24 6t-2 25l8 59q3 20 10.5 27.5t26.5 7.5h661q19 0 25.5 -7t3.5 -26l-10 -61q-4 -19 -12 -25t-27 -6zM776 358h-661q-19 0 -25.5 7t-3.5 26l10 60q3 20 10.5 26t26.5 6h662q19 0 24 -5.5t2 -24.5l-8 -64q-3 -18 -11 -24.5t-26 -6.5z" />
<glyph unicode="&#x3e;" horiz-adv-x="1116" d="M1083 725v-4q0 -23 -32 -39l-1006 -518q-19 -8 -25 -5t-6 19l15 84q5 30 39 45l800 414l-669 412q-31 17 -25 45l14 86q7 30 33 12l840 -514q22 -12 22 -37z" />
<glyph unicode="?" horiz-adv-x="1058" d="M430 705q461 83 496 309q22 131 -70 215t-274 84q-91 0 -186.5 -35.5t-211.5 -106.5q-17 -9 -26 -5.5t-15 20.5l-30 65q-10 31 18 45q269 160 483 160q111 0 199 -26.5t142.5 -69.5t87.5 -100t42.5 -117t-0.5 -121q-12 -75 -47.5 -136t-84.5 -103.5t-118.5 -76.5 t-139.5 -56t-158 -40l-25 -151q-3 -19 -10 -26t-25 -7h-80q-19 0 -25 7t-3 26l34 219q5 24 27 27zM262 94q8 50 47.5 85.5t89.5 35.5q51 0 81 -35.5t22 -85.5q-7 -50 -48.5 -84.5t-93.5 -34.5q-50 0 -78 34t-20 85z" />
<glyph unicode="@" horiz-adv-x="2158" d="M1919 532q25 159 2 287.5t-86.5 227t-158.5 165t-215.5 100.5t-258.5 34q-175 0 -340.5 -65t-293 -175.5t-215.5 -262.5t-115 -321t12 -322t130 -263t231.5 -175t308.5 -65q68 0 142 14t126 37q22 8 31 6t10 -16l6 -64q2 -21 -2 -30t-23 -17q-143 -61 -311 -61 q-201 0 -366.5 75.5t-269.5 204t-148.5 304.5t-14.5 372q31 195 132 370.5t248 304.5t341 204.5t402 75.5q164 0 305.5 -40t251.5 -118t182.5 -192.5t98 -263.5t-2.5 -331q-12 -72 -28.5 -139t-42 -138t-60 -129t-77.5 -105t-100.5 -72.5t-123.5 -24.5q-108 0 -172.5 59.5 t-73.5 172.5l-6 67q-27 -34 -46.5 -56t-64.5 -62t-88 -64.5t-107.5 -44t-133.5 -19.5q-84 0 -154.5 28t-118 78t-78.5 118.5t-37.5 149.5t5.5 171q38 230 192.5 386.5t364.5 156.5q58 0 108 -13.5t85 -37.5t62 -49t45.5 -55.5t27.5 -49t16 -37.5l49 193q13 26 35 26h66 q18 0 23.5 -7t2.5 -25l-121 -754q-17 -103 19 -154t112 -51q50 0 91.5 26.5t70.5 69.5t52.5 107.5t38.5 130t28 147.5zM987 115q103 0 193.5 59t146.5 150.5t72 195.5q9 62 4.5 121t-28 110.5t-58.5 90.5t-87.5 61.5t-115.5 22.5q-155 0 -271.5 -120t-142.5 -284 q-28 -175 50.5 -291t236.5 -116z" />
<glyph unicode="A" d="M805 1188h-4l-406 -668h604zM872 1440l445 -1407q4 -13 -4 -23t-23 -10h-116q-17 0 -24 6.5t-13 26.5l-105 348h-715l-213 -348q-12 -19 -22 -26t-27 -7h-118q-13 0 -17 10t4 23l891 1407q17 28 29 28h6q3 0 5.5 -1t4 -2t3 -4.5t2.5 -5t3.5 -7t3.5 -8.5z" />
<glyph unicode="B" horiz-adv-x="1370" d="M662 0h-547q-19 0 -25.5 6.5t-3.5 26.5l219 1368q3 19 10.5 26t26.5 7h496q73 0 140 -12t128.5 -41.5t103.5 -74t61 -114t5 -156.5q-8 -51 -31 -96.5t-52 -76.5t-66.5 -57t-68.5 -41t-63 -26v-2q29 -9 57.5 -23t67 -43t64.5 -64.5t40 -91.5t3 -120q-16 -105 -68.5 -183 t-130.5 -123.5t-169.5 -67t-196.5 -21.5zM266 139h404q352 0 395 273q17 105 -67 179.5t-224 74.5h-424zM371 801h403q132 0 226.5 61t109.5 160q23 137 -59 204.5t-246 67.5h-356z" />
<glyph unicode="C" horiz-adv-x="1470" d="M739 117q255 0 463 184q25 22 43 -2l51 -66q11 -15 9 -25.5t-19 -23.5q-114 -98 -266.5 -154.5t-302.5 -56.5q-147 0 -273 59.5t-209 159t-120 237.5t-13 288q33 208 155.5 378.5t306 267.5t388.5 97q150 0 285.5 -56.5t218.5 -154.5q9 -12 7.5 -21t-15.5 -24l-66 -59 q-26 -26 -47 -2q-61 77 -166 125.5t-239 48.5q-114 0 -228 -50.5t-202.5 -133t-151 -192t-80.5 -224.5q-23 -154 27.5 -291.5t168 -223t275.5 -85.5z" />
<glyph unicode="D" horiz-adv-x="1552" d="M348 1434h502q149 0 272 -55t202.5 -150t114 -228t11.5 -284q-31 -201 -150 -365.5t-297.5 -258t-379.5 -93.5h-502q-18 0 -25 7.5t-4 25.5l219 1368q3 19 10.5 26t26.5 7zM827 1294h-372l-183 -1155h371q123 0 234.5 47t194 126.5t137.5 184.5t73 220q18 116 -5 220.5 t-80 184t-153 126t-217 46.5z" />
<glyph unicode="E" horiz-adv-x="1298" d="M1026 0h-911q-19 0 -25.5 7t-3.5 26l219 1368q3 19 10.5 26t26.5 7h911q18 0 24 -7.5t3 -25.5l-12 -76q-3 -19 -11.5 -26t-27.5 -7h-780l-78 -497h745q19 0 24.5 -7t2.5 -26l-13 -76q-3 -19 -10.5 -26t-25.5 -7h-748l-80 -512h783q18 0 23 -6.5t3 -25.5l-14 -76 q-2 -19 -9 -26t-26 -7z" />
<glyph unicode="F" horiz-adv-x="1277" d="M352 653l-98 -620q-3 -19 -10.5 -26t-24.5 -7h-98q-19 0 -25.5 7t-3.5 26l219 1368q3 19 10.5 26t26.5 7h907q19 0 25.5 -7t3.5 -26l-12 -76q-3 -19 -11.5 -26t-25.5 -7h-780l-78 -497h762q18 0 23.5 -7t2.5 -26l-12 -76q-3 -19 -11.5 -26t-25.5 -7h-764z" />
<glyph unicode="G" horiz-adv-x="1546" d="M926 1317q-115 0 -228.5 -50t-201.5 -132.5t-149.5 -192t-78.5 -225.5q-12 -93 -1.5 -180t51 -163.5t98 -133.5t141 -90t178.5 -33q245 0 447 157l53 332h-391q-18 0 -24 6.5t-3 24.5l10 78q5 19 13 26t26 7h520q20 0 26 -7.5t1 -25.5l-72 -453q-5 -39 -43 -74 q-118 -99 -276 -157t-309 -58q-145 0 -270 59.5t-208 159t-120 237.5t-13 288q33 208 155 378.5t304.5 267.5t386.5 97q148 0 282 -56t222 -153q9 -15 7 -22.5t-17 -22.5l-66 -59q-27 -24 -47 -2q-62 75 -172 123.5t-231 48.5z" />
<glyph unicode="H" horiz-adv-x="1552" d="M1190 791l98 610q2 19 9 26t26 7h98q19 0 25 -7t4 -26l-219 -1368q-3 -19 -10.5 -26t-26.5 -7h-98q-19 0 -24.5 7t-2.5 26l98 614h-807l-98 -614q-2 -19 -9 -26t-26 -7h-98q-19 0 -25 7t-4 26l219 1368q3 19 10.5 26t26.5 7h99q18 0 23.5 -7t2.5 -26l-98 -610h807z" />
<glyph unicode="I" horiz-adv-x="583" d="M100 33l219 1368q3 19 10.5 26t26.5 7h99q20 0 24.5 -6.5t1.5 -26.5l-219 -1368q-2 -19 -9 -26t-26 -7h-98q-19 0 -25 7t-4 26z" />
<glyph unicode="J" horiz-adv-x="921" d="M698 1305h-325q-18 0 -23 6.5t-2 25.5l10 64q3 19 10.5 26t26.5 7h457q19 0 24.5 -7t2.5 -26l-136 -844q-25 -157 -83 -269.5t-151 -181t-213.5 -100.5t-279.5 -33q-22 0 -29 6.5t-7 26.5l4 80q0 35 43 35q263 0 391 104t164 332z" />
<glyph unicode="K" horiz-adv-x="1335" d="M516 750l645 -717q12 -19 7 -26t-21 -7h-141q-15 0 -24.5 7t-23.5 26l-589 655l-105 -655q-3 -20 -10.5 -26.5t-26.5 -6.5h-98q-19 0 -25 7t-4 26l219 1368q3 19 10.5 26t26.5 7h99q19 0 24.5 -6.5t3.5 -26.5l-96 -596l754 596q22 21 32.5 27t28.5 6h131q16 0 19 -8 t-13 -25z" />
<glyph unicode="L" horiz-adv-x="1167" d="M272 141h705q19 0 24.5 -6.5t2.5 -25.5l-13 -76q-3 -19 -11.5 -26t-27.5 -7h-831q-19 0 -25.5 7t-3.5 26l219 1368q3 19 10.5 26t26.5 7h96q19 0 25.5 -7t3.5 -26z" />
<glyph unicode="M" horiz-adv-x="2039" d="M1681 1100l-731 -1094q-23 -33 -43 -33h-14q-20 0 -33 33l-381 1092l-291 -1065q-5 -20 -11.5 -26.5t-24.5 -6.5h-101q-18 0 -23 7t1 26l395 1409q3 11 6.5 14.5t13.5 3.5h13q13 0 22 -18l459 -1239l852 1239q14 18 27 18h12q10 0 13 -3.5t3 -14.5l-53 -1409 q-1 -18 -9 -25.5t-26 -7.5h-100q-19 0 -24 6.5t-3 26.5z" />
<glyph unicode="N" horiz-adv-x="1589" d="M436 1135l-176 -1102q-3 -19 -10.5 -26t-26.5 -7h-96q-19 0 -25.5 7t-3.5 26l226 1411q1 10 5 13t15 3h10q17 0 25 -14l774 -1139l174 1094q3 20 10.5 26.5t26.5 6.5h98q19 0 24.5 -6.5t2.5 -26.5l-225 -1411q-2 -17 -19 -17h-10q-15 0 -29 17z" />
<glyph unicode="O" horiz-adv-x="1671" d="M102 717q31 208 154 378.5t306.5 267.5t387.5 97q148 0 274.5 -59t209.5 -159t120.5 -237.5t14.5 -287.5t-103.5 -288t-195 -237.5t-260 -159t-293.5 -59.5t-274 59.5t-208 159t-119 237.5t-14 288zM268 717q-17 -117 9 -226.5t87.5 -192t159 -132t215.5 -49.5t233 51 t202.5 134t149 192t79.5 223q24 156 -29 294t-171 222t-273 84q-154 0 -299 -84.5t-242.5 -222.5t-120.5 -293z" />
<glyph unicode="P" horiz-adv-x="1269" d="M360 700h342q357 0 406 306q5 43 4 84.5t-21.5 78.5t-54 65t-94.5 44t-143 16h-344zM692 561h-354l-84 -528q-3 -19 -10 -26t-27 -7h-96q-20 0 -26 7t-3 26l219 1368q3 21 10 27t27 6h481q79 0 146.5 -12.5t129.5 -43t102 -78t57 -123t2 -171.5t-56.5 -173t-97 -127 t-126.5 -83.5t-143.5 -47.5t-150.5 -14z" />
<glyph unicode="Q" horiz-adv-x="1671" d="M119 717q33 208 156 378.5t307 267.5t389 97q147 0 273 -59t209 -159t119.5 -237.5t12.5 -287.5q-55 -360 -416 -606l140 -248q16 -26 -15 -45l-88 -58q-29 -15 -43 11l-139 268q-80 -34 -143 -50t-146 -16q-148 0 -274 59.5t-208.5 159t-119.5 237.5t-14 288zM287 717 q-24 -157 27 -294.5t168.5 -221.5t275.5 -84q114 0 228.5 51t204 134t152.5 192.5t80 222.5q22 157 -31 294.5t-171 221.5t-273 84q-115 0 -229 -50t-202.5 -132.5t-150.5 -192t-79 -225.5z" />
<glyph unicode="R" horiz-adv-x="1368" d="M1266 1004q-54 -339 -389 -424l299 -541q10 -19 0 -29t-31 -10h-96q-32 0 -52 33l-292 528h-367l-84 -528q-3 -20 -10.5 -26.5t-26.5 -6.5h-96q-20 0 -26 6t-3 27l219 1368q3 19 10.5 26t26.5 7h488q74 0 139.5 -12.5t126.5 -43.5t102 -78.5t59 -123.5t3 -172zM360 700 h349q177 0 276 79.5t123 224.5q24 148 -57.5 219t-245.5 71h-350z" />
<glyph unicode="S" horiz-adv-x="1308" d="M764 1313q-88 0 -160 -19t-117 -48t-77.5 -68t-47.5 -74.5t-20 -71.5q-7 -41 2 -74t35 -56.5t58 -41t81.5 -30.5t95 -21t107.5 -16q45 -6 83.5 -13.5t78.5 -18.5t72 -24.5t63.5 -31.5t53 -39.5t41 -49t27.5 -59.5t12 -71.5t-5 -84.5q-13 -84 -58 -159t-117.5 -135 t-179.5 -95t-235 -35q-319 0 -526 158q-13 9 -13.5 18.5t11.5 26.5l51 66q21 30 47 12q86 -66 200 -101.5t232 -35.5q60 0 114.5 8t108 27.5t94.5 50t71 78.5t40 110q20 120 -72.5 176t-306.5 86q-61 9 -110 20t-105 29.5t-95.5 46t-71 65t-43 91t-1.5 119.5q8 53 31.5 108 t70.5 113.5t111 103.5t161 74t212 29q147 0 253.5 -38.5t225.5 -117.5q23 -15 2 -45l-49 -63q-21 -35 -47 -14q-179 135 -389 135z" />
<glyph unicode="T" horiz-adv-x="1247" d="M166 1434h1141q20 0 25.5 -7t2.5 -26l-12 -82q-3 -19 -11.5 -26t-27.5 -7h-489l-201 -1253q-2 -19 -9 -26t-26 -7h-98q-20 0 -25.5 7t-3.5 26l201 1253h-492q-20 0 -24.5 6.5t-1.5 26.5l14 82q3 19 10.5 26t26.5 7z" />
<glyph unicode="U" horiz-adv-x="1466" d="M616 -27q-126 0 -225.5 39.5t-165 115.5t-90 194t-0.5 268l129 811q3 20 10.5 26.5t26.5 6.5h96q19 0 25.5 -7t3.5 -26l-127 -801q-40 -245 53 -364t287 -119t325 119t171 364l127 801q3 19 10.5 26t25.5 7h99q18 0 23.5 -7t2.5 -26l-129 -811q-32 -199 -130.5 -340 t-238 -209t-309.5 -68z" />
<glyph unicode="V" d="M590 -6l-445 1407q-4 13 3.5 23t21.5 10h119q15 0 22.5 -6.5t14.5 -26.5l338 -1125h2l692 1125q20 33 49 33h115q34 0 18 -33l-893 -1407q-19 -29 -31 -29h-4q-4 0 -6 1t-4.5 4.5t-3.5 5.5t-4 8.5t-4 9.5z" />
<glyph unicode="W" horiz-adv-x="1968" d="M326 1401l213 -1092l522 1118q17 33 35 33h18q10 0 15 -7.5t10 -25.5l168 -1118l559 1092q13 33 45 33h125q15 0 17.5 -7t-7.5 -26l-754 -1407q-2 -4 -5 -8.5t-5 -7t-4 -5.5t-3.5 -4.5t-4 -2.5t-4.5 -1h-17q-10 0 -16 29l-178 1161l-545 -1161q-14 -29 -27 -29h-12 q-11 0 -20 29l-308 1407q-4 18 1 25.5t20 7.5h125q17 0 25.5 -7t11.5 -26z" />
<glyph unicode="X" horiz-adv-x="1366" d="M664 584l-535 -551q-19 -20 -29 -26.5t-26 -6.5h-115q-36 0 -12 33l647 680l-432 688q-18 33 18 33h117q18 0 27 -6.5t20 -26.5l363 -557l538 557q17 20 28 26.5t30 6.5h114q40 0 10 -33l-649 -688l430 -680q16 -33 -22 -33h-113q-17 0 -27 7t-22 26z" />
<glyph unicode="Y" horiz-adv-x="1275" d="M539 561l-404 840q-16 33 19 33h112q18 0 26.5 -7t16.5 -26l332 -688l551 688q15 21 24.5 27t26.5 6h109q35 0 12 -33l-668 -840l-86 -528q-3 -19 -10.5 -26t-26.5 -7h-92q-19 0 -25 7t-3 26z" />
<glyph unicode="Z" horiz-adv-x="1271" d="M1040 0h-1073q-6 0 -8.5 0.5t-5.5 4t0 11.5l4 21q3 9 16 22l1084 1233h-809q-19 0 -24.5 7t-2.5 26l12 76q3 19 10.5 26t26.5 7h1039q19 0 16 -17l-4 -16q-3 -14 -16 -29l-1084 -1231h842q18 0 24 -6t3 -26l-13 -76q-3 -19 -10.5 -26t-26.5 -7z" />
<glyph unicode="[" horiz-adv-x="784" d="M518 -279l-10 -67q-5 -19 -13 -26t-26 -7h-385q-19 0 -24.5 7t-2.5 26l281 1771q3 19 11.5 26t27.5 7h385q18 0 22.5 -7t1.5 -26l-10 -67q-3 -19 -10.5 -26t-26.5 -7h-272l-248 -1571h273q18 0 23 -6.5t3 -26.5z" />
<glyph unicode="\" horiz-adv-x="880" d="M498 29l-256 1372q-3 19 3.5 26t26.5 7h82q17 0 24.5 -6.5t10.5 -22.5l256 -1372q1 -18 -6.5 -25.5t-28.5 -7.5h-78q-19 0 -25 5t-9 24z" />
<glyph unicode="]" horiz-adv-x="778" d="M-8 -346l10 67q3 19 10.5 26t26.5 7h272l248 1571h-272q-19 0 -24.5 7t-2.5 26l10 67q5 19 13 26t26 7h385q19 0 24.5 -7t2.5 -26l-281 -1771q-3 -19 -11.5 -26t-27.5 -7h-385q-17 0 -22 7t-2 26z" />
<glyph unicode="^" horiz-adv-x="733" d="M371 1542h55q19 0 37 -33l168 -303q17 -32 -19 -32h-63q-31 0 -45 32l-121 240l-197 -240q-22 -32 -57 -32h-61q-17 0 -19 7.5t10 24.5l260 303q29 33 52 33z" />
<glyph unicode="_" horiz-adv-x="1052" d="M926 -156h-815q-19 0 -24.5 7t-2.5 26l10 66q3 19 10.5 25.5t26.5 6.5h815q19 0 24.5 -6.5t2.5 -25.5l-10 -68q-3 -18 -11 -24.5t-26 -6.5z" />
<glyph unicode="`" horiz-adv-x="485" d="M248 1202l-160 174q-19 19 0 41l47 62q28 31 45 8l211 -270q27 -35 -10 -35h-82q-28 0 -51 20z" />
<glyph unicode="a" horiz-adv-x="1161" d="M315 897q-18 -3 -24.5 3t-9.5 26l-7 61q-2 18 4.5 26.5t26.5 14.5q38 9 147.5 23t211.5 14q170 0 258 -52.5t108.5 -162t-6.5 -277.5l-88 -540q-3 -19 -10.5 -26t-26.5 -7h-55q-26 0 -29 33l14 139q-28 -32 -67 -63t-94.5 -62.5t-129 -50.5t-151.5 -19q-155 0 -244.5 91 t-64.5 249q26 163 152 247.5t319 84.5q156 0 321 -71q31 194 -21 273t-214 79q-37 0 -73 -2t-74.5 -6.5t-60 -7.5t-63.5 -9.5t-49 -7.5zM563 535q-145 0 -231 -56.5t-103 -161.5q-14 -98 45 -158.5t181 -60.5q99 0 200.5 57t167.5 136l29 170q-60 26 -94.5 39t-87 24 t-107.5 11z" />
<glyph unicode="b" horiz-adv-x="1296" d="M463 1479l-105 -654q12 21 32.5 47t59 61.5t83 63.5t108.5 48t133 20q140 0 237 -73.5t135.5 -196.5t14.5 -273q-23 -149 -100 -272.5t-198 -198t-261 -74.5q-69 0 -127.5 19t-94 44t-67 64t-44.5 62t-29 57l-47 -190q-9 -19 -17.5 -26t-21.5 -7h-50q-17 0 -23 7t-3 26 l231 1446q3 19 10.5 25.5t24.5 6.5h92q18 0 24 -7t3 -25zM594 115q158 0 273 116.5t143 290.5q17 107 -10.5 198t-100 148.5t-176.5 57.5q-103 0 -193.5 -59t-147 -151t-73.5 -196q-17 -103 10.5 -194.5t100 -151t174.5 -59.5z" />
<glyph unicode="c" horiz-adv-x="1107" d="M571 117q84 0 163 30.5t138 83.5q25 20 46 -6l40 -51q18 -23 -8 -43q-179 -154 -403 -154q-147 0 -259 73t-163.5 198t-28.5 272q37 227 219 386t406 159t354 -154q16 -19 -8 -43l-55 -51q-27 -27 -45 -6q-45 54 -114.5 84.5t-152.5 30.5q-161 0 -292.5 -118.5 t-159.5 -287.5q-26 -170 67.5 -286.5t255.5 -116.5z" />
<glyph unicode="d" horiz-adv-x="1296" d="M965 825l102 654q3 19 10.5 25.5t24.5 6.5h92q19 0 24.5 -6.5t2.5 -25.5l-230 -1446q-3 -19 -11.5 -26t-25.5 -7h-47q-14 0 -20.5 7t-9.5 26l14 190q-28 -34 -47.5 -56.5t-64.5 -62.5t-88.5 -64t-108 -43.5t-133.5 -19.5q-140 0 -237 74.5t-135.5 198t-15.5 272.5 q18 112 67.5 211t122 172.5t169 116.5t201.5 43q69 0 127 -20t93.5 -47.5t64 -64t40.5 -61.5t19 -47zM502 115q153 0 270 122.5t143 282.5q17 104 -10.5 196t-99 151t-174.5 59q-104 0 -194.5 -57.5t-147 -148.5t-74.5 -198q-28 -174 50.5 -290.5t236.5 -116.5z" />
<glyph unicode="e" horiz-adv-x="1228" d="M971 213l30 -47q19 -24 -8 -45q-81 -68 -199.5 -106t-236.5 -38q-152 0 -266 73t-166 197.5t-29 272.5q37 227 219 386t406 159q117 0 206.5 -45t139.5 -122.5t70.5 -180t-0.5 -217.5q-3 -20 -9.5 -26.5t-25.5 -6.5h-854q-14 -144 84.5 -249t253.5 -105q181 0 338 102 q15 7 21 9t12.5 0t13.5 -11zM266 573h725q10 94 -20 175.5t-101.5 134.5t-171.5 53q-153 0 -278 -111.5t-154 -251.5z" />
<glyph unicode="f" horiz-adv-x="845" d="M287 1038l8 64q37 225 142.5 341t301.5 116q104 0 170 -39q12 -9 14.5 -16t-3.5 -25l-25 -66q-7 -20 -15.5 -22.5t-27.5 6.5q-51 22 -119 22q-125 0 -191.5 -74.5t-95.5 -252.5l-8 -54h371q18 0 23 -6.5t2 -25.5l-9 -62q-4 -20 -11.5 -26.5t-25.5 -6.5h-370l-137 -878 q-5 -19 -13 -26t-26 -7h-88q-20 0 -25 7t-2 26l139 878h-151q-19 0 -25.5 6.5t-3.5 26.5l10 62q3 18 11.5 25t27.5 7h152z" />
<glyph unicode="g" horiz-adv-x="1296" d="M913 57l27 160q-14 -22 -34 -47.5t-59 -61.5t-83.5 -63.5t-108.5 -47.5t-133 -20q-141 0 -238 73.5t-135 196.5t-14 273q24 149 101 272.5t197.5 198t260.5 74.5q69 0 127.5 -19.5t94 -43.5t68 -64t45.5 -62t30 -57l45 191q10 19 18.5 25.5t22.5 6.5h47q18 0 24 -7t3 -25 l-148 -936q-90 -580 -569 -580q-32 0 -64 1.5t-58.5 4.5t-53.5 7t-47 8t-42.5 10t-36 9.5t-31 9.5t-25 9t-20 7.5t-13.5 5.5q-15 6 -18.5 14t3.5 25l31 78q7 18 15.5 22t23.5 -4q3 -1 23.5 -9.5t29.5 -11.5t32 -11t39 -12t42.5 -10t50.5 -8.5t55.5 -5t63.5 -2.5 q96 0 169 31.5t121 90t77 133t44 171.5zM705 928q-158 0 -273.5 -117t-142.5 -291q-17 -106 10.5 -197t99.5 -148.5t176 -57.5q103 0 193.5 59t147 150.5t73.5 195.5q12 76 -1.5 149t-48.5 130t-96 92t-138 35z" />
<glyph unicode="h" horiz-adv-x="1232" d="M465 1479l-103 -631q21 32 51.5 64.5t76.5 69.5t108.5 60t128.5 23q85 0 152 -26t116.5 -81.5t66 -143t-0.5 -210.5l-92 -571q-3 -19 -10.5 -26t-26.5 -7h-90q-18 0 -24 7.5t-3 25.5l86 530q28 177 -36.5 270t-194.5 93t-229 -109.5t-126 -267.5l-82 -516 q-3 -19 -10.5 -26t-25.5 -7h-91q-17 0 -23 7t-3 26l82 508l149 938q3 19 10.5 25.5t24.5 6.5h92q18 0 24 -7t3 -25z" />
<glyph unicode="i" horiz-adv-x="636" d="M129 33l154 977q5 19 12.5 25.5t26.5 6.5h90q20 0 24.5 -6.5t-0.5 -25.5l-153 -977q-3 -19 -10.5 -26t-26.5 -7h-90q-19 0 -24.5 7t-2.5 26zM311 1384q8 45 44 76t81 31q43 0 69.5 -31.5t20.5 -75.5q-7 -44 -44 -75t-81 -31t-70.5 31t-19.5 75z" />
<glyph unicode="j" horiz-adv-x="778" d="M506 1384q8 44 44.5 75.5t80.5 31.5q43 0 69 -31.5t19 -75.5q-6 -44 -42 -75t-81 -31q-44 0 -70 31t-20 75zM156 946l10 64q3 18 11 25t26 7h405q19 0 24.5 -6.5t2.5 -25.5l-164 -1037q-35 -223 -142.5 -339.5t-303.5 -116.5q-119 0 -193 53q-11 8 -12 15t6 26l22 63 q9 23 16.5 26.5t26.5 -7.5q54 -37 142 -37q124 0 190.5 75t95.5 253l140 880l8 49h-283q-31 0 -28 33z" />
<glyph unicode="k" horiz-adv-x="1134" d="M475 553l457 -520q22 -33 -14 -33h-132q-16 0 -25.5 6.5t-23.5 26.5l-426 479l-75 -479q-3 -19 -10.5 -26t-26.5 -7h-88q-19 0 -25.5 7t-3.5 26l231 1446q3 19 10.5 25.5t26.5 6.5h88q20 0 26 -6.5t3 -25.5l-143 -895l542 426q19 19 31 25.5t29 6.5h125q17 0 19.5 -10 t-11.5 -22z" />
<glyph unicode="l" horiz-adv-x="575" d="M94 33l232 1446q3 19 10 25.5t26 6.5h91q19 0 24 -6.5t2 -25.5l-231 -1446q-2 -19 -9 -26t-26 -7h-90q-19 0 -25 7t-4 26z" />
<glyph unicode="m" horiz-adv-x="1880" d="M1047 813q25 41 58 79.5t81.5 80t112.5 67t133 25.5q78 0 141 -26t110 -81.5t62 -143t-2 -210.5l-88 -571q-5 -19 -13 -26t-26 -7h-90q-18 0 -23.5 7.5t-1.5 25.5l82 530q28 175 -34 269t-177 94q-116 0 -207.5 -100.5t-117.5 -266.5l-82 -526q-5 -19 -13 -26t-26 -7h-90 q-18 0 -23.5 7.5t-1.5 25.5l82 530q26 163 -31 263t-180 100q-122 0 -211.5 -105.5t-116.5 -271.5l-82 -516q-3 -19 -11 -26t-25 -7h-91q-17 0 -23 7t-3 26l155 977q3 19 10.5 25.5t24.5 6.5h51q24 0 29 -32l-14 -191q152 246 366 246q71 0 129 -25t93 -65t55.5 -80.5 t28.5 -81.5z" />
<glyph unicode="n" horiz-adv-x="1239" d="M393 1010l-12 -185q25 38 57 73.5t81 76t114.5 65.5t136.5 25q85 0 151.5 -26t115.5 -81.5t65.5 -143t-0.5 -210.5l-90 -571q-3 -19 -11.5 -26t-25.5 -7h-92q-17 0 -22.5 7t-2.5 26l84 530q28 177 -36.5 270t-194.5 93t-229 -109.5t-124 -267.5l-82 -516 q-3 -19 -10.5 -26t-25.5 -7h-93q-17 0 -22 7t-2 26l80 508l76 469q3 19 10 25.5t24 6.5h52q12 0 18.5 -7t9.5 -25z" />
<glyph unicode="o" horiz-adv-x="1273" d="M96 520q37 227 220 386t407 159q147 0 259.5 -73.5t164 -199t27.5 -272.5q-23 -147 -114.5 -272t-227.5 -198t-283 -73t-259.5 73t-164.5 198t-29 272zM571 115q161 0 292 118t159 287q26 169 -67.5 287.5t-254.5 118.5t-292.5 -118.5t-157.5 -287.5 q-28 -168 66.5 -286.5t254.5 -118.5z" />
<glyph unicode="p" horiz-adv-x="1296" d="M328 217l-97 -602q-3 -19 -10.5 -26t-25.5 -7h-91q-17 0 -23 7t-3 26l223 1395q3 19 10.5 25.5t24.5 6.5h49q14 0 20.5 -6.5t10.5 -25.5l-15 -191q25 32 46.5 56.5t65 63t87.5 63.5t108.5 44t133.5 19q105 0 187.5 -43.5t131.5 -117.5t67.5 -173.5t0.5 -210.5 q-24 -150 -101 -273t-197.5 -196.5t-260.5 -73.5q-69 0 -127 20t-93 47.5t-63 64t-40 61t-19 47.5zM791 928q-103 0 -194.5 -59.5t-147.5 -151.5t-72 -195q-9 -62 -4.5 -120.5t28 -110.5t58.5 -90.5t87.5 -61t115.5 -22.5q103 0 193 57t147 148.5t75 197.5q27 174 -51.5 291 t-234.5 117z" />
<glyph unicode="q" horiz-adv-x="1296" d="M838 -385l96 602q-14 -22 -34 -47.5t-59 -61.5t-83.5 -63.5t-108.5 -47.5t-133 -20q-140 0 -237 73.5t-135.5 196.5t-14.5 273q24 149 101 272.5t197.5 198t260.5 74.5q69 0 127.5 -19t94 -44t67.5 -64t45 -62.5t29 -56.5l47 191q10 19 18.5 25.5t22.5 6.5h47 q18 0 23.5 -7t2.5 -25l-221 -1395q-3 -19 -11.5 -26t-25.5 -7h-92q-17 0 -22 7t-2 26zM696 928q-158 0 -272 -116.5t-141 -291.5q-18 -106 9 -197.5t99 -148.5t176 -57t195 59t147.5 150.5t73.5 195.5q16 103 -11.5 195t-100 151.5t-175.5 59.5z" />
<glyph unicode="r" horiz-adv-x="847" d="M809 913q-188 0 -308.5 -111t-144.5 -265l-80 -504q-3 -19 -11 -26t-25 -7h-93q-17 0 -22 7t-2 26l156 977q3 19 10 25.5t24 6.5h52q12 0 18.5 -7t9.5 -25l-8 -205q22 35 42 61.5t62.5 66.5t89.5 66.5t119.5 46t155.5 19.5q21 0 26.5 -7t-1.5 -22l-29 -92 q-8 -19 -15.5 -25t-25.5 -6z" />
<glyph unicode="s" horiz-adv-x="1040" d="M455 102q141 0 219.5 53.5t91.5 137.5q10 66 -55.5 104.5t-208.5 59.5q-69 9 -117 19.5t-100.5 31.5t-82 50.5t-45 77t-5.5 109.5q23 149 142.5 234.5t301.5 85.5q202 0 373 -115q16 -13 15.5 -21t-11.5 -24l-35 -49q-21 -35 -47 -14q-79 54 -145 76t-162 22 q-127 0 -199 -49.5t-86 -136.5q-4 -28 0 -49t20.5 -37t35 -26.5t55 -19.5t68 -14.5t85.5 -13.5q65 -10 116 -22.5t100.5 -36t81 -54t46.5 -76.5t6 -104q-22 -144 -149 -234t-322 -90q-93 0 -199.5 31.5t-199.5 100.5q-13 10 -12.5 18.5t12.5 26.5l39 51q12 17 19 20t26 -8 q146 -115 328 -115z" />
<glyph unicode="t" horiz-adv-x="897" d="M696 27q-90 -50 -202 -50q-196 0 -265 116t-34 339l75 483h-100q-19 0 -24.5 7t-2.5 26l11 62q3 20 10 26t26 6h101l35 211q2 19 9 26t25 7h91q18 0 23.5 -7t2.5 -26l-35 -211h371q18 0 24 -6t3 -26l-9 -62q-5 -19 -12.5 -26t-25.5 -7h-369l-76 -471q-27 -178 16 -252.5 t168 -74.5q47 0 77 5.5t69 24.5q22 11 29 8t8 -24l4 -65q0 -28 -23 -39z" />
<glyph unicode="u" horiz-adv-x="1239" d="M844 33l12 184q-25 -38 -57 -73.5t-81 -76t-114.5 -65.5t-136.5 -25q-85 0 -151.5 26t-115.5 81.5t-65.5 143t0.5 210.5l90 572q3 18 11 25t26 7h92q17 0 22.5 -6.5t2.5 -25.5l-84 -531q-28 -177 36.5 -269.5t194.5 -92.5t229 109.5t124 267.5l82 516q3 19 11 25.5 t25 6.5h93q17 0 22 -6.5t2 -25.5l-80 -508l-76 -469q-3 -19 -10 -26t-24 -7h-52q-23 0 -28 33z" />
<glyph unicode="v" horiz-adv-x="1050" d="M414 -6l-318 1016q-4 13 3 22.5t22 9.5h100q17 0 24 -6t15 -26l225 -748l2 -2l463 750q19 32 45 32h103q16 0 19.5 -11t-3.5 -21l-643 -1016q-19 -29 -29 -29h-6q-13 0 -22 29z" />
<glyph unicode="w" horiz-adv-x="1501" d="M272 1014l107 -719l416 749q1 1 5 6.5t5 7.5t4.5 5.5t6 5t6 3t7.5 1.5h15q5 0 8.5 -1.5t6.5 -7.5t4.5 -8.5t4.5 -11.5l181 -749l329 715q9 19 19 25.5t28 6.5h109q17 0 19.5 -6.5t-5.5 -25.5l-477 -1002q-15 -31 -33 -31h-10q-17 0 -29 31l-202 821l-461 -821 q-22 -31 -39 -31h-10q-17 0 -23 31l-160 1002q-4 19 1 25.5t22 6.5h111q16 0 23.5 -5.5t10.5 -22.5z" />
<glyph unicode="x" horiz-adv-x="991" d="M485 426l-356 -393q-22 -33 -51 -33h-111q-20 0 -23 7t11 26l438 487l-282 490q-9 19 -4.5 25.5t22.5 6.5h115q17 0 25.5 -6.5t17.5 -25.5l227 -396l346 396q13 20 23 26t28 6h113q20 0 23 -6.5t-11 -25.5l-434 -490l277 -487q8 -19 3 -26t-24 -7h-113q-17 0 -25.5 6.5 t-17.5 26.5z" />
<glyph unicode="y" horiz-adv-x="1056" d="M516 227l467 783q12 19 21.5 25.5t25.5 6.5h105q18 0 21 -6.5t-9 -25.5l-844 -1395q-12 -20 -21.5 -26.5t-25.5 -6.5h-104q-18 0 -21 7t8 26l264 438l-274 957q-6 19 -1.5 25.5t22.5 6.5h106q16 0 23.5 -6t13.5 -26l221 -783h2z" />
<glyph unicode="z" horiz-adv-x="999" d="M815 0h-815q-10 0 -12.5 3t-1.5 13l2 13q2 14 18 30l744 846h-539q-19 0 -25 7t-4 26l15 72q3 19 10 25.5t26 6.5h758q10 0 13.5 -3.5t1.5 -12.5l-5 -14q-2 -12 -18 -31l-741 -844h596q18 0 24 -7t2 -26l-12 -71q-3 -19 -10.5 -26t-26.5 -7z" />
<glyph unicode="{" horiz-adv-x="921" d="M68 469l12 82q3 24 35 35q72 19 136.5 74.5t74.5 123.5l24 162q15 95 47 173t71.5 130t90.5 91.5t99 62t102.5 36t95 17.5t82.5 4q19 0 24.5 -7t2.5 -26l-13 -79q-3 -18 -11 -24.5t-26 -6.5q-41 0 -83.5 -7.5t-96 -32t-97 -63.5t-79.5 -108.5t-51 -159.5l-25 -162 q-17 -107 -85 -177.5t-142 -92.5l-2 -8q31 -10 58.5 -31t51 -55t31.5 -79.5t0 -104.5l-24 -162q-13 -68 -6 -120.5t20.5 -91.5t40.5 -67t54 -46t61 -28t62 -14t56 -4q19 0 24.5 -6t2.5 -25l-12 -80q-3 -19 -11 -25.5t-26 -6.5q-42 0 -81 4.5t-90.5 17t-90 36t-80 61.5 t-60.5 92.5t-30.5 129.5t8.5 173l25 162q11 69 -34.5 124t-111.5 74q-30 9 -24 35z" />
<glyph unicode="|" horiz-adv-x="526" d="M55 -170l281 1774q3 18 11.5 25t27.5 7h67q20 0 25 -6.5t0 -25.5l-279 -1774q-3 -19 -11 -26t-27 -7h-68q-19 0 -24.5 7t-2.5 26z" />
<glyph unicode="}" horiz-adv-x="921" d="M854 551l-12 -82q-6 -27 -37 -35q-72 -19 -136 -74t-75 -124l-25 -162q-15 -95 -47 -173t-71 -130t-89.5 -91.5t-98 -62t-101.5 -36t-94.5 -17.5t-81.5 -4q-20 0 -26 6t-3 26l12 80q3 19 10.5 25t26.5 6q41 0 83.5 7.5t96 32t97 63.5t79.5 108.5t50 159.5l24 162 q19 107 87 177.5t143 92.5l2 8q-70 22 -115.5 92.5t-28.5 177.5l25 162q8 59 7.5 106.5t-14.5 85t-31 65t-43 47.5t-51 33t-54.5 20.5t-54 10.5t-48.5 3q-17 0 -22 6t-2 25l12 79q3 19 10.5 26t26.5 7q42 0 81 -4.5t90 -17t89.5 -36t80 -61.5t60 -92.5t30 -129.5t-8.5 -173 l-25 -162q-10 -68 35.5 -123.5t109.5 -74.5q30 -12 27 -35z" />
<glyph unicode="~" horiz-adv-x="1110" d="M528 764q-42 43 -70.5 61.5t-66.5 18.5q-51 0 -92 -29.5t-86 -91.5q-16 -15 -25 -17t-24 9l-37 41q-20 23 8 49q65 75 126 116.5t145 41.5q91 0 178 -91q43 -44 68.5 -59.5t64.5 -15.5q51 0 92.5 29t87.5 92q15 17 25.5 18.5t23.5 -12.5l33 -41q23 -20 -6 -49 q-41 -48 -72 -76.5t-84.5 -54t-111.5 -25.5q-98 0 -177 86z" />
<glyph unicode="&#xa1;" horiz-adv-x="696" d="M145 -633l158 883q5 19 13 26t26 7h84q18 0 23.5 -7t3.5 -26l-125 -883q-2 -19 -9.5 -26t-27.5 -7h-119q-19 0 -25 7.5t-2 25.5zM328 674q6 49 45.5 83t89.5 34q49 0 77.5 -33.5t22.5 -83.5q-8 -50 -48 -84.5t-89 -34.5t-77.5 34.5t-20.5 84.5z" />
<glyph unicode="&#xa2;" horiz-adv-x="1099" d="M371 -272l78 260q-185 38 -281 189t-66 343q23 148 117.5 275.5t230.5 200t277 69.5l37 -2l57 194q6 19 15.5 25.5t27.5 3.5l25 -4q20 -1 25.5 -8.5t0.5 -26.5l-61 -198q62 -13 123 -51t104 -87q16 -19 -8 -43l-57 -51q-27 -27 -45 -6q-58 74 -158 98l-233 -790 q168 -3 299 112q25 20 45 -6l39 -51q17 -22 -7 -43q-179 -156 -417 -156l-74 -258q-7 -20 -15.5 -25.5t-27.5 -2.5l-27 2q-19 3 -23.5 10t-0.5 27zM254 520q-22 -150 51 -258t184 -131l236 793q-170 6 -306.5 -114t-164.5 -290z" />
<glyph unicode="&#xa3;" horiz-adv-x="1085" d="M141 723h123q-7 17 -21 46t-23.5 49t-22 53t-16.5 59t-7.5 67t4.5 76q11 71 45.5 137t90.5 123.5t143 92t192 34.5q200 0 404 -147q12 -10 11.5 -17.5t-11.5 -25.5l-52 -68q-26 -29 -45 -12q-60 53 -155.5 90t-165.5 37q-68 0 -124.5 -24t-93 -63t-58.5 -83.5t-29 -91.5 q-6 -37 4 -85.5t20 -76.5t38.5 -93t33.5 -77h414q18 0 23.5 -7t2.5 -26l-2 -20q-3 -19 -10.5 -25t-26.5 -6h-395q-1 -63 -23 -140.5t-47 -132.5t-60.5 -127.5t-45.5 -97.5h600q19 0 24.5 -6.5t2.5 -25.5l-13 -76q-3 -19 -10.5 -26t-25.5 -7h-768q-19 0 -24.5 7t-2.5 26 q4 24 43.5 96t83.5 150t79.5 179.5t33.5 180.5h-152q-19 0 -24.5 6t-2.5 25l4 20q3 19 10.5 26t26.5 7z" />
<glyph unicode="&#xa4;" horiz-adv-x="1073" d="M186 700q15 112 97 207l-119 142q-16 22 8 43l39 36q24 22 45 -2l117 -139q107 66 219 66t196 -68l162 141q25 22 45 0l27 -34q20 -22 -6 -43l-166 -144q55 -90 39 -205q-18 -108 -103 -206l119 -142q19 -21 -6 -43l-39 -35q-15 -12 -24.5 -12t-20.5 12l-119 140 q-108 -64 -217 -64q-111 0 -196 66l-162 -140q-13 -12 -23 -12t-22 12l-27 35q-17 23 8 45l162 138q-51 93 -33 206zM301 700q-15 -101 38 -170t159 -69q105 0 182 69t92 170t-39 171.5t-160 70.5t-182 -70.5t-90 -171.5z" />
<glyph unicode="&#xa5;" horiz-adv-x="1312" d="M649 713l551 688q15 20 24.5 26.5t24.5 6.5h109q19 0 23 -7t-7 -26l-512 -639h281q18 0 22.5 -7t1.5 -26l-6 -43q-3 -19 -10.5 -26t-26.5 -7h-333l-60 -57l-35 -76l-14 -102h405q19 0 24.5 -7t2.5 -26l-6 -43q-3 -19 -11.5 -26t-27.5 -7h-405l-43 -276q-3 -19 -10.5 -26 t-26.5 -7h-95q-18 0 -23.5 7t-2.5 26l43 276h-397q-19 0 -24.5 7t-0.5 26l6 43q1 19 9.5 26t27.5 7h397l23 143l-45 92h-338q-19 0 -24.5 7t-2.5 26l6 43q3 19 10.5 26t26.5 7h273l-310 639q-13 33 19 33h117q16 0 23 -6.5t17 -26.5z" />
<glyph unicode="&#xa6;" horiz-adv-x="530" d="M74 -150l119 754q3 19 10.5 26t25.5 7h50q19 0 24.5 -7t3.5 -26l-121 -754q-1 -18 -8 -24t-26 -6h-52q-19 0 -24 5.5t-2 24.5zM238 895l104 653q3 19 10.5 26t26.5 7h49q20 0 25 -7t2 -26l-103 -653q-3 -19 -10.5 -26t-26.5 -7h-49q-19 0 -25 7t-3 26z" />
<glyph unicode="&#xa7;" horiz-adv-x="1298" d="M1180 401q-11 -74 -56.5 -154t-107.5 -130q104 -101 78 -267q-14 -88 -59 -163.5t-117.5 -133.5t-179 -91t-234.5 -33q-310 0 -512 153q-17 12 -18.5 22t12.5 27l51 66q12 15 22 17.5t25 -7.5q84 -63 195.5 -99t226.5 -36q76 0 142.5 13.5t128.5 43t103.5 85.5t53.5 132 q10 63 -10 108t-72 74.5t-122 48t-175 32.5q-63 9 -113 19.5t-106 29t-95 46t-70 65t-41.5 91t-0.5 119.5q13 81 62.5 158.5t117.5 134.5q-118 86 -92 256q8 51 31.5 105.5t71 113t111 104.5t160 75.5t210.5 29.5q150 0 256.5 -37t220.5 -116q16 -12 16 -21.5t-12 -26.5 l-47 -63q-13 -18 -23 -21.5t-26 7.5q-179 135 -389 135q-88 0 -160 -20.5t-117.5 -51.5t-78 -70.5t-47 -73.5t-19.5 -65q-8 -49 9 -86.5t48 -61t87 -42t107 -28.5t128 -21q84 -12 148.5 -28.5t125 -46.5t97 -71t52.5 -103.5t3 -142.5zM643 657q-43 6 -80 14t-56 13t-38 11 t-23 7q-59 -32 -103.5 -94.5t-55.5 -124.5q-7 -49 10 -86.5t48 -61t87.5 -42t107.5 -28.5t128 -21q69 -11 110.5 -21.5t69.5 -22.5l29 -12q46 19 89.5 76.5t53.5 130.5q20 120 -71.5 176t-305.5 86z" />
<glyph unicode="&#xa8;" horiz-adv-x="811" d="M115 1384q6 39 37 67t69 28t62 -28.5t18 -66.5q-8 -38 -39 -65t-69 -27q-40 0 -62.5 27t-15.5 65zM510 1384q6 39 37 67t69 28t62 -28.5t18 -66.5t-38 -65t-70 -27q-39 0 -61.5 26.5t-16.5 65.5z" />
<glyph unicode="&#xa9;" horiz-adv-x="1683" d="M98 717q23 151 103.5 288.5t195.5 237t262 158.5t299 59q312 0 478 -197q137 -161 139 -407q2 -241 -124 -459q-132 -228 -355 -339q-171 -85 -373 -85q-152 0 -280.5 59t-212 158.5t-120 237t-12.5 289.5zM164 717q-16 -114 -0.5 -215.5t66.5 -186.5t123.5 -147 t171.5 -96.5t210 -34.5q299 0 513 197q170 157 235 388q63 229 -2 426q-68 203 -253 292q-120 57 -278 57q-140 0 -274.5 -54t-239.5 -145t-178 -217t-94 -264zM793 428q-118 0 -182.5 84.5t-45.5 202.5q19 121 110 206t210 85q120 0 192 -86q11 -11 25 0l41 38q8 8 8.5 13 t-6.5 14q-42 52 -107.5 79.5t-140.5 27.5q-154 0 -278.5 -110.5t-149.5 -266.5q-23 -155 67 -264t244 -109q159 0 281 104q9 9 10.5 14.5t-4.5 14.5l-31 37q-10 16 -24 2q-97 -86 -219 -86z" />
<glyph unicode="&#xaa;" horiz-adv-x="808" d="M236 1343q-19 -5 -25 19l-6 49q-3 24 18 27q18 5 88.5 13.5t134.5 8.5q156 0 203 -71t21 -234l-54 -336q-2 -20 -24 -20h-43q-19 0 -19 20l11 86q-110 -121 -267 -121q-96 0 -151.5 56.5t-38.5 154.5q15 101 93.5 154t199.5 53q101 0 188 -43q19 114 -11.5 160.5 t-125.5 46.5q-29 0 -59 -2.5t-48 -5.5t-47 -8.5t-38 -6.5zM381 1118q-172 0 -193 -123q-9 -57 25 -91t106 -34q59 0 118.5 37t103.5 88l12 80q-46 24 -82.5 33.5t-89.5 9.5z" />
<glyph unicode="&#xab;" horiz-adv-x="1101" d="M117 590l403 379q14 12 22.5 13.5t20.5 -5.5l58 -35q22 -16 -3 -41l-382 -381l262 -381q16 -25 -11 -41l-67 -35q-15 -7 -23.5 -5t-17.5 14l-285 379q-25 34 -20 63l2 12q8 31 41 64zM559 590l404 379q14 12 22.5 13.5t20.5 -5.5l57 -35q22 -17 -2 -41l-383 -381 l262 -381q14 -25 -10 -41l-68 -35q-15 -7 -23.5 -5t-17.5 14l-284 379q-25 37 -21 63l2 12q3 26 41 64z" />
<glyph unicode="&#xac;" horiz-adv-x="1058" d="M778 158l66 417h-684q-19 0 -25.5 7t-3.5 26l10 60q3 18 11.5 25t27.5 7h776q19 0 24.5 -6.5t2.5 -25.5l-80 -510q-3 -19 -11 -26t-28 -7h-61q-18 0 -23 7t-2 26z" />
<glyph unicode="&#xad;" horiz-adv-x="833" d="M688 518h-565q-19 0 -24.5 7t-2.5 26l10 59q3 20 10.5 26.5t26.5 6.5h566q19 0 24 -6t2 -25l-10 -63q-3 -18 -11 -24.5t-26 -6.5z" />
<glyph unicode="&#xae;" horiz-adv-x="1683" d="M1137 866q-14 -89 -72 -145.5t-133 -75.5l158 -283q4 -11 -1 -15.5t-20 -4.5h-61q-21 0 -29 16l-154 277h-159l-43 -277q-3 -10 -7 -13t-14 -3h-63q-11 0 -14.5 3t-2.5 13l115 717q2 17 20 17h256q50 0 92 -11t77 -35.5t50 -70.5t5 -109zM680 721h174q80 0 128 37.5 t58 107.5q12 74 -26 107t-119 33h-170zM98 717q23 151 103.5 288.5t195.5 237t262 158.5t299 59q151 0 279.5 -59t212 -158.5t121 -237t14.5 -288.5q-24 -152 -105 -289.5t-196.5 -237t-262.5 -158.5t-298 -59q-152 0 -280.5 59t-212 158.5t-120 237t-12.5 289.5zM162 717 q-16 -114 -0.5 -215.5t66.5 -186.5t123.5 -147t171.5 -96.5t210 -34.5q138 0 272 53.5t240 144.5t180.5 217t96.5 265q21 138 -13.5 264t-111 217t-194 145t-255.5 54q-139 0 -273.5 -54t-240 -145t-178.5 -217t-94 -264z" />
<glyph unicode="&#xaf;" horiz-adv-x="763" d="M621 1343h-496q-19 0 -25 7t-4 26l10 51q2 19 9 26t26 7h496q19 0 25 -7t4 -26l-11 -53q-2 -18 -9 -24.5t-25 -6.5z" />
<glyph unicode="&#xb0;" horiz-adv-x="819" d="M98 1147q20 130 124 219.5t235 89.5q130 0 207 -89.5t57 -219.5q-22 -131 -127.5 -221t-235.5 -90q-131 0 -206.5 89.5t-53.5 221.5zM209 1147q-14 -85 34 -143t132 -58q82 0 150 58.5t81 142.5q11 79 -38 137.5t-130 58.5q-83 0 -150 -58.5t-79 -137.5z" />
<glyph unicode="&#xb1;" horiz-adv-x="1144" d="M725 1331l-49 -303h305q19 0 25.5 -6.5t3.5 -24.5l-11 -67q-3 -18 -10.5 -24.5t-25.5 -6.5h-306l-45 -276q-3 -19 -10.5 -26t-26.5 -7h-63q-20 0 -26 7t-3 26l45 276h-305q-18 0 -24 7t-4 26l10 63q5 20 12 26.5t27 6.5h303l49 303q3 19 10.5 26t26.5 7h67q17 0 22.5 -7 t2.5 -26zM862 180h-770q-18 0 -23.5 6.5t-2.5 24.5l10 68q3 18 11.5 25t27.5 7h768q19 0 24 -6.5t2 -25.5l-10 -68q-3 -18 -11 -24.5t-26 -6.5z" />
<glyph unicode="&#xb2;" horiz-adv-x="610" d="M463 1333l-240 -270h244q12 0 15 -3.5t1 -15.5l-8 -59q-3 -18 -22 -18h-406q-5 0 -7 1.5t-1 4.5v8q3 9 12 20l322 349q36 40 48.5 76t3 59.5t-31 37t-51.5 13.5q-90 0 -158 -61q-12 -9 -17 -8.5t-11 8.5l-33 41q-9 15 4 26q110 86 229 86q90 0 135.5 -47t36.5 -115.5 t-65 -132.5z" />
<glyph unicode="&#xb3;" horiz-adv-x="606" d="M240 948q-128 0 -203 90q-10 13 4 27l43 37q15 15 27 0q20 -23 33 -34.5t42 -22.5t66 -11q77 0 117.5 32.5t48.5 84.5q6 41 -30.5 69.5t-100.5 28.5h-60q-21 0 -16 21l4 37q3 12 7.5 16t15.5 4h59q66 0 112 29t52 71q8 50 -22 82.5t-105 32.5q-54 0 -89.5 -18t-72.5 -51 q-19 -13 -31 2l-30 36q-11 15 6 27q107 90 231 90q59 0 107.5 -18t78.5 -63t19 -111q-8 -56 -46.5 -94.5t-86.5 -53.5l-2 -2q44 -13 71 -51.5t17 -95.5q-9 -65 -53.5 -110t-99 -63t-113.5 -18z" />
<glyph unicode="&#xb4;" horiz-adv-x="532" d="M438 1376l-215 -174q-27 -20 -55 -20h-84q-10 0 -15 4t-1.5 12t16.5 19l297 270q26 23 41 -8l29 -62q6 -14 3.5 -22t-16.5 -19z" />
<glyph unicode="&#xb5;" horiz-adv-x="1271" d="M909 33l13 190q-29 -38 -42 -54t-46 -52t-59.5 -55t-64.5 -42t-81 -33t-90 -10q-73 0 -132 33t-83 96l-80 -491q-3 -19 -10.5 -26t-24.5 -7h-92q-18 0 -24 7.5t-3 25.5l223 1395q3 19 10.5 25.5t24.5 6.5h92q18 0 24 -7t3 -25l-84 -529q-10 -58 -10.5 -108.5t11 -98.5 t35.5 -82t68 -54.5t105 -20.5q127 0 228 119t128 286l78 488q3 19 10.5 25.5t24.5 6.5h92q18 0 24 -7t3 -25l-156 -977q-3 -19 -11.5 -26t-25.5 -7h-49q-13 0 -19.5 7t-9.5 26z" />
<glyph unicode="&#xb6;" horiz-adv-x="1572" d="M481 -453l150 934q-154 0 -266.5 59t-165 170.5t-29.5 258.5q17 109 70.5 198.5t129 147t164.5 88.5t181 31h889q19 0 25 -7t3 -26l-14 -80q-4 -19 -12 -25t-27 -6h-236l-276 -1745q-3 -19 -10.5 -25.5t-26.5 -6.5h-72q-19 0 -24.5 6.5t-3.5 25.5l278 1745h-315 l-275 -1743q-3 -19 -11 -25.5t-27 -6.5h-72q-19 0 -24.5 6.5t-2.5 25.5z" />
<glyph unicode="&#xb7;" horiz-adv-x="481" d="M109 702q8 54 52 93t99 39t87.5 -39t23.5 -93q-9 -56 -54 -94.5t-100 -38.5t-86 38.5t-22 94.5z" />
<glyph unicode="&#xb8;" horiz-adv-x="579" d="M240 -20l75 -7l-32 -114q113 0 163 -47.5t35 -141.5q-14 -82 -75 -131t-154 -49q-92 0 -178 76q-20 16 0 33l26 28q8 10 14.5 10.5t16.5 -6.5q62 -49 145 -49q100 0 111 88q9 53 -19 78t-98 25h-77q-12 0 -17.5 7t-1.5 19z" />
<glyph unicode="&#xb9;" horiz-adv-x="485" d="M119 1509l153 78q30 15 43 15h45q20 0 17 -21l-94 -594q-3 -12 -7.5 -16t-15.5 -4h-61q-11 0 -14.5 4t-2.5 16l80 492l-147 -54q-10 -2 -15 1.5t-4 13.5l10 49q3 15 13 20z" />
<glyph unicode="&#xba;" horiz-adv-x="686" d="M76 1116q23 151 105.5 247.5t215.5 96.5q90 0 144 -47.5t69 -123t0 -173.5q-25 -151 -107 -247.5t-214 -96.5q-90 0 -144 47.5t-69.5 123.5t0.5 173zM182 1116q-18 -112 11 -178t112 -66q156 0 199 244q16 113 -12.5 178.5t-110.5 65.5t-131.5 -65.5t-67.5 -178.5z" />
<glyph unicode="&#xbb;" horiz-adv-x="1101" d="M723 969l283 -379q25 -38 22 -64l-2 -12q-9 -31 -43 -63l-403 -379q-14 -12 -22.5 -14t-20.5 5l-56 35q-23 18 0 41l385 381l-264 381q-14 25 12 41l66 35q17 7 24.5 5.5t18.5 -13.5zM281 969l282 -379q27 -36 23 -64l-2 -12q-9 -31 -43 -63l-404 -379q-14 -12 -22.5 -14 t-20.5 5l-55 35q-22 16 0 41l385 381l-264 381q-13 26 12 41l68 35q15 7 22.5 5.5t18.5 -13.5z" />
<glyph unicode="&#xbc;" horiz-adv-x="1323" d="M1143 1401l-922 -1372q-20 -29 -49 -29h-49q-43 0 -23 33l922 1372q20 29 47 29h53q41 0 21 -33zM195 1341l153 78q30 15 43 15h45q20 0 17 -21l-95 -594q-3 -12 -7.5 -16t-14.5 -4h-64q-21 0 -16 20l78 488l-146 -54q-9 -2 -13 1.5t-3 13.5l10 53q3 16 13 20zM1018 635 h69q20 0 17 -21l-57 -362h96q19 0 16 -21l-6 -43q-5 -20 -23 -20h-98l-22 -148q-2 -20 -23 -20h-51q-12 0 -15.5 4t-0.5 16l22 148h-274q-22 0 -17 20l4 33q3 19 23 39l311 363q16 12 29 12zM999 516l-233 -264h190z" />
<glyph unicode="&#xbd;" horiz-adv-x="1392" d="M1186 1401l-922 -1372q-20 -29 -47 -29h-51q-43 0 -23 33l924 1372q17 29 45 29h53q41 0 21 -33zM195 1341l153 78q30 15 43 15h45q17 0 17 -21l-95 -594q-3 -12 -7.5 -16t-14.5 -4h-64q-21 0 -16 20l78 488l-146 -54q-9 -2 -13 1.5t-3 13.5l10 53q0 15 13 20zM942 96 l242 271q55 64 64 132.5t-36.5 115.5t-136.5 47q-119 0 -227 -87q-16 -13 -6 -26l32 -41q13 -16 29 0q68 61 160 61q30 0 51.5 -13.5t31 -37t-3 -59.5t-48.5 -76l-324 -348q-5 -6 -10 -21v-8q0 -6 8 -6h403q12 0 16.5 3.5t6.5 14.5l10 60q2 10 -2 14t-16 4h-244z" />
<glyph unicode="&#xbe;" horiz-adv-x="1421" d="M1231 1401l-922 -1372q-17 -29 -45 -29h-53q-41 0 -21 33l922 1372q17 29 47 29h51q44 0 21 -33zM317 782q-124 0 -202 90q-12 15 4 27l41 37q16 16 30 0q18 -22 32 -34t43 -23t67 -11q75 0 115 32.5t47 82.5q8 42 -28 71t-101 29h-60q-12 0 -16 4t-2 15l6 39q5 20 24 20 h60q64 0 110 29t52 70q8 51 -22 83.5t-105 32.5q-38 0 -70.5 -11t-49.5 -23.5t-42 -34.5q-18 -13 -31 0l-29 39q-10 13 5 26q104 90 229 90q43 0 82 -11t71 -32.5t47 -60t7 -88.5q-7 -56 -45.5 -94.5t-87.5 -53.5v-2q43 -13 69.5 -51.5t18.5 -95.5q-11 -65 -56 -110 t-99.5 -63t-113.5 -18zM1104 635h74q20 0 14 -21l-57 -362h96q19 0 16 -21l-6 -43q-1 -12 -6 -16t-16 -4h-97l-24 -148q-2 -20 -21 -20h-53q-11 0 -14 4t-2 16l22 148h-274q-11 0 -14.5 4t-2.5 16l4 33q3 19 23 39l311 363q16 12 27 12zM1087 516l-233 -264h190z" />
<glyph unicode="&#xbf;" horiz-adv-x="1058" d="M629 63q21 3 26 27l35 219q3 19 -3 26t-25 7h-80q-18 0 -25 -7t-10 -26l-25 -151q-88 -18 -158.5 -40t-140 -56t-118.5 -76.5t-84.5 -103.5t-47.5 -136q-10 -61 -0.5 -121t42.5 -117t87.5 -100t142.5 -69.5t199 -26.5q215 0 484 160q28 14 18 45l-31 65q-6 17 -15 20.5 t-26 -5.5q-117 -71 -211.5 -106.5t-185.5 -35.5q-182 0 -274 84t-70 215q35 226 496 309zM797 674q-8 -50 -47.5 -85.5t-90.5 -35.5t-80.5 35.5t-21.5 85.5q7 51 48.5 85t92.5 34q50 0 78 -34t21 -85z" />
<glyph unicode="&#xc0;" d="M805 1188h-4l-406 -668h604zM872 1440l445 -1407q4 -13 -4 -23t-23 -10h-116q-17 0 -24 6.5t-13 26.5l-105 348h-715l-213 -348q-12 -19 -22 -26t-27 -7h-118q-13 0 -17 10t4 23l891 1407q17 28 29 28h6q3 0 5.5 -1t4 -2t3 -4.5t2.5 -5t3.5 -7t3.5 -8.5zM748 1593 l-216 174q-13 10 -15.5 19t3.5 22l29 62q15 31 41 8l297 -270q13 -11 16.5 -19t-1.5 -12t-15 -4h-84q-28 0 -55 20z" />
<glyph unicode="&#xc1;" d="M805 1188h-4l-406 -668h604zM872 1440l445 -1407q4 -13 -4 -23t-23 -10h-116q-17 0 -24 6.5t-13 26.5l-105 348h-715l-213 -348q-12 -19 -22 -26t-27 -7h-118q-13 0 -17 10t4 23l891 1407q17 28 29 28h6q3 0 5.5 -1t4 -2t3 -4.5t2.5 -5t3.5 -7t3.5 -8.5zM1155 1767 l-215 -174q-27 -20 -55 -20h-84q-10 0 -15 4t-1.5 12t16.5 19l297 270q26 23 41 -8l28 -62q6 -13 3.5 -22t-15.5 -19z" />
<glyph unicode="&#xc2;" d="M805 1188h-4l-406 -668h604zM872 1440l445 -1407q4 -13 -4 -23t-23 -10h-116q-17 0 -24 6.5t-13 26.5l-105 348h-715l-213 -348q-12 -19 -22 -26t-27 -7h-118q-13 0 -17 10t4 23l891 1407q17 28 29 28h6q3 0 5.5 -1t4 -2t3 -4.5t2.5 -5t3.5 -7t3.5 -8.5zM881 1933h55 q22 0 39 -32l166 -304q14 -32 -21 -32h-61q-32 0 -43 32l-123 240l-197 -240q-22 -32 -57 -32h-61q-12 0 -16 3t-2 10t11 19l258 304q29 32 52 32z" />
<glyph unicode="&#xc3;" d="M805 1188h-4l-406 -668h604zM872 1440l445 -1407q4 -13 -4 -23t-23 -10h-116q-17 0 -24 6.5t-13 26.5l-105 348h-715l-213 -348q-12 -19 -22 -26t-27 -7h-118q-13 0 -17 10t4 23l891 1407q17 28 29 28h6q3 0 5.5 -1t4 -2t3 -4.5t2.5 -5t3.5 -7t3.5 -8.5zM1024 1769 q47 0 79.5 22t61.5 75q12 21 21 24.5t28 -4.5l35 -16q16 -8 19 -16.5t-8 -30.5q-91 -164 -242 -164q-56 0 -90.5 15t-73.5 52q-42 40 -67 55t-58 15q-48 0 -80 -21.5t-61 -74.5q-11 -18 -20.5 -22.5t-28.5 1.5l-37 17q-17 7 -18 18t10 29q91 164 241 164q54 0 89.5 -17 t78.5 -55q42 -40 64.5 -53t56.5 -13z" />
<glyph unicode="&#xc4;" d="M854 1198h-4l-406 -668h605zM922 1450l444 -1407q4 -13 -4 -23t-23 -10h-116q-17 0 -24 6.5t-13 26.5l-105 348h-714l-213 -348q-12 -19 -22.5 -26t-27.5 -7h-118q-13 0 -17 10t4 23l891 1407q18 29 29 29h6q3 0 5 -0.5t3.5 -2l3 -3t3 -5t2.5 -5t3 -6.5t3 -7zM598 1776 q6 38 37.5 66t69.5 28t61.5 -28t17.5 -66q-8 -39 -39 -66t-69 -27q-40 0 -63 27.5t-15 65.5zM993 1776q6 38 37.5 66t69.5 28t62 -28t18 -66t-38.5 -65.5t-70.5 -27.5q-39 0 -61.5 27t-16.5 66z" />
<glyph unicode="&#xc5;" d="M805 1188h-4l-406 -668h604zM872 1440l445 -1407q4 -13 -4 -23t-23 -10h-116q-17 0 -24 6.5t-13 26.5l-105 348h-715l-213 -348q-12 -19 -22 -26t-27 -7h-118q-13 0 -17 10t4 23l891 1407q17 28 29 28h6q3 0 5.5 -1t4 -2t3 -4.5t2.5 -5t3.5 -7t3.5 -8.5zM860 1577 q-94 0 -144.5 63.5t-35.5 159.5t86 159.5t166 63.5q94 0 145.5 -64t36.5 -159q-15 -96 -87 -159.5t-167 -63.5zM874 1659q60 0 102 42.5t50 98.5q8 57 -19 98t-87 41q-59 0 -102.5 -42t-49.5 -97q-10 -56 18.5 -98.5t87.5 -42.5z" />
<glyph unicode="&#xc6;" horiz-adv-x="1992" d="M797 0q-19 0 -25 7t-4 26l57 348h-463l-256 -348q-24 -33 -51 -33h-112q-14 0 -19 10t2 23l987 1345q21 31 33 43.5t25 12.5h977q17 0 23 -7t3 -26l-12 -76q-3 -19 -11.5 -26t-25.5 -7h-782l-78 -497h735q19 0 24.5 -7t2.5 -26l-12 -76q-3 -19 -10.5 -26t-26.5 -7h-736 l-81 -512h782q19 0 24 -6.5t2 -25.5l-12 -76q-3 -19 -10.5 -26t-26.5 -7h-923zM956 1210l-497 -690h389z" />
<glyph unicode="&#xc7;" horiz-adv-x="1470" d="M596 -201l63 181q-170 25 -299.5 131.5t-189 267.5t-31.5 338q34 208 157 378.5t306.5 267.5t388.5 97q150 0 285.5 -56.5t216.5 -154.5q19 -21 -8 -45l-70 -65q-27 -24 -49 -2q-61 79 -163 129.5t-236 50.5q-114 0 -228 -50.5t-203 -133t-152 -192t-81 -224.5 q-24 -154 28.5 -291.5t171.5 -223t275 -85.5q253 0 461 184q26 21 45 -2l49 -66q19 -25 -8 -49q-115 -97 -270 -153.5t-318 -57.5l-35 -114q113 0 163.5 -47.5t35.5 -141.5q-12 -82 -74 -131t-155 -49q-89 0 -178 76q-16 16 0 33l26 28q10 10 16.5 10.5t16.5 -6.5 q60 -49 143 -49q99 0 113 88q8 53 -19.5 78t-97.5 25h-78q-27 0 -18 26z" />
<glyph unicode="&#xc8;" horiz-adv-x="1298" d="M1016 0h-912q-19 0 -25 7t-3 26l219 1368q3 19 10.5 26t26.5 7h911q18 0 24 -7.5t3 -25.5l-13 -76q-3 -19 -11 -26t-27 -7h-781l-78 -497h746q19 0 24.5 -7t2.5 -26l-13 -76q-3 -19 -10.5 -26t-26.5 -7h-747l-80 -512h782q18 0 23.5 -6.5t3.5 -25.5l-14 -76 q-2 -19 -9 -26t-26 -7zM758 1593l-160 174q-19 19 0 41l47 62q28 31 45 8l211 -270q27 -35 -10 -35h-82q-28 0 -51 20z" />
<glyph unicode="&#xc9;" horiz-adv-x="1298" d="M1016 0h-912q-19 0 -25 7t-3 26l219 1368q3 19 10.5 26t26.5 7h911q18 0 24 -7.5t3 -25.5l-13 -76q-3 -19 -11 -26t-27 -7h-781l-78 -497h746q19 0 24.5 -7t2.5 -26l-13 -76q-3 -19 -10.5 -26t-26.5 -7h-747l-80 -512h782q18 0 23.5 -6.5t3.5 -25.5l-14 -76 q-2 -19 -9 -26t-26 -7zM1001 1767l-215 -174q-27 -20 -55 -20h-84q-10 0 -15 4t-1.5 12t16.5 19l297 270q26 23 41 -8l29 -62q6 -14 3.5 -22t-16.5 -19z" />
<glyph unicode="&#xca;" horiz-adv-x="1265" d="M811 1933h55q22 0 39 -32l166 -304q14 -32 -20 -32h-62q-32 0 -43 32l-123 240l-196 -240q-22 -32 -58 -32h-61q-17 0 -18.5 7.5t12.5 24.5l258 304q29 32 51 32zM1012 0h-912q-19 0 -25 7t-3 26l219 1368q3 19 10.5 26t26.5 7h911q18 0 24 -7.5t3 -25.5l-13 -76 q-3 -19 -11.5 -26t-27.5 -7h-780l-78 -497h746q18 0 23.5 -7t2.5 -26l-12 -76q-3 -19 -10.5 -26t-26.5 -7h-747l-80 -512h782q18 0 23.5 -6.5t3.5 -25.5l-14 -76q-2 -19 -9 -26t-26 -7z" />
<glyph unicode="&#xcb;" horiz-adv-x="1298" d="M1016 0h-912q-19 0 -25 7t-3 26l219 1368q3 19 10.5 26t26.5 7h911q18 0 24 -7.5t3 -25.5l-13 -76q-3 -19 -11 -26t-27 -7h-781l-78 -497h746q19 0 24.5 -7t2.5 -26l-13 -76q-3 -19 -10.5 -26t-26.5 -7h-747l-80 -512h782q18 0 23.5 -6.5t3.5 -25.5l-14 -76 q-2 -19 -9 -26t-26 -7zM537 1776q6 39 37 66.5t69 27.5t62 -28t18 -66q-8 -38 -39.5 -65.5t-69.5 -27.5q-40 0 -62.5 27.5t-14.5 65.5zM932 1776q6 39 37 66.5t69 27.5t62 -28t18 -66t-38 -65.5t-70 -27.5q-39 0 -61.5 27t-16.5 66z" />
<glyph unicode="&#xcc;" horiz-adv-x="626" d="M111 33l219 1368q3 19 10.5 26t26.5 7h98q20 0 25 -7t2 -26l-220 -1368q-2 -19 -9 -26t-25 -7h-99q-18 0 -24 7t-4 26zM346 1593l-160 174q-19 19 0 41l47 62q28 32 46 8l210 -270q27 -35 -10 -35h-82q-28 0 -51 20z" />
<glyph unicode="&#xcd;" horiz-adv-x="612" d="M115 33l219 1368q3 19 10.5 26t26.5 7h98q20 0 25 -7t2 -26l-220 -1368q-2 -19 -9 -26t-25 -7h-99q-18 0 -24 7t-4 26zM748 1767l-216 -174q-27 -20 -55 -20h-84q-10 0 -15 4t-1.5 12t16.5 19l297 270q26 23 41 -8l29 -62q6 -13 3.5 -22t-15.5 -19z" />
<glyph unicode="&#xce;" horiz-adv-x="614" d="M115 33l219 1368q3 19 10.5 26t26.5 7h98q20 0 25 -7t2 -26l-220 -1368q-2 -19 -9 -26t-25 -7h-99q-18 0 -24 7t-4 26zM461 1933h55q22 0 39 -32l166 -304q14 -32 -21 -32h-61q-32 0 -43 32l-123 240l-197 -240q-22 -32 -57 -32h-61q-17 0 -18.5 7.5t12.5 24.5l258 304 q29 32 51 32z" />
<glyph unicode="&#xcf;" horiz-adv-x="612" d="M115 33l219 1368q3 19 10.5 26t26.5 7h98q20 0 25 -7t2 -26l-220 -1368q-2 -19 -9 -26t-25 -7h-99q-18 0 -24 7t-4 26zM170 1776q6 39 37 66.5t69 27.5t62 -28t18 -66q-8 -39 -39 -66t-69 -27q-40 0 -63 27.5t-15 65.5zM565 1776q6 38 37.5 66t69.5 28t62 -28t18 -66 t-38.5 -65.5t-70.5 -27.5q-39 0 -61.5 27t-16.5 66z" />
<glyph unicode="&#xd0;" horiz-adv-x="1638" d="M86 795h213l98 606q3 19 11.5 26t25.5 7h502q149 0 272.5 -55t203 -150t113.5 -228t11 -284q-33 -201 -152.5 -365.5t-297.5 -258t-377 -93.5h-502q-18 0 -25 7.5t-4 25.5l101 626h-213q-18 0 -24 7.5t-3 25.5l10 70q3 19 10.5 26t26.5 7zM913 1294h-372l-80 -499h348 q18 0 24 -7.5t3 -25.5l-11 -70q-3 -19 -11.5 -26t-25.5 -7h-348l-82 -520h371q121 0 233 47t195 126.5t140 184.5t75 220t-5 220t-81 184t-155 126t-218 47z" />
<glyph unicode="&#xd1;" horiz-adv-x="1589" d="M434 1130l-174 -1097q-3 -19 -10.5 -26t-26.5 -7h-96q-19 0 -25.5 7t-3.5 26l226 1411q1 10 5 13t15 3h10q17 0 25 -14l774 -1139l174 1094q3 20 10.5 26.5t26.5 6.5h98q19 0 24.5 -6.5t2.5 -26.5l-225 -1411q-2 -17 -19 -17h-10q-15 0 -29 17zM1081 1769q47 0 80 22.5 t62 74.5q12 21 21 24.5t28 -4.5l35 -16q16 -8 18.5 -16.5t-8.5 -30.5q-91 -164 -242 -164q-56 0 -90.5 15t-73.5 52q-42 40 -67 55t-58 15q-48 0 -80 -21.5t-61 -74.5q-11 -18 -20.5 -22.5t-28.5 1.5l-37 17q-17 7 -18 18t10 29q91 164 242 164q54 0 89.5 -17t78.5 -55 q42 -40 64 -53t56 -13z" />
<glyph unicode="&#xd2;" horiz-adv-x="1671" d="M102 717q31 208 154 378.5t306.5 267.5t387.5 97q148 0 274.5 -59t209.5 -159t120.5 -237.5t14.5 -287.5t-103.5 -288t-195 -237.5t-260 -159t-293.5 -59.5t-274 59.5t-208 159t-119 237.5t-14 288zM268 717q-17 -117 9 -226.5t87.5 -192t159 -132t215.5 -49.5t233 51 t202.5 134t149 192t79.5 223q24 156 -29 294t-171 222t-273 84q-154 0 -299 -84.5t-242.5 -222.5t-120.5 -293zM924 1593l-160 174q-19 19 0 41l47 62q28 31 45 8l211 -270q27 -35 -10 -35h-82q-28 0 -51 20z" />
<glyph unicode="&#xd3;" horiz-adv-x="1671" d="M102 717q31 208 154 378.5t306.5 267.5t387.5 97q148 0 274.5 -59t209.5 -159t120.5 -237.5t14.5 -287.5t-103.5 -288t-195 -237.5t-260 -159t-293.5 -59.5t-274 59.5t-208 159t-119 237.5t-14 288zM268 717q-17 -117 9 -226.5t87.5 -192t159 -132t215.5 -49.5t233 51 t202.5 134t149 192t79.5 223q24 156 -29 294t-171 222t-273 84q-154 0 -299 -84.5t-242.5 -222.5t-120.5 -293zM1239 1767l-215 -174q-27 -20 -55 -20h-84q-10 0 -15 4t-1.5 12t16.5 19l297 270q26 23 41 -8l28 -62q6 -13 3.5 -22t-15.5 -19z" />
<glyph unicode="&#xd4;" horiz-adv-x="1671" d="M102 717q31 208 154 378.5t306.5 267.5t387.5 97q148 0 274.5 -59t209.5 -159t120.5 -237.5t14.5 -287.5t-103.5 -288t-195 -237.5t-260 -159t-293.5 -59.5t-274 59.5t-208 159t-119 237.5t-14 288zM268 717q-17 -117 9 -226.5t87.5 -192t159 -132t215.5 -49.5t233 51 t202.5 134t149 192t79.5 223q24 156 -29 294t-171 222t-273 84q-154 0 -299 -84.5t-242.5 -222.5t-120.5 -293zM1012 1933h55q22 0 39 -32l166 -304q14 -32 -21 -32h-61q-32 0 -43 32l-123 240l-197 -240q-22 -32 -57 -32h-61q-12 0 -16 3t-2 10t11 19l259 304q29 32 51 32z " />
<glyph unicode="&#xd5;" horiz-adv-x="1671" d="M102 717q31 208 154 378.5t306.5 267.5t387.5 97q148 0 274.5 -59t209.5 -159t120.5 -237.5t14.5 -287.5t-103.5 -288t-195 -237.5t-260 -159t-293.5 -59.5t-274 59.5t-208 159t-119 237.5t-14 288zM268 717q-17 -117 9 -226.5t87.5 -192t159 -132t215.5 -49.5t233 51 t202.5 134t149 192t79.5 223q24 156 -29 294t-171 222t-273 84q-154 0 -299 -84.5t-242.5 -222.5t-120.5 -293zM1151 1769q47 0 79.5 22t61.5 75q12 21 21 24.5t28 -4.5l35 -16q16 -8 18.5 -16.5t-8.5 -30.5q-91 -164 -241 -164q-56 0 -90.5 15t-73.5 52q-42 40 -67 55 t-58 15q-48 0 -80 -21.5t-61 -74.5q-11 -18 -20.5 -22.5t-28.5 1.5l-37 17q-17 7 -18 18t10 29q91 164 241 164q54 0 89.5 -17t78.5 -55q42 -40 64.5 -53t56.5 -13z" />
<glyph unicode="&#xd6;" horiz-adv-x="1671" d="M102 717q31 208 154 378.5t306.5 267.5t387.5 97q148 0 274.5 -59t209.5 -159t120.5 -237.5t14.5 -287.5t-103.5 -288t-195 -237.5t-260 -159t-293.5 -59.5t-274 59.5t-208 159t-119 237.5t-14 288zM268 717q-17 -117 9 -226.5t87.5 -192t159 -132t215.5 -49.5t233 51 t202.5 134t149 192t79.5 223q24 156 -29 294t-171 222t-273 84q-154 0 -299 -84.5t-242.5 -222.5t-120.5 -293zM713 1776q6 39 37 66.5t69 27.5t62 -28t18 -66q-8 -39 -39 -66t-69 -27q-40 0 -63 27.5t-15 65.5zM1108 1776q6 39 37 66.5t69 27.5t62 -28t18 -66t-38 -65.5 t-70 -27.5q-39 0 -61.5 27t-16.5 66z" />
<glyph unicode="&#xd7;" horiz-adv-x="845" d="M594 311l-182 219l-254 -219q-15 -13 -25 -13t-20 13l-39 45q-20 22 6 45l254 220l-184 219q-19 21 8 45l53 45q15 14 24.5 14t20.5 -14l182 -219l254 219q15 14 24.5 14t20.5 -14l41 -45q10 -14 8 -23.5t-16 -21.5l-252 -219l182 -220q19 -21 -8 -45l-51 -45 q-28 -25 -47 0z" />
<glyph unicode="&#xd8;" horiz-adv-x="1671" d="M102 719q33 207 155.5 377t306 267t388.5 97q142 0 273 -57l63 94q19 25 47 25h56q20 0 24.5 -10t-6.5 -25l-94 -135q25 -19 48.5 -39.5t50.5 -50t49 -61t45 -72.5t36.5 -84.5t24.5 -96t9.5 -109t-9.5 -122.5q-24 -150 -104.5 -288t-194.5 -237.5t-259.5 -159 t-293.5 -59.5q-165 0 -291 68l-72 -104q-16 -25 -45 -25h-55q-20 0 -26 9t5 24l103 149q-135 102 -200 266.5t-34 358.5zM1405 717q6 52 7.5 95.5t-7.5 85.5t-19 76t-28 66.5t-34 56.5t-36 47.5t-35.5 38.5t-31.5 29l-705 -1040q107 -55 223 -55q118 0 233 51t203.5 134 t150 192t79.5 223zM266 717q-7 -67 -6 -121t17 -105.5t33 -89t42 -72.5t43.5 -56t38.5 -40l703 1037q-109 47 -207 47q-153 0 -299 -84.5t-244.5 -223.5t-120.5 -292z" />
<glyph unicode="&#xd9;" horiz-adv-x="1466" d="M616 -27q-126 0 -225.5 39.5t-165 115.5t-90 194t-0.5 268l129 811q3 20 10.5 26.5t26.5 6.5h96q19 0 25.5 -7t3.5 -26l-127 -801q-40 -245 53 -364t287 -119t325 119t171 364l127 801q3 19 10.5 26t25.5 7h99q18 0 23.5 -7t2.5 -26l-129 -811q-32 -199 -130.5 -340 t-238 -209t-309.5 -68zM811 1593l-160 174q-19 19 0 41l47 62q28 31 45 8l211 -270q27 -35 -10 -35h-82q-28 0 -51 20z" />
<glyph unicode="&#xda;" horiz-adv-x="1466" d="M616 -27q-126 0 -225.5 39.5t-165 115.5t-90 194t-0.5 268l129 811q3 20 10.5 26.5t26.5 6.5h96q19 0 25.5 -7t3.5 -26l-127 -801q-40 -245 53 -364t287 -119t325 119t171 364l127 801q3 19 10.5 26t25.5 7h99q18 0 23.5 -7t2.5 -26l-129 -811q-32 -199 -130.5 -340 t-238 -209t-309.5 -68zM1065 1767l-215 -174q-27 -20 -55 -20h-84q-10 0 -15 4t-1.5 12t16.5 19l297 270q26 23 41 -8l28 -62q6 -13 3.5 -22t-15.5 -19z" />
<glyph unicode="&#xdb;" horiz-adv-x="1466" d="M616 -27q-126 0 -225.5 39.5t-165 115.5t-90 194t-0.5 268l129 811q3 20 10.5 26.5t26.5 6.5h96q19 0 25.5 -7t3.5 -26l-127 -801q-40 -245 53 -364t287 -119t325 119t171 364l127 801q3 19 10.5 26t25.5 7h99q18 0 23.5 -7t2.5 -26l-129 -811q-32 -199 -130.5 -340 t-238 -209t-309.5 -68zM895 1933h55q22 0 39 -32l166 -304q14 -32 -20 -32h-62q-32 0 -43 32l-123 240l-196 -240q-22 -32 -58 -32h-61q-17 0 -18.5 7.5t12.5 24.5l258 304q29 32 51 32z" />
<glyph unicode="&#xdc;" horiz-adv-x="1466" d="M616 -27q-126 0 -225.5 39.5t-165 115.5t-90 194t-0.5 268l129 811q3 20 10.5 26.5t26.5 6.5h96q19 0 25.5 -7t3.5 -26l-127 -801q-40 -245 53 -364t287 -119t325 119t171 364l127 801q3 19 10.5 26t25.5 7h99q18 0 23.5 -7t2.5 -26l-129 -811q-32 -199 -130.5 -340 t-238 -209t-309.5 -68zM596 1776q6 39 37 66.5t69 27.5t62 -28t18 -66q-8 -39 -39 -66t-69 -27q-40 0 -63 27.5t-15 65.5zM991 1776q6 38 37.5 66t69.5 28t62 -28t18 -66t-38.5 -65.5t-70.5 -27.5q-39 0 -61.5 27t-16.5 66z" />
<glyph unicode="&#xdd;" horiz-adv-x="1280" d="M543 561l-404 840q-16 33 19 33h112q18 0 26.5 -7t16.5 -26l332 -688l551 688q15 21 24.5 27t26.5 6h109q35 0 12 -33l-668 -840l-86 -528q-3 -19 -10.5 -26t-25.5 -7h-93q-19 0 -25 7t-3 26zM971 1767l-215 -174q-27 -20 -56 -20h-84q-10 0 -15 4t-1.5 12t16.5 19 l297 270q26 23 41 -8l29 -62q6 -13 3.5 -22t-15.5 -19z" />
<glyph unicode="&#xde;" horiz-adv-x="1318" d="M657 0h-399l-61 -385q-2 -19 -9 -26t-26 -7h-90q-19 0 -24.5 7t-2.5 26l287 1812q3 19 10.5 26t26.5 7h90q18 0 23.5 -7t2.5 -26l-61 -385h399q135 0 235 -68t144 -188t21 -266q-35 -223 -197.5 -371.5t-368.5 -148.5zM281 139h366q151 0 274 104.5t150 276.5 q27 174 -62.5 279.5t-240.5 105.5h-367z" />
<glyph unicode="&#xdf;" horiz-adv-x="1318" d="M672 801h76q133 0 226.5 61t110.5 160q21 136 -62 204t-253 68q-156 0 -258 -64.5t-125 -205.5l-68 -434l-90 -557q-2 -19 -8.5 -26t-25.5 -7h-97q-19 0 -25 7t-3 26l159 1003q18 108 74 188.5t136 124.5t166 64.5t179 20.5h13q78 0 147.5 -12t132.5 -41.5t105.5 -74 t61.5 -114t5 -156.5q-10 -64 -41 -117t-75 -88t-83 -56t-81 -36v-2q29 -9 57.5 -23t66.5 -43t64 -64.5t40 -91.5t3 -120q-17 -108 -71 -187.5t-134 -123.5t-169 -64t-191 -20h-152q-19 0 -25 7t-3 26l12 73q3 19 10.5 26t26.5 7h141q350 0 393 273q17 105 -66 179.5 t-224 74.5h-95q-19 0 -25 6.5t-3 25.5l12 70q2 19 9 26t26 7z" />
<glyph unicode="&#xe0;" horiz-adv-x="1148" d="M303 897q-18 -3 -25 3t-10 26l-6 61q-2 18 4.5 26.5t26.5 14.5q38 9 147 23t211 14q170 0 258 -52.5t109 -162t-6 -277.5l-88 -540q-3 -19 -10.5 -26t-26.5 -7h-56q-14 0 -20.5 7.5t-7.5 25.5l14 139q-28 -32 -67 -63t-94.5 -62.5t-129 -50.5t-151.5 -19 q-155 0 -244.5 91t-64.5 249q26 163 152 247.5t319 84.5q156 0 321 -71q31 194 -21 273t-214 79q-37 0 -73 -2t-74.5 -6.5t-60 -7.5t-63.5 -9.5t-49 -7.5zM551 535q-145 0 -231 -56.5t-103 -161.5q-14 -98 45 -158.5t180 -60.5q100 0 202 57t167 136l29 170q-60 26 -94.5 39 t-87 24t-107.5 11zM627 1202l-160 174q-19 19 0 41l47 62q28 31 45 8l211 -270q27 -35 -10 -35h-82q-28 0 -51 20z" />
<glyph unicode="&#xe1;" horiz-adv-x="1148" d="M303 897q-18 -3 -25 3t-10 26l-6 61q-2 18 4.5 26.5t26.5 14.5q38 9 147 23t211 14q170 0 258 -52.5t109 -162t-6 -277.5l-88 -540q-3 -19 -10.5 -26t-26.5 -7h-56q-14 0 -20.5 7.5t-7.5 25.5l14 139q-28 -32 -67 -63t-94.5 -62.5t-129 -50.5t-151.5 -19 q-155 0 -244.5 91t-64.5 249q26 163 152 247.5t319 84.5q156 0 321 -71q31 194 -21 273t-214 79q-37 0 -73 -2t-74.5 -6.5t-60 -7.5t-63.5 -9.5t-49 -7.5zM551 535q-145 0 -231 -56.5t-103 -161.5q-14 -98 45 -158.5t180 -60.5q100 0 202 57t167 136l29 170q-60 26 -94.5 39 t-87 24t-107.5 11zM874 1376l-215 -174q-27 -20 -55 -20h-84q-10 0 -15 4t-1.5 12t16.5 19l297 270q26 23 41 -8l29 -62q6 -14 3.5 -22t-16.5 -19z" />
<glyph unicode="&#xe2;" horiz-adv-x="1148" d="M303 897q-18 -3 -25 3t-10 26l-6 61q-2 18 4.5 26.5t26.5 14.5q38 9 147 23t211 14q170 0 258 -52.5t109 -162t-6 -277.5l-88 -540q-3 -19 -10.5 -26t-26.5 -7h-56q-14 0 -20.5 7.5t-7.5 25.5l14 139q-28 -32 -67 -63t-94.5 -62.5t-129 -50.5t-151.5 -19 q-155 0 -244.5 91t-64.5 249q26 163 152 247.5t319 84.5q156 0 321 -71q31 194 -21 273t-214 79q-37 0 -73 -2t-74.5 -6.5t-60 -7.5t-63.5 -9.5t-49 -7.5zM551 535q-145 0 -231 -56.5t-103 -161.5q-14 -98 45 -158.5t180 -60.5q100 0 202 57t167 136l29 170q-60 26 -94.5 39 t-87 24t-107.5 11zM678 1542h55q22 0 39 -33l166 -303q14 -32 -20 -32h-62q-32 0 -43 32l-123 240l-196 -240q-22 -32 -58 -32h-61q-17 0 -18.5 7.5t12.5 24.5l258 303q30 33 51 33z" />
<glyph unicode="&#xe3;" horiz-adv-x="1148" d="M303 897q-18 -3 -25 3t-10 26l-6 61q-2 18 4.5 26.5t26.5 14.5q38 9 147 23t211 14q170 0 258 -52.5t109 -162t-6 -277.5l-88 -540q-3 -19 -10.5 -26t-26.5 -7h-56q-14 0 -20.5 7.5t-7.5 25.5l14 139q-28 -32 -67 -63t-94.5 -62.5t-129 -50.5t-151.5 -19 q-155 0 -244.5 91t-64.5 249q26 163 152 247.5t319 84.5q156 0 321 -71q31 194 -21 273t-214 79q-37 0 -73 -2t-74.5 -6.5t-60 -7.5t-63.5 -9.5t-49 -7.5zM551 535q-145 0 -231 -56.5t-103 -161.5q-14 -98 45 -158.5t180 -60.5q100 0 202 57t167 136l29 170q-60 26 -94.5 39 t-87 24t-107.5 11zM815 1378q47 0 79.5 22t61.5 75q12 21 21.5 25t28.5 -5l34 -16q16 -8 19 -16.5t-8 -30.5q-91 -164 -242 -164q-56 0 -90.5 15t-73.5 52q-42 40 -67 55t-58 15q-48 0 -80 -21.5t-61 -74.5q-11 -18 -20.5 -22.5t-28.5 1.5l-37 17q-17 7 -18 18t10 29 q91 164 241 164q54 0 89.5 -17t78.5 -55q42 -40 64.5 -53t56.5 -13z" />
<glyph unicode="&#xe4;" horiz-adv-x="1148" d="M303 897q-18 -3 -25 3t-10 26l-6 61q-2 18 4.5 26.5t26.5 14.5q38 9 147 23t211 14q170 0 258 -52.5t109 -162t-6 -277.5l-88 -540q-3 -19 -10.5 -26t-26.5 -7h-56q-14 0 -20.5 7.5t-7.5 25.5l14 139q-28 -32 -67 -63t-94.5 -62.5t-129 -50.5t-151.5 -19 q-155 0 -244.5 91t-64.5 249q26 163 152 247.5t319 84.5q156 0 321 -71q31 194 -21 273t-214 79q-37 0 -73 -2t-74.5 -6.5t-60 -7.5t-63.5 -9.5t-49 -7.5zM551 535q-145 0 -231 -56.5t-103 -161.5q-14 -98 45 -158.5t180 -60.5q100 0 202 57t167 136l29 170q-60 26 -94.5 39 t-87 24t-107.5 11zM414 1384q6 39 37 67t69 28t62 -28.5t18 -66.5q-8 -38 -39 -65t-69 -27q-40 0 -62.5 27t-15.5 65zM809 1384q6 39 37 67t69 28t62 -28.5t18 -66.5t-38 -65t-70 -27q-39 0 -61.5 26.5t-16.5 65.5z" />
<glyph unicode="&#xe5;" horiz-adv-x="1148" d="M303 897q-18 -3 -25 3t-10 26l-6 61q-2 18 4.5 26.5t26.5 14.5q38 9 147 23t211 14q170 0 258 -52.5t109 -162t-6 -277.5l-88 -540q-3 -19 -10.5 -26t-26.5 -7h-56q-14 0 -20.5 7.5t-7.5 25.5l14 139q-28 -32 -67 -63t-94.5 -62.5t-129 -50.5t-151.5 -19 q-155 0 -244.5 91t-64.5 249q26 163 152 247.5t319 84.5q156 0 321 -71q31 194 -21 273t-214 79q-37 0 -73 -2t-74.5 -6.5t-60 -7.5t-63.5 -9.5t-49 -7.5zM551 535q-145 0 -231 -56.5t-103 -161.5q-14 -98 45 -158.5t180 -60.5q100 0 202 57t167 136l29 170q-60 26 -94.5 39 t-87 24t-107.5 11zM657 1186q-94 0 -144.5 63.5t-35.5 159.5t86 159.5t166 63.5q94 0 145.5 -64t36.5 -159q-15 -96 -87 -159.5t-167 -63.5zM672 1268q60 0 101.5 42.5t49.5 98.5q8 57 -19 98t-87 41q-59 0 -102.5 -42t-49.5 -97q-10 -56 19 -98.5t88 -42.5z" />
<glyph unicode="&#xe6;" horiz-adv-x="1918" d="M866 578l29 170q-7 101 -72.5 141.5t-195.5 40.5q-133 0 -322 -33q-18 -3 -26 3t-9 26l-6 61q0 18 6 26.5t25 14.5q36 9 150.5 23t211.5 14q137 0 220 -36.5t118 -125.5q104 86 204 124t216 38q85 0 155.5 -23t118 -63t82.5 -94.5t49.5 -117t18 -130t-11.5 -133.5l-2 -8 q-3 -16 -10 -22.5t-25 -6.5h-782l-23 -133q23 -90 102.5 -155.5t184.5 -65.5q80 0 172.5 25.5t169.5 76.5q18 9 28 9t17 -11l33 -47q16 -23 -4 -43q-81 -69 -203.5 -107.5t-243.5 -38.5q-133 0 -227.5 70.5t-128.5 159.5q-51 -52 -121.5 -100.5t-178 -89t-210.5 -40.5 q-156 0 -246.5 88.5t-65.5 247.5q27 166 150 251t317 85q79 0 170.5 -19.5t165.5 -51.5zM821 291l27 170q-169 74 -303 74q-148 0 -234.5 -57t-103.5 -167q-16 -94 41 -153.5t178 -59.5q103 0 217.5 58.5t177.5 134.5zM1055 752l-29 -179h653q9 71 -2.5 134.5t-44 115.5 t-94 82.5t-145.5 30.5q-193 0 -338 -184z" />
<glyph unicode="&#xe7;" horiz-adv-x="1107" d="M444 -197l64 179q-192 35 -299 180.5t-74 357.5q23 149 114.5 274.5t226.5 198t282 72.5q224 0 354 -154q18 -19 -6 -43l-57 -51q-14 -14 -23 -15.5t-22 9.5q-44 54 -113 84.5t-152 30.5q-161 0 -293.5 -118.5t-158.5 -287.5q-26 -170 67.5 -286.5t255.5 -116.5 q171 0 301 114q25 20 45 -6l39 -51q19 -24 -6 -43q-174 -151 -403 -154l-35 -114q110 0 163 -48t38 -141q-14 -82 -75.5 -131t-154.5 -49q-88 0 -180 76q-15 15 0 33l27 28q10 10 16 10.5t16 -6.5q62 -49 144 -49q98 0 112 88q9 53 -18.5 78t-97.5 25h-78q-28 0 -19 26z" />
<glyph unicode="&#xe8;" horiz-adv-x="1228" d="M1001 166l-30 47q-7 9 -13.5 11t-12.5 0t-21 -9q-157 -102 -338 -102q-155 0 -253.5 105t-84.5 249h854q19 0 25.5 6.5t9.5 26.5q21 115 0.5 217.5t-70.5 180t-139.5 122.5t-206.5 45q-224 0 -406 -159t-219 -386q-23 -148 29 -272.5t166 -197.5t266 -73q118 0 236.5 38 t199.5 106q27 21 8 45zM991 573h-725q29 140 154 251.5t278 111.5q100 0 171.5 -53t101.5 -134.5t20 -175.5zM711 1202l-160 174q-19 19 0 41l47 62q28 31 45 8l211 -270q27 -35 -10 -35h-82q-28 0 -51 20z" />
<glyph unicode="&#xe9;" horiz-adv-x="1228" d="M971 213l30 -47q19 -24 -8 -45q-81 -68 -199.5 -106t-236.5 -38q-152 0 -266 73t-166 197.5t-29 272.5q37 227 219 386t406 159q117 0 206.5 -45t139.5 -122.5t70.5 -180t-0.5 -217.5q-3 -20 -9.5 -26.5t-25.5 -6.5h-854q-14 -144 84.5 -249t253.5 -105q181 0 338 102 q15 7 21 9t12.5 0t13.5 -11zM266 573h725q10 94 -20 175.5t-101.5 134.5t-171.5 53q-153 0 -278 -111.5t-154 -251.5zM993 1376l-215 -174q-27 -20 -55 -20h-84q-10 0 -15 4t-1.5 12t16.5 19l297 270q26 23 41 -8l29 -62q6 -14 3.5 -22t-16.5 -19z" />
<glyph unicode="&#xea;" horiz-adv-x="1228" d="M1001 166l-30 47q-7 9 -13.5 11t-12.5 0t-21 -9q-157 -102 -338 -102q-155 0 -253.5 105t-84.5 249h854q19 0 25.5 6.5t9.5 26.5q21 115 0.5 217.5t-70.5 180t-139.5 122.5t-206.5 45q-224 0 -406 -159t-219 -386q-23 -148 29 -272.5t166 -197.5t266 -73q118 0 236.5 38 t199.5 106q27 21 8 45zM991 573h-725q29 140 154 251.5t278 111.5q100 0 171.5 -53t101.5 -134.5t20 -175.5zM780 1542h56q13 0 20.5 -7.5t17.5 -25.5l166 -303q14 -32 -20 -32h-62q-32 0 -43 32l-122 240l-197 -240q-22 -32 -57 -32h-62q-17 0 -18.5 7.5t12.5 24.5l258 303 q30 33 51 33z" />
<glyph unicode="&#xeb;" horiz-adv-x="1228" d="M1001 166l-30 47q-7 9 -13.5 11t-12.5 0t-21 -9q-157 -102 -338 -102q-155 0 -253.5 105t-84.5 249h854q19 0 25.5 6.5t9.5 26.5q21 115 0.5 217.5t-70.5 180t-139.5 122.5t-206.5 45q-224 0 -406 -159t-219 -386q-23 -148 29 -272.5t166 -197.5t266 -73q118 0 236.5 38 t199.5 106q27 21 8 45zM991 573h-725q29 140 154 251.5t278 111.5q100 0 171.5 -53t101.5 -134.5t20 -175.5zM473 1384q6 39 37.5 67t69.5 28t61.5 -28.5t17.5 -66.5q-8 -38 -39 -65t-69 -27q-40 0 -62.5 27t-15.5 65zM868 1384q6 39 37.5 67t69.5 28t62 -28.5t18 -66.5 t-38.5 -65t-70.5 -27q-39 0 -61.5 26.5t-16.5 65.5z" />
<glyph unicode="&#xec;" horiz-adv-x="602" d="M145 33l158 977q3 19 10.5 25.5t26.5 6.5h88q20 0 26 -6.5t3 -25.5l-158 -977q-3 -19 -10.5 -26t-26.5 -7h-88q-19 0 -25.5 7t-3.5 26zM305 1202l-160 174q-19 19 0 41l48 62q28 31 45 8l211 -270q27 -35 -11 -35h-82q-28 0 -51 20z" />
<glyph unicode="&#xed;" horiz-adv-x="593" d="M139 33l158 977q3 19 10.5 25.5t26.5 6.5h88q20 0 26 -6.5t3 -25.5l-158 -977q-3 -19 -10.5 -26t-26.5 -7h-88q-19 0 -25.5 7t-3.5 26zM702 1376l-215 -174q-27 -20 -55 -20h-84q-10 0 -15 4t-1.5 12t16.5 19l297 270q26 23 41 -8l29 -62q6 -14 3.5 -22t-16.5 -19z" />
<glyph unicode="&#xee;" horiz-adv-x="598" d="M141 33l158 977q3 19 10.5 25.5t26.5 6.5h88q20 0 26 -6.5t3 -25.5l-158 -977q-3 -19 -10.5 -26t-26.5 -7h-88q-19 0 -25.5 7t-3.5 26zM422 1542h55q22 0 39 -33l166 -303q14 -32 -20 -32h-62q-32 0 -43 32l-123 240l-196 -240q-22 -32 -58 -32h-61q-17 0 -18.5 7.5 t12.5 24.5l258 303q30 33 51 33z" />
<glyph unicode="&#xef;" horiz-adv-x="598" d="M141 33l158 977q3 19 10.5 25.5t26.5 6.5h88q20 0 26 -6.5t3 -25.5l-158 -977q-3 -19 -10.5 -26t-26.5 -7h-88q-19 0 -25.5 7t-3.5 26zM133 1384q6 39 37.5 67t69.5 28t61.5 -28.5t17.5 -66.5q-8 -38 -39 -65t-69 -27q-40 0 -62.5 27t-15.5 65zM528 1384q6 39 37.5 67 t69.5 28t62 -28.5t18 -66.5t-38.5 -65t-70.5 -27q-39 0 -61.5 26.5t-16.5 65.5z" />
<glyph unicode="&#xf0;" horiz-adv-x="1230" d="M1004 1497l-74 -98q145 -89 185.5 -285.5t-9.5 -482.5q-25 -157 -70.5 -273t-122 -205t-192.5 -134.5t-272 -45.5q-114 0 -202 40.5t-139 111t-70 163.5t-3 199q23 143 104.5 247t192 153t235.5 49q156 0 254.5 -70.5t132.5 -185.5q69 454 -120 588l-148 -197 q-24 -30 -47 -12l-14 8q-28 19 -7 45l142 186q-90 19 -199 13q-19 -3 -24 3.5t-2 26.5l12 78q3 19 11 27.5t26 9.5q11 0 34.5 1t36.5 1q108 0 203 -26l80 106q12 17 22 19t23 -7l14 -10q27 -15 7 -43zM479 113q88 0 160 24.5t116.5 61.5t77.5 86t48 91.5t22 84.5 q14 88 -26 167.5t-117.5 127t-169.5 47.5q-144 0 -257.5 -88.5t-137.5 -235.5q-16 -100 8.5 -181.5t95.5 -133t180 -51.5z" />
<glyph unicode="&#xf1;" horiz-adv-x="1239" d="M381 825l12 185q-3 18 -9.5 25t-18.5 7h-52q-17 0 -24 -6.5t-10 -25.5l-76 -469l-80 -508q-3 -19 2 -26t22 -7h93q18 0 25.5 7t10.5 26l82 516q25 158 124 267.5t229 109.5t194.5 -93t36.5 -270l-84 -530q-3 -19 2.5 -26t22.5 -7h92q17 0 25.5 7t11.5 26l90 571 q17 123 0.5 210.5t-65.5 143t-115.5 81.5t-151.5 26q-71 0 -136.5 -25t-114.5 -65.5t-81 -76t-57 -73.5zM895 1378q47 0 79.5 22t61.5 75q12 21 21 24.5t28 -4.5l35 -16q16 -8 18.5 -16.5t-8.5 -30.5q-91 -164 -241 -164q-56 0 -90.5 15t-73.5 52q-42 40 -67 55t-58 15 q-48 0 -80 -21.5t-61 -74.5q-11 -18 -20.5 -22.5t-28.5 1.5l-37 17q-17 7 -18 18t10 29q91 164 241 164q54 0 89.5 -17t78.5 -55q42 -40 64.5 -53t56.5 -13z" />
<glyph unicode="&#xf2;" horiz-adv-x="1273" d="M96 520q37 227 220 386t407 159q147 0 259.5 -73.5t164 -199t27.5 -272.5q-23 -147 -114.5 -272t-227.5 -198t-283 -73t-259.5 73t-164.5 198t-29 272zM571 115q161 0 292 118t159 287q26 169 -67.5 287.5t-254.5 118.5t-292.5 -118.5t-157.5 -287.5 q-28 -168 66.5 -286.5t254.5 -118.5zM692 1202l-160 174q-19 19 0 41l48 62q28 31 45 8l211 -270q27 -35 -11 -35h-82q-28 0 -51 20z" />
<glyph unicode="&#xf3;" horiz-adv-x="1273" d="M96 520q37 227 220 386t407 159q147 0 259.5 -73.5t164 -199t27.5 -272.5q-23 -147 -114.5 -272t-227.5 -198t-283 -73t-259.5 73t-164.5 198t-29 272zM571 115q161 0 292 118t159 287q26 169 -67.5 287.5t-254.5 118.5t-292.5 -118.5t-157.5 -287.5 q-28 -168 66.5 -286.5t254.5 -118.5zM1012 1376l-215 -174q-27 -20 -56 -20h-84q-10 0 -15 4t-1.5 12t16.5 19l297 270q26 23 41 -8l29 -62q6 -13 3.5 -22t-15.5 -19z" />
<glyph unicode="&#xf4;" horiz-adv-x="1273" d="M96 520q37 227 220 386t407 159q147 0 259.5 -73.5t164 -199t27.5 -272.5q-23 -147 -114.5 -272t-227.5 -198t-283 -73t-259.5 73t-164.5 198t-29 272zM571 115q161 0 292 118t159 287q26 169 -67.5 287.5t-254.5 118.5t-292.5 -118.5t-157.5 -287.5 q-28 -168 66.5 -286.5t254.5 -118.5zM782 1542h56q22 0 39 -33l165 -303q14 -32 -20 -32h-61q-32 0 -43 32l-123 240l-197 -240q-22 -32 -57 -32h-62q-17 0 -18.5 7.5t12.5 24.5l258 303q30 33 51 33z" />
<glyph unicode="&#xf5;" horiz-adv-x="1273" d="M96 520q37 227 220 386t407 159q147 0 259.5 -73.5t164 -199t27.5 -272.5q-23 -147 -114.5 -272t-227.5 -198t-283 -73t-259.5 73t-164.5 198t-29 272zM571 115q161 0 292 118t159 287q26 169 -67.5 287.5t-254.5 118.5t-292.5 -118.5t-157.5 -287.5 q-28 -168 66.5 -286.5t254.5 -118.5zM903 1378q47 0 79.5 22t61.5 75q12 21 21.5 25t28.5 -5l34 -16q16 -8 19 -16.5t-8 -30.5q-91 -164 -242 -164q-56 0 -90.5 15t-73.5 52q-42 40 -67 55t-58 15q-48 0 -80 -21.5t-61 -74.5q-11 -18 -20.5 -22.5t-28.5 1.5l-37 17 q-17 7 -18 18t10 29q91 164 241 164q54 0 89.5 -17t78.5 -55q42 -40 64.5 -53t56.5 -13z" />
<glyph unicode="&#xf6;" horiz-adv-x="1273" d="M96 520q37 227 220 386t407 159q147 0 259.5 -73.5t164 -199t27.5 -272.5q-23 -147 -114.5 -272t-227.5 -198t-283 -73t-259.5 73t-164.5 198t-29 272zM571 115q161 0 292 118t159 287q26 169 -67.5 287.5t-254.5 118.5t-292.5 -118.5t-157.5 -287.5 q-28 -168 66.5 -286.5t254.5 -118.5zM502 1384q6 39 37 67t69 28t62 -28.5t18 -66.5q-8 -38 -39 -65t-69 -27q-40 0 -62.5 27t-15.5 65zM897 1384q6 39 37.5 67t69.5 28t61.5 -28.5t17.5 -66.5t-38 -65t-70 -27q-39 0 -61.5 26.5t-16.5 65.5z" />
<glyph unicode="&#xf7;" horiz-adv-x="1099" d="M995 569h-903q-18 0 -23.5 7t-2.5 26l8 51q3 19 10.5 26t26.5 7h903q18 0 23.5 -7t2.5 -26l-8 -53q-3 -18 -11 -24.5t-26 -6.5zM391 229q6 43 38 72t73 29q43 0 67 -29t17 -72q-6 -41 -39 -68.5t-76 -27.5q-41 0 -63.5 27.5t-16.5 68.5zM516 1010q4 41 37 70.5t74 29.5 q40 0 65 -29.5t19 -70.5q-8 -40 -41 -68.5t-74 -28.5t-64.5 28.5t-15.5 68.5z" />
<glyph unicode="&#xf8;" horiz-adv-x="1269" d="M92 520q37 227 220 386t407 159q109 0 184 -37l55 78q25 29 52 29h53q20 0 25.5 -9t-5.5 -24l-88 -125q100 -74 149 -193t25 -264q-23 -147 -114.5 -272t-227 -198t-282.5 -73q-96 0 -201 43l-49 -81q-22 -31 -51 -31h-51q-46 0 -23 33l86 131q-95 73 -140 193t-24 255z M567 115q161 0 292 118t157 287q33 187 -113 324l-473 -697q56 -32 137 -32zM244 520q-4 -29 -4 -57t1.5 -49.5t9 -45.5t12 -38t17.5 -34.5t17 -28t18.5 -25.5t15.5 -19t15 -16l471 694q-62 25 -121 25q-161 0 -292.5 -118.5t-159.5 -287.5z" />
<glyph unicode="&#xf9;" horiz-adv-x="1239" d="M856 217l-12 -184q5 -33 28 -33h52q17 0 24 7t10 26l76 469l80 508q3 19 -2 25.5t-22 6.5h-93q-17 0 -25 -6.5t-11 -25.5l-82 -516q-25 -158 -124 -267.5t-229 -109.5t-194.5 92.5t-36.5 269.5l84 531q3 19 -2.5 25.5t-22.5 6.5h-92q-18 0 -26 -7t-11 -25l-90 -572 q-17 -123 -0.5 -210.5t65.5 -143t115.5 -81.5t151.5 -26q71 0 136.5 25t114.5 65.5t81 76t57 73.5zM639 1202l-160 174q-19 19 0 41l47 62q28 31 45 8l211 -270q27 -35 -10 -35h-82q-28 0 -51 20z" />
<glyph unicode="&#xfa;" horiz-adv-x="1239" d="M844 33l12 184q-25 -38 -57 -73.5t-81 -76t-114.5 -65.5t-136.5 -25q-85 0 -151.5 26t-115.5 81.5t-65.5 143t0.5 210.5l90 572q3 18 11 25t26 7h92q17 0 22.5 -6.5t2.5 -25.5l-84 -531q-28 -177 36.5 -269.5t194.5 -92.5t229 109.5t124 267.5l82 516q3 19 11 25.5 t25 6.5h93q17 0 22 -6.5t2 -25.5l-80 -508l-76 -469q-3 -19 -10 -26t-24 -7h-52q-23 0 -28 33zM893 1376l-215 -174q-27 -20 -55 -20h-84q-10 0 -15 4t-1.5 12t16.5 19l297 270q26 23 41 -8l28 -62q6 -13 3.5 -22t-15.5 -19z" />
<glyph unicode="&#xfb;" horiz-adv-x="1239" d="M856 217l-12 -184q5 -33 28 -33h52q17 0 24 7t10 26l76 469l80 508q3 19 -2 25.5t-22 6.5h-93q-17 0 -25 -6.5t-11 -25.5l-82 -516q-25 -158 -124 -267.5t-229 -109.5t-194.5 92.5t-36.5 269.5l84 531q3 19 -2.5 25.5t-22.5 6.5h-92q-18 0 -26 -7t-11 -25l-90 -572 q-17 -123 -0.5 -210.5t65.5 -143t115.5 -81.5t151.5 -26q71 0 136.5 25t114.5 65.5t81 76t57 73.5zM715 1542h55q22 0 39 -33l166 -303q14 -32 -21 -32h-61q-32 0 -43 32l-123 240l-197 -240q-22 -32 -57 -32h-61q-17 0 -18.5 7.5t12.5 24.5l258 303q30 33 51 33z" />
<glyph unicode="&#xfc;" horiz-adv-x="1239" d="M856 217l-12 -184q5 -33 28 -33h52q17 0 24 7t10 26l76 469l80 508q3 19 -2 25.5t-22 6.5h-93q-17 0 -25 -6.5t-11 -25.5l-82 -516q-25 -158 -124 -267.5t-229 -109.5t-194.5 92.5t-36.5 269.5l84 531q3 19 -2.5 25.5t-22.5 6.5h-92q-18 0 -26 -7t-11 -25l-90 -572 q-17 -123 -0.5 -210.5t65.5 -143t115.5 -81.5t151.5 -26q71 0 136.5 25t114.5 65.5t81 76t57 73.5zM432 1384q6 39 37.5 67t69.5 28t61.5 -28.5t17.5 -66.5q-8 -38 -39 -65t-69 -27q-40 0 -62.5 27t-15.5 65zM827 1384q6 39 37.5 67t69.5 28t62 -28.5t18 -66.5t-38.5 -65 t-70.5 -27q-39 0 -61.5 26.5t-16.5 65.5z" />
<glyph unicode="&#xfd;" horiz-adv-x="1056" d="M516 227l467 783q12 19 21.5 25.5t25.5 6.5h105q18 0 21 -6.5t-9 -25.5l-844 -1395q-12 -20 -21.5 -26.5t-25.5 -6.5h-104q-18 0 -21 7t8 26l264 438l-274 957q-6 19 -1.5 25.5t22.5 6.5h106q16 0 23.5 -6t13.5 -26l221 -783h2zM836 1376l-215 -174q-27 -20 -56 -20h-84 q-10 0 -15 4t-1.5 12t16.5 19l297 270q26 23 41 -8l29 -62q6 -13 3.5 -22t-15.5 -19z" />
<glyph unicode="&#xfe;" horiz-adv-x="1333" d="M668 0h-400l-61 -385q-3 -19 -10.5 -26t-26.5 -7h-88q-19 0 -25 7t-4 26l289 1812q3 19 10.5 26t26.5 7h88q20 0 26 -7t3 -26l-62 -385h400q135 0 234.5 -68t143.5 -188t21 -266q-23 -147 -105 -266.5t-203.5 -186.5t-256.5 -67zM291 139h366q149 0 272 104.5t150 276.5 q28 173 -62 279t-239 106h-366z" />
<glyph unicode="&#xff;" horiz-adv-x="1056" d="M516 227l467 783q12 19 21.5 25.5t25.5 6.5h105q18 0 21 -6.5t-9 -25.5l-844 -1395q-12 -20 -21.5 -26.5t-25.5 -6.5h-104q-18 0 -21 7t8 26l264 438l-274 957q-6 19 -1.5 25.5t22.5 6.5h106q16 0 23.5 -6t13.5 -26l221 -783h2zM389 1384q6 39 37.5 67t69.5 28 t61.5 -28.5t17.5 -66.5q-8 -38 -39 -65t-69 -27q-40 0 -62.5 27t-15.5 65zM784 1384q6 39 37.5 67t69.5 28t62 -28.5t18 -66.5t-38.5 -65t-70.5 -27q-39 0 -61.5 26.5t-16.5 65.5z" />
<glyph unicode="&#x152;" horiz-adv-x="2281" d="M268 715q-23 -154 27 -291t165.5 -222t270.5 -85q118 0 231 50.5t199 134t145.5 192.5t77.5 223q18 115 -6.5 224t-84 192t-156.5 133.5t-215 50.5q-115 0 -227.5 -50.5t-199.5 -133t-148 -192.5t-79 -226zM2064 653h-528q-37 -165 -132.5 -296t-240.5 -216h867 q19 0 24 -6.5t2 -25.5l-12 -76q-3 -19 -10.5 -26t-26.5 -7h-934q-57 0 -183 -13.5t-181 -13.5q-148 0 -273.5 59t-206.5 158.5t-116.5 237t-12.5 287.5q25 156 102.5 294t189 237t255.5 156.5t297 57.5q54 0 176.5 -13t179.5 -13h934q19 0 25 -7t4 -26l-14 -76 q-3 -19 -11.5 -26t-25.5 -7h-656h-210q110 -73 167.5 -206t42.5 -291h531q19 0 24.5 -7t2.5 -26l-13 -76q-3 -19 -10.5 -26t-26.5 -7z" />
<glyph unicode="&#x153;" horiz-adv-x="1986" d="M1085 467l-30 -191q16 -50 63.5 -88t106.5 -56.5t118 -18.5q79 0 169.5 26t168.5 76q21 10 28 10.5t20 -12.5l30 -47q17 -25 -4 -43q-84 -70 -203 -108t-237 -38q-228 0 -363 154q-86 -73 -190.5 -113.5t-212.5 -40.5q-147 0 -259.5 73t-164.5 198t-29 272 q25 149 117 274.5t227.5 198t282.5 72.5q106 0 197.5 -41t156.5 -113q185 154 402 154q85 0 155 -23t117.5 -63.5t82.5 -95t49.5 -117t19 -130.5t-8.5 -136q-3 -20 -9 -26.5t-25 -6.5h-775zM1135 766l-31 -193h645q18 153 -62 258t-231 105q-96 0 -178 -48t-143 -122z M911 315l64 410q-25 91 -98 146t-177 55q-161 0 -292.5 -118.5t-157.5 -287.5q-28 -170 65.5 -287.5t255.5 -117.5q104 0 194.5 54.5t145.5 145.5z" />
<glyph unicode="&#x178;" horiz-adv-x="1275" d="M135 1401l404 -840l-86 -528q-3 -19 3 -26t25 -7h92q19 0 26.5 7t10.5 26l86 528l668 840q23 33 -12 33h-109q-17 0 -26.5 -6t-24.5 -27l-551 -688l-332 688q-8 19 -16.5 26t-26.5 7h-112q-35 0 -19 -33zM498 1776q6 39 37 66.5t69 27.5t62 -28t18 -66 q-8 -38 -39.5 -65.5t-69.5 -27.5q-40 0 -62.5 27.5t-14.5 65.5zM893 1776q6 39 37 66.5t69 27.5t62 -28t18 -66t-38 -65.5t-70 -27.5q-39 0 -61.5 27t-16.5 66z" />
<glyph unicode="&#x2c6;" horiz-adv-x="774" d="M387 1542h55q22 0 39 -33l166 -303q14 -32 -20 -32h-62q-32 0 -43 32l-123 240l-196 -240q-22 -32 -58 -32h-61q-17 0 -18.5 7.5t12.5 24.5l258 303q30 33 51 33z" />
<glyph unicode="&#x2dc;" horiz-adv-x="901" d="M600 1378q47 0 79.5 22t61.5 75q12 21 21.5 25t28.5 -5l34 -16q16 -8 19 -16.5t-8 -30.5q-91 -164 -242 -164q-56 0 -90.5 15t-73.5 52q-42 40 -67 55t-58 15q-48 0 -80 -21.5t-61 -74.5q-11 -18 -20.5 -22.5t-28.5 1.5l-37 17q-17 7 -18 18t10 29q91 164 241 164 q54 0 89.5 -17t78.5 -55q42 -40 64.5 -53t56.5 -13z" />
<glyph unicode="&#x2000;" horiz-adv-x="1011" />
<glyph unicode="&#x2001;" horiz-adv-x="2023" />
<glyph unicode="&#x2002;" horiz-adv-x="1011" />
<glyph unicode="&#x2003;" horiz-adv-x="2023" />
<glyph unicode="&#x2004;" horiz-adv-x="674" />
<glyph unicode="&#x2005;" horiz-adv-x="505" />
<glyph unicode="&#x2006;" horiz-adv-x="337" />
<glyph unicode="&#x2007;" horiz-adv-x="337" />
<glyph unicode="&#x2008;" horiz-adv-x="252" />
<glyph unicode="&#x2009;" horiz-adv-x="404" />
<glyph unicode="&#x200a;" horiz-adv-x="112" />
<glyph unicode="&#x2010;" horiz-adv-x="878" d="M711 520h-566q-18 0 -23.5 7t-2.5 26l10 59q3 19 10.5 26t26.5 7h565q19 0 24.5 -7t2.5 -26l-10 -61q-3 -18 -11 -24.5t-26 -6.5z" />
<glyph unicode="&#x2011;" horiz-adv-x="878" d="M711 520h-566q-18 0 -23.5 7t-2.5 26l10 59q3 19 10.5 26t26.5 7h565q19 0 24.5 -7t2.5 -26l-10 -61q-3 -18 -11 -24.5t-26 -6.5z" />
<glyph unicode="&#x2012;" horiz-adv-x="878" d="M711 520h-566q-18 0 -23.5 7t-2.5 26l10 59q3 19 10.5 26t26.5 7h565q19 0 24.5 -7t2.5 -26l-10 -61q-3 -18 -11 -24.5t-26 -6.5z" />
<glyph unicode="&#x2013;" horiz-adv-x="823" d="M690 518h-579q-19 0 -24.5 7t-2.5 26l10 59q3 20 10.5 26.5t26.5 6.5h580q19 0 24 -6t2 -25l-10 -63q-3 -18 -11 -24.5t-26 -6.5z" />
<glyph unicode="&#x2014;" horiz-adv-x="1169" d="M1036 518h-925q-19 0 -24.5 7t-2.5 26l10 59q3 20 10.5 26.5t26.5 6.5h926q19 0 24 -6t2 -25l-10 -63q-3 -18 -11 -24.5t-26 -6.5z" />
<glyph unicode="&#x2018;" horiz-adv-x="548" d="M258 1139h14q50 -2 78 -36t21 -83q-8 -50 -48 -85.5t-92 -35.5q-54 0 -82 41t-18 113q46 274 301 401q18 9 23 -2l20 -45q5 -13 -10 -23q-164 -94 -207 -245z" />
<glyph unicode="&#x2019;" horiz-adv-x="548" d="M291 1221h-17q-49 1 -76.5 34.5t-19.5 83.5q6 50 46 85.5t91 35.5q55 0 84 -41.5t17 -111.5q-43 -273 -299 -402q-18 -11 -25 2l-18 45q-5 13 10 23q164 95 207 246z" />
<glyph unicode="&#x201a;" horiz-adv-x="548" d="M291 -23h-17q-49 0 -76.5 34.5t-19.5 84.5q6 50 46 85.5t91 35.5q55 0 84 -41.5t17 -112.5q-43 -271 -299 -401q-17 -10 -25 2l-18 43q-5 15 10 25q165 96 207 245z" />
<glyph unicode="&#x201c;" horiz-adv-x="948" d="M657 1139h15q49 0 77.5 -34.5t20.5 -84.5t-47.5 -85.5t-91.5 -35.5q-54 0 -82.5 42t-18.5 114q46 274 301 401q18 9 23 -4l20 -43q6 -15 -10 -23q-164 -97 -207 -247zM258 1139h14q49 0 78 -34.5t21 -84.5t-48 -85.5t-92 -35.5q-54 0 -82 42t-18 114q46 274 301 401 q18 9 23 -4l20 -43q6 -15 -10 -23q-164 -97 -207 -247z" />
<glyph unicode="&#x201d;" horiz-adv-x="948" d="M291 1221h-17q-49 1 -76.5 34.5t-19.5 83.5q6 50 46 85.5t91 35.5q55 0 84 -41.5t17 -111.5q-43 -273 -299 -402q-18 -11 -25 2l-18 45q-6 12 10 23q164 95 207 246zM690 1221h-16q-49 1 -76.5 34.5t-19.5 83.5q6 50 46 85.5t91 35.5q55 0 83.5 -41t16.5 -112 q-43 -273 -299 -402q-18 -11 -24 2l-19 45q-5 13 10 23q164 95 207 246z" />
<glyph unicode="&#x201e;" horiz-adv-x="948" d="M291 -23h-17q-49 0 -76.5 34.5t-19.5 84.5q6 50 46 85.5t91 35.5q55 0 84 -41.5t17 -112.5q-43 -271 -299 -401q-18 -11 -25 2l-18 43q-6 14 10 25q165 96 207 245zM690 -23h-16q-49 0 -76.5 34.5t-19.5 84.5q6 50 46 85.5t91 35.5q55 0 83.5 -41.5t16.5 -112.5 q-43 -271 -299 -401q-19 -11 -24 2l-19 43q-5 15 10 25q165 96 207 245z" />
<glyph unicode="&#x2022;" horiz-adv-x="468" d="M86 702q11 61 60.5 104.5t111.5 43.5q61 0 96.5 -43.5t26.5 -104.5q-9 -62 -59.5 -104.5t-112.5 -42.5t-97 42t-26 105z" />
<glyph unicode="&#x2026;" horiz-adv-x="1529" d="M152 96q9 51 48.5 86t90.5 35q50 0 78.5 -35t21.5 -86q-9 -51 -49 -85t-90 -34q-51 0 -79.5 34t-20.5 85zM645 96q7 51 47 86t90 35q51 0 81 -35t22 -86q-9 -51 -50 -85t-92 -34q-50 0 -78.5 34t-19.5 85zM1137 96q9 51 48.5 86t90.5 35q50 0 79.5 -35t20.5 -86 q-7 -50 -48 -84.5t-91 -34.5q-51 0 -79.5 34t-20.5 85z" />
<glyph unicode="&#x202f;" horiz-adv-x="404" />
<glyph unicode="&#x2039;" horiz-adv-x="673" d="M119 590l403 379q24 21 43 8l58 -35q22 -17 -2 -41l-383 -381l262 -381q17 -22 -11 -41l-67 -35q-14 -7 -22 -5t-19 14l-285 379q-23 35 -20 63l2 12q3 23 41 64z" />
<glyph unicode="&#x203a;" horiz-adv-x="673" d="M291 969l282 -379q26 -39 23 -64l-2 -12q-9 -31 -43 -63l-404 -379q-14 -12 -22.5 -14t-20.5 5l-55 35q-22 16 0 41l385 381l-264 381q-15 25 12 41l66 35q25 13 43 -8z" />
<glyph unicode="&#x205f;" horiz-adv-x="505" />
<glyph unicode="&#x20ac;" horiz-adv-x="1275" d="M948 506h-594q8 -53 26.5 -104.5t53.5 -104t81.5 -91.5t115 -64t149.5 -25q51 0 123.5 13t112.5 32q21 5 26.5 2t10.5 -19l18 -75q3 -18 -0.5 -26.5t-17.5 -14.5q-135 -56 -295 -56q-158 0 -285.5 70.5t-201.5 191t-87 271.5h-161q-17 0 -23 7t-4 26l4 20q3 19 9.5 25 t25.5 6h143q0 76 12 137l17 82h-137q-19 0 -24.5 7t-2.5 26l2 18q3 20 11.5 26.5t27.5 6.5h149q88 248 297.5 407.5t462.5 159.5q151 0 279 -55q20 -10 4 -41l-39 -78q-17 -28 -43 -14q-37 19 -101 32t-124 13q-84 0 -162.5 -24.5t-139.5 -65.5t-114 -96.5t-90 -114.5 t-64 -123h611q18 0 23 -6t3 -25l-4 -22q-3 -18 -11 -24.5t-26 -6.5h-624l-19 -82q-8 -55 -8 -137h617q19 0 24.5 -6t3.5 -25l-4 -22q-3 -18 -11 -24.5t-26 -6.5z" />
<glyph unicode="&#x2122;" horiz-adv-x="1814" d="M100 1434h631q17 0 14 -17l-10 -65q-3 -17 -20 -17h-262l-107 -673q-2 -17 -20 -17h-72q-19 0 -14 17l106 673h-262q-20 0 -14 17l10 65q2 17 20 17zM1610 1206l-389 -557q-12 -18 -25 -18h-6q-12 0 -21 18l-208 557l-150 -542q-5 -19 -23 -19h-61q-19 0 -14 19l215 776 q2 10 10 10h8q7 0 12 -10l256 -660l465 660q10 10 19 10h6q8 0 8 -10l-31 -776q0 -19 -18 -19h-66q-14 0 -14 19z" />
<glyph unicode="&#x25fc;" horiz-adv-x="1044" d="M0 1044h1044v-1044h-1044v1044z" />
</font>
</defs>
</svg>
