<?xml version="1.0" encoding="UTF-8"?>
<svg width="40px" height="52px" viewBox="0 0 40 52" version="1.1" xmlns="http://www.w3.org/2000/svg" xmlns:xlink="http://www.w3.org/1999/xlink">
    <title>ley</title>
    <g id="Homepage" stroke="none" stroke-width="1" fill="none" fill-rule="evenodd">
        <g id="Home-page-1920" transform="translate(-940.000000, -3969.000000)" fill="#0077C8" fill-rule="nonzero">
            <g id="block-info-legal" transform="translate(578.000000, 3969.000000)">
                <g id="ley" transform="translate(362.000000, 0.000000)">
                    <path d="M39.1304348,6.06666667 L36.5217391,6.06666667 L36.5217391,4.33333333 C36.5217391,3.85468655 36.1324215,3.46666667 35.6521739,3.46666667 L10.4347826,3.46666667 C10.4347826,1.55207953 8.87751217,0 6.95652174,0 C5.0355313,0 3.47826087,1.55207953 3.47826087,3.46666667 L0.869565217,3.46666667 C0.389317609,3.46666667 0,3.85468655 0,4.33333333 L0,47.6666667 C0,48.1453134 0.389317609,48.5333333 0.869565217,48.5333333 L2.60869565,48.5333333 L2.60869565,51.1333333 C2.60869565,51.6119801 2.99801326,52 3.47826087,52 L39.1304348,52 C39.6106824,52 40,51.6119801 40,51.1333333 L40,6.93333333 C40,6.45468655 39.6106824,6.06666667 39.1304348,6.06666667 Z M6.95652174,1.73333333 C7.91654519,1.73446754 8.69451417,2.5098433 8.69565217,3.46666667 L5.2173913,3.46666667 C5.21852931,2.5098433 5.99649829,1.73446754 6.95652174,1.73333333 L6.95652174,1.73333333 Z M1.73913043,5.2 L8.69565217,5.2 L8.69565217,7.8 C8.69565217,8.27864678 8.30633457,8.66666667 7.82608696,8.66666667 C7.34583935,8.66666667 6.95652174,8.27864678 6.95652174,7.8 L6.95652174,6.93333333 L5.2173913,6.93333333 L5.2173913,7.8 C5.2173913,9.23594035 6.38534413,10.4 7.82608696,10.4 C9.26682978,10.4 10.4347826,9.23594035 10.4347826,7.8 L10.4347826,5.2 L34.7826087,5.2 L34.7826087,46.8 L1.73913043,46.8 L1.73913043,5.2 Z M38.2608696,50.2666667 L4.34782609,50.2666667 L4.34782609,48.5333333 L35.6521739,48.5333333 C36.1324215,48.5333333 36.5217391,48.1453134 36.5217391,47.6666667 L36.5217391,7.8 L38.2608696,7.8 L38.2608696,50.2666667 Z" id="Shape"></path>
                </g>
            </g>
        </g>
    </g>
</svg>