<?xml version="1.0" encoding="UTF-8"?>
<svg width="120px" height="110px" viewBox="0 0 120 110" version="1.1" xmlns="http://www.w3.org/2000/svg" xmlns:xlink="http://www.w3.org/1999/xlink">
    <title>logoueb</title>
    <g id="Homepage" stroke="none" stroke-width="1" fill="none" fill-rule="evenodd">
        <g id="Home-page-1920" transform="translate(-379.000000, 0.000000)">
            <g id="logoueb" transform="translate(379.000000, 0.000000)">
                <rect id="Rectangle" fill="#FFFFFF" x="0" y="0" width="120" height="109.859155"></rect>
                <g id="Group-36" transform="translate(15.750000, 15.049199)" fill="#0077C8">
                    <path d="M31.9380696,2.68935552 C31.9392272,3.08277299 32.2783985,3.40039974 32.6957065,3.40039974 C33.1130145,3.39924263 33.451607,3.08045877 33.4504494,2.6870413 C33.4498706,2.29362384 33.1106993,1.9771542 32.6933913,1.97773275 C32.2760833,1.97831131 31.9380696,2.29651661 31.9380696,2.68935552 L31.9380696,2.68935552 Z M26.9529463,9.52845535 C27.0218224,8.59871731 27.2452355,7.66030094 27.5687795,6.76990464 C27.4420243,6.99322691 27.191408,7.14654401 26.9020127,7.14712256 C26.4847047,7.14770112 26.1455334,6.83065292 26.1449546,6.43781401 C26.1443759,6.04555365 26.4823896,5.72561268 26.8996976,5.72503413 C27.3181632,5.72445557 27.6567556,6.04266088 27.6573344,6.43549979 C27.6573344,6.48062709 27.6538617,6.52575439 27.644601,6.56914602 C28.0682758,5.46584144 28.6430148,4.44353458 29.258848,3.61157235 C29.1280413,3.71166238 28.9613496,3.77241067 28.7790306,3.77298922 C28.3617226,3.77356778 28.0225513,3.45536247 28.0219725,3.06252356 C28.0208149,2.6702632 28.3588286,2.35032223 28.7761366,2.34974368 C29.195181,2.34916512 29.5337735,2.66737043 29.5349311,3.06020934 C29.5349311,3.15104249 29.5164098,3.23609009 29.4851551,3.31650925 C29.9244572,2.76398913 30.378229,2.31271615 30.8076916,1.99913929 C33.1859421,0.10321423 35.2730609,-0.403021482 36.8635775,0.907405818 C38.3348631,2.03674537 33.130957,6.97760592 31.6538834,9.77086994 C30.571545,11.7923415 30.9344467,11.8536683 33.6958566,14.3715401 C35.5763472,16.1291905 35.6637446,16.1696893 36.4416391,16.9680954 C37.1593395,17.7022818 37.3156129,18.1466121 36.6528977,19.0346942 C35.3720341,20.3815705 34.4361298,21.5994289 32.1041825,23.8448013 C31.6967139,24.2735106 31.8101569,24.5570026 32.3194926,25.0198467 C33.5135376,26.1266226 35.9149397,28.1706578 37.2513672,29.7501132 C37.7213451,30.2667629 37.7578089,30.8678816 37.3034583,31.4308157 C36.5024122,32.5109781 35.1231542,33.9990218 33.9152182,35.349948 C33.3306397,36.0476854 33.341058,36.2322445 33.9956701,36.7043455 C36.2807354,38.3792625 37.5644929,39.3599134 38.5767976,40.1664192 C40.029562,41.1540127 39.5561113,41.6075999 38.788635,42.8775284 C37.2716248,44.8909001 35.91957,46.6016876 34.261335,47.7136705 C33.4313493,48.2222204 32.0468822,48.3738018 31.8327297,47.0280827 C31.7719567,46.3511732 32.2992349,45.5759094 33.0863901,44.7613038 C32.9642653,44.8399873 32.8172525,44.8868502 32.6569275,44.8868502 C32.2396195,44.8880073 31.9004482,44.5715377 31.8998694,44.1769631 C31.8987118,43.7858599 32.2373043,43.4659189 32.6546123,43.4659189 C33.0719204,43.4653404 33.4110916,43.7835457 33.4122492,44.1746489 C33.4122492,44.3094522 33.3728915,44.4321059 33.3057518,44.5397172 C33.954576,43.8992567 34.7446251,43.2379682 35.5213621,42.5824653 C35.8761607,42.2897164 35.7389874,42.1149928 35.1654059,41.6342135 C34.5854577,41.2072398 34.0298188,40.7744806 33.4718647,40.3295717 C33.5829924,40.4522254 33.6483958,40.6107495 33.6483958,40.7848946 C33.6495534,41.1765764 33.3115397,41.4953602 32.8936529,41.4965174 C32.4763448,41.4965174 32.1371736,41.1788906 32.1371736,40.7872088 C32.136016,40.3949484 32.4740297,40.0750075 32.8913377,40.0750075 C33.0337202,40.0750075 33.166842,40.1114564 33.280285,40.174519 C32.4502993,39.5080235 31.6116317,38.8091289 30.6855668,38.0552716 C30.7556004,38.1628829 30.7961158,38.2895864 30.7961158,38.4243898 C30.7966946,38.8172287 30.4581021,39.1348554 30.0413729,39.1360126 C29.6240648,39.1371697 29.2848936,38.8195429 29.2843148,38.426704 C29.283736,38.0344436 29.6217497,37.7156598 30.0390577,37.7145027 C30.1426612,37.7145027 30.2422132,37.733595 30.3342409,37.770044 L29.7803383,37.3268708 C29.0371712,36.615248 29.0360136,36.1200048 29.8468992,35.2012593 L30.253789,34.7418866 C30.1380309,34.8107346 30.0020151,34.8489193 29.8567387,34.8489193 C29.4388519,34.8500764 29.0996806,34.5318711 29.098523,34.1396107 C29.098523,33.7461932 29.4365367,33.4285665 29.8544235,33.4274094 C30.2711527,33.4268308 30.6109028,33.7433005 30.6109028,34.1367179 C30.6114816,34.2292868 30.5929603,34.3166486 30.5599692,34.3970677 C31.1613326,33.7149513 31.7829537,33.0027499 32.3223865,32.3767533 C32.1910011,32.4803147 32.022573,32.5416415 31.8385176,32.5422201 C31.4206308,32.5427986 31.0820383,32.2251719 31.0814595,31.8317544 C31.0808807,31.4394941 31.4188944,31.1207102 31.8362025,31.1201317 C32.2540893,31.1189745 32.5926818,31.4366013 32.5938393,31.8288616 C32.5938393,31.9492011 32.5625846,32.0625979 32.5070207,32.1609523 L33.1135933,31.4475938 C33.5349528,30.8869739 33.7913571,30.8042406 33.2860729,30.2760198 C32.788313,29.7975547 32.1418039,29.2004858 31.4646189,28.5762249 C31.5323374,28.682679 31.5716952,28.8082255 31.5716952,28.9412931 C31.5728527,29.3347106 31.2342603,29.6529159 30.8169522,29.654073 C30.3990654,29.654073 30.0604729,29.3370248 30.0604729,28.9441859 C30.0593154,28.5507685 30.3967503,28.2325632 30.8146371,28.231406 C30.9518104,28.231406 31.0808807,28.2655408 31.1920085,28.3257105 C30.4627324,27.6540081 29.7155138,26.966106 29.0904199,26.3690372 C29.1436687,26.4662344 29.1726082,26.5750028 29.173187,26.6907138 C29.173187,27.0847098 28.8351733,27.4034937 28.4178653,27.4040723 C27.9993997,27.4046508 27.6608072,27.0876026 27.6602284,26.6936066 C27.6596496,26.3007677 27.9970845,25.9819838 28.4155501,25.9808267 C28.545778,25.9808267 28.6690604,26.0120687 28.7749791,26.0664529 C28.4358078,25.737255 28.1475701,25.4462418 27.9374691,25.217134 C27.2365537,24.3944286 27.277069,23.810088 27.9756693,23.0608591 C28.2025552,22.8311727 28.4757443,22.5442094 28.7819245,22.2213757 C28.6615361,22.2971664 28.5185748,22.340558 28.3640377,22.3411366 C27.9467297,22.3411366 27.6075584,22.0246669 27.6064009,21.6312495 C27.6058221,21.2372534 27.9438358,20.9202053 28.3611438,20.9196267 C28.7784518,20.9184696 29.1176231,21.2349392 29.1176231,21.6283567 C29.1182019,21.7458034 29.0886836,21.8563074 29.0360136,21.9535047 C29.6113315,21.3466004 30.2809922,20.6436559 30.9691742,19.9731106 C30.8620979,20.0292304 30.7365003,20.0610509 30.6039573,20.0616295 C30.1866493,20.0616295 29.8480568,19.7445813 29.847478,19.3523209 C29.8468992,18.9589035 30.1843341,18.6401196 30.6016421,18.6395411 C31.0201077,18.6389625 31.359279,18.9565892 31.359279,19.3494282 C31.3598578,19.4674534 31.3286031,19.5814288 31.273618,19.6797831 C31.5028191,19.4605107 31.7354929,19.2470239 31.9652728,19.042794 C32.4971813,18.6140846 32.5839999,18.3045577 32.2708742,17.9666815 C31.5560678,17.300186 30.9095587,16.7360948 30.3157196,16.2107667 C30.3915412,16.3224279 30.4366868,16.4543384 30.4366868,16.596663 C30.4378444,16.9895019 30.0986731,17.3082858 29.6819439,17.3094429 C29.2646359,17.3100214 28.9254646,16.9918161 28.9248858,16.5989772 C28.924307,16.2061383 29.2623207,15.8867759 29.6796287,15.8861973 C29.8150657,15.8856188 29.9423997,15.9203321 30.0529487,15.9781876 C29.3074664,15.3163206 28.642436,14.7047878 28.0208149,14.0099431 C28.0769576,14.1088761 28.1087911,14.2216943 28.1093699,14.3414552 C28.1093699,14.7337156 27.771935,15.053078 27.3540482,15.0536565 C26.9355826,15.0548137 26.5975689,14.7360298 26.5969901,14.344348 C26.5964113,13.9497734 26.9338462,13.6309896 27.351733,13.6309896 C27.5328945,13.630411 27.6984286,13.6900022 27.8280777,13.7889351 L27.6949558,13.6309896 C27.3922484,13.2636071 26.8829126,12.3801534 26.8829126,10.6786229 C26.8342942,11.0263345 26.5176958,11.2959412 26.1345364,11.2965197 C25.7166496,11.2976768 25.3780571,10.978893 25.3774783,10.5854755 C25.3768995,10.1937937 25.7143344,9.8744313 26.1322212,9.87385274 C26.5223261,9.87269563 26.8423973,10.1486664 26.8852278,10.5044778 C26.8910157,10.202472 26.9118522,9.87848119 26.9529463,9.52845535 L26.9529463,9.52845535 Z M44.5377618,46.4946549 C47.1457922,37.8007074 48.2524398,28.2036354 48.2368125,19.1671833 C48.229867,14.8795115 47.7755164,10.564069 46.8419272,6.36202329 L50.8303731,6.35508063 C51.5700674,10.77987 51.877984,15.2665648 51.8860871,19.7451598 C51.902872,30.1608873 50.5039352,40.2300602 46.5027559,49.971771 L45.8898166,49.9966489 L44.5337103,49.9983845 L43.1666069,50.0006988 L42.5554041,49.976978 C38.5218125,40.2503097 37.0898846,30.1851866 37.0730997,19.7700377 C37.0655754,15.2908641 37.3584434,10.8024337 38.0842468,6.37590862 L41.9129465,6.37012306 C40.9920907,10.5750615 40.7113773,14.8922397 40.7183228,19.1799115 C40.7333713,28.2157851 41.8724312,37.8093857 44.5082435,46.4946549 L44.5377618,46.4946549 Z M61.2538127,6.3799585 C61.2538127,5.98769814 61.592984,5.66775717 62.0091344,5.66717862 C62.4276,5.66660006 62.7656137,5.98480537 62.7667713,6.37764428 C62.7667713,6.77106175 62.4299152,7.0886885 62.0114496,7.08926705 C61.7232119,7.08926705 61.4708592,6.93826417 61.344104,6.71436335 C61.6711207,7.60360254 61.8985854,8.54144035 61.9686191,9.4711784 C62.0056617,9.78359815 62.0282345,10.0751899 62.0374952,10.3482679 C62.120841,10.0410552 62.4171818,9.81368301 62.7690865,9.81368301 C63.1869733,9.81310446 63.5261445,10.1313098 63.5267233,10.5235701 C63.5273021,10.9158305 63.1892884,11.2351929 62.7708228,11.23635 C62.4252848,11.2369286 62.1324168,11.0176562 62.0432831,10.7173861 C62.0293921,12.3564327 61.5368413,13.2150084 61.2416581,13.5760268 L61.1623638,13.6714884 C61.2734916,13.6107401 61.4031407,13.5742912 61.5408928,13.5742912 C61.9582008,13.5737126 62.2973721,13.8913394 62.2973721,14.2853354 C62.2985297,14.6775957 61.960516,14.9969581 61.543208,14.9975367 C61.1259,14.9981153 60.7861499,14.67991 60.7861499,14.2876496 C60.7855711,14.2054948 60.7994621,14.1279684 60.8255077,14.0550704 C60.2490322,14.6943738 59.6331991,15.2671434 58.9467534,15.8815689 C59.0544085,15.8266062 59.1776909,15.7936285 59.30734,15.7936285 C59.7240692,15.79305 60.0626617,16.1112553 60.0638193,16.5058298 C60.0638193,16.8980902 59.7263843,17.2162955 59.3096551,17.2168741 C58.8911895,17.2174526 58.552597,16.8998259 58.5520183,16.5081441 C58.5520183,16.3698694 58.5925336,16.2414302 58.6637248,16.1332404 C58.0617826,16.6684038 57.4060129,17.2440662 56.6790519,17.9261826 C56.3682414,18.266373 56.45506,18.5747429 56.9887049,19.001138 C57.2254302,19.2111535 57.4650495,19.4310044 57.7035113,19.6549053 C57.6479474,19.557708 57.6172715,19.4460469 57.6166927,19.3286002 C57.6161139,18.9346042 57.9541276,18.6152417 58.3714356,18.6146632 C58.7899012,18.6140846 59.1284937,18.9317114 59.1290725,19.326286 C59.1290725,19.7185463 58.7916376,20.0367516 58.3737508,20.0373302 C58.2423653,20.0379087 58.1173465,20.0066668 58.0091127,19.9511255 C58.6845613,20.6054713 59.3380159,21.2864306 59.9040731,21.8777139 C59.8525607,21.7822524 59.8218848,21.6723269 59.8218848,21.5566159 C59.821306,21.1631984 60.1587409,20.8455716 60.5766277,20.8449931 C60.9950933,20.843836 61.3342646,21.1603056 61.3342646,21.5537231 C61.3354222,21.946562 60.9974085,22.2659244 60.5789429,22.266503 C60.4255634,22.266503 60.2820233,22.2242684 60.1627925,22.1502134 C60.4788121,22.4794112 60.7577892,22.7727387 60.9916206,23.0064749 C61.6913784,23.7533896 61.7342089,24.3377302 61.0356087,25.1627498 C60.8359259,25.3831793 60.5633155,25.6597286 60.2444019,25.9727269 C60.3416387,25.931071 60.4481362,25.9073502 60.5627367,25.9073502 C60.9788872,25.9061931 61.3174797,26.2238198 61.3186372,26.6155017 C61.3186372,27.0100762 60.9817811,27.3288601 60.5650519,27.3294386 C60.1448499,27.3300172 59.8068362,27.0123904 59.8056787,26.6183944 C59.8056787,26.5194615 59.8288303,26.4245785 59.8664517,26.3389523 C59.2477245,26.9319713 58.5109241,27.6158234 57.7920662,28.2823189 C57.903194,28.2215706 58.0311067,28.1868573 58.1688589,28.1868573 C58.5861669,28.1862787 58.9253382,28.5033269 58.925917,28.8967444 C58.9264958,29.2895833 58.5884821,29.6077886 58.171174,29.6089457 C57.7544448,29.6095243 57.414116,29.2918975 57.414116,28.8996372 C57.4135372,28.765991 57.4540525,28.6398659 57.5211922,28.5334118 C56.8451648,29.159987 56.2009709,29.7593701 55.7049474,30.2389922 C55.200242,30.7689487 55.4583826,30.8511035 55.8808997,31.4105663 L56.4892086,32.1204534 C56.4469569,32.0336702 56.4238053,31.9358943 56.4238053,31.8346472 C56.4232265,31.4412297 56.7612402,31.1230244 57.179127,31.1224459 C57.5970138,31.1212888 57.9350275,31.438337 57.9356063,31.8317544 C57.9361851,32.2245933 57.599329,32.5439558 57.1814422,32.5451129 C57.0164868,32.5451129 56.8636861,32.4953571 56.7398249,32.4114666 C57.2862032,33.0420917 57.9136122,33.7537145 58.5149757,34.4306239 C58.4634633,34.3345838 58.4351026,34.2281296 58.4345238,34.1129972 C58.4345238,33.7213154 58.7719587,33.4013744 59.1904243,33.4002173 C59.6071535,33.3996387 59.9463248,33.7190012 59.9469036,34.1112615 C59.9474824,34.5029433 59.6094687,34.8228843 59.1927394,34.8240414 C59.0214174,34.8240414 58.865144,34.7708143 58.73781,34.6817168 L59.1603272,35.1532392 C59.9741067,36.069092 59.9741067,36.5643351 59.2338336,37.2782721 L58.7001886,37.7087171 C58.779483,37.681525 58.865144,37.6670612 58.9548565,37.6670612 C59.3715857,37.6664826 59.710757,37.9841093 59.7113358,38.3769483 C59.7119146,38.7697872 59.3739009,39.0874139 58.9571717,39.088571 C58.5392849,39.0897281 58.2006924,38.7721014 58.1995348,38.3792625 C58.1995348,38.258923 58.2302107,38.1449477 58.287511,38.0460147 C57.4366888,38.7408594 56.6605306,39.3923125 55.8953695,40.0131021 C55.9746638,39.9870671 56.06264,39.9708676 56.1535101,39.9708676 C56.5696605,39.9708676 56.9094106,40.2873372 56.9099894,40.6819118 C56.9105682,41.0741721 56.5719757,41.3923774 56.1558252,41.3935345 C55.7373596,41.3935345 55.3981884,41.0764864 55.3970308,40.6853831 C55.3970308,40.5598367 55.4311794,40.4435471 55.4896373,40.3428785 C54.9554136,40.7721664 54.4194535,41.1904617 53.8638145,41.6041286 C53.2902331,42.0854864 53.1547961,42.2613672 53.5101735,42.552959 C54.288068,43.2061477 55.0804323,43.8651219 55.7315717,44.5021111 C55.6650108,44.3962355 55.6239167,44.2718462 55.6233379,44.1387785 C55.6233379,43.7465181 55.9613516,43.4277343 56.3798172,43.4265772 C56.7965464,43.4265772 57.1357177,43.7442039 57.1362965,44.1364643 C57.1368753,44.5293032 56.7994404,44.8469299 56.3815536,44.848087 C56.2212286,44.848087 56.073637,44.8029597 55.9509334,44.7236977 C56.7415613,45.5354105 57.2705759,46.3095172 57.2126968,46.9858481 C57.0037534,48.333303 55.6181288,48.18635 54.7875643,47.6801143 C53.1246989,46.5739169 51.7680138,44.8671794 50.2434794,42.8595932 C49.4713728,41.5914004 48.9967645,41.1395489 50.4460561,40.1473269 C51.4560457,39.3373497 52.7363305,38.3520704 55.0167654,36.6696322 C55.6684836,36.1946384 55.6777442,36.011815 55.0931657,35.3158132 C53.8788631,33.9683584 52.4949748,32.4849431 51.6916135,31.407095 C51.2337901,30.8458965 51.2696751,30.2447778 51.7373379,29.7263924 C53.0685563,28.1423086 55.4635917,26.0901736 56.6530063,24.9793478 C57.1611845,24.5153466 57.2746274,24.2312761 56.8654225,23.8043024 C54.5265297,21.5664513 53.5848375,20.3514856 52.3005012,19.0092378 C51.634892,18.1228913 51.7900079,17.678561 52.505393,16.9409033 C53.2798148,16.1407616 53.3672122,16.1002627 55.2424937,14.3362482 C57.9946429,11.8096981 58.3575446,11.7472142 57.2694183,9.72921397 C55.7830841,6.94057839 50.5629718,2.0170745 52.0307847,0.882527948 C53.6166709,-0.432527792 55.7055262,0.0667652584 58.0901434,1.95401199 C58.5294454,2.27163874 58.9936355,2.73563993 59.4439345,3.30088826 C59.4086283,3.21757633 59.3889494,3.12732173 59.3889494,3.0324387 C59.3877919,2.64017834 59.7258056,2.32139448 60.1431136,2.32081592 C60.5610004,2.32023737 60.9001717,2.63786412 60.9007504,3.03012448 C60.9013292,3.4241205 60.5633155,3.7423258 60.1460075,3.7423258 C59.9573218,3.74290436 59.7848422,3.6792633 59.6522992,3.57280916 C60.2681323,4.40014295 60.8422926,5.41608571 61.2688613,6.51418328 C61.258443,6.4702131 61.2538127,6.4250858 61.2538127,6.3799585 L61.2538127,6.3799585 Z M55.2592786,2.65117089 C55.2598574,3.0440098 55.5990287,3.3622151 56.0163367,3.36163655 C56.4336447,3.36105799 56.7716584,3.04169558 56.7710796,2.64885667 C56.7705008,2.25601775 56.4313296,1.93896956 56.0140215,1.93896956 C55.5967135,1.94012667 55.2586998,2.25833197 55.2592786,2.65117089 L55.2592786,2.65117089 Z" id="Fill-2"></path>
                    <path d="M42.8920866,73.2527703 C42.6877735,73.731814 42.3925903,74.1611018 42.0123249,74.5307986 C41.6268503,74.9103307 41.1852331,75.2030796 40.6978915,75.3986312 C40.2082346,75.5941828 39.6757473,75.6936943 39.1143204,75.6948514 C38.5690997,75.6960085 38.0389275,75.5941828 37.5382737,75.3951599 C37.039935,75.197294 36.5988965,74.9103307 36.2313645,74.5423697 C35.8476264,74.1715158 35.5518644,73.7433851 35.3498665,73.2672342 C35.1472898,72.7916619 35.044265,72.2842691 35.0431074,71.757784 C35.0425287,71.2278275 35.143817,70.713492 35.3446573,70.2309771 C35.5454977,69.7507763 35.8383657,69.327274 36.2145796,68.9703055 C36.6122087,68.5913519 37.0659805,68.2957103 37.5620041,68.0920589 C38.0557124,67.8895646 38.57373,67.7860032 39.1004294,67.7848461 C39.6497017,67.783689 40.1792951,67.8843576 40.6718459,68.0839591 C41.1615027,68.2818249 41.6031199,68.5745738 41.9833853,68.9529488 C42.3833296,69.3452092 42.6883523,69.7814397 42.890929,70.2506479 C43.0935057,70.7169633 43.1959516,71.2208848 43.1965304,71.7444772 C43.1971092,72.2709623 43.0958209,72.7783552 42.8920866,73.2527703 L42.8920866,73.2527703 Z M43.7701119,67.316795 C43.158909,66.7347686 42.4423663,66.2829171 41.6395837,65.972233 C40.8391164,65.6638631 39.9842427,65.5088103 39.0969567,65.5099674 C38.2264557,65.5111246 37.3831578,65.6684915 36.5936874,65.9791756 C35.8024807,66.2863884 35.0842016,66.7405541 34.4567926,67.3306803 C33.8398018,67.9092354 33.3565117,68.5861449 33.0231283,69.3440521 C32.6874298,70.1036949 32.5178441,70.8957369 32.5190017,71.7022427 C32.5201593,72.561397 32.6885874,73.3794739 33.0173404,74.136224 C33.3455147,74.8947097 33.8351715,75.5802975 34.4706836,76.1808377 C35.083044,76.7570786 35.7978504,77.2066159 36.5988965,77.5173 C37.3987851,77.8291412 38.2461345,77.9888224 39.1177932,77.9865082 C40.0102882,77.9853511 40.8628468,77.8291412 41.650002,77.5242426 C42.4388935,77.2158728 43.1612242,76.7611285 43.7984726,76.1669524 C44.4102543,75.5930257 44.8894929,74.9195876 45.2205611,74.1634161 C45.5539445,73.4089802 45.7217937,72.6088385 45.7206362,71.7861332 C45.7194786,70.9159863 45.5533657,70.0967523 45.2269278,69.3498376 C44.9010687,68.6040801 44.4108331,67.920228 43.7701119,67.316795 L43.7701119,67.316795 Z M82.7985398,75.5421129 L82.7939095,72.7228139 L88.4978907,72.713557 L88.4944179,70.497691 L82.7904367,70.508105 L82.7858064,67.7906316 L88.6582157,67.7802177 L88.6547429,65.5811297 L80.2240793,65.595015 L80.2443369,77.7614502 L88.8625287,77.7469864 L88.8584772,75.5316989 L82.7985398,75.5421129 Z M76.5707531,73.0491189 C76.5713319,73.7861981 76.3172428,74.3601248 75.791701,74.8067693 C75.2557409,75.2620922 74.5264647,75.4935142 73.6223939,75.4946714 C73.082961,75.4958285 72.5979345,75.4055739 72.1800477,75.2302717 C71.7696852,75.0584408 71.4090987,74.7917269 71.1081276,74.4382297 C70.9599572,74.2594562 70.8494082,74.0401838 70.783426,73.7896695 C70.7348076,73.5999034 70.6751922,73.1908649 70.6734558,72.3184039 L70.6624588,65.5597232 L68.2830507,65.5643516 L68.2946265,72.388409 C68.2963629,73.3407107 68.362345,74.0361339 68.4966244,74.5105491 C68.6349554,74.9976925 68.8711019,75.4437585 69.2004338,75.8394902 C69.7161362,76.4753222 70.3609089,76.9670941 71.115073,77.2980276 C71.8611341,77.6260683 72.7061684,77.7909565 73.6264454,77.7897994 C75.1880224,77.7874852 76.4752526,77.3535689 77.4557239,76.4955717 C78.4506649,75.6271605 78.9542127,74.4821999 78.9518976,73.0936677 L78.9391642,65.5464164 L76.5580197,65.5504663 L76.5707531,73.0491189 Z M64.628567,73.2053288 C64.4254115,73.6959435 64.1313859,74.136224 63.7540144,74.5163347 C63.3587004,74.9195876 62.9130317,75.2268003 62.4274264,75.4316088 C61.9418211,75.6358388 61.4203308,75.7399787 60.87511,75.7411358 C60.3478318,75.7411358 59.8309718,75.6346817 59.3343695,75.4246662 C58.8360308,75.2123365 58.3915196,74.9103307 58.0129906,74.5273272 C57.6321464,74.1489522 57.3386996,73.7080932 57.1349653,73.2186356 C56.9347037,72.7309136 56.8305214,72.2084784 56.8293638,71.6663723 C56.8282063,71.1184806 56.931231,70.5885241 57.1303349,70.0944381 C57.3311753,69.6015091 57.6228857,69.1647 57.9985208,68.7973175 C58.3926772,68.4108427 58.8429763,68.108837 59.3366846,67.8999786 C59.8263415,67.6922773 60.3403075,67.5869803 60.8617978,67.5858231 C61.4070186,67.584666 61.9314028,67.688806 62.4193233,67.8895646 C62.906665,68.0943731 63.3453882,68.3929075 63.7239173,68.781118 C64.122704,69.1837923 64.4259903,69.6310154 64.6279882,70.1135304 C64.8305649,70.5948882 64.932432,71.112695 64.9335896,71.6524869 C64.9347472,72.1940145 64.83288,72.7170283 64.628567,73.2053288 L64.628567,73.2053288 Z M66.0801737,75.7827918 C66.9882962,74.6899012 67.4466983,73.3985662 67.4443832,71.9406074 C67.4432256,71.0525253 67.2771127,70.2165132 66.9541475,69.4539776 C66.6317612,68.6908634 66.1444195,67.9902332 65.5077499,67.3723363 C64.899441,66.7781602 64.1886861,66.3147376 63.3899551,65.9971108 C62.5946968,65.6806412 61.7427171,65.5203814 60.8583251,65.5215386 C59.9912968,65.5226957 59.1526292,65.6852696 58.3660528,66.0017393 C57.5788976,66.319366 56.8635125,66.7845243 56.243049,67.3856431 C55.629531,67.9792406 55.1508711,68.6717711 54.8186453,69.4470349 C54.4858408,70.2222987 54.3174127,71.0311188 54.3191491,71.8538241 C54.3214642,73.3569103 54.7798664,74.6922154 55.6798857,75.8209764 C56.563699,76.9318022 57.7450105,77.6764026 59.1902506,78.0437851 C60.2500162,78.7964853 61.270424,79.3785117 62.2196406,79.7730863 C63.2047421,80.1821248 64.1099706,80.389826 64.9144895,80.3886689 C65.0227234,80.3875118 65.106648,80.3863547 65.1639483,80.3840405 C65.2345607,80.3782549 65.3057519,80.3695766 65.3781008,80.3545342 L65.47418,80.3354419 L65.5471076,80.2712222 L67.1196816,78.8971539 L67.3158916,78.7276372 L67.2232852,78.4858012 L67.1561454,78.310499 L67.0444389,78.016593 L66.7365223,78.0779199 C66.5206334,78.1207329 66.3186355,78.1537106 66.1397892,78.1751171 C65.9632581,78.1965237 65.8006179,78.2046234 65.6559203,78.2057805 C65.1986757,78.2057805 64.7119128,78.1421395 64.2118377,78.0125431 C63.9427001,77.9431165 63.6498321,77.8470764 63.33497,77.7319439 C64.4497207,77.2835637 65.3728917,76.6326892 66.0801737,75.7827918 L66.0801737,75.7827918 Z M50.9013907,70.6162948 C50.8967603,70.6139805 50.6415137,70.471656 50.6415137,70.471656 C48.9062995,69.4684414 48.7176138,68.928071 48.717035,68.7417762 C48.717035,68.471591 48.8310568,68.2627326 49.0758852,68.0839591 C49.3496531,67.8843576 49.7189215,67.783689 50.1744297,67.7825319 C50.5691649,67.7813748 50.9725819,67.8617939 51.370211,68.0197395 C51.7828887,68.1834706 52.2441848,68.45597 52.7407871,68.8268238 L53.3155262,69.2537975 L53.3114747,66.5270673 L53.1291556,66.4240845 C52.649917,66.1521636 52.1660481,65.9485122 51.693755,65.8171802 C51.2168315,65.6852696 50.7271747,65.6187358 50.2357815,65.6198929 C49.1187157,65.62105 48.186284,65.930577 47.4656898,66.5374813 C46.7288893,67.1588495 46.3555694,67.9665124 46.3578846,68.9350136 C46.3590422,69.626387 46.5581461,70.2332913 46.9517237,70.7406841 C47.3279376,71.2231991 48.1926507,71.8665523 49.5950603,72.7025644 C50.6322531,73.311783 51.01657,73.6346167 51.1554797,73.7995049 C51.3314321,74.0089419 51.4170931,74.241521 51.4170931,74.5163347 C51.4176719,74.8414826 51.3019138,75.0810045 51.0507186,75.2696134 C50.7746355,75.4790504 50.3758488,75.5837688 49.8670919,75.5849259 C49.3699108,75.5860831 48.8953025,75.4732648 48.4565792,75.2482069 C48.0033862,75.0144706 47.5143082,74.6222103 47.0026573,74.0801041 L46.381615,73.4211299 L46.3868241,76.5916118 L46.5263126,76.6992231 C47.0356484,77.0914834 47.5762388,77.3819181 48.1312989,77.5589559 C48.6846227,77.7400437 49.3074014,77.8291412 49.9845864,77.8279841 C51.0970219,77.826827 52.0271384,77.5173 52.7506266,76.9127099 C53.4920573,76.2913417 53.8676924,75.4923571 53.8653773,74.5412125 C53.8642197,73.7248713 53.6628006,73.0265553 53.2674866,72.4641997 C52.8791181,71.9116796 52.1052751,71.3070895 50.9013907,70.6162948 L50.9013907,70.6162948 Z M28.9050333,75.1186105 C28.5716499,75.3714391 28.0079079,75.5004569 27.2276982,75.5027711 L25.224504,75.5050853 L25.2187161,72.3982445 L26.9359877,72.3965088 C27.8163282,72.3941946 28.4576282,72.5295765 28.83963,72.7997617 C29.1863255,73.0427548 29.3559112,73.4303868 29.3570687,73.9805927 C29.3576475,74.5128633 29.2100559,74.8854528 28.9050333,75.1186105 L28.9050333,75.1186105 Z M25.2094554,67.0535525 L26.5424101,67.0512382 C27.2149648,67.0500811 27.6965186,67.1623208 27.9760744,67.3833289 C28.2347938,67.5881374 28.3603914,67.9283278 28.3603914,68.4218353 C28.3615489,68.9714626 28.1948573,69.3590945 27.852792,69.6142373 C27.4800509,69.889051 26.8723208,70.0302184 26.0475442,70.0313755 L25.2152433,70.0325327 L25.2094554,67.0535525 Z M29.746016,70.8199461 C30.0377265,70.6209232 30.2819761,70.3906583 30.4695043,70.1251015 C30.8179362,69.636801 30.9927309,69.0252682 30.9915734,68.309017 C30.989837,67.1634779 30.6026261,66.2591963 29.8380437,65.6274141 C29.0960342,65.0129886 28.0466869,64.7011474 26.7177837,64.7034616 L22.6841921,64.7098257 L22.7056074,77.8754256 L27.4186991,77.8679044 C28.7967995,77.8655901 29.9132865,77.527714 30.7351691,76.8594828 C31.5807822,76.1750521 32.0085084,75.2470498 32.006772,74.1038249 C32.0050357,73.2099573 31.7220071,72.4358505 31.1646317,71.8075397 C30.7953634,71.3892444 30.3178611,71.0606251 29.746016,70.8199461 L29.746016,70.8199461 Z M12.5293113,65.6459279 L9.98379031,65.6499778 L10.0034692,77.8858396 L18.6268701,77.8707971 L18.6233974,75.6832803 L12.5455174,75.6936943 L12.5293113,65.6459279 Z M2.8166265,72.4277508 L8.48645906,72.4179153 L8.48240753,70.0909667 L2.81257497,70.1002236 L2.80736585,67.0691734 L8.64504769,67.0604951 L8.64099615,64.7509032 L0.27110551,64.7642099 L0.292520761,77.9003035 L8.84820318,77.8858396 L8.84415165,75.5577339 L2.82183562,75.5681478 L2.8166265,72.4277508 Z" id="Fill-4"></path>
                    <path d="M6.83812136,57.9515501 C6.83985773,58.8656671 7.0939468,59.5923323 7.60212493,60.1303886 C8.10972427,60.6678663 8.78748805,60.9357373 9.63715263,60.9345802 C10.4862384,60.933423 11.1628446,60.6632378 11.6692864,60.1234459 C12.1751493,59.5842326 12.427502,58.8564102 12.4251869,57.9422932 L12.4176626,52.9458913 L13.1214719,52.9447342 L13.1301538,57.9041085 C13.1318902,59.0508048 12.8176069,59.9597148 12.1867252,60.6343101 C11.5558434,61.3077482 10.7056,61.6456244 9.63541625,61.6479386 C8.569284,61.6490957 7.720777,61.3152694 7.09221043,60.6464597 C6.46306506,59.9753358 6.14936056,59.0670043 6.1470454,57.9156796 L6.13894233,52.9557268 L6.8294395,52.9545697 L6.83812136,57.9515501 Z" id="Fill-6"></path>
                    <polygon id="Fill-8" points="15.8347843 60.86579 15.8226297 53.3561448 16.4442508 53.3549877 21.8918278 59.8996029 21.8814096 53.3457308 22.4787214 53.3445737 22.490876 60.8542189 21.9392886 60.855376 16.4222568 54.2239774 16.432675 60.8646328"></polygon>
                    <polygon id="Fill-10" points="25.1994423 53.4496971 25.8413211 53.44854 25.8540545 60.9587638 25.2115969 60.9593423"></polygon>
                    <polygon id="Fill-12" points="28.0012518 53.4451844 28.6552852 53.4440273 31.2089092 59.7427567 33.7642697 53.4359275 34.3968878 53.4347704 31.2650519 61.0826903 31.1695515 61.0826903"></polygon>
                    <polygon id="Fill-14" points="36.2054926 60.9415228 36.193338 53.4318776 40.2205629 53.424935 40.2211417 53.908607 36.7935438 53.9143926 36.7975953 56.8939513 40.1146442 56.8893229 40.1158018 57.372995 36.7987529 57.3787805 36.8033833 60.4352871 40.3166421 60.4295016 40.3172209 60.9345802"></polygon>
                    <path d="M42.9588211,53.4203065 L44.7669629,53.4179923 C45.5558545,53.4156781 46.1612694,53.577095 46.5832078,53.9005073 C47.0045673,54.2250767 47.2158259,54.6879208 47.2164047,55.2925108 C47.2169834,55.7547764 47.1006465,56.1366227 46.8656576,56.4420998 C46.6312474,56.7458412 46.2752912,56.9761062 45.8018405,57.1311589 C45.9366987,57.2092639 46.0594023,57.2995185 46.1687937,57.4036584 C46.2787639,57.5083769 46.3771583,57.6264021 46.4668709,57.7583127 L48.5163683,60.9212734 L47.8426561,60.9224305 L46.6555566,59.0768397 C46.4199888,58.7163999 46.2191485,58.418444 46.048984,58.1852863 C45.8788196,57.9515501 45.7439614,57.7843476 45.6438306,57.6859933 C45.5124452,57.5540827 45.3399656,57.4586211 45.1229191,57.4025013 C44.907609,57.3492742 44.5910106,57.320925 44.1742813,57.3220821 L43.5648149,57.3232392 L43.5706028,60.9293732 L42.9709757,60.9299517 L42.9588211,53.4203065 Z M43.559027,53.9253851 L43.5636573,56.806011 L44.0191655,56.8048539 C44.5858015,56.8036967 44.9776427,56.7898114 45.1958467,56.7603051 C45.4163659,56.7313774 45.6004213,56.6839358 45.7485917,56.6145092 C46.0212021,56.4930127 46.2249364,56.3223389 46.3603734,56.1053807 C46.4958104,55.8861084 46.5641077,55.6159231 46.5629501,55.2948251 C46.5629501,54.8574374 46.4101494,54.5184041 46.1028116,54.2800394 C45.7960526,54.0405176 45.3619596,53.9219138 44.8005328,53.9230709 L43.559027,53.9253851 Z" id="Fill-18"></path>
                    <path d="M53.9620353,54.4700369 C53.6541187,54.2600214 53.3600931,54.1061257 53.0828524,54.0043 C52.8050329,53.9047886 52.5289498,53.8561899 52.2569182,53.8561899 C51.8054616,53.8573471 51.4385083,53.9909933 51.1525858,54.2577072 C50.8660844,54.5255782 50.7225444,54.8622973 50.723702,55.2643931 C50.723702,55.5941695 50.8163085,55.8620405 51.0009427,56.0691632 C51.1849981,56.2757074 51.5820484,56.5106007 52.1909361,56.7709505 C52.2250847,56.7842573 52.2794911,56.8068209 52.3506823,56.8351701 C53.0394431,57.117505 53.4978452,57.3888474 53.7287827,57.6497757 C53.8902652,57.8250779 54.0112325,58.0258365 54.0945783,58.2497374 C54.178503,58.4759524 54.2201759,58.7154742 54.2213335,58.9694599 C54.2219123,59.568843 54.0170204,60.0600363 53.6060791,60.445354 C53.1939802,60.8318288 52.6684383,61.0239091 52.0259808,61.0250662 C51.7053308,61.0262233 51.3852596,60.970682 51.0675036,60.860178 C50.7509051,60.7496739 50.4308339,60.5830501 50.1078688,60.3597278 L50.1067112,59.6307484 C50.4568795,59.9044049 50.7908417,60.109792 51.1045462,60.2434382 C51.4170931,60.3765059 51.7209581,60.4430397 52.0149838,60.4430397 C52.5005891,60.4418826 52.8843272,60.3065007 53.166777,60.0386297 C53.4498056,59.7684445 53.5898729,59.4045333 53.5892941,58.9422678 C53.5887154,58.6043916 53.4920573,58.324371 53.2998989,58.1085699 C53.106004,57.8927689 52.6661232,57.6399403 51.9796775,57.3506627 C51.2683439,57.0555996 50.781581,56.7559081 50.5193889,56.4544809 C50.2577755,56.151318 50.1269689,55.7648432 50.1258113,55.2973707 C50.1246537,54.71303 50.3231789,54.2363006 50.7202292,53.8654468 C51.1178584,53.4940144 51.6370335,53.3071412 52.2783335,53.305984 C52.5677288,53.305984 52.8513362,53.3459043 53.1274193,53.4257449 C53.4029236,53.5061641 53.6813218,53.6305535 53.9614565,53.798913 L53.9620353,54.4700369 Z" id="Fill-20"></path>
                    <polygon id="Fill-22" points="56.6010888 53.397685 57.2423888 53.3965279 57.2551222 60.9067517 56.6132434 60.9073302"></polygon>
                    <path d="M62.6037839,53.3886596 C63.1709986,53.3875025 63.65371,53.4418866 64.0519179,53.5500764 C64.4507046,53.6576877 64.8095548,53.8295186 65.129626,54.0667261 C65.5961312,54.4155949 65.961348,54.8599252 66.2218038,55.3991385 C66.4834171,55.9354591 66.6148026,56.5151713 66.6159602,57.1348038 C66.6171178,57.7503865 66.4874687,58.3266273 66.2275917,58.8658407 C65.9682935,59.4056326 65.6053918,59.8499629 65.1400442,60.2011459 C64.8193942,60.4418248 64.4593865,60.617127 64.0553906,60.7293667 C63.6525524,60.8421849 63.172735,60.8977262 62.6159385,60.8977262 L60.0408992,60.9017761 L60.0287446,53.3921309 L62.6037839,53.3886596 Z M62.4567711,53.9278729 L60.6607839,53.9307657 L60.6706233,60.3718196 L62.4671893,60.3695054 C62.9551097,60.3683483 63.3770481,60.3278494 63.728374,60.2445375 C64.0814362,60.1629612 64.3841437,60.0327863 64.6399691,59.8569056 C65.0532256,59.5774635 65.3773483,59.1979313 65.6117585,58.7165735 C65.8473263,58.238687 65.9653996,57.7122018 65.9648208,57.1434822 C65.9636632,56.5741839 65.8438536,56.0488559 65.6071282,55.5686552 C65.3704029,55.0872973 65.0457013,54.7071866 64.6307085,54.4283231 C64.374883,54.2530209 64.0715968,54.1263173 63.7185345,54.0453196 C63.3666299,53.9672147 62.9446915,53.9267158 62.4567711,53.9278729 L62.4567711,53.9278729 Z" id="Fill-26"></path>
                    <path d="M67.7473221,60.8895107 L70.8299608,53.6529435 L71.0580043,53.6529435 L74.1637946,60.8790967 L73.5647463,60.8790967 L72.5107687,58.3855242 L69.392245,58.3901527 L68.3515795,60.8883536 L67.7473221,60.8895107 Z M69.5896126,57.9053235 L72.3128223,57.9006951 L70.9468765,54.6474798 L69.5896126,57.9053235 Z" id="Fill-30"></path>
                    <path d="M78.9003273,53.3615253 C79.4669633,53.3603682 79.9496746,53.4147524 80.3484614,53.5229422 C80.7466693,53.6305535 81.1060982,53.8035414 81.4244331,54.0395919 C81.8926746,54.3884606 82.2578915,54.8339481 82.5183473,55.3720043 C82.7793818,55.909482 82.9113461,56.4880371 82.9125036,57.1076696 C82.9136612,57.7232522 82.7834333,58.2994931 82.5241352,58.8398636 C82.264837,59.3784984 81.9019353,59.8228287 81.4348513,60.1740116 C81.1165165,60.4146905 80.7553511,60.5911499 80.3513553,60.702811 C79.9490959,60.8150507 79.4686997,60.870592 78.9124819,60.8711705 L76.336285,60.8746418 L76.3241304,53.3661538 L78.9003273,53.3615253 Z M78.7533145,53.9007387 L76.9561697,53.9036315 L76.966588,60.3458425 L78.7637327,60.3423712 C79.2528108,60.341214 79.6718552,60.3018723 80.0249174,60.2185604 C80.3779797,60.135827 80.6801084,60.0056521 80.935355,59.8309285 C81.3497691,59.5503292 81.6738918,59.1707971 81.9077232,58.6905963 C82.1438697,58.2115527 82.2602067,57.6862247 82.2596279,57.1163479 C82.2590491,56.5482068 82.140397,56.0228788 81.9025141,55.5415209 C81.6669463,55.0601631 81.3422448,54.6800524 80.9260944,54.402346 C80.6708477,54.2270438 80.3675614,54.0991831 80.015078,54.0193425 C79.6608581,53.9400804 79.2418138,53.9007387 78.7533145,53.9007387 L78.7533145,53.9007387 Z" id="Fill-34"></path>
                </g>
            </g>
        </g>
    </g>
</svg>