<?xml version="1.0" encoding="UTF-8"?>
<svg width="17px" height="17px" viewBox="0 0 17 17" version="1.1" xmlns="http://www.w3.org/2000/svg" xmlns:xlink="http://www.w3.org/1999/xlink">
    <title>Fill 955</title>
    <g id="Homepage" stroke="none" stroke-width="1" fill="none" fill-rule="evenodd">
        <g id="Home-page-1366" transform="translate(-1055.000000, -37.000000)" fill="#5BBDFF">
            <g id="header" transform="translate(184.000000, 0.000000)">
                <g id="Group-13" transform="translate(414.000000, 35.000000)">
                    <path d="M459.258058,3.55178341 C458.806489,3.55178341 458.520185,3.90403824 458.5551,4.24853416 C459.244867,11.213714 464.786286,16.7551325 471.751466,17.4449002 C472.095962,17.4798154 472.448217,17.1935113 472.448217,16.7419424 L472.448217,13.9805438 C472.448217,13.6469104 472.234846,13.3505197 471.917507,13.2449985 L469.232921,12.3496194 C468.954376,12.2572883 468.647123,12.3294462 468.439184,12.5373852 L468.00934,12.9672292 C467.4957,13.4808695 466.676358,13.5794078 466.056421,13.154995 C464.588434,12.1509912 463.734177,11.3021656 462.822504,9.9303891 C462.410506,9.30967573 462.518355,8.50430015 463.02346,7.99997054 L463.462615,7.56081584 C463.670554,7.35287686 463.742712,7.04562375 463.649605,6.76707862 L462.755002,4.08249333 C462.64948,3.76515362 462.35309,3.55178341 462.019456,3.55178341 L459.258058,3.55178341 Z M457.011075,4.40216071 C456.87607,3.04124667 457.995682,2 459.258058,2 L462.019456,2 C463.021132,2 463.910304,2.64088655 464.226868,3.59135388 L465.122247,6.27593918 C465.400792,7.11235043 465.183543,8.03488567 464.559726,8.6579267 L464.127554,9.09009838 C464.911205,10.2663502 465.615714,10.9724117 466.917661,11.8646871 L467.342073,11.4402744 C467.965114,10.8164574 468.88765,10.5992077 469.724061,10.8777529 L472.408646,11.7731319 C473.359113,12.0896957 474,12.9788676 474,13.9805438 L474,16.7419424 C474,18.0043182 472.958753,19.1239299 471.597839,18.9889247 C463.897114,18.2262232 457.773777,12.1028859 457.011075,4.40216071 Z M467.792866,2.7758917 C467.792866,2.34759948 468.140466,2 468.568758,2 C471.568355,2 474,4.4316446 474,7.43124192 C474,7.85953414 473.652401,8.20713362 473.224108,8.20713362 C472.795816,8.20713362 472.448217,7.85953414 472.448217,7.43124192 C472.448217,5.28900493 470.710995,3.55178341 468.568758,3.55178341 C468.140466,3.55178341 467.792866,3.20418392 467.792866,2.7758917 Z M467.792866,5.87945852 C467.792866,5.4511663 468.140466,5.10356681 468.568758,5.10356681 C469.854411,5.10356681 470.896433,6.14558937 470.896433,7.43124192 C470.896433,7.85953414 470.548834,8.20713362 470.120541,8.20713362 C469.692249,8.20713362 469.34465,7.85953414 469.34465,7.43124192 C469.34465,7.0029497 468.99705,6.65535022 468.568758,6.65535022 C468.140466,6.65535022 467.792866,6.30775074 467.792866,5.87945852 L467.792866,5.87945852 Z" id="Fill-955"></path>
                </g>
            </g>
        </g>
    </g>
</svg>