<?xml version="1.0" encoding="UTF-8"?>
<svg width="20px" height="20px" viewBox="0 0 20 20" version="1.1" xmlns="http://www.w3.org/2000/svg" xmlns:xlink="http://www.w3.org/1999/xlink">
    <title>Group 3</title>
    <g id="Homepage" stroke="none" stroke-width="1" fill="none" fill-rule="evenodd">
        <g id="Home-page-1920" transform="translate(-1498.000000, -1714.000000)" fill="#5BBDFF" fill-rule="nonzero">
            <g id="block-tabs" transform="translate(260.000000, 1305.000000)">
                <g id="detalle-tab" transform="translate(0.000000, 71.000000)">
                    <g id="body-tab" transform="translate(239.000000, 0.000000)">
                        <g id="Group-16" transform="translate(358.000000, 146.000000)">
                            <g id="Group-4" transform="translate(1.000000, 179.000000)">
                                <g id="Group-3" transform="translate(640.000000, 13.000000)">
                                    <path d="M9.75,0 C15.1347763,0 19.5,4.36522369 19.5,9.75 C19.5,15.1347763 15.1347763,19.5 9.75,19.5 C4.36522369,19.5 0,15.1347763 0,9.75 C0,4.36522369 4.36522369,0 9.75,0 Z M9.75,1.5 C5.19365081,1.5 1.5,5.19365081 1.5,9.75 C1.5,14.3063492 5.19365081,18 9.75,18 C14.3063492,18 18,14.3063492 18,9.75 C18,5.19365081 14.3063492,1.5 9.75,1.5 Z M9.5,6 C9.87969577,6 10.193491,6.28215388 10.2431534,6.64822944 L10.25,6.75 L10.25,9 L12.5,9 C12.8796958,9 13.193491,9.28215388 13.2431534,9.64822944 L13.25,9.75 C13.25,10.1296958 12.9678461,10.443491 12.6017706,10.4931534 L12.5,10.5 L10.25,10.5 L10.25,12.75 C10.25,13.1296958 9.96784612,13.443491 9.60177056,13.4931534 L9.5,13.5 C9.12030423,13.5 8.80650904,13.2178461 8.75684662,12.8517706 L8.75,12.75 L8.749,10.5 L6.5,10.5 C6.12030423,10.5 5.80650904,10.2178461 5.75684662,9.85177056 L5.75,9.75 C5.75,9.37030423 6.03215388,9.05650904 6.39822944,9.00684662 L6.5,9 L8.75,9 L8.75,6.75 C8.75,6.37030423 9.03215388,6.05650904 9.39822944,6.00684662 L9.5,6 Z" id="Shape"></path>
                                </g>
                            </g>
                        </g>
                    </g>
                </g>
            </g>
        </g>
    </g>
</svg>