<?xml version="1.0" encoding="UTF-8"?>
<svg width="250px" height="95px" viewBox="0 0 250 95" version="1.1" xmlns="http://www.w3.org/2000/svg" xmlns:xlink="http://www.w3.org/1999/xlink">
    <title>globo</title>
    <defs>
        <path d="M3,0 L217,0 C218.656854,-3.04359188e-16 220,1.34314575 220,3 L220,57 C220,58.6568542 218.656854,60 217,60 L20.699877,60 L20.699877,60 L11.5910666,65 L10.340627,60 L3,60 C1.34314575,60 1.09108455e-15,58.6568542 0,57 L0,3 C-2.02906125e-16,1.34314575 1.34314575,3.04359188e-16 3,0 Z" id="path-1"></path>
        <filter x="-10.7%" y="-33.1%" width="121.4%" height="172.3%" filterUnits="objectBoundingBox" id="filter-2">
            <feOffset dx="0" dy="2" in="SourceAlpha" result="shadowOffsetOuter1"></feOffset>
            <feGaussianBlur stdDeviation="7.5" in="shadowOffsetOuter1" result="shadowBlurOuter1"></feGaussianBlur>
            <feColorMatrix values="0 0 0 0 0   0 0 0 0 0   0 0 0 0 0  0 0 0 0.2 0" type="matrix" in="shadowBlurOuter1"></feColorMatrix>
        </filter>
    </defs>
    <g id="Homepage" stroke="none" stroke-width="1" fill="none" fill-rule="evenodd">
        <g id="Home-page-1920" transform="translate(-1351.000000, -583.000000)">
            <g id="globo" transform="translate(1366.000000, 596.000000)">
                <g id="Rectangle">
                    <use fill="black" fill-opacity="1" filter="url(#filter-2)" xlink:href="#path-1"></use>
                    <use fill="#F5F8FF" fill-rule="evenodd" xlink:href="#path-1"></use>
                </g>
                <path d="M30.076,28.108 C32.758,28.108 34.684,26.704 34.684,24.346 C34.684,23.248 34.342,22.33 33.64,21.718 C33.1,21.232 32.434,20.944 31.246,20.764 L29.788,20.548 C29.194,20.458 28.672,20.242 28.348,19.954 C28.006,19.648 27.862,19.234 27.862,18.766 C27.862,17.632 28.69,16.768 30.202,16.768 C31.282,16.768 32.2,17.002 32.992,17.758 L34.234,16.534 C33.136,15.508 31.948,15.076 30.256,15.076 C27.592,15.076 25.972,16.606 25.972,18.838 C25.972,19.882 26.278,20.692 26.908,21.286 C27.466,21.808 28.294,22.168 29.338,22.312 L30.85,22.528 C31.606,22.636 31.93,22.762 32.254,23.068 C32.596,23.374 32.758,23.842 32.758,24.4 C32.758,25.642 31.786,26.362 30.112,26.362 C28.798,26.362 27.772,26.074 26.836,25.138 L25.54,26.416 C26.764,27.658 28.15,28.108 30.076,28.108 Z M38.968,17.074 L38.968,15.13 L37.024,15.13 L37.024,17.074 L38.968,17.074 Z M38.914,28 L38.914,18.874 L37.078,18.874 L37.078,28 L38.914,28 Z M47.986,28 L47.986,22.438 C47.986,21.034 48.85,20.404 49.876,20.404 C50.902,20.404 51.712,21.016 51.712,22.438 L51.712,28 L53.548,28 L53.548,22.168 C53.548,21.142 53.332,20.278 52.63,19.594 C52.09,19.072 51.316,18.766 50.38,18.766 C49.462,18.766 48.58,19.108 47.95,19.792 L47.95,18.874 L46.15,18.874 L46.15,28 L47.986,28 Z M60.01,28.108 C61.612,28.108 62.494,27.622 63.43,26.686 L62.26,25.588 C61.612,26.236 61.072,26.524 60.046,26.524 C58.552,26.524 57.724,25.534 57.724,23.968 L63.646,23.968 L63.646,23.158 C63.646,20.566 62.224,18.766 59.776,18.766 C57.436,18.766 55.906,20.476 55.906,23.428 C55.906,26.902 57.724,28.108 60.01,28.108 Z M61.828,22.69 L57.724,22.69 C57.742,22.132 57.778,21.862 57.958,21.448 C58.246,20.764 58.912,20.296 59.776,20.296 C60.64,20.296 61.288,20.764 61.576,21.448 C61.756,21.862 61.81,22.132 61.828,22.69 Z M69.676,28.108 C70.936,28.108 71.818,27.73 72.682,26.812 L71.422,25.606 C70.846,26.236 70.396,26.47 69.676,26.47 C68.974,26.47 68.38,26.182 67.984,25.66 C67.588,25.156 67.444,24.49 67.444,23.428 C67.444,22.366 67.588,21.718 67.984,21.214 C68.38,20.692 68.974,20.404 69.676,20.404 C70.396,20.404 70.846,20.638 71.422,21.268 L72.682,20.044 C71.818,19.126 70.936,18.766 69.676,18.766 C67.624,18.766 65.608,20.008 65.608,23.428 C65.608,26.848 67.624,28.108 69.676,28.108 Z M78.442,28.108 C80.044,28.108 80.926,27.622 81.862,26.686 L80.692,25.588 C80.044,26.236 79.504,26.524 78.478,26.524 C76.984,26.524 76.156,25.534 76.156,23.968 L82.078,23.968 L82.078,23.158 C82.078,20.566 80.656,18.766 78.208,18.766 C75.868,18.766 74.338,20.476 74.338,23.428 C74.338,26.902 76.156,28.108 78.442,28.108 Z M80.26,22.69 L76.156,22.69 C76.174,22.132 76.21,21.862 76.39,21.448 C76.678,20.764 77.344,20.296 78.208,20.296 C79.072,20.296 79.72,20.764 80.008,21.448 C80.188,21.862 80.242,22.132 80.26,22.69 Z M87.46,28.108 C89.638,28.108 91.258,27.118 91.258,25.21 C91.258,23.59 90.25,22.78 88.54,22.636 L87.1,22.51 C86.128,22.42 85.84,22.006 85.84,21.466 C85.84,20.782 86.398,20.296 87.496,20.296 C88.36,20.296 89.17,20.476 89.746,20.962 L90.898,19.792 C90.052,19.054 88.882,18.766 87.514,18.766 C85.606,18.766 84.076,19.774 84.076,21.556 C84.076,23.158 85.066,23.932 86.776,24.076 L88.234,24.202 C89.116,24.274 89.458,24.67 89.458,25.282 C89.458,26.146 88.576,26.542 87.46,26.542 C86.56,26.542 85.57,26.344 84.832,25.588 L83.626,26.794 C84.706,27.856 85.966,28.108 87.46,28.108 Z M95.38,17.074 L95.38,15.13 L93.436,15.13 L93.436,17.074 L95.38,17.074 Z M95.326,28 L95.326,18.874 L93.49,18.874 L93.49,28 L95.326,28 Z M102.058,28 L102.058,26.434 L101.302,26.434 C100.618,26.434 100.294,26.038 100.294,25.372 L100.294,20.44 L102.058,20.44 L102.058,19.036 L100.294,19.036 L100.294,16.264 L98.458,16.264 L98.458,19.036 L97.414,19.036 L97.414,20.44 L98.458,20.44 L98.458,25.462 C98.458,26.776 99.25,28 100.96,28 L102.058,28 Z M106.882,28.108 C108.016,28.108 108.646,27.838 109.312,27.172 L109.312,28 L111.112,28 L111.112,21.898 C111.112,19.828 109.852,18.766 107.35,18.766 C105.838,18.766 104.938,19.072 104.074,20.08 L105.28,21.214 C105.784,20.566 106.27,20.332 107.278,20.332 C108.7,20.332 109.276,20.89 109.276,22.042 L109.276,22.69 L106.864,22.69 C104.776,22.69 103.714,23.788 103.714,25.318 C103.714,26.092 103.966,26.794 104.434,27.28 C104.992,27.838 105.748,28.108 106.882,28.108 Z M107.17,26.578 C106.018,26.578 105.496,26.11 105.496,25.282 C105.496,24.454 106.054,23.968 107.134,23.968 L109.276,23.968 L109.276,24.706 C109.276,25.354 109.15,25.786 108.88,26.056 C108.394,26.524 107.872,26.578 107.17,26.578 Z M116.89,28.108 C119.068,28.108 120.688,27.118 120.688,25.21 C120.688,23.59 119.68,22.78 117.97,22.636 L116.53,22.51 C115.558,22.42 115.27,22.006 115.27,21.466 C115.27,20.782 115.828,20.296 116.926,20.296 C117.79,20.296 118.6,20.476 119.176,20.962 L120.328,19.792 C119.482,19.054 118.312,18.766 116.944,18.766 C115.036,18.766 113.506,19.774 113.506,21.556 C113.506,23.158 114.496,23.932 116.206,24.076 L117.664,24.202 C118.546,24.274 118.888,24.67 118.888,25.282 C118.888,26.146 118.006,26.542 116.89,26.542 C115.99,26.542 115,26.344 114.262,25.588 L113.056,26.794 C114.136,27.856 115.396,28.108 116.89,28.108 Z M129.724,28.108 C130.858,28.108 131.488,27.838 132.154,27.172 L132.154,28 L133.954,28 L133.954,21.898 C133.954,19.828 132.694,18.766 130.192,18.766 C128.68,18.766 127.78,19.072 126.916,20.08 L128.122,21.214 C128.626,20.566 129.112,20.332 130.12,20.332 C131.542,20.332 132.118,20.89 132.118,22.042 L132.118,22.69 L129.706,22.69 C127.618,22.69 126.556,23.788 126.556,25.318 C126.556,26.092 126.808,26.794 127.276,27.28 C127.834,27.838 128.59,28.108 129.724,28.108 Z M130.012,26.578 C128.86,26.578 128.338,26.11 128.338,25.282 C128.338,24.454 128.896,23.968 129.976,23.968 L132.118,23.968 L132.118,24.706 C132.118,25.354 131.992,25.786 131.722,26.056 C131.236,26.524 130.714,26.578 130.012,26.578 Z M137.104,31.618 C137.806,31.618 138.472,31.456 138.976,30.952 C139.246,30.682 139.462,30.322 139.642,29.818 L143.674,18.874 L141.712,18.874 L139.588,25.3 L137.41,18.874 L135.466,18.874 L138.652,27.568 L138.148,28.99 C137.878,29.728 137.608,29.962 136.834,29.962 L136.366,29.962 L136.366,31.618 L137.104,31.618 Z M148.282,28.108 C149.2,28.108 150.082,27.766 150.712,27.082 L150.712,28 L152.512,28 L152.512,18.874 L150.676,18.874 L150.676,24.436 C150.676,25.84 149.812,26.47 148.786,26.47 C147.76,26.47 146.95,25.858 146.95,24.436 L146.95,18.874 L145.114,18.874 L145.114,24.706 C145.114,25.732 145.33,26.596 146.032,27.28 C146.572,27.802 147.346,28.108 148.282,28.108 Z M158.254,28.108 C159.244,28.108 159.982,27.856 160.666,27.028 L160.666,28 L162.466,28 L162.466,15.184 L160.63,15.184 L160.63,19.792 C159.964,19 159.208,18.766 158.236,18.766 C157.318,18.766 156.526,19.072 156.022,19.576 C155.104,20.494 154.996,22.042 154.996,23.428 C154.996,24.814 155.104,26.38 156.022,27.298 C156.526,27.802 157.336,28.108 158.254,28.108 Z M158.74,26.47 C157.084,26.47 156.832,25.048 156.832,23.428 C156.832,21.808 157.084,20.404 158.74,20.404 C160.396,20.404 160.63,21.808 160.63,23.428 C160.63,25.048 160.396,26.47 158.74,26.47 Z M167.866,28.108 C169,28.108 169.63,27.838 170.296,27.172 L170.296,28 L172.096,28 L172.096,21.898 C172.096,19.828 170.836,18.766 168.334,18.766 C166.822,18.766 165.922,19.072 165.058,20.08 L166.264,21.214 C166.768,20.566 167.254,20.332 168.262,20.332 C169.684,20.332 170.26,20.89 170.26,22.042 L170.26,22.69 L167.848,22.69 C165.76,22.69 164.698,23.788 164.698,25.318 C164.698,26.092 164.95,26.794 165.418,27.28 C165.976,27.838 166.732,28.108 167.866,28.108 Z M168.154,26.578 C167.002,26.578 166.48,26.11 166.48,25.282 C166.48,24.454 167.038,23.968 168.118,23.968 L170.26,23.968 L170.26,24.706 C170.26,25.354 170.134,25.786 169.864,26.056 C169.378,26.524 168.856,26.578 168.154,26.578 Z" id="Sinecesitasayuda" fill="#0077C8" fill-rule="nonzero"></path>
                <path d="M27.856,42.072 C28.516,42.072 29.008,41.904 29.464,41.352 L29.464,42 L30.664,42 L30.664,33.456 L29.44,33.456 L29.44,36.528 C28.996,36 28.492,35.844 27.844,35.844 C27.232,35.844 26.704,36.048 26.368,36.384 C25.756,36.996 25.684,38.028 25.684,38.952 C25.684,39.876 25.756,40.92 26.368,41.532 C26.704,41.868 27.244,42.072 27.856,42.072 Z M28.18,40.98 C27.076,40.98 26.908,40.032 26.908,38.952 C26.908,37.872 27.076,36.936 28.18,36.936 C29.284,36.936 29.44,37.872 29.44,38.952 C29.44,40.032 29.284,40.98 28.18,40.98 Z M35.2925714,42.072 C36.0485714,42.072 36.4685714,41.892 36.9125714,41.448 L36.9125714,42 L38.1125714,42 L38.1125714,37.932 C38.1125714,36.552 37.2725714,35.844 35.6045714,35.844 C34.5965714,35.844 33.9965714,36.048 33.4205714,36.72 L34.2245714,37.476 C34.5605714,37.044 34.8845714,36.888 35.5565714,36.888 C36.5045714,36.888 36.8885714,37.26 36.8885714,38.028 L36.8885714,38.46 L35.2805714,38.46 C33.8885714,38.46 33.1805714,39.192 33.1805714,40.212 C33.1805714,40.728 33.3485714,41.196 33.6605714,41.52 C34.0325714,41.892 34.5365714,42.072 35.2925714,42.072 Z M35.4845714,41.052 C34.7165714,41.052 34.3685714,40.74 34.3685714,40.188 C34.3685714,39.636 34.7405714,39.312 35.4605714,39.312 L36.8885714,39.312 L36.8885714,39.804 C36.8885714,40.236 36.8045714,40.524 36.6245714,40.704 C36.3005714,41.016 35.9525714,41.052 35.4845714,41.052 Z M47.3337143,42.072 C48.1737143,42.072 48.7617143,41.82 49.3377143,41.208 L48.4977143,40.404 C48.1137143,40.824 47.8137143,40.98 47.3337143,40.98 C46.8657143,40.98 46.4697143,40.788 46.2057143,40.44 C45.9417143,40.104 45.8457143,39.66 45.8457143,38.952 C45.8457143,38.244 45.9417143,37.812 46.2057143,37.476 C46.4697143,37.128 46.8657143,36.936 47.3337143,36.936 C47.8137143,36.936 48.1137143,37.092 48.4977143,37.512 L49.3377143,36.696 C48.7617143,36.084 48.1737143,35.844 47.3337143,35.844 C45.9657143,35.844 44.6217143,36.672 44.6217143,38.952 C44.6217143,41.232 45.9657143,42.072 47.3337143,42.072 Z M54.1702857,42 L54.1702857,40.956 L53.6302857,40.956 C53.1382857,40.956 52.9702857,40.716 52.9702857,40.248 L52.9702857,33.456 L51.7462857,33.456 L51.7462857,40.32 C51.7462857,41.22 52.2502857,42 53.4142857,42 L54.1702857,42 Z M57.8028571,34.716 L57.8028571,33.42 L56.5068571,33.42 L56.5068571,34.716 L57.8028571,34.716 Z M57.7668571,42 L57.7668571,35.916 L56.5428571,35.916 L56.5428571,42 L57.7668571,42 Z M63.1394286,42.072 C63.9794286,42.072 64.5674286,41.82 65.1434286,41.208 L64.3034286,40.404 C63.9194286,40.824 63.6194286,40.98 63.1394286,40.98 C62.6714286,40.98 62.2754286,40.788 62.0114286,40.44 C61.7474286,40.104 61.6514286,39.66 61.6514286,38.952 C61.6514286,38.244 61.7474286,37.812 62.0114286,37.476 C62.2754286,37.128 62.6714286,36.936 63.1394286,36.936 C63.6194286,36.936 63.9194286,37.092 64.3034286,37.512 L65.1434286,36.696 C64.5674286,36.084 63.9794286,35.844 63.1394286,35.844 C61.7714286,35.844 60.4274286,36.672 60.4274286,38.952 C60.4274286,41.232 61.7714286,42.072 63.1394286,42.072 Z M68.812,42 L68.812,40.212 L69.712,39.192 L71.416,42 L72.928,42 L70.552,38.304 L72.664,35.916 L71.176,35.916 L68.812,38.724 L68.812,33.456 L67.588,33.456 L67.588,42 L68.812,42 Z M80.7571429,42.072 C81.5131429,42.072 81.9331429,41.892 82.3771429,41.448 L82.3771429,42 L83.5771429,42 L83.5771429,37.932 C83.5771429,36.552 82.7371429,35.844 81.0691429,35.844 C80.0611429,35.844 79.4611429,36.048 78.8851429,36.72 L79.6891429,37.476 C80.0251429,37.044 80.3491429,36.888 81.0211429,36.888 C81.9691429,36.888 82.3531429,37.26 82.3531429,38.028 L82.3531429,38.46 L80.7451429,38.46 C79.3531429,38.46 78.6451429,39.192 78.6451429,40.212 C78.6451429,40.728 78.8131429,41.196 79.1251429,41.52 C79.4971429,41.892 80.0011429,42.072 80.7571429,42.072 Z M80.9491429,41.052 C80.1811429,41.052 79.8331429,40.74 79.8331429,40.188 C79.8331429,39.636 80.2051429,39.312 80.9251429,39.312 L82.3531429,39.312 L82.3531429,39.804 C82.3531429,40.236 82.2691429,40.524 82.0891429,40.704 C81.7651429,41.016 81.4171429,41.052 80.9491429,41.052 Z M91.1817143,44.46 L91.1817143,35.916 L89.9817143,35.916 L89.9817143,36.564 C89.5257143,36.012 89.0337143,35.844 88.3737143,35.844 C87.7617143,35.844 87.2217143,36.048 86.8857143,36.384 C86.2737143,36.996 86.2017143,38.028 86.2017143,38.952 C86.2017143,39.876 86.2737143,40.92 86.8857143,41.532 C87.2217143,41.868 87.7497143,42.072 88.3617143,42.072 C89.0097143,42.072 89.5137143,41.904 89.9577143,41.376 L89.9577143,44.46 L91.1817143,44.46 Z M88.6977143,40.98 C87.5937143,40.98 87.4257143,40.032 87.4257143,38.952 C87.4257143,37.872 87.5937143,36.936 88.6977143,36.936 C89.8017143,36.936 89.9577143,37.872 89.9577143,38.952 C89.9577143,40.032 89.8017143,40.98 88.6977143,40.98 Z M96.2062857,42.072 C96.8182857,42.072 97.4062857,41.844 97.8262857,41.388 L97.8262857,42 L99.0262857,42 L99.0262857,35.916 L97.8022857,35.916 L97.8022857,39.624 C97.8022857,40.56 97.2262857,40.98 96.5422857,40.98 C95.8582857,40.98 95.3182857,40.572 95.3182857,39.624 L95.3182857,35.916 L94.0942857,35.916 L94.0942857,39.804 C94.0942857,40.488 94.2382857,41.064 94.7062857,41.52 C95.0662857,41.868 95.5822857,42.072 96.2062857,42.072 Z M103.018857,34.812 L104.350857,32.868 L102.994857,32.868 L102.094857,34.812 L103.018857,34.812 Z M103.222857,42 L103.222857,35.916 L101.998857,35.916 L101.998857,42 L103.222857,42 Z M107.899429,39.456 L108.163429,33.456 L106.675429,33.456 L106.939429,39.456 L107.899429,39.456 Z M108.091429,42 L108.091429,40.692 L106.747429,40.692 L106.747429,42 L108.091429,42 Z" id="daclickaquí!" fill="#0077C8" fill-rule="nonzero"></path>
                <g id="hacer-clic" transform="translate(179.000000, 30.000000)" fill-rule="nonzero">
                    <path d="M29.6794819,28.430285 L13.0991192,11.8499223 C12.7758031,11.5257513 12.2508808,11.5251295 11.9267098,11.8484456 C11.7708031,12.0039637 11.6831347,12.2150518 11.6831347,12.4352332 L11.6831347,35.3940155 C11.6831347,35.8518653 12.0540933,36.2231347 12.511943,36.2232124 C12.6970725,36.2232902 12.8769948,36.1613472 13.0227979,36.0472539 L17.232513,32.7560363 L20.9067358,39.3699482 C21.0538601,39.6317098 21.3310104,39.7934456 21.6313212,39.7927484 C21.7602591,39.7927484 21.8874093,39.7626684 22.0027461,39.7048446 L26.9768394,37.2177979 C27.1792228,37.1164508 27.331399,36.9367617 27.3980052,36.7203886 C27.4653109,36.5043264 27.4413731,36.2700777 27.3317098,36.0721244 L23.8697409,29.8445596 L29.0925389,29.8445596 C29.5503886,29.8454145 29.9222021,29.4748446 29.9230583,29.0169948 C29.9234456,28.7962694 29.8357772,28.5844819 29.6794819,28.4285751 L29.6794819,28.430285 Z" id="Path" fill="#CFD8DC"></path>
                    <g id="Group" fill="#0077C8">
                        <path d="M12.5121762,6.63209845 C12.0543264,6.63209845 11.6831347,6.26090674 11.6831347,5.80305699 L11.6831347,0.828963731 C11.6832124,0.37119171 12.0543264,0 12.5121762,0 C12.9700259,0 13.3412176,0.37119171 13.3412176,0.829041451 L13.3412176,5.80313472 C13.3412176,6.26098446 12.9701036,6.63209845 12.5121762,6.63209845 Z" id="Path"></path>
                        <path d="M5.88007772,13.2642746 L0.905984456,13.2642746 C0.448134715,13.2642746 0.0769430052,12.8930829 0.0769430052,12.4352332 C0.0769430052,11.9773834 0.448134715,11.6061917 0.905984456,11.6061917 L5.88007772,11.6061917 C6.33792746,11.6061917 6.70911917,11.9773834 6.70911917,12.4352332 C6.70911917,12.8930829 6.33792746,13.2642746 5.88007772,13.2642746 Z" id="Path"></path>
                        <path d="M24.1184456,13.2642746 L19.1443523,13.2642746 C18.6865026,13.2642746 18.3153109,12.8930829 18.3153109,12.4352332 C18.3153109,11.9773834 18.6865026,11.6061917 19.1443523,11.6061917 L24.1184456,11.6061917 C24.5762953,11.6061917 24.947487,11.9773834 24.947487,12.4352332 C24.9474093,12.8930829 24.5762953,13.2642746 24.1184456,13.2642746 Z" id="Path"></path>
                        <path d="M7.82331606,8.57370466 C7.60329016,8.57409326 7.39212435,8.48704663 7.23637306,8.33160622 L3.72466321,4.80831606 C3.44992228,4.44202073 3.52414508,3.92238342 3.89044041,3.64772021 C4.18523316,3.42668394 4.59046632,3.42668394 4.88525907,3.64772021 L8.40854922,7.15779793 C8.73272021,7.48111399 8.73334197,8.00603627 8.41002591,8.33020725 C8.25411917,8.48650259 8.04233161,8.57417098 7.82160622,8.57378367 L7.82331606,8.57378367 L7.82331606,8.57370466 Z" id="Path"></path>
                        <path d="M4.30492228,21.4698187 C3.84715026,21.462513 3.48194301,21.0854922 3.4892487,20.6276425 C3.49266839,20.4160104 3.57683938,20.2137047 3.72458549,20.0621503 L7.23629534,16.5371503 C7.55432642,16.2078497 8.07917098,16.1986788 8.40854922,16.5167876 C8.73784974,16.8348187 8.74702073,17.3596632 8.42891192,17.6890415 C8.42222798,17.6959585 8.41546632,17.7027202 8.40854922,17.7094041 L4.88525907,21.2227461 C4.7319171,21.3784197 4.52339378,21.4671762 4.30492228,21.4698187 Z" id="Path"></path>
                        <path d="M17.201114,8.57370614 C16.7432642,8.57455959 16.3714508,8.20398964 16.3705946,7.7461399 C16.3702073,7.52541451 16.4578756,7.31362694 16.614171,7.15772021 L20.139171,3.64764249 C20.5054663,3.37290155 21.0251036,3.44720207 21.2997668,3.81341969 C21.5208031,4.10821244 21.5208031,4.5134456 21.2997668,4.80823834 L17.788057,8.32989637 C17.6325389,8.48595855 17.4213731,8.57362694 17.201114,8.57370614 Z" id="Path"></path>
                    </g>
                </g>
            </g>
        </g>
    </g>
</svg>