<?xml version="1.0" encoding="UTF-8"?>
<svg width="250px" height="95px" viewBox="0 0 250 95" version="1.1" xmlns="http://www.w3.org/2000/svg" xmlns:xlink="http://www.w3.org/1999/xlink">
    <title>globo</title>
    <defs>
        <path d="M3,0 L217,0 C218.656854,-3.04359188e-16 220,1.34314575 220,3 L220,57 C220,58.6568542 218.656854,60 217,60 L20.699877,60 L20.699877,60 L11.5910666,65 L10.340627,60 L3,60 C1.34314575,60 1.09108455e-15,58.6568542 0,57 L0,3 C-2.02906125e-16,1.34314575 1.34314575,3.04359188e-16 3,0 Z" id="path-1"></path>
        <filter x="-10.7%" y="-33.1%" width="121.4%" height="172.3%" filterUnits="objectBoundingBox" id="filter-2">
            <feOffset dx="0" dy="2" in="SourceAlpha" result="shadowOffsetOuter1"></feOffset>
            <feGaussianBlur stdDeviation="7.5" in="shadowOffsetOuter1" result="shadowBlurOuter1"></feGaussianBlur>
            <feColorMatrix values="0 0 0 0 0   0 0 0 0 0   0 0 0 0 0  0 0 0 0.2 0" type="matrix" in="shadowBlurOuter1"></feColorMatrix>
        </filter>
    </defs>
    <g id="Homepage" stroke="none" stroke-width="1" fill="none" fill-rule="evenodd">
        <g id="Home-page-1920" transform="translate(-1351.000000, -583.000000)">
            <g id="globo" transform="translate(1366.000000, 596.000000)">
                <g id="Rectangle">
                    <use fill="black" fill-opacity="1" filter="url(#filter-2)" xlink:href="#path-1"></use>
                    <use fill="#F5F8FF" fill-rule="evenodd" xlink:href="#path-1"></use>
                </g>
                <path d="M28.618,28 L28.618,22.6 L31.048,22.6 L33.748,28 L36.016,28 L33.064,22.33 C34.504,21.934 35.62,20.764 35.62,18.928 C35.62,16.75 34.072,15.184 31.642,15.184 L26.674,15.184 L26.674,28 L28.618,28 Z M31.498,20.944 L28.618,20.944 L28.618,16.93 L31.498,16.93 C32.794,16.93 33.676,17.686 33.676,18.946 C33.676,20.206 32.794,20.944 31.498,20.944 Z M41.884,28.108 C43.486,28.108 44.368,27.622 45.304,26.686 L44.134,25.588 C43.486,26.236 42.946,26.524 41.92,26.524 C40.426,26.524 39.598,25.534 39.598,23.968 L45.52,23.968 L45.52,23.158 C45.52,20.566 44.098,18.766 41.65,18.766 C39.31,18.766 37.78,20.476 37.78,23.428 C37.78,26.902 39.598,28.108 41.884,28.108 Z M43.702,22.69 L39.598,22.69 C39.616,22.132 39.652,21.862 39.832,21.448 C40.12,20.764 40.786,20.296 41.65,20.296 C42.514,20.296 43.162,20.764 43.45,21.448 C43.63,21.862 43.684,22.132 43.702,22.69 Z M50.902,28.108 C53.08,28.108 54.7,27.118 54.7,25.21 C54.7,23.59 53.692,22.78 51.982,22.636 L50.542,22.51 C49.57,22.42 49.282,22.006 49.282,21.466 C49.282,20.782 49.84,20.296 50.938,20.296 C51.802,20.296 52.612,20.476 53.188,20.962 L54.34,19.792 C53.494,19.054 52.324,18.766 50.956,18.766 C49.048,18.766 47.518,19.774 47.518,21.556 C47.518,23.158 48.508,23.932 50.218,24.076 L51.676,24.202 C52.558,24.274 52.9,24.67 52.9,25.282 C52.9,26.146 52.018,26.542 50.902,26.542 C50.002,26.542 49.012,26.344 48.274,25.588 L47.068,26.794 C48.148,27.856 49.408,28.108 50.902,28.108 Z M60.01,28.108 C60.928,28.108 61.81,27.766 62.44,27.082 L62.44,28 L64.24,28 L64.24,18.874 L62.404,18.874 L62.404,24.436 C62.404,25.84 61.54,26.47 60.514,26.47 C59.488,26.47 58.678,25.858 58.678,24.436 L58.678,18.874 L56.842,18.874 L56.842,24.706 C56.842,25.732 57.058,26.596 57.76,27.28 C58.3,27.802 59.074,28.108 60.01,28.108 Z M70.792,28.108 C72.394,28.108 73.276,27.622 74.212,26.686 L73.042,25.588 C72.394,26.236 71.854,26.524 70.828,26.524 C69.334,26.524 68.506,25.534 68.506,23.968 L74.428,23.968 L74.428,23.158 C74.428,20.566 73.006,18.766 70.558,18.766 C68.218,18.766 66.688,20.476 66.688,23.428 C66.688,26.902 68.506,28.108 70.792,28.108 Z M72.61,22.69 L68.506,22.69 C68.524,22.132 68.56,21.862 68.74,21.448 C69.028,20.764 69.694,20.296 70.558,20.296 C71.422,20.296 72.07,20.764 72.358,21.448 C72.538,21.862 72.592,22.132 72.61,22.69 Z M80.44,28 L80.44,26.434 L79.63,26.434 C78.892,26.434 78.64,26.074 78.64,25.372 L78.64,15.184 L76.804,15.184 L76.804,25.48 C76.804,26.83 77.56,28 79.306,28 L80.44,28 Z M85.984,28 L89.332,18.874 L87.388,18.874 L85.246,25.3 L83.086,18.874 L81.142,18.874 L84.49,28 L85.984,28 Z M94.57,28.108 C96.172,28.108 97.054,27.622 97.99,26.686 L96.82,25.588 C96.172,26.236 95.632,26.524 94.606,26.524 C93.112,26.524 92.284,25.534 92.284,23.968 L98.206,23.968 L98.206,23.158 C98.206,20.566 96.784,18.766 94.336,18.766 C91.996,18.766 90.466,20.476 90.466,23.428 C90.466,26.902 92.284,28.108 94.57,28.108 Z M96.388,22.69 L92.284,22.69 C92.302,22.132 92.338,21.862 92.518,21.448 C92.806,20.764 93.472,20.296 94.336,20.296 C95.2,20.296 95.848,20.764 96.136,21.448 C96.316,21.862 96.37,22.132 96.388,22.69 Z M108.772,28 L108.772,26.434 L108.016,26.434 C107.332,26.434 107.008,26.038 107.008,25.372 L107.008,20.44 L108.772,20.44 L108.772,19.036 L107.008,19.036 L107.008,16.264 L105.172,16.264 L105.172,19.036 L104.128,19.036 L104.128,20.44 L105.172,20.44 L105.172,25.462 C105.172,26.776 105.964,28 107.674,28 L108.772,28 Z M114.19,28.108 C115.108,28.108 115.99,27.766 116.62,27.082 L116.62,28 L118.42,28 L118.42,18.874 L116.584,18.874 L116.584,24.436 C116.584,25.84 115.72,26.47 114.694,26.47 C113.668,26.47 112.858,25.858 112.858,24.436 L112.858,18.874 L111.022,18.874 L111.022,24.706 C111.022,25.732 111.238,26.596 111.94,27.28 C112.48,27.802 113.254,28.108 114.19,28.108 Z M124.288,28.108 C126.466,28.108 128.086,27.118 128.086,25.21 C128.086,23.59 127.078,22.78 125.368,22.636 L123.928,22.51 C122.956,22.42 122.668,22.006 122.668,21.466 C122.668,20.782 123.226,20.296 124.324,20.296 C125.188,20.296 125.998,20.476 126.574,20.962 L127.726,19.792 C126.88,19.054 125.71,18.766 124.342,18.766 C122.434,18.766 120.904,19.774 120.904,21.556 C120.904,23.158 121.894,23.932 123.604,24.076 L125.062,24.202 C125.944,24.274 126.286,24.67 126.286,25.282 C126.286,26.146 125.404,26.542 124.288,26.542 C123.388,26.542 122.398,26.344 121.66,25.588 L120.454,26.794 C121.534,27.856 122.794,28.108 124.288,28.108 Z M137.464,28.108 C138.454,28.108 139.192,27.856 139.876,27.028 L139.876,28 L141.676,28 L141.676,15.184 L139.84,15.184 L139.84,19.792 C139.174,19 138.418,18.766 137.446,18.766 C136.528,18.766 135.736,19.072 135.232,19.576 C134.314,20.494 134.206,22.042 134.206,23.428 C134.206,24.814 134.314,26.38 135.232,27.298 C135.736,27.802 136.546,28.108 137.464,28.108 Z M137.95,26.47 C136.294,26.47 136.042,25.048 136.042,23.428 C136.042,21.808 136.294,20.404 137.95,20.404 C139.606,20.404 139.84,21.808 139.84,23.428 C139.84,25.048 139.606,26.47 137.95,26.47 Z M147.67,28.108 C148.588,28.108 149.47,27.766 150.1,27.082 L150.1,28 L151.9,28 L151.9,18.874 L150.064,18.874 L150.064,24.436 C150.064,25.84 149.2,26.47 148.174,26.47 C147.148,26.47 146.338,25.858 146.338,24.436 L146.338,18.874 L144.502,18.874 L144.502,24.706 C144.502,25.732 144.718,26.596 145.42,27.28 C145.96,27.802 146.734,28.108 147.67,28.108 Z M157.642,28.108 C158.632,28.108 159.37,27.856 160.054,27.028 L160.054,28 L161.854,28 L161.854,15.184 L160.018,15.184 L160.018,19.792 C159.352,19 158.596,18.766 157.624,18.766 C156.706,18.766 155.914,19.072 155.41,19.576 C154.492,20.494 154.384,22.042 154.384,23.428 C154.384,24.814 154.492,26.38 155.41,27.298 C155.914,27.802 156.724,28.108 157.642,28.108 Z M158.128,26.47 C156.472,26.47 156.22,25.048 156.22,23.428 C156.22,21.808 156.472,20.404 158.128,20.404 C159.784,20.404 160.018,21.808 160.018,23.428 C160.018,25.048 159.784,26.47 158.128,26.47 Z M167.254,28.108 C168.388,28.108 169.018,27.838 169.684,27.172 L169.684,28 L171.484,28 L171.484,21.898 C171.484,19.828 170.224,18.766 167.722,18.766 C166.21,18.766 165.31,19.072 164.446,20.08 L165.652,21.214 C166.156,20.566 166.642,20.332 167.65,20.332 C169.072,20.332 169.648,20.89 169.648,22.042 L169.648,22.69 L167.236,22.69 C165.148,22.69 164.086,23.788 164.086,25.318 C164.086,26.092 164.338,26.794 164.806,27.28 C165.364,27.838 166.12,28.108 167.254,28.108 Z M167.542,26.578 C166.39,26.578 165.868,26.11 165.868,25.282 C165.868,24.454 166.426,23.968 167.506,23.968 L169.648,23.968 L169.648,24.706 C169.648,25.354 169.522,25.786 169.252,26.056 C168.766,26.524 168.244,26.578 167.542,26.578 Z M177.262,28.108 C179.44,28.108 181.06,27.118 181.06,25.21 C181.06,23.59 180.052,22.78 178.342,22.636 L176.902,22.51 C175.93,22.42 175.642,22.006 175.642,21.466 C175.642,20.782 176.2,20.296 177.298,20.296 C178.162,20.296 178.972,20.476 179.548,20.962 L180.7,19.792 C179.854,19.054 178.684,18.766 177.316,18.766 C175.408,18.766 173.878,19.774 173.878,21.556 C173.878,23.158 174.868,23.932 176.578,24.076 L178.036,24.202 C178.918,24.274 179.26,24.67 179.26,25.282 C179.26,26.146 178.378,26.542 177.262,26.542 C176.362,26.542 175.372,26.344 174.634,25.588 L173.428,26.794 C174.508,27.856 175.768,28.108 177.262,28.108 Z" id="Resuelvetusdudas" fill="#0077C8" fill-rule="nonzero"></path>
                <path d="M27.196,44.46 L27.196,41.376 C27.64,41.904 28.144,42.072 28.792,42.072 C29.404,42.072 29.932,41.868 30.268,41.532 C30.88,40.92 30.952,39.876 30.952,38.952 C30.952,38.028 30.88,36.996 30.268,36.384 C29.932,36.048 29.392,35.844 28.78,35.844 C28.12,35.844 27.628,36.012 27.172,36.564 L27.172,35.916 L25.972,35.916 L25.972,44.46 L27.196,44.46 Z M28.468,40.98 C27.364,40.98 27.196,40.032 27.196,38.952 C27.196,37.872 27.364,36.936 28.468,36.936 C29.572,36.936 29.728,37.872 29.728,38.952 C29.728,40.032 29.572,40.98 28.468,40.98 Z M34.8605714,42 L34.8605714,38.304 C34.8605714,37.464 35.4125714,36.936 36.0725714,36.936 C36.4925714,36.936 36.7085714,37.068 36.9845714,37.344 L37.9085714,36.42 C37.4885714,36 37.0445714,35.844 36.4565714,35.844 C35.7725714,35.844 35.1485714,36.144 34.8365714,36.576 L34.8365714,35.916 L33.6365714,35.916 L33.6365714,42 L34.8605714,42 Z M41.9851429,42.072 C43.0531429,42.072 43.6411429,41.748 44.2651429,41.124 L43.4851429,40.392 C43.0531429,40.824 42.6931429,41.016 42.0091429,41.016 C41.0131429,41.016 40.4611429,40.356 40.4611429,39.312 L44.4091429,39.312 L44.4091429,38.772 C44.4091429,37.044 43.4611429,35.844 41.8291429,35.844 C40.2691429,35.844 39.2491429,36.984 39.2491429,38.952 C39.2491429,41.268 40.4611429,42.072 41.9851429,42.072 Z M43.1971429,38.46 L40.4611429,38.46 C40.4731429,38.088 40.4971429,37.908 40.6171429,37.632 C40.8091429,37.176 41.2531429,36.864 41.8291429,36.864 C42.4051429,36.864 42.8371429,37.176 43.0291429,37.632 C43.1491429,37.908 43.1851429,38.088 43.1971429,38.46 Z M48.7137143,42.072 C49.4697143,42.072 49.8897143,41.892 50.3337143,41.448 L50.3337143,42 L51.5337143,42 L51.5337143,37.932 C51.5337143,36.552 50.6937143,35.844 49.0257143,35.844 C48.0177143,35.844 47.4177143,36.048 46.8417143,36.72 L47.6457143,37.476 C47.9817143,37.044 48.3057143,36.888 48.9777143,36.888 C49.9257143,36.888 50.3097143,37.26 50.3097143,38.028 L50.3097143,38.46 L48.7017143,38.46 C47.3097143,38.46 46.6017143,39.192 46.6017143,40.212 C46.6017143,40.728 46.7697143,41.196 47.0817143,41.52 C47.4537143,41.892 47.9577143,42.072 48.7137143,42.072 Z M48.9057143,41.052 C48.1377143,41.052 47.7897143,40.74 47.7897143,40.188 C47.7897143,39.636 48.1617143,39.312 48.8817143,39.312 L50.3097143,39.312 L50.3097143,39.804 C50.3097143,40.236 50.2257143,40.524 50.0457143,40.704 C49.7217143,41.016 49.3737143,41.052 48.9057143,41.052 Z M56.4862857,44.532 C58.1062857,44.532 59.0902857,43.452 59.0902857,41.964 L59.0902857,35.916 L57.9022857,35.916 L57.9022857,36.564 C57.4462857,36.012 56.9542857,35.844 56.3062857,35.844 C55.6942857,35.844 55.1782857,36.036 54.8422857,36.372 C54.2542857,36.96 54.1582857,37.812 54.1582857,38.844 C54.1582857,39.876 54.2542857,40.728 54.8422857,41.316 C55.1782857,41.652 55.6822857,41.856 56.2942857,41.856 C56.9182857,41.856 57.4222857,41.688 57.8662857,41.16 L57.8662857,41.94 C57.8662857,42.756 57.4702857,43.488 56.4382857,43.488 C55.8382857,43.488 55.5022857,43.308 55.1182857,42.948 L54.3382857,43.728 C54.9742857,44.316 55.5622857,44.532 56.4862857,44.532 Z M56.6302857,40.752 C55.5262857,40.752 55.3822857,39.804 55.3822857,38.844 C55.3822857,37.884 55.5262857,36.936 56.6302857,36.936 C57.7342857,36.936 57.8662857,37.884 57.8662857,38.844 C57.8662857,39.804 57.7342857,40.752 56.6302857,40.752 Z M64.4868571,42.072 C65.5548571,42.072 66.1428571,41.748 66.7668571,41.124 L65.9868571,40.392 C65.5548571,40.824 65.1948571,41.016 64.5108571,41.016 C63.5148571,41.016 62.9628571,40.356 62.9628571,39.312 L66.9108571,39.312 L66.9108571,38.772 C66.9108571,37.044 65.9628571,35.844 64.3308571,35.844 C62.7708571,35.844 61.7508571,36.984 61.7508571,38.952 C61.7508571,41.268 62.9628571,42.072 64.4868571,42.072 Z M65.6988571,38.46 L62.9628571,38.46 C62.9748571,38.088 62.9988571,37.908 63.1188571,37.632 C63.3108571,37.176 63.7548571,36.864 64.3308571,36.864 C64.9068571,36.864 65.3388571,37.176 65.5308571,37.632 C65.6508571,37.908 65.6868571,38.088 65.6988571,38.46 Z M70.7834286,42 L70.7834286,38.292 C70.7834286,37.356 71.3594286,36.936 72.0434286,36.936 C72.7274286,36.936 73.2674286,37.344 73.2674286,38.292 L73.2674286,42 L74.4914286,42 L74.4914286,38.112 C74.4914286,37.428 74.3474286,36.852 73.8794286,36.396 C73.5194286,36.048 73.0034286,35.844 72.3794286,35.844 C71.7674286,35.844 71.1794286,36.072 70.7594286,36.528 L70.7594286,35.916 L69.5594286,35.916 L69.5594286,42 L70.7834286,42 Z M79.288,42.072 C79.948,42.072 80.44,41.904 80.896,41.352 L80.896,42 L82.096,42 L82.096,33.456 L80.872,33.456 L80.872,36.528 C80.428,36 79.924,35.844 79.276,35.844 C78.664,35.844 78.136,36.048 77.8,36.384 C77.188,36.996 77.116,38.028 77.116,38.952 C77.116,39.876 77.188,40.92 77.8,41.532 C78.136,41.868 78.676,42.072 79.288,42.072 Z M79.612,40.98 C78.508,40.98 78.34,40.032 78.34,38.952 C78.34,37.872 78.508,36.936 79.612,36.936 C80.716,36.936 80.872,37.872 80.872,38.952 C80.872,40.032 80.716,40.98 79.612,40.98 Z M86.7245714,42.072 C87.4805714,42.072 87.9005714,41.892 88.3445714,41.448 L88.3445714,42 L89.5445714,42 L89.5445714,37.932 C89.5445714,36.552 88.7045714,35.844 87.0365714,35.844 C86.0285714,35.844 85.4285714,36.048 84.8525714,36.72 L85.6565714,37.476 C85.9925714,37.044 86.3165714,36.888 86.9885714,36.888 C87.9365714,36.888 88.3205714,37.26 88.3205714,38.028 L88.3205714,38.46 L86.7125714,38.46 C85.3205714,38.46 84.6125714,39.192 84.6125714,40.212 C84.6125714,40.728 84.7805714,41.196 85.0925714,41.52 C85.4645714,41.892 85.9685714,42.072 86.7245714,42.072 Z M86.9165714,41.052 C86.1485714,41.052 85.8005714,40.74 85.8005714,40.188 C85.8005714,39.636 86.1725714,39.312 86.8925714,39.312 L88.3205714,39.312 L88.3205714,39.804 C88.3205714,40.236 88.2365714,40.524 88.0565714,40.704 C87.7325714,41.016 87.3845714,41.052 86.9165714,41.052 Z M98.4177143,42.072 C99.0297143,42.072 99.6177143,41.844 100.037714,41.388 L100.037714,42 L101.237714,42 L101.237714,35.916 L100.013714,35.916 L100.013714,39.624 C100.013714,40.56 99.4377143,40.98 98.7537143,40.98 C98.0697143,40.98 97.5297143,40.572 97.5297143,39.624 L97.5297143,35.916 L96.3057143,35.916 L96.3057143,39.804 C96.3057143,40.488 96.4497143,41.064 96.9177143,41.52 C97.2777143,41.868 97.7937143,42.072 98.4177143,42.072 Z M105.434286,42 L105.434286,38.292 C105.434286,37.356 106.010286,36.936 106.694286,36.936 C107.378286,36.936 107.918286,37.344 107.918286,38.292 L107.918286,42 L109.142286,42 L109.142286,38.112 C109.142286,37.428 108.998286,36.852 108.530286,36.396 C108.170286,36.048 107.654286,35.844 107.030286,35.844 C106.418286,35.844 105.830286,36.072 105.410286,36.528 L105.410286,35.916 L104.210286,35.916 L104.210286,42 L105.434286,42 Z M113.710857,42.072 C114.466857,42.072 114.886857,41.892 115.330857,41.448 L115.330857,42 L116.530857,42 L116.530857,37.932 C116.530857,36.552 115.690857,35.844 114.022857,35.844 C113.014857,35.844 112.414857,36.048 111.838857,36.72 L112.642857,37.476 C112.978857,37.044 113.302857,36.888 113.974857,36.888 C114.922857,36.888 115.306857,37.26 115.306857,38.028 L115.306857,38.46 L113.698857,38.46 C112.306857,38.46 111.598857,39.192 111.598857,40.212 C111.598857,40.728 111.766857,41.196 112.078857,41.52 C112.450857,41.892 112.954857,42.072 113.710857,42.072 Z M113.902857,41.052 C113.134857,41.052 112.786857,40.74 112.786857,40.188 C112.786857,39.636 113.158857,39.312 113.878857,39.312 L115.306857,39.312 L115.306857,39.804 C115.306857,40.236 115.222857,40.524 115.042857,40.704 C114.718857,41.016 114.370857,41.052 113.902857,41.052 Z M125.752,42.072 C126.592,42.072 127.18,41.82 127.756,41.208 L126.916,40.404 C126.532,40.824 126.232,40.98 125.752,40.98 C125.284,40.98 124.888,40.788 124.624,40.44 C124.36,40.104 124.264,39.66 124.264,38.952 C124.264,38.244 124.36,37.812 124.624,37.476 C124.888,37.128 125.284,36.936 125.752,36.936 C126.232,36.936 126.532,37.092 126.916,37.512 L127.756,36.696 C127.18,36.084 126.592,35.844 125.752,35.844 C124.384,35.844 123.04,36.672 123.04,38.952 C123.04,41.232 124.384,42.072 125.752,42.072 Z M131.460571,34.716 L131.460571,33.42 L130.164571,33.42 L130.164571,34.716 L131.460571,34.716 Z M131.424571,42 L131.424571,35.916 L130.200571,35.916 L130.200571,42 L131.424571,42 Z M136.941143,42 L136.941143,40.956 L136.437143,40.956 C135.981143,40.956 135.765143,40.692 135.765143,40.248 L135.765143,36.96 L136.941143,36.96 L136.941143,36.024 L135.765143,36.024 L135.765143,34.176 L134.541143,34.176 L134.541143,36.024 L133.845143,36.024 L133.845143,36.96 L134.541143,36.96 L134.541143,40.308 C134.541143,41.184 135.069143,42 136.209143,42 L136.941143,42 Z M141.149714,42.072 C141.905714,42.072 142.325714,41.892 142.769714,41.448 L142.769714,42 L143.969714,42 L143.969714,37.932 C143.969714,36.552 143.129714,35.844 141.461714,35.844 C140.453714,35.844 139.853714,36.048 139.277714,36.72 L140.081714,37.476 C140.417714,37.044 140.741714,36.888 141.413714,36.888 C142.361714,36.888 142.745714,37.26 142.745714,38.028 L142.745714,38.46 L141.137714,38.46 C139.745714,38.46 139.037714,39.192 139.037714,40.212 C139.037714,40.728 139.205714,41.196 139.517714,41.52 C139.889714,41.892 140.393714,42.072 141.149714,42.072 Z M141.341714,41.052 C140.573714,41.052 140.225714,40.74 140.225714,40.188 C140.225714,39.636 140.597714,39.312 141.317714,39.312 L142.745714,39.312 L142.745714,39.804 C142.745714,40.236 142.661714,40.524 142.481714,40.704 C142.157714,41.016 141.809714,41.052 141.341714,41.052 Z M148.586286,39.456 L148.850286,33.456 L147.362286,33.456 L147.626286,39.456 L148.586286,39.456 Z M148.778286,42 L148.778286,40.692 L147.434286,40.692 L147.434286,42 L148.778286,42 Z" id="preagendaunacita!" fill="#0077C8" fill-rule="nonzero"></path>
                <g id="hacer-clic" transform="translate(179.000000, 30.000000)" fill-rule="nonzero">
                    <path d="M29.6794819,28.430285 L13.0991192,11.8499223 C12.7758031,11.5257513 12.2508808,11.5251295 11.9267098,11.8484456 C11.7708031,12.0039637 11.6831347,12.2150518 11.6831347,12.4352332 L11.6831347,35.3940155 C11.6831347,35.8518653 12.0540933,36.2231347 12.511943,36.2232124 C12.6970725,36.2232902 12.8769948,36.1613472 13.0227979,36.0472539 L17.232513,32.7560363 L20.9067358,39.3699482 C21.0538601,39.6317098 21.3310104,39.7934456 21.6313212,39.7927484 C21.7602591,39.7927484 21.8874093,39.7626684 22.0027461,39.7048446 L26.9768394,37.2177979 C27.1792228,37.1164508 27.331399,36.9367617 27.3980052,36.7203886 C27.4653109,36.5043264 27.4413731,36.2700777 27.3317098,36.0721244 L23.8697409,29.8445596 L29.0925389,29.8445596 C29.5503886,29.8454145 29.9222021,29.4748446 29.9230583,29.0169948 C29.9234456,28.7962694 29.8357772,28.5844819 29.6794819,28.4285751 L29.6794819,28.430285 Z" id="Path" fill="#CFD8DC"></path>
                    <g id="Group" fill="#0077C8">
                        <path d="M12.5121762,6.63209845 C12.0543264,6.63209845 11.6831347,6.26090674 11.6831347,5.80305699 L11.6831347,0.828963731 C11.6832124,0.37119171 12.0543264,0 12.5121762,0 C12.9700259,0 13.3412176,0.37119171 13.3412176,0.829041451 L13.3412176,5.80313472 C13.3412176,6.26098446 12.9701036,6.63209845 12.5121762,6.63209845 Z" id="Path"></path>
                        <path d="M5.88007772,13.2642746 L0.905984456,13.2642746 C0.448134715,13.2642746 0.0769430052,12.8930829 0.0769430052,12.4352332 C0.0769430052,11.9773834 0.448134715,11.6061917 0.905984456,11.6061917 L5.88007772,11.6061917 C6.33792746,11.6061917 6.70911917,11.9773834 6.70911917,12.4352332 C6.70911917,12.8930829 6.33792746,13.2642746 5.88007772,13.2642746 Z" id="Path"></path>
                        <path d="M24.1184456,13.2642746 L19.1443523,13.2642746 C18.6865026,13.2642746 18.3153109,12.8930829 18.3153109,12.4352332 C18.3153109,11.9773834 18.6865026,11.6061917 19.1443523,11.6061917 L24.1184456,11.6061917 C24.5762953,11.6061917 24.947487,11.9773834 24.947487,12.4352332 C24.9474093,12.8930829 24.5762953,13.2642746 24.1184456,13.2642746 Z" id="Path"></path>
                        <path d="M7.82331606,8.57370466 C7.60329016,8.57409326 7.39212435,8.48704663 7.23637306,8.33160622 L3.72466321,4.80831606 C3.44992228,4.44202073 3.52414508,3.92238342 3.89044041,3.64772021 C4.18523316,3.42668394 4.59046632,3.42668394 4.88525907,3.64772021 L8.40854922,7.15779793 C8.73272021,7.48111399 8.73334197,8.00603627 8.41002591,8.33020725 C8.25411917,8.48650259 8.04233161,8.57417098 7.82160622,8.57378367 L7.82331606,8.57378367 L7.82331606,8.57370466 Z" id="Path"></path>
                        <path d="M4.30492228,21.4698187 C3.84715026,21.462513 3.48194301,21.0854922 3.4892487,20.6276425 C3.49266839,20.4160104 3.57683938,20.2137047 3.72458549,20.0621503 L7.23629534,16.5371503 C7.55432642,16.2078497 8.07917098,16.1986788 8.40854922,16.5167876 C8.73784974,16.8348187 8.74702073,17.3596632 8.42891192,17.6890415 C8.42222798,17.6959585 8.41546632,17.7027202 8.40854922,17.7094041 L4.88525907,21.2227461 C4.7319171,21.3784197 4.52339378,21.4671762 4.30492228,21.4698187 Z" id="Path"></path>
                        <path d="M17.201114,8.57370614 C16.7432642,8.57455959 16.3714508,8.20398964 16.3705946,7.7461399 C16.3702073,7.52541451 16.4578756,7.31362694 16.614171,7.15772021 L20.139171,3.64764249 C20.5054663,3.37290155 21.0251036,3.44720207 21.2997668,3.81341969 C21.5208031,4.10821244 21.5208031,4.5134456 21.2997668,4.80823834 L17.788057,8.32989637 C17.6325389,8.48595855 17.4213731,8.57362694 17.201114,8.57370614 Z" id="Path"></path>
                    </g>
                </g>
            </g>
        </g>
    </g>
</svg>