<?xml version="1.0" encoding="UTF-8"?>
<svg width="250px" height="95px" viewBox="0 0 250 95" version="1.1" xmlns="http://www.w3.org/2000/svg" xmlns:xlink="http://www.w3.org/1999/xlink">
    <title>globo</title>
    <defs>
        <path d="M3,0 L217,0 C218.656854,-3.04359188e-16 220,1.34314575 220,3 L220,57 C220,58.6568542 218.656854,60 217,60 L20.699877,60 L20.699877,60 L11.5910666,65 L10.340627,60 L3,60 C1.34314575,60 1.09108455e-15,58.6568542 0,57 L0,3 C-2.02906125e-16,1.34314575 1.34314575,3.04359188e-16 3,0 Z" id="path-1"></path>
        <filter x="-10.7%" y="-33.1%" width="121.4%" height="172.3%" filterUnits="objectBoundingBox" id="filter-2">
            <feOffset dx="0" dy="2" in="SourceAlpha" result="shadowOffsetOuter1"></feOffset>
            <feGaussianBlur stdDeviation="7.5" in="shadowOffsetOuter1" result="shadowBlurOuter1"></feGaussianBlur>
            <feColorMatrix values="0 0 0 0 0   0 0 0 0 0   0 0 0 0 0  0 0 0 0.2 0" type="matrix" in="shadowBlurOuter1"></feColorMatrix>
        </filter>
    </defs>
    <g id="Homepage" stroke="none" stroke-width="1" fill="none" fill-rule="evenodd">
        <g id="Home-page-1366" transform="translate(-1074.000000, -583.000000)">
            <g id="globo" transform="translate(1089.000000, 596.000000)">
                <g id="Rectangle">
                    <use fill="black" fill-opacity="1" filter="url(#filter-2)" xlink:href="#path-1"></use>
                    <use fill="#F5F8FF" fill-rule="evenodd" xlink:href="#path-1"></use>
                </g>
                <text id="Resuelve-tus-dudas" font-family="Helvetica" font-size="18" font-weight="normal" fill="#0077C8">
                    <tspan x="25" y="27">Resuelve tus dudas</tspan>
                </text>
                <text id="preagenda-una-cita!" font-family="Helvetica" font-size="12" font-weight="normal" letter-spacing="1.02857143" fill="#0077C8">
                    <tspan x="25" y="41">preagenda una cita!</tspan>
                </text>
                <g id="hacer-clic" transform="translate(179.000000, 30.000000)" fill-rule="nonzero">
                    <path d="M29.6794819,28.430285 L13.0991192,11.8499223 C12.7758031,11.5257513 12.2508808,11.5251295 11.9267098,11.8484456 C11.7708031,12.0039637 11.6831347,12.2150518 11.6831347,12.4352332 L11.6831347,35.3940155 C11.6831347,35.8518653 12.0540933,36.2231347 12.511943,36.2232124 C12.6970725,36.2232902 12.8769948,36.1613472 13.0227979,36.0472539 L17.232513,32.7560363 L20.9067358,39.3699482 C21.0538601,39.6317098 21.3310104,39.7934456 21.6313212,39.7927484 C21.7602591,39.7927484 21.8874093,39.7626684 22.0027461,39.7048446 L26.9768394,37.2177979 C27.1792228,37.1164508 27.331399,36.9367617 27.3980052,36.7203886 C27.4653109,36.5043264 27.4413731,36.2700777 27.3317098,36.0721244 L23.8697409,29.8445596 L29.0925389,29.8445596 C29.5503886,29.8454145 29.9222021,29.4748446 29.9230583,29.0169948 C29.9234456,28.7962694 29.8357772,28.5844819 29.6794819,28.4285751 L29.6794819,28.430285 Z" id="Path" fill="#CFD8DC"></path>
                    <g id="Group" fill="#0077C8">
                        <path d="M12.5121762,6.63209845 C12.0543264,6.63209845 11.6831347,6.26090674 11.6831347,5.80305699 L11.6831347,0.828963731 C11.6832124,0.37119171 12.0543264,0 12.5121762,0 C12.9700259,0 13.3412176,0.37119171 13.3412176,0.829041451 L13.3412176,5.80313472 C13.3412176,6.26098446 12.9701036,6.63209845 12.5121762,6.63209845 Z" id="Path"></path>
                        <path d="M5.88007772,13.2642746 L0.905984456,13.2642746 C0.448134715,13.2642746 0.0769430052,12.8930829 0.0769430052,12.4352332 C0.0769430052,11.9773834 0.448134715,11.6061917 0.905984456,11.6061917 L5.88007772,11.6061917 C6.33792746,11.6061917 6.70911917,11.9773834 6.70911917,12.4352332 C6.70911917,12.8930829 6.33792746,13.2642746 5.88007772,13.2642746 Z" id="Path"></path>
                        <path d="M24.1184456,13.2642746 L19.1443523,13.2642746 C18.6865026,13.2642746 18.3153109,12.8930829 18.3153109,12.4352332 C18.3153109,11.9773834 18.6865026,11.6061917 19.1443523,11.6061917 L24.1184456,11.6061917 C24.5762953,11.6061917 24.947487,11.9773834 24.947487,12.4352332 C24.9474093,12.8930829 24.5762953,13.2642746 24.1184456,13.2642746 Z" id="Path"></path>
                        <path d="M7.82331606,8.57370466 C7.60329016,8.57409326 7.39212435,8.48704663 7.23637306,8.33160622 L3.72466321,4.80831606 C3.44992228,4.44202073 3.52414508,3.92238342 3.89044041,3.64772021 C4.18523316,3.42668394 4.59046632,3.42668394 4.88525907,3.64772021 L8.40854922,7.15779793 C8.73272021,7.48111399 8.73334197,8.00603627 8.41002591,8.33020725 C8.25411917,8.48650259 8.04233161,8.57417098 7.82160622,8.57378367 L7.82331606,8.57378367 L7.82331606,8.57370466 Z" id="Path"></path>
                        <path d="M4.30492228,21.4698187 C3.84715026,21.462513 3.48194301,21.0854922 3.4892487,20.6276425 C3.49266839,20.4160104 3.57683938,20.2137047 3.72458549,20.0621503 L7.23629534,16.5371503 C7.55432642,16.2078497 8.07917098,16.1986788 8.40854922,16.5167876 C8.73784974,16.8348187 8.74702073,17.3596632 8.42891192,17.6890415 C8.42222798,17.6959585 8.41546632,17.7027202 8.40854922,17.7094041 L4.88525907,21.2227461 C4.7319171,21.3784197 4.52339378,21.4671762 4.30492228,21.4698187 Z" id="Path"></path>
                        <path d="M17.201114,8.57370614 C16.7432642,8.57455959 16.3714508,8.20398964 16.3705946,7.7461399 C16.3702073,7.52541451 16.4578756,7.31362694 16.614171,7.15772021 L20.139171,3.64764249 C20.5054663,3.37290155 21.0251036,3.44720207 21.2997668,3.81341969 C21.5208031,4.10821244 21.5208031,4.5134456 21.2997668,4.80823834 L17.788057,8.32989637 C17.6325389,8.48595855 17.4213731,8.57362694 17.201114,8.57370614 Z" id="Path"></path>
                    </g>
                </g>
            </g>
        </g>
    </g>
</svg>