<?xml version="1.0" encoding="UTF-8"?>
<svg width="240px" height="85px" viewBox="0 0 240 85" version="1.1" xmlns="http://www.w3.org/2000/svg" xmlns:xlink="http://www.w3.org/1999/xlink">
    <title>Group 18 Copy</title>
    <defs>
        <path d="M4,0 L216,0 C218.209139,-4.05812251e-16 220,1.790861 220,4 L220,56 C220,58.209139 218.209139,60 216,60 L20.1073045,60 L20.1073045,60 L11.5910666,65 L10.1795173,60 L4,60 C1.790861,60 -1.73547709e-16,58.209139 0,56 L0,4 C-2.705415e-16,1.790861 1.790861,4.05812251e-16 4,0 Z" id="path-1"></path>
        <filter x="-7.3%" y="-21.5%" width="114.5%" height="149.2%" filterUnits="objectBoundingBox" id="filter-2">
            <feOffset dx="0" dy="2" in="SourceAlpha" result="shadowOffsetOuter1"></feOffset>
            <feGaussianBlur stdDeviation="5" in="shadowOffsetOuter1" result="shadowBlurOuter1"></feGaussianBlur>
            <feColorMatrix values="0 0 0 0 0   0 0 0 0 0   0 0 0 0 0  0 0 0 0.156386582 0" type="matrix" in="shadowBlurOuter1"></feColorMatrix>
        </filter>
    </defs>
    <g id="Pages" stroke="none" stroke-width="1" fill="none" fill-rule="evenodd">
        <g id="Group-18-Copy" transform="translate(10.000000, 8.000000)">
            <g id="Rectangle">
                <use fill="black" fill-opacity="1" filter="url(#filter-2)" xlink:href="#path-1"></use>
                <use fill="#123D93" fill-rule="evenodd" xlink:href="#path-1"></use>
            </g>
            <g id="Group-17" transform="translate(16.603027, 13.000000)" fill-rule="nonzero">
                <g id="hacer-clic" transform="translate(162.473916, 17.000000)">
                    <path d="M29.6025389,28.430285 L13.0221762,11.8499223 C12.6988601,11.5257513 12.1739378,11.5251295 11.8497668,11.8484456 C11.6938601,12.0039637 11.6061917,12.2150518 11.6061917,12.4352332 L11.6061917,35.3940155 C11.6061917,35.8518653 11.9771503,36.2231347 12.435,36.2232124 C12.6201295,36.2232902 12.8000518,36.1613472 12.9458549,36.0472539 L17.15557,32.7560363 L20.8297928,39.3699482 C20.9769171,39.6317098 21.2540674,39.7934456 21.5543782,39.7927506 C21.6833161,39.7927506 21.8104663,39.7626684 21.9258031,39.7048446 L26.8998964,37.2177979 C27.1022798,37.1164508 27.254456,36.9367617 27.3210622,36.7203886 C27.3883679,36.5043264 27.3644301,36.2700777 27.2547668,36.0721244 L23.7927979,29.8445596 L29.0155959,29.8445596 C29.4734456,29.8454145 29.8452591,29.4748446 29.8461166,29.0169948 C29.8465026,28.7962694 29.7588342,28.5844819 29.6025389,28.4285751 L29.6025389,28.430285 Z" id="Path" fill="#5BBDFF"></path>
                    <g id="Group" fill="#FFFFFF">
                        <path d="M12.4352332,6.63209845 C11.9773834,6.63209845 11.6061917,6.26090674 11.6061917,5.80305699 L11.6061917,0.828963731 C11.6062694,0.37119171 11.9773834,0 12.4352332,0 C12.8930829,0 13.2642746,0.37119171 13.2642746,0.829041451 L13.2642746,5.80313472 C13.2642746,6.26098446 12.8931606,6.63209845 12.4352332,6.63209845 Z" id="Path"></path>
                        <path d="M5.80313471,13.2642746 L0.829041451,13.2642746 C0.37119171,13.2642746 0,12.8930829 0,12.4352332 C0,11.9773834 0.37119171,11.6061917 0.829041451,11.6061917 L5.80313471,11.6061917 C6.26098445,11.6061917 6.63217616,11.9773834 6.63217616,12.4352332 C6.63217616,12.8930829 6.26098445,13.2642746 5.80313471,13.2642746 Z" id="Path"></path>
                        <path d="M24.0415026,13.2642746 L19.0674093,13.2642746 C18.6095596,13.2642746 18.2383679,12.8930829 18.2383679,12.4352332 C18.2383679,11.9773834 18.6095596,11.6061917 19.0674093,11.6061917 L24.0415026,11.6061917 C24.4993523,11.6061917 24.870544,11.9773834 24.870544,12.4352332 C24.8704663,12.8930829 24.4993523,13.2642746 24.0415026,13.2642746 Z" id="Path"></path>
                        <path d="M7.74637305,8.57370466 C7.52634715,8.57409326 7.31518134,8.48704663 7.15943005,8.33160622 L3.6477202,4.80831606 C3.37297927,4.44202073 3.44720207,3.92238342 3.8134974,3.64772021 C4.10829015,3.42668394 4.51352331,3.42668394 4.80831606,3.64772021 L8.33160621,7.15779793 C8.6557772,7.48111399 8.65639896,8.00603627 8.3330829,8.33020725 C8.17717616,8.48650259 7.9653886,8.57417098 7.74466321,8.57378495 L7.74637305,8.57378495 L7.74637305,8.57370466 Z" id="Path"></path>
                        <path d="M4.22797927,21.4698187 C3.77020725,21.462513 3.405,21.0854922 3.41230569,20.6276425 C3.41572538,20.4160104 3.49989637,20.2137047 3.64764248,20.0621503 L7.15935233,16.5371503 C7.47738341,16.2078497 8.00222797,16.1986788 8.33160621,16.5167876 C8.66090673,16.8348187 8.67007772,17.3596632 8.35196891,17.6890415 C8.34528497,17.6959585 8.33852331,17.7027202 8.33160621,17.7094041 L4.80831606,21.2227461 C4.65497409,21.3784197 4.44645077,21.4671762 4.22797927,21.4698187 Z" id="Path"></path>
                        <path d="M17.124171,8.57370761 C16.6663212,8.57455959 16.2945078,8.20398964 16.2936503,7.7461399 C16.2932643,7.52541451 16.3809326,7.31362694 16.537228,7.15772021 L20.062228,3.64764249 C20.4285233,3.37290155 20.9481606,3.44720207 21.2228238,3.81341969 C21.4438601,4.10821244 21.4438601,4.5134456 21.2228238,4.80823834 L17.711114,8.32989637 C17.5555959,8.48595855 17.3444301,8.57362694 17.124171,8.57370761 Z" id="Path"></path>
                    </g>
                </g>
                <g id="Registro-de-PQRS" transform="translate(0.596973, 0.000000)" fill="#FFFFFF">
                    <path d="M8.496,4.16 C8.496,1.568 6.24,0.8 4.416,0.8 L0.432,0.8 C0.096,0.8 0,0.896 0,1.232 L0,11.568 C0,11.904 0.096,12 0.432,12 L2.176,12 C2.512,12 2.608,11.904 2.608,11.568 L2.608,7.52 L3.504,7.52 L6.128,11.568 C6.336,11.872 6.528,12 6.864,12 L8.48,12 C8.816,12 9.088,11.84 8.848,11.44 L6.144,7.28 C7.424,6.88 8.496,5.952 8.496,4.16 Z M2.608,5.36 L2.608,2.96 L4.336,2.96 C5.456,2.96 5.968,3.328 5.968,4.16 C5.968,4.992 5.456,5.36 4.336,5.36 L2.608,5.36 Z" id="Shape"></path>
                    <path d="M16.816,9.712 C16.592,9.44 16.512,9.536 16.192,9.68 C15.296,10.08 14.688,10.096 14.32,10.096 C13.472,10.096 12.752,9.52 12.48,8.704 L17.792,8.704 C18.128,8.704 18.192,8.592 18.192,8.24 C18.192,5.856 16.928,3.68 14.192,3.68 C11.856,3.68 9.952,5.6 9.952,7.936 C9.952,10.272 11.856,12.176 14.272,12.176 C15.456,12.176 16.784,11.776 17.52,11.04 C17.696,10.864 17.632,10.736 17.44,10.496 L16.816,9.712 Z M12.544,7.152 C12.688,6.48 13.056,5.664 14.144,5.664 C15.184,5.664 15.536,6.48 15.696,7.152 L12.544,7.152 Z" id="Shape"></path>
                    <path d="M25.376,11.552 C25.376,13.472 24.368,13.824 23.344,13.824 C22.464,13.824 21.504,13.472 20.976,13.248 C20.688,13.12 20.624,13.168 20.544,13.52 L20.224,14.832 C20.144,15.152 20.192,15.216 20.464,15.344 C20.64,15.424 21.952,15.952 23.76,15.952 C26.272,15.952 27.824,14.592 27.824,11.232 L27.824,4.288 C27.824,3.952 27.728,3.856 27.392,3.856 L26.656,3.856 C26.4,3.856 26.32,3.984 26.144,4.288 L25.824,4.864 C25.104,4.112 24.208,3.68 22.992,3.68 C20.88,3.68 19.312,5.664 19.312,7.92 C19.312,10.256 20.88,12.176 22.992,12.176 C24.208,12.176 25.136,11.472 25.376,11.088 L25.376,11.552 Z M23.568,5.808 C24.56,5.808 25.392,6.704 25.392,7.92 C25.392,9.136 24.56,10 23.568,10 C22.576,10 21.744,9.136 21.744,7.92 C21.744,6.704 22.576,5.808 23.568,5.808 Z" id="Shape"></path>
                    <path d="M30.336,11.568 C30.336,11.904 30.432,12 30.768,12 L32.352,12 C32.688,12 32.784,11.904 32.784,11.568 L32.784,4.288 C32.784,3.952 32.688,3.856 32.352,3.856 L30.768,3.856 C30.432,3.856 30.336,3.952 30.336,4.288 L30.336,11.568 Z M30.144,1.424 C30.144,2.208 30.752,2.816 31.536,2.816 C32.32,2.816 32.96,2.208 32.96,1.424 C32.96,0.64 32.32,0 31.536,0 C30.752,0 30.144,0.64 30.144,1.424 Z" id="Shape"></path>
                    <path d="M38.16,10.304 C37.216,10.304 36.416,9.872 35.936,9.52 C35.616,9.28 35.52,9.44 35.36,9.728 L34.896,10.528 C34.752,10.816 34.704,10.944 34.992,11.136 C36.176,11.936 37.472,12.176 38.32,12.176 C40.384,12.176 41.808,11.12 41.808,9.472 C41.808,7.648 40.416,7.12 38.672,6.896 C37.68,6.768 37.088,6.608 37.088,6.24 C37.088,5.792 37.392,5.552 38.32,5.552 C39.264,5.552 39.856,5.872 40.352,6.208 C40.656,6.416 40.768,6.288 40.928,6 L41.392,5.2 C41.536,4.912 41.6,4.768 41.296,4.592 C40.064,3.888 39.008,3.68 38.16,3.68 C36.176,3.68 34.784,4.736 34.784,6.384 C34.784,8.128 36.176,8.768 37.92,8.992 C38.912,9.12 39.504,9.248 39.504,9.616 C39.504,10.064 39.008,10.304 38.16,10.304 Z" id="Path"></path>
                    <path d="M48.688,11.76 C48.944,11.6 48.96,11.52 48.912,11.216 L48.72,10.096 C48.656,9.664 48.576,9.648 48.176,9.84 C47.904,9.968 47.616,10 47.376,10 C46.688,10 46.256,9.552 46.256,8.528 L46.256,5.776 L48.288,5.776 C48.624,5.776 48.72,5.68 48.72,5.344 L48.72,4.288 C48.72,3.952 48.624,3.856 48.288,3.856 L46.256,3.856 L46.256,2.384 C46.256,2.048 46.16,1.952 45.824,1.952 L44.256,1.952 C43.92,1.952 43.824,2.048 43.824,2.384 L43.824,3.856 L43.44,3.856 C43.104,3.856 43.008,3.952 43.008,4.288 L43.008,5.344 C43.008,5.68 43.104,5.776 43.44,5.776 L43.824,5.776 L43.824,8.656 C43.824,10.848 44.992,12.176 47.104,12.176 C47.312,12.176 48.032,12.176 48.688,11.76 Z" id="Path"></path>
                    <path d="M55.408,6.096 C55.728,6.096 55.808,6.032 55.872,5.696 L56.112,4.08 C56.16,3.792 56.128,3.68 55.728,3.68 C54.064,3.68 53.456,4.24 52.896,5.168 L52.416,4.288 C52.24,3.968 52.16,3.856 51.904,3.856 L51.136,3.856 C50.8,3.856 50.704,3.952 50.704,4.288 L50.704,11.568 C50.704,11.904 50.8,12 51.136,12 L52.72,12 C53.056,12 53.152,11.904 53.152,11.568 L53.152,8.176 C53.152,7.04 53.808,6.096 55.408,6.096 Z" id="Path"></path>
                    <path d="M56.912,7.936 C56.912,10.272 58.832,12.176 61.168,12.176 C63.504,12.176 65.424,10.272 65.424,7.936 C65.424,5.6 63.504,3.68 61.168,3.68 C58.832,3.68 56.912,5.6 56.912,7.936 Z M61.168,10.048 C60.176,10.048 59.344,9.152 59.344,7.936 C59.344,6.72 60.176,5.856 61.168,5.856 C62.16,5.856 62.992,6.72 62.992,7.936 C62.992,9.152 62.16,10.048 61.168,10.048 Z" id="Shape"></path>
                    <path d="M76.752,4.768 C76.512,4.384 75.584,3.68 74.368,3.68 C72.256,3.68 70.688,5.6 70.688,7.936 C70.688,10.192 72.256,12.176 74.368,12.176 C75.584,12.176 76.48,11.744 77.2,10.992 L77.52,11.568 C77.696,11.872 77.776,12 78.032,12 L78.768,12 C79.104,12 79.2,11.904 79.2,11.568 L79.2,0.624 C79.2,0.288 79.104,0.192 78.768,0.192 L77.184,0.192 C76.848,0.192 76.752,0.288 76.752,0.624 L76.752,4.768 Z M74.944,10.048 C73.952,10.048 73.12,9.152 73.12,7.936 C73.12,6.72 73.952,5.856 74.944,5.856 C75.936,5.856 76.768,6.72 76.768,7.936 C76.768,9.152 75.936,10.048 74.944,10.048 Z" id="Shape"></path>
                    <path d="M87.792,9.712 C87.568,9.44 87.488,9.536 87.168,9.68 C86.272,10.08 85.664,10.096 85.296,10.096 C84.448,10.096 83.728,9.52 83.456,8.704 L88.768,8.704 C89.104,8.704 89.168,8.592 89.168,8.24 C89.168,5.856 87.904,3.68 85.168,3.68 C82.832,3.68 80.928,5.6 80.928,7.936 C80.928,10.272 82.832,12.176 85.248,12.176 C86.432,12.176 87.76,11.776 88.496,11.04 C88.672,10.864 88.608,10.736 88.416,10.496 L87.792,9.712 Z M83.52,7.152 C83.664,6.48 84.032,5.664 85.12,5.664 C86.16,5.664 86.512,6.48 86.672,7.152 L83.52,7.152 Z" id="Shape"></path>
                    <path d="M97.536,5.36 L97.536,2.96 L99.264,2.96 C100.384,2.96 100.896,3.328 100.896,4.16 C100.896,4.992 100.384,5.36 99.264,5.36 L97.536,5.36 Z M99.344,7.52 C101.168,7.52 103.424,6.752 103.424,4.16 C103.424,1.568 101.168,0.8 99.344,0.8 L95.36,0.8 C95.024,0.8 94.928,0.896 94.928,1.232 L94.928,11.568 C94.928,11.904 95.024,12 95.36,12 L97.104,12 C97.44,12 97.536,11.904 97.536,11.568 L97.536,7.52 L99.344,7.52 Z" id="Shape"></path>
                    <path d="M104.336,6.4 C104.336,9.584 106.944,12.208 110.096,12.208 C110.624,12.208 111.136,12.128 111.632,12 L113.04,14.096 C113.232,14.384 113.344,14.4 113.616,14.224 L115.008,13.232 C115.28,13.04 115.312,12.896 115.12,12.624 L113.76,10.864 C115.04,9.792 115.856,8.192 115.856,6.4 C115.856,3.216 113.248,0.592 110.096,0.592 C106.944,0.592 104.336,3.216 104.336,6.4 Z M106.976,6.4 C106.976,4.624 108.112,2.848 110.096,2.848 C112.144,2.848 113.216,4.624 113.216,6.4 C113.216,8.144 112.144,9.952 110.096,9.952 C108.112,9.952 106.976,8.144 106.976,6.4 Z" id="Shape"></path>
                    <path d="M126.224,4.16 C126.224,1.568 123.968,0.8 122.144,0.8 L118.16,0.8 C117.824,0.8 117.728,0.896 117.728,1.232 L117.728,11.568 C117.728,11.904 117.824,12 118.16,12 L119.904,12 C120.24,12 120.336,11.904 120.336,11.568 L120.336,7.52 L121.232,7.52 L123.856,11.568 C124.064,11.872 124.256,12 124.592,12 L126.208,12 C126.544,12 126.816,11.84 126.576,11.44 L123.872,7.28 C125.152,6.88 126.224,5.952 126.224,4.16 Z M120.336,5.36 L120.336,2.96 L122.064,2.96 C123.184,2.96 123.696,3.328 123.696,4.16 C123.696,4.992 123.184,5.36 122.064,5.36 L120.336,5.36 Z" id="Shape"></path>
                    <path d="M132.352,2.88 C133.312,2.88 133.952,3.04 134.976,3.728 C135.264,3.92 135.392,3.808 135.552,3.52 L136.208,2.432 C136.352,2.144 136.4,2 136.112,1.824 C134.88,1.072 133.84,0.624 132.192,0.624 C129.088,0.624 127.968,2.752 127.968,4.288 C127.968,6.608 129.904,7.296 131.648,7.504 C133.152,7.68 134.08,7.856 134.08,8.848 C134.08,9.552 133.536,9.92 132.224,9.92 C131.264,9.92 130.176,9.712 129.152,9.072 C128.864,8.896 128.736,8.992 128.576,9.28 L127.92,10.368 C127.776,10.656 127.728,10.784 128.016,10.976 C129.168,11.776 130.64,12.176 132.384,12.176 C135.136,12.176 136.608,10.528 136.608,8.72 C136.608,6.16 134.608,5.552 132.768,5.344 C131.264,5.168 130.496,5.024 130.496,4.192 C130.496,3.472 130.784,2.88 132.352,2.88 Z" id="Path"></path>
                </g>
                <g id="da-clic-aquí!" transform="translate(0.000000, 19.250000)" fill="#FFFFFF">
                    <path d="M0,6.25878906 C0,5.20507812 0.249674479,4.35766602 0.749023438,3.71655273 C1.2483724,3.07543945 1.90218099,2.75488281 2.71044922,2.75488281 C3.51448568,2.75488281 4.15136719,3.02994792 4.62109375,3.58007812 L4.62109375,0 L5.79541016,0 L5.79541016,9.75 L4.71630859,9.75 L4.65917969,9.01367188 C4.18945312,9.58919271 3.53564453,9.87695312 2.69775391,9.87695312 C1.90218099,9.87695312 1.25366211,9.55110677 0.752197266,8.89941406 C0.250732422,8.24772135 0,7.39713542 0,6.34765625 L0,6.25878906 Z M1.17431641,6.39208984 C1.17431641,7.17073568 1.3351237,7.78011068 1.65673828,8.22021484 C1.97835286,8.66031901 2.4226888,8.88037109 2.98974609,8.88037109 C3.73453776,8.88037109 4.27832031,8.5460612 4.62109375,7.87744141 L4.62109375,4.72265625 C4.26985677,4.07519531 3.73030599,3.75146484 3.00244141,3.75146484 C2.42692057,3.75146484 1.97835286,3.97363281 1.65673828,4.41796875 C1.3351237,4.86230469 1.17431641,5.52034505 1.17431641,6.39208984 Z" id="Shape"></path>
                    <path d="M12.8574219,9.75 C12.7897135,9.61458333 12.7347005,9.3733724 12.6923828,9.02636719 C12.1464844,9.59342448 11.4947917,9.87695312 10.7373047,9.87695312 C10.0602214,9.87695312 9.50480143,9.68546549 9.07104492,9.30249023 C8.63728841,8.91951497 8.42041016,8.43391927 8.42041016,7.84570312 C8.42041016,7.13053385 8.69230143,6.57511393 9.23608398,6.17944336 C9.77986654,5.78377279 10.5447591,5.5859375 11.5307617,5.5859375 L12.6733398,5.5859375 L12.6733398,5.04638672 C12.6733398,4.63590495 12.5506185,4.30900065 12.3051758,4.06567383 C12.0597331,3.82234701 11.6979167,3.70068359 11.2197266,3.70068359 C10.8007812,3.70068359 10.4495443,3.80647786 10.1660156,4.01806641 C9.88248698,4.22965495 9.74072266,4.48567708 9.74072266,4.78613281 L8.56005859,4.78613281 C8.56005859,4.44335938 8.68172201,4.11222331 8.92504883,3.79272461 C9.16837565,3.47322591 9.49845378,3.2203776 9.9152832,3.03417969 C10.3321126,2.84798177 10.7902018,2.75488281 11.2895508,2.75488281 C12.0808919,2.75488281 12.7008464,2.9527181 13.1494141,3.34838867 C13.5979818,3.74405924 13.8307292,4.28889974 13.8476562,4.98291016 L13.8476562,8.14404297 C13.8476562,8.77457682 13.9280599,9.27604167 14.0888672,9.6484375 L14.0888672,9.75 L12.8574219,9.75 Z M10.9086914,8.85498047 C11.2768555,8.85498047 11.6259766,8.75976562 11.9560547,8.56933594 C12.2861328,8.37890625 12.5252279,8.13134766 12.6733398,7.82666016 L12.6733398,6.41748047 L11.7529297,6.41748047 C10.3141276,6.41748047 9.59472656,6.83854167 9.59472656,7.68066406 C9.59472656,8.04882812 9.71744792,8.33658854 9.96289062,8.54394531 C10.2083333,8.75130208 10.5236003,8.85498047 10.9086914,8.85498047 Z" id="Shape"></path>
                    <path d="M23.6616211,8.91845703 C24.0805664,8.91845703 24.4466146,8.79150391 24.7597656,8.53759766 C25.0729167,8.28369141 25.2464193,7.96630859 25.2802734,7.58544922 L26.3911133,7.58544922 C26.3699544,7.97900391 26.2345378,8.35351562 25.9848633,8.70898438 C25.7351888,9.06445312 25.4019368,9.34798177 24.9851074,9.55957031 C24.568278,9.77115885 24.1271159,9.87695312 23.6616211,9.87695312 C22.7263997,9.87695312 21.982666,9.56486003 21.4304199,8.94067383 C20.8781738,8.31648763 20.6020508,7.46272786 20.6020508,6.37939453 L20.6020508,6.18261719 C20.6020508,5.5139974 20.7247721,4.91943359 20.9702148,4.39892578 C21.2156576,3.87841797 21.5679525,3.47428385 22.0270996,3.18652344 C22.4862467,2.89876302 23.0289714,2.75488281 23.6552734,2.75488281 C24.4254557,2.75488281 25.0655111,2.98551432 25.5754395,3.44677734 C26.0853678,3.90804036 26.3572591,4.50683594 26.3911133,5.24316406 L25.2802734,5.24316406 C25.2464193,4.79882812 25.0782064,4.43383789 24.7756348,4.14819336 C24.4730632,3.86254883 24.0996094,3.71972656 23.6552734,3.71972656 C23.0585938,3.71972656 22.5962728,3.93448893 22.2683105,4.36401367 C21.9403483,4.79353841 21.7763672,5.41455078 21.7763672,6.22705078 L21.7763672,6.44921875 C21.7763672,7.2405599 21.9392904,7.8499349 22.2651367,8.27734375 C22.5909831,8.7047526 23.0564779,8.91845703 23.6616211,8.91845703 Z" id="Path"></path>
                    <polygon id="Path" points="29.9873047 9.75 28.8129883 9.75 28.8129883 0 29.9873047 0"></polygon>
                    <path d="M34.1420898,9.75 L32.9677734,9.75 L32.9677734,2.88183594 L34.1420898,2.88183594 L34.1420898,9.75 Z M32.8725586,1.06005859 C32.8725586,0.869628906 32.9307454,0.708821615 33.0471191,0.577636719 C33.1634928,0.446451823 33.3359375,0.380859375 33.5644531,0.380859375 C33.7929688,0.380859375 33.9664714,0.446451823 34.0849609,0.577636719 C34.2034505,0.708821615 34.2626953,0.869628906 34.2626953,1.06005859 C34.2626953,1.25048828 34.2034505,1.40917969 34.0849609,1.53613281 C33.9664714,1.66308594 33.7929688,1.7265625 33.5644531,1.7265625 C33.3359375,1.7265625 33.1634928,1.66308594 33.0471191,1.53613281 C32.9307454,1.40917969 32.8725586,1.25048828 32.8725586,1.06005859 Z" id="Shape"></path>
                    <path d="M39.7758789,8.91845703 C40.1948242,8.91845703 40.5608724,8.79150391 40.8740234,8.53759766 C41.1871745,8.28369141 41.3606771,7.96630859 41.3945312,7.58544922 L42.5053711,7.58544922 C42.4842122,7.97900391 42.3487956,8.35351562 42.0991211,8.70898438 C41.8494466,9.06445312 41.5161947,9.34798177 41.0993652,9.55957031 C40.6825358,9.77115885 40.2413737,9.87695312 39.7758789,9.87695312 C38.8406576,9.87695312 38.0969238,9.56486003 37.5446777,8.94067383 C36.9924316,8.31648763 36.7163086,7.46272786 36.7163086,6.37939453 L36.7163086,6.18261719 C36.7163086,5.5139974 36.8390299,4.91943359 37.0844727,4.39892578 C37.3299154,3.87841797 37.6822103,3.47428385 38.1413574,3.18652344 C38.6005046,2.89876302 39.1432292,2.75488281 39.7695312,2.75488281 C40.5397135,2.75488281 41.1797689,2.98551432 41.6896973,3.44677734 C42.1996257,3.90804036 42.4715169,4.50683594 42.5053711,5.24316406 L41.3945312,5.24316406 C41.3606771,4.79882812 41.1924642,4.43383789 40.8898926,4.14819336 C40.587321,3.86254883 40.2138672,3.71972656 39.7695312,3.71972656 C39.1728516,3.71972656 38.7105306,3.93448893 38.3825684,4.36401367 C38.0546061,4.79353841 37.890625,5.41455078 37.890625,6.22705078 L37.890625,6.44921875 C37.890625,7.2405599 38.0535482,7.8499349 38.3793945,8.27734375 C38.7052409,8.7047526 39.1707357,8.91845703 39.7758789,8.91845703 Z" id="Path"></path>
                    <path d="M53.2841797,9.75 C53.2164714,9.61458333 53.1614583,9.3733724 53.1191406,9.02636719 C52.5732422,9.59342448 51.9215495,9.87695312 51.1640625,9.87695312 C50.4869792,9.87695312 49.9315592,9.68546549 49.4978027,9.30249023 C49.0640462,8.91951497 48.847168,8.43391927 48.847168,7.84570312 C48.847168,7.13053385 49.1190592,6.57511393 49.6628418,6.17944336 C50.2066243,5.78377279 50.9715169,5.5859375 51.9575195,5.5859375 L53.1000977,5.5859375 L53.1000977,5.04638672 C53.1000977,4.63590495 52.9773763,4.30900065 52.7319336,4.06567383 C52.4864909,3.82234701 52.1246745,3.70068359 51.6464844,3.70068359 C51.2275391,3.70068359 50.8763021,3.80647786 50.5927734,4.01806641 C50.3092448,4.22965495 50.1674805,4.48567708 50.1674805,4.78613281 L48.9868164,4.78613281 C48.9868164,4.44335938 49.1084798,4.11222331 49.3518066,3.79272461 C49.5951335,3.47322591 49.9252116,3.2203776 50.342041,3.03417969 C50.7588704,2.84798177 51.2169596,2.75488281 51.7163086,2.75488281 C52.5076497,2.75488281 53.1276042,2.9527181 53.5761719,3.34838867 C54.0247396,3.74405924 54.257487,4.28889974 54.2744141,4.98291016 L54.2744141,8.14404297 C54.2744141,8.77457682 54.3548177,9.27604167 54.515625,9.6484375 L54.515625,9.75 L53.2841797,9.75 Z M51.3354492,8.85498047 C51.7036133,8.85498047 52.0527344,8.75976562 52.3828125,8.56933594 C52.7128906,8.37890625 52.9519857,8.13134766 53.1000977,7.82666016 L53.1000977,6.41748047 L52.1796875,6.41748047 C50.7408854,6.41748047 50.0214844,6.83854167 50.0214844,7.68066406 C50.0214844,8.04882812 50.1442057,8.33658854 50.3896484,8.54394531 C50.6350911,8.75130208 50.9503581,8.85498047 51.3354492,8.85498047 Z" id="Shape"></path>
                    <path d="M56.8295898,6.25878906 C56.8295898,5.1796875 57.0771484,4.32592773 57.5722656,3.69750977 C58.0673828,3.0690918 58.7317708,2.75488281 59.5654297,2.75488281 C60.3779297,2.75488281 61.019043,3.02783203 61.4887695,3.57373047 L61.5395508,2.88183594 L62.6186523,2.88183594 L62.6186523,12.390625 L61.4443359,12.390625 L61.4443359,9.11523438 C60.9703776,9.62304688 60.3398438,9.87695312 59.5527344,9.87695312 C58.7233073,9.87695312 58.0620931,9.5542806 57.5690918,8.90893555 C57.0760905,8.26359049 56.8295898,7.40771484 56.8295898,6.34130859 L56.8295898,6.25878906 Z M58.0039062,6.39208984 C58.0039062,7.17919922 58.1700033,7.79703776 58.5021973,8.24560547 C58.8343913,8.69417318 59.281901,8.91845703 59.8447266,8.91845703 C60.5429688,8.91845703 61.0761719,8.60953776 61.4443359,7.99169922 L61.4443359,4.62744141 C61.0719401,4.02229818 60.5429688,3.71972656 59.8574219,3.71972656 C59.2903646,3.71972656 58.839681,3.94506836 58.5053711,4.39575195 C58.1710612,4.84643555 58.0039062,5.51188151 58.0039062,6.39208984 Z" id="Shape"></path>
                    <path d="M69.7441406,9.07080078 C69.2871094,9.60823568 68.6163737,9.87695312 67.7319336,9.87695312 C66.9998372,9.87695312 66.4423014,9.66430664 66.0593262,9.23901367 C65.6763509,8.8137207 65.4827474,8.18424479 65.4785156,7.35058594 L65.4785156,2.88183594 L66.652832,2.88183594 L66.652832,7.31884766 C66.652832,8.35986328 67.0760091,8.88037109 67.9223633,8.88037109 C68.8194987,8.88037109 69.4161784,8.5460612 69.7124023,7.87744141 L69.7124023,2.88183594 L70.8867188,2.88183594 L70.8867188,9.75 L69.7695312,9.75 L69.7441406,9.07080078 Z" id="Path"></path>
                    <path d="M74.9462891,9.75 L73.765625,9.75 L73.765625,2.88183594 L74.9462891,2.88183594 L74.9462891,9.75 Z M74.9589844,0.00634765625 L76.3808594,0.00634765625 L74.6796875,1.87255859 L73.7338867,1.87255859 L74.9589844,0.00634765625 Z" id="Shape"></path>
                    <path d="M79.1962891,7.14111328 L78.1362305,7.14111328 L78.0537109,0.5078125 L79.2851562,0.5078125 L79.1962891,7.14111328 Z M78.0092773,9.15966797 C78.0092773,8.96923828 78.0674642,8.80948893 78.1838379,8.68041992 C78.3002116,8.55135091 78.4726562,8.48681641 78.7011719,8.48681641 C78.9296875,8.48681641 79.1031901,8.55135091 79.2216797,8.68041992 C79.3401693,8.80948893 79.3994141,8.96923828 79.3994141,9.15966797 C79.3994141,9.35009766 79.3401693,9.50773112 79.2216797,9.63256836 C79.1031901,9.7574056 78.9296875,9.81982422 78.7011719,9.81982422 C78.4726562,9.81982422 78.3002116,9.7574056 78.1838379,9.63256836 C78.0674642,9.50773112 78.0092773,9.35009766 78.0092773,9.15966797 Z" id="Shape"></path>
                </g>
            </g>
        </g>
    </g>
</svg>