<?xml version="1.0" encoding="UTF-8"?>
<svg width="41px" height="41px" viewBox="0 0 41 41" version="1.1" xmlns="http://www.w3.org/2000/svg" xmlns:xlink="http://www.w3.org/1999/xlink">
    <title>Group</title>
    <g id="Homepage" stroke="none" stroke-width="1" fill="none" fill-rule="evenodd">
        <g id="Home-page-1920" transform="translate(-1202.000000, -4538.000000)">
            <g id="footer" transform="translate(260.000000, 4351.000000)">
                <g id="col" transform="translate(836.000000, 60.000000)">
                    <g id="twitter" transform="translate(0.000000, 128.000000)">
                        <g id="Group" transform="translate(107.000000, 0.000000)">
                            <rect id="Rectangle" x="0" y="0" width="38.7" height="38.7" rx="6.3"></rect>
                            <rect id="Rectangle" stroke="#5BBDFF" stroke-width="1.8" x="0.9" y="0.9" width="36.9" height="36.9" rx="5.4"></rect>
                            <path d="M33.8032,11.2005 C32.9203098,11.4559684 32.022506,11.6567495 31.1149,11.8017 C31.7960499,11.158564 32.3034828,10.3536064 32.59,9.4617 C32.6269591,9.34605802 32.5881613,9.21962598 32.4926988,9.1446197 C32.3972363,9.06961342 32.2652145,9.06183017 32.1616,9.1251 C31.3073471,9.62880736 30.3849689,10.0067915 29.4229,10.2474 C29.3668926,10.2626963 29.3090575,10.2702664 29.251,10.2699 C29.0748531,10.269946 28.9046921,10.2059757 28.7722,10.0899 C27.7480742,9.18847296 26.4303328,8.69151995 25.066,8.6921993 C24.4645436,8.69322826 23.8666255,8.78423558 23.2921,8.9622 C21.4698394,9.52879637 20.0803129,11.0126904 19.6345,12.8682 C19.4714443,13.5393077 19.4266737,14.23371 19.5022,14.9202 C19.5086106,14.976664 19.4902251,15.0331337 19.4518,15.075 C19.4130258,15.1197311 19.357087,15.1459013 19.2979,15.147 L19.2772,15.147 C15.3019,14.778 9.1837,9.7695 9.1837,9.7695 C9.12290418,9.6951161 9.02945835,9.6553278 8.93370128,9.66305304 C8.8379442,9.67077829 8.75208526,9.72503207 8.704,9.8082 C8.20637225,10.6599493 7.94450238,11.6288368 7.9453,12.6153 C7.94379995,14.1122008 8.54563161,15.5465392 9.6148,16.5942 C9.16826438,16.4894032 8.7382437,16.3237544 8.3368,16.1019 C8.24664051,16.0519269 8.13686967,16.0529341 8.04764237,16.1045532 C7.95841507,16.1561723 7.9028222,16.2508301 7.9012,16.3539 C7.87629334,18.5669334 9.15897919,20.5864138 11.1727,21.5046 C11.1331,21.5046 11.0935,21.5046 11.053,21.5046 C10.7361814,21.5041183 10.4201032,21.4739869 10.1089,21.4146 C10.0074448,21.3955126 9.9034236,21.4311494 9.8349869,21.5084404 C9.7665502,21.5857315 9.74376958,21.6933021 9.775,21.7917 C10.4167,23.7888 12.1429,25.8795 14.2093,26.2125 C12.4939,27.3609 10.4986,28.5813 8.4205,28.5813 L7.7716,28.5813 C7.5727,28.5813 7.4044,28.0944 7.3531,28.2888 C7.3018,28.4832 7.3963,28.3716 7.5655,28.4688 C9.92557969,29.7810251 12.5912691,30.444342 15.2911,30.3912 C17.5721231,30.3864828 19.8246705,29.8843127 21.8917,28.9197 C23.7374354,28.0516597 25.3826224,26.8094944 26.7229,25.272 C27.9970599,23.8123659 28.9935507,22.1320268 29.6632,20.3139 C30.3126337,18.5792311 30.6478701,16.7427451 30.6532,14.8905 L30.6532,14.8005 C30.6609883,14.5123745 30.7969523,14.2427566 31.024,14.0652 C31.8859472,13.3690605 32.6388828,12.5478693 33.2578,11.6289 C33.4234,11.385 34.0732,11.0808 33.8032,11.2005 Z" id="Path" stroke="#5BBDFF" stroke-width="1.8" stroke-linecap="round" stroke-linejoin="round"></path>
                        </g>
                    </g>
                </g>
            </g>
        </g>
    </g>
</svg>