<?xml version="1.0" encoding="UTF-8"?>
<svg width="20px" height="21px" viewBox="0 0 20 21" version="1.1" xmlns="http://www.w3.org/2000/svg" xmlns:xlink="http://www.w3.org/1999/xlink">
    <title>whatsapp</title>
    <g id="Homepage" stroke="none" stroke-width="1" fill="none" fill-rule="evenodd">
        <g id="Home-page-1920" transform="translate(-1099.000000, -4463.000000)" fill="#FFFFFF" fill-rule="nonzero">
            <g id="footer" transform="translate(260.000000, 4351.000000)">
                <g id="col" transform="translate(836.000000, 60.000000)">
                    <g id="whatsapp" transform="translate(3.000000, 52.000000)">
                        <path d="M17.0575774,2.91560539 C15.1806182,1.03644201 12.6844142,0.00110207524 10.0251029,3.80140364e-13 C4.5453321,3.80140364e-13 0.0855946395,4.45961502 0.0833904702,9.9408552 C0.082655768,11.6930349 0.540384984,13.4034581 1.41041342,14.9110991 L9.41469125e-14,20.0626959 L5.27025373,18.6802018 C6.72242357,19.4723501 8.35729329,19.8897923 10.0210619,19.8902821 L10.0252253,19.8902821 C15.5043838,19.8902821 19.9646111,15.4302997 19.9666937,9.94881467 C19.9677949,7.29231975 18.9346591,4.79464636 17.0575774,2.91560539 Z M10.0251029,18.2113293 L10.0216742,18.2113293 C8.53901351,18.2107171 7.08488439,17.8122551 5.81602665,17.0595366 L5.51442495,16.8803879 L2.38697589,17.7008229 L3.22173787,14.6516213 L3.02520082,14.3389988 C2.19803097,13.023364 1.76124119,11.5027429 1.76197497,9.94146746 C1.76369025,5.38560442 5.4705868,1.67907524 10.0284091,1.67907524 C12.2355016,1.67980997 14.3102224,2.54040947 15.8702733,4.10229721 C17.4303243,5.66418495 18.2889645,7.74025273 18.2882303,9.94820238 C18.2862706,14.5044328 14.5796189,18.2113293 10.0251029,18.2113293 L10.0251029,18.2113293 Z M14.5575774,12.0226783 C14.3092428,11.8982661 13.0878967,11.2975118 12.8601342,11.2144887 C12.6326166,11.131588 12.4668152,11.0903213 12.3013813,11.3389009 C12.1357024,11.5874804 11.6597276,12.1470905 11.5147433,12.3127694 C11.369759,12.4785707 11.2250196,12.4993877 10.9765625,12.3749755 C10.7281054,12.2506857 9.92775273,11.988269 8.97886461,11.1419965 C8.24047317,10.4833219 7.74196708,9.66986677 7.59698276,9.42128721 C7.45224332,9.17246276 7.59575824,9.0509894 7.70596589,8.91433191 C7.97487266,8.58040263 8.24414674,8.23030956 8.32692495,8.06463069 C8.40982564,7.89882934 8.36831408,7.75372257 8.30610796,7.62943279 C8.24414674,7.50514301 7.74735502,6.28245003 7.54040947,5.78492357 C7.33860696,5.30074451 7.13398806,5.36613442 6.98141163,5.35854232 C6.83667223,5.35131759 6.67099335,5.34984815 6.50531445,5.34984815 C6.33975803,5.34984815 6.07060639,5.41193182 5.84284386,5.66075627 C5.61520376,5.90945828 4.97355016,6.51033505 4.97355016,7.73302803 C4.97355016,8.955721 5.86366085,10.1369024 5.98782818,10.3027038 C6.11199549,10.4685051 7.73951803,12.9775666 10.2313137,14.0534385 C10.8239861,14.3096101 11.2866134,14.462309 11.6474824,14.5768025 C12.2426038,14.7658699 12.7839685,14.7391752 13.2120641,14.6752547 C13.6893858,14.6038646 14.6816223,14.0742555 14.8888127,13.4940733 C15.0957582,12.9137686 15.0957582,12.4164871 15.0335521,12.3127694 C14.9715909,12.2091742 14.805912,12.1470905 14.5575774,12.0226783 L14.5575774,12.0226783 Z" id="Shape"></path>
                    </g>
                </g>
            </g>
        </g>
    </g>
</svg>